<?xml version="1.0" encoding="iso-8859-1"?>
<!-- Generator: Adobe Illustrator 19.0.0, SVG Export Plug-In . SVG Version: 6.00 Build 0)  -->
<svg fill="#0071ce" version="1.1" id="Capa_1" xmlns="http://www.w3.org/2000/svg" xmlns:xlink="http://www.w3.org/1999/xlink" x="0px" y="0px"
	 viewBox="0 0 509.68 509.68" style="enable-background:new 0 0 509.68 509.68;" xml:space="preserve">
<g>
	<g>
		<g>
			<path d="M408.52,341.04c9.42-16.755,15.985-34.961,19.424-53.872l62.016-32l-62.032-32
				c-4.143-22.484-12.638-43.941-25.008-63.168l58.656-146L312.024,88.768c-7.51-2.574-15.186-4.632-22.976-6.16L191.016,17.28
				v73.936c-7.803,3.073-15.374,6.704-22.656,10.864L0.104,0l101.408,169.296c-9.42,16.755-15.985,34.961-19.424,53.872l-62.016,32
				l62.016,32c6.28,33.759,22.272,64.953,46.016,89.76v115.808l60.016-74.912c11.244,4.625,22.939,8.068,34.896,10.272l32,62.016
				l32-62.016c18.928-3.434,37.151-9.999,53.92-19.424l168.64,101.008L408.52,341.04z M340.632,371.2l-8.352,5.328
				c-17.527,11.229-37.314,18.457-57.952,21.168l-8.272,1.12l-11.04,21.408l-11.024-21.408l-8.288-1.12
				c-15.701-2.095-30.944-6.789-45.104-13.888L179.032,378l-18.928,23.6v-38.096l-4.896-4.704
				c-23.317-22.503-38.367-52.209-42.72-84.32l-1.12-8.288L89.96,255.168l21.408-11.04l1.12-8.272
				c2.711-20.638,9.939-40.425,21.168-57.952l5.328-8.352l-45.056-75.2l74.688,45.312l8.416-5.44
				c10.8-7.026,22.501-12.559,34.784-16.448l11.2-3.536V77.056l53.776,35.856l3.312,0.592c9.292,1.628,18.402,4.163,27.2,7.568
				l6.608,2.576l86.544-43.312l-33.68,83.84l5.136,7.152c13.682,19.092,22.472,41.249,25.6,64.528l1.12,8.288l21.44,11.024
				l-21.408,11.04l-1.12,8.272c-2.711,20.638-9.939,40.425-21.168,57.952l-5.328,8.352l45.456,75.872L340.632,371.2z"/>
			<rect x="191.016" y="159.168" width="32" height="32"/>
			<rect x="159.016" y="223.168" width="32" height="64"/>
			<rect x="191.016" y="319.168" width="32" height="32"/>
			<rect x="255.016" y="159.168" width="32" height="64"/>
			<rect x="223.016" y="255.168" width="32" height="32"/>
			<rect x="255.016" y="319.168" width="32" height="32"/>
			<rect x="319.016" y="159.168" width="32" height="32"/>
			<rect x="319.016" y="223.168" width="32" height="128"/>
		</g>
	</g>
</g>

</svg>
