<svg width="38" height="38" viewBox="0 0 38 38" fill="none" xmlns="http://www.w3.org/2000/svg">
<path d="M36.7794 9.69067L19.2794 0.940672C19.1926 0.897323 19.097 0.874756 19 0.874756C18.903 0.874756 18.8074 0.897323 18.7206 0.940672L1.22062 9.69067C1.11672 9.74259 1.02935 9.82243 0.9683 9.92123C0.90725 10.02 0.87494 10.1339 0.874994 10.25V27.75C0.874357 27.8667 0.906393 27.9812 0.967475 28.0807C1.02856 28.1801 1.11625 28.2604 1.22062 28.3125L18.7206 37.0625C18.8074 37.1059 18.903 37.1285 19 37.1285C19.097 37.1285 19.1926 37.1059 19.2794 37.0625L36.7794 28.3125C36.8837 28.2604 36.9714 28.1801 37.0325 28.0807C37.0936 27.9812 37.1256 27.8667 37.125 27.75V10.25C37.125 10.1339 37.0927 10.02 37.0317 9.92123C36.9706 9.82243 36.8833 9.74259 36.7794 9.69067V9.69067ZM19 18.3013L14.1144 15.8582L29.7306 7.56255L35.1056 10.25L19 18.3013ZM9.11437 13.3582L24.7306 5.06255L28.3556 6.87505L12.7412 15.1719L9.11437 13.3582ZM8.37499 14.3863L12.125 16.2613V21.2413L10.6919 19.8082C10.5747 19.691 10.4157 19.6251 10.25 19.625H8.37499V14.3863ZM19 2.1988L23.3575 4.37505L7.74124 12.6719L2.89749 10.25L19 2.1988ZM2.12499 11.2613L7.12499 13.7613V20.25C7.12499 20.4158 7.19084 20.5748 7.30805 20.692C7.42526 20.8092 7.58423 20.875 7.74999 20.875H9.99124L12.3081 23.1919C12.3955 23.2793 12.5069 23.3388 12.6281 23.3629C12.7493 23.387 12.875 23.3746 12.9892 23.3273C13.1033 23.2801 13.2009 23.2 13.2696 23.0972C13.3383 22.9945 13.375 22.8736 13.375 22.75V16.8863L18.375 19.3863V35.4888L2.12499 27.3638V11.2613ZM19.625 35.4888V19.3863L35.875 11.2613V27.3638L19.625 35.4888Z" fill="#0073AE"/>
</svg>
