<svg width="38" height="38" viewBox="0 0 38 38" fill="none" xmlns="http://www.w3.org/2000/svg">
<path d="M19 0.25C15.2916 0.25 11.6665 1.34967 8.58307 3.40994C5.49964 5.47022 3.09641 8.39857 1.67727 11.8247C0.258124 15.2508 -0.113188 19.0208 0.610284 22.6579C1.33376 26.2951 3.11952 29.636 5.74176 32.2583C8.36399 34.8805 11.7049 36.6663 15.3421 37.3897C18.9792 38.1132 22.7492 37.7419 26.1753 36.3227C29.6014 34.9036 32.5298 32.5004 34.5901 29.4169C36.6503 26.3335 37.75 22.7084 37.75 19C37.75 14.0272 35.7746 9.25805 32.2583 5.74175C28.742 2.22544 23.9728 0.25 19 0.25ZM19.8038 11.7675C21.5082 11.7695 23.1422 12.4474 24.3474 13.6526C25.5526 14.8578 26.2305 16.4918 26.2325 18.1963H24.625C24.6237 16.918 24.1153 15.6924 23.2114 14.7886C22.3076 13.8847 21.082 13.3763 19.8038 13.375V11.7675ZM25.01 30.25C24.9613 30.25 20.135 30.1675 13.9288 24.0712C7.83251 17.8675 7.75001 13.0388 7.75001 12.99C7.75001 12.3888 11.5 7.75 12.3288 7.75C12.6163 7.75 12.84 7.945 13.085 8.2375C13.675 8.94 16.2838 13.0575 16.1638 13.7437C16.1063 14.0662 15.8325 14.3112 15.0475 14.97C14.6607 15.2741 14.2987 15.6085 13.965 15.97C14.1248 16.6315 14.3623 17.2718 14.6725 17.8775C15.8282 20.2537 17.7483 22.1729 20.125 23.3275C20.7307 23.6377 21.371 23.8752 22.0325 24.035C22.394 23.7013 22.7284 23.3393 23.0325 22.9525C23.6913 22.1675 23.9363 21.8937 24.2588 21.8362C24.945 21.7112 29.0625 24.325 29.765 24.915C30.0575 25.165 30.2525 25.3837 30.2525 25.6712C30.25 26.5 25.6113 30.25 25.01 30.25ZM28.6425 18.1963C28.6399 15.8529 27.7078 13.6062 26.0508 11.9492C24.3938 10.2922 22.1471 9.36015 19.8038 9.3575V7.75C22.5733 7.75331 25.2284 8.85495 27.1867 10.8133C29.1451 12.7716 30.2467 15.4267 30.25 18.1963H28.6425Z" fill="#0073AE"/>
</svg>
