<svg width="40" height="40" viewBox="0 0 40 40" fill="none" xmlns="http://www.w3.org/2000/svg">
<g clip-path="url(#clip0_283_2917)">
<path d="M24.5242 16.2845L18.5142 21.961L15.6298 18.9936C15.3101 18.6644 14.7836 18.6569 14.4547 18.9767C14.1255 19.2968 14.118 19.823 14.4377 20.1522L17.8972 23.7034C18.2185 24.0268 18.7379 24.0379 19.0727 23.7282L25.6831 17.4932C25.8437 17.3418 25.9374 17.1327 25.9436 16.9123C25.9498 16.6918 25.8681 16.4779 25.7163 16.3177C25.3946 15.9833 24.8642 15.9686 24.5242 16.2845Z" fill="#0073AE"/>
<path d="M20.0645 7.54834C13.1958 7.54834 7.61072 13.1334 7.61072 20.0021C7.61072 26.8711 13.1958 32.4562 20.0645 32.4562C26.9335 32.4562 32.5186 26.8711 32.5186 20.0021C32.5186 13.1334 26.9335 7.54834 20.0645 7.54834ZM20.0645 30.789C14.1128 30.789 9.27791 25.9457 9.27791 20.0021C9.27791 14.0585 14.1128 9.21553 20.0645 9.21553C26.0221 9.21553 30.8514 14.0448 30.8514 20.0021C30.8514 25.9594 26.0221 30.789 20.0645 30.789Z" fill="#0073AE"/>
<path d="M37.2033 15.4173L37.4785 10.4741C37.4977 10.1422 37.3173 9.83063 37.02 9.68214L32.6186 7.45651L30.3929 3.05507C30.2415 2.76038 29.9318 2.58097 29.601 2.5966L24.6493 2.86361L20.523 0.137494C20.2449 -0.0458314 19.8844 -0.0458314 19.606 0.137494L15.4797 2.86361L10.5368 2.58846C10.2046 2.56892 9.89335 2.74931 9.74487 3.04693L7.51891 7.44837L3.11779 9.674C2.82278 9.82509 2.64369 10.1348 2.65932 10.4659L2.93414 15.4092L0.208356 19.5355C0.0250304 19.8136 0.0250304 20.174 0.208356 20.4524L2.926 24.5869L2.65085 29.5301C2.63164 29.862 2.81171 30.1736 3.10933 30.3221L7.51077 32.5477L9.7364 36.9491C9.88749 37.2441 10.1972 37.4232 10.5283 37.4076L15.4716 37.1325L19.5979 39.8582C19.8743 40.0474 20.2384 40.0474 20.5148 39.8582L24.6411 37.1325L29.5844 37.4076C29.9162 37.4268 30.2275 37.2464 30.3763 36.9491L32.6019 32.5477L37.0034 30.3221C37.2981 30.1706 37.4775 29.8613 37.4619 29.5301L37.1867 24.5869L39.9125 20.4606C40.0958 20.1825 40.0958 19.8217 39.9125 19.5436L37.2033 15.4173ZM35.6527 23.9034C35.5511 24.0525 35.5039 24.2319 35.5195 24.412L35.7777 29.0883L31.6182 31.1889C31.4597 31.2683 31.331 31.3973 31.2516 31.5558L29.1507 35.7153L24.4744 35.4571C24.2953 35.4506 24.1185 35.4969 23.9658 35.5903L20.0645 38.1663L16.1635 35.5903C16.0281 35.4988 15.8685 35.4493 15.7051 35.4487H15.6634L10.9868 35.7072L8.8862 31.5474C8.80675 31.3888 8.67813 31.2602 8.51922 31.1807L4.35125 29.0883L4.6098 24.412C4.61631 24.2329 4.56975 24.0561 4.47629 23.9034L1.90062 20.0021L4.47629 16.1008C4.57821 15.952 4.62543 15.7723 4.6098 15.5925L4.35125 10.9159L8.51108 8.81534C8.66966 8.73588 8.79828 8.60726 8.87773 8.44869L10.9783 4.28886L15.6549 4.5474C15.8337 4.55359 16.0105 4.50735 16.1635 4.4139L20.0645 1.83822L23.9658 4.4139C24.1149 4.51582 24.2947 4.56303 24.4744 4.5474L29.1507 4.28886L31.2516 8.44869C31.331 8.60726 31.4597 8.73588 31.6182 8.81534L35.7777 10.9159L35.5195 15.5925C35.513 15.7713 35.5596 15.9481 35.6527 16.1008L38.2287 20.0021L35.6527 23.9034Z" fill="#0073AE"/>
</g>
<defs>
<clipPath id="clip0_283_2917">
<rect width="40" height="40" fill="white"/>
</clipPath>
</defs>
</svg>
