<svg width="38" height="22" viewBox="0 0 38 22" fill="none" xmlns="http://www.w3.org/2000/svg">
<path d="M3.31802 0.166504C1.86358 0.166504 0.666656 1.36343 0.666656 2.81787V6.1333C0.666923 6.49488 0.900307 6.81504 1.24446 6.92594C2.28405 7.26147 3.1663 8.56754 3.16666 10.1665C3.1668 11.766 2.28438 13.0731 1.24446 13.4087C0.900307 13.5196 0.666923 13.8398 0.666656 14.2013V19.1818C0.666656 20.6362 1.86358 21.8332 3.31802 21.8332H28.1667C28.6269 21.8332 29 21.4601 29 20.9998C29 20.5396 28.6269 20.1665 28.1667 20.1665H9.8317C9.83584 19.8789 9.83332 19.583 9.83332 19.2925C9.83332 18.8322 9.46022 18.4591 8.99999 18.4591C8.53976 18.4591 8.16666 18.8322 8.16666 19.2925C8.16499 19.5817 8.16749 19.8807 8.16832 20.1665H3.31802C2.75792 20.1665 2.33332 19.7419 2.33332 19.1818V14.6782C3.87239 13.8674 4.8335 12.1199 4.83332 10.1665C4.83289 8.21371 3.87196 6.46694 2.33332 5.65641V2.81787C2.33332 2.25777 2.75792 1.83317 3.31802 1.83317H8.16666V2.62581C8.16666 3.08605 8.53976 3.45915 8.99999 3.45915C9.46022 3.45915 9.83332 3.08605 9.83332 2.62581V1.83317H34.682C35.2421 1.83317 35.6667 2.25777 35.6667 2.81787V5.65479C34.1276 6.46563 33.1665 8.2131 33.1667 10.1665C33.1671 12.1193 34.128 13.8661 35.6667 14.6766V19.1818C35.6667 19.7419 35.2421 20.1665 34.682 20.1665H31.5C31.0398 20.1665 30.6667 20.5396 30.6667 20.9998C30.6667 21.4601 31.0398 21.8332 31.5 21.8332H34.682C36.1364 21.8332 37.3333 20.6362 37.3333 19.1818V14.1997C37.3331 13.8381 37.0997 13.518 36.7555 13.4071C35.7159 13.0715 34.8337 11.7655 34.8333 10.1665C34.8332 8.56703 35.7156 7.25995 36.7555 6.92432C37.0997 6.81342 37.3331 6.49325 37.3333 6.13167V2.81787C37.3333 1.36343 36.1364 0.166504 34.682 0.166504H3.31802Z" fill="#0073AE"/>
<path d="M8.99999 4.69458C8.77898 4.69458 8.56701 4.78238 8.41073 4.93866C8.25445 5.09494 8.16666 5.3069 8.16666 5.52791V7.33781C8.16666 7.55882 8.25445 7.77079 8.41073 7.92707C8.56701 8.08335 8.77898 8.17114 8.99999 8.17114C9.221 8.17114 9.43297 8.08335 9.58925 7.92707C9.74553 7.77079 9.83332 7.55882 9.83332 7.33781V5.52791C9.83332 5.3069 9.74553 5.09494 9.58925 4.93866C9.43297 4.78238 9.221 4.69458 8.99999 4.69458Z" fill="#0073AE"/>
<path d="M8.99999 9.22095C8.77898 9.22095 8.56701 9.30874 8.41073 9.46502C8.25445 9.6213 8.16666 9.83327 8.16666 10.0543V11.8642C8.16666 12.0852 8.25445 12.2972 8.41073 12.4534C8.56701 12.6097 8.77898 12.6975 8.99999 12.6975C9.221 12.6975 9.43297 12.6097 9.58925 12.4534C9.74553 12.2972 9.83332 12.0852 9.83332 11.8642V10.0543C9.83332 9.83327 9.74553 9.6213 9.58925 9.46502C9.43297 9.30874 9.221 9.22095 8.99999 9.22095Z" fill="#0073AE"/>
<path d="M8.99999 13.7473C8.77898 13.7473 8.56701 13.8351 8.41073 13.9914C8.25445 14.1477 8.16666 14.3596 8.16666 14.5806V16.3905C8.16666 16.6116 8.25445 16.8235 8.41073 16.9798C8.56701 17.1361 8.77898 17.2239 8.99999 17.2239C9.221 17.2239 9.43297 17.1361 9.58925 16.9798C9.74553 16.8235 9.83332 16.6116 9.83332 16.3905V14.5806C9.83332 14.3596 9.74553 14.1477 9.58925 13.9914C9.43297 13.8351 9.221 13.7473 8.99999 13.7473Z" fill="#0073AE"/>
<path d="M26.3018 12.2634C27.7853 12.2634 29.0053 13.4834 29.0053 14.9669C29.0053 16.4503 27.7853 17.672 26.3018 17.672C24.8184 17.672 23.5967 16.4503 23.5967 14.9669C23.5967 13.4834 24.8184 12.2634 26.3018 12.2634ZM26.3018 13.9301C25.7191 13.9301 25.2634 14.3842 25.2634 14.9669C25.2634 15.5496 25.7191 16.0053 26.3018 16.0053C26.8845 16.0053 27.3386 15.5496 27.3386 14.9669C27.3386 14.3842 26.8845 13.9301 26.3018 13.9301Z" fill="#0073AE"/>
<path d="M18.3661 4.32812C19.8496 4.32812 21.0696 5.54814 21.0696 7.03158C21.0696 8.51502 19.8496 9.73503 18.3661 9.73503C16.8827 9.73503 15.6611 8.51502 15.6611 7.03158C15.6611 5.54814 16.8827 4.32812 18.3661 4.32812ZM18.3661 5.99479C17.7834 5.99479 17.3277 6.44887 17.3277 7.03158C17.3277 7.61428 17.7834 8.06836 18.3661 8.06836C18.9489 8.06836 19.4029 7.61428 19.4029 7.03158C19.4029 6.44887 18.9489 5.99479 18.3661 5.99479Z" fill="#0073AE"/>
<path d="M25.7122 6.44262L17.776 14.3788C17.4507 14.7042 17.4507 15.2318 17.776 15.5572C18.1014 15.8826 18.629 15.8826 18.9544 15.5572L26.8906 7.62101C27.216 7.29559 27.216 6.76805 26.8906 6.44262C26.4844 6.07218 26.0517 6.10313 25.7122 6.44262Z" fill="#0073AE"/>
</svg>
