<?xml version="1.0" encoding="iso-8859-1"?>
<!-- Generator: Adobe Illustrator 16.0.0, SVG Export Plug-In . SVG Version: 6.00 Build 0)  -->
<!DOCTYPE svg PUBLIC "-//W3C//DTD SVG 1.1//EN" "http://www.w3.org/Graphics/SVG/1.1/DTD/svg11.dtd">
<svg fill="#0071ce" version="1.1" id="Capa_1" xmlns="http://www.w3.org/2000/svg" xmlns:xlink="http://www.w3.org/1999/xlink" x="0px" y="0px"
	 width="45.338px" height="45.338px" viewBox="0 0 45.338 45.338" style="enable-background:new 0 0 45.338 45.338;"
	 xml:space="preserve">
<g>
	<g>
		<g>
			<path d="M29.006,35.537c5.702,0,10.341-4.653,10.341-10.375c0-5.721-4.639-10.375-10.341-10.375H10.341
				C4.639,14.787,0,19.441,0,25.163C0,30.875,4.639,35.52,10.341,35.52c4.106,0,7.663-2.402,9.331-5.877
				C21.337,33.126,24.896,35.537,29.006,35.537z M17.542,25.191c0,3.966-3.23,7.193-7.201,7.193c-3.97,0-7.2-3.231-7.2-7.213
				c0-3.99,3.23-7.225,7.2-7.225h18.666c3.97,0,7.2,3.234,7.2,7.225c0,3.989-3.23,7.223-7.2,7.223s-7.2-3.229-7.2-7.199
				c0-1.112-0.919-1.951-2.138-1.951C18.456,23.243,17.542,24.082,17.542,25.191z"/>
			<path d="M43.757,11.12c-0.868,0-1.581,0.703-1.581,1.571v15.983c0,6.197-5.005,11.25-11.203,11.25h-8.138
				c-0.862,0-1.529-0.711-1.529-1.574v-2.625c0-0.866-0.714-1.569-1.581-1.569c-0.868,0-1.581,0.703-1.581,1.569v2.625
				c0,2.596,2.097,4.736,4.691,4.736h8.138c7.931,0,14.365-6.482,14.365-14.412V12.691C45.338,11.823,44.625,11.12,43.757,11.12z"/>
			<path d="M4.538,25.156c0,1.007,0.266,1.943,0.708,2.773l11.905-8.716c0,0-4.201,0-6.676,0
				C7.196,19.213,4.538,21.876,4.538,25.156z"/>
			<path d="M8.627,30.785l7.784-5.7c-0.001-0.566,0.101-1.505,0.608-2.056l-9.776,7.089C7.671,30.397,8.132,30.622,8.627,30.785z"/>
			<path d="M10.476,31.099c2.819,0,5.175-1.967,5.781-4.604l-6.23,4.562C10.177,31.069,10.322,31.099,10.476,31.099z"/>
			<path d="M30.416,9.815c1.74,0,3.156-1.416,3.156-3.155c0-1.74-1.416-3.156-3.156-3.156S27.26,4.92,27.26,6.66
				C27.26,8.399,28.676,9.815,30.416,9.815z M30.416,4.551c1.163,0,2.109,0.946,2.109,2.109c0,1.163-0.946,2.108-2.109,2.108
				s-2.107-0.946-2.107-2.108C28.309,5.496,29.254,4.551,30.416,4.551z"/>
			<path d="M36.697,14.209c1.276,0,2.313-1.038,2.313-2.314s-1.039-2.314-2.313-2.314c-1.275,0-2.313,1.038-2.313,2.314
				S35.422,14.209,36.697,14.209z M36.697,10.627c0.699,0,1.269,0.569,1.269,1.268c0,0.698-0.568,1.267-1.269,1.267
				c-0.697,0-1.268-0.568-1.268-1.267C35.431,11.196,36,10.627,36.697,10.627z"/>
			<path d="M38.793,6.879c1.275,0,2.314-1.038,2.314-2.313c0-1.276-1.039-2.314-2.314-2.314s-2.314,1.039-2.314,2.314
				C36.479,5.842,37.516,6.879,38.793,6.879z M38.793,3.298c0.699,0,1.268,0.568,1.268,1.267c0,0.699-0.567,1.267-1.268,1.267
				s-1.268-0.568-1.268-1.267C37.525,3.866,38.094,3.298,38.793,3.298z"/>
		</g>
	</g>
</g>
</svg>
