<svg id="Layer_1" enable-background="new 0 0 64 64" fill="#0071ce" height="512" viewBox="0 0 64 64" width="512" xmlns="http://www.w3.org/2000/svg"><path d="m40.2 34.3c-.6.5-1.3 1-2 1.4l-2 1.1c-2.7 1.5-5.9 1.5-8.6 0l-2-1.1c-.7-.4-1.4-.9-2-1.4l-2.6 1.7 4.3 2.3c4.1 2.2 9.1 2.2 13.3 0l4.4-2.3z"/><path d="m19.2 18h25.5c.7 0 1.2-.6 1.2-1.2s-.4-1.1-.9-1.2l-2.1-.6h-21.8l-2.2.5c-.7.2-1.1.8-.9 1.5.2.6.7 1 1.2 1z"/><path d="m42 45v-6.2l-2 1v5.2z"/><path d="m44 37.7v7.3c.6 0 1.2.2 1.6.5 1.7-2 4.4-2.9 7-2.3-.8-1.5-2-2.7-3.5-3.5l-4.1-2.5z"/><path d="m35.8 6.2h-.4l.6 4.7-2 .2-.8-6.2c-.1-.5-.5-.9-1-.9h-.5c-.5 0-.9.4-1 .9l-.7 6.2-2-.2.6-4.7h-.4c-3.5.4-6.1 3.3-6.2 6.8h20c-.1-3.5-2.7-6.4-6.2-6.8z"/><path d="m26 40.8v4.2h12v-4.2c-3.8 1.6-8.2 1.6-12 0z"/><path d="m44 24.1v-.6c0-.8-.7-1.5-1.5-1.5h-.5v-2h-20v2h-.5c-.8 0-1.5.7-1.5 1.5v.6c0 .7.5 1.3 1.1 1.4l.9.2v.3c0 3.3 1.8 6.3 4.7 7.9l2 1.1c2.1 1.1 4.6 1.1 6.7 0l2-1.1c2.9-1.6 4.7-4.6 4.7-7.9v-.3l.9-.2c.5-.1 1-.7 1-1.4z"/><path d="m49 59c0 .6.4 1 1 1h2c.6 0 1-.4 1-1v-2h-4z"/><path d="m24 45v-5.2l-2-1v6.2z"/><path d="m47 56.5c-1.9-1.3-3-3.5-3-5.7v-.8c0-1 .2-1.9.6-2.8-.2-.1-.4-.2-.6-.2h-24c-.6 0-1 .4-1 1v12h28.2c-.1-.3-.2-.7-.2-1zm-9.2 2.1-1.6-1.2 2.1-2.8-4-1 3.9-5.2 1.6 1.2-2.1 2.8 4 1z"/><path d="m51 45c-2.8 0-5 2.2-5 5v.8c0 1.7.8 3.2 2.2 4.2l.1.1h1.7v-3.6l-1.7-1.7 1.4-1.4 1.3 1.3 1.3-1.3 1.4 1.4-1.7 1.6v3.6h1.7l.1-.1c1.4-.9 2.2-2.5 2.2-4.2v-.7c0-2.8-2.2-5-5-5z"/><path d="m20 37.7-1-.5-4.2 2.5c-3 1.8-4.8 5.1-4.9 8.6v11.7h7v-12c0-1.7 1.3-3 3-3v-7.3z"/></svg>