<?xml version="1.0" encoding="iso-8859-1"?>
<!-- Generator: Adobe Illustrator 19.0.0, SVG Export Plug-In . SVG Version: 6.00 Build 0)  -->
<svg fill="#0071ce" version="1.1" id="Capa_1" xmlns="http://www.w3.org/2000/svg" xmlns:xlink="http://www.w3.org/1999/xlink" x="0px" y="0px"
	 viewBox="0 0 512 512" style="enable-background:new 0 0 512 512;" xml:space="preserve">
<g>
	<g>
		<path d="M337.211,90H76v422h390V218.789L337.211,90z M241,435c-33.091,0-60-26.909-60-60c0-26.985,12.746-31.666,60-120.278
			c47.099,88.322,60,93.333,60,120.278C301,408.091,274.091,435,241,435z M351.142,294.858l-90-90l42.422-42.437l90.015,90.015
			L351.142,294.858z"/>
	</g>
</g>
<g>
	<g>
		<path d="M241,315.278c-26.569,49.454-30,46.331-30,59.722c0,16.538,13.462,30,30,30c16.538,0,30-13.462,30-30
			C271,361.797,264.966,360.132,241,315.278z"/>
	</g>
</g>
<g>
	<g>
		<polygon points="46,0 46,30 76,30 76,60 226,60 226,30 256,30 256,0 		"/>
	</g>
</g>
</svg>
