<svg id="Solid" height="512" viewBox="0 0 512 512" width="512" fill="#0071ce"  xmlns="http://www.w3.org/2000/svg"><path d="m248 136v32a8 8 0 0 1 -8 8h-8a8.009 8.009 0 0 0 -8 8v24h64v-24a8.009 8.009 0 0 0 -8-8h-8a8 8 0 0 1 -8-8v-32z"/><path d="m416 232a8.009 8.009 0 0 0 -8-8h-320a8.009 8.009 0 0 0 -8 8v24h336z"/><path d="m112 192h64v16h-64z"/><path d="m168 88v27.35a40.052 40.052 0 0 1 24 36.65v56h16v-24a24.027 24.027 0 0 1 24-24v-32a8 8 0 0 1 8-8h32a8 8 0 0 1 8 8v32a24.027 24.027 0 0 1 24 24v24h10.209l13.791-35.8v-140.2h-32v64a8 8 0 0 1 -8 8h-88a8 8 0 0 1 -8-8v-64h-32v48a8 8 0 0 1 8 8z"/><path d="m117.856 457.71a24.086 24.086 0 0 0 23.944 22.29h212.4a24.086 24.086 0 0 0 23.94-22.29l13.268-185.71h-286.816zm189.072-64.351 20 34.641a8 8 0 0 1 -6.928 12h-52.686l2.343 2.343a8 8 0 0 1 -11.314 11.314l-16-16a8 8 0 0 1 0-11.314l16-16a8 8 0 0 1 11.314 11.314l-2.343 2.343h38.83l-13.072-22.641a8 8 0 1 1 13.856-8zm-85.856-58.718 20-34.641a8 8 0 0 1 6.928-4 8 8 0 0 1 6.929 4c.142.249 15.725 27.24 26.339 45.623l.858-3.2a8 8 0 1 1 15.455 4.141l-5.856 21.857a7.994 7.994 0 0 1 -9.8 5.657l-21.857-5.857a8 8 0 1 1 4.141-15.455l3.2.858c-9.452-16.379-15.521-26.889-19.409-33.624l-13.072 22.641a8 8 0 1 1 -13.856-8zm-52 93.359 26.344-45.628-3.2.858a8 8 0 1 1 -4.141-15.455l21.857-5.857a8 8 0 0 1 9.8 5.657l5.856 21.857a8 8 0 1 1 -15.455 4.141l-.858-3.2-19.419 33.627h26.144a8 8 0 0 1 0 16h-40a8 8 0 0 1 -6.928-12z"/><path d="m429.709 65.46-37.829-14.57-60.525 157.11h43.444z"/><path d="m136 96h16v16h-16z"/><path d="m112 160h64v16h-64z"/><path d="m152 128h-16a24.039 24.039 0 0 0 -22.624 16h61.248a24.039 24.039 0 0 0 -22.624-16z"/></svg>