<svg height="512" viewBox="0 0 192 192" width="512" xmlns="http://www.w3.org/2000/svg" fill="#0071ce" ><path d="m40.513 141.953c-2.837-1.574-5.516-3.062-7.837-4.609-6.112-4.074-9.376-8.344-8.534-11.139.888-2.934 6.075-6.2 12.1-6.2h11.758a8 8 0 0 0 8-8v-16.005h-32v10.364c-7.37 2.957-13.13 8.46-15.172 15.2-1.8 5.938-2.243 17.612 14.973 29.088 2.861 1.908 5.954 3.625 8.945 5.285 5.468 3.037 12.956 7.195 13.408 10.423.127.907-.043 4.449-7.573 11.979l11.319 11.318c9.253-9.255 13.212-17.6 12.1-25.514-1.561-11.125-12.146-17.003-21.487-22.19z"/><path d="m143.761 6.06a8 8 0 0 0 -7.761-6.06h-80a8 8 0 0 0 -7.761 6.06l-6.485 25.94h108.492z"/><path d="m136 104.977c-9.756 2.326-19.292 8.7-22.114 18.025-1.73 5.711-2.221 16.9 13.915 27.654 2.861 1.908 5.954 3.625 8.945 5.285 5.468 3.037 12.956 7.195 13.408 10.423.127.907-.043 4.449-7.573 11.979l11.319 11.314c9.253-9.255 13.212-17.6 12.1-25.514-1.56-11.125-12.145-17-21.486-22.19-2.837-1.574-5.516-3.062-7.837-4.609-5.426-3.618-8.222-7.245-7.477-9.7 1.048-3.46 7.883-7.639 14.8-7.639h16a8 8 0 0 0 8-8v-16.005h-32z"/><path d="m165.657 50.343-10.343-10.343h-115.299a8.385 8.385 0 0 0 .058 1l-12.51 8.341a8 8 0 0 0 -3.563 6.659v32h144v-32a8 8 0 0 0 -2.343-5.657zm-117.657 21.657a8 8 0 1 1 8-8 8 8 0 0 1 -8 8zm72 0h-48v-16h48zm24 0a8 8 0 1 1 8-8 8 8 0 0 1 -8 8z"/></svg>