<?xml version="1.0" encoding="iso-8859-1"?>
<!-- Generator: Adobe Illustrator 19.0.0, SVG Export Plug-In . SVG Version: 6.00 Build 0)  -->
<svg fill="#0071ce" version="1.1" id="Capa_1" xmlns="http://www.w3.org/2000/svg" xmlns:xlink="http://www.w3.org/1999/xlink" x="0px" y="0px"
	 viewBox="0 0 512 512" style="enable-background:new 0 0 512 512;" xml:space="preserve">
<g>
	<g>
		<rect x="362" y="60" width="30" height="30"/>
	</g>
</g>
<g>
	<g>
		<rect x="422" y="90" width="30" height="30"/>
	</g>
</g>
<g>
	<g>
		<rect x="422" y="150" width="30" height="30"/>
	</g>
</g>
<g>
	<g>
		<rect x="422" y="30" width="30" height="30"/>
	</g>
</g>
<g>
	<g>
		<rect x="482" width="30" height="30"/>
	</g>
</g>
<g>
	<g>
		<rect x="482" y="60" width="30" height="30"/>
	</g>
</g>
<g>
	<g>
		<rect x="482" y="120" width="30" height="30"/>
	</g>
</g>
<g>
	<g>
		<rect x="482" y="180" width="30" height="30"/>
	</g>
</g>
<g>
	<g>
		<rect x="362" y="120" width="30" height="30"/>
	</g>
</g>
<g>
	<g>
		<path d="M200.153,240H71.847C25.464,297.129,0,367.668,0,442.28V512h272v-69.72C272,367.668,246.536,297.129,200.153,240z"/>
	</g>
</g>
<g>
	<g>
		<polygon points="60,60 60,141.211 90,171.211 90,210 182,210 182,180 212,180 212,60 		"/>
	</g>
</g>
<g>
	<g>
		<path d="M315.482,180c-19.53,0-36.024-12.578-42.237-30H302V60h-60v90c6.969,34.191,37.266,60,73.482,60h15v-30H315.482z"/>
	</g>
</g>
</svg>
