<svg width="40" height="40" viewBox="0 0 40 40" fill="none" xmlns="http://www.w3.org/2000/svg">
<path d="M37.1912 17.4393C37.0381 13.0762 35.2712 8.99621 32.1687 5.89371C28.9169 2.64121 24.595 0.850586 20 0.850586C10.7194 0.850586 3.13623 8.23746 2.80936 17.4393C1.39311 18.0687 0.401855 19.4862 0.401855 21.1337V25.6725C0.401855 27.9012 2.21498 29.715 4.44436 29.715C5.88686 29.715 7.05998 28.5418 7.05998 27.0993V19.7062C7.05998 18.3518 6.02123 17.2475 4.70061 17.1162C5.18811 9.09934 11.8619 2.72559 20 2.72559C24.095 2.72559 27.9456 4.32184 30.8437 7.21996C33.505 9.88121 35.0625 13.35 35.2969 17.1168C33.9775 17.2493 32.9406 18.3531 32.9406 19.7062V27.0987C32.9406 28.4643 33.9956 29.5756 35.3319 29.6912V31.5593C35.3319 33.6631 33.62 35.3743 31.5162 35.3743H28.6906C28.5519 34.9781 28.3344 34.6118 28.0294 34.3081C27.495 33.7712 26.7825 33.4756 26.0237 33.4756H23.1112C22.6931 33.4756 22.2919 33.5643 21.9244 33.7356C20.9219 34.1962 20.2744 35.2075 20.2744 36.3118C20.2744 37.0706 20.57 37.7831 21.1056 38.3162C21.6412 38.8531 22.3537 39.1487 23.1112 39.1487H26.0237C27.2312 39.1487 28.2956 38.3681 28.6925 37.2493H31.5162C34.6544 37.2493 37.2069 34.6968 37.2069 31.5593V29.3575C38.6144 28.7243 39.5981 27.3118 39.5981 25.6712V21.1325C39.5981 19.4862 38.6069 18.0687 37.1912 17.4393ZM5.18436 19.7062V27.0987C5.18436 27.5068 4.85248 27.8393 4.44373 27.8393C3.24873 27.8393 2.27623 26.8668 2.27623 25.6718V21.1331C2.27623 19.9375 3.24873 18.9656 4.44373 18.9656C4.85248 18.9656 5.18436 19.2981 5.18436 19.7062ZM26.9644 36.5131C26.8712 36.9543 26.475 37.275 26.0231 37.275H23.1106C22.8544 37.275 22.6137 37.175 22.43 36.9912C22.2487 36.8106 22.1487 36.5693 22.1487 36.3131C22.1487 35.9387 22.3681 35.5968 22.7119 35.4387C22.8344 35.3812 22.9687 35.3518 23.1106 35.3518H26.0231C26.2794 35.3518 26.52 35.4512 26.7031 35.635C26.8844 35.8156 26.9844 36.0568 26.9844 36.3131C26.985 36.3818 26.9775 36.4506 26.9644 36.5131ZM37.7231 25.6718C37.7231 26.8668 36.7506 27.8393 35.5556 27.8393C35.1475 27.8393 34.815 27.5075 34.815 27.0987V19.7062C34.815 19.2981 35.1469 18.9656 35.5556 18.9656C36.7506 18.9656 37.7231 19.9381 37.7231 21.1331V25.6718Z" fill="#0073AE"/>
<path d="M26.0707 25.9949C28.2613 25.9949 30.0432 24.2124 30.0432 22.0224V13.9281C30.0432 12.8693 29.6294 11.8718 28.8782 11.1206C28.1269 10.3693 27.13 9.95557 26.0707 9.95557H13.9294C11.7388 9.95557 9.95691 11.7374 9.95691 13.9281V22.0224C9.95691 24.2131 11.7388 25.9949 13.9294 25.9949H14.0038V28.0924C14.0038 28.8924 14.4807 29.6024 15.2182 29.9018C15.4563 29.9974 15.7038 30.0449 15.9488 30.0449C16.4594 30.0449 16.9569 29.8424 17.3213 29.4656L20.8107 25.9949H26.0707ZM19.7638 24.3924L15.9875 28.1481C15.9707 28.1656 15.9582 28.1787 15.9225 28.1631C15.8794 28.1456 15.8794 28.1174 15.8794 28.0924V25.0574C15.8794 24.5399 15.46 24.1199 14.9419 24.1199H13.93C12.7732 24.1199 11.8325 23.1787 11.8325 22.0224V13.9281C11.8325 12.7712 12.7732 11.8306 13.93 11.8306H26.0713C26.63 11.8306 27.1557 12.0493 27.5532 12.4462C27.9507 12.8437 28.1688 13.3699 28.1688 13.9281V22.0224C28.1688 23.1793 27.2275 24.1199 26.0713 24.1199H20.425C20.1769 24.1199 19.9394 24.2181 19.7638 24.3924Z" fill="#0073AE"/>
<path d="M15.4456 16.7419C14.6831 16.7419 14.0625 17.3632 14.0625 18.1251C14.0625 18.8869 14.6837 19.5082 15.4456 19.5082C16.2087 19.5082 16.83 18.8869 16.83 18.1251C16.83 17.3632 16.2094 16.7419 15.4456 16.7419Z" fill="#0073AE"/>
<path d="M19.9993 16.7419C19.2368 16.7419 18.6162 17.3632 18.6162 18.1251C18.6162 18.8869 19.2375 19.5082 19.9993 19.5082C20.7631 19.5082 21.3837 18.8869 21.3837 18.1251C21.3837 17.3632 20.7631 16.7419 19.9993 16.7419Z" fill="#0073AE"/>
<path d="M24.553 16.7419C23.7905 16.7419 23.1699 17.3632 23.1699 18.1251C23.1699 18.8869 23.7912 19.5082 24.553 19.5082C25.3162 19.5082 25.9374 18.8869 25.9374 18.1251C25.9374 17.3632 25.3162 16.7419 24.553 16.7419Z" fill="#0073AE"/>
</svg>
