<?xml version="1.0" encoding="iso-8859-1"?>
<!-- Generator: Adobe Illustrator 19.0.0, SVG Export Plug-In . SVG Version: 6.00 Build 0)  -->
<svg fill="#0071ce" version="1.1" id="Capa_1" xmlns="http://www.w3.org/2000/svg" xmlns:xlink="http://www.w3.org/1999/xlink" x="0px" y="0px"
	 viewBox="0 0 512 512" style="enable-background:new 0 0 512 512;" xml:space="preserve">
<g>
	<g>
		<rect x="181" y="60" width="300" height="60"/>
	</g>
</g>
<g>
	<g>
		<rect x="181" y="150" width="300" height="272"/>
	</g>
</g>
<g>
	<g>
		<path d="M91,0C58.001,0,31,27.001,31,60v23.101C46.901,68.699,68.2,60,91,60s44.099,8.699,60,23.101V60C151,27.001,123.999,0,91,0
			z"/>
	</g>
</g>
<g>
	<g>
		<path d="M91,90c-32.999,0-60,27.001-60,60v175.401C46.901,311,67.899,302,91,302s44.099,9,60,23.401V150
			C151,117.187,124.199,90,91,90z"/>
	</g>
</g>
<g>
	<g>
		<path d="M91,332c-23.101,0-44.099,9-60,23.401v30C46.901,371,67.899,362,91,362s44.099,9,60,23.401v-30
			C135.099,341,114.101,332,91,332z"/>
	</g>
</g>
<g>
	<g>
		<path d="M106,394.122V422h36.678C134.729,408.342,121.672,398.182,106,394.122z"/>
	</g>
</g>
<g>
	<g>
		<path d="M76,452v-57.878C50.166,400.813,31,424.075,31,452c0,33.137,26.863,60,60,60h390v-60C470.64,452,88.286,452,76,452z"/>
	</g>
</g>
</svg>
