<?xml version="1.0" encoding="iso-8859-1"?>
<!-- Generator: Adobe Illustrator 19.0.0, SVG Export Plug-In . SVG Version: 6.00 Build 0)  -->
<svg fill="#0071ce" version="1.1" id="Capa_1" xmlns="http://www.w3.org/2000/svg" xmlns:xlink="http://www.w3.org/1999/xlink" x="0px" y="0px"
	 viewBox="0 0 512 512" style="enable-background:new 0 0 512 512;" xml:space="preserve">
<g>
	<g>
		<polygon points="155.885,158.543 256,428.829 356.115,158.543 		"/>
	</g>
</g>
<g>
	<g>
		<polygon points="256,56.265 175.421,128.53 336.579,128.53 		"/>
	</g>
</g>
<g>
	<g>
		<path d="M123.88,158.543H0c0.558,8.724,3.693,17.288,9.352,24.456l212.116,268.664c4.262,5.398,9.607,9.621,15.606,12.478
			L123.88,158.543z"/>
	</g>
</g>
<g>
	<g>
		<path d="M84.08,47.859c-15.214,0-29.135,7.688-37.239,20.566L9.02,128.53h121.447l89.953-80.671H84.08z"/>
	</g>
</g>
<g>
	<g>
		<path d="M465.159,68.424c-8.103-12.877-22.024-20.565-37.238-20.565H291.58l89.953,80.671h121.448L465.159,68.424z"/>
	</g>
</g>
<g>
	<g>
		<path d="M388.12,158.543L274.926,464.141c5.999-2.857,11.344-7.079,15.606-12.478l212.116-268.664
			c5.659-7.168,8.794-15.732,9.352-24.456H388.12z"/>
	</g>
</g>
</svg>
