<?xml version="1.0" encoding="iso-8859-1"?>
<!-- Generator: Adobe Illustrator 21.0.0, SVG Export Plug-In . SVG Version: 6.00 Build 0)  -->
<svg fill="#0071ce" version="1.1" id="Capa_1" xmlns="http://www.w3.org/2000/svg" xmlns:xlink="http://www.w3.org/1999/xlink" x="0px" y="0px"
	 viewBox="0 0 512 512" style="enable-background:new 0 0 512 512;" xml:space="preserve">
<g>
	<g>
		<path d="M290.43,344.615c-0.658-18.44-12.65-34.564-30.264-40.436l-38.88-12.959c-3.031-1.009-6.309-1.009-9.34,0l-38.88,12.959
			c-18.122,6.041-30.297,22.934-30.297,42.034v67.325c0,24.431,19.876,44.308,44.308,44.308h59.077
			c22.767,0,41.569-17.262,44.028-39.385v-0.001c0.088-0.788,0.157-1.579,0.202-2.379c0.002-0.026,0.004-0.05,0.006-0.076
			c0.045-0.817,0.072-1.639,0.072-2.467v-67.325C290.462,345.679,290.449,345.146,290.43,344.615z M231.381,408.608H201.85
			c-8.157,0-14.769-6.613-14.769-14.769s6.613-14.769,14.769-14.769h29.531c8.157,0,14.769,6.613,14.769,14.769
			S239.537,408.608,231.381,408.608z"/>
	</g>
</g>
<g>
	<g>
		<path d="M477.538,54.154h-4.923c-19.002,0-34.461,15.459-34.461,34.461v44.308h-16.255c-6.862-33.666-36.698-59.077-72.36-59.077
			H73.846C33.127,73.846,0,106.974,0,147.692v74.94c0,31.972,26.011,57.983,57.983,57.983h63.494
			c24.992,0,47.095-15.928,55.003-39.634c3.879-11.629,14.723-19.443,26.982-19.443h16.461c12.259,0,23.103,7.814,26.982,19.442
			c7.908,23.707,30.011,39.635,55.003,39.635h63.494c31.972,0,57.983-26.011,57.983-57.983v-1.094h14.769v78.769
			c0,24.431-19.876,44.308-44.308,44.308h-73.878c0.011,0.533,0.031,1.063,0.031,1.598v67.325c0,1.656-0.075,3.294-0.182,4.923
			h78.951c62.435,0,113.231-50.795,113.231-113.231V88.615C512,69.613,496.541,54.154,477.538,54.154z M438.154,192h-14.769v-29.538
			h14.769V192z"/>
	</g>
</g>
</svg>
