<?xml version="1.0" encoding="iso-8859-1"?>
<!-- Generator: Adobe Illustrator 19.0.0, SVG Export Plug-In . SVG Version: 6.00 Build 0)  -->
<svg fill="#0071ce" version="1.1" id="Capa_1" xmlns="http://www.w3.org/2000/svg" xmlns:xlink="http://www.w3.org/1999/xlink" x="0px" y="0px"
	 viewBox="0 0 512 512" style="enable-background:new 0 0 512 512;" xml:space="preserve">
<g>
	<g>
		<g>
			<path d="M256,0C114.615,0,0,114.615,0,256s114.615,256,256,256s256-114.615,256-256C511.833,114.685,397.315,0.167,256,0z
				 M256,480C132.288,480,32,379.712,32,256S132.288,32,256,32s224,100.288,224,224C479.868,379.657,379.657,479.868,256,480z"/>
			<polygon points="378.544,187.952 357.456,212.048 389.408,240 304,240 304,272 389.408,272 357.456,299.952 378.544,324.048 
				456.304,256 			"/>
			<rect x="240" y="240" width="32" height="32"/>
			<polygon points="154.544,212.048 133.456,187.952 55.696,256 133.456,324.048 154.544,299.952 122.592,272 208,272 208,240 
				122.592,240 			"/>
		</g>
	</g>
</g>
</svg>
