<?xml version="1.0" encoding="iso-8859-1"?>
<!-- Generator: Adobe Illustrator 19.0.0, SVG Export Plug-In . SVG Version: 6.00 Build 0)  -->
<svg version="1.1" id="Layer_1" xmlns="http://www.w3.org/2000/svg" xmlns:xlink="http://www.w3.org/1999/xlink" x="0px" y="0px"
	 viewBox="0 0 512 512" style="enable-background:new 0 0 512 512;" xml:space="preserve" fill="#0071ce" >
<g>
	<g>
		<g>
			<path d="M213.333,160c0-5.696-2.261-11.157-6.336-15.168L173.781,112l33.216-32.832c6.144-6.08,8.021-15.275,4.736-23.275
				S200.64,42.667,192,42.667H21.333C9.536,42.667,0,52.224,0,64v384c0,11.776,9.536,21.333,21.333,21.333H192
				c8.64,0,16.448-5.227,19.733-13.227s1.408-17.195-4.736-23.275L173.781,400l33.216-32.832c4.075-4.011,6.336-9.472,6.336-15.168
				s-2.261-11.157-6.336-15.168L173.781,304l33.216-32.832c4.075-4.011,6.336-9.472,6.336-15.168c0-5.696-2.261-11.157-6.336-15.168
				L173.781,208l33.216-32.832C211.072,171.157,213.333,165.696,213.333,160z"/>
			<path d="M490.667,42.667H347.2c-5.611,0-10.987,2.219-14.997,6.165l-48.533,48c-4.075,4.011-6.336,9.472-6.336,15.168
				s2.261,11.157,6.336,15.168L316.885,160l-33.216,32.832c-4.075,4.011-6.336,9.472-6.336,15.168s2.261,11.157,6.336,15.168
				L316.885,256l-33.216,32.832c-4.075,4.011-6.336,9.472-6.336,15.168s2.261,11.157,6.336,15.168L316.885,352l-33.216,32.832
				c-4.075,4.011-6.336,9.472-6.336,15.168s2.261,11.157,6.336,15.168l48.533,48c4.011,3.947,9.387,6.165,14.997,6.165h143.467
				c11.797,0,21.333-9.557,21.333-21.333V64C512,52.224,502.464,42.667,490.667,42.667z"/>
		</g>
	</g>
</g>
<g>
</g>
<g>
</g>
<g>
</g>
<g>
</g>
<g>
</g>
<g>
</g>
<g>
</g>
<g>
</g>
<g>
</g>
<g>
</g>
<g>
</g>
<g>
</g>
<g>
</g>
<g>
</g>
<g>
</g>
</svg>
