<?xml version="1.0" encoding="iso-8859-1"?>
<!-- Generator: Adobe Illustrator 16.0.0, SVG Export Plug-In . SVG Version: 6.00 Build 0)  -->
<!DOCTYPE svg PUBLIC "-//W3C//DTD SVG 1.1//EN" "http://www.w3.org/Graphics/SVG/1.1/DTD/svg11.dtd">
<svg fill="#0071ce" version="1.1" id="Capa_1" xmlns="http://www.w3.org/2000/svg" xmlns:xlink="http://www.w3.org/1999/xlink" x="0px" y="0px"
	 width="612.006px" height="612.005px" viewBox="0 0 612.006 612.005" style="enable-background:new 0 0 612.006 612.005;"
	 xml:space="preserve">
<g>
	<g id="Shape_023">
		<g>
			<path d="M303.863,0.263C99.871,1.688-1.417,104.307,0.015,308.144c1.424,203.822,104.137,305.032,308.128,303.6
				c203.992-1.432,305.272-104.051,303.848-307.881C610.559,100.048,507.854-1.185,303.863,0.263z M306,562.931
				c-170.438,0-255.662-85.177-255.662-255.477C50.337,137.14,135.561,51.979,306,51.979c170.446,0,255.662,85.161,255.662,255.476
				C561.661,477.754,476.445,562.931,306,562.931z M304.598,105.987c-133.448,0.937-199.711,68.083-198.774,201.422
				c0.937,133.347,68.121,199.556,201.576,198.619c133.447-0.929,199.711-68.06,198.774-201.414
				C505.245,171.267,438.054,105.05,304.598,105.987z M306,455.148c-98.872,0-148.305-49.386-148.305-148.188
				c0-98.795,49.44-148.196,148.305-148.196c98.872,0,148.312,49.401,148.312,148.196C454.312,405.762,404.871,455.148,306,455.148z
				 M305.318,208.451c-65.086,0.457-97.401,33.205-96.945,98.238c0.457,65.024,33.229,97.323,98.307,96.859
				c65.078-0.449,97.394-33.19,96.937-98.214C403.168,240.301,370.396,208.002,305.318,208.451z"/>
		</g>
	</g>
</g>
</svg>
