<?xml version="1.0" encoding="iso-8859-1"?>
<!-- Generator: Adobe Illustrator 16.0.0, SVG Export Plug-In . SVG Version: 6.00 Build 0)  -->
<!DOCTYPE svg PUBLIC "-//W3C//DTD SVG 1.1//EN" "http://www.w3.org/Graphics/SVG/1.1/DTD/svg11.dtd">
<svg fill="#0071ce" version="1.1" id="Capa_1" xmlns="http://www.w3.org/2000/svg" xmlns:xlink="http://www.w3.org/1999/xlink" x="0px" y="0px"
	 width="898.691px" height="898.691px" viewBox="0 0 898.691 898.691" style="enable-background:new 0 0 898.691 898.691;"
	 xml:space="preserve">
<g>
	<g>
		<polygon points="224.673,505.516 168.504,505.516 168.504,561.684 112.336,561.684 112.336,617.85 168.504,617.85 168.504,674.02 
			224.673,674.02 224.673,617.85 280.841,617.85 280.841,561.684 224.673,561.684 		"/>
		<polygon points="112.336,393.179 224.673,393.179 224.673,280.842 337.01,280.842 337.01,168.505 224.673,168.505 224.673,56.17 
			112.336,56.17 112.336,168.505 0,168.505 0,280.842 112.336,280.842 		"/>
		<path d="M674.019,140.421C674.019,62.86,611.158,0,533.6,0c-77.562,0-140.422,62.86-140.422,140.421v424.442
			c-34.666,35.434-56.167,83.76-56.167,137.24c0,108.605,88.036,196.588,196.59,196.588c108.604,0,196.587-87.982,196.587-196.588
			c0-53.48-21.502-101.807-56.168-137.24L674.019,140.421L674.019,140.421z M533.6,842.523c-5.816,0-11.519-0.658-17.006-1.645
			c-69.44-8.559-123.416-67.029-123.416-138.775c0-45.748,22.27-86.008,56.168-111.678V140.421
			c0-46.515,37.737-84.251,84.253-84.251c46.514,0,84.252,37.737,84.252,84.251v450.004c33.952,25.67,56.167,65.93,56.167,111.678
			C674.019,779.664,611.157,842.523,533.6,842.523z"/>
		<path d="M561.684,623.008V224.674h-56.168v398.333c-32.64,11.574-56.17,42.453-56.17,79.096c0,46.516,37.737,84.252,84.253,84.252
			c46.514,0,84.252-37.736,84.252-84.252C617.852,665.461,594.318,634.637,561.684,623.008z"/>
		<polygon points="842.523,168.505 842.523,112.337 786.356,112.337 786.356,168.505 730.187,168.505 730.187,224.674 
			786.356,224.674 786.356,280.842 842.523,280.842 842.523,224.674 898.691,224.674 898.691,168.505 		"/>
	</g>
</g>
</svg>
