<svg xmlns="http://www.w3.org/2000/svg" xmlns:xlink="http://www.w3.org/1999/xlink"><defs><symbol fill="none" viewBox="0 0 52 54" id="anchor"><path d="M26 11A5.333 5.333 0 1 1 26 .333 5.333 5.333 0 0 1 26 11Zm0-2.667A2.667 2.667 0 1 0 26 3a2.667 2.667 0 0 0 0 5.333Z" fill="#416B3E" /><path d="M24.667 9.667h2.666v42.666h-2.666V9.667Z" fill="#416B3E" /><path d="M4.667 33.667a1.333 1.333 0 1 1 2.666 0C7.333 45.047 14.61 51 26 51s18.667-5.954 18.667-17.333a1.333 1.333 0 0 1 2.666 0c0 12.983-8.575 20-21.333 20s-21.333-7.017-21.333-20Z" fill="#416B3E" /><path d="M2.943 38.61a1.333 1.333 0 0 1-1.886-1.886l4-4a1.333 1.333 0 0 1 1.54-.25l5.333 2.667a1.333 1.333 0 1 1-1.193 2.385l-4.474-2.237-3.32 3.32ZM49.057 38.61a1.333 1.333 0 1 0 1.886-1.886l-4-4a1.333 1.333 0 0 0-1.54-.25l-5.332 2.667a1.333 1.333 0 1 0 1.192 2.385l4.474-2.237 3.32 3.32ZM16.667 19a1.333 1.333 0 1 1 0-2.667h18.666a1.333 1.333 0 0 1 0 2.667H16.668Z" fill="#416B3E" /></symbol><symbol fill="none" viewBox="0 0 20 20" id="arrow"><path stroke="currentColor" stroke-linecap="round" stroke-linejoin="round" d="M17.5 10h-15m0 0 4.167 4.167M2.5 10l4.167-4.167" /></symbol><symbol fill="none" viewBox="0 0 20 20" id="arrowMenu"><path stroke="#fff" stroke-linecap="round" stroke-linejoin="round" d="m12.5 9.167-2.5 2.5-2.5-2.5" /></symbol><symbol fill="none" viewBox="0 0 20 20" id="arrowblack"><path stroke="#121212" stroke-linecap="round" stroke-linejoin="round" d="m12.5 9.167-2.5 2.5-2.5-2.5" /></symbol><symbol fill="none" viewBox="0 0 24 24" id="bath-tub"><g clip-path="url(#bath-tub_a)"><path fill="#416B3E" d="M22.5 11h-20V2.57c0-.57.53-1.07 1.135-1.07h2.09c.59 0 1.065.48 1.07 1.066C5.82 2.81 5 3.71 5 4.66V6c0 .275.225.5.5.5H9c.275 0 .5-.225.5-.5V4.66c0-.965-.765-1.85-1.705-2.09A2.07 2.07 0 0 0 5.725.5h-2.09C2.48.5 1.5 1.45 1.5 2.57V11a1.496 1.496 0 0 0-1 2.61v2.62c0 2.035.905 3.78 2.37 4.915l-.82 1.63a.497.497 0 0 0 .225.67.497.497 0 0 0 .67-.226l.77-1.534c1.01.54 2.14.82 3.285.81h10a6.844 6.844 0 0 0 3.285-.81l.77 1.535a.505.505 0 0 0 .67.224.504.504 0 0 0 .225-.67l-.82-1.634c1.465-1.13 2.37-2.88 2.37-4.915v-2.62c.315-.275.5-.68.5-1.105 0-.83-.67-1.5-1.5-1.5ZM7.295 3.5c.595 0 1.205.586 1.205 1.16v.84H6v-.84c0-.554.675-1.16 1.295-1.16ZM22.5 16.23c0 3.006-2.365 5.27-5.5 5.27H7c-3.135 0-5.5-2.264-5.5-5.27V14h21v2.23Zm0-3.23H1.515a.512.512 0 0 1-.51-.424A.5.5 0 0 1 1.5 12h20.985c.25 0 .475.18.51.425A.5.5 0 0 1 22.5 13Z" /></g><defs></defs></symbol><clipPath id="bath-tub_a"><path fill="#fff" d="M0 0h24v24H0z" /></clipPath><symbol fill="none" viewBox="0 0 64 57" id="beach"><path d="M.938 40.877h62.124M44.111 27.93a4.331 4.331 0 0 0-8.547 1.405 4.331 4.331 0 0 0-8.548 1.406 4.331 4.331 0 0 0-8.547 1.405 4.331 4.331 0 1 0-8.548 1.406 4.331 4.331 0 1 0-8.547 1.405l-.145.024C-.718 23.14 7.302 11.965 19.142 10.018c11.84-1.947 23.016 6.073 24.963 17.913h.006ZM21.964 27.182l3.623 22.035" stroke="#416B3E" stroke-width="2" stroke-miterlimit="10" stroke-linecap="round" stroke-linejoin="round" /><path d="M9.725 23.035c-.463 3-.487 6.33.01 9.788.081.233.145.476.186.729a4.331 4.331 0 0 1 8.548-1.406 4.331 4.331 0 0 1 8.547-1.405 4.331 4.331 0 0 1 8.328-2.226C33.2 17.107 26.062 8.885 19.15 10.017h-.006c-3.737.616-6.66 3.842-8.302 8.492" stroke="#416B3E" stroke-width="2" stroke-miterlimit="10" stroke-linecap="round" stroke-linejoin="round" /><path d="m19.265 10-.039.005c-2.315.423-2.666 10.065-.808 21.673a4.331 4.331 0 0 1 8.598-.937 4.363 4.363 0 0 1-.05-.444c-1.954-11.59-5.371-20.618-7.701-20.298ZM44.111 27.93a4.469 4.469 0 0 0-.056-.277l.05.278h.006ZM57.864 10.39a4.254 4.254 0 1 1-8.509 0 4.254 4.254 0 0 1 8.51 0ZM53.61.938v2.22M53.61 17.623v2.22M60.294 3.706l-1.57 1.57M48.495 15.505l-1.57 1.57M63.063 10.39h-2.22M46.377 10.39h-2.22M60.294 17.074l-1.57-1.57M48.495 5.276l-1.57-1.57M36.354 49.217h7.215M41.74 45.383h16.124M51.042 52.467c3.372-.825 7.84-1.062 12 2.43M.925 50.781C4.717 45.617 12 43.325 18.07 45.387c7.168 2.435 12.296 10.075 19.858 10.448 2.514.124 4.944-.601 7.339-1.448" stroke="#416B3E" stroke-width="2" stroke-miterlimit="10" stroke-linecap="round" stroke-linejoin="round" /></symbol><symbol fill="none" viewBox="0 0 24 24" id="burger"><path stroke="#fff" stroke-linecap="round" stroke-linejoin="round" stroke-width="2" d="M11 17h8M5 12h14m-8-5h8" /></symbol><symbol fill="none" viewBox="0 0 24 24" id="calendar"><path stroke="#57ACC5" stroke-linecap="round" stroke-linejoin="round" d="M4 8h16m-4-6v2M8 2v2m-.8 0h9.6c1.12 0 1.68 0 2.108.218a2 2 0 0 1 .874.874C20 5.52 20 6.08 20 7.2v9.6c0 1.12 0 1.68-.218 2.108a2 2 0 0 1-.874.874C18.48 20 17.92 20 16.8 20H7.2c-1.12 0-1.68 0-2.108-.218a2 2 0 0 1-.874-.874C4 18.48 4 17.92 4 16.8V7.2c0-1.12 0-1.68.218-2.108a2 2 0 0 1 .874-.874C5.52 4 6.08 4 7.2 4Z" /></symbol><symbol fill="none" viewBox="0 0 24 24" id="car-parking"><g fill="#416B3E" stroke="#416B3E" stroke-width=".1" clip-path="url(#car-parking_a)"><path d="M.505 17.768v2.37c0 .37.172.699.437.92v1.575c0 .598.487 1.085 1.086 1.085h1.476c.599 0 1.086-.487 1.086-1.085v-1.291h8.114v1.29c0 .6.487 1.086 1.085 1.086h1.476c.6 0 1.086-.487 1.086-1.085v-1.42c.397-.198.673-.603.673-1.076v-2.37a.367.367 0 0 0-.076-.223c-1.543-1.976-1.285-1.705-1.423-1.808l-1.02-2.805a2.576 2.576 0 0 0-2.41-1.689H5.61a2.553 2.553 0 0 0-2.36 1.57c-1.363 3.244-1.302 3.065-1.316 3.15L.593 17.53a.365.365 0 0 0-.088.238Zm3.353 4.865a.354.354 0 0 1-.354.353H2.028a.354.354 0 0 1-.353-.353v-1.291h2.183v1.29Zm11.407.353H13.79a.354.354 0 0 1-.353-.353v-1.291h2.183v1.29a.354.354 0 0 1-.354.354Zm-11.34-9.89a1.823 1.823 0 0 1 1.685-1.121h6.484c.768 0 1.46.485 1.724 1.207l.899 2.473h-1.29a1.94 1.94 0 0 0-1.932-1.86 1.94 1.94 0 0 0-1.933 1.86H2.846l1.079-2.56Zm8.77 2.559h-2.401a1.207 1.207 0 0 1 1.2-1.128c.64 0 1.159.5 1.201 1.128ZM1.237 17.903l1.297-1.516H15.13l1.162 1.506v2.244c0 .26-.212.472-.472.472H1.71a.473.473 0 0 1-.472-.472v-2.234Z" /><path d="M3.569 19.733h1.375c.467 0 .846-.38.846-.846v-.632a.847.847 0 0 0-.846-.846H3.569a.847.847 0 0 0-.846.846v.632c0 .467.38.846.846.846Zm-.114-1.478c0-.065.049-.114.114-.114h1.375c.065 0 .114.049.114.114v.632a.111.111 0 0 1-.114.114H3.569a.111.111 0 0 1-.114-.114v-.632Zm9.131 1.478h1.376c.466 0 .845-.38.845-.846v-.633a.847.847 0 0 0-.845-.845h-1.376a.847.847 0 0 0-.846.846v.632c0 .467.38.846.846.846Zm-.113-1.479a.11.11 0 0 1 .113-.113h1.376c.063 0 .113.05.113.114v.632a.111.111 0 0 1-.113.114h-1.376a.111.111 0 0 1-.113-.114v-.633Zm-4.601.682h1.786a.366.366 0 0 0 0-.732H7.872a.366.366 0 0 0 0 .732ZM19.16 5.506c.564 0 1.023-.459 1.023-1.023V3.436c0-.564-.459-1.023-1.023-1.023h-1.704a.366.366 0 0 0-.366.366v4.722a.366.366 0 0 0 .732 0V5.506h1.338Zm.29-2.07v1.047c0 .16-.13.291-.29.291h-1.338V3.145h1.338c.16 0 .29.13.29.291Z" /><path d="M18.637 23.718a.366.366 0 0 0 .366-.366V10h2.94c.856 0 1.552-.697 1.552-1.553V1.834c0-.856-.696-1.552-1.553-1.552h-6.611c-.856 0-1.553.696-1.553 1.552v6.612c0 .856.697 1.553 1.553 1.553h2.94v13.353c0 .203.163.366.366.366ZM14.51 8.446V1.834c0-.452.368-.82.82-.82h6.611a.82.82 0 0 1 .82.82v6.612a.82.82 0 0 1-.82.82H15.33a.821.821 0 0 1-.82-.82Z" /></g><defs></defs></symbol><clipPath id="car-parking_a"><path fill="#fff" d="M0 0h24v24H0z" /></clipPath><symbol fill="none" viewBox="0 0 16 16" id="close-mini"><path stroke="#fff" stroke-linecap="round" stroke-linejoin="round" stroke-width="2" d="M10.666 10.667 5.333 5.333m5.333 0-5.333 5.334" /></symbol><symbol fill="none" viewBox="0 0 64 64" id="fish"><g clip-path="url(#fish_a)" fill="#416B3E"><path d="M20.549 24.72a2.566 2.566 0 0 0-2.563 2.563 2.566 2.566 0 0 0 2.563 2.563 2.566 2.566 0 0 0 2.563-2.563 2.566 2.566 0 0 0-2.563-2.564Zm0 3.154a.592.592 0 1 1 .001-1.184.592.592 0 0 1-.001 1.184Z" /><path d="M63.37.075a.985.985 0 0 0-1.275.564c-.28.723-2.48 6.615-4.814 13.21a6.765 6.765 0 0 0-1.505-.17 6.777 6.777 0 0 0-6.77 6.769 6.777 6.777 0 0 0 3.99 6.17c-.097.322-.188.63-.27.918-2.58 8.955-5.579 10.237-6.436 10.416-.739.156-1.393-.102-1.942-.763-1.075-1.294-1.62-4.17-.28-7.428 2.136-5.186 5.447-14.512 3.626-18.694-.44-1.011-1.143-1.703-2.088-2.058-2.78-1.042-5.905 1.13-9.288 6.456-1.687 2.654-3.006 5.404-3.643 6.81-4.072-1.763-9.647-1.821-15.174-.116-6.538 2.016-11.877 6.208-14.65 11.501-3.293 6.287-3.763 13.295-1.257 18.748 2.1 4.569 6.138 7.75 11.373 8.958a17.19 17.19 0 0 0 3.866.421c4.542 0 8.655-1.568 10.273-2.272 2.338 2.651 5.803 4.181 10.077 4.438.452.027.89.039 1.313.039 2.757 0 4.802-.502 4.9-.527.753-.188.998-1.176.416-1.693-4.022-3.575-8.714-6.724-10.184-7.686v-6.824a.996.996 0 0 0-1.323-.927c-4.899 1.782-6.37 5.91-6.793 7.78l-7.057-.392 11.718-22.302a.986.986 0 0 0-1.746-.917l-3.423 6.515c-.03.005-.06.01-.091.018-.774.2-1.576.3-2.383.3-5.255 0-9.53-4.274-9.53-9.529 0-.282.011-.566.038-.847.025-.268.097-.536.076-.806a25.998 25.998 0 0 1 4.967-2.113c4.977-1.535 10.127-1.515 13.737.009l-1.748 3.328a.986.986 0 0 0 1.745.917s3.903-8.21 6.167-11.774c2.735-4.305 5.197-6.317 6.932-5.667.438.164.747.482.972 1 1.102 2.53-.26 8.943-3.64 17.155-1.439 3.493-1.203 7.286.585 9.439.947 1.14 2.391 1.742 3.863 1.433 3.106-.65 5.92-4.841 7.926-11.8.083-.29.175-.6.273-.925.289.038.583.06.883.06a6.777 6.777 0 0 0 6.769-6.77 6.772 6.772 0 0 0-3.426-5.882A737.414 737.414 0 0 1 63.933 1.35.986.986 0 0 0 63.37.075ZM22.53 39.31c.439 0 .877-.027 1.31-.076l-7.844 14.93a.985.985 0 0 0 .818 1.443l9.464.526a.99.99 0 0 0 1.036-.892c.019-.192.467-4.302 4.342-6.452v5.834c0 .336.172.65.456.831.051.032 4.558 2.912 8.797 6.426-3.154.351-9.266.342-12.744-4.178a.986.986 0 0 0-1.222-.28c-.07.034-7.117 3.504-13.533 2.023-4.693-1.083-8.16-3.8-10.025-7.86-2.252-4.902-1.799-11.26 1.213-17.01 1.446-2.76 3.67-5.195 6.438-7.124-.004.12-.007.238-.007.357 0 6.342 5.16 11.502 11.5 11.502Zm33.245-14.065a4.804 4.804 0 0 1-4.72-3.942l7.407 3.118a4.769 4.769 0 0 1-2.687.824Zm4.763-4.228a4.76 4.76 0 0 1-.635 1.872l-8.76-3.689c.176-.652.486-1.25.899-1.76l8.496 3.577Zm-.271-2.254-6.425-2.705a4.768 4.768 0 0 1 1.933-.408 4.804 4.804 0 0 1 4.492 3.113Z" /><path d="M11.022 39.135a.986.986 0 0 0-1.382.186c-.55.72-1.582.858-2.302.309a1.645 1.645 0 0 1-.31-2.303.986.986 0 0 0-1.567-1.196 3.619 3.619 0 0 0 .68 5.066c.654.5 1.424.74 2.189.74 1.09 0 2.167-.49 2.878-1.42a.986.986 0 0 0-.186-1.382ZM18.383 43.867a.986.986 0 0 0-1.382.185c-.55.72-1.582.859-2.303.31a1.645 1.645 0 0 1-.31-2.303.986.986 0 1 0-1.567-1.197 3.619 3.619 0 0 0 .681 5.067c.654.498 1.424.74 2.189.74 1.09 0 2.167-.49 2.877-1.42a.986.986 0 0 0-.185-1.382ZM12.087 47.039a.986.986 0 0 0-1.382.186 1.633 1.633 0 0 1-1.087.631 1.645 1.645 0 0 1-1.525-2.625.986.986 0 0 0-1.568-1.196 3.619 3.619 0 0 0 .681 5.066c.653.5 1.424.74 2.189.74 1.09 0 2.167-.49 2.877-1.42a.986.986 0 0 0-.185-1.382ZM34.132.732a5.197 5.197 0 0 0-6.586 3.245c-.806 2.37.908 8.667 1.26 9.905a.985.985 0 0 0 1.536.522c1.034-.767 6.23-4.715 7.035-7.085A5.198 5.198 0 0 0 34.132.732Zm1.379 5.952c-.396 1.165-3.042 3.543-5.184 5.244-.684-2.752-1.293-6.203-.915-7.316a3.252 3.252 0 0 1 2.758-2.17c.448-.042.902.013 1.328.157a3.224 3.224 0 0 1 2.013 4.085ZM51.996 45.42c-2.382-.772-8.653 1.03-9.887 1.4a.995.995 0 0 0-.5 1.543c.782 1.023 4.803 6.163 7.184 6.935a5.17 5.17 0 0 0 1.597.253 5.202 5.202 0 0 0 4.943-3.59 5.198 5.198 0 0 0-3.337-6.541Zm1.462 5.932a3.224 3.224 0 0 1-4.057 2.07c-1.17-.38-3.584-2.99-5.316-5.108 2.742-.723 6.184-1.382 7.303-1.018a3.224 3.224 0 0 1 2.07 4.056ZM14.06 18.716c-.202-1.27-1.291-7.705-3.018-9.517a5.198 5.198 0 0 0-7.34-.178 5.198 5.198 0 0 0-.178 7.34c1.727 1.813 8.1 3.212 9.361 3.475a.996.996 0 0 0 1.175-1.12ZM4.95 15.002a3.224 3.224 0 0 1 .11-4.553 3.208 3.208 0 0 1 2.221-.888c.851 0 1.7.335 2.332.998.849.89 1.73 4.336 2.244 7.023-2.658-.643-6.058-1.69-6.907-2.58Z" /></g><defs></defs></symbol><clipPath id="fish_a"><path fill="#fff" d="M0 0h64v64H0z" /></clipPath><symbol fill="none" viewBox="0 0 513 124" id="footerIcon"><g fill="currentColor" clip-path="url(#footerIcon_a)"><path d="M253.878 124H0V0h176.81c1.229 0 2.225 1 2.225 2.234a2.23 2.23 0 0 1-2.225 2.235H4.45V119.53h249.428a2.23 2.23 0 0 1 2.225 2.235 2.23 2.23 0 0 1-2.225 2.234ZM513 124h-77.369a2.23 2.23 0 0 1-2.225-2.234 2.23 2.23 0 0 1 2.225-2.235h72.92V4.469H322.384a2.23 2.23 0 0 1-2.224-2.235A2.23 2.23 0 0 1 322.384 0H513v124Z" /><path d="M80.895 45.615 60.508 76.793h20.387v2.162H54.128v-.829L73.92 47.781H54.128v-2.162h26.767v-.004Zm17.731-.755 13.264 34.09h-4.825l-4.296-11.113H90.672L86.23 78.951h-2.382l13.584-34.092h1.194Zm-7.122 20.816h10.397l-5.123-13.2-5.274 13.2Zm20.575-20.061 10.651 26.523 9.887-26.523h2.252l-12.8 34.116h-1.232l-13.754-34.115h4.996Zm27.78 0h4.74v33.34h-4.74v-33.34Zm13.378 0h9.398c2.892 0 5.38.32 7.46.956 2.085.636 3.82 1.66 5.209 3.066a16 16 0 0 1 3.584 5.531c.8 2.08 1.201 4.348 1.201 6.813 0 2.464-.36 4.55-1.075 6.613-.715 2.063-1.766 3.86-3.145 5.394-1.383 1.533-3.09 2.746-5.123 3.633-2.033.887-4.364 1.334-6.985 1.334h-10.524v-33.34Zm4.74 30.9h5.038c1.588 0 3.083-.31 4.486-.933 1.403-.618 2.625-1.543 3.669-2.766 1.04-1.224 1.862-2.73 2.468-4.514.602-1.784.903-3.85.903-6.197 0-2.063-.284-3.95-.849-5.669-.568-1.718-1.362-3.196-2.382-4.437a10.795 10.795 0 0 0-3.644-2.891c-1.41-.688-2.951-1.031-4.624-1.031h-5.058V76.51l-.007.003Zm43.156 3.216c-2.184 0-4.22-.46-6.113-1.381a15.455 15.455 0 0 1-4.931-3.785c-1.397-1.602-2.495-3.468-3.296-5.606-.801-2.139-1.201-4.42-1.201-6.851 0-1.592.181-3.125.541-4.6a18.386 18.386 0 0 1 1.54-4.124 16.942 16.942 0 0 1 2.412-3.482 15.77 15.77 0 0 1 3.135-2.692 14.815 14.815 0 0 1 3.731-1.736 14.215 14.215 0 0 1 4.178-.615c1.448 0 2.855.206 4.189.615 1.332.413 2.577.99 3.731 1.736a15.28 15.28 0 0 1 3.135 2.692 17.605 17.605 0 0 1 2.412 3.482 17.742 17.742 0 0 1 1.551 4.125c.363 1.474.54 3.007.54 4.599 0 1.591-.181 3.183-.54 4.675a19.046 19.046 0 0 1-1.551 4.2 17.818 17.818 0 0 1-2.412 3.568 15.885 15.885 0 0 1-3.135 2.767 14.625 14.625 0 0 1-3.731 1.784c-1.331.42-2.727.63-4.189.63h.004Zm0-1.66c1.615 0 3.042-.399 4.285-1.193 1.238-.797 2.286-1.907 3.135-3.33.848-1.424 1.492-3.108 1.923-5.053.431-1.946.647-4.074.647-6.387 0-2.313-.216-4.4-.647-6.311-.431-1.911-1.075-3.558-1.923-4.94-.849-1.382-1.897-2.454-3.135-3.217-1.239-.763-2.67-1.145-4.285-1.145-1.616 0-3.087.382-4.326 1.145-1.239.763-2.283 1.835-3.125 3.217-.842 1.382-1.478 3.029-1.903 4.94-.424 1.911-.636 4.015-.636 6.31 0 2.297.212 4.442.636 6.388.425 1.945 1.061 3.63 1.903 5.052.842 1.427 1.886 2.537 3.125 3.331 1.239.798 2.683 1.193 4.326 1.193Zm21.828-32.456 10.65 26.523 9.887-26.523h2.252l-12.799 34.116h-1.232l-13.755-34.115h4.997Zm40.904 34.116c-2.184 0-4.22-.46-6.112-1.381a15.448 15.448 0 0 1-4.932-3.785c-1.396-1.602-2.495-3.468-3.296-5.606-.801-2.139-1.201-4.42-1.201-6.851 0-1.592.181-3.125.541-4.6a18.386 18.386 0 0 1 1.54-4.124 16.908 16.908 0 0 1 2.413-3.482 15.737 15.737 0 0 1 3.134-2.692 14.815 14.815 0 0 1 3.731-1.736 14.216 14.216 0 0 1 4.179-.615c1.447 0 2.857.206 4.189.615 1.331.413 2.577.99 3.73 1.736s2.2 1.643 3.135 2.692a17.652 17.652 0 0 1 2.413 3.482 17.74 17.74 0 0 1 1.55 4.125c.363 1.474.544 3.007.544 4.599a19.91 19.91 0 0 1-.544 4.675 19.094 19.094 0 0 1-1.55 4.2 17.6 17.6 0 0 1-2.413 3.568 15.885 15.885 0 0 1-3.135 2.767 14.634 14.634 0 0 1-3.73 1.784c-1.332.42-2.728.63-4.189.63h.003Zm0-1.66c1.615 0 3.042-.399 4.285-1.193 1.239-.797 2.286-1.907 3.135-3.33.848-1.424 1.492-3.108 1.923-5.053.431-1.946.647-4.074.647-6.387 0-2.313-.216-4.4-.647-6.311-.431-1.911-1.075-3.558-1.923-4.94-.849-1.382-1.896-2.454-3.135-3.217-1.239-.763-2.67-1.145-4.285-1.145-1.615 0-3.087.382-4.326 1.145-1.239.763-2.283 1.835-3.125 3.217-.841 1.382-1.478 3.029-1.902 4.94-.425 1.911-.637 4.015-.637 6.31 0 2.297.212 4.442.637 6.388.424 1.945 1.061 3.63 1.902 5.052.842 1.427 1.886 2.537 3.125 3.331 1.239.798 2.683 1.193 4.326 1.193Zm31.544-32.456h9.781c1.687 0 3.169.214 4.442.643 1.277.426 2.338 1.028 3.19 1.798a7.44 7.44 0 0 1 1.923 2.753c.432 1.066.647 2.224.647 3.482a8.415 8.415 0 0 1-.499 2.915 8.312 8.312 0 0 1-1.404 2.451 8.874 8.874 0 0 1-2.18 1.887 11.38 11.38 0 0 1-2.806 1.245l10.267 16.166h-5.507l-9.801-15.664h-3.316v15.664h-4.74v-33.34h.003Zm4.74 15.991h2.741c1.065 0 2.043-.168 2.943-.502a6.962 6.962 0 0 0 2.338-1.42 6.339 6.339 0 0 0 1.54-2.223c.37-.873.554-1.853.554-2.943 0-1.007-.147-1.928-.434-2.767-.291-.838-.702-1.553-1.232-2.148a5.734 5.734 0 0 0-1.893-1.396 5.68 5.68 0 0 0-2.392-.502h-4.168V61.61l.003-.004Zm43.006-15.991v2.163h-14.86v11.917h9.949v2.162h-9.949v14.936h14.86v2.162h-19.6v-33.34h19.6Zm12.881 32.005c.695 0 1.383-.113 2.064-.34a5.582 5.582 0 0 0 1.827-1.007 5.04 5.04 0 0 0 1.297-1.632c.325-.647.49-1.396.49-2.252 0-1.02-.223-1.932-.671-2.73a8.78 8.78 0 0 0-1.752-2.185 17.508 17.508 0 0 0-2.478-1.874 213.565 213.565 0 0 0-2.837-1.76 56.132 56.132 0 0 1-2.837-1.849 14.497 14.497 0 0 1-2.478-2.162 10.375 10.375 0 0 1-1.756-2.664c-.445-.98-.671-2.107-.671-3.382 0-1.276.202-2.455.606-3.544a7.937 7.937 0 0 1 1.776-2.83c.781-.797 1.739-1.419 2.882-1.873 1.14-.453 2.447-.677 3.922-.677 1.331 0 2.522.169 3.573.502 1.047.337 1.971.828 2.765 1.485a8.741 8.741 0 0 1 2.019 2.413c.555.956 1 2.062 1.339 3.317l-2.424 1.306a14.565 14.565 0 0 0-1.084-2.801 8.648 8.648 0 0 0-1.575-2.176 6.393 6.393 0 0 0-2.115-1.396c-.801-.326-1.704-.491-2.71-.491-.894 0-1.674.148-2.338.44a5.007 5.007 0 0 0-1.67 1.155 4.76 4.76 0 0 0-.999 1.608 5.24 5.24 0 0 0-.329 1.822c0 .873.226 1.67.681 2.403.455.729 1.054 1.416 1.807 2.062.75.647 1.605 1.269 2.564 1.874.955.605 1.93 1.217 2.922 1.835a67.073 67.073 0 0 1 2.923 1.936 16.48 16.48 0 0 1 2.563 2.2c.75.797 1.352 1.667 1.807 2.615.456.95.682 2.008.682 3.18 0 1.323-.213 2.568-.637 3.733a8.363 8.363 0 0 1-1.913 3.042c-.849.863-1.906 1.547-3.169 2.049-1.263.502-2.728.756-4.401.756-1.363 0-2.574-.175-3.635-.53a8.648 8.648 0 0 1-2.817-1.532 9.525 9.525 0 0 1-2.094-2.451c-.582-.963-1.058-2.066-1.424-3.307l2.529-1.23c.298 1.089.698 2.062 1.202 2.914a8.978 8.978 0 0 0 1.755 2.176 7.369 7.369 0 0 0 2.221 1.372c.815.32 1.684.477 2.605.477l-.007.004Zm27.157 2.111c-2.184 0-4.22-.46-6.112-1.381a15.448 15.448 0 0 1-4.932-3.785c-1.396-1.602-2.495-3.468-3.296-5.606-.801-2.139-1.201-4.42-1.201-6.851 0-1.592.181-3.125.541-4.6a18.386 18.386 0 0 1 1.54-4.124 16.942 16.942 0 0 1 2.412-3.482 15.77 15.77 0 0 1 3.135-2.692 14.815 14.815 0 0 1 3.731-1.736 14.215 14.215 0 0 1 4.178-.615c1.448 0 2.855.206 4.189.615 1.332.413 2.577.99 3.731 1.736 1.153.746 2.2 1.643 3.135 2.692a17.605 17.605 0 0 1 2.412 3.482 17.742 17.742 0 0 1 1.551 4.125c.363 1.474.541 3.007.541 4.599a20.13 20.13 0 0 1-.541 4.675 19.046 19.046 0 0 1-1.551 4.2 17.818 17.818 0 0 1-2.412 3.568 15.885 15.885 0 0 1-3.135 2.767 14.625 14.625 0 0 1-3.731 1.784c-1.331.42-2.727.63-4.189.63h.004Zm0-1.66c1.615 0 3.042-.399 4.285-1.193 1.239-.797 2.286-1.907 3.135-3.33.848-1.424 1.492-3.108 1.923-5.053.431-1.946.647-4.074.647-6.387 0-2.313-.216-4.4-.647-6.311-.431-1.911-1.075-3.558-1.923-4.94-.849-1.382-1.896-2.454-3.135-3.217-1.239-.763-2.67-1.145-4.285-1.145-1.615 0-3.087.382-4.326 1.145-1.239.763-2.283 1.835-3.125 3.217-.842 1.382-1.478 3.029-1.903 4.94-.424 1.911-.636 4.015-.636 6.31 0 2.297.212 4.442.636 6.388.425 1.945 1.061 3.63 1.903 5.052.842 1.427 1.886 2.537 3.125 3.331 1.239.798 2.683 1.193 4.326 1.193Zm22.588-32.456h9.781c1.687 0 3.169.214 4.442.643 1.276.426 2.337 1.028 3.19 1.798a7.451 7.451 0 0 1 1.923 2.753c.431 1.066.647 2.224.647 3.482a8.392 8.392 0 0 1-.5 2.915 8.331 8.331 0 0 1-1.403 2.451 8.874 8.874 0 0 1-2.18 1.887c-.849.53-1.787.942-2.806 1.245l10.267 16.166h-5.507l-9.802-15.664h-3.316v15.664h-4.74v-33.34h.004Zm4.74 15.991h2.741c1.064 0 2.043-.168 2.943-.502.9-.337 1.68-.807 2.338-1.42a6.365 6.365 0 0 0 1.54-2.223c.369-.873.554-1.853.554-2.943 0-1.007-.147-1.928-.435-2.767-.29-.838-.701-1.553-1.232-2.148a5.72 5.72 0 0 0-1.892-1.396 5.684 5.684 0 0 0-2.392-.502h-4.169V61.61l.004-.004Zm44.388-15.991v2.163h-10.206v31.177h-4.74V47.778h-10.205v-2.163h25.151Z" /></g><defs></defs></symbol><clipPath id="footerIcon_a"><path fill="#fff" d="M0 0h513v124H0z" /></clipPath><symbol fill="none" viewBox="0 0 171 41" id="logo"><g clip-path="url(#logo_a)"><g fill="currentColor" clip-path="url(#logo_b)"><path d="M84.626 41H0V0h58.937c.41 0 .741.33.741.739a.74.74 0 0 1-.741.739H1.483v38.044h83.143a.74.74 0 1 1 0 1.477ZM171 41h-25.79a.74.74 0 1 1 0-1.477h24.307V1.477h-62.056a.74.74 0 0 1-.741-.74.74.74 0 0 1 .741-.738H171v41Z" /><path d="m26.965 16.736-6.796 10.308h6.796v.715h-8.922v-.274l6.597-10.033h-6.597v-.715h8.922v-.001Zm5.91-.25 4.422 11.272H35.69l-1.432-3.675h-4.033l-1.48 3.675h-.794l4.527-11.272h.398Zm-2.374 6.883h3.466l-1.708-4.365-1.758 4.365Zm6.859-6.633 3.55 8.77 3.296-8.77h.75l-4.266 11.28h-.411l-4.585-11.28h1.666Zm9.26 0h1.58v11.023h-1.58V16.736Zm4.459 0h3.133c.963 0 1.793.105 2.486.316.695.21 1.273.549 1.737 1.014a5.291 5.291 0 0 1 1.194 1.828c.267.688.4 1.438.4 2.253 0 .815-.12 1.505-.358 2.187a5.155 5.155 0 0 1-1.048 1.783 4.9 4.9 0 0 1-1.708 1.201c-.678.293-1.454.441-2.328.441h-3.508V16.736Zm1.58 10.216h1.68c.528 0 1.027-.102 1.495-.308.467-.204.875-.51 1.223-.915.346-.404.62-.902.822-1.492.2-.59.301-1.273.301-2.05a5.93 5.93 0 0 0-.283-1.873 4.505 4.505 0 0 0-.794-1.468 3.595 3.595 0 0 0-1.215-.955 3.491 3.491 0 0 0-1.54-.341H52.66v9.401l-.002.001Zm14.385 1.064a4.623 4.623 0 0 1-2.037-.457 5.148 5.148 0 0 1-1.644-1.251 5.977 5.977 0 0 1-1.099-1.854 6.358 6.358 0 0 1-.4-2.265c0-.526.06-1.033.18-1.52.121-.489.292-.943.514-1.365a5.61 5.61 0 0 1 .804-1.151 5.234 5.234 0 0 1 1.045-.89 4.955 4.955 0 0 1 1.243-.574c.446-.135.91-.203 1.393-.203s.952.068 1.396.203a5.027 5.027 0 0 1 2.289 1.464 5.821 5.821 0 0 1 1.321 2.515 6.595 6.595 0 0 1 0 3.066c-.12.494-.293.956-.517 1.39a5.886 5.886 0 0 1-.804 1.18c-.311.354-.66.658-1.045.914-.386.255-.8.451-1.244.59a4.639 4.639 0 0 1-1.396.208h.001Zm0-.549a2.61 2.61 0 0 0 1.429-.394 3.289 3.289 0 0 0 1.045-1.102c.282-.47.497-1.027.64-1.67a9.686 9.686 0 0 0 .216-2.112 9.38 9.38 0 0 0-.215-2.087c-.144-.632-.359-1.176-.641-1.633a3.18 3.18 0 0 0-1.045-1.064c-.413-.252-.89-.378-1.429-.378-.538 0-1.029.126-1.442.378a3.15 3.15 0 0 0-1.041 1.064 5.326 5.326 0 0 0-.634 1.633 9.557 9.557 0 0 0-.213 2.087c0 .759.071 1.468.213 2.111.141.644.353 1.2.634 1.671.28.472.628.839 1.041 1.102.413.263.895.394 1.442.394Zm7.276-10.731 3.55 8.77 3.296-8.77h.75l-4.266 11.28h-.41l-4.585-11.28h1.665Zm13.635 11.28a4.624 4.624 0 0 1-2.037-.457 5.147 5.147 0 0 1-1.644-1.251 5.973 5.973 0 0 1-1.099-1.854 6.356 6.356 0 0 1-.4-2.265c0-.526.06-1.033.18-1.52.12-.489.292-.943.513-1.365.223-.421.49-.804.804-1.151a5.232 5.232 0 0 1 1.045-.89 4.953 4.953 0 0 1 1.244-.574 4.78 4.78 0 0 1 1.393-.203c.482 0 .952.068 1.396.203a5.028 5.028 0 0 1 2.289 1.464 5.826 5.826 0 0 1 1.32 2.515c.122.488.182.995.182 1.52 0 .527-.06 1.053-.181 1.547a6.247 6.247 0 0 1-.517 1.388 5.81 5.81 0 0 1-.804 1.18c-.312.355-.66.66-1.045.915-.386.255-.8.451-1.244.59a4.643 4.643 0 0 1-1.396.208h.001Zm0-.549a2.61 2.61 0 0 0 1.428-.394 3.289 3.289 0 0 0 1.045-1.102 5.56 5.56 0 0 0 .641-1.67 9.68 9.68 0 0 0 .216-2.112c0-.765-.072-1.455-.216-2.087a5.33 5.33 0 0 0-.64-1.633 3.18 3.18 0 0 0-1.046-1.064c-.413-.252-.89-.378-1.428-.378-.538 0-1.029.126-1.442.378a3.15 3.15 0 0 0-1.041 1.064c-.281.457-.493 1.001-.635 1.633a9.557 9.557 0 0 0-.212 2.087c0 .759.07 1.468.212 2.111.142.644.354 1.2.635 1.671.28.472.628.839 1.041 1.102.413.263.894.394 1.442.394ZM98.47 16.736h3.26c.562 0 1.056.07 1.481.212.425.141.779.34 1.063.595.283.254.497.558.641.91.144.352.216.736.216 1.152a2.748 2.748 0 0 1-.635 1.774c-.2.24-.442.449-.726.624a3.82 3.82 0 0 1-.936.411l3.423 5.345h-1.836l-3.267-5.179h-1.105v5.18h-1.58V16.735Zm1.58 5.287h.913c.355 0 .681-.056.981-.166.301-.111.561-.267.78-.47a2.1 2.1 0 0 0 .513-.735c.123-.288.185-.612.185-.973a2.78 2.78 0 0 0-.145-.914 2.068 2.068 0 0 0-.411-.71 1.91 1.91 0 0 0-.631-.462 1.905 1.905 0 0 0-.797-.166h-1.389v4.597h.001Zm14.335-5.287v.715h-4.953v3.94h3.316v.715h-3.316v4.938h4.953v.715h-6.533V16.736h6.533Z" /><path d="M117.658 27.318c.231 0 .461-.037.688-.112.227-.075.43-.186.609-.333.179-.147.324-.328.432-.54.109-.214.163-.462.163-.745 0-.337-.074-.639-.223-.902a2.937 2.937 0 0 0-.584-.723 5.843 5.843 0 0 0-.826-.62 65.395 65.395 0 0 0-.946-.581 19.071 19.071 0 0 1-.946-.612 4.848 4.848 0 0 1-.826-.715 3.462 3.462 0 0 1-.585-.88 2.666 2.666 0 0 1-.223-1.119c0-.422.067-.811.202-1.172a2.6 2.6 0 0 1 .592-.935c.26-.264.579-.47.96-.62.38-.15.816-.223 1.307-.223.444 0 .841.055 1.191.165a2.744 2.744 0 0 1 1.595 1.29c.185.315.333.681.446 1.096l-.807.432a4.814 4.814 0 0 0-.362-.926 2.862 2.862 0 0 0-.525-.72 2.132 2.132 0 0 0-.705-.461 2.39 2.39 0 0 0-.903-.163c-.298 0-.558.05-.779.146a1.66 1.66 0 0 0-.557.382c-.148.158-.26.335-.333.532a1.72 1.72 0 0 0-.11.602c0 .289.076.552.227.794.152.241.352.469.603.682.249.214.535.42.854.62.318.2.643.402.974.607.331.205.656.418.975.64.319.221.603.463.854.727.25.264.451.551.602.865.152.314.227.664.227 1.051 0 .438-.07.85-.212 1.234a2.75 2.75 0 0 1-.638 1.006 3.02 3.02 0 0 1-1.056.678c-.421.166-.909.25-1.467.25-.454 0-.858-.058-1.211-.175a2.882 2.882 0 0 1-.939-.507 3.15 3.15 0 0 1-.699-.81 4.665 4.665 0 0 1-.474-1.094l.843-.407c.099.36.233.682.4.964.168.283.363.523.586.72a2.37 2.37 0 0 0 1.608.611l-.002.001Zm10.073.698a4.625 4.625 0 0 1-2.038-.457 5.149 5.149 0 0 1-1.643-1.251 5.966 5.966 0 0 1-1.099-1.854 6.356 6.356 0 0 1-.4-2.265c0-.526.06-1.033.18-1.52a6.08 6.08 0 0 1 .513-1.365c.223-.421.491-.804.804-1.151a5.246 5.246 0 0 1 1.045-.89 4.971 4.971 0 0 1 1.244-.574 4.78 4.78 0 0 1 1.393-.203 4.8 4.8 0 0 1 1.396.203 5.037 5.037 0 0 1 2.288 1.464 5.813 5.813 0 0 1 1.322 2.515 6.638 6.638 0 0 1 0 3.066 6.298 6.298 0 0 1-.517 1.39 5.877 5.877 0 0 1-.805 1.18 5.27 5.27 0 0 1-1.044.914 4.9 4.9 0 0 1-1.244.59 4.653 4.653 0 0 1-1.396.208h.001Zm0-.549a2.61 2.61 0 0 0 1.428-.394 3.289 3.289 0 0 0 1.045-1.102c.283-.47.497-1.027.641-1.67a9.667 9.667 0 0 0 .216-2.112c0-.765-.072-1.455-.216-2.087-.144-.632-.358-1.176-.641-1.633a3.181 3.181 0 0 0-1.045-1.064c-.413-.252-.89-.378-1.428-.378-.539 0-1.029.126-1.442.378a3.155 3.155 0 0 0-1.042 1.064c-.28.457-.492 1.001-.634 1.633a9.589 9.589 0 0 0-.212 2.087c0 .759.071 1.468.212 2.111.142.644.354 1.2.634 1.671a3.24 3.24 0 0 0 1.042 1.102c.413.263.894.394 1.442.394Zm7.529-10.731h3.261c.562 0 1.056.07 1.48.212.426.141.779.34 1.064.595.282.254.497.558.641.91.143.352.215.736.215 1.152a2.723 2.723 0 0 1-.634 1.773 2.94 2.94 0 0 1-.727.625 3.813 3.813 0 0 1-.935.411l3.422 5.345h-1.835l-3.268-5.179h-1.105v5.18h-1.58V16.735h.001Zm1.58 5.287h.914c.355 0 .681-.056.981-.166.3-.111.56-.267.779-.47.22-.202.391-.447.514-.735s.184-.612.184-.973a2.78 2.78 0 0 0-.145-.914 2.05 2.05 0 0 0-.41-.71 1.91 1.91 0 0 0-.631-.462 1.908 1.908 0 0 0-.797-.166h-1.39v4.597h.001Zm14.796-5.287v.715h-3.402v10.308h-1.58V17.451h-3.402v-.715h8.384Z" /></g></g><defs></defs></symbol><clipPath id="logo_a"><path fill="#fff" d="M0 0h171v41H0z" /></clipPath><clipPath id="logo_b"><path fill="#fff" d="M0 0h171v41H0z" /></clipPath><symbol fill="none" viewBox="0 0 24 24" id="mail"><path stroke="currentColor" stroke-linecap="round" stroke-linejoin="round" d="m4 6 8.229 6 7.77-6M21 8.2v7.6c0 1.12 0 1.68-.218 2.108a2 2 0 0 1-.874.874C19.48 19 18.92 19 17.8 19H6.2c-1.12 0-1.68 0-2.108-.218a2 2 0 0 1-.874-.874C3 17.48 3 16.92 3 15.8V8.2c0-1.12 0-1.68.218-2.108a2 2 0 0 1 .874-.874C4.52 5 5.08 5 6.2 5h11.6c1.12 0 1.68 0 2.108.218a2 2 0 0 1 .874.874C21 6.52 21 7.08 21 8.2Z" /></symbol><symbol fill="none" viewBox="0 0 24 24" id="mapIcon"><path stroke="currentColor" stroke-linecap="round" stroke-linejoin="round" d="M5 9.923c0 4.852 4.244 8.864 6.123 10.403h0c.27.22.405.331.606.387.156.044.386.044.542 0 .201-.056.336-.167.606-.387C14.756 18.787 19 14.775 19 9.923a6.885 6.885 0 0 0-2.05-4.895A7.04 7.04 0 0 0 12 3a7.04 7.04 0 0 0-4.95 2.028A6.885 6.885 0 0 0 5 9.923Z" /></symbol><symbol fill="none" viewBox="0 0 24 24" id="search"><path fill="currentColor" d="M15.707 14.293a1 1 0 0 0-1.414 1.414l1.414-1.414Zm4.586 7.414a1 1 0 0 0 1.414-1.414l-1.414 1.414ZM10 16a6 6 0 0 1-6-6H2a8 8 0 0 0 8 8v-2Zm-6-6a6 6 0 0 1 6-6V2a8 8 0 0 0-8 8h2Zm6-6a6 6 0 0 1 6 6h2a8 8 0 0 0-8-8v2Zm6 6a6 6 0 0 1-6 6v2a8 8 0 0 0 8-8h-2Zm-1.707 5.707 6 6 1.414-1.414-6-6-1.414 1.414Z" /></symbol><symbol fill="none" viewBox="0 0 24 24" id="sunbed"><path fill="#416B3E" d="M18.328 21.61a.469.469 0 0 1-.469-.47v-8.906a.469.469 0 1 1 .938 0v8.907c0 .259-.21.468-.469.468Z" /><path fill="#416B3E" d="M23.484 21.61H.516a.469.469 0 0 1 0-.938h22.968a.469.469 0 0 1 0 .937Zm-11.082-1.876H3.094a1.407 1.407 0 0 1 0-2.812h8.319l2.465-2.824a1.416 1.416 0 0 1 2.112 1.891l-1.36 1.56-1.884 2.035a.469.469 0 0 1-.344.15ZM3.094 17.86a.47.47 0 0 0 0 .938h9.103l1.732-1.87 1.354-1.554a.48.48 0 0 0-.711-.644l-2.593 2.97a.469.469 0 0 1-.353.16H3.094Z" /><path fill="#416B3E" d="M2.884 21.56a.469.469 0 0 1-.21-.629l.938-1.875a.469.469 0 1 1 .839.42l-.938 1.874a.469.469 0 0 1-.629.21Zm9.634-.21-.937-1.875a.469.469 0 0 1 .838-.419l.938 1.875a.469.469 0 1 1-.839.42ZM4.266 8.484A1.877 1.877 0 0 1 2.39 6.61c0-1.034.84-1.875 1.875-1.875 1.034 0 1.875.841 1.875 1.875a1.877 1.877 0 0 1-1.875 1.875Zm0-2.812a.939.939 0 0 0 0 1.875.939.939 0 0 0 0-1.875Zm0-1.875a.469.469 0 0 1-.47-.469V2.86a.469.469 0 0 1 .938 0v.47c0 .258-.21.468-.468.468Zm1.988.823a.469.469 0 0 1 0-.662l.332-.332a.469.469 0 0 1 .663.663l-.332.332a.469.469 0 0 1-.663 0Zm1.762 2.458h-.47a.469.469 0 0 1 0-.937h.47a.469.469 0 1 1 0 .937Zm-1.43 2.514-.332-.331a.469.469 0 0 1 .663-.663l.332.332a.469.469 0 0 1-.663.662Zm-2.32 1.236a.469.469 0 0 1-.47-.469v-.468a.469.469 0 0 1 .938 0v.468c0 .26-.21.47-.468.47ZM1.283 9.592a.469.469 0 0 1 0-.662l.331-.332a.469.469 0 0 1 .663.663l-.331.331a.469.469 0 0 1-.663 0ZM.984 7.078H.516a.469.469 0 0 1 0-.937h.468a.469.469 0 0 1 0 .937Zm.63-2.458-.331-.33a.469.469 0 0 1 .663-.664l.331.332a.469.469 0 0 1-.663.663Zm17.183 1.526v-.474a.469.469 0 0 0-.938 0v.474a5.397 5.397 0 0 0-5.156 5.385v.703c0 .26.21.47.469.47h10.312c.26 0 .47-.21.47-.47v-.703a5.397 5.397 0 0 0-5.157-5.385Zm.803 5.62h-2.52c-.022-.966.056-3.326 1.26-4.528 1.2 1.2 1.28 3.562 1.259 4.528Zm-5.96-.235a4.46 4.46 0 0 1 3.555-4.362c-.996 1.495-1.075 3.627-1.053 4.597h-2.501v-.235Zm9.376.235h-2.477c.022-.97-.057-3.096-1.048-4.59a4.46 4.46 0 0 1 3.525 4.355v.235Z" /></symbol><symbol fill="none" viewBox="0 0 64 64" id="trees"><path d="M62.933 50.133a1.067 1.067 0 1 0 0-2.133h-1.067a1.066 1.066 0 1 0-2.133 0H42.667a1.067 1.067 0 0 0-2.133 0h-1.067a1.067 1.067 0 1 0 0 2.133h1.067v3.2h-1.067a1.067 1.067 0 1 0 0 2.133h1.067v1.067h-1.067a1.067 1.067 0 1 0 0 2.133h1.067v3.2H22.4V53.04a10.545 10.545 0 0 0 5.17 1.358c6.057-.087 10.901-5.06 10.83-11.117a11.108 11.108 0 0 0-6.073-9.988 9.736 9.736 0 0 0 1.889-5.807 9.63 9.63 0 0 0-7.711-9.514A8.25 8.25 0 0 0 19.2 6.318c-.031 0-.062.005-.093.005a7.464 7.464 0 0 0-14.777.172 5.334 5.334 0 0 0 1.004 10.572h6.218c.096.307.21.608.341.9a9.635 9.635 0 0 0-7.708 9.52 9.737 9.737 0 0 0 1.889 5.807 11.108 11.108 0 0 0-6.073 9.988C-.07 49.34 4.774 54.312 10.83 54.4a10.546 10.546 0 0 0 5.17-1.359v8.825H1.067a1.067 1.067 0 1 0 0 2.133h61.865a1.066 1.066 0 1 0 0-2.133h-1.067v-3.2h1.067a1.066 1.066 0 1 0 0-2.133h-1.067v-1.067h1.067a1.066 1.066 0 1 0 0-2.133h-1.067v-3.2h1.067ZM11.16 14.565c0 .124.014.245.019.369H5.334a3.2 3.2 0 1 1 0-6.4 1.066 1.066 0 0 0 1.067-1.067 5.323 5.323 0 0 1 10.583-.823 8.228 8.228 0 0 0-5.825 7.92Zm9.107 47.301h-2.133V51.473c.382-.356.739-.739 1.066-1.145.328.406.685.79 1.067 1.145v10.393Zm.13-13.554 7.024-7.025a1.067 1.067 0 0 0-1.508-1.508l-5.646 5.646v-10.85l5.02-5.02a1.067 1.067 0 0 0-1.508-1.51l-3.512 3.513v-4.891a1.067 1.067 0 0 0-2.133 0v4.891l-3.513-3.512a1.067 1.067 0 0 0-1.508 1.508l5.02 5.021v10.85l-5.645-5.646a1.067 1.067 0 0 0-1.508 1.508l7.024 7.025a8.54 8.54 0 0 1-7.173 3.954 8.854 8.854 0 0 1-8.697-8.984 8.93 8.93 0 0 1 6.047-8.556 1.066 1.066 0 0 0 .413-1.773 7.6 7.6 0 0 1-2.276-5.466 7.429 7.429 0 0 1 7.218-7.552c.44.038.862-.19 1.07-.58a1.064 1.064 0 0 0-.092-1.112 6.182 6.182 0 0 1-1.221-3.678A6.02 6.02 0 0 1 19.2 8.45a6.02 6.02 0 0 1 5.908 6.114 6.183 6.183 0 0 1-1.22 3.678 1.06 1.06 0 0 0-.076 1.111c.188.36.561.586.968.585a7.437 7.437 0 0 1 7.302 7.549 7.601 7.601 0 0 1-2.276 5.465 1.066 1.066 0 0 0 .414 1.773 9.026 9.026 0 0 1-2.65 17.54 8.54 8.54 0 0 1-7.173-3.954Zm39.336 13.554H42.667v-3.2h17.066v3.2Zm0-5.333H42.667v-1.067h17.066v1.067Zm0-3.2H42.667v-3.2h17.066v3.2ZM45.867 26.667h12.8a5.334 5.334 0 0 0 1.003-10.572 7.467 7.467 0 0 0-14.807 0 5.334 5.334 0 0 0 1.004 10.572Zm0-8.533a1.066 1.066 0 0 0 1.067-1.067 5.333 5.333 0 0 1 10.666 0 1.066 1.066 0 0 0 1.067 1.067 3.2 3.2 0 0 1 0 6.4h-12.8a3.2 3.2 0 0 1 0-6.4Z" fill="#416B3E" /></symbol><symbol fill="none" viewBox="0 0 24 24" id="users"><path stroke="#57ACC5" stroke-linecap="round" stroke-linejoin="round" d="M21 20c0-1.742-1.67-3.223-4-3.773M15 20c0-2.21-2.686-4-6-4s-6 1.79-6 4m12-7a4 4 0 0 0 0-8m-6 8a4 4 0 1 1 0-8 4 4 0 0 1 0 8Z" /></symbol><symbol fill="none" viewBox="0 0 64 64" id="video-surveillance"><g clip-path="url(#video-surveillance_a)" fill="#416B3E"><path d="M2.133 64h2.134a3.2 3.2 0 0 0 3.2-3.2h9.6a4.267 4.267 0 0 0 4.266-4.267V46.12a4.52 4.52 0 0 0 .827-.629l3.023-3.013 1.505 1.504a3.2 3.2 0 0 0 4.525 0l.754-.754 7.094 7.096a3.2 3.2 0 0 0 4.525 0l3.266 3.266a2.124 2.124 0 0 0 2.754.226l8.804-6.283a2.134 2.134 0 0 0 .257-3.243l-1.317-1.316 2.375-1.357a2.134 2.134 0 0 0 .45-3.361L45.867 23.945a4.256 4.256 0 1 0-5.811-5.812L28.194 6.271a3.199 3.199 0 0 0-4.526 0L21.59 8.349l-1.003-1.007a3.187 3.187 0 0 0-2.271-.942h-.01a3.153 3.153 0 0 0-2.248.944l-.683.68-.498-.498a7.49 7.49 0 0 0-8.98-1.212 7.402 7.402 0 0 0-2.758 2.742A7.499 7.499 0 0 0 2.133 12.8v34.133A2.133 2.133 0 0 0 0 49.067v12.8A2.133 2.133 0 0 0 2.133 64ZM19.2 56.533a2.133 2.133 0 0 1-2.133 2.134h-9.6V54.4H12.8a2.133 2.133 0 0 0 2.133-2.133v-8.534a2.118 2.118 0 0 1 .662-1.546 2.132 2.132 0 0 1 1.578-.587 2.255 2.255 0 0 1 2.027 2.31v12.623Zm2.08-13.177a4.4 4.4 0 0 0-2.517-3.52l1.885-1.892 3.024 3.022-2.392 2.39Zm8.427-.882a1.067 1.067 0 0 1-1.509 0l-9.05-9.05a1.065 1.065 0 0 1 0-1.51l.755-.754 6.433 6.434 4.126 4.125-.755.755Zm10.865 6.342-7.849-7.85-5.397-5.397L13.11 21.356a1.064 1.064 0 0 1 0-1.51l4.525-4.524L46.602 44.29l-4.526 4.526a1.066 1.066 0 0 1-1.508 0h.004Zm7.786 3.266-3.266-3.266 3.015-3.017.41.41c.069.057.142.11.219.158.035.067.076.13.125.187l3.015 3.016-3.518 2.512Zm8.807-6.282-3.52 2.514-2.048-2.05 3.84-2.194 1.728 1.73ZM43.733 18.133a2.133 2.133 0 0 1 .52 4.199l-2.585-2.585a2.116 2.116 0 0 1 2.065-1.614ZM25.173 7.78a1.067 1.067 0 0 1 1.509 0l31.985 31.985-8.64 4.938-1.163-1.166-29.72-29.723 6.03-6.034Zm-6.857.754a1.067 1.067 0 0 1 .76.32l1.006 1.007-4.527 4.527-1.008-1.015a1.064 1.064 0 0 1 0-1.51l3.025-3.013a.933.933 0 0 1 .744-.316Zm-13.328 1.59A5.254 5.254 0 0 1 6.949 8.17a5.351 5.351 0 0 1 6.42.861l.498.495-.831.83a3.216 3.216 0 0 0 0 4.519l1.01 1.017-2.445 2.446a3.206 3.206 0 0 0 0 4.526l6.788 6.79-.755.755a3.207 3.207 0 0 0 0 4.525l1.506 1.507-3.008 3.015c-.063.062-.113.12-.166.18a4.188 4.188 0 0 0-3.166 4.097v8.534H7.467v-2.134a3.2 3.2 0 0 0-3.2-3.2V12.8c0-.94.25-1.864.72-2.677ZM2.133 49.067h2.134a1.067 1.067 0 0 1 1.066 1.066V60.8a1.067 1.067 0 0 1-1.066 1.067H2.133v-12.8ZM43.733 0a1.066 1.066 0 1 0 0 2.133 18.154 18.154 0 0 1 18.134 18.134 1.066 1.066 0 1 0 2.133 0A20.29 20.29 0 0 0 43.733 0Z" /><path d="M57.6 21.333a1.066 1.066 0 0 0 1.067-1.066A14.95 14.95 0 0 0 43.733 5.333a1.066 1.066 0 1 0 0 2.134 12.813 12.813 0 0 1 12.8 12.8 1.067 1.067 0 0 0 1.067 1.066Z" /><path d="M43.733 10.667a1.066 1.066 0 1 0 0 2.133 7.476 7.476 0 0 1 7.467 7.467 1.067 1.067 0 0 0 2.133 0 9.61 9.61 0 0 0-9.6-9.6Z" /></g><defs></defs></symbol><clipPath id="video-surveillance_a"><path fill="#fff" d="M0 0h64v64H0z" /></clipPath><symbol fill="none" viewBox="0 0 24 24" id="wifi"><g clip-path="url(#wifi_a)"><path fill="#416B3E" d="M.241 9.39A.75.75 0 0 1 .2 8.332a16.002 16.002 0 0 1 5.25-3.777A15.93 15.93 0 0 1 12 3.16c2.281 0 4.485.47 6.551 1.394a16.002 16.002 0 0 1 5.25 3.777.75.75 0 0 1-1.102 1.017A14.6 14.6 0 0 0 12 4.66 14.6 14.6 0 0 0 1.301 9.348a.75.75 0 0 1-1.06.043Zm19.043 3.353a.75.75 0 1 0 1.121-.996A11.258 11.258 0 0 0 12 7.97a11.258 11.258 0 0 0-8.405 3.776.75.75 0 0 0 1.12.996A9.756 9.756 0 0 1 12 9.471a9.757 9.757 0 0 1 7.284 3.272Zm-3.436 3.384a.749.749 0 0 0 1.055.115.75.75 0 0 0 .114-1.055A6.408 6.408 0 0 0 12 12.781c-1.96 0-3.788.877-5.017 2.406a.75.75 0 0 0 1.169.94A4.915 4.915 0 0 1 12 14.28c1.503 0 2.905.673 3.848 1.846ZM12 17.59c.896 0 1.624.729 1.624 1.624 0 .896-.728 1.625-1.624 1.625a1.626 1.626 0 0 1-1.624-1.625c0-.895.728-1.624 1.624-1.624Zm0 1.5a.126.126 0 0 0-.124.124c0 .068.057.125.124.125a.126.126 0 0 0 .124-.125.126.126 0 0 0-.124-.124Z" /></g><defs></defs></symbol><clipPath id="wifi_a"><path fill="#fff" d="M0 0h24v24H0z" /></clipPath></defs></svg>