<svg width="52" height="54" viewBox="0 0 52 54" fill="none" xmlns="http://www.w3.org/2000/svg">
<path d="M26.0001 11C23.0546 11 20.6667 8.6122 20.6667 5.66668C20.6667 2.72116 23.0546 0.333344 26.0001 0.333344C28.9456 0.333344 31.3334 2.72116 31.3334 5.66668C31.3334 8.6122 28.9456 11 26.0001 11ZM26.0001 8.33334C27.4728 8.33334 28.6667 7.13944 28.6667 5.66668C28.6667 4.19392 27.4728 3.00001 26.0001 3.00001C24.5273 3.00001 23.3334 4.19392 23.3334 5.66668C23.3334 7.13944 24.5273 8.33334 26.0001 8.33334Z" fill="#416B3E"/>
<path d="M24.6667 9.66669H27.3334V52.3334H24.6667V9.66669Z" fill="#416B3E"/>
<path d="M4.66675 33.6667C4.66675 32.9303 5.2637 32.3333 6.00008 32.3333C6.73646 32.3333 7.33341 32.9303 7.33341 33.6667C7.33341 45.0464 14.61 51 26.0001 51C37.3902 51 44.6667 45.0464 44.6667 33.6667C44.6667 32.9303 45.2637 32.3333 46.0001 32.3333C46.7365 32.3333 47.3334 32.9303 47.3334 33.6667C47.3334 46.6505 38.7581 53.6667 26.0001 53.6667C13.242 53.6667 4.66675 46.6505 4.66675 33.6667Z" fill="#416B3E"/>
<path d="M2.94289 38.6095C2.42219 39.1302 1.57797 39.1302 1.05727 38.6095C0.536573 38.0888 0.536573 37.2446 1.05727 36.7239L5.05727 32.7239C5.46309 32.3181 6.08305 32.2175 6.59637 32.4741L11.9297 35.1408C12.5883 35.4701 12.8553 36.271 12.526 36.9296C12.1967 37.5883 11.3958 37.8552 10.7371 37.5259L6.26335 35.289L2.94289 38.6095Z" fill="#416B3E"/>
<path d="M49.0574 38.6095C49.5781 39.1302 50.4223 39.1302 50.943 38.6095C51.4637 38.0888 51.4637 37.2446 50.943 36.7239L46.943 32.7239C46.5372 32.3181 45.9172 32.2175 45.4039 32.4741L40.0705 35.1408C39.4119 35.4701 39.1449 36.271 39.4743 36.9296C39.8036 37.5883 40.6045 37.8552 41.2631 37.5259L45.7369 35.289L49.0574 38.6095Z" fill="#416B3E"/>
<path d="M16.6668 19C15.9304 19 15.3335 18.4031 15.3335 17.6667C15.3335 16.9303 15.9304 16.3333 16.6668 16.3333H35.3335C36.0699 16.3333 36.6668 16.9303 36.6668 17.6667C36.6668 18.4031 36.0699 19 35.3335 19H16.6668Z" fill="#416B3E"/>
</svg>
