<svg xmlns="http://www.w3.org/2000/svg" width="24" height="24" fill="none"><g clip-path="url(#a)"><path fill="#416B3E" d="M22.5 11h-20V2.57c0-.57.53-1.07 1.135-1.07h2.09c.59 0 1.065.48 1.07 1.066C5.82 2.81 5 3.71 5 4.66V6c0 .275.225.5.5.5H9c.275 0 .5-.225.5-.5V4.66c0-.965-.765-1.85-1.705-2.09A2.07 2.07 0 0 0 5.725.5h-2.09C2.48.5 1.5 1.45 1.5 2.57V11a1.496 1.496 0 0 0-1 2.61v2.62c0 2.035.905 3.78 2.37 4.915l-.82 1.63a.497.497 0 0 0 .225.67.497.497 0 0 0 .67-.226l.77-1.534c1.01.54 2.14.82 3.285.81h10a6.844 6.844 0 0 0 3.285-.81l.77 1.535a.505.505 0 0 0 .67.224.504.504 0 0 0 .225-.67l-.82-1.634c1.465-1.13 2.37-2.88 2.37-4.915v-2.62c.315-.275.5-.68.5-1.105 0-.83-.67-1.5-1.5-1.5ZM7.295 3.5c.595 0 1.205.586 1.205 1.16v.84H6v-.84c0-.554.675-1.16 1.295-1.16ZM22.5 16.23c0 3.006-2.365 5.27-5.5 5.27H7c-3.135 0-5.5-2.264-5.5-5.27V14h21v2.23Zm0-3.23H1.515a.512.512 0 0 1-.51-.424A.5.5 0 0 1 1.5 12h20.985c.25 0 .475.18.51.425A.5.5 0 0 1 22.5 13Z"/></g><defs><clipPath id="a"><path fill="#fff" d="M0 0h24v24H0z"/></clipPath></defs></svg>