<svg width="64" height="57" viewBox="0 0 64 57" fill="none" xmlns="http://www.w3.org/2000/svg">
<path d="M0.9375 40.8765H63.0624" stroke="#416B3E" stroke-width="2" stroke-miterlimit="10" stroke-linecap="round" stroke-linejoin="round"/>
<path d="M44.1112 27.9301C43.7231 25.5699 41.4951 23.971 39.1347 24.3591C36.7744 24.7471 35.1756 26.9751 35.5637 29.3355C35.1756 26.9751 32.9476 25.3764 30.5872 25.7644C28.2269 26.1525 26.6281 28.3806 27.0162 30.7409C26.6281 28.3806 24.4001 26.7817 22.0397 27.1697C19.6793 27.5579 18.0806 29.7859 18.4686 32.1462C18.0806 29.7859 15.8526 28.1871 13.4922 28.5752C11.1319 28.9632 9.53306 31.1912 9.92106 33.5516C9.53306 31.1912 7.30506 29.5925 4.94469 29.9805C2.58431 30.3686 0.985563 32.5966 1.37369 34.957L1.22869 34.9809C-0.718063 23.141 7.30194 11.9647 19.1418 10.018C30.9817 8.07137 42.1579 16.0914 44.1046 27.9312L44.1112 27.9301Z" stroke="#416B3E" stroke-width="2" stroke-miterlimit="10" stroke-linecap="round" stroke-linejoin="round"/>
<path d="M21.9639 27.1823L25.5867 49.2169" stroke="#416B3E" stroke-width="2" stroke-miterlimit="10" stroke-linecap="round" stroke-linejoin="round"/>
<path d="M9.725 23.0346C9.26175 26.0349 9.23813 29.3656 9.7345 32.8227C9.816 33.0561 9.87963 33.2992 9.92113 33.5516C9.53313 31.1912 11.1319 28.9632 13.4923 28.5751C15.8526 28.1871 18.0806 29.7859 18.4686 32.1462C18.0806 29.7859 19.6794 27.5579 22.0398 27.1699C24.4 26.7817 26.6281 28.3806 27.0163 30.7409C26.6281 28.3806 28.227 26.1525 30.5873 25.7644C32.662 25.4232 34.6339 26.6176 35.3445 28.5146C33.1986 17.1074 26.0623 8.88473 19.15 10.0167C19.148 10.0171 19.146 10.0174 19.144 10.0177C15.4074 10.6327 12.484 13.859 10.8421 18.5094" stroke="#416B3E" stroke-width="2" stroke-miterlimit="10" stroke-linecap="round" stroke-linejoin="round"/>
<path d="M19.2646 9.99947C19.2519 10.0015 19.2391 10.0032 19.2264 10.0052C16.9111 10.4278 16.56 20.0698 18.4179 31.6785C18.2969 29.4982 19.8361 27.5321 22.0397 27.1698C24.4 26.7817 26.628 28.3806 27.0161 30.7408C26.9916 30.5922 26.9752 30.4442 26.9662 30.297C25.0122 18.7061 21.5947 9.67909 19.2646 9.99947Z" stroke="#416B3E" stroke-width="2" stroke-miterlimit="10" stroke-linecap="round" stroke-linejoin="round"/>
<path d="M44.1112 27.9301C44.0957 27.8362 44.0763 27.7439 44.0552 27.6525C44.0717 27.7454 44.0893 27.8379 44.1046 27.9312L44.1112 27.9301Z" stroke="#416B3E" stroke-width="2" stroke-miterlimit="10" stroke-linecap="round" stroke-linejoin="round"/>
<path d="M57.8641 10.3903C57.8641 12.7399 55.9593 14.6447 53.6097 14.6447C51.2601 14.6447 49.3555 12.7399 49.3555 10.3903C49.3555 8.04065 51.2601 6.1359 53.6097 6.1359C55.9593 6.1359 57.8641 8.04065 57.8641 10.3903Z" stroke="#416B3E" stroke-width="2" stroke-miterlimit="10" stroke-linecap="round" stroke-linejoin="round"/>
<path d="M53.6096 0.937507V3.15726" stroke="#416B3E" stroke-width="2" stroke-miterlimit="10" stroke-linecap="round" stroke-linejoin="round"/>
<path d="M53.6096 17.6233V19.843" stroke="#416B3E" stroke-width="2" stroke-miterlimit="10" stroke-linecap="round" stroke-linejoin="round"/>
<path d="M60.2937 3.70619L58.7241 5.27582" stroke="#416B3E" stroke-width="2" stroke-miterlimit="10" stroke-linecap="round" stroke-linejoin="round"/>
<path d="M48.4952 15.5048L46.9255 17.0744" stroke="#416B3E" stroke-width="2" stroke-miterlimit="10" stroke-linecap="round" stroke-linejoin="round"/>
<path d="M63.0625 10.3903H60.8428" stroke="#416B3E" stroke-width="2" stroke-miterlimit="10" stroke-linecap="round" stroke-linejoin="round"/>
<path d="M46.3767 10.3903H44.157" stroke="#416B3E" stroke-width="2" stroke-miterlimit="10" stroke-linecap="round" stroke-linejoin="round"/>
<path d="M60.2937 17.0744L58.7241 15.5048" stroke="#416B3E" stroke-width="2" stroke-miterlimit="10" stroke-linecap="round" stroke-linejoin="round"/>
<path d="M48.4952 5.27576L46.9255 3.70613" stroke="#416B3E" stroke-width="2" stroke-miterlimit="10" stroke-linecap="round" stroke-linejoin="round"/>
<path d="M36.354 49.2169H43.5686" stroke="#416B3E" stroke-width="2" stroke-miterlimit="10" stroke-linecap="round" stroke-linejoin="round"/>
<path d="M41.7395 45.3834H57.8641" stroke="#416B3E" stroke-width="2" stroke-miterlimit="10" stroke-linecap="round" stroke-linejoin="round"/>
<path d="M51.042 52.4673C54.4137 51.642 58.8822 51.4049 63.0427 54.8967" stroke="#416B3E" stroke-width="2" stroke-miterlimit="10" stroke-linecap="round" stroke-linejoin="round"/>
<path d="M0.925049 50.7813C4.71667 45.6165 11.9999 43.325 18.0698 45.3868C25.2382 47.8219 30.3664 55.4618 37.9285 55.8348C40.4423 55.9588 42.8718 55.2339 45.2668 54.3869" stroke="#416B3E" stroke-width="2" stroke-miterlimit="10" stroke-linecap="round" stroke-linejoin="round"/>
</svg>
