<svg xmlns="http://www.w3.org/2000/svg" width="24" height="24" fill="none"><g fill="#416B3E" stroke="#416B3E" stroke-width=".1" clip-path="url(#a)"><path d="M.505 17.768v2.37c0 .37.172.699.437.92v1.575c0 .598.487 1.085 1.086 1.085h1.476c.599 0 1.086-.487 1.086-1.085v-1.291h8.114v1.29c0 .6.487 1.086 1.085 1.086h1.476c.6 0 1.086-.487 1.086-1.085v-1.42c.397-.198.673-.603.673-1.076v-2.37a.367.367 0 0 0-.076-.223c-1.543-1.976-1.285-1.705-1.423-1.808l-1.02-2.805a2.576 2.576 0 0 0-2.41-1.689H5.61a2.553 2.553 0 0 0-2.36 1.57c-1.363 3.244-1.302 3.065-1.316 3.15L.593 17.53a.365.365 0 0 0-.088.238Zm3.353 4.865a.354.354 0 0 1-.354.353H2.028a.354.354 0 0 1-.353-.353v-1.291H3.858v1.29Zm11.407.353H13.79a.354.354 0 0 1-.353-.353v-1.291h2.183v1.29a.354.354 0 0 1-.354.354Zm-11.34-9.89a1.823 1.823 0 0 1 1.685-1.121h6.484c.768 0 1.46.485 1.724 1.207l.899 2.473h-1.29a1.94 1.94 0 0 0-1.932-1.86 1.94 1.94 0 0 0-1.933 1.86H2.846l1.079-2.56Zm8.77 2.559h-2.401a1.207 1.207 0 0 1 1.2-1.128c.64 0 1.159.5 1.201 1.128ZM1.237 17.903l1.297-1.516H15.13l1.162 1.506v2.244c0 .26-.212.472-.472.472H1.71a.473.473 0 0 1-.472-.472v-2.234Z"/><path d="M3.569 19.733h1.375c.467 0 .846-.38.846-.846v-.632a.847.847 0 0 0-.846-.846H3.569a.847.847 0 0 0-.846.846v.632c0 .467.38.846.846.846Zm-.114-1.478c0-.065.049-.114.114-.114h1.375c.065 0 .114.049.114.114v.632a.111.111 0 0 1-.114.114H3.569a.111.111 0 0 1-.114-.114v-.632ZM12.586 19.733h1.376c.466 0 .845-.38.845-.846v-.633a.847.847 0 0 0-.845-.845h-1.376a.847.847 0 0 0-.846.846v.632c0 .467.38.846.846.846Zm-.113-1.479c0-.064.048-.113.113-.113h1.376c.063 0 .113.05.113.114v.632a.111.111 0 0 1-.113.114h-1.376a.111.111 0 0 1-.113-.114v-.633ZM7.872 18.936h1.786a.366.366 0 0 0 0-.732H7.872a.366.366 0 0 0 0 .732ZM19.16 5.506c.564 0 1.023-.459 1.023-1.023V3.436c0-.564-.459-1.023-1.023-1.023h-1.704a.366.366 0 0 0-.366.366v4.722a.366.366 0 0 0 .732 0V5.506h1.338Zm.29-2.07v1.047c0 .16-.13.291-.29.291h-1.338V3.145h1.338c.16 0 .29.13.29.291Z"/><path d="M18.637 23.718a.366.366 0 0 0 .366-.366V10h2.94c.856 0 1.552-.697 1.552-1.553V1.834c0-.856-.696-1.552-1.553-1.552h-6.611c-.856 0-1.553.696-1.553 1.552v6.612c0 .856.697 1.553 1.553 1.553h2.94v13.353c0 .203.163.366.366.366ZM14.51 8.446V1.834c0-.452.368-.82.82-.82h6.611c.453 0 .82.368.82.82v6.612c0 .452-.367.82-.82.82h-6.611a.821.821 0 0 1-.82-.82Z"/></g><defs><clipPath id="a"><path fill="#fff" d="M0 0h24v24H0z"/></clipPath></defs></svg>