<svg width="64" height="64" viewBox="0 0 64 64" fill="none" xmlns="http://www.w3.org/2000/svg">
<g clip-path="url(#clip0_298_2231)">
<path d="M20.549 24.7195C19.1357 24.7195 17.9858 25.8694 17.9858 27.2827C17.9858 28.6959 19.1357 29.8458 20.549 29.8458C21.9622 29.8458 23.1121 28.6959 23.1121 27.2827C23.1121 25.8694 21.9622 24.7195 20.549 24.7195ZM20.549 27.8742C20.2228 27.8742 19.9575 27.6088 19.9575 27.2827C19.9575 26.9565 20.2228 26.6912 20.549 26.6912C20.8751 26.6912 21.1405 26.9565 21.1405 27.2827C21.1405 27.6088 20.8751 27.8742 20.549 27.8742Z" fill="#416B3E"/>
<path d="M63.3697 0.0751384C62.8621 -0.121612 62.291 0.130764 62.0946 0.63864C61.8147 1.36152 59.6158 7.25403 57.2807 13.8493C56.7962 13.7389 56.293 13.6785 55.7755 13.6785C52.0429 13.6785 49.0062 16.7152 49.0062 20.4478C49.0062 23.1899 50.6461 25.5548 52.9958 26.6176C52.8989 26.9396 52.8078 27.2479 52.7251 27.5356C50.1452 36.4911 47.1473 37.7727 46.2901 37.9522C45.5513 38.1078 44.8973 37.8501 44.3478 37.1886C43.2731 35.895 42.7273 33.019 44.0688 29.7611C46.2043 24.5747 49.5151 15.2493 47.6937 11.067C47.2533 10.056 46.5512 9.36353 45.6064 9.00928C42.8268 7.96678 39.7014 10.1388 36.3179 15.4647C34.6314 18.1192 33.3124 20.8689 32.6752 22.2741C28.6028 20.5118 23.0278 20.4536 17.5006 22.1586C10.9635 24.1747 5.6241 28.3668 2.85147 33.6601C-0.44166 39.9466 -0.911661 46.9552 1.59397 52.4081C3.69335 56.977 7.73223 60.1584 12.9666 61.3663C14.2591 61.6646 15.5622 61.787 16.8326 61.787C21.3749 61.7868 25.4878 60.2194 27.1064 59.5151C29.4436 62.1665 32.9089 63.6964 37.1832 63.9529C37.6348 63.98 38.0735 63.9918 38.4962 63.9918C41.2533 63.9918 43.2978 63.4898 43.3962 63.4653C44.1493 63.2769 44.3936 62.2889 43.8119 61.772C39.7898 58.1968 35.0977 55.0477 33.6275 54.0861V47.2616C33.6275 46.5897 32.9374 46.105 32.3048 46.3351C27.4063 48.1165 25.9354 52.2445 25.5123 54.1151L18.4548 53.7231L30.1727 31.4213C30.4259 30.9393 30.2405 30.3433 29.7585 30.0901C29.2765 29.8367 28.6805 30.0222 28.4274 30.5042L25.0044 37.0187C24.9739 37.0236 24.9435 37.0295 24.913 37.0373C24.1393 37.2366 23.3374 37.3376 22.53 37.3376C17.2754 37.3376 13.0005 33.0627 13.0005 27.8081C13.0005 27.5257 13.0111 27.2424 13.0377 26.9613C13.063 26.6932 13.1352 26.4254 13.1144 26.1546C14.6539 25.2989 16.3192 24.5859 18.0815 24.0424C23.0584 22.5072 28.208 22.5269 31.8179 24.0508L30.0695 27.3786C29.8163 27.8606 30.0017 28.4566 30.4837 28.7098C30.9655 28.9631 31.5614 28.7776 31.8148 28.2957C31.8148 28.2957 35.7177 20.0853 37.9818 16.5217C40.7168 12.2169 43.1786 10.2052 44.9138 10.8553C45.3518 11.0194 45.6607 11.3369 45.8859 11.8542C46.9878 14.3845 45.6268 20.7981 42.2454 29.0103C40.8073 32.503 41.0428 36.296 42.8312 38.4485C43.7782 39.5882 45.2222 40.1905 46.6942 39.8818C49.8002 39.2316 52.6148 35.0407 54.6197 28.0813C54.7028 27.7928 54.7947 27.4823 54.8925 27.1574C55.1817 27.1954 55.4761 27.2169 55.7755 27.2169C59.508 27.2169 62.5447 24.1803 62.5447 20.4477C62.5447 17.9307 61.1628 15.7317 59.1188 14.5654C61.4545 7.96653 63.6543 2.07077 63.9332 1.35014C64.1297 0.842515 63.8775 0.271639 63.3697 0.0751384ZM22.5299 39.3096C22.9689 39.3096 23.4065 39.2835 23.8405 39.2341L15.996 54.164C15.8399 54.4609 15.8456 54.8169 16.0111 55.1087C16.1766 55.4005 16.479 55.5881 16.814 55.6068L26.2778 56.1325C26.8033 56.1609 27.2624 55.7666 27.3139 55.2407C27.3326 55.0492 27.7811 50.9394 31.6559 48.7887V54.6225C31.6559 54.9594 31.8282 55.2731 32.1124 55.4541C32.1632 55.4865 36.67 58.3659 40.9095 61.8805C37.7549 62.2311 31.6427 62.2224 28.1654 57.7018C27.8775 57.3276 27.365 57.2101 26.9431 57.4211C26.8726 57.4564 19.8255 60.9261 13.4101 59.4454C8.71723 58.3624 5.25073 55.6444 3.38547 51.5851C1.13309 46.6834 1.58634 40.3246 4.59785 34.5752C6.0436 31.8151 8.26848 29.3798 11.0356 27.4509C11.032 27.5702 11.0289 27.6893 11.0289 27.8084C11.0289 34.1502 16.1881 39.3096 22.5299 39.3096ZM55.7753 25.2453C53.4218 25.2453 51.4601 23.5413 51.0556 21.3026L58.4615 24.4208C57.6945 24.9412 56.7698 25.2453 55.7753 25.2453ZM60.538 21.0168C60.4577 21.6937 60.2362 22.3277 59.9032 22.8887L51.1432 19.2003C51.3191 18.5482 51.6289 17.9508 52.0418 17.4396L60.538 21.0168ZM60.267 18.7634L53.8422 16.0584C54.4341 15.7967 55.0877 15.6503 55.7753 15.6503C57.8283 15.65 59.5835 16.9465 60.267 18.7634Z" fill="#416B3E"/>
<path d="M11.0221 39.1349C10.5893 38.8048 9.9708 38.8877 9.64042 39.3206C9.0908 40.0407 8.05767 40.1793 7.33754 39.6299C6.61742 39.0803 6.47854 38.0472 7.02817 37.3269C7.35842 36.8941 7.27529 36.2756 6.84242 35.9452C6.40967 35.6147 5.79104 35.6978 5.46067 36.1308C4.25154 37.7153 4.55691 39.9881 6.14129 41.1972C6.79479 41.6961 7.56517 41.9369 8.32992 41.9369C9.4193 41.9369 10.4972 41.4474 11.2076 40.5166C11.5379 40.0839 11.4549 39.4653 11.0221 39.1349Z" fill="#416B3E"/>
<path d="M18.383 43.8666C17.9502 43.5362 17.3316 43.6193 17.0012 44.0522C16.4514 44.7722 15.4186 44.911 14.6983 44.3616C13.9782 43.812 13.8393 42.7788 14.3889 42.0586C14.7193 41.6257 14.6361 41.0072 14.2032 40.6768C13.7704 40.3463 13.1518 40.4296 12.8214 40.8625C11.6124 42.447 11.9177 44.7197 13.5022 45.929C14.1557 46.4275 14.9261 46.6686 15.6908 46.6686C16.7803 46.6686 17.8581 46.1792 18.5685 45.2482C18.8988 44.8156 18.8157 44.197 18.383 43.8666Z" fill="#416B3E"/>
<path d="M12.0867 47.0388C11.654 46.7085 11.0354 46.7917 10.705 47.2246C10.4389 47.5735 10.0526 47.7977 9.61774 47.8563C9.18262 47.914 8.75099 47.8002 8.40212 47.5341C7.68199 46.9845 7.54311 45.9515 8.09287 45.2311C8.42312 44.7982 8.33999 44.1797 7.90712 43.8493C7.47437 43.5188 6.85561 43.602 6.52536 44.035C5.31624 45.6195 5.62161 47.8921 7.20599 49.1012C7.85949 49.6001 8.62987 49.841 9.39474 49.841C10.4841 49.841 11.562 49.3515 12.2724 48.4206C12.6029 47.9877 12.5196 47.3691 12.0867 47.0388Z" fill="#416B3E"/>
<path d="M34.1324 0.732386C31.4218 -0.189491 28.467 1.26651 27.5458 3.97739C26.7401 6.34765 28.4543 12.6443 28.8061 13.8823C28.8946 14.1937 29.1305 14.4419 29.4371 14.546C29.7408 14.6497 30.0845 14.5953 30.342 14.4042C31.3755 13.6368 36.5717 9.68915 37.3772 7.31877C38.2985 4.60839 36.843 1.65351 34.1324 0.732386ZM35.5105 6.6844L35.5104 6.68452C35.1147 7.84927 32.4694 10.2267 30.3271 11.9283C29.643 9.17615 29.034 5.72527 29.4124 4.61189C29.8176 3.41952 30.9168 2.55664 32.1703 2.44114C32.6177 2.39989 33.0723 2.45451 33.4977 2.59914C35.179 3.17052 36.0819 5.00327 35.5105 6.6844Z" fill="#416B3E"/>
<path d="M51.9956 45.42C49.6142 44.6481 43.3426 46.4508 42.1094 46.8201C41.4606 47.0145 41.1969 47.8242 41.6091 48.3632C42.3909 49.3857 46.4116 54.5256 48.7929 55.2978C48.7929 55.2978 48.7929 55.2978 48.7931 55.2978C49.3232 55.4697 49.8611 55.5513 50.3904 55.5513C52.5805 55.5513 54.622 54.1531 55.3332 51.9601C56.2161 49.237 54.7187 46.3031 51.9956 45.42ZM53.4577 51.3521C52.91 53.0413 51.0906 53.9698 49.4012 53.4223C48.2309 53.0428 45.8167 50.4316 44.0849 48.3135C46.8271 47.5906 50.2688 46.9323 51.3877 47.2957C53.0766 47.8432 54.0053 49.6631 53.4577 51.3521Z" fill="#416B3E"/>
<path d="M14.0595 18.7165C13.8585 17.4451 12.7686 11.011 11.0416 9.19863C9.06685 7.12612 5.77384 7.04687 3.70121 9.02138C1.62858 10.9961 1.54908 14.289 3.52409 16.3618C5.25097 18.1743 11.6249 19.5735 12.885 19.8356C13.5489 19.9734 14.1651 19.3861 14.0595 18.7165ZM4.95134 15.0016C3.72646 13.716 3.77571 11.6736 5.06121 10.4488C5.68359 9.85563 6.48334 9.56138 7.28209 9.56138C8.13297 9.56138 8.98247 9.8955 9.61422 10.5586C10.463 11.4493 11.3435 14.8953 11.8585 17.5823C9.1996 16.9385 5.80009 15.8924 4.95134 15.0016Z" fill="#416B3E"/>
</g>
<defs>
<clipPath id="clip0_298_2231">
<rect width="64" height="64" fill="white"/>
</clipPath>
</defs>
</svg>
