<svg xmlns="http://www.w3.org/2000/svg" width="513" height="124" fill="none"><g fill="currentColor" clip-path="url(#a)"><path d="M253.878 124H0V0h176.81c1.229 0 2.225 1 2.225 2.234a2.23 2.23 0 0 1-2.225 2.235H4.45V119.53h249.428a2.23 2.23 0 0 1 2.225 2.235 2.23 2.23 0 0 1-2.225 2.234ZM513 124h-77.369a2.23 2.23 0 0 1-2.225-2.234 2.23 2.23 0 0 1 2.225-2.235h72.92V4.469H322.384a2.23 2.23 0 0 1-2.224-2.235A2.23 2.23 0 0 1 322.384 0H513v124Z"/><path d="M80.895 45.615 60.508 76.793h20.387v2.162H54.128v-.829L73.92 47.781H54.128v-2.162h26.767v-.004ZM98.626 44.86 111.89 78.95h-4.825l-4.296-11.113H90.672L86.23 78.951h-2.382l13.584-34.092h1.194Zm-7.122 20.816h10.397l-5.123-13.2-5.274 13.2ZM112.079 45.615l10.651 26.523 9.887-26.523h2.252l-12.8 34.116h-1.232l-13.754-34.115h4.996ZM139.859 45.615h4.74v33.34h-4.74v-33.34ZM153.237 45.615h9.398c2.892 0 5.38.32 7.46.956 2.085.636 3.82 1.66 5.209 3.066a16 16 0 0 1 3.584 5.531c.8 2.08 1.201 4.348 1.201 6.813 0 2.464-.36 4.55-1.075 6.613-.715 2.063-1.766 3.86-3.145 5.394-1.383 1.533-3.09 2.746-5.123 3.633-2.033.887-4.364 1.334-6.985 1.334h-10.524v-33.34Zm4.74 30.9h5.038c1.588 0 3.083-.31 4.486-.933 1.403-.618 2.625-1.543 3.669-2.766 1.04-1.224 1.862-2.73 2.468-4.514.602-1.784.903-3.85.903-6.197 0-2.063-.284-3.95-.849-5.669-.568-1.718-1.362-3.196-2.382-4.437a10.795 10.795 0 0 0-3.644-2.891c-1.41-.688-2.951-1.031-4.624-1.031h-5.058V76.51l-.007.003ZM201.133 79.731c-2.184 0-4.22-.46-6.113-1.381a15.455 15.455 0 0 1-4.931-3.785c-1.397-1.602-2.495-3.468-3.296-5.606-.801-2.139-1.201-4.42-1.201-6.851 0-1.592.181-3.125.541-4.6.362-1.474.876-2.849 1.54-4.124a16.942 16.942 0 0 1 2.412-3.482 15.77 15.77 0 0 1 3.135-2.692 14.815 14.815 0 0 1 3.731-1.736 14.215 14.215 0 0 1 4.178-.615c1.448 0 2.855.206 4.189.615 1.332.413 2.577.99 3.731 1.736a15.28 15.28 0 0 1 3.135 2.692 17.605 17.605 0 0 1 2.412 3.482 17.742 17.742 0 0 1 1.551 4.125c.363 1.474.54 3.007.54 4.599 0 1.591-.181 3.183-.54 4.675a19.046 19.046 0 0 1-1.551 4.2 17.818 17.818 0 0 1-2.412 3.568 15.885 15.885 0 0 1-3.135 2.767 14.625 14.625 0 0 1-3.731 1.784c-1.331.42-2.727.63-4.189.63h.004Zm0-1.66c1.615 0 3.042-.399 4.285-1.193 1.238-.797 2.286-1.907 3.135-3.33.848-1.424 1.492-3.108 1.923-5.053.431-1.946.647-4.074.647-6.387 0-2.313-.216-4.4-.647-6.311-.431-1.911-1.075-3.558-1.923-4.94-.849-1.382-1.897-2.454-3.135-3.217-1.239-.763-2.67-1.145-4.285-1.145-1.616 0-3.087.382-4.326 1.145-1.239.763-2.283 1.835-3.125 3.217-.842 1.382-1.478 3.029-1.903 4.94-.424 1.911-.636 4.015-.636 6.31 0 2.297.212 4.442.636 6.388.425 1.945 1.061 3.63 1.903 5.052.842 1.427 1.886 2.537 3.125 3.331 1.239.798 2.683 1.193 4.326 1.193ZM222.961 45.615l10.65 26.523 9.887-26.523h2.252l-12.799 34.116h-1.232l-13.755-34.115h4.997ZM263.865 79.731c-2.184 0-4.22-.46-6.112-1.381a15.448 15.448 0 0 1-4.932-3.785c-1.396-1.602-2.495-3.468-3.296-5.606-.801-2.139-1.201-4.42-1.201-6.851 0-1.592.181-3.125.541-4.6.362-1.474.876-2.849 1.54-4.124a16.908 16.908 0 0 1 2.413-3.482 15.737 15.737 0 0 1 3.134-2.692 14.815 14.815 0 0 1 3.731-1.736 14.216 14.216 0 0 1 4.179-.615c1.447 0 2.857.206 4.189.615 1.331.413 2.577.99 3.73 1.736s2.2 1.643 3.135 2.692a17.652 17.652 0 0 1 2.413 3.482 17.74 17.74 0 0 1 1.55 4.125c.363 1.474.544 3.007.544 4.599a19.91 19.91 0 0 1-.544 4.675 19.094 19.094 0 0 1-1.55 4.2 17.6 17.6 0 0 1-2.413 3.568 15.885 15.885 0 0 1-3.135 2.767 14.634 14.634 0 0 1-3.73 1.784c-1.332.42-2.728.63-4.189.63h.003Zm0-1.66c1.615 0 3.042-.399 4.285-1.193 1.239-.797 2.286-1.907 3.135-3.33.848-1.424 1.492-3.108 1.923-5.053.431-1.946.647-4.074.647-6.387 0-2.313-.216-4.4-.647-6.311-.431-1.911-1.075-3.558-1.923-4.94-.849-1.382-1.896-2.454-3.135-3.217-1.239-.763-2.67-1.145-4.285-1.145-1.615 0-3.087.382-4.326 1.145-1.239.763-2.283 1.835-3.125 3.217-.841 1.382-1.478 3.029-1.902 4.94-.425 1.911-.637 4.015-.637 6.31 0 2.297.212 4.442.637 6.388.424 1.945 1.061 3.63 1.902 5.052.842 1.427 1.886 2.537 3.125 3.331 1.239.798 2.683 1.193 4.326 1.193ZM295.409 45.615h9.781c1.687 0 3.169.214 4.442.643 1.277.426 2.338 1.028 3.19 1.798a7.44 7.44 0 0 1 1.923 2.753c.432 1.066.647 2.224.647 3.482 0 1.039-.168 2.011-.499 2.915a8.312 8.312 0 0 1-1.404 2.451 8.874 8.874 0 0 1-2.18 1.887c-.848.53-1.786.942-2.806 1.245l10.267 16.166h-5.507l-9.801-15.664h-3.316v15.664h-4.74v-33.34h.003Zm4.74 15.991h2.741c1.065 0 2.043-.168 2.943-.502a6.962 6.962 0 0 0 2.338-1.42 6.339 6.339 0 0 0 1.54-2.223c.37-.873.554-1.853.554-2.943 0-1.007-.147-1.928-.434-2.767-.291-.838-.702-1.553-1.232-2.148a5.734 5.734 0 0 0-1.893-1.396 5.68 5.68 0 0 0-2.392-.502h-4.168V61.61l.003-.004ZM343.155 45.615v2.163h-14.86v11.917h9.949v2.162h-9.949v14.936h14.86v2.162h-19.6v-33.34h19.6ZM356.036 77.62c.695 0 1.383-.113 2.064-.34a5.582 5.582 0 0 0 1.827-1.007c.538-.443.972-.99 1.297-1.632.325-.647.49-1.396.49-2.252 0-1.02-.223-1.932-.671-2.73a8.78 8.78 0 0 0-1.752-2.185 17.508 17.508 0 0 0-2.478-1.874 213.565 213.565 0 0 0-2.837-1.76 56.132 56.132 0 0 1-2.837-1.849 14.497 14.497 0 0 1-2.478-2.162 10.375 10.375 0 0 1-1.756-2.664c-.445-.98-.671-2.107-.671-3.382 0-1.276.202-2.455.606-3.544a7.937 7.937 0 0 1 1.776-2.83c.781-.797 1.739-1.419 2.882-1.873 1.14-.453 2.447-.677 3.922-.677 1.331 0 2.522.169 3.573.502 1.047.337 1.971.828 2.765 1.485a8.741 8.741 0 0 1 2.019 2.413c.555.956 1 2.062 1.339 3.317l-2.424 1.306a14.565 14.565 0 0 0-1.084-2.801 8.648 8.648 0 0 0-1.575-2.176 6.393 6.393 0 0 0-2.115-1.396c-.801-.326-1.704-.491-2.71-.491-.894 0-1.674.148-2.338.44a5.007 5.007 0 0 0-1.67 1.155 4.76 4.76 0 0 0-.999 1.608 5.24 5.24 0 0 0-.329 1.822c0 .873.226 1.67.681 2.403.455.729 1.054 1.416 1.807 2.062.75.647 1.605 1.269 2.564 1.874.955.605 1.93 1.217 2.922 1.835a67.073 67.073 0 0 1 2.923 1.936c.958.67 1.811 1.402 2.563 2.2.75.797 1.352 1.667 1.807 2.615.456.95.682 2.008.682 3.18 0 1.323-.213 2.568-.637 3.733a8.363 8.363 0 0 1-1.913 3.042c-.849.863-1.906 1.547-3.169 2.049-1.263.502-2.728.756-4.401.756-1.363 0-2.574-.175-3.635-.53a8.648 8.648 0 0 1-2.817-1.532 9.525 9.525 0 0 1-2.094-2.451c-.582-.963-1.058-2.066-1.424-3.307l2.529-1.23c.298 1.089.698 2.062 1.202 2.914a8.978 8.978 0 0 0 1.755 2.176 7.369 7.369 0 0 0 2.221 1.372c.815.32 1.684.477 2.605.477l-.007.004ZM383.193 79.731c-2.184 0-4.22-.46-6.112-1.381a15.448 15.448 0 0 1-4.932-3.785c-1.396-1.602-2.495-3.468-3.296-5.606-.801-2.139-1.201-4.42-1.201-6.851 0-1.592.181-3.125.541-4.6.362-1.474.876-2.849 1.54-4.124a16.942 16.942 0 0 1 2.412-3.482 15.77 15.77 0 0 1 3.135-2.692 14.815 14.815 0 0 1 3.731-1.736 14.215 14.215 0 0 1 4.178-.615c1.448 0 2.855.206 4.189.615 1.332.413 2.577.99 3.731 1.736 1.153.746 2.2 1.643 3.135 2.692a17.605 17.605 0 0 1 2.412 3.482 17.742 17.742 0 0 1 1.551 4.125c.363 1.474.541 3.007.541 4.599 0 1.591-.182 3.183-.541 4.675a19.046 19.046 0 0 1-1.551 4.2 17.818 17.818 0 0 1-2.412 3.568 15.885 15.885 0 0 1-3.135 2.767 14.625 14.625 0 0 1-3.731 1.784c-1.331.42-2.727.63-4.189.63h.004Zm0-1.66c1.615 0 3.042-.399 4.285-1.193 1.239-.797 2.286-1.907 3.135-3.33.848-1.424 1.492-3.108 1.923-5.053.431-1.946.647-4.074.647-6.387 0-2.313-.216-4.4-.647-6.311-.431-1.911-1.075-3.558-1.923-4.94-.849-1.382-1.896-2.454-3.135-3.217-1.239-.763-2.67-1.145-4.285-1.145-1.615 0-3.087.382-4.326 1.145-1.239.763-2.283 1.835-3.125 3.217-.842 1.382-1.478 3.029-1.903 4.94-.424 1.911-.636 4.015-.636 6.31 0 2.297.212 4.442.636 6.388.425 1.945 1.061 3.63 1.903 5.052.842 1.427 1.886 2.537 3.125 3.331 1.239.798 2.683 1.193 4.326 1.193ZM405.781 45.615h9.781c1.687 0 3.169.214 4.442.643 1.276.426 2.337 1.028 3.19 1.798a7.451 7.451 0 0 1 1.923 2.753c.431 1.066.647 2.224.647 3.482 0 1.039-.168 2.011-.5 2.915a8.331 8.331 0 0 1-1.403 2.451 8.874 8.874 0 0 1-2.18 1.887c-.849.53-1.787.942-2.806 1.245l10.267 16.166h-5.507l-9.802-15.664h-3.316v15.664h-4.74v-33.34h.004Zm4.74 15.991h2.741c1.064 0 2.043-.168 2.943-.502.9-.337 1.68-.807 2.338-1.42a6.365 6.365 0 0 0 1.54-2.223c.369-.873.554-1.853.554-2.943 0-1.007-.147-1.928-.435-2.767-.29-.838-.701-1.553-1.232-2.148a5.72 5.72 0 0 0-1.892-1.396 5.684 5.684 0 0 0-2.392-.502h-4.169V61.61l.004-.004ZM454.909 45.615v2.163h-10.206v31.177h-4.74V47.778h-10.205v-2.163h25.151Z"/></g><defs><clipPath id="a"><path fill="#fff" d="M0 0h513v124H0z"/></clipPath></defs></svg>