<svg xmlns="http://www.w3.org/2000/svg" width="171" height="41" fill="none"><g clip-path="url(#a)"><g fill="currentColor" clip-path="url(#b)"><path d="M84.626 41H0V0h58.937c.41 0 .741.33.741.739a.74.74 0 0 1-.741.739H1.483v38.044h83.143a.74.74 0 1 1 0 1.477ZM171 41h-25.79a.74.74 0 1 1 0-1.477h24.307V1.477h-62.056a.74.74 0 0 1-.741-.74.74.74 0 0 1 .741-.738H171v41Z"/><path d="m26.965 16.736-6.796 10.308h6.796v.715h-8.922v-.274l6.597-10.033h-6.597v-.715h8.922v-.001ZM32.875 16.486l4.422 11.272H35.69l-1.432-3.675h-4.033l-1.48 3.675h-.794l4.527-11.272h.398Zm-2.374 6.883h3.466l-1.708-4.365-1.758 4.365ZM37.36 16.736l3.55 8.77 3.296-8.77h.75l-4.266 11.28h-.411l-4.585-11.28h1.666ZM46.62 16.736h1.58v11.023h-1.58V16.736ZM51.079 16.736h3.133c.963 0 1.793.105 2.486.316.695.21 1.273.549 1.737 1.014.529.532.927 1.142 1.194 1.828.267.688.4 1.438.4 2.253 0 .815-.12 1.505-.358 2.187a5.155 5.155 0 0 1-1.048 1.783c-.461.507-1.03.908-1.708 1.201-.678.293-1.454.441-2.328.441h-3.508V16.736Zm1.58 10.216h1.68c.528 0 1.027-.102 1.495-.308.467-.204.875-.51 1.223-.915.346-.404.62-.902.822-1.492.2-.59.301-1.273.301-2.05a5.93 5.93 0 0 0-.283-1.873 4.505 4.505 0 0 0-.794-1.468 3.595 3.595 0 0 0-1.215-.955 3.491 3.491 0 0 0-1.54-.341H52.66v9.401l-.002.001ZM67.044 28.016a4.623 4.623 0 0 1-2.037-.457 5.148 5.148 0 0 1-1.644-1.251 5.977 5.977 0 0 1-1.099-1.854 6.358 6.358 0 0 1-.4-2.265c0-.526.06-1.033.18-1.52.121-.489.292-.943.514-1.365a5.61 5.61 0 0 1 .804-1.151 5.234 5.234 0 0 1 1.045-.89 4.955 4.955 0 0 1 1.243-.574c.446-.135.91-.203 1.393-.203s.952.068 1.396.203a5.027 5.027 0 0 1 2.289 1.464 5.821 5.821 0 0 1 1.321 2.515 6.595 6.595 0 0 1 0 3.066c-.12.494-.293.956-.517 1.39a5.886 5.886 0 0 1-.804 1.18c-.311.354-.66.658-1.045.914-.386.255-.8.451-1.244.59-.443.139-.909.208-1.396.208h.001Zm0-.549a2.61 2.61 0 0 0 1.429-.394c.413-.264.762-.631 1.045-1.102.282-.47.497-1.027.64-1.67a9.686 9.686 0 0 0 .216-2.112 9.38 9.38 0 0 0-.215-2.087c-.144-.632-.359-1.176-.641-1.633a3.18 3.18 0 0 0-1.045-1.064c-.413-.252-.89-.378-1.429-.378-.538 0-1.029.126-1.442.378-.413.252-.76.607-1.041 1.064-.28.457-.493 1.001-.634 1.633a9.557 9.557 0 0 0-.213 2.087c0 .759.071 1.468.213 2.111.141.644.353 1.2.634 1.671.28.472.628.839 1.041 1.102.413.263.895.394 1.442.394ZM74.32 16.736l3.55 8.77 3.296-8.77h.75l-4.266 11.28h-.41l-4.585-11.28h1.665ZM87.955 28.016a4.624 4.624 0 0 1-2.037-.457 5.147 5.147 0 0 1-1.644-1.251 5.973 5.973 0 0 1-1.099-1.854 6.356 6.356 0 0 1-.4-2.265c0-.526.06-1.033.18-1.52.12-.489.292-.943.513-1.365.223-.421.49-.804.804-1.151a5.232 5.232 0 0 1 1.045-.89 4.953 4.953 0 0 1 1.244-.574c.446-.135.91-.203 1.393-.203.482 0 .952.068 1.396.203a5.028 5.028 0 0 1 2.289 1.464 5.826 5.826 0 0 1 1.32 2.515c.122.488.182.995.182 1.52 0 .527-.06 1.053-.181 1.547-.121.493-.293.955-.517 1.388a5.81 5.81 0 0 1-.804 1.18c-.312.355-.66.66-1.045.915-.386.255-.8.451-1.244.59-.444.139-.909.208-1.396.208h.001Zm0-.549a2.61 2.61 0 0 0 1.428-.394c.413-.264.762-.631 1.045-1.102.283-.47.498-1.027.641-1.67a9.68 9.68 0 0 0 .216-2.112c0-.765-.072-1.455-.216-2.087-.143-.632-.358-1.176-.64-1.633a3.18 3.18 0 0 0-1.046-1.064c-.413-.252-.89-.378-1.428-.378-.538 0-1.029.126-1.442.378a3.15 3.15 0 0 0-1.041 1.064c-.281.457-.493 1.001-.635 1.633a9.557 9.557 0 0 0-.212 2.087c0 .759.07 1.468.212 2.111.142.644.354 1.2.635 1.671.28.472.628.839 1.041 1.102.413.263.894.394 1.442.394ZM98.47 16.736h3.26c.562 0 1.056.07 1.481.212.425.141.779.34 1.063.595.283.254.497.558.641.91.144.352.216.736.216 1.152a2.748 2.748 0 0 1-.635 1.774c-.2.24-.442.449-.726.624a3.82 3.82 0 0 1-.936.411l3.423 5.345h-1.836l-3.267-5.179h-1.105v5.18h-1.58V16.735Zm1.58 5.287h.913c.355 0 .681-.056.981-.166.301-.111.561-.267.78-.47a2.1 2.1 0 0 0 .513-.735c.123-.288.185-.612.185-.973a2.78 2.78 0 0 0-.145-.914 2.068 2.068 0 0 0-.411-.71 1.91 1.91 0 0 0-.631-.462 1.905 1.905 0 0 0-.797-.166h-1.389v4.597h.001ZM114.385 16.736v.715h-4.953v3.94h3.316v.715h-3.316v4.938h4.953v.715h-6.533V16.736h6.533Z"/><path d="M117.658 27.318c.231 0 .461-.037.688-.112.227-.075.43-.186.609-.333.179-.147.324-.328.432-.54.109-.214.163-.462.163-.745 0-.337-.074-.639-.223-.902a2.937 2.937 0 0 0-.584-.723 5.843 5.843 0 0 0-.826-.62 65.395 65.395 0 0 0-.946-.581 19.071 19.071 0 0 1-.946-.612 4.848 4.848 0 0 1-.826-.715 3.462 3.462 0 0 1-.585-.88 2.666 2.666 0 0 1-.223-1.119c0-.422.067-.811.202-1.172a2.6 2.6 0 0 1 .592-.935c.26-.264.579-.47.96-.62.38-.15.816-.223 1.307-.223.444 0 .841.055 1.191.165a2.744 2.744 0 0 1 1.595 1.29c.185.315.333.681.446 1.096l-.807.432a4.814 4.814 0 0 0-.362-.926 2.862 2.862 0 0 0-.525-.72 2.132 2.132 0 0 0-.705-.461 2.39 2.39 0 0 0-.903-.163c-.298 0-.558.05-.779.146a1.66 1.66 0 0 0-.557.382c-.148.158-.26.335-.333.532a1.72 1.72 0 0 0-.11.602c0 .289.076.552.227.794.152.241.352.469.603.682.249.214.535.42.854.62.318.2.643.402.974.607.331.205.656.418.975.64.319.221.603.463.854.727.25.264.451.551.602.865.152.314.227.664.227 1.051 0 .438-.07.85-.212 1.234-.141.386-.355.721-.638 1.006a3.02 3.02 0 0 1-1.056.678c-.421.166-.909.25-1.467.25-.454 0-.858-.058-1.211-.175a2.882 2.882 0 0 1-.939-.507 3.15 3.15 0 0 1-.699-.81 4.665 4.665 0 0 1-.474-1.094l.843-.407c.099.36.233.682.4.964.168.283.363.523.586.72a2.37 2.37 0 0 0 1.608.611l-.002.001ZM127.731 28.016a4.625 4.625 0 0 1-2.038-.457 5.149 5.149 0 0 1-1.643-1.251 5.966 5.966 0 0 1-1.099-1.854 6.356 6.356 0 0 1-.4-2.265c0-.526.06-1.033.18-1.52a6.08 6.08 0 0 1 .513-1.365c.223-.421.491-.804.804-1.151a5.246 5.246 0 0 1 1.045-.89 4.971 4.971 0 0 1 1.244-.574c.446-.135.91-.203 1.393-.203.482 0 .951.068 1.396.203a5.037 5.037 0 0 1 2.288 1.464 5.813 5.813 0 0 1 1.322 2.515 6.638 6.638 0 0 1 0 3.066 6.298 6.298 0 0 1-.517 1.39 5.877 5.877 0 0 1-.805 1.18 5.27 5.27 0 0 1-1.044.914 4.9 4.9 0 0 1-1.244.59 4.653 4.653 0 0 1-1.396.208h.001Zm0-.549a2.61 2.61 0 0 0 1.428-.394c.413-.264.762-.631 1.045-1.102.283-.47.497-1.027.641-1.67a9.667 9.667 0 0 0 .216-2.112c0-.765-.072-1.455-.216-2.087-.144-.632-.358-1.176-.641-1.633a3.181 3.181 0 0 0-1.045-1.064c-.413-.252-.89-.378-1.428-.378-.539 0-1.029.126-1.442.378a3.155 3.155 0 0 0-1.042 1.064c-.28.457-.492 1.001-.634 1.633a9.589 9.589 0 0 0-.212 2.087c0 .759.071 1.468.212 2.111.142.644.354 1.2.634 1.671a3.24 3.24 0 0 0 1.042 1.102c.413.263.894.394 1.442.394ZM135.26 16.736h3.261c.562 0 1.056.07 1.48.212.426.141.779.34 1.064.595.282.254.497.558.641.91.143.352.215.736.215 1.152 0 .343-.056.664-.166.963-.111.3-.267.57-.468.81-.201.242-.443.45-.727.625a3.813 3.813 0 0 1-.935.411l3.422 5.345h-1.835l-3.268-5.179h-1.105v5.18h-1.58V16.735h.001Zm1.58 5.287h.914c.355 0 .681-.056.981-.166.3-.111.56-.267.779-.47.22-.202.391-.447.514-.735s.184-.612.184-.973a2.78 2.78 0 0 0-.145-.914 2.05 2.05 0 0 0-.41-.71 1.91 1.91 0 0 0-.631-.462 1.908 1.908 0 0 0-.797-.166h-1.39v4.597h.001ZM151.636 16.736v.715h-3.402v10.308h-1.58V17.451h-3.402v-.715h8.384Z"/></g></g><defs><clipPath id="a"><path fill="#fff" d="M0 0h171v41H0z"/></clipPath><clipPath id="b"><path fill="#fff" d="M0 0h171v41H0z"/></clipPath></defs></svg>