<svg xmlns="http://www.w3.org/2000/svg" width="171" height="41" fill="none"><g clip-path="url(#a)"><path fill="#79943D" d="M84.626 41H0V0h58.937c.41 0 .741.33.741.739a.74.74 0 0 1-.741.739H1.483v38.044h83.143a.74.74 0 1 1 0 1.477Z"/><path fill="#5991C2" d="M171.001 41h-25.79a.74.74 0 0 1-.742-.739.74.74 0 0 1 .742-.739h24.307V1.479h-62.056a.74.74 0 0 1-.741-.74.74.74 0 0 1 .741-.738h63.539v41Z"/><path fill="#686A69" d="M26.965 16.736 20.17 27.044h6.796v.715h-8.922v-.274l6.597-10.033h-6.597v-.715h8.922v-.001ZM32.875 16.486l4.422 11.272h-1.609l-1.431-3.675h-4.033l-1.48 3.675h-.795l4.528-11.272h.398Zm-2.374 6.883h3.466l-1.708-4.365-1.758 4.365ZM37.359 16.736l3.55 8.77 3.296-8.77h.75l-4.266 11.28h-.41l-4.586-11.28h1.666ZM46.62 16.736h1.58v11.023h-1.58V16.736ZM51.078 16.736h3.133c.964 0 1.793.105 2.487.316.694.21 1.273.549 1.736 1.014.53.532.927 1.142 1.194 1.828.267.688.4 1.438.4 2.253 0 .815-.119 1.505-.357 2.187a5.157 5.157 0 0 1-1.049 1.783c-.46.507-1.03.908-1.708 1.201-.677.293-1.454.441-2.328.441h-3.508V16.736Zm1.58 10.216h1.68c.529 0 1.027-.102 1.495-.308.468-.204.875-.51 1.223-.915.347-.404.62-.902.822-1.492.201-.59.301-1.273.301-2.05 0-.681-.094-1.305-.282-1.873a4.501 4.501 0 0 0-.794-1.468 3.594 3.594 0 0 0-1.215-.955 3.492 3.492 0 0 0-1.541-.341H52.66v9.401l-.002.001ZM67.044 28.016a4.623 4.623 0 0 1-2.038-.457 5.147 5.147 0 0 1-1.644-1.251 5.973 5.973 0 0 1-1.098-1.854 6.358 6.358 0 0 1-.4-2.265c0-.526.06-1.033.18-1.52.12-.489.292-.943.513-1.365.222-.421.49-.804.804-1.151a5.235 5.235 0 0 1 1.045-.89 4.953 4.953 0 0 1 1.244-.574c.446-.135.91-.203 1.392-.203.483 0 .952.068 1.397.203a5.03 5.03 0 0 1 2.288 1.464 5.822 5.822 0 0 1 1.321 2.515c.121.488.18.995.18 1.52a6.6 6.6 0 0 1-.18 1.547 6.268 6.268 0 0 1-.517 1.388 5.887 5.887 0 0 1-.804 1.18c-.311.355-.66.66-1.045.915-.385.255-.8.451-1.243.59-.444.139-.91.208-1.396.208Zm0-.549a2.61 2.61 0 0 0 1.428-.394 3.29 3.29 0 0 0 1.045-1.102c.283-.47.497-1.027.641-1.67a9.686 9.686 0 0 0 .216-2.112 9.38 9.38 0 0 0-.216-2.087c-.144-.632-.358-1.176-.641-1.633a3.182 3.182 0 0 0-1.045-1.064c-.413-.252-.89-.378-1.428-.378-.539 0-1.03.126-1.442.378a3.15 3.15 0 0 0-1.042 1.064c-.28.457-.493 1.001-.634 1.633a9.564 9.564 0 0 0-.212 2.087c0 .759.07 1.468.212 2.111.141.644.353 1.2.634 1.671.28.472.629.839 1.042 1.102.413.263.894.394 1.442.394ZM74.32 16.736l3.55 8.77 3.296-8.77h.75l-4.266 11.28h-.41l-4.586-11.28h1.666ZM87.956 28.016a4.623 4.623 0 0 1-2.038-.457 5.147 5.147 0 0 1-1.644-1.251 5.973 5.973 0 0 1-1.098-1.854 6.358 6.358 0 0 1-.4-2.265c0-.526.06-1.033.18-1.52.12-.489.292-.943.513-1.365.222-.421.49-.804.804-1.151a5.235 5.235 0 0 1 1.045-.89 4.953 4.953 0 0 1 1.244-.574c.446-.135.91-.203 1.393-.203.482 0 .952.068 1.396.203a5.03 5.03 0 0 1 2.288 1.464 5.818 5.818 0 0 1 1.321 2.515 6.538 6.538 0 0 1 0 3.066 6.268 6.268 0 0 1-.516 1.39 5.806 5.806 0 0 1-.805 1.18c-.311.354-.66.658-1.045.914-.385.255-.8.451-1.243.59-.444.139-.91.208-1.396.208Zm0-.549a2.61 2.61 0 0 0 1.428-.394c.413-.264.762-.631 1.045-1.102.283-.47.497-1.027.641-1.67a9.686 9.686 0 0 0 .216-2.112 9.38 9.38 0 0 0-.216-2.087c-.144-.632-.358-1.176-.641-1.633a3.181 3.181 0 0 0-1.045-1.064c-.413-.252-.89-.378-1.428-.378-.539 0-1.03.126-1.442.378a3.15 3.15 0 0 0-1.042 1.064c-.28.457-.493 1.001-.634 1.633a9.564 9.564 0 0 0-.212 2.087c0 .759.07 1.468.212 2.111.141.644.354 1.2.634 1.671.28.472.629.839 1.042 1.102.413.263.894.394 1.442.394ZM98.47 16.736h3.26c.563 0 1.057.07 1.481.212.426.141.779.34 1.063.595.283.254.498.558.641.91.144.352.216.736.216 1.152a2.748 2.748 0 0 1-.634 1.774c-.201.24-.443.449-.727.624a3.813 3.813 0 0 1-.935.411l3.422 5.345h-1.836l-3.267-5.179h-1.105v5.18h-1.58V16.735Zm1.58 5.287h.914c.354 0 .681-.056.981-.166.3-.111.56-.267.779-.47a2.1 2.1 0 0 0 .513-.735c.123-.288.185-.612.185-.973a2.78 2.78 0 0 0-.145-.914 2.082 2.082 0 0 0-.41-.71 1.91 1.91 0 0 0-.631-.462 1.91 1.91 0 0 0-.798-.166h-1.389v4.597h.001ZM114.385 16.736v.715h-4.953v3.94h3.316v.715h-3.316v4.938h4.953v.715h-6.533V16.736h6.533Z"/><path fill="#686A69" d="M117.658 27.318c.231 0 .46-.037.687-.112.227-.075.431-.186.61-.333.179-.147.324-.328.432-.54.108-.214.163-.462.163-.745 0-.337-.074-.639-.223-.902a2.919 2.919 0 0 0-.585-.723 5.775 5.775 0 0 0-.825-.62c-.31-.194-.626-.387-.946-.581a18.616 18.616 0 0 1-.946-.612 4.848 4.848 0 0 1-.826-.715 3.41 3.41 0 0 1-.585-.88 2.666 2.666 0 0 1-.224-1.119c0-.422.068-.811.202-1.172.135-.36.332-.671.592-.935.26-.264.58-.47.961-.62.38-.15.816-.223 1.307-.223.444 0 .841.055 1.191.165.349.112.657.274.922.491.265.216.489.482.673.798.185.316.333.682.446 1.097l-.808.432a4.748 4.748 0 0 0-.361-.926 2.862 2.862 0 0 0-.525-.72 2.132 2.132 0 0 0-.705-.461 2.392 2.392 0 0 0-.904-.163 1.94 1.94 0 0 0-.779.146 1.665 1.665 0 0 0-.556.382c-.149.158-.26.335-.333.532a1.72 1.72 0 0 0-.11.602c0 .289.075.552.227.794.152.241.351.469.602.682.25.214.535.42.855.62.318.2.643.402.974.607.331.205.656.418.974.64.32.221.604.463.855.727.25.264.45.551.602.865.152.314.227.664.227 1.051 0 .438-.071.85-.212 1.234-.142.386-.355.721-.638 1.006a3.03 3.03 0 0 1-1.056.678c-.421.166-.909.25-1.467.25-.454 0-.858-.058-1.212-.175a2.892 2.892 0 0 1-.939-.507 3.165 3.165 0 0 1-.698-.81 4.624 4.624 0 0 1-.474-1.094l.843-.407c.099.36.232.682.4.964.168.283.363.523.585.72a2.37 2.37 0 0 0 1.609.611l-.002.001ZM127.731 28.016a4.621 4.621 0 0 1-2.037-.457 5.142 5.142 0 0 1-1.644-1.251 5.966 5.966 0 0 1-1.099-1.854 6.356 6.356 0 0 1-.4-2.265c0-.526.06-1.033.18-1.52a6.08 6.08 0 0 1 .513-1.365 5.62 5.62 0 0 1 .805-1.151 5.19 5.19 0 0 1 1.045-.89 4.948 4.948 0 0 1 1.243-.574c.446-.135.91-.203 1.393-.203s.951.068 1.396.203a5.037 5.037 0 0 1 2.289 1.464 5.838 5.838 0 0 1 1.321 2.515c.121.488.18.995.18 1.52 0 .527-.06 1.053-.18 1.547a6.249 6.249 0 0 1-.517 1.388 5.915 5.915 0 0 1-.804 1.18c-.312.355-.661.66-1.045.915a4.9 4.9 0 0 1-1.244.59 4.648 4.648 0 0 1-1.396.208h.001Zm0-.549c.539 0 1.014-.132 1.428-.394.413-.264.762-.631 1.045-1.102.283-.47.498-1.027.641-1.67a9.667 9.667 0 0 0 .216-2.112c0-.765-.072-1.455-.216-2.087-.143-.632-.358-1.176-.641-1.633a3.181 3.181 0 0 0-1.045-1.064c-.413-.252-.889-.378-1.428-.378-.538 0-1.029.126-1.442.378a3.143 3.143 0 0 0-1.041 1.064c-.281.457-.493 1.001-.635 1.633a9.589 9.589 0 0 0-.212 2.087c0 .759.071 1.468.212 2.111.142.644.354 1.2.635 1.671.28.472.628.839 1.041 1.102.413.263.895.394 1.442.394ZM135.261 16.736h3.26c.563 0 1.057.07 1.481.212.426.141.779.34 1.063.595.283.254.498.558.641.91.144.352.216.736.216 1.152a2.748 2.748 0 0 1-.634 1.774c-.201.24-.443.449-.727.624a3.813 3.813 0 0 1-.935.411l3.422 5.345h-1.836l-3.267-5.179h-1.105v5.18h-1.58V16.735h.001Zm1.58 5.287h.914c.354 0 .681-.056.981-.166.3-.111.56-.267.779-.47a2.1 2.1 0 0 0 .513-.735c.123-.288.185-.612.185-.973a2.78 2.78 0 0 0-.145-.914 2.082 2.082 0 0 0-.41-.71 1.91 1.91 0 0 0-.631-.462 1.91 1.91 0 0 0-.798-.166h-1.389v4.597h.001ZM151.636 16.736v.715h-3.402v10.308h-1.58V17.451h-3.402v-.715h8.384Z"/></g><defs><clipPath id="a"><path fill="#fff" d="M0 0h171v41H0z"/></clipPath></defs></svg>