<svg xmlns="http://www.w3.org/2000/svg" width="24" height="24" fill="none"><path fill="#416B3E" d="M18.328 21.61a.469.469 0 0 1-.469-.47v-8.906a.469.469 0 1 1 .938 0v8.907c0 .259-.21.468-.469.468Z"/><path fill="#416B3E" d="M23.484 21.61H.516a.469.469 0 0 1 0-.938h22.968a.469.469 0 0 1 0 .937ZM12.402 19.734H3.094c-.776 0-1.406-.63-1.406-1.406 0-.775.63-1.406 1.406-1.406h8.319l2.465-2.824a1.416 1.416 0 0 1 2.112 1.891l-1.36 1.56-1.884 2.035a.469.469 0 0 1-.344.15ZM3.094 17.86a.47.47 0 0 0 0 .938h9.103l1.732-1.87 1.354-1.554a.48.48 0 0 0-.711-.644l-2.593 2.97a.469.469 0 0 1-.353.16H3.094Z"/><path fill="#416B3E" d="M2.884 21.56a.469.469 0 0 1-.21-.629l.938-1.875a.469.469 0 1 1 .839.42l-.938 1.874a.469.469 0 0 1-.629.21ZM12.518 21.35l-.937-1.875a.469.469 0 0 1 .838-.419l.938 1.875a.469.469 0 1 1-.839.42ZM4.266 8.484A1.877 1.877 0 0 1 2.39 6.61c0-1.034.84-1.875 1.875-1.875 1.034 0 1.875.841 1.875 1.875a1.877 1.877 0 0 1-1.875 1.875Zm0-2.812a.939.939 0 0 0 0 1.875.939.939 0 0 0 0-1.875ZM4.266 3.797a.469.469 0 0 1-.47-.469V2.86a.469.469 0 0 1 .938 0v.47c0 .258-.21.468-.468.468ZM6.254 4.62a.469.469 0 0 1 0-.662l.332-.332a.469.469 0 0 1 .663.663l-.332.332a.469.469 0 0 1-.663 0ZM8.016 7.078h-.47a.469.469 0 0 1 0-.937h.47a.469.469 0 1 1 0 .937ZM6.586 9.592l-.332-.331a.469.469 0 0 1 .663-.663l.332.332a.469.469 0 0 1-.663.662ZM4.266 10.828a.469.469 0 0 1-.47-.469v-.468a.469.469 0 0 1 .938 0v.468c0 .26-.21.47-.468.47ZM1.283 9.592a.469.469 0 0 1 0-.662l.331-.332a.469.469 0 0 1 .663.663l-.331.331a.469.469 0 0 1-.663 0ZM.984 7.078H.516a.469.469 0 0 1 0-.937h.468a.469.469 0 0 1 0 .937ZM1.614 4.62l-.331-.33a.469.469 0 0 1 .663-.664l.331.332a.469.469 0 0 1-.663.663ZM18.797 6.146v-.474a.469.469 0 0 0-.938 0v.474a5.397 5.397 0 0 0-5.156 5.385v.703c0 .26.21.47.469.47h10.312c.26 0 .47-.21.47-.47v-.703a5.397 5.397 0 0 0-5.157-5.385Zm.803 5.62H17.08c-.022-.966.056-3.326 1.26-4.528 1.2 1.2 1.28 3.562 1.259 4.528Zm-5.96-.235a4.46 4.46 0 0 1 3.555-4.362c-.996 1.495-1.075 3.627-1.053 4.597h-2.501v-.235Zm9.376.235h-2.477c.022-.97-.057-3.096-1.048-4.59a4.46 4.46 0 0 1 3.525 4.355v.235Z"/></svg>