<svg width="64" height="64" viewBox="0 0 64 64" fill="none" xmlns="http://www.w3.org/2000/svg">
<path d="M62.933 50.133C63.5222 50.133 63.9996 49.6554 63.9996 49.0664C63.9996 48.4773 63.522 47.9998 62.933 47.9998H61.8664C61.8664 47.4107 61.389 46.9332 60.7998 46.9332C60.2107 46.9332 59.7332 47.4107 59.7332 47.9998H42.6668C42.6668 47.4107 42.1892 46.9332 41.6002 46.9332C41.0111 46.9332 40.5336 47.4107 40.5336 47.9998H39.467C38.8778 47.9998 38.4004 48.4774 38.4004 49.0664C38.4004 49.6555 38.8778 50.133 39.467 50.133H40.5336V53.3329H39.467C38.8778 53.3329 38.4004 53.8104 38.4004 54.3996C38.4004 54.9887 38.8778 55.4662 39.467 55.4662H40.5336V56.5328H39.467C38.8778 56.5328 38.4004 57.0104 38.4004 57.5994C38.4004 58.1884 38.8778 58.666 39.467 58.666H40.5336V61.8659H22.4004V53.0411C23.9782 53.9302 25.7584 54.3981 27.5695 54.3994C33.6269 54.3122 38.4712 49.3395 38.4001 43.2819C38.433 39.0703 36.0811 35.2023 32.3267 33.2935C33.5627 31.6108 34.2249 29.5752 34.2158 27.4874C34.2529 22.8796 31.0206 18.8912 26.5049 17.9729C27.6475 15.4532 27.4512 12.5285 25.9818 10.1843C24.5126 7.83999 21.9661 6.38814 19.2003 6.31802C19.1687 6.31802 19.1382 6.32252 19.1067 6.32289C18.5388 2.65208 15.358 -0.0423697 11.6438 0.000879509C7.92964 0.0441287 4.81257 2.81208 4.33033 6.49514C1.62937 7.01288 -0.23522 9.49959 0.0246505 12.2375C0.284521 14.9755 2.58373 17.0668 5.33406 17.067H11.5516C11.6478 17.3737 11.7619 17.6746 11.8933 17.9679C7.3779 18.8893 4.1472 22.8792 4.18508 27.4875C4.17595 29.5754 4.83819 31.611 6.07404 33.2937C2.31973 35.2025 -0.0320985 39.0704 0.000775937 43.282C-0.0704728 49.3395 4.77394 54.3123 10.8313 54.3996C12.6424 54.3982 14.4226 53.9304 16.0005 53.0412V61.866H1.06751C0.478393 61.866 0.000900926 62.3435 0.000900926 62.9327C0.000900926 63.5218 0.478393 63.9993 1.06751 63.9993H62.933C63.5222 63.9993 63.9996 63.5218 63.9996 62.9327C63.9996 62.3435 63.522 61.866 62.933 61.866H61.8664V58.6661H62.933C63.5222 58.6661 63.9996 58.1886 63.9996 57.5995C63.9996 57.0104 63.522 56.5329 62.933 56.5329H61.8664V55.4663H62.933C63.5222 55.4663 63.9996 54.9888 63.9996 54.3997C63.9996 53.8106 63.522 53.3331 62.933 53.3331H61.8664V50.1331L62.933 50.133ZM11.1595 14.5649C11.1595 14.6887 11.1735 14.8105 11.179 14.9336H5.33406C3.56684 14.9336 2.13411 13.501 2.13411 11.7337C2.13411 9.96633 3.56684 8.53373 5.33406 8.53373C5.61693 8.53386 5.8883 8.42148 6.08842 8.22136C6.28842 8.02136 6.40079 7.74999 6.40079 7.467C6.39529 4.6833 8.53563 2.36559 11.311 2.14984C14.0863 1.93397 16.5591 3.89306 16.9841 6.64414C13.5052 7.70674 11.1368 10.9274 11.1595 14.5649ZM20.2672 61.8662H18.1338V51.4732C18.5161 51.1172 18.8726 50.7345 19.2004 50.3279C19.5283 50.7345 19.8848 51.1172 20.267 51.4731L20.2672 61.8662ZM20.3967 48.3119L27.4212 41.2873C27.8313 40.8697 27.8282 40.1997 27.4144 39.7858C27.0007 39.3719 26.3306 39.3689 25.9129 39.7791L20.2672 45.4247V34.5749L25.2878 29.5542C25.6998 29.137 25.6978 28.4654 25.2831 28.0506C24.8685 27.636 24.1969 27.6339 23.7795 28.0459L20.267 31.5583V26.6668C20.267 26.0777 19.7894 25.6002 19.2004 25.6002C18.6113 25.6002 18.1338 26.0778 18.1338 26.6668V31.5583L14.6214 28.0459C14.2042 27.6339 13.5325 27.636 13.1178 28.0506C12.7031 28.4653 12.7011 29.1369 13.113 29.5542L18.1337 34.575V45.4248L12.4879 39.7791C12.0707 39.3671 11.3991 39.3692 10.9843 39.7838C10.5697 40.1984 10.5676 40.8702 10.9796 41.2874L18.0041 48.3119C16.4425 50.7655 13.7394 52.2556 10.8311 52.2663C5.95142 52.1805 2.06136 48.162 2.13386 43.2821C2.08861 39.4231 4.52782 35.9716 8.18063 34.726C8.53375 34.6096 8.80075 34.3178 8.88525 33.9557C8.96974 33.5935 8.85937 33.2137 8.59425 32.9531C7.12803 31.5137 6.30704 29.5421 6.31829 27.4875C6.24854 23.4175 9.46736 20.0493 13.5364 19.9345C13.9768 19.9734 14.3976 19.7454 14.6056 19.3553C14.7875 18.9968 14.7519 18.5664 14.5135 18.2428C13.7229 17.1793 13.2949 15.89 13.2927 14.5647C13.2407 11.2471 15.8829 8.51286 19.2003 8.45136C22.5179 8.51286 25.1601 11.2471 25.108 14.5647C25.1057 15.89 24.6777 17.1793 23.8871 18.2428C23.6536 18.5692 23.6244 18.9993 23.8116 19.3543C24.0001 19.7144 24.3734 19.9397 24.7798 19.9387C28.8784 20.0124 32.1445 23.3887 32.0823 27.4875C32.0936 29.5421 31.2725 31.5137 29.8064 32.9531C29.5411 33.2137 29.4309 33.5935 29.5154 33.9557C29.5999 34.3178 29.8669 34.6096 30.22 34.726C34.3167 36.1585 36.814 40.3037 36.1655 44.5948C35.517 48.886 31.9066 52.1083 27.5695 52.2663C24.6612 52.2556 21.9583 50.7655 20.3967 48.3119ZM59.7331 61.8662H42.6668V58.6662H59.7331V61.8662ZM59.7331 56.5329H42.6668V55.4663H59.7331V56.5329ZM59.7331 53.3329H42.6668V50.133H59.7331V53.3329Z" fill="#416B3E"/>
<path d="M45.8668 26.6668H58.6665C61.4167 26.6667 63.7159 24.5753 63.9759 21.8374C64.2358 19.0994 62.3712 16.6127 59.6701 16.0951C59.182 12.3789 56.0147 9.60046 52.2666 9.60046C48.5186 9.60046 45.3513 12.3789 44.8631 16.0951C42.1621 16.6127 40.2975 19.0994 40.5573 21.8374C40.8172 24.5753 43.1164 26.6667 45.8668 26.6668ZM45.8668 18.1336C46.1496 18.1337 46.421 18.0213 46.6211 17.8212C46.8211 17.6212 46.9335 17.3498 46.9335 17.0668C46.9335 14.1214 49.3213 11.7336 52.2668 11.7336C55.2122 11.7336 57.6001 14.1213 57.6001 17.0668C57.5999 17.3497 57.7123 17.6211 57.9124 17.8212C58.1124 18.0212 58.3838 18.1336 58.6668 18.1336C60.434 18.1336 61.8667 19.5663 61.8667 21.3335C61.8667 23.1007 60.4341 24.5335 58.6668 24.5335H45.867C44.0998 24.5335 42.6671 23.1009 42.6671 21.3335C42.6671 19.5662 44.0994 18.1336 45.8668 18.1336Z" fill="#416B3E"/>
</svg>
