<svg width="64" height="64" viewBox="0 0 64 64" fill="none" xmlns="http://www.w3.org/2000/svg">
<g clip-path="url(#clip0_298_2301)">
<path d="M2.13333 64H4.26667C5.11536 64 5.92929 63.6629 6.52941 63.0628C7.12953 62.4626 7.46667 61.6487 7.46667 60.8H17.0667C18.1983 60.8 19.2835 60.3505 20.0837 59.5503C20.8838 58.7502 21.3333 57.6649 21.3333 56.5333V46.1195C21.6321 45.9425 21.9095 45.7317 22.16 45.4912L25.1829 42.4779L26.688 43.9819C27.2881 44.5818 28.1019 44.9188 28.9504 44.9188C29.7989 44.9188 30.6127 44.5818 31.2128 43.9819L31.9669 43.2277L39.0613 50.3243C39.6614 50.9242 40.4752 51.2612 41.3237 51.2612C42.1723 51.2612 42.986 50.9242 43.5861 50.3243L46.8523 53.5904C47.2089 53.9505 47.6825 54.1712 48.1875 54.2127C48.6926 54.2542 49.1959 54.1137 49.6064 53.8165L58.4096 47.5328C58.6606 47.3518 58.8693 47.1184 59.0211 46.8487C59.1728 46.579 59.2641 46.2795 59.2886 45.971C59.313 45.6625 59.2701 45.3523 59.1627 45.0621C59.0553 44.7718 58.886 44.5084 58.6667 44.2901L57.3504 42.9739L59.7248 41.6171C60.0097 41.4543 60.2532 41.2281 60.4364 40.9559C60.6196 40.6838 60.7375 40.373 60.7811 40.0479C60.8246 39.7227 60.7926 39.3919 60.6875 39.0811C60.5823 38.7703 60.4069 38.488 60.1749 38.256L45.8667 23.9445C46.4324 23.6185 46.9154 23.1666 47.2785 22.624C47.6415 22.0813 47.8748 21.4623 47.9602 20.815C48.0457 20.1677 47.981 19.5094 47.7713 18.8911C47.5615 18.2728 47.2123 17.7111 46.7506 17.2494C46.2889 16.7877 45.7272 16.4385 45.1089 16.2287C44.4906 16.019 43.8323 15.9543 43.185 16.0398C42.5377 16.1252 41.9187 16.3585 41.376 16.7216C40.8334 17.0846 40.3815 17.5677 40.0555 18.1333L28.1941 6.27095C27.897 5.97374 27.5442 5.73798 27.1559 5.57713C26.7676 5.41628 26.3515 5.3335 25.9312 5.3335C25.5109 5.3335 25.0948 5.41628 24.7065 5.57713C24.3182 5.73798 23.9654 5.97374 23.6683 6.27095L21.5904 8.34881L20.5867 7.34188C20.2894 7.04235 19.9355 6.80485 19.5457 6.64317C19.1558 6.48148 18.7378 6.39883 18.3157 6.40001H18.3061C17.8874 6.40019 17.473 6.48375 17.0869 6.64583C16.7009 6.80791 16.3509 7.04525 16.0576 7.34401L15.3749 8.02348L14.8768 7.52641C13.7179 6.37102 12.2126 5.62694 10.5909 5.40792C8.96917 5.18891 7.32036 5.50702 5.89653 6.31361C4.74941 6.96563 3.79744 7.91245 3.1392 9.05601C2.48153 10.1943 2.13464 11.4854 2.13333 12.8V46.9333C1.56754 46.9333 1.02492 47.1581 0.624839 47.5582C0.224761 47.9583 0 48.5009 0 49.0667L0 61.8667C0 62.4325 0.224761 62.9751 0.624839 63.3752C1.02492 63.7753 1.56754 64 2.13333 64ZM19.2 56.5333C19.2 57.0991 18.9752 57.6418 18.5752 58.0418C18.1751 58.4419 17.6325 58.6667 17.0667 58.6667H7.46667V54.4H12.8C13.3658 54.4 13.9084 54.1753 14.3085 53.7752C14.7086 53.3751 14.9333 52.8325 14.9333 52.2667V43.7333C14.932 43.444 14.99 43.1575 15.1037 42.8915C15.2175 42.6255 15.3846 42.3856 15.5947 42.1867C15.8042 41.9869 16.0523 41.8318 16.3237 41.731C16.5951 41.6301 16.8842 41.5856 17.1733 41.6C17.7405 41.6575 18.2648 41.9276 18.6409 42.3561C19.0169 42.7845 19.2167 43.3395 19.2 43.9093V56.5333ZM21.28 43.3557C21.1992 42.6018 20.925 41.8816 20.484 41.2649C20.0429 40.6481 19.45 40.1559 18.7627 39.8357L20.6485 37.9435L23.6715 40.9664L21.28 43.3557ZM29.7067 42.4736C29.5066 42.6736 29.2354 42.7859 28.9525 42.7859C28.6697 42.7859 28.3984 42.6736 28.1984 42.4736L19.1488 33.424C19.0496 33.3249 18.9709 33.2073 18.9173 33.0778C18.8636 32.9483 18.836 32.8095 18.836 32.6693C18.836 32.5292 18.8636 32.3904 18.9173 32.2609C18.9709 32.1314 19.0496 32.0137 19.1488 31.9147L19.9029 31.1605L26.336 37.5936L30.4619 41.7195L29.7067 42.4736ZM40.5717 48.816L32.7232 40.9664L27.3259 35.5691L13.1104 21.3557C13.0112 21.2567 12.9325 21.139 12.8789 21.0095C12.8252 20.8801 12.7976 20.7413 12.7976 20.6011C12.7976 20.4609 12.8252 20.3221 12.8789 20.1926C12.9325 20.0631 13.0112 19.9455 13.1104 19.8464L17.6352 15.3216L46.6016 44.2901L42.0757 48.816C41.8757 49.016 41.6044 49.1283 41.3216 49.1283C41.0388 49.1283 40.7675 49.016 40.5675 48.816H40.5717ZM48.3584 52.0821L45.0923 48.816L48.1067 45.7995L48.5163 46.2091C48.586 46.2664 48.6594 46.3192 48.736 46.367C48.7706 46.4336 48.8124 46.4962 48.8608 46.5536L51.8763 49.5701L48.3584 52.0821ZM57.1648 45.7995L53.6448 48.3136L51.5968 46.2645L55.4368 44.0704L57.1648 45.7995ZM43.7333 18.1333C44.2511 18.1371 44.7497 18.3291 45.1364 18.6734C45.523 19.0177 45.7713 19.4909 45.8349 20.0047C45.8984 20.5185 45.773 21.0379 45.4819 21.466C45.1908 21.8942 44.754 22.2019 44.2528 22.3317L41.6683 19.7472C41.7811 19.2853 42.0463 18.8749 42.4209 18.5821C42.7955 18.2893 43.2579 18.1313 43.7333 18.1333ZM25.1733 7.77921C25.3734 7.57924 25.6446 7.46691 25.9275 7.46691C26.2103 7.46691 26.4816 7.57924 26.6816 7.77921L58.6667 39.7643L50.0267 44.7019L48.864 43.536L19.1435 13.8133L25.1733 7.77921ZM18.3157 8.53335C18.4572 8.53365 18.5972 8.5621 18.7276 8.61704C18.858 8.67197 18.9762 8.7523 19.0752 8.85335L20.0821 9.86028L15.5552 14.3872L14.5472 13.3717C14.448 13.2727 14.3693 13.155 14.3157 13.0255C14.262 12.8961 14.2344 12.7573 14.2344 12.6171C14.2344 12.4769 14.262 12.3381 14.3157 12.2086C14.3693 12.0791 14.448 11.9615 14.5472 11.8624L17.5723 8.84908C17.6646 8.74413 17.7794 8.66127 17.9081 8.60662C18.0368 8.55197 18.1761 8.52693 18.3157 8.53335ZM4.98773 10.1227C5.45528 9.30803 6.13265 8.6336 6.94933 8.16961C7.96646 7.59199 9.14483 7.36353 10.3041 7.51918C11.4634 7.67483 12.5398 8.20602 13.3685 9.03148L13.8667 9.52641L13.0357 10.3552C12.4413 10.9571 12.108 11.769 12.108 12.6149C12.108 13.4609 12.4413 14.2728 13.0357 14.8747L14.0469 15.8923L11.6011 18.3381C11.0024 18.9391 10.6663 19.7528 10.6663 20.6011C10.6663 21.4493 11.0024 22.2631 11.6011 22.864L18.3893 29.6533L17.6341 30.4085C17.0355 31.0095 16.6993 31.8232 16.6993 32.6715C16.6993 33.5197 17.0355 34.3335 17.6341 34.9344L19.1403 36.4405L16.1323 39.456C16.0693 39.5179 16.0192 39.5755 15.9659 39.6352C15.0551 39.8645 14.2479 40.3932 13.6738 41.1364C13.0996 41.8796 12.7919 42.7942 12.8 43.7333V52.2667H7.46667V50.1333C7.46667 49.2847 7.12953 48.4707 6.52941 47.8706C5.92929 47.2705 5.11536 46.9333 4.26667 46.9333V12.8C4.26768 11.8597 4.51638 10.9363 4.98773 10.1227ZM2.13333 49.0667H4.26667C4.54956 49.0667 4.82088 49.1791 5.02091 49.3791C5.22095 49.5791 5.33333 49.8504 5.33333 50.1333V60.8C5.33333 61.0829 5.22095 61.3542 5.02091 61.5543C4.82088 61.7543 4.54956 61.8667 4.26667 61.8667H2.13333V49.0667Z" fill="#416B3E"/>
<path d="M43.7334 0C43.4505 0 43.1792 0.112381 42.9792 0.312419C42.7791 0.512458 42.6667 0.783769 42.6667 1.06667C42.6667 1.34956 42.7791 1.62088 42.9792 1.82091C43.1792 2.02095 43.4505 2.13333 43.7334 2.13333C48.541 2.1387 53.1502 4.05089 56.5497 7.45039C59.9492 10.8499 61.8614 15.4591 61.8667 20.2667C61.8667 20.5496 61.9791 20.8209 62.1792 21.0209C62.3792 21.221 62.6505 21.3333 62.9334 21.3333C63.2163 21.3333 63.4876 21.221 63.6877 21.0209C63.8877 20.8209 64.0001 20.5496 64.0001 20.2667C63.9942 14.8934 61.857 9.74197 58.0576 5.94252C54.2581 2.14306 49.1066 0.00592901 43.7334 0Z" fill="#416B3E"/>
<path d="M57.6001 21.3333C57.883 21.3333 58.1543 21.221 58.3543 21.0209C58.5544 20.8209 58.6667 20.5496 58.6667 20.2667C58.6625 16.3074 57.0878 12.5115 54.2882 9.71189C51.4886 6.91227 47.6927 5.33758 43.7334 5.33334C43.4505 5.33334 43.1792 5.44572 42.9792 5.64576C42.7791 5.8458 42.6667 6.11711 42.6667 6.40001C42.6667 6.68291 42.7791 6.95422 42.9792 7.15426C43.1792 7.3543 43.4505 7.46668 43.7334 7.46668C47.1271 7.47035 50.3807 8.82009 52.7803 11.2198C55.18 13.6194 56.5297 16.873 56.5334 20.2667C56.5334 20.5496 56.6458 20.8209 56.8458 21.0209C57.0459 21.221 57.3172 21.3333 57.6001 21.3333Z" fill="#416B3E"/>
<path d="M43.7334 10.6667C43.4505 10.6667 43.1792 10.779 42.9792 10.9791C42.7791 11.1791 42.6667 11.4504 42.6667 11.7333C42.6667 12.0162 42.7791 12.2875 42.9792 12.4876C43.1792 12.6876 43.4505 12.8 43.7334 12.8C45.7129 12.8025 47.6106 13.59 49.0103 14.9897C50.4101 16.3895 51.1975 18.2872 51.2001 20.2667C51.2001 20.5496 51.3125 20.8209 51.5125 21.0209C51.7125 21.2209 51.9839 21.3333 52.2667 21.3333C52.5496 21.3333 52.821 21.2209 53.021 21.0209C53.221 20.8209 53.3334 20.5496 53.3334 20.2667C53.3306 17.7214 52.3183 15.2813 50.5185 13.4816C48.7188 11.6818 46.2786 10.6695 43.7334 10.6667Z" fill="#416B3E"/>
</g>
<defs>
<clipPath id="clip0_298_2301">
<rect width="64" height="64" fill="white"/>
</clipPath>
</defs>
</svg>
