<svg width="560" height="300" viewBox="0 0 560 300" fill="none" xmlns="http://www.w3.org/2000/svg">
<rect width="560" height="300" fill="white"/>
<rect width="560" height="300" rx="20" fill="#F9F9FB"/>
<mask id="mask0_908_3585" style="mask-type:alpha" maskUnits="userSpaceOnUse" x="0" y="0" width="560" height="300">
<rect width="560" height="300" rx="20" fill="#F9F9FB"/>
</mask>
<g mask="url(#mask0_908_3585)">
<path fill-rule="evenodd" clip-rule="evenodd" d="M-195 343.099V-36.2009C-195 -56.1043 35.6977 -44.0594 54.7329 -50L527 -40.4467V46.9305C526.949 62.112 520.078 75.1102 507.608 83.7418C495.088 92.3734 480.481 94.1505 466.23 88.8192C457.17 85.4174 448.976 83.0817 442.97 82.2186C460.173 72.673 462.005 41.3961 446.329 15.6029C434.725 32.6122 404.289 40.1776 402.915 61.2488C389.02 59.1671 375.176 63.5845 361.485 69.7281C289.416 100.497 279.44 125.58 266.767 158.481C260.151 175.592 259.642 187.575 243.915 196.359C239.843 236.775 273.18 277.598 313.185 285.264C324.993 256.069 368.051 235.201 402.711 258.405C422.51 271.657 430.501 304.812 413.399 332.992C402.202 351.423 378.637 367.671 345.962 380.568L192.001 445L14.1115 361.752L-195 343.099Z" fill="#F2F1F5"/>
</g>
</svg>
