<svg width="80" height="47" viewBox="0 0 80 47" fill="none" xmlns="http://www.w3.org/2000/svg">
<rect width="80" height="47" rx="4" fill="#DBDBDB"/>
<path d="M58.3481 16.4304H54.3998V9.32672C54.3998 8.98514 54.1229 8.70819 53.7812 8.70819H51.9128C51.5712 8.70819 51.2943 8.98505 51.2943 9.32672V16.4305H49.2857V12.9645C49.2857 12.6358 49.0193 12.3694 48.6907 12.3694H46.7754C46.4467 12.3694 46.1803 12.6359 46.1803 12.9645V16.4305H43.4048L42.0352 4.09859C41.9208 3.06854 41.0529 2.29175 40.0165 2.29175H26.7993C25.6792 2.29175 24.7681 3.20293 24.7681 4.32285V21.5734C25.2147 20.7685 26.0709 20.2326 27.0385 20.2326C28.0434 20.2326 28.7982 20.2326 29.7448 20.2326C30.5965 20.2326 31.3523 20.6459 31.8258 21.2814C32.0267 21.5509 32.1777 21.8597 32.262 22.195C32.6904 22.3438 33.1097 22.5172 33.5185 22.715C33.9171 22.4755 34.3744 22.3477 34.8514 22.3477C35.5447 22.3477 36.1965 22.6176 36.6866 23.1079L38.6004 25.0218C39.3385 25.7601 39.5793 26.912 39.1328 27.9146H47.9803L48.3413 27.5534C49.0997 26.7946 50.2174 26.6636 51.0938 27.0943C51.3131 26.9937 51.5361 26.9016 51.7623 26.8179C52.0858 25.8754 52.9808 25.1962 54.0317 25.1962H56.1483C57.1991 25.1962 58.0943 25.8754 58.4178 26.8179C58.6441 26.9015 58.867 26.9937 59.0863 27.0943C59.4174 26.9316 59.7843 26.8446 60.1905 26.8529V18.273C60.1907 17.2553 59.3657 16.4304 58.3481 16.4304ZM41.1547 16.6142C40.4944 15.9588 40.0983 15.5654 39.4376 14.9099C40.4771 13.8998 40.2416 14.1287 40.8166 13.5699L41.1547 16.6142ZM27.0244 18.928V15.982L27.7321 18.8777C27.4946 18.8886 27.2588 18.9057 27.0244 18.928ZM29.1389 11.979L29.374 16.0918L28.6469 13.117C28.4989 12.5117 27.8879 12.1414 27.2831 12.289C27.1909 12.3115 27.1049 12.3459 27.0245 12.3883V4.54794H39.815L40.7176 12.6765C40.5038 12.5491 40.2239 12.5729 40.0369 12.7546C39.7463 13.0369 39.5494 13.2283 39.264 13.5057C39.0503 13.2154 38.6818 13.0577 38.3054 13.1336L35.0594 13.784L32.8676 11.5873L34.5809 12.586L34.5286 11.6709C34.4836 10.8841 33.8094 10.2827 33.0225 10.3277L30.482 10.4729C29.6953 10.5179 29.0939 11.1922 29.1389 11.979ZM35.3129 20.6258C35.3795 20.4819 35.4176 20.3223 35.4176 20.1534C35.4176 19.9343 35.3541 19.7306 35.2462 19.5574L35.9354 19.6372L38.0689 22.5836C37.2328 21.829 36.3089 21.1703 35.3129 20.6258ZM40.7421 24.0766C41.1609 23.6873 41.234 23.0382 40.8901 22.5632L37.4994 17.8809C37.3106 17.6202 37.0212 17.4508 36.7013 17.4137L34.8445 17.1988L34.8194 16.7603C34.1534 16.8937 33.6526 16.6274 33.3893 16.1752L31.5124 12.9392L34.0668 15.4992C34.294 15.7268 34.6197 15.8245 34.9322 15.7615L37.4646 15.2541L36.7089 15.9885C36.4856 16.2056 36.4858 16.5681 36.6976 16.786C36.9147 17.0094 37.2718 17.0146 37.4952 16.7975L38.6269 15.7175L41.3532 18.4004L41.9834 24.0765L40.7421 24.0766ZM46.7441 22.5224C46.7441 22.8339 46.4915 23.0864 46.1801 23.0864C45.8686 23.0864 45.616 22.8339 45.616 22.5224V19.2092C45.616 18.8978 45.8686 18.6452 46.1801 18.6452C46.4915 18.6452 46.7441 18.8978 46.7441 19.2092V22.5224ZM49.0002 22.5225C49.0002 22.8339 48.7477 23.0865 48.4362 23.0865C48.1248 23.0865 47.8722 22.8339 47.8722 22.5225V19.2093C47.8722 18.8979 48.1248 18.6453 48.4362 18.6453C48.7477 18.6453 49.0002 18.8979 49.0002 19.2093V22.5225ZM51.2564 22.5224C51.2564 22.8339 51.0039 23.0864 50.6924 23.0864C50.381 23.0864 50.1284 22.8339 50.1284 22.5224V19.2092C50.1284 18.8978 50.381 18.6452 50.6924 18.6452C51.0039 18.6452 51.2564 18.8978 51.2564 19.2092V22.5224Z" fill="#97989A"/>
<path d="M46.1779 30.3438H40.9058C41.2618 30.788 41.4757 31.351 41.4757 31.9634C41.4757 35.0845 41.4777 34.6228 41.471 34.781H44.4881C44.4881 33.6531 45.1879 32.7928 46.0975 32.4749C46.1836 32.2434 46.2784 32.0155 46.3821 31.7912C46.1633 31.3385 46.0957 30.8307 46.1779 30.3438Z" fill="#97989A"/>
<path d="M31.8282 9.34164C32.9948 9.34164 33.9405 8.39591 33.9405 7.22929C33.9405 6.06267 32.9948 5.11694 31.8282 5.11694C30.6616 5.11694 29.7158 6.06267 29.7158 7.22929C29.7158 8.39591 30.6616 9.34164 31.8282 9.34164Z" fill="#97989A"/>
<path d="M38.8805 31.0603H38.2356C37.9105 29.4346 36.9931 28.0598 36.9418 27.9573C37.2497 27.6494 37.1652 27.734 37.4039 27.4953C37.757 27.1422 37.756 26.5704 37.4039 26.2182C35.6941 24.5085 36.0078 24.8224 35.4903 24.3046C35.1397 23.954 34.57 23.95 34.2132 24.3046L33.746 24.7718C33.7457 24.7716 33.7454 24.7714 33.745 24.7711C32.819 24.1912 31.7737 23.7469 30.6481 23.4901V22.8279C30.6481 22.3388 30.2503 21.9247 29.745 21.9247H27.0388C27.034 21.9247 27.0293 21.9253 27.0246 21.9254C26.5301 21.9331 26.1357 22.3353 26.1357 22.8278V23.49C25.0487 23.7618 24.0827 24.1172 23.0378 24.7716L22.5706 24.3044C22.2207 23.9544 21.6477 23.9505 21.2935 24.3044C21.0579 24.5401 21.352 24.246 19.3799 26.218C19.0265 26.5716 19.0283 27.1435 19.3799 27.4951L19.842 27.9571C19.2261 28.9335 18.7956 29.9867 18.5482 31.0602H17.9031C17.417 31.0602 17 31.454 17 31.9633V34.6695C17 35.1684 17.4044 35.5726 17.9031 35.5726H18.5385C18.5385 35.675 18.893 37.2043 19.825 38.6925C19.4567 39.0607 19.5645 38.953 19.3798 39.1376C19.0289 39.4886 19.0264 40.0613 19.3798 40.4147L21.2934 42.3284C21.651 42.6859 22.2238 42.6752 22.5705 42.3284C22.9093 41.9896 22.8335 42.0654 23.0105 41.8884C23.1129 41.9396 24.2974 42.7676 26.1357 43.187V43.8051C26.1357 44.3039 26.5399 44.7082 27.0388 44.7082H29.745C30.2437 44.7082 30.6481 44.3039 30.6481 43.8051V43.187C32.3782 42.7922 33.4506 42.0727 33.7732 41.8884C33.9019 42.0171 33.8133 41.9284 34.2132 42.3284C34.5635 42.6787 35.1372 42.6814 35.4903 42.3284L37.4039 40.4147C37.7565 40.0621 37.7565 39.4902 37.4039 39.1376C37.1486 38.8823 37.2448 38.9785 36.9587 38.6926C37.624 37.6302 37.9719 36.6659 38.2452 35.5726H38.8806C39.3792 35.5726 39.7837 35.1685 39.7837 34.6695V31.9633C39.7835 31.4647 39.3794 31.0603 38.8805 31.0603ZM28.3918 39.2365C25.1439 39.2365 22.4938 36.6023 22.4938 33.3386C22.4938 30.0811 25.1344 27.4406 28.3918 27.4406C31.6492 27.4406 34.2897 30.0812 34.2897 33.3386C34.2897 36.5872 31.6541 39.2365 28.3918 39.2365Z" fill="#97989A"/>
<path d="M28.3918 35.4827C29.5757 35.4827 30.5355 34.5229 30.5355 33.3389C30.5355 32.155 29.5757 31.1952 28.3918 31.1952C27.2078 31.1952 26.248 32.155 26.248 33.3389C26.248 34.5229 27.2078 35.4827 28.3918 35.4827Z" fill="#97989A"/>
<path d="M55.0903 37.4926C56.0163 37.4926 56.7669 36.742 56.7669 35.816C56.7669 34.89 56.0163 34.1393 55.0903 34.1393C54.1642 34.1393 53.4136 34.89 53.4136 35.816C53.4136 36.742 54.1642 37.4926 55.0903 37.4926Z" fill="#97989A"/>
<path d="M63.294 34.0337H62.787C62.5841 33.1535 62.2363 32.337 61.7764 31.6079C61.9951 31.3892 61.9141 31.4702 62.1389 31.2454C62.415 30.9692 62.4141 30.5218 62.1389 30.2464L60.6421 28.7496C60.3665 28.474 59.9192 28.4738 59.6434 28.7496L59.6433 28.7497L59.277 29.116C58.5514 28.6616 57.7307 28.3148 56.8553 28.115L56.8551 28.1149C56.8551 27.9915 56.8551 27.9448 56.8551 27.9289C56.8551 27.9229 56.8551 27.921 56.8551 27.9215C56.8551 27.9006 56.8551 27.8263 56.8551 27.5947C56.8551 27.2159 56.5473 26.8883 56.1487 26.8883H54.0321C53.642 26.8883 53.3257 27.2045 53.3257 27.5947V28.1149C52.4452 28.3159 51.6262 28.6636 50.9036 29.1159L50.5372 28.7496C50.2582 28.4705 49.8108 28.4773 49.5383 28.7496L48.0415 30.2463C47.767 30.5211 47.7646 30.9681 48.0415 31.2453C48.2665 31.4702 48.1853 31.389 48.4041 31.6078C47.9432 32.3386 47.5961 33.1549 47.3935 34.0336H46.8866C46.4949 34.0336 46.1802 34.3522 46.1802 34.74V36.8567C46.1802 37.2415 46.4933 37.563 46.8866 37.563H47.3856C47.6666 38.8075 48.2882 39.8999 48.3907 40.0023L48.0415 40.3514C47.7646 40.6283 47.7675 41.0763 48.0415 41.3503C49.1952 42.504 48.3943 41.7031 49.5383 42.8471C49.814 43.1227 50.2613 43.1228 50.5372 42.8471C50.6815 42.7029 50.6168 42.7675 50.8825 42.5018C51.1147 42.6412 51.9848 43.2104 53.3255 43.5164V44.0021C53.3255 44.3946 53.6448 44.7084 54.0319 44.7084H56.1485C56.5385 44.7084 56.8549 44.3923 56.8549 44.0021V43.5164C57.8225 43.2955 58.8107 42.8429 59.2979 42.5018C59.3149 42.5187 59.6263 42.8302 59.6432 42.8471C59.9188 43.1227 60.3663 43.1228 60.6421 42.8471C61.7857 41.7034 60.9875 42.5016 62.1389 41.3503C62.414 41.0752 62.4153 40.6279 62.1389 40.3514L61.7897 40.0023C61.8921 39.8999 62.5137 38.8074 62.7948 37.563H63.2938C63.6878 37.563 64.0002 37.2405 64.0002 36.8567C64.0002 36.4675 64.0002 34.9274 64.0002 34.74C64.0004 34.3498 63.6841 34.0337 63.294 34.0337ZM55.0904 40.4286C52.5369 40.4286 50.4773 38.3543 50.4773 35.8155C50.4773 33.2678 52.5426 31.2024 55.0904 31.2024C57.638 31.2024 59.7035 33.2678 59.7035 35.8155C59.7035 38.3808 57.62 40.4286 55.0904 40.4286Z" fill="#97989A"/>
</svg>
