<svg xmlns="http://www.w3.org/2000/svg" xmlns:xlink="http://www.w3.org/1999/xlink"><defs><symbol fill="#fff" viewBox="0 0 24 24" stroke="#fff" id="discount"><path d="M21.953 12c0 .591-.346 1.124-.839 1.61-.295.29-.639.568-.942.85-.242.225-.46.446-.562.692-.107.257-.114.576-.105.913.011.416.056.855.059 1.265.006.691-.123 1.304-.526 1.708-.404.403-1.017.532-1.708.526-.41-.004-.849-.048-1.264-.059-.337-.009-.657-.002-.914.105-.246.102-.467.32-.692.562-.282.303-.56.647-.85.941-.486.494-1.019.84-1.61.84-.591 0-1.124-.346-1.61-.84-.29-.294-.568-.638-.85-.941-.225-.242-.447-.46-.692-.562-.257-.107-.577-.114-.913-.105-.416.011-.855.055-1.265.059-.691.006-1.305-.123-1.708-.526-.404-.404-.532-1.017-.526-1.708.003-.41.048-.849.059-1.265.009-.337.002-.656-.105-.914-.102-.245-.32-.466-.562-.691-.302-.282-.646-.56-.941-.85-.493-.486-.84-1.019-.84-1.61 0-.591.347-1.124.84-1.61.295-.29.639-.568.941-.85.242-.225.46-.446.562-.691.107-.258.114-.577.105-.914-.011-.416-.056-.855-.059-1.265-.006-.691.122-1.304.526-1.708.403-.403 1.017-.532 1.708-.526.41.004.849.048 1.265.059.336.009.656.002.913-.105.245-.102.467-.32.692-.562.282-.303.56-.647.85-.941.486-.494 1.019-.84 1.61-.84.591 0 1.124.346 1.61.84.29.294.568.638.85.941.225.242.446.46.692.562.257.107.577.114.914.105.415-.011.854-.055 1.264-.059.691-.006 1.304.123 1.708.526.403.404.532 1.017.526 1.708-.003.41-.048.849-.059 1.265-.009.337-.002.656.105.913.102.246.32.467.562.692.303.282.647.56.942.85.493.486.839 1.019.839 1.61Zm-1 0c0-.188-.088-.355-.206-.518-.164-.226-.388-.437-.622-.646-.583-.521-1.205-1.04-1.439-1.604-.242-.585-.177-1.399-.136-2.178.017-.315.027-.622-.015-.895-.029-.191-.08-.365-.204-.489-.125-.125-.299-.176-.49-.205-.273-.042-.58-.032-.895-.015-.779.041-1.593.106-2.177-.136-.565-.234-1.084-.855-1.605-1.439-.209-.234-.42-.458-.646-.622-.163-.118-.33-.206-.518-.206-.187 0-.355.088-.518.206-.226.164-.437.388-.646.622-.521.584-1.04 1.205-1.605 1.439-.584.242-1.398.177-2.177.136-.315-.017-.622-.027-.895.015-.192.029-.365.08-.49.205-.125.124-.175.298-.204.489-.042.273-.032.58-.016.895.042.779.107 1.593-.135 2.177-.234.565-.855 1.084-1.439 1.605-.234.209-.458.42-.622.646-.118.163-.206.33-.206.518s.088.355.206.518c.164.226.388.437.622.646.584.521 1.205 1.04 1.439 1.605.242.584.177 1.398.135 2.177-.016.315-.026.622.016.895.029.191.079.365.204.489.125.125.298.176.49.205.273.042.58.032.895.015.779-.041 1.593-.106 2.177.136.565.234 1.084.855 1.605 1.439.209.234.42.458.646.622.163.118.331.206.518.206.188 0 .355-.088.518-.206.226-.164.437-.388.646-.622.521-.584 1.04-1.205 1.605-1.439.584-.242 1.398-.177 2.177-.136.315.017.622.027.895-.015.191-.029.365-.08.49-.205.124-.124.175-.298.204-.489.042-.273.032-.58.015-.895-.041-.779-.106-1.593.136-2.178.234-.564.856-1.083 1.439-1.604.234-.209.458-.42.622-.646.118-.163.206-.33.206-.518Zm-10.531-1.762a1.015 1.015 0 1 1-1.435-1.436 1.015 1.015 0 0 1 1.435 1.436ZM14.893 8.4a.5.5 0 0 1 .707.707L9.107 15.6a.5.5 0 0 1-.707-.707L14.893 8.4Zm-1.315 5.363a1.015 1.015 0 1 1 1.435 1.436 1.015 1.015 0 0 1-1.435-1.436Z" /></symbol><symbol viewBox="0 0 24 24" fill="none" id="email"><path d="m4 7 6.2 4.65a3 3 0 0 0 3.6 0L20 7" stroke="#000" stroke-width="2" stroke-linecap="round" stroke-linejoin="round" /><rect x="3" y="5" width="18" height="14" rx="2" stroke="#000" stroke-width="2" stroke-linecap="round" /></symbol><symbol fill="#fff" viewBox="0 0 64 64" id="guarantee"><path d="M62.597 28.949c-.437-.579-.889-1.178-.961-1.643-.078-.495.172-1.222.414-1.924.352-1.018.749-2.172.392-3.272-.363-1.121-1.375-1.828-2.268-2.452-.6-.419-1.219-.852-1.438-1.28-.224-.438-.211-1.202-.199-1.94.018-1.082.038-2.307-.647-3.249-.688-.946-1.864-1.305-2.901-1.621-.703-.214-1.431-.437-1.774-.78-.344-.344-.566-1.072-.78-1.775-.316-1.037-.675-2.213-1.622-2.901-.941-.685-2.167-.666-3.248-.647-.738.014-1.503.025-1.94-.199-.428-.218-.861-.838-1.28-1.438-.623-.893-1.33-1.904-2.451-2.268-1.101-.357-2.257.04-3.276.39-.702.242-1.431.491-1.924.415-.465-.073-1.064-.525-1.644-.961C34.178.746 33.188 0 32 0s-2.178.746-3.051 1.404c-.579.437-1.178.888-1.643.961-.493.079-1.221-.173-1.924-.415-1.019-.351-2.173-.748-3.272-.392-1.121.364-1.828 1.375-2.452 2.268-.419.599-.852 1.219-1.28 1.437-.438.224-1.203.21-1.94.199-1.082-.021-2.307-.039-3.249.647-.946.688-1.305 1.864-1.621 2.901-.214.704-.437 1.431-.78 1.775-.344.344-1.072.566-1.776.781-1.037.316-2.212.675-2.901 1.621-.685.941-.665 2.167-.647 3.249.012.739.024 1.502-.199 1.941-.218.427-.838.86-1.437 1.279-.893.624-1.904 1.331-2.269 2.452-.357 1.101.041 2.255.392 3.274.242.703.493 1.429.415 1.924-.073.465-.524 1.064-.961 1.643C.746 29.822 0 30.812 0 32s.746 2.178 1.404 3.051c.437.579.888 1.179.961 1.644l1.976-.311c-.15-.959-.755-1.761-1.34-2.537C2.509 33.194 2 32.519 2 32s.509-1.194 1.001-1.847c.585-.776 1.189-1.578 1.34-2.537.155-.986-.178-1.952-.5-2.886-.261-.757-.531-1.541-.38-2.004.157-.483.846-.964 1.512-1.43.8-.559 1.628-1.137 2.073-2.009.45-.882.434-1.899.417-2.883-.013-.806-.026-1.638.265-2.039.295-.405 1.094-.649 1.868-.885.938-.287 1.909-.583 2.606-1.28.697-.697.993-1.667 1.279-2.605.236-.773.479-1.573.885-1.868.401-.292 1.234-.279 2.039-.265.984.016 2 .033 2.883-.417.872-.445 1.45-1.272 2.01-2.073.465-.666.947-1.354 1.43-1.511.462-.152 1.246.12 2.003.38.935.322 1.9.654 2.886.5.958-.15 1.761-.755 2.537-1.34C30.806 2.509 31.481 2 32 2c.519 0 1.194.509 1.847 1.001.776.585 1.578 1.189 2.537 1.34.984.152 1.952-.178 2.886-.5.758-.261 1.54-.532 2.005-.38.482.157.964.845 1.43 1.511.559.8 1.138 1.628 2.009 2.073.882.45 1.903.436 2.883.417.806-.012 1.639-.027 2.04.265.405.295.648 1.094.885 1.868.286.938.582 1.909 1.279 2.606.696.697 1.667.993 2.605 1.279.772.236 1.572.48 1.867.885.292.401.278 1.233.265 2.039-.016.984-.032 2.001.418 2.883.445.872 1.272 1.45 2.072 2.009.666.466 1.354.947 1.512 1.431.15.463-.119 1.246-.38 2.003-.322.934-.654 1.9-.5 2.886.151.958.756 1.761 1.34 2.536.491.654 1 1.329 1 1.848 0 .519-.509 1.194-1.001 1.848-.584.775-1.188 1.577-1.34 2.536l1.977.311c.072-.465.524-1.064.961-1.644C63.254 34.178 64 33.188 64 32s-.746-2.178-1.403-3.051zm-8.193 21.572c-.938.286-1.909.582-2.605 1.279-.697.696-.993 1.667-1.28 2.605-.235.773-.479 1.572-.885 1.867-.4.291-1.238.277-2.038.265-.984-.016-2-.032-2.884.418-.871.445-1.449 1.272-2.008 2.072-.466.666-.947 1.354-1.431 1.512-.464.152-1.246-.118-2.004-.38-.934-.321-1.901-.648-2.886-.5-.959.151-1.761.756-2.536 1.34C33.194 61.491 32.519 62 32 62s-1.194-.509-1.848-1.001c-.775-.584-1.578-1.188-2.536-1.34-.983-.148-1.952.179-2.886.5-.757.261-1.539.532-2.004.38-.483-.157-.965-.846-1.43-1.512-.56-.801-1.138-1.628-2.009-2.073-.882-.45-1.9-.434-2.882-.417-.806.01-1.639.027-2.04-.266-.405-.295-.649-1.094-.885-1.867-.287-.938-.583-1.909-1.28-2.605-.697-.697-1.667-.993-2.606-1.28-.773-.235-1.573-.479-1.867-.885L6.11 50.812c.688.945 1.864 1.304 2.9 1.62.704.215 1.432.437 1.776.781.344.344.566 1.071.781 1.775.316 1.037.675 2.212 1.621 2.9.941.687 2.167.664 3.25.647.737-.008 1.502-.024 1.94.199.427.218.86.838 1.279 1.438.624.893 1.331 1.904 2.452 2.269 1.099.354 2.254-.04 3.273-.392.703-.241 1.431-.499 1.924-.414.465.072 1.064.524 1.643.961C29.822 63.254 30.812 64 32 64s2.178-.746 3.051-1.403c.579-.437 1.179-.889 1.644-.961.488-.086 1.221.172 1.924.414 1.02.352 2.175.75 3.272.392 1.121-.363 1.828-1.376 2.452-2.269.419-.599.853-1.219 1.279-1.437.438-.225 1.2-.213 1.94-.199 1.075.017 2.306.038 3.249-.647.945-.688 1.304-1.863 1.62-2.9.215-.703.437-1.432.781-1.775.344-.344 1.071-.566 1.774-.78 1.037-.316 2.213-.676 2.901-1.622l-1.617-1.176c-.293.404-1.093.647-1.866.884zM8 46v-2a1 1 0 0 0-1-1H5v2h1v1a1.001 1.001 0 0 1-2 0v-6a1.001 1.001 0 0 1 2 0v1h2v-1c0-1.654-1.346-3-3-3s-3 1.346-3 3v6c0 1.654 1.346 3 3 3s3-1.346 3-3zm1-9v9c0 1.654 1.346 3 3 3s3-1.346 3-3v-9h-2v9a1.001 1.001 0 0 1-2 0v-9H9zm7 3v9h2v-2h2v2h2v-9c0-1.654-1.346-3-3-3s-3 1.346-3 3zm4 0v5h-2v-5a1.001 1.001 0 0 1 2 0zm10 0v9h2v-2h2v2h2v-9c0-1.654-1.346-3-3-3s-3 1.346-3 3zm3-1a1 1 0 0 1 1 1v5h-2v-5c0-.552.449-1 1-1zm-10-1v11h2v-3.149l2.219 2.774A1 1 0 0 0 28 49h1v-2h-.52l-2.434-3.043A3.505 3.505 0 0 0 29 40.5c0-1.93-1.57-3.5-3.5-3.5H24a1 1 0 0 0-1 1zm2 1h.5c.827 0 1.5.673 1.5 1.5s-.673 1.5-1.5 1.5H25v-3zm16 3.808-2.071-5.179a1.01 1.01 0 0 0-1.118-.611A1 1 0 0 0 37 38v11h2v-5.808l2.071 5.179A1.001 1.001 0 0 0 43 48V37h-2v5.808zM48 39h2v-2h-6v2h2v10h2V39zm8 0v-2h-4a1 1 0 0 0-1 1v10a1 1 0 0 0 1 1h4v-2h-3v-3h3v-2h-3v-3h3zm1-1v10a1 1 0 0 0 1 1h4v-2h-3v-3h3v-2h-3v-3h3v-2h-4a1 1 0 0 0-1 1z" /><path d="M57 32C57 18.215 45.785 7 32 7S7 18.215 7 32c0 1.007.068 2.058.201 3.124l1.984-.248A23.3 23.3 0 0 1 9 32C9 19.318 19.318 9 32 9c12.683 0 23 10.318 23 23 0 .924-.062 1.892-.186 2.876l1.984.248C56.933 34.058 57 33.007 57 32zm-9.733 19.791-1.223-1.582A22.782 22.782 0 0 1 32 55a22.78 22.78 0 0 1-14.043-4.791l-1.223 1.582C21.146 55.199 26.424 57 32 57s10.855-1.801 15.267-5.209z" /><path d="M22 21h-2v2h1v10h2V22a1 1 0 0 0-1-1zm5.5 0c-1.93 0-3.5 1.57-3.5 3.5v5c0 1.93 1.57 3.5 3.5 3.5s3.5-1.57 3.5-3.5v-5c0-1.93-1.57-3.5-3.5-3.5zm1.5 8.5c0 .827-.673 1.5-1.5 1.5s-1.5-.673-1.5-1.5v-5c0-.827.673-1.5 1.5-1.5s1.5.673 1.5 1.5v5zm6.5-8.5c-1.93 0-3.5 1.57-3.5 3.5v5c0 1.93 1.57 3.5 3.5 3.5s3.5-1.57 3.5-3.5v-5c0-1.93-1.57-3.5-3.5-3.5zm1.5 8.5c0 .827-.673 1.5-1.5 1.5s-1.5-.673-1.5-1.5v-5c0-.827.673-1.5 1.5-1.5s1.5.673 1.5 1.5v5zM42.104 31.553l4-8 1.789.894-4 8-1.789-.894zM41 25h2v2h-2zM47 29h2v2h-2z" /></symbol><symbol fill="#fff" viewBox="0 0 512 512" id="helpline"><path d="M478.151 232.598c-.658-27.339-6.185-53.784-16.479-78.753 3.56-2.418 6.311-5.934 7.732-10.043a20.123 20.123 0 0 0-1.176-15.834c-15.797-30.245-37.484-56.268-64.456-77.344a7.482 7.482 0 0 0-9.213 11.791c25.28 19.753 45.604 44.139 60.408 72.482a5.032 5.032 0 0 1 .296 4.015 5.063 5.063 0 0 1-2.732 2.993l-35.325 15.928c-2.429 1.093-5.312.127-6.565-2.202-30.465-56.619-89.305-91.792-153.558-91.792S133.99 99.012 103.525 155.631c-1.254 2.329-4.138 3.297-6.564 2.202l-35.327-15.929a5.061 5.061 0 0 1-2.731-2.991 5.037 5.037 0 0 1 .296-4.017C97.84 60.918 173.664 14.962 257.083 14.962c38.979 0 77.494 10.326 111.381 29.862 3.579 2.059 8.154.834 10.218-2.745a7.482 7.482 0 0 0-2.745-10.218C339.781 11.017 298.681 0 257.083 0c-43.528 0-86.267 11.988-123.595 34.669-37.201 22.602-67.475 54.865-87.551 93.299a20.128 20.128 0 0 0-1.174 15.836c1.422 4.11 4.174 7.625 7.735 10.043-10.18 24.693-15.709 50.826-16.465 77.846-13.731 5.125-23.537 18.37-23.537 33.866v61.589c0 4.132 3.349 7.481 7.481 7.481s7.481-3.349 7.481-7.481v-61.589c0-11.675 9.498-21.173 21.173-21.173h19.497c11.675 0 21.173 9.499 21.173 21.173v108.52c0 11.675-9.498 21.173-21.173 21.173H48.63c-11.675 0-21.173-9.499-21.173-21.173v-14.076c0-4.132-3.349-7.481-7.481-7.481s-7.481 3.349-7.481 7.481v14.076c0 19.925 16.21 36.136 36.136 36.136h19.497c19.925 0 36.136-16.21 36.136-36.136v-108.52c0-15.415-9.705-28.598-23.323-33.781.72-20.51 4.946-40.418 12.579-59.337 8.913 2.558 18.684-1.36 23.183-9.721 27.852-51.763 81.643-83.919 140.382-83.919s112.53 32.155 140.382 83.919c3.584 6.661 10.516 10.516 17.693 10.516 1.833 0 3.682-.258 5.495-.778 7.536 18.684 11.745 38.335 12.539 58.578-14.727 4.566-25.455 18.315-25.455 34.523v108.52c0 13.838 7.823 25.878 19.274 31.947-10.303 23.16-32.01 39.642-57.196 43.141a32.986 32.986 0 0 0-10.138-10.917 7.481 7.481 0 1 0-8.375 12.399 17.997 17.997 0 0 1 7.94 14.928v13.463c0 9.924-8.073 17.998-17.998 17.998h-36.527c-9.924 0-17.998-8.073-17.998-17.998v-13.463c0-9.924 8.073-17.998 17.998-17.998h15.271c4.132 0 7.481-3.349 7.481-7.481s-3.349-7.481-7.481-7.481h-15.271c-18.174 0-32.96 14.786-32.96 32.96v13.463c0 18.174 14.786 32.96 32.96 32.96h36.527c12.692 0 23.724-7.216 29.229-17.757 24.232-2.195 46.845-11.632 65.573-27.444 18.231-15.391 31.178-35.407 37.64-58.093 14.912-4.451 25.818-18.286 25.818-34.627v-108.52c-.001-14.66-8.781-27.3-21.355-32.961zM79.782 166.5c-8.147 20.079-12.746 41.186-13.714 62.924H51.09c.975-23.968 5.985-47.158 14.939-69.124zm368.315 62.924c-.968-21.739-5.566-42.845-13.714-62.923l13.755-6.202c8.953 21.966 13.962 45.159 14.937 69.125zm-73.892 249.332v-13.179c0-.652-.022-1.302-.06-1.948 30.036-4.981 55.66-25.319 67.385-53.498.775.05 1.555.084 2.343.084h13.625c-12.709 36.237-45.245 63.084-83.293 68.541zm110.338-104.677c0 11.675-9.498 21.173-21.172 21.173h-19.498c-11.675 0-21.172-9.499-21.172-21.173v-108.52c0-11.675 9.498-21.173 21.172-21.173h19.498c11.675 0 21.172 9.499 21.172 21.173z" /><path d="M270.335 349.11c-.923 0-1.86-.171-2.77-.533a7.497 7.497 0 0 1-4.197-9.74l30.992-77.922c1.531-3.849 5.894-5.73 9.74-4.197a7.497 7.497 0 0 1 4.197 9.74l-30.992 77.922a7.502 7.502 0 0 1-6.97 4.73zM342.569 349.11a7.501 7.501 0 0 1-6.863-10.521l29.631-67.403H333.96c-4.143 0-7.5-3.357-7.5-7.5s3.357-7.5 7.5-7.5h42.867a7.5 7.5 0 0 1 6.866 10.518l-34.254 77.922a7.502 7.502 0 0 1-6.87 4.484zM231.309 349.108h-.066a7.5 7.5 0 0 1-7.435-7.564c.041-4.709.082-9.965.122-15.434h-31.417a7.5 7.5 0 0 1-6.566-11.124c4.381-7.94 26.461-47.831 30.937-53.321 3.737-4.583 8.773-6.45 13.479-4.994 4.759 1.474 8.141 6.103 8.615 11.792.234 2.807.168 23.627.055 42.646h2.414c4.142 0 7.5 3.357 7.5 7.5s-3.358 7.5-7.5 7.5h-2.514c-.052 7.021-.099 12.717-.124 15.563a7.503 7.503 0 0 1-7.5 7.436zm-26.057-37.998h18.777c.075-12.813.124-25.174.104-33.056-4.498 7.54-11.633 20.067-18.881 33.056z" /><path d="M153.867 349.887c-14.973 0-16.074-.367-17.081-.703-2.5-.833-4.367-2.722-5.124-5.182-1.305-4.241.518-6.627 5.389-13.005 3.962-5.188 11.339-14.847 23.698-32.506 3.671-5.244 6.039-9.941 7.041-13.969l.266-2.083c-.223-6.664-5.714-12.017-12.432-12.017-5.932 0-11.065 4.214-12.206 10.02-.799 4.064-4.741 6.707-8.805 5.914a7.5 7.5 0 0 1-5.914-8.805c2.519-12.822 13.842-22.129 26.924-22.129 15.129 0 27.438 12.309 27.438 27.438 0 .317-.02.635-.061.949l-.385 3.015a7.494 7.494 0 0 1-.133.745c-1.387 5.981-4.565 12.55-9.446 19.522-9.208 13.155-15.698 21.946-20.092 27.777 7.379.024 16.89-.066 25.825-.179 4.146-.032 7.542 3.264 7.594 7.404a7.5 7.5 0 0 1-7.405 7.594c-11.093.142-19.175.2-25.091.2z" /></symbol><symbol fill="#fff" viewBox="0 0 15 15" stroke="#fff" id="logo"><path d="m12.6 8.7-1.1-2.2a1.05 1.05 0 0 0-.9-.5H4.4a1.05 1.05 0 0 0-.9.5L2.4 8.7 1.16 9.852a.5.5 0 0 0-.16.367V14.5a.5.5 0 0 0 .5.5h2c.2 0 .5-.2.5-.4V14h7v.5c0 .2.2.5.4.5h2.1a.5.5 0 0 0 .5-.5v-4.281a.5.5 0 0 0-.16-.367ZM4.5 7h6l1 2h-8Zm.5 4.6c0 .2-.3.4-.5.4H2.4c-.2 0-.4-.3-.4-.5v-1.1c.1-.3.3-.5.6-.4l2 .4c.2 0 .4.3.4.5Zm8-.1c0 .2-.2.5-.4.5h-2.1c-.2 0-.5-.2-.5-.4v-.7c0-.2.2-.5.4-.5l2-.4c.3-.1.5.1.6.4ZM14 2v1a1.009 1.009 0 0 1-1.017 1H5.348A2.549 2.549 0 0 1 1 3.5h2.5v-2H1A2.549 2.549 0 0 1 5.348 1h7.635A1.009 1.009 0 0 1 14 2Z" /></symbol><symbol viewBox="0 0 256 256" preserveAspectRatio="xMidYMid" id="logo-t"><path d="M128 0C57.307 0 0 57.307 0 128s57.307 128 128 128 128-57.307 128-128S198.693 0 128 0Z" fill="#40B3E0" /><path d="M190.283 73.63 167.42 188.899s-3.197 7.994-11.99 4.157l-52.758-40.448-19.184-9.272-32.294-10.872s-4.956-1.758-5.436-5.595c-.48-3.837 5.596-5.915 5.596-5.915l128.376-50.36s10.552-4.636 10.552 3.038" fill="#FFF" /><path d="M98.618 187.603s-1.54-.144-3.46-6.22c-1.917-6.075-11.67-38.049-11.67-38.049l77.538-49.24s4.477-2.718 4.317 0c0 0 .799.48-1.6 2.718-2.397 2.239-60.91 54.836-60.91 54.836" fill="#D2E5F1" /><path d="m122.901 168.115-20.867 19.026s-1.632 1.238-3.416.462l3.996-35.34" fill="#B5CFE4" /></symbol><symbol viewBox="0 0 48 48" id="logo-w"><path d="M23.993 0C10.763 0 0 10.765 0 24a23.824 23.824 0 0 0 4.57 14.067l-2.99 8.917 9.224-2.948A23.81 23.81 0 0 0 24.007 48C37.237 48 48 37.234 48 24S37.238 0 24.007 0h-.014Zm-6.7 12.19c-.466-1.114-.818-1.156-1.523-1.185a13.55 13.55 0 0 0-.804-.027c-.918 0-1.877.268-2.455.86-.705.72-2.454 2.398-2.454 5.841s2.51 6.773 2.849 7.239c.353.465 4.895 7.632 11.947 10.553 5.515 2.286 7.152 2.074 8.407 1.806 1.834-.395 4.133-1.75 4.711-3.386.579-1.637.579-3.034.41-3.33-.17-.296-.636-.465-1.34-.818-.706-.353-4.134-2.046-4.783-2.272-.634-.24-1.24-.155-1.72.522-.677.946-1.34 1.905-1.876 2.483-.423.452-1.115.509-1.693.268-.776-.324-2.948-1.086-5.628-3.47-2.074-1.849-3.484-4.148-3.893-4.84-.41-.705-.042-1.114.282-1.495.353-.438.691-.748 1.044-1.157.352-.41.55-.621.776-1.1.24-.466.07-.946-.1-1.3-.168-.352-1.579-3.795-2.157-5.191Z" fill="#67C15E" fill-rule="evenodd" /></symbol><symbol viewBox="0 0 24 24" fill="none" id="phone"><path d="m3.51 2 3.64.132A1.961 1.961 0 0 1 8.89 3.37l1.077 2.662c.25.62.183 1.326-.18 1.884l-1.379 2.121c.817 1.173 3.037 3.919 5.388 5.526l1.752-1.079a1.917 1.917 0 0 1 1.483-.226l3.485.894c.927.237 1.551 1.126 1.478 2.103l-.224 2.983c-.078 1.047-.935 1.869-1.952 1.75C6.392 20.429-1.481 2 3.511 2Z" stroke="#fff" stroke-width="2" stroke-linecap="round" stroke-linejoin="round" /></symbol><symbol fill="#fff" viewBox="0 0 512.055 512.055" id="spec"><path d="M480.737 414.086c-10.786-15.799-25.828-26.767-43.5-31.717a8.412 8.412 0 0 0-.521-.127l-63.821-13.349-17.179-26.049a8.505 8.505 0 0 0-.278-.396 16.08 16.08 0 0 0-10.874-6.284 16.08 16.08 0 0 0-12.212 3.628l-76.325 65.701-76.325-65.701-.153-.128a16.077 16.077 0 0 0-12.06-3.5 16.077 16.077 0 0 0-10.873 6.284c-.097.129-.19.261-.278.396l-17.179 26.049-63.821 13.349a8.412 8.412 0 0 0-.521.127c-17.672 4.951-32.714 15.918-43.5 31.717-9.866 14.45-15.299 31.891-15.299 49.108v19.843c0 15.999 14.355 29.016 32.001 29.016h183.985l.03.001.033-.001h47.918l.033.001.03-.001h183.985c17.646 0 32.001-13.017 32.001-29.016v-19.843c.002-17.217-5.431-34.658-15.297-49.108zm-138.109-62.027 15.674 23.767-55.236 75.949-17.378-17.377-.006-.006-17.902-17.902 74.848-64.431zm-94.601 119.993h16.001c.481 0 .958-.019 1.432-.046l4.81 24.048h-28.485l4.81-24.048c.474.027.951.046 1.432.046zm24.001-24.001c0 4.411-3.589 8-8 8h-16.001c-4.412 0-8-3.589-8-8v-4.687l16.001-16.001 16.001 16.001v4.687zm-102.601-95.992 74.848 64.43-17.902 17.902-.006.006-17.378 17.377-55.236-75.949 15.674-23.766zM32.018 483.037v-19.843c0-25.88 16.097-56.588 46.866-65.349l61.712-12.908 60.959 83.819a7.999 7.999 0 0 0 12.126.951l12.262-12.262a24.093 24.093 0 0 0 5.634 8.058l-6.11 30.549H48.019c-8.822.001-16.001-5.838-16.001-13.015zm448.018 0c0 7.177-7.178 13.016-16.001 13.016H286.587l-6.11-30.549a24.083 24.083 0 0 0 5.634-8.058l12.262 12.262a7.999 7.999 0 0 0 12.126-.951l60.959-83.819 61.712 12.908c30.77 8.761 46.866 39.469 46.866 65.349v19.842z" /><path d="M120.022 254.686v97.38a8 8 0 0 0 16 0v-96.004h7.33c5.937 18.724 15.206 36.329 27.295 51.301 23.268 28.815 53.618 44.685 85.459 44.685 24.659 0 48.591-9.593 69.21-27.742.099-.087.186-.182.279-.272 1.281.084 2.564.14 3.852.14 9.347 0 18.854-2.214 28.096-6.688 30.2-14.617 50.49-48.946 50.49-85.423V184.06c0-13.234-10.767-24.001-24-24.001h-3.274c17.729-67.605 9.697-123.106 2.596-139.246-.012-.028-.028-.053-.041-.081a8.087 8.087 0 0 0-.229-.456c-.047-.088-.092-.179-.142-.265a7.907 7.907 0 0 0-.242-.381c-.066-.1-.129-.201-.199-.297-.071-.098-.148-.19-.223-.284-.091-.114-.181-.229-.278-.338-.061-.068-.127-.132-.19-.198-.118-.123-.235-.246-.36-.361-.055-.051-.115-.097-.171-.146a8.659 8.659 0 0 0-.419-.347c-.063-.047-.129-.089-.193-.135a7.57 7.57 0 0 0-.436-.295c-.081-.05-.167-.094-.25-.141a7.846 7.846 0 0 0-.413-.226c-.105-.052-.215-.096-.322-.143-.125-.055-.248-.112-.375-.161-.121-.046-.246-.083-.37-.124-.12-.039-.239-.081-.361-.115-.123-.034-.248-.058-.373-.086-.13-.029-.259-.061-.391-.083-.111-.019-.224-.03-.336-.044-.151-.02-.301-.04-.453-.05-.094-.006-.189-.006-.284-.01a8.222 8.222 0 0 0-.521-.005c-.083.002-.166.011-.249.016a8.57 8.57 0 0 0-.552.05c-.027.004-.054.004-.082.008-20.061 2.866-44.351-2.012-70.066-7.175C261.715.282 217.162-8.642 182.326 16.2a8.025 8.025 0 0 0-1.622-.165c-35.729 0-60.682 29.608-60.682 72.002 0 19.63 4.947 49.438 9.335 72.021h-1.335c-13.234 0-24 10.767-24 24.001v48.002c0 10.43 6.689 19.323 16 22.625zm230.55 48.397c-16.883 8.171-34.197 6.476-48.86-4.742a23.847 23.847 0 0 0 2.317-10.277c0-13.234-10.767-24.001-24-24.001s-24 10.767-24 24.001c0 13.234 10.767 24 24 24 3.702 0 7.211-.844 10.345-2.347.217.217.445.426.692.621 4.715 3.73 9.702 6.7 14.867 8.928-15.45 11-32.483 16.781-49.826 16.781-26.911 0-52.84-13.757-73.01-38.736-19.908-24.655-31.326-57.284-31.326-89.521v-9.112c0-28.498 16.161-66.981 21.655-79.238 55.276-6.495 99.31-.006 126.772 6.703 24.089 5.886 39.896 12.934 45.595 15.701l14.428 34.33v31.68c0 26.46-7.696 53.45-21.67 75.999a8 8 0 0 0 13.601 8.428c6.968-11.243 12.517-23.484 16.531-36.218h15.351a23.97 23.97 0 0 0 4.52-.433c-6.173 20.8-20.096 38.797-37.982 47.453zm-62.543-15.019c0 4.411-3.589 8-8 8s-8-3.589-8-8c0-4.412 3.589-8.001 8-8.001s8 3.589 8 8.001zM392.033 184.06v48.002c0 4.411-3.589 8-8 8h-11.175c2.208-10.635 3.363-21.46 3.363-32.209v-31.794h7.812c4.411 0 8 3.589 8 8.001zM180.704 32.035c.772 0 1.517-.115 2.223-.32a7.98 7.98 0 0 0 7.047-1.31c29.374-22.312 71.231-13.906 111.709-5.778 21.237 4.265 41.547 8.343 60.306 8.343 2.89 0 5.74-.109 8.555-.317 4.922 17.755 9.586 62.524-3.828 117.681l-7.311-17.395a8 8 0 0 0-3.507-3.903c-2.952-1.63-73.617-39.764-188.896-24.933-.019.002-.037.008-.056.01-.153.021-.304.052-.456.082-.113.022-.228.04-.339.066-.099.024-.196.057-.295.084a7.94 7.94 0 0 0-2.498 1.192l-.011.007c-.064.046-.122.099-.184.146a7.951 7.951 0 0 0-1.426 1.403l-.048.057c-.083.107-.156.223-.234.334-.074.107-.152.211-.221.322-.05.081-.094.167-.141.25-.087.15-.173.301-.25.457l-.023.043c-.619 1.282-9.674 20.183-16.721 43.296-3.985-21.14-8.077-46.957-8.077-63.816 0-38.685 22.442-56.001 44.682-56.001zM120.022 184.06c0-4.412 3.589-8.001 8-8.001h4.582a863.97 863.97 0 0 0 3.166 14.42v17.311c0 10.801 1.163 21.643 3.384 32.272h-11.132c-4.412 0-8-3.589-8-8V184.06z" /></symbol><symbol aria-label="Telegram" viewBox="0 0 512 512" id="telegram"><rect width="512" height="512" rx="15%" fill="#37aee2" /><path fill="#c8daea" d="M199 404c-11 0-10-4-13-14l-32-105 245-144" /><path fill="#a9c9dd" d="M199 404c7 0 11-4 16-8l45-43-56-34" /><path fill="#f6fbfe" d="m204 319 135 99c14 9 26 4 30-14l55-258c5-22-9-32-24-25L79 245c-21 8-21 21-4 26l83 26 190-121c9-5 17-3 11 4" /></symbol><symbol aria-label="VK" viewBox="0 0 512 512" id="vk"><rect width="512" height="512" rx="15%" fill="#5281b8" /><path fill="#fff" d="M274 363c5-1 14-3 14-15 0 0-1-30 13-34s32 29 51 42c14 9 25 8 25 8l51-1s26-2 14-23c-1-2-9-15-39-42-31-30-26-25 11-76 23-31 33-50 30-57-4-7-20-6-20-6h-57c-6 0-9 1-12 6 0 0-9 25-21 45-25 43-35 45-40 42-9-5-7-24-7-37 0-45 7-61-13-65-13-2-59-4-73 3-7 4-11 11-8 12 3 0 12 1 17 7 8 13 9 75-2 81-15 11-53-62-62-86-2-6-5-7-12-9H79c-6 0-15 1-11 13 27 56 83 193 184 192z" /></symbol><symbol aria-label="WhatsApp" viewBox="0 0 512 512" id="whatsapp"><rect width="512" height="512" rx="15%" fill="#25d366" /><path fill="#25d366" stroke="#fff" stroke-width="26" d="m123 393 14-65a138 138 0 1 1 50 47z" /><path fill="#fff" d="M308 273c-3-2-6-3-9 1l-12 16c-3 2-5 3-9 1-15-8-36-17-54-47-1-4 1-6 3-8l9-14c2-2 1-4 0-6l-12-29c-3-8-6-7-9-7h-8c-2 0-6 1-10 5-22 22-13 53 3 73 3 4 23 40 66 59 32 14 39 12 48 10 11-1 22-10 27-19 1-3 6-16 2-18" /></symbol></defs></svg>