<?xml version="1.0" standalone="no"?>
<!DOCTYPE svg PUBLIC "-//W3C//DTD SVG 20010904//EN"
 "http://www.w3.org/TR/2001/REC-SVG-20010904/DTD/svg10.dtd">
<svg version="1.0" xmlns="http://www.w3.org/2000/svg"
 width="700.000000pt" height="700.000000pt" viewBox="0 0 700.000000 700.000000"
 preserveAspectRatio="xMidYMid meet">
<metadata>
Created by potrace 1.14, written by Peter Selinger 2001-2017
</metadata>
<g transform="translate(0.000000,700.000000) scale(0.100000,-0.100000)"
fill="#000000" stroke="none">
<path d="M685 6938 c-140 -109 -258 -240 -345 -382 -48 -80 -233 -476 -225
-484 3 -3 293 -6 645 -6 l640 0 0 -233 0 -233 -645 0 c-355 0 -645 -3 -645 -6
0 -3 11 -29 24 -57 13 -29 58 -125 100 -215 93 -202 177 -330 298 -453 121
-125 211 -193 348 -266 79 -42 248 -111 290 -118 3 -1 39 -9 80 -18 446 -101
938 35 1273 353 l84 80 1769 0 c1903 1 1814 -1 1947 51 217 86 387 292 430
524 14 74 16 650 3 710 -63 283 -240 477 -508 556 l-73 22 -1785 2 -1785 2
-74 72 c-41 40 -102 92 -136 117 l-63 44 -783 0 -784 0 -80 -62z"/>
<path d="M2057 4433 c-1 -1 -29 -2 -62 -4 -191 -8 -396 -120 -520 -284 -20
-27 -151 -277 -290 -555 l-253 -505 -112 -105 c-62 -58 -125 -116 -139 -130
-14 -14 -82 -77 -151 -140 -168 -155 -205 -194 -235 -247 -61 -110 -58 -46
-60 -1217 -1 -1110 -2 -1100 40 -1204 l17 -42 878 0 878 0 21 49 c11 27 24 80
28 117 l8 68 1398 0 c1390 1 1397 1 1398 -19 1 -44 15 -98 41 -163 l20 -52
873 0 874 0 21 57 c12 32 24 67 27 78 4 11 7 495 8 1075 2 1144 3 1126 -53
1236 -32 63 -78 114 -239 263 -56 51 -119 109 -141 130 -21 20 -90 83 -152
141 l-112 105 -253 505 c-139 278 -270 528 -290 555 -112 149 -299 259 -480
281 -48 6 -2983 13 -2988 7z m2811 -1157 c62 -124 112 -229 112 -234 0 -4
-657 -8 -1484 -8 l-1484 -1 53 106 c28 58 81 163 116 234 l64 127 1256 0 1255
0 112 -224z m-3526 -1207 c84 -17 164 -33 178 -35 14 -3 104 -21 200 -40 96
-20 189 -38 205 -41 17 -2 56 -11 88 -18 31 -7 57 -11 57 -8 0 3 7 0 15 -7 13
-11 15 -37 13 -149 l-3 -136 -464 0 -465 0 0 232 c-1 175 2 233 11 233 7 0 81
-14 165 -31z m4493 -189 c0 -118 -1 -222 -3 -231 -3 -13 -55 -15 -465 -15
l-462 1 -3 137 c-3 154 -4 150 73 162 22 3 72 12 110 20 39 8 81 17 95 20 14
2 36 7 50 10 14 3 36 8 50 10 14 3 35 7 46 10 12 2 38 7 59 10 20 4 40 8 44
10 3 2 26 7 51 10 25 3 60 10 78 15 18 5 35 10 37 10 3 0 18 2 33 5 15 3 41 8
57 11 17 3 46 9 65 13 19 5 46 8 60 8 l24 -1 1 -215z"/>
</g>
</svg>
