<?xml version="1.0" encoding="utf-8"?>
<!-- Generator: Adobe Illustrator 24.1.2, SVG Export Plug-In . SVG Version: 6.00 Build 0)  -->
<svg version="1.1" id="Слой_1" xmlns="http://www.w3.org/2000/svg" xmlns:xlink="http://www.w3.org/1999/xlink" x="0px" y="0px"
	 viewBox="0 0 400 400" style="enable-background:new 0 0 400 400;" xml:space="preserve">
<style type="text/css">
	.st0{fill-rule:evenodd;clip-rule:evenodd;fill:#003DA6;}
	.st1{fill-rule:evenodd;clip-rule:evenodd;fill:#0071CE;}
	.st2{fill-rule:evenodd;clip-rule:evenodd;fill:#65B2E8;}
</style>
<g>
	<path class="st0" d="M1,202v-1.5C1,90.3,90.3,1,200.5,1c110.2,0,199.5,89.3,199.5,199.5c0,109.9-89,199.1-198.9,199.5l-73-55.6
		c21.8,11,46.4,17.2,72.4,17.2c89,0,161.1-72.1,161.1-161.1S289.4,39.4,200.5,39.4c-89,0-161.1,72.1-161.1,161.1c0,0.5,0,1,0,1.5
		h-0.1"/>
	<path class="st0" d="M400,198.8v1.5c0,110.1-89.3,199.5-199.5,199.5C90.4,399.8,1.1,310.5,1.1,200.3C1.1,90.4,90.1,1.3,200,1
		l73,55.4c-21.8-11-46.4-17.2-72.4-17.2c-89,0-161.1,72.1-161.1,161.1s72.1,161.1,161.1,161.1c89,0,161.1-72.1,161.1-161.1
		c0-0.5,0-1,0-1.5h0.1"/>
</g>
<path class="st1" d="M200.5,44.5c85.6,0,155,69.4,155,155s-69.4,155-155,155s-155-69.4-155-155C45.5,113.9,114.9,44.5,200.5,44.5
	L200.5,44.5z M200.5,82.8c64.4,0,116.7,52.2,116.7,116.7s-52.2,116.7-116.7,116.7S83.8,263.9,83.8,199.5
	C83.8,135,136,82.8,200.5,82.8L200.5,82.8z"/>
<path class="st2" d="M200.5,88.9c61.1,0,110.6,49.5,110.6,110.6S261.5,310,200.5,310S89.9,260.5,89.9,199.5
	C89.9,138.4,139.4,88.9,200.5,88.9L200.5,88.9z M200.5,127.2c39.9,0,72.3,32.3,72.3,72.3c0,39.9-32.3,72.3-72.3,72.3
	c-39.9,0-72.2-32.4-72.2-72.3C128.2,159.6,160.6,127.2,200.5,127.2L200.5,127.2z"/>
</svg>
