<?xml version="1.0" standalone="no"?>
<!DOCTYPE svg PUBLIC "-//W3C//DTD SVG 20010904//EN"
 "http://www.w3.org/TR/2001/REC-SVG-20010904/DTD/svg10.dtd">
<svg version="1.0" xmlns="http://www.w3.org/2000/svg"
 width="512.000000pt" height="512.000000pt" viewBox="0 0 512.000000 512.000000"
 preserveAspectRatio="xMidYMid meet">
<metadata>
Created by potrace 1.14, written by Peter Selinger 2001-2017
</metadata>
<g transform="translate(0.000000,512.000000) scale(0.100000,-0.100000)"
fill="#000000" stroke="none">
<path d="M900 4185 c0 -25 1 -45 3 -46 1 0 72 -13 157 -28 l155 -27 3 -1412 2
-1412 -165 -82 -165 -81 0 -39 0 -38 375 0 375 0 0 40 0 40 -165 79 -165 80 0
1403 0 1403 198 -590 c109 -324 342 -1019 516 -1542 l318 -953 33 0 c22 0 35
6 40 18 3 9 54 154 112 322 57 168 122 355 143 415 22 61 60 171 85 245 49
141 96 278 170 490 24 69 148 426 275 795 127 368 234 672 236 674 2 2 4 -622
4 -1387 l0 -1392 -22 -4 c-13 -3 -61 -12 -108 -21 -47 -9 -109 -20 -137 -26
l-53 -10 0 -40 0 -39 510 0 510 0 0 40 c0 44 11 39 -130 65 -47 9 -109 21
-137 26 l-53 10 0 1460 c0 802 1 1459 3 1459 1 1 72 13 157 28 l155 27 3 48 3
47 -350 0 -349 0 -25 -72 c-14 -40 -64 -185 -112 -323 -48 -137 -127 -365
-175 -505 -49 -140 -127 -367 -175 -505 -103 -295 -143 -412 -264 -760 -115
-335 -130 -377 -137 -395 -8 -19 1 -41 -195 535 -143 418 -216 633 -415 1220
-30 88 -103 304 -163 480 l-109 320 -386 3 -386 2 0 -45z"/>
</g>
</svg>
