<svg width="474" height="321" viewBox="0 0 474 321" fill="none" xmlns="http://www.w3.org/2000/svg"><path d="M237 320.97c130.891 0 237-49.732 237-111.08S367.891 98.81 237 98.81c-130.891 0-237 49.732-237 111.08s106.109 111.08 237 111.08z" fill="url(#paint0_linear)"/><path d="M165.119 117.84c-.24.94-6.07.24-13.02-1.54-6.95-1.79-12.39-4-12.15-4.94.24-.94 6.07-.24 13.02 1.54 6.95 1.79 12.39 4 12.15 4.94z" fill="url(#paint1_linear)"/><path d="M382.721 130.01c-.24.94-6.07.24-13.02-1.54-6.95-1.79-12.39-4-12.15-4.94.24-.94 6.07-.24 13.02 1.54 6.95 1.8 12.39 4.01 12.15 4.94z" fill="url(#paint2_linear)"/><path d="M292.339 143.67c-.73 2.85-19.8.4-42.59-5.46-22.79-5.87-40.67-12.93-39.93-15.78.73-2.85 19.8-.4 42.59 5.46 22.79 5.86 40.66 12.93 39.93 15.78z" fill="url(#paint3_linear)"/><path d="M360.019 139.42c-.32 1.23-7.97.32-17.1-2.03-9.13-2.35-16.27-5.25-15.95-6.48.32-1.23 7.97-.32 17.1 2.03 9.13 2.35 16.27 5.25 15.95 6.48z" fill="url(#paint4_linear)"/><path d="M328.68 132.29c-.84 0-1.52-.68-1.52-1.52v-15.98a1.52 1.52 0 113.04 0v15.98c0 .83-.68 1.52-1.52 1.52z" fill="url(#paint5_linear)"/><path d="M341.72 99.19c3.16 12.55-5.84 16.36-13.04 16.36-7.2 0-16.21-3.04-13.04-16.36 3.06-12.9 10.76-31.57 13.04-31.57 2.28 0 9.8 18.71 13.04 31.57z" fill="url(#paint6_linear)"/><path d="M358.35 123.92a.76.76 0 01-.76-.76v-7.99a.76.76 0 111.52 0v7.99c0 .42-.34.76-.76.76z" fill="url(#paint7_linear)"/><path d="M364.881 107.37c1.58 6.28-2.92 8.18-6.52 8.18-3.6 0-8.1-1.52-6.52-8.18 1.53-6.45 5.38-15.79 6.52-15.79 1.13 0 4.89 9.36 6.52 15.79z" fill="url(#paint8_linear)"/><path d="M140.75 111.75a.76.76 0 01-.76-.76V103a.76.76 0 111.52 0v7.99a.76.76 0 01-.76.76z" fill="url(#paint9_linear)"/><path d="M147.279 95.2c1.58 6.28-2.92 8.18-6.52 8.18-3.6 0-8.1-1.52-6.52-8.18 1.53-6.45 5.38-15.79 6.52-15.79 1.14 0 4.9 9.36 6.52 15.79z" fill="url(#paint10_linear)"/><path d="M233.619 89.07a2.832 2.832 0 01-1.09-3.83l3.1-5.56a2.832 2.832 0 013.83-1.09c1.35.76 1.84 2.48 1.09 3.83l-3.1 5.56c-.75 1.36-2.47 1.84-3.83 1.09z" fill="#718192"/><path d="M215.161 126.84l-4.11-2.63c-1.33-.74-1.81-2.44-1.07-3.78l20.02-34.51c.74-1.33 2.44-1.81 3.78-1.07l3.35 1.87c1.33.74 1.81 2.44 1.07 3.78l-19.26 35.27c-.74 1.33-2.44 1.81-3.78 1.07z" fill="#8EADBF"/><path d="M259.069 88.26c24.373 0 44.13-19.758 44.13-44.13 0-24.372-19.757-44.13-44.13-44.13-24.372 0-44.13 19.758-44.13 44.13 0 24.372 19.758 44.13 44.13 44.13z" fill="url(#paint11_linear)"/><path d="M259.07 75.12c17.115 0 30.99-13.875 30.99-30.99s-13.875-30.99-30.99-30.99-30.99 13.875-30.99 30.99 13.875 30.99 30.99 30.99z" fill="url(#paint12_radial)"/><path d="M256.401 42.51c7.141 0 12.93-5.789 12.93-12.93s-5.789-12.93-12.93-12.93-12.93 5.789-12.93 12.93 5.789 12.93 12.93 12.93z" fill="url(#paint13_linear)"/><defs><linearGradient id="paint0_linear" x1="237" y1="73.97" x2="237" y2="185.251" gradientUnits="userSpaceOnUse"><stop offset=".081" stop-color="#9BC0CC"/><stop offset="1" stop-color="#EEF9FF" stop-opacity="0"/></linearGradient><linearGradient id="paint1_linear" x1="139.64" y1="110.926" x2="159.303" y2="116.473" gradientUnits="userSpaceOnUse"><stop stop-color="#88AFBF" stop-opacity=".7"/><stop offset="1" stop-color="#91B4CE" stop-opacity="0"/></linearGradient><linearGradient id="paint2_linear" x1="357.216" y1="123.102" x2="376.878" y2="128.648" gradientUnits="userSpaceOnUse"><stop stop-color="#718192" stop-opacity=".51"/><stop offset="1" stop-color="#718192" stop-opacity="0"/></linearGradient><linearGradient id="paint3_linear" x1="209.049" y1="121.113" x2="273.474" y2="139.413" gradientUnits="userSpaceOnUse"><stop stop-color="#83A6BA"/><stop offset="1" stop-color="#91B8CE" stop-opacity="0"/></linearGradient><linearGradient id="paint4_linear" x1="326.577" y1="130.347" x2="352.387" y2="137.627" gradientUnits="userSpaceOnUse"><stop stop-color="#83A0BA" stop-opacity=".8"/><stop offset="1" stop-color="#91B8CE" stop-opacity="0"/></linearGradient><linearGradient id="paint5_linear" x1="328.681" y1="113.726" x2="328.681" y2="140.05" gradientUnits="userSpaceOnUse"><stop offset=".081" stop-color="#9BBACC"/><stop offset="1" stop-color="#EEF7FF" stop-opacity="0"/></linearGradient><linearGradient id="paint6_linear" x1="333.559" y1="113.142" x2="317.21" y2="74.576" gradientUnits="userSpaceOnUse"><stop stop-color="#91B8CE"/><stop offset="1" stop-color="#B9CAD4"/></linearGradient><linearGradient id="paint7_linear" x1="358.353" y1="114.638" x2="358.353" y2="127.8" gradientUnits="userSpaceOnUse"><stop offset=".081" stop-color="#9BC0CC"/><stop offset="1" stop-color="#EEFAFF" stop-opacity="0"/></linearGradient><linearGradient id="paint8_linear" x1="364.806" y1="113.476" x2="350.306" y2="96.214" gradientUnits="userSpaceOnUse"><stop stop-color="#91BFCE"/><stop offset="1" stop-color="#B9CED4"/></linearGradient><linearGradient id="paint9_linear" x1="140.755" y1="102.465" x2="140.755" y2="115.627" gradientUnits="userSpaceOnUse"><stop offset=".081" stop-color="#9BB4CC"/><stop offset="1" stop-color="#EEF7FF" stop-opacity="0"/></linearGradient><linearGradient id="paint10_linear" x1="143.383" y1="98.687" x2="134.752" y2="85.222" gradientUnits="userSpaceOnUse"><stop stop-color="#91B4CE"/><stop offset="1" stop-color="#B9CED4"/></linearGradient><linearGradient id="paint11_linear" x1="214.927" y1="44.129" x2="303.204" y2="44.129" gradientUnits="userSpaceOnUse"><stop stop-color="#B0CCD5"/><stop offset="1" stop-color="#91BFCE"/></linearGradient><linearGradient id="paint13_linear" x1="249.356" y1="18.368" x2="261.177" y2="37.174" gradientUnits="userSpaceOnUse"><stop stop-color="#EEF8FF"/><stop offset="1" stop-color="#fff" stop-opacity="0"/></linearGradient><radialGradient id="paint12_radial" cx="0" cy="0" r="1" gradientUnits="userSpaceOnUse" gradientTransform="translate(259.066 44.129) scale(50.5326)"><stop stop-color="#EEF9FF"/><stop offset="1" stop-color="#9BBACC"/></radialGradient></defs></svg>