<svg width="492" height="492" viewBox="0 0 492 492" fill="none" xmlns="http://www.w3.org/2000/svg">
<g clip-path="url(#clip0_0_1)">
<path d="M306.612 442.627L484.156 265.083C489.22 260.019 492 253.263 492 245.915C492 238.711 489.22 231.959 484.156 226.895L306.612 49.3467C296.12 38.8587 279.044 38.8587 268.56 49.3467L252.432 65.4667C247.372 70.5307 244.588 77.2867 244.588 84.4947C244.588 91.6987 247.372 98.6867 252.432 103.747L356.016 207.555L26.9323 207.555C12.1003 207.555 0.000274658 219.171 0.000274658 234.003V256.803C0.000274658 271.635 12.1003 284.427 26.9323 284.427H357.184L252.432 388.823C247.372 393.883 244.588 400.459 244.588 407.667C244.588 414.875 247.372 421.531 252.432 426.599L268.56 442.671C279.048 453.163 296.12 453.123 306.612 442.627Z" fill="white"/>
</g>
<defs>
<clipPath id="clip0_0_1">
<rect width="492" height="492" fill="white"/>
</clipPath>
</defs>
</svg>
