<svg width="48" height="48" viewBox="0 0 48 48" fill="none" xmlns="http://www.w3.org/2000/svg">
<path d="M39.5312 14.0688L29.1312 3.66875C28.8304 3.36795 28.424 3.19995 28 3.19995H11.2C9.432 3.19995 8 4.63195 8 6.39995V41.5999C8 43.368 9.432 44.7999 11.2 44.7999H36.8C38.568 44.7999 40 43.368 40 41.5999V15.2C40 14.776 39.832 14.3696 39.5312 14.0688ZM28.8 33.5999H16C15.1168 33.5999 14.4 32.8832 14.4 32C14.4 31.1167 15.1168 30.4 16 30.4H28.8C29.6832 30.4 30.4 31.1167 30.4 32C30.4 32.8832 29.6832 33.5999 28.8 33.5999ZM32 27.1999H16C15.1168 27.1999 14.4 26.4832 14.4 25.5999C14.4 24.7167 15.1168 24 16 24H32C32.8832 24 33.6 24.7167 33.6 25.5999C33.6 26.4832 32.8832 27.1999 32 27.1999ZM28.8 16C27.9168 16 27.2 15.2832 27.2 14.4V6.24635L36.9536 16H28.8Z" fill="#395B89"/>
</svg>
