<svg width="167" height="40" viewBox="0 0 167 40" fill="none" xmlns="http://www.w3.org/2000/svg"><g clip-path="url(#clip0)"><path d="M.49 35.885c0-2.251 1.682-4.117 4.025-4.117 1.444 0 2.286.534 3.081 1.285l-.59.637c-.67-.637-1.421-1.091-2.501-1.091-1.762 0-3.082 1.432-3.082 3.286 0 1.842 1.331 3.287 3.082 3.287 1.091 0 1.809-.421 2.571-1.149l.59.626c-.83.842-1.74 1.353-3.185 1.353C2.185 40 .49 38.193.49 35.885zm30.908-4.039h.842l3.627 8.018h-.966l-.932-2.104h-4.334l-.943 2.104h-.922l3.628-8.018zm2.216 5.107l-1.809-4.06-1.819 4.06h3.628zm23.039-5.049h2.98c1.798 0 2.981.956 2.981 2.548 0 1.718-1.433 2.605-3.127 2.605h-1.933v2.809h-.899v-7.962h-.002zm2.866 4.332c1.32 0 2.183-.706 2.183-1.774 0-1.136-.854-1.729-2.139-1.729H57.55v3.503h1.969zm24.027-4.332h.898v7.962h-.898v-7.962zm24.549.829h-2.672v-.83h6.255v.83h-2.672v7.13h-.911v-7.13zm26.406-.887h.842l3.628 8.018h-.967l-.932-2.104h-4.333l-.944 2.104h-.922l3.628-8.018zm2.216 5.107l-1.809-4.06-1.818 4.06h3.627zm23.039-5.049h.899v7.131h4.481v.83h-5.38v-7.96z" fill="#150D43"/><path d="M12.004 23.951L3.405 1.616v20.287l2.77 1.154v.606H0v-.606l2.713-1.154V1.616L.058 1.212V.577h6.379l7.241 18.526L21.066.577h5.829v.635l-2.655.404v21.008l2.655.433v.606H18.41v-.606l2.655-.433V2.482l-8.542 21.47h-.52zm15.326-.288v-.606l2.655-.433V1.616l-2.655-.404V.577h8.483v.635l-2.655.404v21.008l2.655.433v.606H27.33zm8.99 0v-.606l2.655-.433V1.616l-2.655-.404V.577h8.483v.635l-2.655.404v21.355h8.628l2.366-6.35h.78v7.042H36.32zm17.963 0v-.606l2.655-.433V1.616l-2.655-.404V.577h8.483v.635l-2.655.404v21.355h8.628l2.366-6.35h.78v7.042H54.283z" fill="#000"/><path d="M81.18 12.711c-.82-1.029-2.063-1.754-3.738-2.179l-5.165-1.357c-1.328-.347-2.334-.816-3.016-1.413-.682-.596-1.025-1.413-1.025-2.452 0-1.404.481-2.534 1.442-3.39.961-.856 2.28-1.285 3.954-1.285 1.691 0 3.26.347 4.703 1.04l2.078 4.212h.636V0h-.636l-2.107.895C76.922.298 75.355 0 73.604 0 72.2 0 70.988.285 69.97.852a5.644 5.644 0 00-2.324 2.396c-.53 1.029-.793 2.206-.793 3.534 0 1.462.423 2.727 1.269 3.795.846 1.068 2.107 1.823 3.78 2.265l4.789 1.242c1.597.403 2.75.947 3.462 1.63.712.682 1.068 1.612 1.068 2.785 0 1.616-.553 2.871-1.659 3.766-1.107.895-2.507 1.341-4.199 1.341-1.984 0-3.752-.528-5.307-1.583-.073.25-.17.497-.293.733l.088-.044c1.73 1.019 3.491 1.53 5.28 1.53 2.213 0 3.977-.607 5.295-1.819s1.977-2.885 1.977-5.021c.003-2.098-.406-3.661-1.223-4.69zm1.738 10.952v-.606l2.655-.433V1.616l-2.655-.404V.577h17.372v6.608h-.78l-2.222-5.887h-8.542v10.82h4.878l1.701-4.182h.78v9.119h-.78l-1.701-4.242h-4.878v9.81l2.655.434v.606h-8.483zm17.944 0v-.606l2.655-.433V1.616l-2.655-.404V.577h8.483v.635l-2.655.404v21.008l2.655.433v.606h-8.483zm9.204 0v-.606l2.655-.433V1.616l-2.655-.404V.577h17.372v6.608h-.779l-2.222-5.887h-8.542v10.388h3.75l1.702-4.183h.75v9.119h-.75l-1.731-4.242h-3.723v10.59h9.06l2.367-6.348h.75v7.04h-18.004zm36.891-.606V1.616l-2.655-.404V.577h11.053c2.115 0 3.996.476 5.641 1.429 1.645.951 2.93 2.298 3.852 4.039.924 1.74 1.386 3.766 1.386 6.074s-.462 4.333-1.386 6.074c-.924 1.74-2.212 3.088-3.867 4.039-1.655.953-3.531 1.429-5.628 1.429h-8.398v-.604h.002zm8.398-.086c1.403 0 2.649-.328 3.737-.98 1.085-.654 1.937-1.63 2.553-2.93.616-1.299.924-2.872.924-4.718V9.9c0-1.846-.308-3.416-.924-4.704-.616-1.289-1.468-2.261-2.553-2.914-1.088-.653-2.334-.98-3.737-.98h-5.222v21.67h5.222z" fill="#000"/><path d="M128.677 23.663v-.606l2.654-.433V1.616l-2.654-.404V.577h8.483v.635l-2.655.404v21.355h8.628l2.366-6.35h.78v7.042h-17.602z" fill="#000"/></g><defs><clipPath id="clip0"><path fill="#fff" d="M0 0h166.234v40H0z"/></clipPath></defs></svg>