<svg width="111" height="30" viewBox="0 0 111 30" fill="none" xmlns="http://www.w3.org/2000/svg"><path d="M33.331 30v-.94l3.164.05V.974L33.332.81V.007H55.85v8.789h-1.003l-2.896-7.572h-10.92v13.339h4.777l2.194-6.017h1.191V21.34h-1.19l-2.232-5.586h-4.74v12.891h11.622l3.05-7.305h1.027V30H33.332zm26.949 0v-.94l3.613.05V.974L60.28.81V.007h10.937V.81l-3.483.164V29.11l3.483-.05V30H60.28zm13.965 0v-.94l3.37.05V.974L74.245.81V.007h10.782V.81l-3.32.164V29.11l3.32-.05V30H74.245zm13.822 0v-.94l3.462.05V.974L88.067.81V.007h22.519v8.789h-1.088l-2.811-7.572H95.621v13.288h6.025l2.428-4.715h1.034V21.53h-1.034l-2.428-5.586h-6.025V29.11l3.227-.05V30H88.067z" fill="#000"/><path fill-rule="evenodd" clip-rule="evenodd" d="M11.44.703l11.722 6.713c.529.368.424 1.218-.414.814-.989-.476-2.55-1.422-3.195-1.804l-3.182-1.829c-1.257-.722-1.873.454-.643 1.163l4.086 2.357c.557.321.657.752-.154.965L9.644 11.705c-.21-.361-.43-1.247-.968-.722L6.787 12.83c-.782 1.002-.2 1.144 1.72.576l16.318-4.257c.807-.27 1.173.753.242.94-.61.123-1.05.17-1.056.765l-.08 7.627-2.767.775.036-7.423c-.119-.936-1.117-.814-1.241.272l.034 7.479-2.187.61.012-6.05c0-.677-.756-.84-1.078-.377-.062.09-.109.316-.143.635l-.048 6.088-2.093.592-.005-4.676c-.01-.792-1.16-.523-1.16.153v4.828l-2.247.602V18.89c0-.89-1.22-.759-1.22-.016l.016 3.428c-.218.105-2.377.758-2.654.758-.22 0-5.256-2.813-6.017-3.274-1.3-.82-1.44.354-.707.784l4.95 2.897c1.53.911 1.246.943 3.161.47l15.839-4.356c1.388-.431 1.54.598.421.815-.844.165-1.902.498-2.6.701-3.842 1.123-10.828 3.074-14.851 4.072-.43.107-.63.097-.837-.02L.95 21.96c-.573-.33-1.553.343-.305 1.072l2.02 1.189c1.063.628 1.978 1.11 2.995 1.722.853.512 1.115.541 2.147.282l18.526-5.146c.572-.16 1.031.55.28.846l-15.031 4.114c-4.942 1.223-4.677 1.66-5.938.928L.95 24.244c-.561-.326-.925-.125-.925.223L0 29.012c0 .556.128.977.686.977l28.706-.003c.645 0 .754-.034.754-.705V.854c0-.783-.206-.846-.695-.846L12.016 0c-.648 0-1.077.416-.576.703z" fill="#303030"/></svg>