<svg width="126" height="35" viewBox="0 0 126 35" fill="none" xmlns="http://www.w3.org/2000/svg"><g clip-path="url(#clip0)"><g clip-path="url(#clip1)"><path d="M.367 30.689c0-1.913 1.262-3.499 3.019-3.499 1.083 0 1.715.454 2.311 1.092l-.443.542c-.503-.542-1.065-.928-1.875-.928-1.322 0-2.312 1.217-2.312 2.793 0 1.565.999 2.793 2.312 2.793.818 0 1.356-.358 1.928-.976l.443.532c-.623.716-1.306 1.15-2.389 1.15-1.722-.002-2.994-1.538-2.994-3.5zm23.181-3.432h.632l2.72 6.813h-.725l-.698-1.788h-3.25l-.708 1.788h-.692l2.721-6.813zm1.662 4.34l-1.356-3.45-1.364 3.45h2.72zm17.28-4.291h2.235c1.348 0 2.236.812 2.236 2.165 0 1.46-1.075 2.213-2.346 2.213h-1.45v2.388h-.674v-6.766h-.001zm2.149 3.681c.99 0 1.637-.6 1.637-1.507 0-.966-.64-1.47-1.604-1.47h-1.51v2.977h1.477zm18.021-3.681h.673v6.766h-.674v-6.766zm18.412.704h-2.005v-.705h4.692v.705h-2.005v6.06h-.683v-6.06zm19.804-.753h.631l2.721 6.813h-.725l-.699-1.788h-3.25l-.707 1.788h-.692l2.721-6.813zm1.662 4.34l-1.357-3.45-1.364 3.45h2.721zm17.279-4.291h.674v6.06h3.361v.706h-4.035v-6.766z" fill="#150D43"/><path d="M9.003 20.548L2.554 1.567v17.24l2.078.98v.515H0v-.515l2.035-.98V1.567L.044 1.224v-.54h4.783l5.432 15.744L15.799.684h4.372v.54l-1.991.343v17.852l1.991.368v.515H13.81v-.515l1.99-.367V2.302L9.394 20.548h-.39zm11.494-.246v-.515l1.991-.367V1.566l-1.99-.343v-.54h6.362v.54l-1.992.343v17.852l1.992.368v.515h-6.363zm6.743 0v-.515l1.991-.367V1.566l-1.991-.343v-.54h6.362v.54l-1.99.343v18.147h6.47l1.775-5.395h.584v5.983H27.24zm13.472 0v-.515l1.991-.367V1.566l-1.991-.343v-.54h6.362v.54l-1.99.343v18.147h6.47l1.775-5.395h.585v5.983H40.712z" fill="#000"/><path d="M60.885 10.996c-.614-.875-1.547-1.49-2.803-1.852l-3.874-1.153c-.996-.295-1.75-.694-2.262-1.2-.512-.508-.77-1.202-.77-2.085 0-1.193.362-2.153 1.083-2.88.72-.728 1.709-1.092 2.965-1.092 1.269 0 2.446.295 3.528.883l1.558 3.58h.477V.193h-.477l-1.58.76c-1.038-.507-2.214-.76-3.527-.76-1.054 0-1.962.242-2.726.724-.765.482-1.345 1.16-1.743 2.036-.398.874-.595 1.875-.595 3.003 0 1.242.317 2.317.952 3.225.634.908 1.58 1.549 2.834 1.925l3.593 1.055c1.197.343 2.062.805 2.596 1.385.534.58.801 1.37.801 2.367 0 1.374-.415 2.44-1.244 3.2-.83.761-1.88 1.14-3.149 1.14-1.488 0-2.814-.449-3.981-1.345a3.668 3.668 0 01-.22.623l.066-.038c1.299.866 2.619 1.3 3.961 1.3 1.66 0 2.982-.515 3.97-1.545.989-1.03 1.483-2.452 1.483-4.267.003-1.783-.304-3.111-.916-3.986zm1.303 9.306v-.515l1.992-.367V1.566l-1.992-.343v-.54h13.03V6.3h-.585l-1.667-5.003H66.56v9.195h3.658l1.276-3.554h.585v7.749h-.585l-1.276-3.605H66.56v8.337l1.991.368v.515h-6.363zm13.458 0v-.515l1.992-.367V1.566l-1.992-.343v-.54h6.363v.54l-1.991.343v17.852l1.99.368v.515h-6.362zm6.904 0v-.515l1.99-.367V1.566l-1.99-.343v-.54h13.029V6.3h-.585l-1.667-5.003h-6.406v8.828h2.813L91.01 6.57h.563v7.749h-.563l-1.298-3.605h-2.793v9h6.796l1.775-5.395h.563v5.983H82.55zm27.668-.515V1.567l-1.991-.343v-.54h8.289c1.586 0 2.997.404 4.231 1.214 1.234.809 2.197 1.953 2.889 3.433.693 1.479 1.039 3.2 1.039 5.161 0 1.962-.346 3.683-1.039 5.162-.693 1.48-1.659 2.624-2.901 3.433-1.241.81-2.647 1.214-4.22 1.214h-6.299v-.514h.002zm6.298-.073c1.053 0 1.987-.278 2.803-.833.814-.555 1.453-1.385 1.915-2.49.462-1.103.693-2.44.693-4.008V8.606c0-1.57-.231-2.903-.693-3.998-.462-1.095-1.101-1.921-1.915-2.476-.816-.555-1.75-.833-2.803-.833h-3.917v18.415h3.917z" fill="#000"/><path d="M96.507 20.302v-.515l1.992-.367V1.566l-1.992-.343v-.54h6.363v.54l-1.991.343v18.147h6.47l1.775-5.395h.585v5.983H96.507z" fill="#000"/></g></g><defs><clipPath id="clip0"><path fill="#fff" transform="translate(0 .194)" d="M0 0h125.25v33.992H0z"/></clipPath><clipPath id="clip1"><path fill="#fff" transform="translate(0 .194)" d="M0 0h124.675v33.992H0z"/></clipPath></defs></svg>