<svg width="421" height="271" viewBox="0 0 421 271" xmlns="http://www.w3.org/2000/svg" xmlns:xlink="http://www.w3.org/1999/xlink"><svg width="19" height="26" fill="none" viewBox="-5 -5 19 26" id="arrow" x="401" y="165" xmlns="http://www.w3.org/2000/svg"><path d="M1.161.995a.5.5 0 00-.348.859L6.96 8 .813 14.146a.5.5 0 10.707.707l6.5-6.5a.5.5 0 000-.707l-6.5-6.5a.5.5 0 00-.359-.151z" fill="#333" stroke="#333" stroke-width=".5"/></svg><svg height="106" width="106" viewBox="-5 -5 106 106" id="arrow-right-b" y="165" xmlns="http://www.w3.org/2000/svg"><path d="M12 52h62.344L52.888 73.456a4 4 0 105.657 5.656l28.283-28.284c.186-.186.352-.391.498-.609.067-.101.114-.21.172-.315.066-.124.142-.242.195-.373.057-.135.089-.275.129-.415.033-.111.076-.217.099-.331.052-.26.079-.522.079-.785l-.001-.009a4.032 4.032 0 00-.078-.774c-.024-.12-.069-.231-.104-.349-.039-.133-.069-.268-.123-.397-.058-.139-.136-.265-.208-.396-.054-.098-.097-.198-.159-.292a3.94 3.94 0 00-.501-.614L58.544 16.888a4.001 4.001 0 00-5.657 5.657L74.343 44H12a4 4 0 000 8z"/></svg><svg width="40" height="40" fill="none" viewBox="-5 -5 40 40" id="fond" x="250" y="165" xmlns="http://www.w3.org/2000/svg"><circle cx="15" cy="15" r="15" fill="#fff"/><mask id="ca" maskUnits="userSpaceOnUse" x="1" y="1" width="28" height="28"><path fill-rule="evenodd" clip-rule="evenodd" d="M11.625 1.649l10.888 6.27c.491.343.394 1.136-.385.76-.918-.445-2.369-1.329-2.967-1.685l-2.956-1.708c-1.167-.674-1.74.423-.597 1.086l3.796 2.201c.517.3.61.703-.144.9l-9.303 2.45c-.195-.337-.4-1.164-.898-.674l-1.755 1.726c-.726.936-.186 1.068 1.598.537l15.156-3.975c.75-.253 1.089.703.224.878-.565.115-.975.158-.98.714l-.074 7.123-2.57.724.033-6.933c-.11-.874-1.038-.76-1.153.255l.032 6.984-2.032.57.011-5.65c0-.633-.702-.784-1.001-.352-.058.083-.1.295-.133.592l-.044 5.687-1.944.553-.053-4.368c-.01-.74-1.03-.488-1.03.143l.04 4.488-2.126.583v-2.893c0-.832-1.133-.709-1.133-.015-.043.889.015 2.287.015 3.202-.203.098-2.209.708-2.465.708-.204 0-4.883-2.627-5.589-3.058-1.208-.766-1.338.33-.657.732l4.598 2.706c1.421.85 1.157.88 2.936.438l14.711-4.068c1.289-.402 1.43.558.391.762-.784.153-1.767.464-2.415.654-3.568 1.05-10.056 2.871-13.794 3.803-.7.175-.744.01-1.352-.371l-4.621-2.626c-.533-.31-1.443.32-.284 1l1.877 1.11c.987.587 1.837 1.038 2.78 1.609.793.478 1.036.506 1.995.264l17.208-4.807c.53-.148.957.514.259.79l-13.96 3.843c-4.59 1.142-4.345 1.55-5.516.866l-4.359-2.543c-.52-.304-.86-.117-.86.209L1 28.087c0 .52.12.913.637.913l26.662-.004c.6 0 .701-.03.701-.658V1.79c0-.731-.191-.79-.646-.79l-16.193.04c-.602 0-1.001.34-.536.609z" fill="#0B3267"/></mask><g mask="url(#ca)"><circle cx="15" cy="15" r="13" fill="#395B89"/></g></svg><svg width="38" height="38" fill="none" viewBox="-5 -5 38 38" id="fond2" x="363" y="165" xmlns="http://www.w3.org/2000/svg"><mask id="da" maskUnits="userSpaceOnUse" x="0" y="0" width="28" height="28"><path fill-rule="evenodd" clip-rule="evenodd" d="M10.625.649l10.888 6.27c.491.343.394 1.136-.385.76-.918-.445-2.369-1.329-2.967-1.685l-2.956-1.708c-1.167-.674-1.74.423-.597 1.086l3.796 2.201c.517.3.61.703-.144.9l-9.303 2.45c-.195-.337-.4-1.164-.898-.674l-1.755 1.726c-.726.936-.186 1.068 1.598.537l15.156-3.975c.75-.253 1.089.703.224.878-.565.115-.975.158-.98.714l-.074 7.123-2.57.724.033-6.933c-.11-.874-1.038-.76-1.153.255l.032 6.984-2.032.57.011-5.65c0-.633-.702-.784-1.001-.352-.058.083-.1.295-.133.592l-.044 5.687-1.944.553-.053-4.368c-.01-.74-1.03-.488-1.03.143l.04 4.488-2.126.583v-2.893c0-.832-1.133-.709-1.133-.015-.043.889.015 2.287.015 3.202-.203.098-2.209.708-2.465.708-.204 0-4.883-2.627-5.589-3.058-1.208-.766-1.338.33-.657.732l4.598 2.706c1.421.85 1.157.88 2.936.438l14.711-4.068c1.289-.402 1.43.558.391.762-.784.153-1.767.464-2.415.654-3.568 1.05-10.056 2.871-13.794 3.803-.7.175-.744.01-1.352-.371L.883 20.502c-.533-.31-1.443.32-.284 1l1.877 1.11c.987.587 1.837 1.038 2.78 1.609.793.478 1.036.506 1.995.264l17.208-4.807c.53-.148.957.514.259.79l-13.96 3.843c-4.59 1.142-4.345 1.55-5.516.866L.883 22.634c-.52-.304-.86-.117-.86.209L0 27.087c0 .52.12.913.637.913l26.662-.004c.6 0 .701-.03.701-.658V.79c0-.731-.191-.79-.646-.79L11.161.04c-.602 0-1.001.34-.536.609z" fill="#0B3267"/></mask><g mask="url(#da)"><circle cx="14" cy="14" r="13" fill="#395B89"/></g></svg><svg width="42" height="42" fill="none" viewBox="-5 -5 42 42" id="marker" x="124" y="165" xmlns="http://www.w3.org/2000/svg"><path opacity=".35" d="M5.333 13.333c0-5.89 4.776-10.666 10.667-10.666 5.89 0 10.666 4.776 10.666 10.666 0 4.752-5.418 11.536-8.532 15.04a2.857 2.857 0 01-4.269 0c-3.113-3.504-8.532-10.288-8.532-15.04z" fill="#424C57"/><path d="M16 17.333a4 4 0 100-8 4 4 0 000 8z" fill="#424C57"/></svg><svg width="42" height="42" fill="none" viewBox="-5 -5 42 42" id="message" x="166" y="165" xmlns="http://www.w3.org/2000/svg"><path opacity=".35" d="M25.334 26.667H6.667a4 4 0 01-4-4V9.333a4 4 0 014-4h18.667a4 4 0 014 4v13.334a4 4 0 01-4 4z" fill="#424C57"/><path d="M29.334 9.333v2.64l-9.28 5.574A7.911 7.911 0 0116 18.667c-1.4 0-2.8-.374-4.053-1.12l-9.28-5.574v-2.64c0-.64.147-1.24.427-1.773l10.92 6.56a3.863 3.863 0 003.973 0l10.92-6.56c.28.533.427 1.133.427 1.773z" fill="#424C57"/></svg><svg width="35" height="40" fill="none" viewBox="-5 -5 35 40" id="phone" x="290" y="165" xmlns="http://www.w3.org/2000/svg"><path d="M20.533 1.2h-16A3.133 3.133 0 001.4 4.333v21.334A3.133 3.133 0 004.533 28.8h16a3.133 3.133 0 003.134-3.133V4.333A3.133 3.133 0 0020.533 1.2zM7.2 17.067a.6.6 0 11-.001 1.2.6.6 0 01.001-1.2zm-.6-4.734a.6.6 0 111.201.001.6.6 0 01-1.201 0zM12.533 23.6H7.2a.6.6 0 010-1.2h5.333a.6.6 0 010 1.2zm0-5.333a.6.6 0 11.001-1.201.6.6 0 010 1.2zm0-5.334a.6.6 0 11.001-1.2.6.6 0 010 1.2zM17.867 23.6a.6.6 0 110-1.201.6.6 0 010 1.201zm0-5.333a.6.6 0 110-1.202.6.6 0 010 1.202zm0-5.334a.6.6 0 110-1.2.6.6 0 010 1.2zm.6-5.333H6.6V6.4h11.867v1.2z" fill="#395B89" stroke="#fff" stroke-width="2"/></svg><svg width="42" height="42" fill="none" viewBox="-5 -5 42 42" id="phone2" x="208" y="165" xmlns="http://www.w3.org/2000/svg"><path opacity=".35" d="M4.115 10.027c.296 2.204 1.454 7.269 6.022 11.837 4.568 4.568 9.632 5.727 11.838 6.023a4.96 4.96 0 004.57-1.335c1.942-1.941-5.09-8.973-7.032-7.032l-1.238 1.239-7.032-7.032 1.237-1.239c1.941-1.941-5.09-8.973-7.032-7.032a4.956 4.956 0 00-1.333 4.57z" fill="#424C57"/><path d="M5.452 5.452l7.03 7.03a4.972 4.972 0 00-7.03-7.03zm14.064 14.064l7.03 7.03a4.972 4.972 0 00-7.03-7.03z" fill="#424C57"/></svg><svg width="38" height="40" fill="none" viewBox="-5 -5 38 40" id="star" x="325" y="165" xmlns="http://www.w3.org/2000/svg"><path d="M3.985 3.306l-.065-.303h0l.065.303zm-.21-.974s0 0 0 0l-.001-.003-.288.062-.02.02c-.581.182-1.1.53-1.488 1.004l.773.634-.773-.634c-.46.56-.71 1.26-.711 1.984V11.8c0 5.901 2.853 10.078 5.655 12.747a22.691 22.691 0 003.845 2.937c.525.319.965.555 1.277.714a13.006 13.006 0 00.467.226c.457.246.969.376 1.489.376h.002a3.134 3.134 0 001.461-.365l.022-.01.103-.047c.087-.04.212-.1.368-.18.312-.159.752-.395 1.277-.714a22.686 22.686 0 003.846-2.937c2.802-2.67 5.654-6.846 5.654-12.747V5.4s0 0 0 0c0-.725-.25-1.428-.711-1.99l-.761.626.76-.625a3.133 3.133 0 00-1.803-1.084l-.01-.002-.046-.01-.178-.036a60.733 60.733 0 00-2.991-.515C19.078 1.484 16.522 1.2 14 1.2c-2.522 0-5.078.283-6.993.564a60.706 60.706 0 00-2.991.515 26.01 26.01 0 00-.178.036l-.046.01-.013.003h-.004 0-.001v.004zM14.8 12.126l.226.672.709.008 2.497.03-2.003 1.491-.569.423.212.677.744 2.386-2.039-1.445-.578-.41-.578.41-2.04 1.445.745-2.386.212-.677-.569-.423-2.003-1.491 2.497-.03.709-.008.226-.672L14 9.757l.8 2.37zm2.222 6.984s0 0 0 0h0zm.703-.511s0 0 0 0h0zm-7.453 0h.001zm3.292-10.13v.001h0z" fill="#395B89" stroke="#fff" stroke-width="2"/></svg><svg width="81" height="18" fill="none" viewBox="-5 -5 81 18" id="str-arrow1" x="232" y="113" xmlns="http://www.w3.org/2000/svg"><path d="M60 0v8l11-4.121L60 0z" fill="#B6C3D5"/><path d="M0 4h60" stroke="#B6C3D5" stroke-width="2"/></svg><svg width="81" height="18" fill="none" viewBox="-5 -5 81 18" id="str-arrow2" x="313" y="113" xmlns="http://www.w3.org/2000/svg"><path d="M11 8V0L0 4.121 11 8z" fill="#B6C3D5"/><path d="M71 4H11" stroke="#B6C3D5" stroke-width="2"/></svg><svg width="421" height="113" fill="none" viewBox="-5 -5 421 113" id="str-arrow3" xmlns="http://www.w3.org/2000/svg"><path d="M1 103V31C1 14.431 14.431 1 31 1h367.543C404.871 1 410 6.13 410 12.457v0" stroke="#B6C3D5" stroke-width="2"/></svg><svg width="18" height="52" fill="none" viewBox="-5 -5 18 52" id="str-arrow4" x="106" y="165" xmlns="http://www.w3.org/2000/svg"><path d="M8 31H0l4.121 11L8 31z" fill="#B6C3D5"/><path d="M4 0v31" stroke="#B6C3D5" stroke-width="2"/></svg><svg width="232" height="52" fill="none" viewBox="-5 -5 232 52" id="str-arrow5" y="113" xmlns="http://www.w3.org/2000/svg"><path d="M1 0v8c0 16.569 13.431 30 30 30h180" stroke="#B6C3D5" stroke-width="2"/><path d="M211 34v8l11-4.121L211 34z" fill="#B6C3D5"/></svg><svg width="46" height="18" fill="none" viewBox="-5 -5 46 18" id="str-arrow6" x="232" y="131" xmlns="http://www.w3.org/2000/svg"><path d="M25 0v8l11-4.121L25 0z" fill="#B6C3D5"/><path d="M0 4h25" stroke="#B6C3D5" stroke-width="2"/></svg><svg width="18" height="21" fill="none" viewBox="-5 -5 18 21" id="str-arrow7" x="106" y="217" xmlns="http://www.w3.org/2000/svg"><path d="M8 0H0l4.121 11L8 0z" fill="#B6C3D5"/></svg></svg>