<svg id="Слой_1" data-name="Слой 1" xmlns="http://www.w3.org/2000/svg" xmlns:xlink="http://www.w3.org/1999/xlink" viewBox="0 0 780 280"><defs><style>.cls-1{fill:#fff;}.cls-2{fill:#f2f4f6;}.cls-3{fill:url(#Безымянный_градиент);}.cls-4{fill:#0b3267;}.cls-5{fill:#b6c3d5;}.cls-6{fill:none;stroke:#b6c3d5;}.cls-6,.cls-9{stroke-width:2px;}.cls-7,.cls-9{fill:#395b89;}.cls-8{fill:#f2f2f2;}.cls-9{stroke:#fff;}.cls-10{fill:#dbe0e8;}</style><radialGradient id="Безымянный_градиент" cx="-469.15" cy="-123.33" r="1" gradientTransform="translate(-17853.22 40856.02) rotate(90) scale(86.62 147.92)" gradientUnits="userSpaceOnUse"><stop offset="0.38" stop-color="#fff"/><stop offset="1" stop-color="#fff" stop-opacity="0"/></radialGradient></defs><path class="cls-1" d="M0,0H780V280H0Z" transform="translate(0 0)"/><path class="cls-2" d="M216,119H564a16,16,0,0,1,16,16V260a16,16,0,0,1-16,16H216a16,16,0,0,1-16-16V135A16,16,0,0,1,216,119Z" transform="translate(0 0)"/><path class="cls-3" d="M216,119H564a16,16,0,0,1,16,16V260a16,16,0,0,1-16,16H216a16,16,0,0,1-16-16V135A16,16,0,0,1,216,119Z" transform="translate(0 0)"/><path class="cls-4" d="M272.7,244h8.8v-2.3h-6.1v-3.1H281v-2.3h-5.6v-3.1h6.1v-2.3h-8.8V244Zm19.4-4.2a1.86,1.86,0,0,1-1.9,2,1.69,1.69,0,0,1-1.7-1.9v-5.8h-2.7v6.3c0,2.3,1.3,3.7,3.3,3.7a3.14,3.14,0,0,0,3-1.9h.1V244h2.6v-9.8h-2.7v5.6ZM299,244h2.7v-5.6a2,2,0,0,1,2.1-2c.4,0,.9.1,1.2.1v-2.4a2.77,2.77,0,0,0-.9-.1,2.41,2.41,0,0,0-2.4,1.9h-.1v-1.7H299Zm13.4.2c3,0,4.8-2,4.8-5.1s-1.9-5.1-4.8-5.1-4.8,2-4.8,5.1S309.5,244.2,312.4,244.2Zm.1-2.1c-1.4,0-2.1-1.3-2.1-3s.7-3,2.1-3,2.1,1.3,2.1,3S313.8,242.1,312.5,242.1Zm8.6,5.6h2.7v-5.3h.1a2.94,2.94,0,0,0,2.8,1.7c2.2,0,4-1.8,4-5.1s-1.8-5.1-4-5.1a3,3,0,0,0-2.8,1.8h-.1v-1.6h-2.7v13.6Zm2.7-8.6c0-1.8.7-2.9,2.1-2.9s2.1,1.2,2.1,2.9-.7,2.9-2.1,2.9S323.8,240.8,323.8,239.1Zm15.3,5.1c2.4,0,4.1-1.2,4.4-3L341,241a1.94,1.94,0,0,1-1.9,1.1,2.11,2.11,0,0,1-2.2-2.4h6.7V239c0-3.3-2-5-4.6-5-2.9,0-4.8,2.1-4.8,5.1s1.8,5.1,4.9,5.1Zm-2.2-6.1a2.09,2.09,0,0,1,2.1-2,1.89,1.89,0,0,1,2,2Zm13.3,6.1a3,3,0,0,0,2.9-1.5h.1v1.4h2.6v-6.6c0-2.3-2-3.3-4.2-3.3-2.4,0-3.9,1.1-4.3,2.9l2.5.2a1.59,1.59,0,0,1,1.7-1.1,1.32,1.32,0,0,1,1.5,1.3h0c0,.6-.7.7-2.4.9-1.9.2-3.7.8-3.7,3,0,1.8,1.4,2.8,3.3,2.8Zm.8-1.9c-.8,0-1.4-.4-1.4-1.1s.6-1.1,1.6-1.3a7.81,7.81,0,0,0,1.9-.4v1a2,2,0,0,1-2.1,1.8Zm11.6-4a1.81,1.81,0,0,1,1.9-2,1.6,1.6,0,0,1,1.7,1.9V244h2.7v-6.3c0-2.3-1.3-3.7-3.4-3.7a3,3,0,0,0-3,1.9h-.1v-1.7h-2.6V244h2.7l.1-5.7Zm16.9,5.7h2.8v-4.2h2.3c3,0,4.8-1.8,4.8-4.4s-1.7-4.4-4.7-4.4h-5.2v13Zm2.7-6.5v-4.4h1.9a2.21,2.21,0,1,1,0,4.4Zm10.9,6.5h2.7v-5.6a2,2,0,0,1,2.1-2c.4,0,.9.1,1.2.1v-2.4a2.77,2.77,0,0,0-.9-.1,2.41,2.41,0,0,0-2.4,1.9h-.1v-1.7h-2.6V244Zm9.5,0h2.7v-9.8h-2.7Zm1.3-11.1a1.4,1.4,0,1,0-1.5-1.4A1.52,1.52,0,0,0,403.9,232.9Zm5.7,11.1h2.7v-5.9a1.64,1.64,0,0,1,1.6-1.8,1.45,1.45,0,0,1,1.5,1.6V244H418v-6a1.55,1.55,0,0,1,1.6-1.7,1.4,1.4,0,0,1,1.5,1.6V244h2.7v-6.6a3.19,3.19,0,0,0-6.1-1.4h-.1a2.65,2.65,0,0,0-2.7-1.9,2.7,2.7,0,0,0-2.7,1.9h-.1v-1.7h-2.6V244Zm22.9.2c2.4,0,4.1-1.2,4.4-3l-2.5-.2a1.94,1.94,0,0,1-1.9,1.1,2.11,2.11,0,0,1-2.2-2.4H437V239c0-3.3-2-5-4.6-5-2.9,0-4.8,2.1-4.8,5.1s1.9,5.1,4.9,5.1Zm-2.2-6.1a2.09,2.09,0,0,1,2.1-2,1.89,1.89,0,0,1,2,2Zm16.9,5.9h5.6c2.9,0,4.5-1.5,4.5-3.6a3.11,3.11,0,0,0-2.9-3.2v-.1a2.8,2.8,0,0,0,2.4-2.8c0-2-1.5-3.4-4.3-3.4h-5.2l-.1,13.1Zm2.7-2.3v-3.5h2.3a2,2,0,0,1,2.2,1.8c0,1-.7,1.6-2.2,1.6h-2.3Zm0-5.3v-3.2H452c1.2,0,1.9.6,1.9,1.6a1.77,1.77,0,0,1-2,1.7h-2Zm11.2,7.6h2.7v-5.6a2,2,0,0,1,2.1-2c.4,0,.9.1,1.1.1v-2.4a2.77,2.77,0,0,0-.9-.1,2.41,2.41,0,0,0-2.4,1.9h-.1v-1.7H461V244Zm13.4.2c3,0,4.8-2,4.8-5.1s-1.9-5.1-4.8-5.1-4.8,2-4.8,5.1S471.5,244.2,474.5,244.2Zm0-2.1c-1.4,0-2.1-1.3-2.1-3s.7-3,2.1-3,2.1,1.3,2.1,3S475.9,242.1,474.5,242.1Zm8.7,1.9h2.7v-3.1l.7-.8,2.7,4h3.2l-3.8-5.6,3.6-4.3h-3.1l-3.1,3.7H486v-7h-2.7l-.1,13.1Zm16.6.2c2.4,0,4.1-1.2,4.4-3l-2.5-.2a1.94,1.94,0,0,1-1.9,1.1,2.11,2.11,0,0,1-2.2-2.4h6.7V239c0-3.3-2-5-4.6-5-2.9,0-4.8,2.1-4.8,5.1s1.9,5.1,4.9,5.1Zm-2.2-6.1a2.09,2.09,0,0,1,2.1-2,1.89,1.89,0,0,1,2,2Zm10.5,5.9h2.7v-5.6a2,2,0,0,1,2.1-2c.4,0,.9.1,1.2.1v-2.4a2.77,2.77,0,0,0-.9-.1,2.41,2.41,0,0,0-2.4,1.9h-.1v-1.7h-2.6Z" transform="translate(0 0)"/><path class="cls-5" d="M205,167v8l11-4.1Z" transform="translate(0 0)"/><path class="cls-6" d="M180,171h25" transform="translate(0 0)"/><path class="cls-5" d="M575,175v-8l-11,4.1Z" transform="translate(0 0)"/><path class="cls-6" d="M600,171H575" transform="translate(0 0)"/><path class="cls-5" d="M285,120h-8l4.1,11Z" transform="translate(0 0)"/><path class="cls-6" d="M281,89v31" transform="translate(0 0)"/><path class="cls-5" d="M503,120h-8l4.1,11Z" transform="translate(0 0)"/><path class="cls-6" d="M499,89v31" transform="translate(0 0)"/><path class="cls-5" d="M503,13h-8l4.1,11Z" transform="translate(0 0)"/><path class="cls-7" d="M224,135H338a8,8,0,0,1,8,8v48a8,8,0,0,1-8,8H224a8,8,0,0,1-8-8V143A8,8,0,0,1,224,135Z" transform="translate(0 0)"/><path class="cls-7" d="M442,135H556a8,8,0,0,1,8,8v48a8,8,0,0,1-8,8H442a8,8,0,0,1-8-8V143A8,8,0,0,1,442,135Z" transform="translate(0 0)"/><path class="cls-5" d="M406,174v8l11-4.1Z" transform="translate(0 0)"/><path class="cls-6" d="M346,178h60" transform="translate(0 0)"/><path class="cls-5" d="M374,165v-8l-11,4.1Z" transform="translate(0 0)"/><path class="cls-6" d="M434,161H374M90,106V34A30,30,0,0,1,120,4H487.5A11.5,11.5,0,0,1,499,15.5" transform="translate(0 0)"/><path class="cls-7" d="M224,44H338a8,8,0,0,1,8,8V80a8,8,0,0,1-8,8H224a8,8,0,0,1-8-8V52A8,8,0,0,1,224,44Z" transform="translate(0 0)"/><path class="cls-8" d="M249.3,59.9h-2.8V73h2.8Zm4.9,7.4a1.81,1.81,0,0,1,1.9-2,1.6,1.6,0,0,1,1.7,1.9V73h2.7V66.7c0-2.3-1.3-3.7-3.4-3.7a3,3,0,0,0-3,1.9H254V63.2h-2.6V73h2.7V67.3Zm17.3-4.1h-2.9l-2,7h-.1l-2-7h-2.9L265,73h3.1Zm5.5,10c2.4,0,4.1-1.2,4.4-3L279,70a1.94,1.94,0,0,1-1.9,1.1,2.11,2.11,0,0,1-2.2-2.4h6.7V68c0-3.3-2-5-4.6-5-2.9,0-4.8,2.1-4.8,5.1S274,73.2,277,73.2Zm-2.1-6.1a2.09,2.09,0,0,1,2.1-2,1.89,1.89,0,0,1,2,2ZM291.5,66c-.2-1.8-1.7-2.9-4.2-2.9s-4.2,1.2-4.2,3.1c0,1.5.9,2.4,2.8,2.8l1.7.3c.9.2,1.2.5,1.3,1s-.6,1-1.6,1a1.61,1.61,0,0,1-1.8-1.2l-2.7.1c.3,1.9,1.9,3,4.5,3s4.4-1.3,4.4-3.2c0-1.4-.9-2.3-2.8-2.7l-1.8-.4c-.9-.2-1.3-.5-1.2-1s.7-1,1.5-1a1.47,1.47,0,0,1,1.6,1.2l2.5-.1Zm7.1-2.8h-1.8V60.8h-2.7v2.4h-1.3v2h1.3v5.1c0,1.9,1.3,2.9,3.3,2.8a4,4,0,0,0,1.5-.3l-.4-2a5.64,5.64,0,0,1-.7.1c-.5,0-.9-.2-.9-1V65.1h1.8l-.1-1.9Zm6.2,10c3,0,4.8-2,4.8-5.1s-1.9-5.1-4.8-5.1-4.8,2-4.8,5.1S301.8,73.2,304.8,73.2Zm0-2.1c-1.4,0-2.1-1.3-2.1-3s.7-3,2.1-3,2.1,1.3,2.1,3S306.1,71.1,304.8,71.1Zm6.6,1.9h2.7V67.4a2,2,0,0,1,2.1-2c.4,0,.9.1,1.2.1V63.1a2.77,2.77,0,0,0-.9-.1,2.41,2.41,0,0,0-2.4,1.9H314V63.2h-2.6Z" transform="translate(0 0)"/><path class="cls-7" d="M442,44H556a8,8,0,0,1,8,8V80a8,8,0,0,1-8,8H442a8,8,0,0,1-8-8V52A8,8,0,0,1,442,44Z" transform="translate(0 0)"/><path class="cls-8" d="M477.9,73h2.8V67.6H486V65.3h-5.3V62.2h5.9V59.9h-8.7V73Zm16.2-4.2a1.86,1.86,0,0,1-1.9,2,1.69,1.69,0,0,1-1.7-1.9V63.1h-2.7v6.3c0,2.3,1.3,3.7,3.3,3.7a3.14,3.14,0,0,0,3-1.9h.1V73h2.6V63.2h-2.7v5.6Zm7.6-1.5a1.81,1.81,0,0,1,1.9-2,1.6,1.6,0,0,1,1.7,1.9V73H508V66.7c0-2.3-1.3-3.7-3.4-3.7a3,3,0,0,0-3,1.9h-.1V63.2H499V73h2.7V67.3Zm12.1,5.9a2.94,2.94,0,0,0,2.8-1.7h.1V73h2.7V59.9h-2.7v4.9h-.1a3,3,0,0,0-2.8-1.8c-2.2,0-4,1.7-4,5.1s1.8,5.1,4,5.1Zm.9-2.2c-1.3,0-2.1-1.2-2.1-2.9s.7-2.9,2.1-2.9,2.1,1.1,2.1,2.9S516,71,514.7,71Z" transform="translate(0 0)"/><path class="cls-7" d="M8,137H172a8,8,0,0,1,8,8v46a8,8,0,0,1-8,8H8a8,8,0,0,1-8-8V145A8,8,0,0,1,8,137Z" transform="translate(0 0)"/><path class="cls-9" d="M80,103.3l-.1-.3Zm-.2-1h0l-.3.1h0a3.12,3.12,0,0,0-2.2,3v6.4A17.12,17.12,0,0,0,83,124.5a25.51,25.51,0,0,0,3.8,2.9,8.79,8.79,0,0,0,1.3.7c.2.1.3.1.4.2h.1a4.19,4.19,0,0,0,1.5.4h0a2.82,2.82,0,0,0,1.5-.4h.1c.1,0,.2-.1.4-.2s.8-.4,1.3-.7a18.19,18.19,0,0,0,3.8-2.9,17.3,17.3,0,0,0,5.7-12.7v-6.4a3.21,3.21,0,0,0-2.5-3.1h-.2c-.2,0-.4-.1-.7-.1-.8-.1-1.6-.3-2.3-.4a46.88,46.88,0,0,0-7-.6,46.88,46.88,0,0,0-7,.6,20.69,20.69,0,0,0-2.3.4,2,2,0,0,1-.7.1Zm11,9.8.2.7h3.2l-2,1.5-.6.4.2.7.7,2.4-2-1.4L90,116l-.6.4-2,1.4.7-2.4.2-.7-.6-.4-2-1.5h3.2l.2-.7.8-2.4Z" transform="translate(0 0)"/><path class="cls-7" d="M608,135H772a8,8,0,0,1,8,8v48a8,8,0,0,1-8,8H608a8,8,0,0,1-8-8V143A8,8,0,0,1,608,135Z" transform="translate(0 0)"/><path class="cls-6" d="M90,199v8a30,30,0,0,0,30,30H256.3" transform="translate(0 0)"/><path class="cls-5" d="M256.3,233v8l8.7-4.1Z" transform="translate(0 0)"/><path class="cls-6" d="M690,199v8a30,30,0,0,1-30,30H534" transform="translate(0 0)"/><path class="cls-5" d="M534,241v-8l-11,4.1Z" transform="translate(0 0)"/><path class="cls-9" d="M698.5,116.2h-16a3.12,3.12,0,0,0-3.1,3.1h0v21.3a3.12,3.12,0,0,0,3.1,3.1h16a3.12,3.12,0,0,0,3.1-3.1h0V119.3a3,3,0,0,0-3.1-3.1Zm-13.3,15.9a.6.6,0,1,1-.6.6.58.58,0,0,1,.6-.6Zm-.6-4.8a.6.6,0,1,1,1.2,0h0a.65.65,0,0,1-.6.6A.58.58,0,0,1,684.6,127.3Zm5.9,11.3h-5.3a.6.6,0,0,1,0-1.2h5.3a.65.65,0,0,1,.6.6.58.58,0,0,1-.6.6Zm0-5.3a.6.6,0,1,1,.6-.6A.58.58,0,0,1,690.5,133.3Zm0-5.4a.6.6,0,1,1,.6-.6A.53.53,0,0,1,690.5,127.9Zm5.4,10.7a.6.6,0,1,1,.6-.6A.65.65,0,0,1,695.9,138.6Zm0-5.3a.6.6,0,1,1,.6-.6A.65.65,0,0,1,695.9,133.3Zm0-5.4a.6.6,0,1,1,.6-.6A.58.58,0,0,1,695.9,127.9Zm.6-5.3H684.6v-1.2h11.9v1.2Z" transform="translate(0 0)"/><circle class="cls-1" cx="499" cy="38" r="15"/><circle class="cls-9" cx="281" cy="36" r="14"/><path class="cls-1" d="M281,23.2c-4.2,0-6,2.5-6,5.6a6,6,0,0,0,.5,2.1A1.07,1.07,0,0,0,275,32c.2,1.2.7,1.5,1.1,1.5a4.41,4.41,0,0,0,1.9,2.7V38h0a1,1,0,0,0-.8.5l-.3.6c-2.5,1.3-7.9,1-7.9,6.3h10.3l1.2-3.6-1.1-1.9h3.3l-1.1,1.9,1.2,3.6h3.3v-.9a.92.92,0,0,1,1-.9h2a.92.92,0,0,1,1,.9v.9h3c0-5.4-5.4-5-7.9-6.3l-.3-.6a.79.79,0,0,0-.8-.5h0V36.1a4.83,4.83,0,0,0,1.9-2.7c.4,0,.9-.3,1.1-1.5a1.07,1.07,0,0,0-.5-1.1,4.74,4.74,0,0,0,.5-2.1c0-2.3-1-4.2-3-4.2a4.12,4.12,0,0,0-3.1-1.3Z" transform="translate(0 0)"/><path class="cls-10" d="M499.38,25l6.89,3.68s.54.45.21.66-.92-.07-.92-.07l-5.46-3s-.86-.21-1.09,0,0,.76,0,.76,4.5,2.3,4.42,2.63a.48.48,0,0,1-.42.36s-9.2,2.31-9.53,2.22.09-.55-.19-.62a.45.45,0,0,0-.45.12s-2.23,2-1.85,2.22a.56.56,0,0,0,.62.07l16.18-4s.52-.1.68.28a.34.34,0,0,1-.19.5l-1.3.45V38l-2.69.71v-6s-.31-.61-.69-.52-.5.8-.5.8V39l-2,.49v-5a.57.57,0,0,0-.62-.45c-.52.05-.42.76-.42.76v5l-2.09.66V36.37a.43.43,0,0,0-.54-.26.7.7,0,0,0-.43.61v4l-2.08.62V38.43s0-.5-.57-.38a.59.59,0,0,0-.54.61V41.6a14.78,14.78,0,0,1-2.44.61,1.13,1.13,0,0,1-1-.31L486,39.53a12.31,12.31,0,0,0,.34,1.73c.91.52,4.29,2.42,4.83,2.39a3.8,3.8,0,0,0,1.07-.17l15.27-4.56s.55-.16.7.1a.37.37,0,0,1-.05.45l-13.81,4.18a30.89,30.89,0,0,1-3.06.78,2.51,2.51,0,0,1-.95-.18l-3.67-2,0,0a9.4,9.4,0,0,0,.52,1.27,20.08,20.08,0,0,0,3.89,1.72,3.54,3.54,0,0,0,1-.16l16.83-5a.57.57,0,0,1,.54.2c.15.26,0,.39,0,.39l-15.23,4.61a30.18,30.18,0,0,1-3.06.78,2.51,2.51,0,0,1-.95-.18l-2.49-1.24A13,13,0,1,0,499.38,25Z" transform="translate(0 0)"/><path class="cls-1" d="M245.12,152.6h1.26v12.6h-1.26Z" transform="translate(0 0)"/><path class="cls-1" d="M249.39,156.2h.93l.15,1.35h0a3.29,3.29,0,0,1,2.86-1.48,3.34,3.34,0,0,1,2.51.93,3.74,3.74,0,0,1,.9,2.71v5.49h-1.19v-5.4a2.82,2.82,0,0,0-.62-2,2.38,2.38,0,0,0-1.79-.65,2.55,2.55,0,0,0-1.88.73,2.63,2.63,0,0,0-.72,1.92v5.4h-1.18Z" transform="translate(0 0)"/><path class="cls-1" d="M258,156.2h1.3l2.93,7.74h0L265,156.2h1.22l-3.35,9h-1.4Z" transform="translate(0 0)"/><path class="cls-1" d="M269.38,165a3.26,3.26,0,0,1-1.22-.84,3.75,3.75,0,0,1-.78-1.35,5.47,5.47,0,0,1-.28-1.84v-.62a5.5,5.5,0,0,1,.28-1.83,3.64,3.64,0,0,1,.79-1.36,3.34,3.34,0,0,1,1.22-.84,4.45,4.45,0,0,1,3.16,0,3.32,3.32,0,0,1,1.23.85,4.06,4.06,0,0,1,.78,1.37,5.8,5.8,0,0,1,.28,1.9V161h-6.52a3.65,3.65,0,0,0,.69,2.4,2.4,2.4,0,0,0,2,.83,3,3,0,0,0,1.61-.39,2.24,2.24,0,0,0,.94-1.18h1.23a3.31,3.31,0,0,1-1.29,2,4.24,4.24,0,0,1-2.49.68A4.29,4.29,0,0,1,269.38,165Zm-.27-7.16a3.34,3.34,0,0,0-.79,2.14h5.29a3.15,3.15,0,0,0-.8-2.16,2.74,2.74,0,0,0-3.7,0Z" transform="translate(0 0)"/><path class="cls-1" d="M277.48,164.6a3,3,0,0,1-1-1.92h1.23a1.84,1.84,0,0,0,.65,1.15,2.53,2.53,0,0,0,1.63.42,2.61,2.61,0,0,0,1.63-.4,1.28,1.28,0,0,0,.48-1,1.07,1.07,0,0,0-.4-.9,3.33,3.33,0,0,0-1-.54c-.41-.13-.84-.26-1.31-.37a7.11,7.11,0,0,1-1.3-.46,3,3,0,0,1-1-.76,1.89,1.89,0,0,1-.41-1.28,2.2,2.2,0,0,1,.8-1.72,3.42,3.42,0,0,1,2.35-.71,3.73,3.73,0,0,1,2.48.71,2.63,2.63,0,0,1,.94,1.76H282a1.76,1.76,0,0,0-.63-1,2.59,2.59,0,0,0-1.57-.38,2.36,2.36,0,0,0-1.48.37,1.21,1.21,0,0,0-.44,1,1,1,0,0,0,.4.84,3.52,3.52,0,0,0,1,.49c.4.12.84.24,1.31.36a6.66,6.66,0,0,1,1.3.46,3.06,3.06,0,0,1,1,.8,2.08,2.08,0,0,1,.4,1.36,2.47,2.47,0,0,1-.2,1,2.28,2.28,0,0,1-.62.8,3.28,3.28,0,0,1-1,.53,4.88,4.88,0,0,1-1.47.2A3.77,3.77,0,0,1,277.48,164.6Z" transform="translate(0 0)"/><path class="cls-1" d="M287.08,164.89a2,2,0,0,1-1-1.51,5.24,5.24,0,0,1,0-.56v-5.54h-1.62V156.2h1.62v-2.52h1.19v2.52h2.41v1.08h-2.41v5.4a2.46,2.46,0,0,0,.08.65,1.06,1.06,0,0,0,.25.44,1.29,1.29,0,0,0,.42.26,1.72,1.72,0,0,0,.58.09h1.26v1.08h-1.4A2.5,2.5,0,0,1,287.08,164.89Z" transform="translate(0 0)"/><path class="cls-1" d="M292.23,164.2a4.42,4.42,0,0,1-1.08-3.19v-.62a5.77,5.77,0,0,1,.27-1.83,3.68,3.68,0,0,1,.81-1.36,3.29,3.29,0,0,1,1.25-.84,4.42,4.42,0,0,1,1.63-.29,3.81,3.81,0,0,1,2.88,1.12,4.41,4.41,0,0,1,1.08,3.2V161a5.76,5.76,0,0,1-.28,1.83,3.89,3.89,0,0,1-.8,1.36,3.4,3.4,0,0,1-1.26.84,4.37,4.37,0,0,1-1.62.29A3.81,3.81,0,0,1,292.23,164.2Zm4.86-.76a3.47,3.47,0,0,0,.75-2.43v-.62a3.49,3.49,0,0,0-.75-2.42,2.61,2.61,0,0,0-2-.82,2.56,2.56,0,0,0-2,.81,3.47,3.47,0,0,0-.75,2.43V161a3.44,3.44,0,0,0,.76,2.42,2.81,2.81,0,0,0,4,0Z" transform="translate(0 0)"/><path class="cls-1" d="M301.26,156.2h.94l.14,1.35h0a3.27,3.27,0,0,1,1.2-1.12,3.6,3.6,0,0,1,1.66-.36h.88v1.08h-.9a2.81,2.81,0,0,0-2,.71,2.58,2.58,0,0,0-.73,1.94v5.4h-1.19Z" transform="translate(0 0)"/><path class="cls-1" d="M308.5,152.6h1.44l-1.26,4.23H307.6Z" transform="translate(0 0)"/><path class="cls-1" d="M312.66,164.6a3,3,0,0,1-1-1.92h1.23a1.84,1.84,0,0,0,.65,1.15,2.53,2.53,0,0,0,1.63.42,2.61,2.61,0,0,0,1.63-.4,1.28,1.28,0,0,0,.48-1,1.08,1.08,0,0,0-.41-.9,3.27,3.27,0,0,0-1-.54c-.41-.13-.84-.26-1.31-.37a7.11,7.11,0,0,1-1.3-.46,3,3,0,0,1-1-.76,1.89,1.89,0,0,1-.41-1.28,2.2,2.2,0,0,1,.8-1.72,3.42,3.42,0,0,1,2.35-.71,3.73,3.73,0,0,1,2.48.71,2.63,2.63,0,0,1,.94,1.76h-1.22a1.76,1.76,0,0,0-.63-1,2.59,2.59,0,0,0-1.57-.38,2.36,2.36,0,0,0-1.48.37,1.21,1.21,0,0,0-.44,1,1,1,0,0,0,.4.84,3.52,3.52,0,0,0,1,.49c.4.12.84.24,1.31.36a6.66,6.66,0,0,1,1.3.46,3.06,3.06,0,0,1,1,.8,2.08,2.08,0,0,1,.4,1.36,2.47,2.47,0,0,1-.2,1,2.28,2.28,0,0,1-.62.8,3.28,3.28,0,0,1-1,.53,4.88,4.88,0,0,1-1.47.2A3.82,3.82,0,0,1,312.66,164.6Z" transform="translate(0 0)"/><path class="cls-1" d="M252.35,168.35h1.44l4.68,12.6H257.1l-1.31-3.65h-5.51L249,181h-1.29Zm3,7.79-2.3-6.44h0l-2.34,6.44Z" transform="translate(0 0)"/><path class="cls-1" d="M261,180a4.67,4.67,0,0,1-1-3.29v-.62a5.22,5.22,0,0,1,.28-1.79,3.74,3.74,0,0,1,.77-1.32,3.27,3.27,0,0,1,1.2-.83,4,4,0,0,1,1.53-.29,4.46,4.46,0,0,1,1.42.21,3.28,3.28,0,0,1,1.08.58,2.88,2.88,0,0,1,.72.84,3.4,3.4,0,0,1,.38,1h-1.23a2.26,2.26,0,0,0-.73-1.12,2.37,2.37,0,0,0-1.55-.45,2.47,2.47,0,0,0-1.9.81,3.32,3.32,0,0,0-.75,2.34v.62a3.57,3.57,0,0,0,.76,2.48,2.43,2.43,0,0,0,1.89.85,2.31,2.31,0,0,0,1.55-.47,2.36,2.36,0,0,0,.73-1.28h1.23a3.7,3.7,0,0,1-.38,1.12,3,3,0,0,1-.72.9,3.3,3.3,0,0,1-1.08.59,4.45,4.45,0,0,1-1.42.22A3.6,3.6,0,0,1,261,180Z" transform="translate(0 0)"/><path class="cls-1" d="M270.13,180a4.67,4.67,0,0,1-1-3.29v-.62a5.22,5.22,0,0,1,.28-1.79,3.74,3.74,0,0,1,.77-1.32,3.27,3.27,0,0,1,1.2-.83,4,4,0,0,1,1.53-.29,4.46,4.46,0,0,1,1.42.21,3.28,3.28,0,0,1,1.08.58,2.88,2.88,0,0,1,.72.84,3.4,3.4,0,0,1,.38,1h-1.23a2.26,2.26,0,0,0-.73-1.12,2.37,2.37,0,0,0-1.55-.45,2.47,2.47,0,0,0-1.9.81,3.32,3.32,0,0,0-.75,2.34v.62a3.57,3.57,0,0,0,.76,2.48A2.43,2.43,0,0,0,273,180a2.31,2.31,0,0,0,1.55-.47,2.36,2.36,0,0,0,.73-1.28h1.23a3.7,3.7,0,0,1-.38,1.12,3,3,0,0,1-.72.9,3.3,3.3,0,0,1-1.08.59,4.45,4.45,0,0,1-1.42.22A3.6,3.6,0,0,1,270.13,180Z" transform="translate(0 0)"/><path class="cls-1" d="M279.26,180a4.42,4.42,0,0,1-1.08-3.19v-.62a5.5,5.5,0,0,1,.28-1.83,3.53,3.53,0,0,1,.8-1.36,3.29,3.29,0,0,1,1.25-.84,4.42,4.42,0,0,1,1.63-.29,3.85,3.85,0,0,1,2.89,1.12,4.45,4.45,0,0,1,1.07,3.2v.62a5.76,5.76,0,0,1-.28,1.83A3.89,3.89,0,0,1,285,180a3.45,3.45,0,0,1-1.25.84,4.46,4.46,0,0,1-1.63.29A3.81,3.81,0,0,1,279.26,180Zm4.87-.76a3.51,3.51,0,0,0,.74-2.43v-.62a3.49,3.49,0,0,0-.75-2.42,2.61,2.61,0,0,0-2-.82,2.58,2.58,0,0,0-2,.81,3.47,3.47,0,0,0-.75,2.43v.62a3.44,3.44,0,0,0,.76,2.42,2.82,2.82,0,0,0,4,0Z" transform="translate(0 0)"/><path class="cls-1" d="M289.41,180.14a3.77,3.77,0,0,1-.88-2.7V172h1.18v5.4a2.86,2.86,0,0,0,.61,2A2.12,2.12,0,0,0,292,180a2.55,2.55,0,0,0,1.87-.73,2.63,2.63,0,0,0,.72-1.92V172h1.19v9h-.94l-.14-1.35h0a3.42,3.42,0,0,1-1.23,1.12,3.59,3.59,0,0,1-1.63.36A3.09,3.09,0,0,1,289.41,180.14Z" transform="translate(0 0)"/><path class="cls-1" d="M298.79,172h.93l.15,1.35h0a3.29,3.29,0,0,1,2.86-1.48,3.34,3.34,0,0,1,2.51.93,3.74,3.74,0,0,1,.9,2.71V181H305v-5.4a2.82,2.82,0,0,0-.62-2,2.38,2.38,0,0,0-1.79-.65,2.55,2.55,0,0,0-1.88.73,2.63,2.63,0,0,0-.72,1.92V181h-1.18Z" transform="translate(0 0)"/><path class="cls-1" d="M310.68,180.64a2,2,0,0,1-.71-.71,2.09,2.09,0,0,1-.26-.8c0-.26,0-.45,0-.56V173h-1.62V172h1.62v-2.52h1.18V172h2.42V173h-2.42v5.4a2.08,2.08,0,0,0,.09.65,1,1,0,0,0,.25.44,1.11,1.11,0,0,0,.42.26,1.72,1.72,0,0,0,.58.09h1.26V181h-1.41A2.53,2.53,0,0,1,310.68,180.64Z" transform="translate(0 0)"/><path class="cls-1" d="M474.67,152.4h7.56v1.15h-6.3v4.39h5.22v1.16h-5.22V165h-1.26Z" transform="translate(0 0)"/><path class="cls-1" d="M484.46,164.19a3.81,3.81,0,0,1-.88-2.7V156h1.19v5.4a2.86,2.86,0,0,0,.6,2,2.13,2.13,0,0,0,1.63.65,2.53,2.53,0,0,0,1.87-.73,2.63,2.63,0,0,0,.72-1.92V156h1.19v9h-.94l-.14-1.35h0a3.37,3.37,0,0,1-1.24,1.12,3.53,3.53,0,0,1-1.63.36A3.09,3.09,0,0,1,484.46,164.19Z" transform="translate(0 0)"/><path class="cls-1" d="M493.84,156h.94l.14,1.35h0a3.29,3.29,0,0,1,2.86-1.48,3.31,3.31,0,0,1,2.5.93,3.74,3.74,0,0,1,.9,2.71V165H500v-5.4a2.77,2.77,0,0,0-.62-2,2.37,2.37,0,0,0-1.79-.65,2.53,2.53,0,0,0-1.87.73,2.63,2.63,0,0,0-.72,1.92V165h-1.19Z" transform="translate(0 0)"/><path class="cls-1" d="M505.8,164.85a3.16,3.16,0,0,1-1.13-.82,3.86,3.86,0,0,1-.75-1.34,5.81,5.81,0,0,1-.27-1.85v-.59a5.73,5.73,0,0,1,.27-1.83,4,4,0,0,1,.75-1.35,3.19,3.19,0,0,1,1.13-.83,3.76,3.76,0,0,1,1.43-.28,3.86,3.86,0,0,1,1.69.35,2.94,2.94,0,0,1,1.17,1h0v-4.8h1.19V165h-.94l-.14-1.33h0a3.87,3.87,0,0,1-1.31,1.11,4,4,0,0,1-3.09.07Zm3.61-1.59a3.52,3.52,0,0,0,.72-2.42v-.59a3.51,3.51,0,0,0-.74-2.41,2.44,2.44,0,0,0-1.89-.81,2.46,2.46,0,0,0-1.92.8,3.52,3.52,0,0,0-.72,2.42v.59a3.48,3.48,0,0,0,.74,2.41,2.47,2.47,0,0,0,1.9.81A2.43,2.43,0,0,0,509.41,163.26Z" transform="translate(0 0)"/><path class="cls-1" d="M514.83,152.4h1.44L515,156.63h-1.08Z" transform="translate(0 0)"/><path class="cls-1" d="M519.32,164.4a2.89,2.89,0,0,1-1-1.92h1.22a1.89,1.89,0,0,0,.65,1.15,2.56,2.56,0,0,0,1.64.42,2.61,2.61,0,0,0,1.63-.4,1.3,1.3,0,0,0,.47-1,1.07,1.07,0,0,0-.4-.9,3.33,3.33,0,0,0-1-.54c-.4-.13-.84-.26-1.3-.37a7.21,7.21,0,0,1-1.31-.46,3.09,3.09,0,0,1-1-.76,1.89,1.89,0,0,1-.4-1.28,2.19,2.19,0,0,1,.79-1.72,3.45,3.45,0,0,1,2.36-.71,3.7,3.7,0,0,1,2.47.71,2.64,2.64,0,0,1,1,1.76h-1.23a1.66,1.66,0,0,0-.63-1,2.55,2.55,0,0,0-1.56-.38,2.39,2.39,0,0,0-1.49.37,1.24,1.24,0,0,0-.44,1,1,1,0,0,0,.41.84,3.39,3.39,0,0,0,1,.49c.4.12.83.24,1.3.36a6.17,6.17,0,0,1,1.31.47,2.88,2.88,0,0,1,1,.79,2.08,2.08,0,0,1,.41,1.36,2.39,2.39,0,0,1-.21,1,2.22,2.22,0,0,1-.62.79,3.22,3.22,0,0,1-1,.53,5,5,0,0,1-1.47.2A3.8,3.8,0,0,1,519.32,164.4Z" transform="translate(0 0)"/><path class="cls-1" d="M470.68,168.5h1.44l4.67,12.6h-1.36l-1.32-3.65h-5.5l-1.32,3.65H466Zm3,7.79-2.3-6.44h0L469,176.29Z" transform="translate(0 0)"/><path class="cls-1" d="M479.37,180.11a4.62,4.62,0,0,1-1-3.29v-.62a5.48,5.48,0,0,1,.27-1.79,3.91,3.91,0,0,1,.78-1.32,3.27,3.27,0,0,1,1.2-.83,4,4,0,0,1,1.53-.29,4.51,4.51,0,0,1,1.42.21,3.28,3.28,0,0,1,1.08.58,3,3,0,0,1,.72.84,3.69,3.69,0,0,1,.38,1h-1.23a2.28,2.28,0,0,0-.74-1.12,2.34,2.34,0,0,0-1.54-.45,2.46,2.46,0,0,0-1.9.81,3.32,3.32,0,0,0-.75,2.34v.62a3.57,3.57,0,0,0,.76,2.48,2.43,2.43,0,0,0,1.89.85,2.29,2.29,0,0,0,1.54-.47,2.37,2.37,0,0,0,.74-1.28h1.23a4,4,0,0,1-.38,1.12,3,3,0,0,1-.72.9,3.3,3.3,0,0,1-1.08.59,4.5,4.5,0,0,1-1.42.22A3.6,3.6,0,0,1,479.37,180.11Z" transform="translate(0 0)"/><path class="cls-1" d="M488.46,180.11a4.62,4.62,0,0,1-1-3.29v-.62a5.48,5.48,0,0,1,.27-1.79,3.91,3.91,0,0,1,.78-1.32,3.27,3.27,0,0,1,1.2-.83,4,4,0,0,1,1.53-.29,4.51,4.51,0,0,1,1.42.21,3.28,3.28,0,0,1,1.08.58,3,3,0,0,1,.72.84,3.37,3.37,0,0,1,.37,1h-1.22a2.28,2.28,0,0,0-.74-1.12,2.34,2.34,0,0,0-1.54-.45,2.46,2.46,0,0,0-1.9.81,3.32,3.32,0,0,0-.75,2.34v.62a3.57,3.57,0,0,0,.76,2.48,2.43,2.43,0,0,0,1.89.85,2.29,2.29,0,0,0,1.54-.47,2.37,2.37,0,0,0,.74-1.28h1.22a3.69,3.69,0,0,1-.37,1.12,3,3,0,0,1-.72.9,3.3,3.3,0,0,1-1.08.59,4.5,4.5,0,0,1-1.42.22A3.6,3.6,0,0,1,488.46,180.11Z" transform="translate(0 0)"/><path class="cls-1" d="M497.58,180.1a4.46,4.46,0,0,1-1.08-3.19v-.62a5.76,5.76,0,0,1,.28-1.83,3.89,3.89,0,0,1,.8-1.36,3.4,3.4,0,0,1,1.26-.84,4.37,4.37,0,0,1,1.62-.29,3.82,3.82,0,0,1,2.89,1.12,4.41,4.41,0,0,1,1.07,3.2v.62a5.77,5.77,0,0,1-.27,1.83,3.76,3.76,0,0,1-.81,1.36,3.29,3.29,0,0,1-1.25.84,4.42,4.42,0,0,1-1.63.29A3.81,3.81,0,0,1,497.58,180.1Zm4.87-.76a3.47,3.47,0,0,0,.75-2.43v-.62a3.49,3.49,0,0,0-.75-2.42,2.62,2.62,0,0,0-2-.82,2.56,2.56,0,0,0-2,.81,3.47,3.47,0,0,0-.75,2.43v.62a3.44,3.44,0,0,0,.76,2.42,2.81,2.81,0,0,0,4,0Z" transform="translate(0 0)"/><path class="cls-1" d="M507.74,180.29a3.77,3.77,0,0,1-.89-2.7V172.1H508v5.4a2.82,2.82,0,0,0,.61,2,2.11,2.11,0,0,0,1.62.65,2.55,2.55,0,0,0,1.88-.73,2.63,2.63,0,0,0,.72-1.92v-5.4h1.18v9h-.93l-.15-1.35h0a3.42,3.42,0,0,1-1.23,1.12,3.59,3.59,0,0,1-1.63.36A3.06,3.06,0,0,1,507.74,180.29Z" transform="translate(0 0)"/><path class="cls-1" d="M517.11,172.1h.94l.14,1.35h0a3.29,3.29,0,0,1,2.86-1.48,3.31,3.31,0,0,1,2.5.93,3.74,3.74,0,0,1,.9,2.71v5.49h-1.18v-5.4a2.82,2.82,0,0,0-.62-2,2.4,2.4,0,0,0-1.8-.65,2.55,2.55,0,0,0-1.87.73,2.63,2.63,0,0,0-.72,1.92v5.4h-1.19Z" transform="translate(0 0)"/><path class="cls-1" d="M529,180.79a2,2,0,0,1-.71-.71,1.93,1.93,0,0,1-.26-.8c0-.26,0-.45,0-.56v-5.54h-1.62V172.1H528v-2.52h1.19v2.52h2.41v1.08h-2.41v5.4a2.46,2.46,0,0,0,.08.65,1.07,1.07,0,0,0,.26.44,1.11,1.11,0,0,0,.42.26,1.7,1.7,0,0,0,.57.09h1.26v1.08h-1.4A2.53,2.53,0,0,1,529,180.79Z" transform="translate(0 0)"/><path class="cls-1" d="M644.29,176.45h6.3v1h-5.25v3.66h4.35v1h-4.35v4h5.25v1h-6.3Z" transform="translate(0 0)"/><path class="cls-1" d="M654.91,186.78a3.47,3.47,0,0,1-1.23-.81,3.73,3.73,0,0,1-.79-1.31,5.29,5.29,0,0,1-.27-1.76v-6.45h1v6.38a3.41,3.41,0,0,0,.78,2.43,3,3,0,0,0,4.14,0,3.42,3.42,0,0,0,.78-2.44v-6.38h1v6.45a4.94,4.94,0,0,1-.29,1.73,3.78,3.78,0,0,1-.79,1.32,3.37,3.37,0,0,1-1.23.82,4.29,4.29,0,0,1-1.59.29A4.57,4.57,0,0,1,654.91,186.78Z" transform="translate(0 0)"/><path class="cls-1" d="M663,176.45h3.38a3.93,3.93,0,0,1,2.76.84,2.93,2.93,0,0,1,.91,2.27,3.06,3.06,0,0,1-.52,1.82,2.81,2.81,0,0,1-1.58,1.07l2.4,4.5h-1.2l-2.25-4.3h-2.85V187H663Zm3.3,5.25a3.07,3.07,0,0,0,2-.55,2.32,2.32,0,0,0,0-3.17,3,3,0,0,0-2-.57h-2.25v4.29Z" transform="translate(0 0)"/><path class="cls-1" d="M674.55,186.73a3.93,3.93,0,0,1-1.38-1,4.49,4.49,0,0,1-.89-1.58A6.72,6.72,0,0,1,672,182v-.81a6,6,0,0,1,.32-2.06,4.26,4.26,0,0,1,.89-1.53,3.9,3.9,0,0,1,1.37-1,4.85,4.85,0,0,1,1.77-.33,4.58,4.58,0,0,1,1.77.33,3.82,3.82,0,0,1,1.37.94,4.44,4.44,0,0,1,.89,1.53,6.35,6.35,0,0,1,.32,2.08V182a6.43,6.43,0,0,1-.33,2.15,4.49,4.49,0,0,1-.89,1.58,3.81,3.81,0,0,1-1.37,1,4.6,4.6,0,0,1-1.76.33A4.65,4.65,0,0,1,674.55,186.73Zm3.09-.89a2.74,2.74,0,0,0,1-.76,3.63,3.63,0,0,0,.68-1.28,5.92,5.92,0,0,0,.24-1.77v-.81a5.29,5.29,0,0,0-.25-1.67,3.64,3.64,0,0,0-.68-1.23,2.77,2.77,0,0,0-1-.76,3.27,3.27,0,0,0-1.3-.25,3.34,3.34,0,0,0-1.32.25,2.86,2.86,0,0,0-1,.75,3.5,3.5,0,0,0-.67,1.22,5.43,5.43,0,0,0-.24,1.69V182a5.81,5.81,0,0,0,.24,1.76,3.76,3.76,0,0,0,.69,1.27,2.77,2.77,0,0,0,1,.77,3.16,3.16,0,0,0,1.31.26A3.34,3.34,0,0,0,677.64,185.84Z" transform="translate(0 0)"/><path class="cls-1" d="M683.61,186.18a3.51,3.51,0,0,1-1.07-2.38h1.11a2.58,2.58,0,0,0,.76,1.71,3.65,3.65,0,0,0,3.82.08,1.73,1.73,0,0,0,.58-1.38,1.35,1.35,0,0,0-.45-1.09,3.71,3.71,0,0,0-1.13-.64,13.6,13.6,0,0,0-1.48-.45,7.6,7.6,0,0,1-1.48-.52,3.31,3.31,0,0,1-1.13-.89,2.31,2.31,0,0,1-.45-1.5,2.66,2.66,0,0,1,.23-1.09,2.5,2.5,0,0,1,.66-.89,3.1,3.1,0,0,1,1.08-.58,4.75,4.75,0,0,1,1.48-.22,3.78,3.78,0,0,1,2.66.83,3.33,3.33,0,0,1,1,2.28h-1.11a2.5,2.5,0,0,0-.72-1.61,2.67,2.67,0,0,0-1.85-.53,3.35,3.35,0,0,0-1.06.15,2.41,2.41,0,0,0-.75.39,1.57,1.57,0,0,0-.42.58,1.81,1.81,0,0,0-.14.69,1.39,1.39,0,0,0,.45,1.11,3.5,3.5,0,0,0,1.13.63c.46.16.95.3,1.48.43a7,7,0,0,1,1.48.51,3.26,3.26,0,0,1,1.13.87,2.41,2.41,0,0,1,.45,1.54,2.88,2.88,0,0,1-.22,1.15,2.24,2.24,0,0,1-.66.9,3,3,0,0,1-1.1.58,4.77,4.77,0,0,1-1.54.22A3.94,3.94,0,0,1,683.61,186.18Z" transform="translate(0 0)"/><path class="cls-1" d="M694.39,177.41h-3.45v-1h7.95v1h-3.45V187h-1.05Z" transform="translate(0 0)"/><path class="cls-1" d="M700.62,176.45H704a4,4,0,0,1,2.77.84,3,3,0,0,1,.91,2.27,3.06,3.06,0,0,1-.53,1.82,2.78,2.78,0,0,1-1.57,1.07L708,187h-1.2l-2.25-4.3h-2.85V187h-1Zm3.3,5.25a3,3,0,0,0,2-.55,2,2,0,0,0,.63-1.59A2,2,0,0,0,706,178a3,3,0,0,0-2-.57h-2.25v4.29Z" transform="translate(0 0)"/><path class="cls-1" d="M709.92,176.45h6.3v1H711v3.66h4.35v1H711v4h5.25v1h-6.3Z" transform="translate(0 0)"/><path class="cls-1" d="M721.47,176.45h1.2l3.9,10.5h-1.14l-1.1-3h-4.59l-1.09,3h-1.08ZM724,183l-1.92-5.37h0L720.09,183Z" transform="translate(0 0)"/><path class="cls-1" d="M728.37,176.45h1.56l3.18,6.27h0l3.18-6.27h1.5V187h-1.05v-9.22h0l-3.12,6.15h-1l-3.12-6.15h0V187h-1Z" transform="translate(0 0)"/><path class="cls-1" d="M17.62,175.05h1.77l3.6,7.11h0l3.6-7.11h1.7V187H27.14V176.5h0l-3.54,7H22.38l-3.53-7h0V187H17.62Z" transform="translate(0 0)"/><path class="cls-1" d="M29.74,175.05h7.14v1.09h-6v4.15h4.93v1.08H30.93V187H29.74Z" transform="translate(0 0)"/><path class="cls-1" d="M37.89,186.07a3.92,3.92,0,0,1-1.21-2.69h1.26a2.91,2.91,0,0,0,.86,1.94A3.19,3.19,0,0,0,41,186a3.14,3.14,0,0,0,2.12-.58,2,2,0,0,0,.65-1.56,1.53,1.53,0,0,0-.51-1.23,4.34,4.34,0,0,0-1.28-.73,15.74,15.74,0,0,0-1.67-.51,8.13,8.13,0,0,1-1.68-.59,3.73,3.73,0,0,1-1.28-1,2.63,2.63,0,0,1-.51-1.7,3,3,0,0,1,.25-1.24,2.84,2.84,0,0,1,.75-1,3.61,3.61,0,0,1,1.23-.66,5.32,5.32,0,0,1,1.68-.24,4.29,4.29,0,0,1,3,.94,3.79,3.79,0,0,1,1.14,2.58H43.67a2.93,2.93,0,0,0-.82-1.83,3.05,3.05,0,0,0-2.09-.6,3.92,3.92,0,0,0-1.21.17,2.4,2.4,0,0,0-.84.45,1.75,1.75,0,0,0-.48.65,1.92,1.92,0,0,0-.16.79,1.56,1.56,0,0,0,.51,1.25,3.81,3.81,0,0,0,1.29.72,15.89,15.89,0,0,0,1.67.48,8.75,8.75,0,0,1,1.68.58,3.61,3.61,0,0,1,1.28,1,2.64,2.64,0,0,1,.51,1.73,3.29,3.29,0,0,1-.25,1.31,2.58,2.58,0,0,1-.75,1,3.62,3.62,0,0,1-1.25.66,5.69,5.69,0,0,1-1.75.24A4.38,4.38,0,0,1,37.89,186.07Z" transform="translate(0 0)"/><path class="cls-1" d="M49.05,175.05h1.36L54.83,187H53.54L52.3,183.5H47.1L45.86,187H44.63Zm2.86,7.36-2.18-6.08h0l-2.21,6.08Z" transform="translate(0 0)"/><path class="cls-1" d="M56,185.51h1.36l-1.19,4h-1Z" transform="translate(0 0)"/><path class="cls-1" d="M61.45,175.05h7.14v1.09h-6v4.15h4.93v1.08H62.64V187H61.45Z" transform="translate(0 0)"/><path class="cls-1" d="M71.19,186.7a4.28,4.28,0,0,1-1.53-1.1,5.1,5.1,0,0,1-1-1.79,7.85,7.85,0,0,1-.35-2.44v-.91a7.29,7.29,0,0,1,.35-2.34,5,5,0,0,1,1-1.74,4.15,4.15,0,0,1,1.54-1.07,4.94,4.94,0,0,1,1.94-.38,5.06,5.06,0,0,1,1.75.28,4.68,4.68,0,0,1,1.35.76,4,4,0,0,1,1.41,2.48H76.39a3.16,3.16,0,0,0-1.07-1.73,3,3,0,0,0-.95-.51,3.65,3.65,0,0,0-1.23-.19,3.6,3.6,0,0,0-1.44.29,3.08,3.08,0,0,0-1.15.85,4.15,4.15,0,0,0-.76,1.38,6.18,6.18,0,0,0-.27,1.92v.91a6.78,6.78,0,0,0,.28,2,4.25,4.25,0,0,0,.77,1.45,3.08,3.08,0,0,0,1.14.86,3.85,3.85,0,0,0,2.66.1,3.05,3.05,0,0,0,.95-.54,3,3,0,0,0,.68-.82,3.9,3.9,0,0,0,.39-1.05h1.26a4.56,4.56,0,0,1-.48,1.46,4,4,0,0,1-.93,1.18,4.7,4.7,0,0,1-1.35.77,5.06,5.06,0,0,1-1.75.28A5.13,5.13,0,0,1,71.19,186.7Z" transform="translate(0 0)"/><path class="cls-1" d="M81.35,175.05h1.36L87.13,187H85.84L84.6,183.5H79.4L78.16,187H76.93Zm2.86,7.36L82,176.33h0l-2.21,6.08Z" transform="translate(0 0)"/><path class="cls-1" d="M88.29,185.51h1.36l-1.19,4h-1Z" transform="translate(0 0)"/><path class="cls-1" d="M97,186.07a4,4,0,0,1-1.2-2.69H97.1a3,3,0,0,0,.85,1.94,3.22,3.22,0,0,0,2.22.66,3.14,3.14,0,0,0,2.12-.58,2,2,0,0,0,.65-1.56,1.53,1.53,0,0,0-.51-1.23,4.34,4.34,0,0,0-1.28-.73,16.49,16.49,0,0,0-1.67-.51,7.93,7.93,0,0,1-1.68-.59,3.73,3.73,0,0,1-1.28-1,2.63,2.63,0,0,1-.51-1.7,3,3,0,0,1,.25-1.24,2.84,2.84,0,0,1,.75-1,3.65,3.65,0,0,1,1.22-.66,5.43,5.43,0,0,1,1.69-.24,4.3,4.3,0,0,1,3,.94,3.79,3.79,0,0,1,1.14,2.58h-1.26a2.87,2.87,0,0,0-.81-1.83,3.05,3.05,0,0,0-2.09-.6,3.92,3.92,0,0,0-1.21.17,2.4,2.4,0,0,0-.84.45,1.89,1.89,0,0,0-.49.65,2.09,2.09,0,0,0-.15.79,1.56,1.56,0,0,0,.51,1.25,3.85,3.85,0,0,0,1.28.72,16.83,16.83,0,0,0,1.68.48,8.42,8.42,0,0,1,1.67.58,3.56,3.56,0,0,1,1.29,1,2.64,2.64,0,0,1,.51,1.73,3.47,3.47,0,0,1-.25,1.31,2.58,2.58,0,0,1-.75,1,3.62,3.62,0,0,1-1.25.66,5.74,5.74,0,0,1-1.75.24A4.43,4.43,0,0,1,97,186.07Z" transform="translate(0 0)"/><path class="cls-1" d="M107.35,187l-3.56-8.5H105l2.9,7.11h0l2.67-7.11h1.15l-4.59,11.9H106Z" transform="translate(0 0)"/><path class="cls-1" d="M112.79,186.07a3.92,3.92,0,0,1-1.21-2.69h1.26a2.91,2.91,0,0,0,.86,1.94,3.19,3.19,0,0,0,2.21.66,3.14,3.14,0,0,0,2.12-.58,2,2,0,0,0,.66-1.56,1.53,1.53,0,0,0-.51-1.23,4.54,4.54,0,0,0-1.29-.73,15.74,15.74,0,0,0-1.67-.51,8.13,8.13,0,0,1-1.68-.59,3.73,3.73,0,0,1-1.28-1,2.63,2.63,0,0,1-.51-1.7,3,3,0,0,1,.25-1.24,2.84,2.84,0,0,1,.75-1,3.61,3.61,0,0,1,1.23-.66,5.32,5.32,0,0,1,1.68-.24,4.29,4.29,0,0,1,3,.94,3.79,3.79,0,0,1,1.14,2.58h-1.25a2.93,2.93,0,0,0-.82-1.83,3.05,3.05,0,0,0-2.09-.6,3.92,3.92,0,0,0-1.21.17,2.4,2.4,0,0,0-.84.45,1.75,1.75,0,0,0-.48.65,1.92,1.92,0,0,0-.16.79,1.56,1.56,0,0,0,.51,1.25,3.81,3.81,0,0,0,1.29.72,15.89,15.89,0,0,0,1.67.48,8.75,8.75,0,0,1,1.68.58,3.61,3.61,0,0,1,1.28,1,2.64,2.64,0,0,1,.51,1.73,3.29,3.29,0,0,1-.25,1.31,2.58,2.58,0,0,1-.75,1,3.66,3.66,0,0,1-1.24.66,5.81,5.81,0,0,1-1.76.24A4.38,4.38,0,0,1,112.79,186.07Z" transform="translate(0 0)"/><path class="cls-1" d="M122.37,186.8a3.2,3.2,0,0,1-1.15-.79,3.51,3.51,0,0,1-.74-1.28,5.13,5.13,0,0,1-.27-1.74v-.58a5.19,5.19,0,0,1,.27-1.73,3.43,3.43,0,0,1,.75-1.29,3.2,3.2,0,0,1,1.15-.79,4,4,0,0,1,1.49-.27,4.08,4.08,0,0,1,1.5.27,3.1,3.1,0,0,1,1.15.8,3.6,3.6,0,0,1,.74,1.3,5.51,5.51,0,0,1,.26,1.8V183h-6.15a3.48,3.48,0,0,0,.65,2.26,2.26,2.26,0,0,0,1.85.78,2.83,2.83,0,0,0,1.52-.37,2.13,2.13,0,0,0,.89-1.11h1.16a3,3,0,0,1-1.22,1.86,4,4,0,0,1-2.35.64A4.08,4.08,0,0,1,122.37,186.8Zm-.25-6.76a3.12,3.12,0,0,0-.75,2h5a3.07,3.07,0,0,0-.76-2,2.38,2.38,0,0,0-1.74-.66A2.3,2.3,0,0,0,122.12,180Z" transform="translate(0 0)"/><path class="cls-1" d="M128.73,186a4.41,4.41,0,0,1-1-3.12v-.57a5,5,0,0,1,.26-1.7,3.68,3.68,0,0,1,.73-1.25,3.22,3.22,0,0,1,1.13-.78,3.78,3.78,0,0,1,1.45-.27,4.33,4.33,0,0,1,1.34.2,3.09,3.09,0,0,1,1,.54,2.87,2.87,0,0,1,.68.8,3.27,3.27,0,0,1,.36,1h-1.16a2.15,2.15,0,0,0-.7-1.05,2.18,2.18,0,0,0-1.46-.43,2.34,2.34,0,0,0-1.79.77,3.14,3.14,0,0,0-.71,2.21v.57a3.39,3.39,0,0,0,.72,2.35,2.29,2.29,0,0,0,1.78.8,2.18,2.18,0,0,0,1.46-.44,2.32,2.32,0,0,0,.7-1.21h1.16a3.58,3.58,0,0,1-.36,1.06,2.65,2.65,0,0,1-.68.84,3.14,3.14,0,0,1-1,.57,4.33,4.33,0,0,1-1.34.2A3.39,3.39,0,0,1,128.73,186Z" transform="translate(0 0)"/><path class="cls-1" d="M135.87,185.51h1.36l-1.19,4h-1Z" transform="translate(0 0)"/><path class="cls-1" d="M142,186.07a3.92,3.92,0,0,1-1.21-2.69h1.26a2.91,2.91,0,0,0,.86,1.94,3.19,3.19,0,0,0,2.21.66,3.14,3.14,0,0,0,2.12-.58,2,2,0,0,0,.65-1.56,1.53,1.53,0,0,0-.51-1.23,4.34,4.34,0,0,0-1.28-.73,15.74,15.74,0,0,0-1.67-.51,8.13,8.13,0,0,1-1.68-.59,3.73,3.73,0,0,1-1.28-1,2.63,2.63,0,0,1-.51-1.7,3,3,0,0,1,.25-1.24,2.84,2.84,0,0,1,.75-1,3.61,3.61,0,0,1,1.23-.66,5.32,5.32,0,0,1,1.68-.24,4.29,4.29,0,0,1,3,.94,3.79,3.79,0,0,1,1.14,2.58h-1.25a2.93,2.93,0,0,0-.82-1.83,3.05,3.05,0,0,0-2.09-.6,3.92,3.92,0,0,0-1.21.17,2.4,2.4,0,0,0-.84.45,1.75,1.75,0,0,0-.48.65,1.92,1.92,0,0,0-.16.79,1.56,1.56,0,0,0,.51,1.25,3.81,3.81,0,0,0,1.29.72,15.89,15.89,0,0,0,1.67.48,8.42,8.42,0,0,1,1.67.58,3.56,3.56,0,0,1,1.29,1,2.64,2.64,0,0,1,.51,1.73,3.29,3.29,0,0,1-.25,1.31,2.58,2.58,0,0,1-.75,1,3.62,3.62,0,0,1-1.25.66,5.69,5.69,0,0,1-1.75.24A4.38,4.38,0,0,1,142,186.07Z" transform="translate(0 0)"/><path class="cls-1" d="M150.05,175.05h7.14v1.09h-5.95v4.15h4.93v1.08h-4.93V187h-1.19Z" transform="translate(0 0)"/><path class="cls-1" d="M159.79,186.7a4.28,4.28,0,0,1-1.53-1.1,5.08,5.08,0,0,1-1-1.79,7.55,7.55,0,0,1-.36-2.44v-.91a7,7,0,0,1,.36-2.34,5,5,0,0,1,1-1.74,4.15,4.15,0,0,1,1.54-1.07,4.94,4.94,0,0,1,1.94-.38,5.06,5.06,0,0,1,1.75.28,4.68,4.68,0,0,1,1.35.76,3.93,3.93,0,0,1,.93,1.11,4.14,4.14,0,0,1,.48,1.37H165a3.16,3.16,0,0,0-1.07-1.73,3,3,0,0,0-.95-.51,3.87,3.87,0,0,0-2.67.1,3.16,3.16,0,0,0-1.15.85,4,4,0,0,0-.75,1.38,5.89,5.89,0,0,0-.28,1.92v.91a6.78,6.78,0,0,0,.28,2,4.43,4.43,0,0,0,.77,1.45,3.11,3.11,0,0,0,1.15.86,3.53,3.53,0,0,0,1.42.29,3.61,3.61,0,0,0,1.23-.19,3.05,3.05,0,0,0,.95-.54,3,3,0,0,0,.68-.82,3.9,3.9,0,0,0,.39-1.05h1.26a4.56,4.56,0,0,1-.48,1.46,3.83,3.83,0,0,1-.93,1.18,4.7,4.7,0,0,1-1.35.77,5.06,5.06,0,0,1-1.75.28A5.13,5.13,0,0,1,159.79,186.7Z" transform="translate(0 0)"/><path class="cls-1" d="M664,150h2.8l5,14h-2.56l-1.16-3.5h-5.5L661.4,164H659Zm3.36,8.3-2-6h0l-2,6Z" transform="translate(0 0)"/><path class="cls-1" d="M674.13,163.09a4.67,4.67,0,0,1-1-3.29V154h2.32v5.8a2.45,2.45,0,0,0,.52,1.71,1.76,1.76,0,0,0,1.36.57,2.13,2.13,0,0,0,2.28-2.28V154h2.32v10h-1.8l-.2-1.1h0a3.68,3.68,0,0,1-1.33,1,4.45,4.45,0,0,1-1.73.32A3.49,3.49,0,0,1,674.13,163.09Z" transform="translate(0 0)"/><path class="cls-1" d="M686.32,163.9A3.32,3.32,0,0,1,685,163a4.21,4.21,0,0,1-.83-1.54,7.24,7.24,0,0,1-.29-2.14v-.44a6.91,6.91,0,0,1,.3-2.14,4.38,4.38,0,0,1,.84-1.54,3.45,3.45,0,0,1,1.3-.93,4.3,4.3,0,0,1,1.66-.31,4.22,4.22,0,0,1,1.62.32,3.16,3.16,0,0,1,1.22.86h0V150.2h2.3V164H691.4l-.2-1.18h0a3.82,3.82,0,0,1-1.38,1,4.35,4.35,0,0,1-1.78.34A4.56,4.56,0,0,1,686.32,163.9Zm4-2.47a3.17,3.17,0,0,0,.6-2.15v-.44a3.09,3.09,0,0,0-.62-2.12,2.4,2.4,0,0,0-3.34,0,3.17,3.17,0,0,0-.6,2.15v.44a3.09,3.09,0,0,0,.62,2.12,2.4,2.4,0,0,0,3.34,0Z" transform="translate(0 0)"/><path class="cls-1" d="M696,152.37a1.55,1.55,0,1,1,1.07.43A1.44,1.44,0,0,1,696,152.37Zm-.09,1.63h2.32v10h-2.32Z" transform="translate(0 0)"/><path class="cls-1" d="M702.91,163.57a2.92,2.92,0,0,1-1-1,2.7,2.7,0,0,1-.37-1.11c0-.37,0-.62,0-.77v-4.58h-1.8V154h1.8v-2.8h2.32V154h2.48v2.12h-2.48v4.26c0,.11,0,.25,0,.42a1.17,1.17,0,0,0,.16.5,1.1,1.1,0,0,0,.42.41,1.59,1.59,0,0,0,.8.17h1.28V164h-1.7A3.48,3.48,0,0,1,702.91,163.57Z" transform="translate(0 0)"/><path class="cls-1" d="M708.78,162.9a5,5,0,0,1-1.28-3.68v-.44a6.17,6.17,0,0,1,.33-2.1,4.11,4.11,0,0,1,2.48-2.54,5.47,5.47,0,0,1,2-.34,4.7,4.7,0,0,1,3.53,1.3,5,5,0,0,1,1.27,3.68v.44a6.17,6.17,0,0,1-.33,2.1,4.27,4.27,0,0,1-1,1.56,4.2,4.2,0,0,1-1.51,1,5.45,5.45,0,0,1-2,.34A4.7,4.7,0,0,1,708.78,162.9Zm5.25-1.51a3.14,3.14,0,0,0,.63-2.17v-.44a3.1,3.1,0,0,0-.64-2.15,2.48,2.48,0,0,0-3.45,0,3.14,3.14,0,0,0-.63,2.17v.44a3.1,3.1,0,0,0,.64,2.15,2.48,2.48,0,0,0,3.45,0Z" transform="translate(0 0)"/><path class="cls-1" d="M719.1,154h1.8l.2,1.2h0a3.74,3.74,0,0,1,1.32-1.07,4.16,4.16,0,0,1,1.74-.33h.9v2.12h-1.2a2.56,2.56,0,0,0-1.84.61,2.19,2.19,0,0,0-.64,1.67V164H719.1Z" transform="translate(0 0)"/><path class="cls-1" d="M36.31,150h4.9a5.8,5.8,0,0,1,4,1.18,4.16,4.16,0,0,1,1.29,3.2,4.42,4.42,0,0,1-.64,2.39,4,4,0,0,1-1.94,1.53l3,5.7H44.23l-2.56-5.26-.27,0H38.71V164h-2.4Zm4.81,6.56a3.36,3.36,0,0,0,2.21-.58,2,2,0,0,0,.67-1.6,2,2,0,0,0-.71-1.57,3.21,3.21,0,0,0-2.17-.61H38.71v4.36Z" transform="translate(0 0)"/><path class="cls-1" d="M50.61,163.87a3.89,3.89,0,0,1-1.51-1,4.25,4.25,0,0,1-1-1.56,6.25,6.25,0,0,1-.33-2.12v-.44a6.27,6.27,0,0,1,.33-2.11,4.33,4.33,0,0,1,.94-1.57,3.86,3.86,0,0,1,1.48-1,5.93,5.93,0,0,1,3.9,0,4,4,0,0,1,1.48,1,4.47,4.47,0,0,1,.94,1.59,6.57,6.57,0,0,1,.33,2.18v.84H50.16a3,3,0,0,0,.66,1.92,2.21,2.21,0,0,0,1.7.6,2.92,2.92,0,0,0,1.45-.31,1.66,1.66,0,0,0,.75-.93h2.4a3.78,3.78,0,0,1-1.51,2.38,5.07,5.07,0,0,1-3,.82A5.73,5.73,0,0,1,50.61,163.87Zm.29-7.58a2.72,2.72,0,0,0-.72,1.71h4.68a2.77,2.77,0,0,0-.7-1.71,2.33,2.33,0,0,0-1.64-.53A2.27,2.27,0,0,0,50.9,156.29Z" transform="translate(0 0)"/><path class="cls-1" d="M61.06,163.49a3.64,3.64,0,0,1-1.31-.91,4.37,4.37,0,0,1-.83-1.49,6.19,6.19,0,0,1-.3-2.07v-.44a6.15,6.15,0,0,1,.3-2.05,4.23,4.23,0,0,1,.85-1.5,3.47,3.47,0,0,1,1.31-.92,4.81,4.81,0,0,1,3.5,0,4.1,4.1,0,0,1,1.4,1h0l.17-1.2H68v10.1a4,4,0,0,1-1.08,3.06,4.73,4.73,0,0,1-3.36,1,4.65,4.65,0,0,1-3.12-.87,3.64,3.64,0,0,1-1.15-2.43h2.44a1.86,1.86,0,0,0,.58,1,1.9,1.9,0,0,0,1.25.35,2.11,2.11,0,0,0,1.59-.54,2.43,2.43,0,0,0,.52-1.74v-1.4h0a3.36,3.36,0,0,1-1.25.88,4.32,4.32,0,0,1-1.64.32A4.52,4.52,0,0,1,61.06,163.49Zm4-2.47a2.85,2.85,0,0,0,.61-2v-.44a2.81,2.81,0,0,0-.63-2,2.17,2.17,0,0,0-1.68-.67,2.25,2.25,0,0,0-1.71.66,2.85,2.85,0,0,0-.61,2V159a2.81,2.81,0,0,0,.63,2,2.18,2.18,0,0,0,1.69.67A2.23,2.23,0,0,0,65.08,161Z" transform="translate(0 0)"/><path class="cls-1" d="M71.54,163.09a4.71,4.71,0,0,1-1-3.29V154h2.31v5.8a2.5,2.5,0,0,0,.52,1.71,1.76,1.76,0,0,0,1.36.57,2.28,2.28,0,0,0,1.67-.62A2.26,2.26,0,0,0,77,159.8V154h2.31v10H77.52l-.21-1.1h0a3.6,3.6,0,0,1-1.33,1,4.41,4.41,0,0,1-1.73.32A3.49,3.49,0,0,1,71.54,163.09Z" transform="translate(0 0)"/><path class="cls-1" d="M83.3,163.57a3,3,0,0,1-1-1,3,3,0,0,1-.36-1.11c0-.37,0-.62,0-.77V150h2.32v10.46a1.51,1.51,0,0,0,.34,1.07,1.42,1.42,0,0,0,1,.35h.5V164h-.92A3.48,3.48,0,0,1,83.3,163.57Z" transform="translate(0 0)"/><path class="cls-1" d="M88.07,163.4a2.88,2.88,0,0,1-.86-2.22,3.62,3.62,0,0,1,.24-1.36,2.41,2.41,0,0,1,.78-1,3.86,3.86,0,0,1,1.4-.64,8.4,8.4,0,0,1,2.08-.22h2v-.54a1.57,1.57,0,0,0-.46-1.21,2,2,0,0,0-1.42-.43,2.18,2.18,0,0,0-1.38.35,1.41,1.41,0,0,0-.5.89H87.61a3.6,3.6,0,0,1,.32-1.27,3.15,3.15,0,0,1,.8-1A3.75,3.75,0,0,1,90,154a6.06,6.06,0,0,1,1.79-.24,4.46,4.46,0,0,1,3.17,1,3.69,3.69,0,0,1,1,2.82V164h-1.8L94,162.7h0a3.86,3.86,0,0,1-1.42,1.11,4.25,4.25,0,0,1-1.82.39A3.81,3.81,0,0,1,88.07,163.4Zm4.07-1.34a2.51,2.51,0,0,0,.82-.5,2,2,0,0,0,.54-.74,2.17,2.17,0,0,0,.19-.92v-.24H91.81a2.73,2.73,0,0,0-1.68.39,1.28,1.28,0,0,0-.48,1,1.07,1.07,0,0,0,.35.82,1.65,1.65,0,0,0,1.11.32A2.82,2.82,0,0,0,92.14,162.06Z" transform="translate(0 0)"/><path class="cls-1" d="M100.52,163.57a3.11,3.11,0,0,1-1-1,2.86,2.86,0,0,1-.37-1.11c0-.37,0-.62,0-.77v-4.58h-1.8V154h1.8v-2.8h2.32V154h2.48v2.12h-2.48v4.26c0,.11,0,.25,0,.42a1.33,1.33,0,0,0,.16.5,1.27,1.27,0,0,0,.42.41,1.61,1.61,0,0,0,.8.17h1.28V164h-1.7A3.48,3.48,0,0,1,100.52,163.57Z" transform="translate(0 0)"/><path class="cls-1" d="M106.39,162.9a5,5,0,0,1-1.28-3.68v-.44a6.17,6.17,0,0,1,.33-2.1,4.11,4.11,0,0,1,2.48-2.54,5.51,5.51,0,0,1,2-.34,4.68,4.68,0,0,1,3.53,1.3,5,5,0,0,1,1.27,3.68v.44a6.17,6.17,0,0,1-.33,2.1,4.27,4.27,0,0,1-1,1.56,4.2,4.2,0,0,1-1.51,1,5.41,5.41,0,0,1-2,.34A4.72,4.72,0,0,1,106.39,162.9Zm5.25-1.51a3.14,3.14,0,0,0,.63-2.17v-.44a3.1,3.1,0,0,0-.64-2.15,2.2,2.2,0,0,0-1.72-.71,2.23,2.23,0,0,0-1.73.69,3.14,3.14,0,0,0-.63,2.17v.44a3.15,3.15,0,0,0,.64,2.15,2.48,2.48,0,0,0,3.45,0Z" transform="translate(0 0)"/><path class="cls-1" d="M116.71,154h1.8l.2,1.2h0a3.74,3.74,0,0,1,1.32-1.07,4.16,4.16,0,0,1,1.74-.33h.9v2.12h-1.2a2.56,2.56,0,0,0-1.84.61,2.22,2.22,0,0,0-.64,1.67V164h-2.32Z" transform="translate(0 0)"/><path class="cls-1" d="M124.79,163.28a3.68,3.68,0,0,1-1.18-2.48h2.44a2,2,0,0,0,.56,1.11,2,2,0,0,0,1.3.35,2.16,2.16,0,0,0,1.3-.29.93.93,0,0,0,.36-.77.86.86,0,0,0-.43-.77,4,4,0,0,0-1.07-.45c-.42-.12-.88-.24-1.38-.35a5.82,5.82,0,0,1-1.38-.5,3.29,3.29,0,0,1-1.07-.89,2.47,2.47,0,0,1-.43-1.52,2.62,2.62,0,0,1,1-2.07,4.43,4.43,0,0,1,2.94-.83,4.61,4.61,0,0,1,3.07.86,3.35,3.35,0,0,1,1.13,2.32h-2.44a1.69,1.69,0,0,0-.53-.95,1.88,1.88,0,0,0-1.23-.31,1.91,1.91,0,0,0-1.14.26.86.86,0,0,0-.32.7.76.76,0,0,0,.43.71,5.25,5.25,0,0,0,1.07.39l1.38.33a5.17,5.17,0,0,1,1.38.51,3.1,3.1,0,0,1,1.07.93,2.65,2.65,0,0,1,.43,1.61,2.79,2.79,0,0,1-.25,1.19,2.51,2.51,0,0,1-.74.95,3.44,3.44,0,0,1-1.24.63,6.18,6.18,0,0,1-1.77.23A4.8,4.8,0,0,1,124.79,163.28Z" transform="translate(0 0)"/></svg>