<svg id="Слой_1" data-name="Слой 1" xmlns="http://www.w3.org/2000/svg" xmlns:xlink="http://www.w3.org/1999/xlink" viewBox="0 0 780 273"><defs><style>.cls-1,.cls-8{fill:none;}.cls-2{clip-path:url(#clip-path);}.cls-3{fill:#fff;}.cls-4{fill:#f2f4f6;}.cls-5{fill:url(#Безымянный_градиент);}.cls-6{fill:#0b3267;}.cls-7{fill:#b6c3d5;}.cls-8{stroke:#b6c3d5;}.cls-11,.cls-8{stroke-width:2px;}.cls-11,.cls-9{fill:#395b89;}.cls-10{fill:#f2f2f2;}.cls-11{stroke:#fff;}.cls-12{fill:#dbe0e8;}</style><clipPath id="clip-path" transform="translate(0 1)"><polyline class="cls-1" points="0 0 780 0 780 272 0 272"/></clipPath><radialGradient id="Безымянный_градиент" cx="-469.06" cy="-123.33" r="1" gradientTransform="translate(-17853.22 40844.02) rotate(90) scale(86.62 147.92)" gradientUnits="userSpaceOnUse"><stop offset="0.38" stop-color="#fff"/><stop offset="1" stop-color="#fff" stop-opacity="0"/></radialGradient></defs><g class="cls-2"><path class="cls-3" d="M0,0H780V272H0" transform="translate(0 1)"/><path class="cls-4" d="M216,115H564a16,16,0,0,1,16,16V256a16,16,0,0,1-16,16H216a16,16,0,0,1-16-16V131A16,16,0,0,1,216,115Z" transform="translate(0 1)"/><path class="cls-5" d="M216,115H564a16,16,0,0,1,16,16V256a16,16,0,0,1-16,16H216a16,16,0,0,1-16-16V131A16,16,0,0,1,216,115Z" transform="translate(0 1)"/><path class="cls-6" d="M272.7,240h8.8v-2.3h-6.1v-3.1H281v-2.3h-5.6v-3.1h6.1v-2.3h-8.8V240Zm19.4-4.2a1.86,1.86,0,0,1-1.9,2,1.69,1.69,0,0,1-1.7-1.9v-5.8h-2.7v6.3c0,2.3,1.3,3.7,3.3,3.7a3.14,3.14,0,0,0,3-1.9h.1V240h2.6v-9.8h-2.7v5.6ZM299,240h2.7v-5.6a2,2,0,0,1,2.1-2c.4,0,.9.1,1.2.1v-2.4a2.77,2.77,0,0,0-.9-.1,2.41,2.41,0,0,0-2.4,1.9h-.1v-1.7H299Zm13.4.2c3,0,4.8-2,4.8-5.1s-1.9-5.1-4.8-5.1-4.8,2-4.8,5.1S309.5,240.2,312.4,240.2Zm.1-2.1c-1.4,0-2.1-1.3-2.1-3s.7-3,2.1-3,2.1,1.3,2.1,3S313.8,238.1,312.5,238.1Zm8.6,5.6h2.7v-5.3h.1a2.94,2.94,0,0,0,2.8,1.7c2.2,0,4-1.8,4-5.1s-1.8-5.1-4-5.1a3,3,0,0,0-2.8,1.8h-.1v-1.6h-2.7v13.6Zm2.7-8.6c0-1.8.7-2.9,2.1-2.9s2.1,1.2,2.1,2.9-.7,2.9-2.1,2.9S323.8,236.8,323.8,235.1Zm15.3,5.1c2.4,0,4.1-1.2,4.4-3L341,237a1.94,1.94,0,0,1-1.9,1.1,2.11,2.11,0,0,1-2.2-2.4h6.7V235c0-3.3-2-5-4.6-5-2.9,0-4.8,2.1-4.8,5.1s1.8,5.1,4.9,5.1Zm-2.2-6.1a2.09,2.09,0,0,1,2.1-2,1.89,1.89,0,0,1,2,2Zm13.3,6.1a3,3,0,0,0,2.9-1.5h.1v1.4h2.6v-6.6c0-2.3-2-3.3-4.2-3.3-2.4,0-3.9,1.1-4.3,2.9l2.5.2a1.59,1.59,0,0,1,1.7-1.1,1.32,1.32,0,0,1,1.5,1.3h0c0,.6-.7.7-2.4.9-1.9.2-3.7.8-3.7,3,0,1.8,1.4,2.8,3.3,2.8Zm.8-1.9c-.8,0-1.4-.4-1.4-1.1s.6-1.1,1.6-1.3a7.81,7.81,0,0,0,1.9-.4v1a2,2,0,0,1-2.1,1.8Zm11.6-4a1.81,1.81,0,0,1,1.9-2,1.6,1.6,0,0,1,1.7,1.9V240h2.7v-6.3c0-2.3-1.3-3.7-3.4-3.7a3,3,0,0,0-3,1.9h-.1v-1.7h-2.6V240h2.7l.1-5.7Zm16.9,5.7h2.8v-4.2h2.3c3,0,4.8-1.8,4.8-4.4s-1.7-4.4-4.7-4.4h-5.2v13Zm2.7-6.5v-4.4h1.9a2.21,2.21,0,1,1,0,4.4Zm10.9,6.5h2.7v-5.6a2,2,0,0,1,2.1-2c.4,0,.9.1,1.2.1v-2.4a2.77,2.77,0,0,0-.9-.1,2.41,2.41,0,0,0-2.4,1.9h-.1v-1.7h-2.6V240Zm9.5,0h2.7v-9.8h-2.7Zm1.3-11.1a1.4,1.4,0,1,0-1.5-1.4A1.52,1.52,0,0,0,403.9,228.9Zm5.7,11.1h2.7v-5.9a1.64,1.64,0,0,1,1.6-1.8,1.45,1.45,0,0,1,1.5,1.6V240H418v-6a1.55,1.55,0,0,1,1.6-1.7,1.4,1.4,0,0,1,1.5,1.6V240h2.7v-6.6a3.19,3.19,0,0,0-6.1-1.4h-.1a2.65,2.65,0,0,0-2.7-1.9,2.7,2.7,0,0,0-2.7,1.9h-.1v-1.7h-2.6V240Zm22.9.2c2.4,0,4.1-1.2,4.4-3l-2.5-.2a1.94,1.94,0,0,1-1.9,1.1,2.11,2.11,0,0,1-2.2-2.4H437V235c0-3.3-2-5-4.6-5-2.9,0-4.8,2.1-4.8,5.1s1.9,5.1,4.9,5.1Zm-2.2-6.1a2.09,2.09,0,0,1,2.1-2,1.89,1.89,0,0,1,2,2Zm16.9,5.9h5.6c2.9,0,4.5-1.5,4.5-3.6a3.11,3.11,0,0,0-2.9-3.2v-.1a2.8,2.8,0,0,0,2.4-2.8c0-2-1.5-3.4-4.3-3.4h-5.2l-.1,13.1Zm2.7-2.3v-3.5h2.3a2,2,0,0,1,2.2,1.8c0,1-.7,1.6-2.2,1.6h-2.3Zm0-5.3v-3.2H452c1.2,0,1.9.6,1.9,1.6a1.77,1.77,0,0,1-2,1.7h-2Zm11.2,7.6h2.7v-5.6a2,2,0,0,1,2.1-2c.4,0,.9.1,1.1.1v-2.4a2.77,2.77,0,0,0-.9-.1,2.41,2.41,0,0,0-2.4,1.9h-.1v-1.7H461V240Zm13.4.2c3,0,4.8-2,4.8-5.1s-1.9-5.1-4.8-5.1-4.8,2-4.8,5.1S471.5,240.2,474.5,240.2Zm0-2.1c-1.4,0-2.1-1.3-2.1-3s.7-3,2.1-3,2.1,1.3,2.1,3S475.9,238.1,474.5,238.1Zm8.7,1.9h2.7v-3.1l.7-.8,2.7,4h3.2l-3.8-5.6,3.6-4.3h-3.1l-3.1,3.7H486v-7h-2.7l-.1,13.1Zm16.6.2c2.4,0,4.1-1.2,4.4-3l-2.5-.2a1.94,1.94,0,0,1-1.9,1.1,2.11,2.11,0,0,1-2.2-2.4h6.7V235c0-3.3-2-5-4.6-5-2.9,0-4.8,2.1-4.8,5.1s1.9,5.1,4.9,5.1Zm-2.2-6.1a2.09,2.09,0,0,1,2.1-2,1.89,1.89,0,0,1,2,2Zm10.5,5.9h2.7v-5.6a2,2,0,0,1,2.1-2c.4,0,.9.1,1.2.1v-2.4a2.77,2.77,0,0,0-.9-.1,2.41,2.41,0,0,0-2.4,1.9h-.1v-1.7h-2.6Z" transform="translate(0 1)"/><path class="cls-7" d="M205,163v8l11-4.1Z" transform="translate(0 1)"/><path class="cls-8" d="M180,167h25" transform="translate(0 1)"/><path class="cls-7" d="M575,171v-8l-11,4.1Z" transform="translate(0 1)"/><path class="cls-8" d="M600,167H575" transform="translate(0 1)"/><path class="cls-7" d="M285,116h-8l4.1,11Z" transform="translate(0 1)"/><path class="cls-8" d="M281,85v31" transform="translate(0 1)"/><path class="cls-7" d="M503,116h-8l4.1,11Z" transform="translate(0 1)"/><path class="cls-8" d="M499,85v31" transform="translate(0 1)"/><path class="cls-7" d="M503,9h-8l4.1,11Z" transform="translate(0 1)"/><path class="cls-9" d="M224,131H338a8,8,0,0,1,8,8v48a8,8,0,0,1-8,8H224a8,8,0,0,1-8-8V139A8,8,0,0,1,224,131Z" transform="translate(0 1)"/><path class="cls-9" d="M442,131H556a8,8,0,0,1,8,8v48a8,8,0,0,1-8,8H442a8,8,0,0,1-8-8V139A8,8,0,0,1,442,131Z" transform="translate(0 1)"/><path class="cls-7" d="M406,170v8l11-4.1Z" transform="translate(0 1)"/><path class="cls-8" d="M346,174h60" transform="translate(0 1)"/><path class="cls-7" d="M374,161v-8l-11,4.1Z" transform="translate(0 1)"/><path class="cls-8" d="M434,157H374M90,102V30A30,30,0,0,1,120,0H487.5A11.5,11.5,0,0,1,499,11.5" transform="translate(0 1)"/><path class="cls-9" d="M224,40H338a8,8,0,0,1,8,8V76a8,8,0,0,1-8,8H224a8,8,0,0,1-8-8V48A8,8,0,0,1,224,40Z" transform="translate(0 1)"/><path class="cls-10" d="M238.9,55.9V69h2.4l5.7-8.2h.1V69h2.8V55.9h-2.4l-5.6,8.2h-.1V55.9Zm15.7,3.3H252V69h2.6V65.1H258V69h2.6V59.2H258V63h-3.4V59.2Zm8.1,9.8h4.8c2.5,0,3.8-1,3.8-2.7,0-1.3-1-2.3-2.8-2.4,1.4-.2,2.2-1,2.2-2,0-1.7-1.5-2.7-3.9-2.7h-4.2V69Zm2.5-2V64.9h2.3c.8,0,1.2.4,1.2,1.1s-.5,1-1.2,1Zm0-3.8v-2h1.6c.8,0,1.4.4,1.4,1s-.5,1-1.3,1Zm12.3,6c2.4,0,4.1-1.2,4.4-3l-2.5-.2a1.94,1.94,0,0,1-1.9,1.1,2.11,2.11,0,0,1-2.2-2.4H282V64c0-3.3-2-5-4.6-5-2.9,0-4.8,2.1-4.8,5.1s1.9,5.1,4.9,5.1Zm-2.1-6.1a2.09,2.09,0,0,1,2.1-2,1.89,1.89,0,0,1,2,2Zm12.9,6.1c2.6,0,4.3-1.5,4.4-3.8h-2.6a1.82,1.82,0,0,1-1.8,1.6c-1.3,0-2.1-1.1-2.1-2.9s.8-2.9,2.1-2.9a1.83,1.83,0,0,1,1.8,1.6h2.6c-.1-2.3-1.8-3.8-4.4-3.8-3,0-4.8,2.1-4.8,5.1S285.2,69.2,288.3,69.2Zm5.4-7.9h3.1V69h2.6V61.3h3.2V59.2h-8.9Zm14.7,7.9c3,0,4.8-2,4.8-5.1s-1.9-5.1-4.8-5.1-4.8,2-4.8,5.1S305.4,69.2,308.4,69.2Zm0-2.1c-1.4,0-2.1-1.3-2.1-3s.7-3,2.1-3,2.1,1.3,2.1,3S309.7,67.1,308.4,67.1Zm6.6,5.6h2.7V67.4h.1a2.94,2.94,0,0,0,2.8,1.7c2.2,0,4-1.8,4-5.1s-1.8-5-4-5a3,3,0,0,0-2.8,1.8h-.1V59.1H315V72.7Zm2.6-8.6c0-1.8.7-2.9,2.1-2.9s2.1,1.2,2.1,2.9-.7,2.9-2.1,2.9S317.6,65.8,317.6,64.1Z" transform="translate(0 1)"/><path class="cls-9" d="M442,40H556a8,8,0,0,1,8,8V76a8,8,0,0,1-8,8H442a8,8,0,0,1-8-8V48A8,8,0,0,1,442,40Z" transform="translate(0 1)"/><path class="cls-10" d="M480.3,57.3a5.14,5.14,0,0,0-5.4,5.4c0,3.2,2.2,5.2,5.4,5.2h.1v1.6H483V67.8h.2a5.3,5.3,0,1,0,0-10.6H483V55.6h-2.6v1.6l-.1.1Zm0,2.3h.1v5.9h-.1a2.61,2.61,0,0,1-2.8-2.9C477.5,60.6,478.6,59.6,480.3,59.6Zm2.8,0h.2c1.7,0,2.8,1,2.8,3a2.61,2.61,0,0,1-2.8,2.9h-.2Zm12,9.6c3,0,4.8-2,4.8-5.1S498,59,495.1,59s-4.8,2-4.8,5.1S492.1,69.2,495.1,69.2Zm0-2.1c-1.4,0-2.1-1.3-2.1-3s.7-3,2.1-3,2.1,1.3,2.1,3S496.4,67.1,495.1,67.1Zm9.2-7.9h-2.6V69h2.6V65.1h3.4V69h2.6V59.2h-2.6V63h-3.4Zm7.3,12.7h2.7V69h6v2.9h2.6v-5h-1.5V59.2h-7.5l-.3,3.2c-.2,1.9-.3,3.9-1.2,4.4h-.8v5.1Zm3.4-5.1c.6-.9.8-2.4,1-4.4l.1-1.1h2.6v5.6l-3.7-.1Z" transform="translate(0 1)"/><path class="cls-9" d="M8,133H172a8,8,0,0,1,8,8v46a8,8,0,0,1-8,8H8a8,8,0,0,1-8-8V141A8,8,0,0,1,8,133Z" transform="translate(0 1)"/><path class="cls-11" d="M80,99.3l-.1-.3Zm-.2-1h0l-.3.1h0a3.07,3.07,0,0,0-1.5,1l.8.6-.8-.6a3.06,3.06,0,0,0-.7,2v6.4A17.12,17.12,0,0,0,83,120.5a25.51,25.51,0,0,0,3.8,2.9,8.79,8.79,0,0,0,1.3.7c.2.1.3.1.4.2h.1a4.19,4.19,0,0,0,1.5.4h0a2.82,2.82,0,0,0,1.5-.4h.1c.1,0,.2-.1.4-.2s.8-.4,1.3-.7a18.19,18.19,0,0,0,3.8-2.9,17.3,17.3,0,0,0,5.7-12.7v-6.4a3.72,3.72,0,0,0-.7-2l-.8.6.8-.6a3.41,3.41,0,0,0-1.8-1.1h0c-.3-.1-.6-.1-.8-.2-.8-.1-1.6-.3-2.3-.4a46.88,46.88,0,0,0-7-.6,46.88,46.88,0,0,0-7,.6c-1,.1-2,.3-3,.5a1.34,1.34,0,0,1-.5.1Zm11,9.8.2.7h3.2l-2,1.5-.6.4.2.7.7,2.4-2-1.4L90,112l-.6.4-2,1.4.7-2.4.2-.7-.6-.4-2-1.5h3.2l.2-.7.8-2.4Zm2.2,7Zm-6.7-.5Z" transform="translate(0 1)"/><path class="cls-9" d="M608,131H772a8,8,0,0,1,8,8v48a8,8,0,0,1-8,8H608a8,8,0,0,1-8-8V139A8,8,0,0,1,608,131Z" transform="translate(0 1)"/><path class="cls-8" d="M90,195v8a30,30,0,0,0,30,30H256.3" transform="translate(0 1)"/><path class="cls-7" d="M256.3,229v8l8.7-4.1Z" transform="translate(0 1)"/><path class="cls-8" d="M690,195v8a30,30,0,0,1-30,30H534" transform="translate(0 1)"/><path class="cls-7" d="M534,237v-8l-11,4.1Z" transform="translate(0 1)"/><path class="cls-11" d="M698.5,112.2h-16a3.12,3.12,0,0,0-3.1,3.1h0v21.3a3.12,3.12,0,0,0,3.1,3.1h16a3.12,3.12,0,0,0,3.1-3.1h0V115.3a3,3,0,0,0-3.1-3.1Zm-13.3,15.9a.6.6,0,1,1-.6.6A.58.58,0,0,1,685.2,128.1Zm-.6-4.8a.6.6,0,1,1,.6.6A.58.58,0,0,1,684.6,123.3Zm5.9,11.3h-5.3a.6.6,0,0,1,0-1.2h5.3a.65.65,0,0,1,.6.6A.58.58,0,0,1,690.5,134.6Zm0-5.3a.6.6,0,0,1,0-1.2h0a.65.65,0,0,1,.6.6A.58.58,0,0,1,690.5,129.3Zm0-5.4a.6.6,0,1,1,.6-.6A.53.53,0,0,1,690.5,123.9Zm5.4,10.7a.6.6,0,1,1,.6-.6A.65.65,0,0,1,695.9,134.6Zm0-5.3a.6.6,0,0,1,0-1.2h0a.6.6,0,1,1,0,1.2Zm0-5.4a.6.6,0,1,1,.6-.6A.58.58,0,0,1,695.9,123.9Zm.6-5.3H684.6v-1.2h11.9Z" transform="translate(0 1)"/><circle class="cls-3" cx="499" cy="35" r="15"/><circle class="cls-11" cx="281" cy="33" r="14"/><path class="cls-3" d="M281,21c-4.2,0-6,2.7-6,6a6.13,6.13,0,0,0,.5,2.2,1.15,1.15,0,0,0-.5,1.2c.2,1.3.7,1.6,1.1,1.6a5.22,5.22,0,0,0,1.9,3v2h0a1,1,0,0,0-.8.5l-.3.6c-2.5,1.4-7.9,1-7.9,6.8h10.3l1.2-3.9-1.1-2.1h3.3L281.6,41l1.2,3.9h3.3v-1a.94.94,0,0,1,1-1h2a.94.94,0,0,1,1,1v1h3c0-5.8-5.4-5.4-7.9-6.8l-.3-.6a.89.89,0,0,0-.8-.5h0V35a5.37,5.37,0,0,0,1.9-3c.4,0,.9-.4,1.1-1.6a1.15,1.15,0,0,0-.5-1.2,5.48,5.48,0,0,0,.5-2.2c0-2.4-1-4.5-3-4.5A3.62,3.62,0,0,0,281,21Z" transform="translate(0 1)"/></g><path class="cls-3" d="M263.59,161.05a4.67,4.67,0,0,1-1.62-1.17,5.41,5.41,0,0,1-1.06-1.89,8.14,8.14,0,0,1-.38-2.58v-1a7.6,7.6,0,0,1,.38-2.48,5.31,5.31,0,0,1,1.06-1.83A4.69,4.69,0,0,1,263.6,149a5.74,5.74,0,0,1,3.91-.09,4.64,4.64,0,0,1,1.43.8,4,4,0,0,1,1,1.18,4.33,4.33,0,0,1,.5,1.44H269.1a3.25,3.25,0,0,0-.41-1,3.34,3.34,0,0,0-.72-.82,3.18,3.18,0,0,0-1-.55,4.08,4.08,0,0,0-1.3-.2,3.7,3.7,0,0,0-1.53.31,3.23,3.23,0,0,0-1.21.9,4,4,0,0,0-.8,1.46,6.3,6.3,0,0,0-.29,2v1a7.1,7.1,0,0,0,.29,2.12,4.29,4.29,0,0,0,.82,1.53,3.18,3.18,0,0,0,1.21.92,3.64,3.64,0,0,0,1.51.31,3.81,3.81,0,0,0,1.3-.21,3.23,3.23,0,0,0,1-.57,3.41,3.41,0,0,0,.72-.87,3.79,3.79,0,0,0,.41-1.11h1.33a4.78,4.78,0,0,1-.5,1.55,4,4,0,0,1-1,1.24,4.49,4.49,0,0,1-1.43.82,5.77,5.77,0,0,1-3.92-.09Z" transform="translate(0 1)"/><path class="cls-3" d="M273.22,157.48a3.15,3.15,0,0,1-.81-2.39v-2.78h1.19V155a2.31,2.31,0,0,0,.49,1.68,2.48,2.48,0,0,0,1.74.48,8.11,8.11,0,0,0,1.26-.09l1-.19v-4.58h1.19v9h-1.19V158l-1,.19a8,8,0,0,1-1.26.1A3.67,3.67,0,0,1,273.22,157.48Z" transform="translate(0 1)"/><path class="cls-3" d="M284.06,161.15a3.39,3.39,0,0,1-1.23-.83,4.06,4.06,0,0,1-.78-1.35,5.53,5.53,0,0,1-.28-1.85v-.61a5.51,5.51,0,0,1,.28-1.84,3.87,3.87,0,0,1,.79-1.36,3.39,3.39,0,0,1,1.23-.83,4,4,0,0,1,1.57-.29,4.09,4.09,0,0,1,1.59.29,3.26,3.26,0,0,1,1.22.84,3.71,3.71,0,0,1,.78,1.38,5.8,5.8,0,0,1,.28,1.9v.54H283a3.64,3.64,0,0,0,.68,2.39,2.38,2.38,0,0,0,2,.83,3,3,0,0,0,1.61-.39,2.28,2.28,0,0,0,.95-1.17h1.22a3.23,3.23,0,0,1-1.29,2,4.75,4.75,0,0,1-4.07.38Zm-.27-7.15a3.24,3.24,0,0,0-.79,2.13h5.29a3.24,3.24,0,0,0-.8-2.16,2.52,2.52,0,0,0-1.85-.7A2.43,2.43,0,0,0,283.79,154Zm-.52-3.51a.88.88,0,0,1,0-1.21.85.85,0,0,1,.61-.24.85.85,0,1,1,0,1.69A.85.85,0,0,1,283.27,150.49Zm3.53,0a.88.88,0,0,1,0-1.21.84.84,0,0,1,.61-.24.85.85,0,1,1,0,1.69A.84.84,0,0,1,286.8,150.49Z" transform="translate(0 1)"/><path class="cls-3" d="M293.51,153.39h-3v-1.08h7.2v1.08h-3v7.92h-1.19Z" transform="translate(0 1)"/><path class="cls-3" d="M238.55,164.77h1.26v11.15h0l6.45-11.15h1.8v12.6h-1.26V166.21h0l-6.44,11.16h-1.8Z" transform="translate(0 1)"/><path class="cls-3" d="M251.24,168.37h1.19v3.87h5v-3.87h1.19v9h-1.19v-4.05h-5v4.05h-1.19Z" transform="translate(0 1)"/><path class="cls-3" d="M261.68,168.37h3.42a3.37,3.37,0,0,1,2.31.67,2.3,2.3,0,0,1,.75,1.79,2,2,0,0,1-1.14,1.84v0a2.38,2.38,0,0,1,1.12.83,2.16,2.16,0,0,1,.38,1.26,2.41,2.41,0,0,1-.75,1.89,3.32,3.32,0,0,1-2.31.69h-3.78Zm4.82,1.44a2.36,2.36,0,0,0-1.49-.36h-2.14v2.82H265a2.29,2.29,0,0,0,1.49-.37,1.28,1.28,0,0,0,.43-1.05A1.3,1.3,0,0,0,266.5,169.81Zm.36,3.85a2.28,2.28,0,0,0-1.49-.38h-2.5v3h2.5a2.28,2.28,0,0,0,1.49-.38,1.42,1.42,0,0,0,.43-1.14A1.38,1.38,0,0,0,266.86,173.66Z" transform="translate(0 1)"/><path class="cls-3" d="M272.78,177.2a3.35,3.35,0,0,1-1.22-.83,3.75,3.75,0,0,1-.78-1.35,5.53,5.53,0,0,1-.28-1.85v-.61a5.56,5.56,0,0,1,.28-1.84,3.72,3.72,0,0,1,.79-1.36,3.44,3.44,0,0,1,1.22-.83,4.45,4.45,0,0,1,3.16,0,3.29,3.29,0,0,1,1.23.84,4.11,4.11,0,0,1,.78,1.38,6.08,6.08,0,0,1,.28,1.9v.54h-6.52a3.64,3.64,0,0,0,.69,2.39,2.37,2.37,0,0,0,2,.83A3,3,0,0,0,276,176a2.27,2.27,0,0,0,.94-1.17h1.23a3.31,3.31,0,0,1-1.29,2,4.24,4.24,0,0,1-2.49.67A4.09,4.09,0,0,1,272.78,177.2Zm-.27-7.15a3.31,3.31,0,0,0-.79,2.13H277a3.19,3.19,0,0,0-.8-2.16,2.5,2.5,0,0,0-1.84-.7A2.46,2.46,0,0,0,272.51,170.05Z" transform="translate(0 1)"/><path class="cls-3" d="M281.26,176.38a4.72,4.72,0,0,1-1-3.3v-.61a5.22,5.22,0,0,1,.28-1.79,3.74,3.74,0,0,1,.77-1.32,3.27,3.27,0,0,1,1.2-.83,4,4,0,0,1,1.53-.29,4.46,4.46,0,0,1,1.42.21,3.27,3.27,0,0,1,1.08.57,3,3,0,0,1,.72.85,3.44,3.44,0,0,1,.38,1h-1.23a2.24,2.24,0,0,0-.73-1.11,2.37,2.37,0,0,0-1.55-.45,2.47,2.47,0,0,0-1.9.81,3.32,3.32,0,0,0-.75,2.34v.61a3.62,3.62,0,0,0,.76,2.49,2.43,2.43,0,0,0,1.89.84,2.26,2.26,0,0,0,1.55-.47,2.33,2.33,0,0,0,.73-1.27h1.23a3.8,3.8,0,0,1-.38,1.12,2.94,2.94,0,0,1-.72.89,3.52,3.52,0,0,1-1.08.6,4.46,4.46,0,0,1-1.42.21A3.59,3.59,0,0,1,281.26,176.38Z" transform="translate(0 1)"/><path class="cls-3" d="M291.68,169.45h-3v-1.08h7.2v1.08h-3v7.92h-1.19Z" transform="translate(0 1)"/><path class="cls-3" d="M298,176.37a4.44,4.44,0,0,1-1.08-3.2v-.61a5.56,5.56,0,0,1,.28-1.84,3.61,3.61,0,0,1,.8-1.36,3.47,3.47,0,0,1,1.25-.83,4.42,4.42,0,0,1,1.63-.29,3.81,3.81,0,0,1,2.89,1.12,4.45,4.45,0,0,1,1.07,3.2v.61a5.78,5.78,0,0,1-.28,1.84,3.74,3.74,0,0,1-.8,1.36,3.55,3.55,0,0,1-1.25.83,4.26,4.26,0,0,1-1.63.29A3.8,3.8,0,0,1,298,176.37Zm4.87-.77a3.51,3.51,0,0,0,.74-2.43v-.61a3.46,3.46,0,0,0-.75-2.42,2.82,2.82,0,0,0-4,0,3.47,3.47,0,0,0-.75,2.43v.61a3.41,3.41,0,0,0,.76,2.42,2.54,2.54,0,0,0,2,.82A2.58,2.58,0,0,0,302.82,175.6Z" transform="translate(0 1)"/><path class="cls-3" d="M307.31,168.37h.93l.15,1.35h0a3.74,3.74,0,0,1,1.32-1.13,3.86,3.86,0,0,1,1.69-.35,3.69,3.69,0,0,1,1.46.28,3,3,0,0,1,1.14.83,3.82,3.82,0,0,1,.75,1.35,5.79,5.79,0,0,1,.27,1.86v.61a5.81,5.81,0,0,1-.27,1.85,4,4,0,0,1-.76,1.35,3.26,3.26,0,0,1-1.15.83,3.5,3.5,0,0,1-1.44.29,3.91,3.91,0,0,1-1.7-.35,3,3,0,0,1-1.2-1h0V181h-1.18Zm5.77,7.24a3.46,3.46,0,0,0,.74-2.44v-.61a3.5,3.5,0,0,0-.74-2.42,2.47,2.47,0,0,0-1.92-.82,2.52,2.52,0,0,0-1.93.8,3.51,3.51,0,0,0-.74,2.44v.61a3.46,3.46,0,0,0,.75,2.42,2.68,2.68,0,0,0,3.84,0Z" transform="translate(0 1)"/><path class="cls-3" d="M317.68,176.8a2.47,2.47,0,0,1-.74-1.92,3,3,0,0,1,.21-1.16,2.27,2.27,0,0,1,.67-.87,3.2,3.2,0,0,1,1.14-.56,6.21,6.21,0,0,1,1.67-.2H323v-.67a2.12,2.12,0,0,0-.52-1.57,2.44,2.44,0,0,0-1.71-.49,2.73,2.73,0,0,0-1.61.37,1.39,1.39,0,0,0-.59,1H317.3a2.26,2.26,0,0,1,.27-.94,2.43,2.43,0,0,1,.65-.79,3.21,3.21,0,0,1,1.06-.54,4.86,4.86,0,0,1,1.44-.2,3.64,3.64,0,0,1,2.58.8,3.14,3.14,0,0,1,.84,2.38v6h-.94l-.14-1.53h0a3.65,3.65,0,0,1-1.34,1.23,3.73,3.73,0,0,1-1.77.42A3.15,3.15,0,0,1,317.68,176.8Zm3.51-.63a2.87,2.87,0,0,0,.93-.58,2.49,2.49,0,0,0,.61-.88,2.76,2.76,0,0,0,.22-1.12v-.49h-2.23a3.05,3.05,0,0,0-2,.49,1.58,1.58,0,0,0-.58,1.29,1.42,1.42,0,0,0,.44,1.09,2,2,0,0,0,1.4.41A3.27,3.27,0,0,0,321.19,176.17Z" transform="translate(0 1)"/><path class="cls-3" d="M16.93,170.7H18.7l3.6,7.11h0l3.6-7.11h1.7v11.9H26.45V172.14h0l-3.54,7H21.69l-3.54-7h0V182.6H16.93Z" transform="translate(0 1)"/><path class="cls-3" d="M29.05,170.7h7.14v1.09H30.24v4.15h4.93V177H30.24v5.58H29.05Z" transform="translate(0 1)"/><path class="cls-3" d="M37.19,181.72A4,4,0,0,1,36,179h1.26A3,3,0,0,0,38.1,181a3.22,3.22,0,0,0,2.22.66,3.14,3.14,0,0,0,2.12-.58,2,2,0,0,0,.65-1.56,1.53,1.53,0,0,0-.51-1.23,4.34,4.34,0,0,0-1.28-.73,16.49,16.49,0,0,0-1.67-.51,7.93,7.93,0,0,1-1.68-.59,3.85,3.85,0,0,1-1.28-1,2.63,2.63,0,0,1-.51-1.7,3.07,3.07,0,0,1,.25-1.25,2.81,2.81,0,0,1,.75-1,3.65,3.65,0,0,1,1.22-.66,5.43,5.43,0,0,1,1.69-.24,4.26,4.26,0,0,1,3,.94,3.75,3.75,0,0,1,1.15,2.58H43a2.84,2.84,0,0,0-.81-1.83,3.05,3.05,0,0,0-2.09-.6,3.92,3.92,0,0,0-1.21.17,2.4,2.4,0,0,0-.84.45,1.8,1.8,0,0,0-.49.65,2.09,2.09,0,0,0-.15.79,1.56,1.56,0,0,0,.51,1.25,3.85,3.85,0,0,0,1.28.72,16.83,16.83,0,0,0,1.68.48,8.42,8.42,0,0,1,1.67.58,3.56,3.56,0,0,1,1.29,1,2.64,2.64,0,0,1,.51,1.73,3.47,3.47,0,0,1-.25,1.31,2.65,2.65,0,0,1-.75,1,3.62,3.62,0,0,1-1.25.66,5.74,5.74,0,0,1-1.75.24A4.43,4.43,0,0,1,37.19,181.72Z" transform="translate(0 1)"/><path class="cls-3" d="M48.36,170.7h1.36l4.42,11.9H52.85l-1.24-3.45h-5.2l-1.24,3.45H43.94Zm2.86,7.36L49,172h0l-2.21,6.09Z" transform="translate(0 1)"/><path class="cls-3" d="M55.3,181.15h1.36l-1.19,4h-1Z" transform="translate(0 1)"/><path class="cls-3" d="M60.76,170.7H67.9v1.09H62v4.15h4.93V177H62v5.58H60.76Z" transform="translate(0 1)"/><path class="cls-3" d="M70.5,182.34A4.13,4.13,0,0,1,69,181.25a5.1,5.1,0,0,1-1-1.79,7.85,7.85,0,0,1-.35-2.44v-.91a7.29,7.29,0,0,1,.35-2.34A5,5,0,0,1,69,172,4.2,4.2,0,0,1,70.5,171a5,5,0,0,1,2-.38,5,5,0,0,1,1.74.28,4.6,4.6,0,0,1,1.36.76,4,4,0,0,1,.93,1.11A4.14,4.14,0,0,1,77,174.1H75.7a3.17,3.17,0,0,0-.39-.95,2.94,2.94,0,0,0-1.63-1.29,3.69,3.69,0,0,0-1.23-.19A3.43,3.43,0,0,0,71,172a3,3,0,0,0-1.15.85,4,4,0,0,0-.76,1.38,6.18,6.18,0,0,0-.27,1.92V177a6.46,6.46,0,0,0,.28,2,4.11,4.11,0,0,0,.77,1.44,3,3,0,0,0,1.14.87,3.62,3.62,0,0,0,1.43.29,3.69,3.69,0,0,0,1.23-.19,3.26,3.26,0,0,0,.95-.54,3,3,0,0,0,.68-.82A3.9,3.9,0,0,0,75.7,179H77a4.56,4.56,0,0,1-.48,1.46,4,4,0,0,1-.93,1.18,4.63,4.63,0,0,1-1.36.77,5.35,5.35,0,0,1-3.69-.1Z" transform="translate(0 1)"/><path class="cls-3" d="M80.66,170.7H82l4.42,11.9H85.15l-1.24-3.45h-5.2l-1.24,3.45H76.24Zm2.86,7.36L81.34,172h0l-2.21,6.09Z" transform="translate(0 1)"/><path class="cls-3" d="M87.6,181.15H89l-1.19,4h-1Z" transform="translate(0 1)"/><path class="cls-3" d="M96.35,181.72a4,4,0,0,1-1.2-2.69H96.4a3,3,0,0,0,.86,1.94,3.2,3.2,0,0,0,2.22.66,3.14,3.14,0,0,0,2.12-.58,2,2,0,0,0,.65-1.56,1.53,1.53,0,0,0-.51-1.23,4.48,4.48,0,0,0-1.28-.73,16.7,16.7,0,0,0-1.68-.51,7.84,7.84,0,0,1-1.67-.59,3.76,3.76,0,0,1-1.28-1,2.63,2.63,0,0,1-.51-1.7,3.07,3.07,0,0,1,.25-1.25,2.81,2.81,0,0,1,.75-1,3.65,3.65,0,0,1,1.22-.66,5.43,5.43,0,0,1,1.69-.24,4.26,4.26,0,0,1,3,.94,3.75,3.75,0,0,1,1.15,2.58h-1.26a2.84,2.84,0,0,0-.81-1.83,3.05,3.05,0,0,0-2.09-.6,3.92,3.92,0,0,0-1.21.17,2.4,2.4,0,0,0-.84.45,1.7,1.7,0,0,0-.49.65,2.09,2.09,0,0,0-.15.79,1.56,1.56,0,0,0,.51,1.25,3.85,3.85,0,0,0,1.28.72,16.83,16.83,0,0,0,1.68.48,8.42,8.42,0,0,1,1.67.58,3.56,3.56,0,0,1,1.29,1,2.64,2.64,0,0,1,.51,1.73,3.47,3.47,0,0,1-.25,1.31,2.76,2.76,0,0,1-.75,1,3.62,3.62,0,0,1-1.25.66,5.74,5.74,0,0,1-1.75.24A4.43,4.43,0,0,1,96.35,181.72Z" transform="translate(0 1)"/><path class="cls-3" d="M106.65,182.6l-3.55-8.5h1.23l2.9,7.11h0l2.67-7.11h1.15L106.5,186h-1.15Z" transform="translate(0 1)"/><path class="cls-3" d="M112.09,181.72a4,4,0,0,1-1.2-2.69h1.26A3,3,0,0,0,113,181a3.24,3.24,0,0,0,2.22.66,3.14,3.14,0,0,0,2.12-.58,2,2,0,0,0,.65-1.56,1.53,1.53,0,0,0-.51-1.23,4.34,4.34,0,0,0-1.28-.73,16.49,16.49,0,0,0-1.67-.51,7.93,7.93,0,0,1-1.68-.59,3.85,3.85,0,0,1-1.28-1,2.63,2.63,0,0,1-.51-1.7,3.07,3.07,0,0,1,.25-1.25,2.81,2.81,0,0,1,.75-1,3.65,3.65,0,0,1,1.22-.66,5.43,5.43,0,0,1,1.69-.24,4.3,4.3,0,0,1,3,.94,3.79,3.79,0,0,1,1.14,2.58h-1.26a2.84,2.84,0,0,0-.81-1.83,3.05,3.05,0,0,0-2.09-.6,3.92,3.92,0,0,0-1.21.17,2.4,2.4,0,0,0-.84.45,1.8,1.8,0,0,0-.49.65,2.09,2.09,0,0,0-.15.79,1.56,1.56,0,0,0,.51,1.25,3.81,3.81,0,0,0,1.29.72,15.89,15.89,0,0,0,1.67.48,8.42,8.42,0,0,1,1.67.58,3.56,3.56,0,0,1,1.29,1,2.64,2.64,0,0,1,.51,1.73,3.29,3.29,0,0,1-.25,1.31,2.65,2.65,0,0,1-.75,1,3.62,3.62,0,0,1-1.25.66,5.74,5.74,0,0,1-1.75.24A4.43,4.43,0,0,1,112.09,181.72Z" transform="translate(0 1)"/><path class="cls-3" d="M121.68,182.45a3.11,3.11,0,0,1-1.15-.79,3.51,3.51,0,0,1-.74-1.28,5.13,5.13,0,0,1-.27-1.74v-.58a5.19,5.19,0,0,1,.27-1.73,3.55,3.55,0,0,1,.74-1.29,3.32,3.32,0,0,1,1.16-.79,4.25,4.25,0,0,1,3,0,3.06,3.06,0,0,1,1.16.8,3.75,3.75,0,0,1,.74,1.3,5.51,5.51,0,0,1,.26,1.8v.51h-6.15a3.42,3.42,0,0,0,.65,2.26,2.26,2.26,0,0,0,1.85.78,2.83,2.83,0,0,0,1.52-.37,2.13,2.13,0,0,0,.89-1.11h1.16a3.08,3.08,0,0,1-1.22,1.86,4,4,0,0,1-2.35.64A4,4,0,0,1,121.68,182.45Zm-.25-6.76a3.12,3.12,0,0,0-.75,2h5a3.07,3.07,0,0,0-.76-2,2.38,2.38,0,0,0-1.74-.66A2.3,2.3,0,0,0,121.43,175.69Z" transform="translate(0 1)"/><path class="cls-3" d="M128,181.67a4.43,4.43,0,0,1-1-3.12V178a5,5,0,0,1,.27-1.7,3.68,3.68,0,0,1,.73-1.25,3.1,3.1,0,0,1,1.13-.78,3.77,3.77,0,0,1,1.44-.27,4.35,4.35,0,0,1,1.35.2,3.31,3.31,0,0,1,1,.54,2.87,2.87,0,0,1,.68.8,3,3,0,0,1,.35,1h-1.15a2.15,2.15,0,0,0-.7-1,2.19,2.19,0,0,0-1.46-.43,2.32,2.32,0,0,0-1.79.77,3.14,3.14,0,0,0-.71,2.21v.57a3.44,3.44,0,0,0,.71,2.35,2.33,2.33,0,0,0,1.79.8,2.19,2.19,0,0,0,1.46-.44,2.32,2.32,0,0,0,.7-1.21H134a3.39,3.39,0,0,1-.35,1.06,2.65,2.65,0,0,1-.68.84,3.15,3.15,0,0,1-1,.56,4.07,4.07,0,0,1-1.35.21A3.38,3.38,0,0,1,128,181.67Z" transform="translate(0 1)"/><path class="cls-3" d="M135.18,181.15h1.36l-1.19,4h-1Z" transform="translate(0 1)"/><path class="cls-3" d="M141.33,181.72a4,4,0,0,1-1.2-2.69h1.25a3,3,0,0,0,.86,1.94,3.22,3.22,0,0,0,2.22.66,3.14,3.14,0,0,0,2.12-.58,2,2,0,0,0,.65-1.56,1.53,1.53,0,0,0-.51-1.23,4.34,4.34,0,0,0-1.28-.73,16.49,16.49,0,0,0-1.67-.51,7.93,7.93,0,0,1-1.68-.59,3.76,3.76,0,0,1-1.28-1,2.63,2.63,0,0,1-.51-1.7,3.07,3.07,0,0,1,.25-1.25,2.81,2.81,0,0,1,.75-1,3.65,3.65,0,0,1,1.22-.66,5.43,5.43,0,0,1,1.69-.24,4.26,4.26,0,0,1,3,.94,3.75,3.75,0,0,1,1.15,2.58h-1.26a2.84,2.84,0,0,0-.81-1.83,3.05,3.05,0,0,0-2.09-.6,3.92,3.92,0,0,0-1.21.17,2.4,2.4,0,0,0-.84.45,1.8,1.8,0,0,0-.49.65,2.09,2.09,0,0,0-.15.79A1.56,1.56,0,0,0,142,175a3.85,3.85,0,0,0,1.28.72,16.83,16.83,0,0,0,1.68.48,8.42,8.42,0,0,1,1.67.58,3.56,3.56,0,0,1,1.29,1,2.64,2.64,0,0,1,.51,1.73,3.47,3.47,0,0,1-.25,1.31,2.65,2.65,0,0,1-.75,1,3.62,3.62,0,0,1-1.25.66,5.74,5.74,0,0,1-1.75.24A4.43,4.43,0,0,1,141.33,181.72Z" transform="translate(0 1)"/><path class="cls-3" d="M149.36,170.7h7.14v1.09h-5.95v4.15h4.93V177h-4.93v5.58h-1.19Z" transform="translate(0 1)"/><path class="cls-3" d="M159.1,182.34a4.13,4.13,0,0,1-1.53-1.09,4.93,4.93,0,0,1-1-1.79,7.55,7.55,0,0,1-.36-2.44v-.91a7,7,0,0,1,.36-2.34,4.88,4.88,0,0,1,1-1.74,4.15,4.15,0,0,1,1.54-1.07,4.94,4.94,0,0,1,1.94-.38,5.06,5.06,0,0,1,1.75.28,4.68,4.68,0,0,1,1.35.76,4,4,0,0,1,.93,1.11,4.14,4.14,0,0,1,.48,1.37H164.3a3.17,3.17,0,0,0-.39-.95,2.94,2.94,0,0,0-1.63-1.29,3.65,3.65,0,0,0-1.23-.19,3.43,3.43,0,0,0-1.44.29,3.08,3.08,0,0,0-1.15.85,4.15,4.15,0,0,0-.76,1.38,6.18,6.18,0,0,0-.27,1.92V177a6.78,6.78,0,0,0,.28,2,4.11,4.11,0,0,0,.77,1.44,3,3,0,0,0,1.15.87,3.53,3.53,0,0,0,1.42.29,3.65,3.65,0,0,0,1.23-.19,3.26,3.26,0,0,0,.95-.54,3,3,0,0,0,.68-.82,3.9,3.9,0,0,0,.39-1.05h1.26a4.56,4.56,0,0,1-.48,1.46,4,4,0,0,1-.93,1.18,4.7,4.7,0,0,1-1.35.77,5.06,5.06,0,0,1-1.75.28A5,5,0,0,1,159.1,182.34Z" transform="translate(0 1)"/><path class="cls-3" d="M481.23,161.05a4.67,4.67,0,0,1-1.62-1.17,5.41,5.41,0,0,1-1.06-1.89,8.14,8.14,0,0,1-.38-2.58v-1a7.6,7.6,0,0,1,.38-2.48,5.31,5.31,0,0,1,1.06-1.83,4.69,4.69,0,0,1,1.63-1.15,5.74,5.74,0,0,1,3.91-.09,4.64,4.64,0,0,1,1.43.8,4,4,0,0,1,1,1.18,4.33,4.33,0,0,1,.5,1.44h-1.33a3.25,3.25,0,0,0-.41-1,3.34,3.34,0,0,0-.72-.82,3.18,3.18,0,0,0-1-.55,4.08,4.08,0,0,0-1.3-.2,3.7,3.7,0,0,0-1.53.31,3.23,3.23,0,0,0-1.21.9,4.18,4.18,0,0,0-.8,1.46,6.3,6.3,0,0,0-.29,2v1a6.78,6.78,0,0,0,.3,2.12,4.12,4.12,0,0,0,.81,1.53,3.18,3.18,0,0,0,1.21.92,3.64,3.64,0,0,0,1.51.31,3.81,3.81,0,0,0,1.3-.21,3.23,3.23,0,0,0,1-.57,3.41,3.41,0,0,0,.72-.87,3.79,3.79,0,0,0,.41-1.11h1.33a4.78,4.78,0,0,1-.5,1.55,4,4,0,0,1-1,1.24,4.49,4.49,0,0,1-1.43.82,5.77,5.77,0,0,1-3.92-.09Z" transform="translate(0 1)"/><path class="cls-3" d="M490.86,157.48a3.15,3.15,0,0,1-.81-2.39v-2.78h1.19V155a2.31,2.31,0,0,0,.5,1.68,2.45,2.45,0,0,0,1.73.48,8.11,8.11,0,0,0,1.26-.09l1-.19v-4.58h1.18v9h-1.18V158l-1,.19a8,8,0,0,1-1.26.1A3.67,3.67,0,0,1,490.86,157.48Z" transform="translate(0 1)"/><path class="cls-3" d="M501.7,161.15a3.39,3.39,0,0,1-1.23-.83,4.06,4.06,0,0,1-.78-1.35,5.8,5.8,0,0,1-.28-1.85v-.61a5.78,5.78,0,0,1,.28-1.84,3.87,3.87,0,0,1,.79-1.36,3.48,3.48,0,0,1,1.23-.83,4,4,0,0,1,1.57-.29,4.09,4.09,0,0,1,1.59.29,3.26,3.26,0,0,1,1.22.84,3.71,3.71,0,0,1,.78,1.38,5.8,5.8,0,0,1,.28,1.9v.54h-6.51a3.64,3.64,0,0,0,.68,2.39,2.38,2.38,0,0,0,2,.83,3,3,0,0,0,1.61-.39,2.28,2.28,0,0,0,.95-1.17h1.22a3.26,3.26,0,0,1-1.28,2,4.78,4.78,0,0,1-4.08.38Zm-.27-7.15a3.24,3.24,0,0,0-.79,2.13h5.29a3.24,3.24,0,0,0-.8-2.16,2.52,2.52,0,0,0-1.85-.7A2.43,2.43,0,0,0,501.43,154Zm-.51-3.51a.86.86,0,0,1,0-1.21.85.85,0,1,1,0,1.21Zm3.52,0a.88.88,0,0,1,0-1.21.85.85,0,0,1,.61-.24.85.85,0,1,1,0,1.69A.85.85,0,0,1,504.44,150.49Z" transform="translate(0 1)"/><path class="cls-3" d="M511.15,153.39h-3v-1.08h7.2v1.08h-3v7.92h-1.19Z" transform="translate(0 1)"/><path class="cls-3" d="M478.69,176.5a8.37,8.37,0,0,1-2.58-.36,5.07,5.07,0,0,1-1.86-1,4.37,4.37,0,0,1-1.12-1.62,5.72,5.72,0,0,1-.38-2.12v-.61a5.65,5.65,0,0,1,.38-2.1,4.28,4.28,0,0,1,1.13-1.62,5.22,5.22,0,0,1,1.87-1,7.94,7.94,0,0,1,2.56-.37v-1H480v1a8.33,8.33,0,0,1,2.58.36,5.07,5.07,0,0,1,1.86,1,4.26,4.26,0,0,1,1.12,1.62,5.72,5.72,0,0,1,.38,2.12v.61a5.65,5.65,0,0,1-.38,2.1,4.28,4.28,0,0,1-1.13,1.62,5.26,5.26,0,0,1-1.86,1,8,8,0,0,1-2.57.37v1h-1.26Zm-3.48-2.23a4.94,4.94,0,0,0,3.48,1.08v-8.57a5,5,0,0,0-3.49,1.06,3.77,3.77,0,0,0-1.15,2.92v.61A3.75,3.75,0,0,0,475.21,174.27Zm8.22-6.41a4.94,4.94,0,0,0-3.48-1.08v8.57a5,5,0,0,0,3.53-1,3.82,3.82,0,0,0,1.11-2.94v-.61A3.75,3.75,0,0,0,483.43,167.86Z" transform="translate(0 1)"/><path class="cls-3" d="M489,176.37a4.44,4.44,0,0,1-1.08-3.2v-.61a5.56,5.56,0,0,1,.28-1.84,3.74,3.74,0,0,1,.8-1.36,3.55,3.55,0,0,1,1.25-.83,4.46,4.46,0,0,1,1.63-.29,3.8,3.8,0,0,1,2.89,1.12,4.45,4.45,0,0,1,1.07,3.2v.61a5.51,5.51,0,0,1-.28,1.84,3.61,3.61,0,0,1-.8,1.36,3.47,3.47,0,0,1-1.25.83,4.26,4.26,0,0,1-1.63.29A3.8,3.8,0,0,1,489,176.37Zm4.87-.77a3.47,3.47,0,0,0,.75-2.43v-.61a3.46,3.46,0,0,0-.76-2.42,2.54,2.54,0,0,0-2-.82,2.58,2.58,0,0,0-2,.81,3.47,3.47,0,0,0-.75,2.43v.61a3.46,3.46,0,0,0,.76,2.42,2.54,2.54,0,0,0,2,.82A2.58,2.58,0,0,0,493.82,175.6Z" transform="translate(0 1)"/><path class="cls-3" d="M498.31,168.37h1.19v3.87h5v-3.87h1.19v9H504.5v-4.05h-5v4.05h-1.19Z" transform="translate(0 1)"/><path class="cls-3" d="M507.58,176.29h1a6.22,6.22,0,0,0,.48-.92,6.71,6.71,0,0,0,.3-1.06,8.74,8.74,0,0,0,.16-1.38c0-.52.05-1.14.05-1.86v-2.7h6.12v7.92h1.17v3.42H515.7v-2.34h-7v2.34h-1.15Zm6.91,0v-6.84h-3.78v1.62q0,1,0,1.71c0,.49-.07.93-.13,1.34a7.82,7.82,0,0,1-.24,1.1,6.69,6.69,0,0,1-.41,1v0Z" transform="translate(0 1)"/><path class="cls-3" d="M519.12,176.8a2.51,2.51,0,0,1-.74-1.92,2.86,2.86,0,0,1,.22-1.16,2.15,2.15,0,0,1,.66-.87,3.2,3.2,0,0,1,1.14-.56,6.26,6.26,0,0,1,1.67-.2h2.32v-.67a2.08,2.08,0,0,0-.52-1.57,2.44,2.44,0,0,0-1.71-.49,2.75,2.75,0,0,0-1.61.37,1.42,1.42,0,0,0-.59,1h-1.22a2.26,2.26,0,0,1,.27-.94,2.47,2.47,0,0,1,.66-.79,3.06,3.06,0,0,1,1.05-.54,4.86,4.86,0,0,1,1.44-.2,3.64,3.64,0,0,1,2.58.8,3.14,3.14,0,0,1,.84,2.38v6h-.94l-.14-1.53h0a3.58,3.58,0,0,1-1.34,1.23,3.73,3.73,0,0,1-1.77.42A3.15,3.15,0,0,1,519.12,176.8Zm3.51-.63a2.76,2.76,0,0,0,.93-.58,2.51,2.51,0,0,0,.62-.88,2.94,2.94,0,0,0,.21-1.12v-.49h-2.23a3.05,3.05,0,0,0-2,.49,1.61,1.61,0,0,0-.58,1.29A1.42,1.42,0,0,0,520,176a2,2,0,0,0,1.4.41A3.27,3.27,0,0,0,522.63,176.17Z" transform="translate(0 1)"/><path class="cls-3" d="M644.21,172.55h6.3v1h-5.25v3.66h4.35v1h-4.35v4h5.25v1h-6.3Z" transform="translate(0 1)"/><path class="cls-3" d="M654.83,182.87a3.22,3.22,0,0,1-1.23-.81,3.53,3.53,0,0,1-.78-1.3,5.08,5.08,0,0,1-.28-1.76v-6.45h1.05v6.37a3.46,3.46,0,0,0,.78,2.44,3,3,0,0,0,4.15,0,3.49,3.49,0,0,0,.77-2.45v-6.37h1.05V179a4.94,4.94,0,0,1-.29,1.73,3.82,3.82,0,0,1-.79,1.31,3.39,3.39,0,0,1-1.23.83,4.28,4.28,0,0,1-1.59.28A4.35,4.35,0,0,1,654.83,182.87Z" transform="translate(0 1)"/><path class="cls-3" d="M663,172.55h3.38a4,4,0,0,1,2.77.84,2.94,2.94,0,0,1,.9,2.26,3.11,3.11,0,0,1-.52,1.83,2.86,2.86,0,0,1-1.58,1.07l2.4,4.5h-1.2l-2.25-4.31-.25,0H664v4.29h-1Zm3.3,5.25a3,3,0,0,0,2-.56,2.31,2.31,0,0,0,0-3.16,3,3,0,0,0-2-.57H664v4.29Z" transform="translate(0 1)"/><path class="cls-3" d="M674.48,182.82a3.64,3.64,0,0,1-1.38-1,4.31,4.31,0,0,1-.9-1.57,6.76,6.76,0,0,1-.31-2.15v-.81a6.34,6.34,0,0,1,.32-2.07,4.6,4.6,0,0,1,.89-1.53,3.83,3.83,0,0,1,1.38-.95,4.56,4.56,0,0,1,1.76-.33,4.77,4.77,0,0,1,1.77.32,3.88,3.88,0,0,1,1.37,1,4.12,4.12,0,0,1,.89,1.53,6.31,6.31,0,0,1,.32,2.08v.81a6.75,6.75,0,0,1-.32,2.15,4.62,4.62,0,0,1-.9,1.57,3.61,3.61,0,0,1-1.37,1,4.86,4.86,0,0,1-3.52,0Zm3.08-.88a2.77,2.77,0,0,0,1-.77,3.58,3.58,0,0,0,.68-1.27,5.92,5.92,0,0,0,.24-1.77v-.81a5.12,5.12,0,0,0-.25-1.68,3.66,3.66,0,0,0-.68-1.23,2.86,2.86,0,0,0-1-.75,3.28,3.28,0,0,0-1.3-.26,3.34,3.34,0,0,0-1.32.26,2.86,2.86,0,0,0-1,.75,3.41,3.41,0,0,0-.67,1.22,5.38,5.38,0,0,0-.24,1.69v.81a5.54,5.54,0,0,0,.25,1.76,3.67,3.67,0,0,0,.68,1.27,2.77,2.77,0,0,0,1,.77,3.52,3.52,0,0,0,2.63,0Z" transform="translate(0 1)"/><path class="cls-3" d="M683.53,182.27a3.46,3.46,0,0,1-1.07-2.37h1.11a2.63,2.63,0,0,0,.76,1.71,2.83,2.83,0,0,0,2,.58,2.81,2.81,0,0,0,1.87-.51,1.76,1.76,0,0,0,.57-1.38,1.33,1.33,0,0,0-.45-1.08,3.6,3.6,0,0,0-1.13-.64,13,13,0,0,0-1.48-.45,7.3,7.3,0,0,1-1.47-.53,3.23,3.23,0,0,1-1.14-.88,2.31,2.31,0,0,1-.45-1.5,2.71,2.71,0,0,1,.23-1.1,2.46,2.46,0,0,1,.66-.88,3.11,3.11,0,0,1,1.08-.59,4.76,4.76,0,0,1,1.48-.21,3.83,3.83,0,0,1,2.67.83,3.37,3.37,0,0,1,1,2.28h-1.11a2.55,2.55,0,0,0-.72-1.62,2.72,2.72,0,0,0-1.85-.53,3.35,3.35,0,0,0-1.06.15,2.09,2.09,0,0,0-.74.4,1.42,1.42,0,0,0-.43.58,1.81,1.81,0,0,0-.14.69,1.39,1.39,0,0,0,.45,1.11,3.45,3.45,0,0,0,1.14.63,12.89,12.89,0,0,0,1.47.42,8,8,0,0,1,1.48.51,3.2,3.2,0,0,1,1.13.88,2.36,2.36,0,0,1,.45,1.53,3.11,3.11,0,0,1-.21,1.16,2.45,2.45,0,0,1-.66.9,3.25,3.25,0,0,1-1.11.58,5.08,5.08,0,0,1-1.54.21A3.89,3.89,0,0,1,683.53,182.27Z" transform="translate(0 1)"/><path class="cls-3" d="M694.31,173.51h-3.45v-1h7.95v1h-3.45v9.54h-1.05Z" transform="translate(0 1)"/><path class="cls-3" d="M700.54,172.55h3.37a4,4,0,0,1,2.77.84,2.91,2.91,0,0,1,.91,2.26,3.11,3.11,0,0,1-.53,1.83,2.83,2.83,0,0,1-1.57,1.07l2.4,4.5h-1.2l-2.25-4.31-.26,0h-2.59v4.29h-1.05Zm3.3,5.25a3.06,3.06,0,0,0,2-.56,2,2,0,0,0,.62-1.59,2,2,0,0,0-.63-1.57,3,3,0,0,0-2-.57h-2.25v4.29Z" transform="translate(0 1)"/><path class="cls-3" d="M709.84,172.55h6.3v1h-5.25v3.66h4.35v1h-4.35v4h5.25v1h-6.3Z" transform="translate(0 1)"/><path class="cls-3" d="M721.39,172.55h1.2l3.9,10.5h-1.14l-1.1-3.05h-4.59l-1.09,3.05h-1.08Zm2.52,6.49L722,173.67h0L720,179Z" transform="translate(0 1)"/><path class="cls-3" d="M728.29,172.55h1.56l3.18,6.27h0l3.18-6.27h1.5v10.5h-1v-9.23h0L733.54,180h-1l-3.12-6.15h0v9.23h-1.05Z" transform="translate(0 1)"/><path class="cls-3" d="M659.21,145.78H662l5,14h-2.56l-1.16-3.5h-5.5l-1.18,3.5h-2.4Zm3.36,8.3-2-6h0l-2,6Z" transform="translate(0 1)"/><path class="cls-3" d="M670.37,159.78l-4.06-10h2.52l2.74,7.12h0l2.54-7.12h2.36l-5.3,14h-2.36Z" transform="translate(0 1)"/><path class="cls-3" d="M676.21,157.66h1a3.7,3.7,0,0,0,.47-.88,6,6,0,0,0,.31-1.06,9.11,9.11,0,0,0,.17-1.31c0-.48.05-1,.05-1.63v-3h7.6v7.88h1.1v4.72h-2.2v-2.6h-6.3v2.6h-2.2Zm7.28,0V151.9h-3.08v.88c0,.56,0,1.08,0,1.54a11.7,11.7,0,0,1-.13,1.29,7.72,7.72,0,0,1-.23,1.09,6.58,6.58,0,0,1-.32.92v0Z" transform="translate(0 1)"/><path class="cls-3" d="M688.51,149.78h2.32v7h0l3.64-7h3v10h-2.32v-7h0l-3.64,7h-3Z" transform="translate(0 1)"/><path class="cls-3" d="M702.05,151.9h-3v-2.12h8.4v2.12h-3v7.88h-2.32Z" transform="translate(0 1)"/><path class="cls-3" d="M709.19,158.68a5,5,0,0,1-1.28-3.68v-.44a6.25,6.25,0,0,1,.33-2.1,4.27,4.27,0,0,1,1-1.56,4.38,4.38,0,0,1,1.52-1,5.73,5.73,0,0,1,2-.34,4.72,4.72,0,0,1,3.53,1.3,5,5,0,0,1,1.27,3.68V155a6.17,6.17,0,0,1-.33,2.1,4.11,4.11,0,0,1-1,1.56,4.07,4.07,0,0,1-1.51,1,5.41,5.41,0,0,1-2,.34A4.72,4.72,0,0,1,709.19,158.68Zm5.25-1.51a3.14,3.14,0,0,0,.63-2.17v-.44a3.12,3.12,0,0,0-.64-2.15,2.2,2.2,0,0,0-1.72-.71,2.23,2.23,0,0,0-1.73.69,3.16,3.16,0,0,0-.63,2.17V155a3.15,3.15,0,0,0,.64,2.15,2.18,2.18,0,0,0,1.72.71A2.22,2.22,0,0,0,714.44,157.17Z" transform="translate(0 1)"/><path class="cls-3" d="M719.51,149.78h1.8l.2,1.2h0a4.37,4.37,0,0,1,1.4-1,4.41,4.41,0,0,1,1.8-.35,4.65,4.65,0,0,1,1.71.31,3.41,3.41,0,0,1,1.31.93,4.43,4.43,0,0,1,.84,1.55,7.16,7.16,0,0,1,.3,2.19V155a7.07,7.07,0,0,1-.3,2.17,4.33,4.33,0,0,1-.85,1.56,3.31,3.31,0,0,1-1.31.94,4.37,4.37,0,0,1-1.7.31,4.12,4.12,0,0,1-1.63-.32,3.18,3.18,0,0,1-1.25-.88h0v5h-2.32Zm6.34,7.4a3.14,3.14,0,0,0,.62-2.18v-.44a3.17,3.17,0,0,0-.63-2.16,2.41,2.41,0,0,0-3.39,0,3.24,3.24,0,0,0-.62,2.19V155a3.11,3.11,0,0,0,.63,2.14,2.43,2.43,0,0,0,3.39,0Z" transform="translate(0 1)"/><path class="cls-3" d="M37.1,145.78H42a5.72,5.72,0,0,1,4,1.2,5.16,5.16,0,0,1,0,6.84,5.6,5.6,0,0,1-4,1.24H39.5v4.72H37.1Zm2.4,2.2v4.88h2.4a3.17,3.17,0,0,0,2.21-.62,2.36,2.36,0,0,0,.67-1.84,2.28,2.28,0,0,0-.7-1.78A3.19,3.19,0,0,0,41.9,148Z" transform="translate(0 1)"/><path class="cls-3" d="M51,159.65a4,4,0,0,1-1.51-1,4.22,4.22,0,0,1-.95-1.56A6.25,6.25,0,0,1,48.2,155v-.44a6.31,6.31,0,0,1,.33-2.11,4.33,4.33,0,0,1,.94-1.57,4.06,4.06,0,0,1,1.48-1,5.93,5.93,0,0,1,3.9,0,4,4,0,0,1,1.48,1,4.5,4.5,0,0,1,.94,1.59,6.62,6.62,0,0,1,.33,2.18v.84H50.54a3.16,3.16,0,0,0,.66,1.92,2.21,2.21,0,0,0,1.7.6,2.92,2.92,0,0,0,1.45-.31,1.53,1.53,0,0,0,.75-.93h2.4A3.75,3.75,0,0,1,56,159.16a5.07,5.07,0,0,1-3,.82A5.73,5.73,0,0,1,51,159.65Zm.29-7.58a2.89,2.89,0,0,0-.72,1.71h4.68a2.77,2.77,0,0,0-.7-1.71,2.31,2.31,0,0,0-1.64-.53A2.27,2.27,0,0,0,51.28,152.07Z" transform="translate(0 1)"/><path class="cls-3" d="M59.6,149.78h7v2.12H61.92v7.88H59.6Z" transform="translate(0 1)"/><path class="cls-3" d="M71.36,159.78l-4.06-10h2.52l2.74,7.12h0l2.54-7.12H77.5l-5.3,14H69.84Z" transform="translate(0 1)"/><path class="cls-3" d="M77.2,157.86h.2a1.16,1.16,0,0,0,.91-.35,2.1,2.1,0,0,0,.48-1,7.58,7.58,0,0,0,.18-1.48c0-.56,0-1.19,0-1.87v-3.4h7.6v10H84.28V151.9h-3v1.28c0,.78,0,1.57-.07,2.37a7.34,7.34,0,0,1-.44,2.19,3.64,3.64,0,0,1-1.16,1.61,3.54,3.54,0,0,1-2.25.63h-.2Z" transform="translate(0 1)"/><path class="cls-3" d="M90.44,156.1A2.62,2.62,0,0,1,89.11,155a3.7,3.7,0,0,1-.41-1.79,3.15,3.15,0,0,1,1-2.49,5.15,5.15,0,0,1,3.38-.89h3.6v10H94.38v-3.24H92.66l-1.76,3.24H88.3Zm1.15-1.89a2.59,2.59,0,0,0,1.61.37h1.18v-2.84H93.2a2.66,2.66,0,0,0-1.61.37,1.29,1.29,0,0,0-.45,1A1.27,1.27,0,0,0,91.59,154.21Z" transform="translate(0 1)"/><path class="cls-3" d="M101.24,151.9h-3v-2.12h8.4v2.12h-3v7.88h-2.32Z" transform="translate(0 1)"/><path class="cls-3" d="M108.38,158.68A5,5,0,0,1,107.1,155v-.44a6.25,6.25,0,0,1,.33-2.1,4.11,4.11,0,0,1,2.48-2.54,5.69,5.69,0,0,1,2-.34,4.75,4.75,0,0,1,3.53,1.3,5.09,5.09,0,0,1,1.27,3.68V155a6.17,6.17,0,0,1-.33,2.1,4.13,4.13,0,0,1-2.47,2.54,5.45,5.45,0,0,1-2,.34A4.69,4.69,0,0,1,108.38,158.68Zm5.25-1.51a3.14,3.14,0,0,0,.63-2.17v-.44a3.17,3.17,0,0,0-.64-2.15,2.48,2.48,0,0,0-3.45,0,3.16,3.16,0,0,0-.63,2.17V155a3.1,3.1,0,0,0,.64,2.15,2.17,2.17,0,0,0,1.72.71A2.23,2.23,0,0,0,113.63,157.17Z" transform="translate(0 1)"/><path class="cls-3" d="M118.7,149.78h1.8l.2,1.2h0a4.26,4.26,0,0,1,1.4-1,4.41,4.41,0,0,1,1.8-.35,4.73,4.73,0,0,1,1.71.31,3.49,3.49,0,0,1,1.31.93,4.43,4.43,0,0,1,.84,1.55,7.16,7.16,0,0,1,.3,2.19V155a7.07,7.07,0,0,1-.3,2.17,4.49,4.49,0,0,1-.85,1.56,3.38,3.38,0,0,1-1.31.94,4.44,4.44,0,0,1-1.7.31,4.09,4.09,0,0,1-1.63-.32,3.11,3.11,0,0,1-1.25-.88h0v5H118.7Zm6.34,7.4a3.19,3.19,0,0,0,.62-2.18v-.44a3.17,3.17,0,0,0-.63-2.16,2.19,2.19,0,0,0-1.69-.7,2.16,2.16,0,0,0-1.7.69,3.24,3.24,0,0,0-.62,2.19V155a3.11,3.11,0,0,0,.63,2.14,2.15,2.15,0,0,0,1.69.7A2.17,2.17,0,0,0,125,157.18Z" transform="translate(0 1)"/><path class="cls-3" d="M130.1,149.78h2.32v3h1.68a4.61,4.61,0,0,1,3.18.94,3.31,3.31,0,0,1,1,2.56,3.27,3.27,0,0,1-1,2.56,4.58,4.58,0,0,1-3.17.94h-4Zm2.32,4.92v3.16H134a2.05,2.05,0,0,0,1.43-.4,1.8,1.8,0,0,0,0-2.35,2.08,2.08,0,0,0-1.42-.41Zm7-4.92h2.32v10h-2.32Z" transform="translate(0 1)"/><path class="cls-12" d="M499.45,21l6.88,3.68s.55.45.22.66-.93-.07-.93-.07l-5.46-3s-.85-.21-1.09,0,0,.76,0,.76,4.5,2.29,4.43,2.63a.49.49,0,0,1-.43.36s-9.2,2.31-9.53,2.21.09-.54-.19-.61a.47.47,0,0,0-.45.12s-2.22,2-1.85,2.22a.56.56,0,0,0,.62.07l16.18-4s.52-.09.69.29a.34.34,0,0,1-.19.49l-1.3.45V34l-2.7.71v-6s-.31-.62-.69-.52-.49.8-.49.8v6.11l-2,.49v-5a.55.55,0,0,0-.61-.45c-.53.05-.43.76-.43.76v5l-2.08.66V32.41a.44.44,0,0,0-.55-.26c-.4.11-.42.61-.42.61v4l-2.08.62V34.47s0-.5-.57-.38a.6.6,0,0,0-.55.61v2.94a14.86,14.86,0,0,1-2.43.61,1.14,1.14,0,0,1-1-.31l-4.36-2.37a13.93,13.93,0,0,0,.34,1.73c.92.52,4.3,2.41,4.83,2.39a3.52,3.52,0,0,0,1.07-.18L507.62,35s.54-.16.69.1a.35.35,0,0,1-.05.44l-13.81,4.19s-2.58.76-3.06.78a2.51,2.51,0,0,1-.95-.18l-3.66-2,0,0a9.27,9.27,0,0,0,.52,1.26,19.59,19.59,0,0,0,3.89,1.73,3.68,3.68,0,0,0,1-.16l16.82-5s.39-.06.54.2,0,.39,0,.39l-15.23,4.61a30.18,30.18,0,0,1-3.06.78,2.51,2.51,0,0,1-.95-.18l-2.49-1.24A13,13,0,1,0,499.45,21Z" transform="translate(0 1)"/></svg>