<svg xmlns="http://www.w3.org/2000/svg" width="632" height="364" fill="none"><mask id="a" width="632" height="364" x="0" y="0" maskUnits="userSpaceOnUse" style="mask-type:alpha"><rect width="632" height="364" fill="#F9F9FB" rx="30"/></mask><g mask="url(#a)"><path fill="#F1F0F4" fill-rule="evenodd" d="M-198 358.099v-379.3C-198-41.104 32.698-29.059 51.733-35L524-25.447V61.93c-.051 15.182-6.922 28.18-19.392 36.812-12.52 8.631-27.127 10.409-41.378 5.077-9.06-3.402-17.254-5.737-23.26-6.6 17.203-9.546 19.035-40.823 3.359-66.616-11.604 17.01-42.04 24.575-43.414 45.646-13.895-2.082-27.739 2.335-41.43 8.48-72.069 30.768-82.045 55.851-94.718 88.752-6.616 17.111-7.125 29.094-22.852 37.878-4.072 40.416 29.265 81.239 69.27 88.905 11.808-29.195 54.866-50.063 89.526-26.859 19.799 13.252 27.79 46.407 10.688 74.587-11.197 18.431-34.762 34.679-67.437 47.576L189.001 460l-177.89-83.248L-198 358.099Z" clip-rule="evenodd"/></g></svg>