<svg width="267" height="60" viewBox="0 0 267 60" fill="none" xmlns="http://www.w3.org/2000/svg">
<rect width="267" height="60" rx="8" fill="#F2F1F5"/>
<g clip-path="url(#clip0_1_20533)">
<path d="M30.7668 34.6543H37.6609C38.2028 34.6543 38.6422 35.0871 38.6427 35.6213V42.5139L30.7668 34.6543Z" fill="#E27537"/>
<path d="M64.2701 34.8765H59.4932V45.5826H64.2701V34.8765Z" fill="#12316C"/>
<path fill-rule="evenodd" clip-rule="evenodd" d="M101.691 34.7231C98.1078 34.7231 95.2034 37.236 95.2034 40.3352C95.2034 43.4344 98.1078 45.9472 101.691 45.9472C105.274 45.9472 108.179 43.4344 108.179 40.3352C108.179 37.236 105.274 34.7231 101.691 34.7231ZM101.691 43.7196C100.55 43.7196 99.6245 42.2035 99.6245 40.3347C99.6245 38.4659 100.55 36.9484 101.691 36.9484C102.832 36.9484 103.758 38.4645 103.758 40.3347C103.758 42.2049 102.832 43.7196 101.691 43.7196Z" fill="#12316C"/>
<path fill-rule="evenodd" clip-rule="evenodd" d="M109.719 34.7388H113.799L116.988 39.4708V34.7388H121.317V45.6194H118.049L114.093 39.8659V45.6194H109.719V34.7388Z" fill="#12316C"/>
<path fill-rule="evenodd" clip-rule="evenodd" d="M77.7648 34.8769L77.7568 41.7594C77.7568 43.8715 76.0206 45.5849 73.8762 45.5849H70.124C67.9814 45.5849 66.2434 43.8715 66.2434 41.7594V34.8765H70.917V43.4741H73.0907V34.8765H77.7648V34.8769Z" fill="#12316C"/>
<path fill-rule="evenodd" clip-rule="evenodd" d="M132.906 45.6367L127.245 45.6292C125.102 45.6292 122.909 43.9158 122.909 41.8036V38.5551C122.909 36.4429 125.102 34.7295 127.245 34.7295H135V36.9068H127.268V43.5538H130.898V41.1294H129.09V39.3127H134.976V44.7711C134.976 44.7711 135.008 45.6357 133.946 45.6357L132.906 45.6371V45.6367Z" fill="#12316C"/>
<path fill-rule="evenodd" clip-rule="evenodd" d="M91.3969 45.7613L84.4406 45.7538C81.9601 45.7538 79.3743 43.6891 79.3743 41.146V37.2343C79.3743 34.6889 81.9601 32.6265 84.4406 32.6265H93.3644V35.2487H84.8767V43.0106H88.6719V40.3335H86.9844V38.1445H93.3379V44.7184C93.3379 44.7184 93.3747 45.7589 92.146 45.7589L91.3969 45.7608V45.7613Z" fill="#12316C"/>
<path fill-rule="evenodd" clip-rule="evenodd" d="M58.0621 45.5831V43.1568H52.7333V32.6782H47.2931L47.2799 44.5403C47.2799 44.5403 47.2412 45.5831 48.4718 45.5831H58.0621Z" fill="#12316C"/>
<path fill-rule="evenodd" clip-rule="evenodd" d="M38.6441 44.5746H25.1576C23.2214 44.5746 21.6505 43.0259 21.6505 41.1171V28H17V41.3949C17 45.5942 20.4548 49 24.7163 49H38.6441V44.5746Z" fill="#12316C"/>
<path fill-rule="evenodd" clip-rule="evenodd" d="M28.0173 42.5141H25.9215C24.7598 42.5141 23.8181 41.5858 23.8181 40.4406V30.7675C23.8176 29.2398 25.0737 28.002 26.6234 28.002H38.0593V31.9732H28.0003V38.4722H32.1825L36.1915 42.5141H28.0173Z" fill="#12316C"/>
</g>
<path d="M26.2514 18.2727C26.2514 19.2822 26.0668 20.1501 25.6974 20.8764C25.3281 21.5997 24.8219 22.1567 24.1786 22.5476C23.5385 22.9354 22.8106 23.1293 21.995 23.1293C21.1764 23.1293 20.4454 22.9354 19.8022 22.5476C19.1621 22.1567 18.6573 21.5981 18.288 20.8718C17.9187 20.1455 17.734 19.2791 17.734 18.2727C17.734 17.2633 17.9187 16.3969 18.288 15.6737C18.6573 14.9473 19.1621 14.3903 19.8022 14.0025C20.4454 13.6116 21.1764 13.4162 21.995 13.4162C22.8106 13.4162 23.5385 13.6116 24.1786 14.0025C24.8219 14.3903 25.3281 14.9473 25.6974 15.6737C26.0668 16.3969 26.2514 17.2633 26.2514 18.2727ZM24.8388 18.2727C24.8388 17.5033 24.7141 16.8555 24.4648 16.3292C24.2186 15.7998 23.8801 15.3997 23.4492 15.1289C23.0214 14.855 22.5367 14.718 21.995 14.718C21.4503 14.718 20.964 14.855 20.5362 15.1289C20.1084 15.3997 19.7699 15.7998 19.5206 16.3292C19.2744 16.8555 19.1513 17.5033 19.1513 18.2727C19.1513 19.0421 19.2744 19.6915 19.5206 20.2209C19.7699 20.7472 20.1084 21.1473 20.5362 21.4212C20.964 21.692 21.4503 21.8274 21.995 21.8274C22.5367 21.8274 23.0214 21.692 23.4492 21.4212C23.8801 21.1473 24.2186 20.7472 24.4648 20.2209C24.7141 19.6915 24.8388 19.0421 24.8388 18.2727ZM31.7015 14.6349H33.405C34.1251 14.6349 34.7638 14.7934 35.3208 15.1104C35.8809 15.4244 36.3195 15.866 36.6365 16.4354C36.9566 17.0017 37.1166 17.6603 37.1166 18.4112C37.1166 19.156 36.9566 19.81 36.6365 20.3732C36.3195 20.9364 35.8809 21.3765 35.3208 21.6935C34.7638 22.0075 34.1251 22.1644 33.405 22.1644H31.7015C30.9813 22.1644 30.3412 22.009 29.781 21.6982C29.2209 21.3842 28.7808 20.9472 28.4607 20.3871C28.1437 19.8269 27.9852 19.1729 27.9852 18.4251C27.9852 17.671 28.1453 17.0094 28.4653 16.44C28.7854 15.8706 29.224 15.4274 29.781 15.1104C30.3412 14.7934 30.9813 14.6349 31.7015 14.6349ZM31.7015 15.8675C31.2091 15.8675 30.789 15.9706 30.4412 16.1768C30.0934 16.38 29.8272 16.6723 29.6425 17.054C29.4579 17.4356 29.3656 17.8926 29.3656 18.4251C29.3656 18.9452 29.4579 19.393 29.6425 19.7685C29.8303 20.1409 30.098 20.4286 30.4458 20.6317C30.7936 20.8318 31.2121 20.9318 31.7015 20.9318H33.4096C33.8989 20.9318 34.316 20.8318 34.6607 20.6317C35.0084 20.4286 35.2731 20.1393 35.4547 19.7638C35.6394 19.3853 35.7317 18.9344 35.7317 18.4112C35.7317 17.8849 35.6394 17.4325 35.4547 17.054C35.2731 16.6723 35.0084 16.38 34.6607 16.1768C34.316 15.9706 33.8989 15.8675 33.4096 15.8675H31.7015ZM33.2572 13.3793V23.3878H31.8585V13.3793H33.2572ZM39.1505 13.5455H40.5631V20.4886H40.6509L45.4612 13.5455H46.7815V23H45.3551V16.0661H45.2673L40.4662 23H39.1505V13.5455ZM57.5106 21.7397L57.3859 25.2344H55.964V23H55.2993V21.7397H57.5106ZM49.1224 23V13.5455H50.4889V21.7628H55.05V13.5455H56.4211V23H49.1224ZM59.3355 13.5455H60.7482V20.4886H60.8359L65.6463 13.5455H66.9666V23H65.5401V16.0661H65.4524L60.6512 23H59.3355V13.5455ZM70.1061 23H68.5919L71.9942 13.5455H73.6423L77.0447 23H75.5305L72.8575 15.2628H72.7837L70.1061 23ZM70.36 19.2976H75.2719V20.4979H70.36V19.2976ZM77.9544 23V21.7628L78.2314 21.7536C78.6069 21.7443 78.9024 21.6166 79.1178 21.3704C79.3363 21.1242 79.4948 20.7272 79.5933 20.1793C79.6949 19.6315 79.7626 18.9006 79.7964 17.9865L79.958 13.5455H85.9363V23H84.5283V14.755H81.3014L81.1537 18.3651C81.1137 19.3776 81.0121 20.2286 80.849 20.918C80.6859 21.6043 80.4089 22.1229 80.018 22.4737C79.6302 22.8246 79.0778 23 78.3607 23H77.9544ZM89.2755 17.3587H91.8238C92.5255 17.3587 93.1226 17.4725 93.615 17.7003C94.1074 17.928 94.4829 18.2496 94.7414 18.6651C95.003 19.0806 95.1323 19.57 95.1292 20.1332C95.1323 20.6964 95.003 21.1934 94.7414 21.6243C94.4829 22.0552 94.1074 22.3922 93.615 22.6353C93.1226 22.8784 92.5255 23 91.8238 23H88.283V13.5455H89.7141V21.7997H91.8238C92.2331 21.7997 92.5778 21.7197 92.8579 21.5597C93.1411 21.3996 93.3549 21.1919 93.4996 20.9364C93.6473 20.681 93.7212 20.4071 93.7212 20.1147C93.7212 19.69 93.5581 19.3253 93.2318 19.0206C92.9056 18.7128 92.4363 18.5589 91.8238 18.5589H89.2755V17.3587ZM97.1285 23V13.5455H98.555V17.6541H103.268V13.5455H104.699V23H103.268V18.8775H98.555V23H97.1285ZM108.039 17.3587H110.587C111.289 17.3587 111.886 17.4725 112.378 17.7003C112.871 17.928 113.246 18.2496 113.505 18.6651C113.766 19.0806 113.895 19.57 113.892 20.1332C113.895 20.6964 113.766 21.1934 113.505 21.6243C113.246 22.0552 112.871 22.3922 112.378 22.6353C111.886 22.8784 111.289 23 110.587 23H107.046V13.5455H108.477V21.7997H110.587C110.996 21.7997 111.341 21.7197 111.621 21.5597C111.904 21.3996 112.118 21.1919 112.263 20.9364C112.41 20.681 112.484 20.4071 112.484 20.1147C112.484 19.69 112.321 19.3253 111.995 19.0206C111.669 18.7128 111.199 18.5589 110.587 18.5589H108.039V17.3587ZM116.196 13.5455V23H114.765V13.5455H116.196ZM118.532 13.5455H119.945V20.4886H120.033L124.843 13.5455H126.163V23H124.737V16.0661H124.649L119.848 23H118.532V13.5455ZM123.255 11.1449H124.391C124.391 11.665 124.206 12.0882 123.837 12.4144C123.47 12.7376 122.975 12.8991 122.35 12.8991C121.728 12.8991 121.234 12.7376 120.868 12.4144C120.502 12.0882 120.319 11.665 120.319 11.1449H121.45C121.45 11.3757 121.518 11.5804 121.653 11.7589C121.788 11.9343 122.021 12.022 122.35 12.022C122.673 12.022 122.904 11.9343 123.043 11.7589C123.184 11.5835 123.255 11.3788 123.255 11.1449ZM131.489 25.2852V21.7905H132.112C132.325 21.612 132.523 21.3581 132.708 21.0288C132.892 20.6995 133.049 20.2547 133.179 19.6946C133.308 19.1345 133.397 18.4158 133.446 17.5387L133.668 13.5455H139.499V21.7905H140.57V25.2713H139.203V23H132.856V25.2852H131.489ZM133.793 21.7905H138.132V14.7734H134.961L134.813 17.5387C134.773 18.2066 134.707 18.8067 134.614 19.3391C134.525 19.8716 134.41 20.3424 134.268 20.7518C134.13 21.158 133.971 21.5043 133.793 21.7905ZM142.392 13.5455H143.805V20.4886H143.893L148.703 13.5455H150.023V23H148.597V16.0661H148.509L143.708 23H142.392V13.5455ZM160.217 16.62H158.777C158.721 16.3123 158.618 16.0414 158.467 15.8075C158.316 15.5736 158.132 15.3751 157.913 15.212C157.695 15.0489 157.45 14.9258 157.179 14.8427C156.911 14.7596 156.627 14.718 156.325 14.718C155.78 14.718 155.293 14.855 154.862 15.1289C154.434 15.4028 154.095 15.8045 153.846 16.3338C153.6 16.8632 153.477 17.5095 153.477 18.2727C153.477 19.0421 153.6 19.6915 153.846 20.2209C154.095 20.7502 154.436 21.1503 154.866 21.4212C155.297 21.692 155.782 21.8274 156.321 21.8274C156.619 21.8274 156.902 21.7874 157.17 21.7074C157.441 21.6243 157.686 21.5027 157.904 21.3427C158.123 21.1826 158.307 20.9872 158.458 20.7564C158.612 20.5225 158.718 20.2547 158.777 19.9531L160.217 19.9577C160.14 20.4225 159.991 20.8503 159.769 21.2411C159.551 21.6289 159.269 21.9644 158.924 22.2475C158.583 22.5276 158.192 22.7446 157.752 22.8984C157.312 23.0523 156.831 23.1293 156.311 23.1293C155.493 23.1293 154.763 22.9354 154.123 22.5476C153.483 22.1567 152.978 21.5981 152.609 20.8718C152.243 20.1455 152.06 19.2791 152.06 18.2727C152.06 17.2633 152.244 16.3969 152.614 15.6737C152.983 14.9473 153.488 14.3903 154.128 14.0025C154.768 13.6116 155.496 13.4162 156.311 13.4162C156.813 13.4162 157.281 13.4885 157.715 13.6332C158.152 13.7747 158.544 13.984 158.892 14.261C159.24 14.5349 159.527 14.8704 159.755 15.2674C159.983 15.6613 160.137 16.1122 160.217 16.62ZM161.718 14.7734V13.5455H169.035V14.7734H166.085V23H164.663V14.7734H161.718ZM170.912 23V13.5455H174.282C175.017 13.5455 175.627 13.6793 176.11 13.9471C176.593 14.2148 176.955 14.5811 177.195 15.0458C177.435 15.5075 177.555 16.0276 177.555 16.6062C177.555 17.1879 177.433 17.7111 177.19 18.1758C176.95 18.6374 176.587 19.0037 176.101 19.2745C175.617 19.5423 175.009 19.6761 174.277 19.6761H171.96V18.4666H174.148C174.612 18.4666 174.989 18.3866 175.279 18.2266C175.568 18.0634 175.78 17.8419 175.916 17.5618C176.051 17.2817 176.119 16.9632 176.119 16.6062C176.119 16.2492 176.051 15.9322 175.916 15.6552C175.78 15.3782 175.567 15.1612 175.274 15.0043C174.985 14.8473 174.603 14.7688 174.129 14.7688H172.338V23H170.912ZM179.487 13.5455H180.9V20.4886H180.987L185.798 13.5455H187.118V23H185.692V16.0661H185.604L180.803 23H179.487V13.5455ZM189.459 23V13.5455H195.354V14.7734H190.885V17.3587H193C193.701 17.3587 194.297 17.4725 194.786 17.7003C195.279 17.928 195.654 18.2496 195.913 18.6651C196.174 19.0806 196.305 19.57 196.305 20.1332C196.305 20.6964 196.174 21.1934 195.913 21.6243C195.654 22.0552 195.279 22.3922 194.786 22.6353C194.297 22.8784 193.701 23 193 23H189.459ZM190.885 21.7997H193C193.406 21.7997 193.749 21.7197 194.029 21.5597C194.312 21.3996 194.526 21.1919 194.671 20.9364C194.819 20.681 194.893 20.4071 194.893 20.1147C194.893 19.69 194.729 19.3253 194.403 19.0206C194.077 18.7128 193.609 18.5589 193 18.5589H190.885V21.7997ZM199.252 17.3587H201.8C202.502 17.3587 203.099 17.4725 203.591 17.7003C204.084 17.928 204.459 18.2496 204.718 18.6651C204.979 19.0806 205.109 19.57 205.106 20.1332C205.109 20.6964 204.979 21.1934 204.718 21.6243C204.459 22.0552 204.084 22.3922 203.591 22.6353C203.099 22.8784 202.502 23 201.8 23H198.259V13.5455H199.691V21.7997H201.8C202.21 21.7997 202.554 21.7197 202.834 21.5597C203.118 21.3996 203.331 21.1919 203.476 20.9364C203.624 20.681 203.698 20.4071 203.698 20.1147C203.698 19.69 203.535 19.3253 203.208 19.0206C202.882 18.7128 202.413 18.5589 201.8 18.5589H199.252V17.3587ZM208.531 13.5455V23H207.105V13.5455H208.531ZM210.586 17.788V18.9837H207.654V17.788H210.586ZM218.674 18.2727C218.674 19.2822 218.489 20.1501 218.12 20.8764C217.751 21.5997 217.244 22.1567 216.601 22.5476C215.961 22.9354 215.233 23.1293 214.417 23.1293C213.599 23.1293 212.868 22.9354 212.225 22.5476C211.584 22.1567 211.08 21.5981 210.71 20.8718C210.341 20.1455 210.156 19.2791 210.156 18.2727C210.156 17.2633 210.341 16.3969 210.71 15.6737C211.08 14.9473 211.584 14.3903 212.225 14.0025C212.868 13.6116 213.599 13.4162 214.417 13.4162C215.233 13.4162 215.961 13.6116 216.601 14.0025C217.244 14.3903 217.751 14.9473 218.12 15.6737C218.489 16.3969 218.674 17.2633 218.674 18.2727ZM217.261 18.2727C217.261 17.5033 217.137 16.8555 216.887 16.3292C216.641 15.7998 216.302 15.3997 215.872 15.1289C215.444 14.855 214.959 14.718 214.417 14.718C213.873 14.718 213.386 14.855 212.959 15.1289C212.531 15.3997 212.192 15.7998 211.943 16.3292C211.697 16.8555 211.574 17.5033 211.574 18.2727C211.574 19.0421 211.697 19.6915 211.943 20.2209C212.192 20.7472 212.531 21.1473 212.959 21.4212C213.386 21.692 213.873 21.8274 214.417 21.8274C214.959 21.8274 215.444 21.692 215.872 21.4212C216.302 21.1473 216.641 20.7472 216.887 20.2209C217.137 19.6915 217.261 19.0421 217.261 18.2727ZM220.241 14.7734V13.5455H227.559V14.7734H224.609V23H223.187V14.7734H220.241ZM237.242 18.2727C237.242 19.2822 237.057 20.1501 236.688 20.8764C236.319 21.5997 235.812 22.1567 235.169 22.5476C234.529 22.9354 233.801 23.1293 232.986 23.1293C232.167 23.1293 231.436 22.9354 230.793 22.5476C230.153 22.1567 229.648 21.5981 229.279 20.8718C228.909 20.1455 228.725 19.2791 228.725 18.2727C228.725 17.2633 228.909 16.3969 229.279 15.6737C229.648 14.9473 230.153 14.3903 230.793 14.0025C231.436 13.6116 232.167 13.4162 232.986 13.4162C233.801 13.4162 234.529 13.6116 235.169 14.0025C235.812 14.3903 236.319 14.9473 236.688 15.6737C237.057 16.3969 237.242 17.2633 237.242 18.2727ZM235.829 18.2727C235.829 17.5033 235.705 16.8555 235.455 16.3292C235.209 15.7998 234.871 15.3997 234.44 15.1289C234.012 14.855 233.527 14.718 232.986 14.718C232.441 14.718 231.955 14.855 231.527 15.1289C231.099 15.3997 230.76 15.7998 230.511 16.3292C230.265 16.8555 230.142 17.5033 230.142 18.2727C230.142 19.0421 230.265 19.6915 230.511 20.2209C230.76 20.7472 231.099 21.1473 231.527 21.4212C231.955 21.692 232.441 21.8274 232.986 21.8274C233.527 21.8274 234.012 21.692 234.44 21.4212C234.871 21.1473 235.209 20.7472 235.455 20.2209C235.705 19.6915 235.829 19.0421 235.829 18.2727ZM239.28 23V13.5455H242.65C243.386 13.5455 243.995 13.6793 244.479 13.9471C244.962 14.2148 245.323 14.5811 245.563 15.0458C245.804 15.5075 245.924 16.0276 245.924 16.6062C245.924 17.1879 245.802 17.7111 245.559 18.1758C245.319 18.6374 244.956 19.0037 244.469 19.2745C243.986 19.5423 243.378 19.6761 242.646 19.6761H240.328V18.4666H242.517C242.981 18.4666 243.358 18.3866 243.648 18.2266C243.937 18.0634 244.149 17.8419 244.285 17.5618C244.42 17.2817 244.488 16.9632 244.488 16.6062C244.488 16.2492 244.42 15.9322 244.285 15.6552C244.149 15.3782 243.935 15.1612 243.643 15.0043C243.354 14.8473 242.972 14.7688 242.498 14.7688H240.707V23H239.28Z" fill="#7C7B87"/>
<path d="M142.829 45V35.5455H146.291C146.962 35.5455 147.518 35.6562 147.958 35.8778C148.398 36.0964 148.727 36.3933 148.946 36.7688C149.164 37.1412 149.274 37.5613 149.274 38.0291C149.274 38.4231 149.201 38.7554 149.057 39.0263C148.912 39.294 148.718 39.5095 148.475 39.6726C148.235 39.8326 147.97 39.9496 147.681 40.0234V40.1158C147.995 40.1312 148.301 40.2327 148.6 40.4205C148.901 40.6051 149.151 40.8683 149.348 41.2099C149.545 41.5515 149.643 41.967 149.643 42.4563C149.643 42.9395 149.529 43.3735 149.301 43.7582C149.077 44.1398 148.729 44.4429 148.258 44.6676C147.787 44.8892 147.186 45 146.453 45H142.829ZM144.256 43.7766H146.315C146.998 43.7766 147.487 43.6443 147.783 43.3796C148.078 43.1149 148.226 42.7841 148.226 42.3871C148.226 42.0885 148.15 41.8146 148 41.5653C147.849 41.3161 147.633 41.1175 147.353 40.9698C147.076 40.8221 146.747 40.7482 146.365 40.7482H144.256V43.7766ZM144.256 39.6357H146.167C146.487 39.6357 146.775 39.5741 147.03 39.451C147.289 39.3279 147.493 39.1555 147.644 38.9339C147.798 38.7093 147.875 38.4446 147.875 38.1399C147.875 37.7491 147.738 37.4213 147.464 37.1566C147.19 36.8919 146.77 36.7596 146.204 36.7596H144.256V39.6357ZM159.084 45L155.908 40.7621H154.902V45H153.475V35.5455H154.902V39.5387H155.368L158.941 35.5455H160.682L156.901 39.7788L160.825 45H159.084ZM162.498 39.3587H165.046C165.748 39.3587 166.345 39.4725 166.838 39.7003C167.33 39.928 167.705 40.2496 167.964 40.6651C168.226 41.0806 168.355 41.57 168.352 42.1332C168.355 42.6964 168.226 43.1934 167.964 43.6243C167.705 44.0552 167.33 44.3922 166.838 44.6353C166.345 44.8784 165.748 45 165.046 45H161.506V35.5455H162.937V43.7997H165.046C165.456 43.7997 165.8 43.7197 166.08 43.5597C166.364 43.3996 166.578 43.1919 166.722 42.9364C166.87 42.681 166.944 42.4071 166.944 42.1147C166.944 41.69 166.781 41.3253 166.454 41.0206C166.128 40.7128 165.659 40.5589 165.046 40.5589H162.498V39.3587ZM170.655 35.5455V45H169.224V35.5455H170.655ZM172.082 45V35.5455H175.452C176.187 35.5455 176.797 35.6793 177.28 35.9471C177.763 36.2148 178.125 36.5811 178.365 37.0458C178.605 37.5075 178.725 38.0276 178.725 38.6062C178.725 39.1879 178.603 39.7111 178.36 40.1758C178.12 40.6374 177.757 41.0037 177.271 41.2745C176.787 41.5423 176.18 41.6761 175.447 41.6761H173.13V40.4666H175.318C175.783 40.4666 176.16 40.3866 176.449 40.2266C176.738 40.0634 176.951 39.8419 177.086 39.5618C177.221 39.2817 177.289 38.9632 177.289 38.6062C177.289 38.2492 177.221 37.9322 177.086 37.6552C176.951 37.3782 176.737 37.1612 176.444 37.0043C176.155 36.8473 175.773 36.7688 175.299 36.7688H173.508V45H172.082ZM185.642 35.5455V36.7734H181.174V45H179.747V35.5455H185.642ZM187.602 39.3587H190.15C190.852 39.3587 191.449 39.4725 191.941 39.7003C192.434 39.928 192.809 40.2496 193.068 40.6651C193.329 41.0806 193.459 41.57 193.456 42.1332C193.459 42.6964 193.329 43.1934 193.068 43.6243C192.809 44.0552 192.434 44.3922 191.941 44.6353C191.449 44.8784 190.852 45 190.15 45H186.609V35.5455H188.04V43.7997H190.15C190.559 43.7997 190.904 43.7197 191.184 43.5597C191.467 43.3996 191.681 43.1919 191.826 42.9364C191.974 42.681 192.047 42.4071 192.047 42.1147C192.047 41.69 191.884 41.3253 191.558 41.0206C191.232 40.7128 190.763 40.5589 190.15 40.5589H187.602V39.3587ZM195.759 35.5455V45H194.328V35.5455H195.759ZM200.348 45.1293C199.714 45.1293 199.147 45.02 198.649 44.8015C198.153 44.583 197.761 44.2798 197.472 43.892C197.185 43.5012 197.032 43.0488 197.01 42.5348H198.46C198.478 42.8149 198.572 43.058 198.741 43.2642C198.913 43.4673 199.138 43.6243 199.415 43.7351C199.692 43.8459 200 43.9013 200.338 43.9013C200.711 43.9013 201.04 43.8366 201.326 43.7074C201.616 43.5781 201.842 43.3981 202.005 43.1673C202.168 42.9334 202.25 42.6641 202.25 42.3594C202.25 42.0424 202.168 41.7638 202.005 41.5238C201.845 41.2807 201.61 41.0898 201.299 40.9513C200.991 40.8129 200.619 40.7436 200.181 40.7436H199.383V39.5803H200.181C200.532 39.5803 200.84 39.5172 201.105 39.391C201.373 39.2648 201.582 39.0894 201.733 38.8647C201.883 38.637 201.959 38.3707 201.959 38.0661C201.959 37.7737 201.893 37.5198 201.76 37.3043C201.631 37.0858 201.446 36.915 201.206 36.7919C200.969 36.6688 200.689 36.6072 200.366 36.6072C200.058 36.6072 199.771 36.6642 199.503 36.7781C199.238 36.8888 199.023 37.0489 198.857 37.2582C198.69 37.4644 198.601 37.7121 198.589 38.0014H197.208C197.224 37.4905 197.375 37.0412 197.661 36.6534C197.95 36.2656 198.332 35.9625 198.806 35.744C199.28 35.5254 199.806 35.4162 200.385 35.4162C200.991 35.4162 201.514 35.5347 201.954 35.7717C202.397 36.0056 202.739 36.3179 202.979 36.7088C203.222 37.0997 203.342 37.5275 203.339 37.9922C203.342 38.5215 203.195 38.9709 202.896 39.3402C202.601 39.7095 202.207 39.9573 201.714 40.0835V40.1573C202.342 40.2527 202.828 40.502 203.173 40.9052C203.521 41.3084 203.693 41.8085 203.69 42.4055C203.693 42.9257 203.548 43.3919 203.256 43.8043C202.967 44.2167 202.571 44.5414 202.07 44.7784C201.568 45.0123 200.994 45.1293 200.348 45.1293ZM212.767 38.62H211.327C211.271 38.3123 211.168 38.0414 211.017 37.8075C210.866 37.5736 210.682 37.3751 210.463 37.212C210.245 37.0489 210 36.9258 209.729 36.8427C209.462 36.7596 209.177 36.718 208.875 36.718C208.33 36.718 207.843 36.855 207.412 37.1289C206.984 37.4028 206.645 37.8045 206.396 38.3338C206.15 38.8632 206.027 39.5095 206.027 40.2727C206.027 41.0421 206.15 41.6915 206.396 42.2209C206.645 42.7502 206.986 43.1503 207.416 43.4212C207.847 43.692 208.332 43.8274 208.871 43.8274C209.169 43.8274 209.452 43.7874 209.72 43.7074C209.991 43.6243 210.236 43.5027 210.454 43.3427C210.673 43.1826 210.857 42.9872 211.008 42.7564C211.162 42.5225 211.268 42.2547 211.327 41.9531L212.767 41.9577C212.69 42.4225 212.541 42.8503 212.319 43.2411C212.101 43.6289 211.819 43.9644 211.474 44.2475C211.133 44.5276 210.742 44.7446 210.302 44.8984C209.862 45.0523 209.382 45.1293 208.861 45.1293C208.043 45.1293 207.313 44.9354 206.673 44.5476C206.033 44.1567 205.528 43.5981 205.159 42.8718C204.793 42.1455 204.61 41.2791 204.61 40.2727C204.61 39.2633 204.794 38.3969 205.164 37.6737C205.533 36.9473 206.038 36.3903 206.678 36.0025C207.318 35.6116 208.046 35.4162 208.861 35.4162C209.363 35.4162 209.831 35.4885 210.265 35.6332C210.702 35.7747 211.094 35.984 211.442 36.261C211.79 36.5349 212.078 36.8704 212.305 37.2674C212.533 37.6613 212.687 38.1122 212.767 38.62ZM213.358 36.7734V35.5455H220.675V36.7734H217.725V45H216.303V36.7734H213.358ZM221.323 45H219.809L223.211 35.5455H224.859L228.262 45H226.747L224.075 37.2628H224.001L221.323 45ZM221.577 41.2976H226.489V42.4979H221.577V41.2976ZM228.977 45V35.5455H230.403V39.6541H235.117V35.5455H236.548V45H235.117V40.8775H230.403V45H228.977ZM237.975 45V35.5455H243.903V36.7734H239.402V39.6541H243.594V40.8775H239.402V43.772H243.958V45H237.975Z" fill="#7C7B87"/>
<defs>
<clipPath id="clip0_1_20533">
<rect width="118" height="21" fill="white" transform="translate(17 28)"/>
</clipPath>
</defs>
</svg>
