<svg width="410" height="270" viewBox="0 0 410 270" fill="none" xmlns="http://www.w3.org/2000/svg">
<rect width="410" height="270" fill="#F9F9FB"/>
<mask id="mask0_116_23228" style="mask-type:alpha" maskUnits="userSpaceOnUse" x="0" y="0" width="410" height="270">
<rect width="410" height="270" rx="20" fill="#F9F9FB"/>
</mask>
<g mask="url(#mask0_116_23228)">
<path fill-rule="evenodd" clip-rule="evenodd" d="M-273 295.099V-84.2009C-273 -104.104 -42.3023 -92.0594 -23.2671 -98L449 -88.4467V-1.06947C448.949 14.112 442.078 27.1102 429.608 35.7418C417.088 44.3734 402.481 46.1505 388.23 40.8192C379.17 37.4174 370.976 35.0817 364.97 34.2186C382.173 24.673 384.005 -6.60386 368.329 -32.3971C356.725 -15.3878 326.289 -7.82243 324.915 13.2488C311.02 11.1671 297.176 15.5844 283.485 21.7281C211.416 52.4973 201.44 77.5797 188.767 110.481C182.151 127.592 181.642 139.575 165.915 148.359C161.843 188.775 195.18 229.598 235.185 237.264C246.993 208.069 290.051 187.201 324.711 210.405C344.51 223.657 352.501 256.812 335.399 284.992C324.202 303.423 300.637 319.671 267.962 332.568L114.001 397L-63.8885 313.752L-273 295.099Z" fill="#F2F1F5"/>
</g>
</svg>
