<svg xmlns="http://www.w3.org/2000/svg" width="50" height="50" fill="none"><path fill="currentColor" d="M40.15 50H9.85C4.417 50 0 45.582 0 40.15V9.85C0 4.417 4.418 0 9.85 0h30.3C45.583 0 50 4.418 50 9.85v30.3c0 5.432-4.418 9.85-9.85 9.85ZM9.85 1.389c-4.665 0-8.461 3.796-8.461 8.46v30.302c0 4.665 3.795 8.46 8.46 8.46h30.302c4.664 0 8.46-3.794 8.46-8.46V9.849c0-4.665-3.794-8.46-8.46-8.46H9.849Z"/><path fill="currentColor" d="M6.246 27.096H8.36v.138c0 .44.12.783.362 1.028.24.245.592.369 1.056.369.463 0 .816-.125 1.06-.375.243-.25.364-.64.364-1.167 0-.528-.14-.884-.42-1.136-.28-.253-.692-.379-1.238-.379h-.901v-1.528h.84c.467 0 .822-.121 1.063-.364.24-.243.361-.585.361-1.025 0-.44-.099-.741-.296-.957-.197-.216-.491-.324-.881-.324s-.692.107-.891.324c-.2.215-.3.527-.3.935v.11H6.433v-.103c0-.794.29-1.469.873-2.024.583-.555 1.41-.832 2.478-.832 1.07 0 1.911.255 2.458.767.545.511.82 1.118.82 1.82 0 .546-.128 1.026-.382 1.442-.255.416-.65.724-1.188.926v.028c.583.133 1.044.411 1.384.836.34.424.51.947.51 1.566 0 .94-.318 1.683-.954 2.226-.635.544-1.531.815-2.687.815-1.157 0-2.023-.274-2.612-.822-.59-.548-.885-1.263-.885-2.145v-.15l-.002.001ZM18.386 19.993H20.5v8.417h4.39v1.604h-6.504v-10.02ZM25.613 24.694c0-1.606.414-2.824 1.242-3.654.828-.83 1.908-1.246 3.239-1.246 1.262 0 2.262.33 3.001.991.739.66 1.108 1.507 1.108 2.54v.165H32.07v-.193c0-.601-.165-1.065-.496-1.39-.33-.327-.83-.49-1.5-.49s-1.235.236-1.655.706c-.42.47-.63 1.249-.63 2.337v1.087c0 1.005.206 1.763.616 2.278.41.514.976.77 1.697.77.637 0 1.116-.173 1.438-.52.32-.346.498-.804.53-1.372v-.18h2.133v.18c-.046 1.019-.426 1.858-1.142 2.52-.716.66-1.704.99-2.966.99-1.34 0-2.421-.419-3.245-1.256-.824-.838-1.235-2.053-1.235-3.645v-.619l-.002.001ZM35.64 19.993h3.366c1.343 0 2.472.412 3.382 1.236.911.823 1.366 1.976 1.366 3.458v.626c0 1.483-.455 2.636-1.366 3.462-.911.826-2.039 1.238-3.382 1.238H35.64v-10.02Zm3.331 8.445c.78 0 1.413-.26 1.896-.778.484-.519.726-1.285.726-2.299v-.716c0-1.013-.242-1.779-.726-2.295-.483-.516-1.115-.775-1.895-.775h-1.233v6.862h1.233Z"/></svg>
