<svg width="301" height="273" viewBox="0 0 301 273" fill="none" xmlns="http://www.w3.org/2000/svg">
<path d="M144 87L165.75 99.3279L187.301 112L187.5 137L187.301 162L165.75 174.672L144 187L122.25 174.672L100.699 162L100.5 137L100.699 112L122.25 99.3279L144 87Z" fill="#373D6A"/>
<path d="M123.259 141.484C123.259 142.674 122.811 143.588 121.914 144.227C121.018 144.859 119.72 145.176 118.021 145.176C114.921 145.176 113.119 144.071 112.615 141.862L114.83 141.476C115.006 142.161 115.357 142.662 115.885 142.979C116.418 143.289 117.15 143.444 118.082 143.444C119.049 143.444 119.781 143.292 120.279 142.987C120.777 142.677 121.026 142.217 121.026 141.607C121.026 141.238 120.927 140.937 120.728 140.702C120.528 140.468 120.247 140.271 119.884 140.113C119.649 140.008 119.333 139.908 118.935 139.814C118.536 139.715 118.064 139.606 117.52 139.489C116.887 139.343 116.38 139.211 115.999 139.094C115.624 138.977 115.319 138.862 115.085 138.751C114.851 138.634 114.634 138.505 114.435 138.364C114.042 138.101 113.737 137.764 113.521 137.354C113.304 136.938 113.195 136.434 113.195 135.842C113.195 134.746 113.611 133.905 114.443 133.319C115.275 132.728 116.479 132.432 118.056 132.432C119.544 132.432 120.669 132.663 121.431 133.126C122.192 133.589 122.699 134.362 122.951 135.446L120.719 135.771C120.572 135.197 120.282 134.772 119.849 134.497C119.415 134.216 118.803 134.075 118.012 134.075C117.156 134.075 116.512 134.213 116.078 134.488C115.645 134.764 115.428 135.174 115.428 135.719C115.428 136.059 115.516 136.34 115.691 136.562C115.873 136.779 116.137 136.964 116.482 137.116C116.805 137.269 117.499 137.459 118.565 137.688C119.122 137.811 119.62 137.931 120.06 138.048C120.499 138.165 120.871 138.288 121.176 138.417C121.428 138.528 121.656 138.648 121.861 138.777C122.072 138.906 122.254 139.05 122.406 139.208C122.682 139.478 122.893 139.8 123.039 140.175C123.186 140.55 123.259 140.986 123.259 141.484ZM133.595 140.236C133.595 141.818 133.188 143.037 132.373 143.893C131.559 144.748 130.413 145.176 128.937 145.176C127.49 145.176 126.365 144.742 125.562 143.875C124.765 143.008 124.367 141.795 124.367 140.236C124.367 138.672 124.765 137.462 125.562 136.606C126.365 135.745 127.507 135.314 128.99 135.314C130.513 135.314 131.661 135.73 132.435 136.562C133.208 137.395 133.595 138.619 133.595 140.236ZM131.319 140.236C131.319 139.047 131.128 138.183 130.747 137.644C130.372 137.104 129.798 136.835 129.025 136.835C128.216 136.835 127.619 137.116 127.232 137.679C126.845 138.235 126.652 139.088 126.652 140.236C126.652 141.361 126.839 142.214 127.214 142.794C127.595 143.374 128.163 143.664 128.919 143.664C129.74 143.664 130.343 143.383 130.73 142.82C131.122 142.252 131.319 141.391 131.319 140.236ZM137.384 139.762V145H135.213V137.582C135.213 137.061 135.204 136.636 135.186 136.308C135.175 135.974 135.16 135.701 135.142 135.49H137.217C137.228 135.572 137.24 135.73 137.252 135.965C137.269 136.193 137.284 136.434 137.296 136.686C137.307 136.932 137.313 137.134 137.313 137.292H137.348C137.688 136.589 138.104 136.082 138.596 135.771C139.094 135.461 139.695 135.306 140.398 135.306C141.418 135.306 142.188 135.602 142.71 136.193C143.231 136.785 143.492 137.676 143.492 138.865V145H141.321V139.437C141.321 138.575 141.177 137.945 140.89 137.547C140.603 137.148 140.152 136.949 139.537 136.949C138.881 136.949 138.356 137.207 137.964 137.723C137.577 138.238 137.384 138.918 137.384 139.762ZM147.693 139.762V145H145.523V137.582C145.523 137.061 145.514 136.636 145.496 136.308C145.484 135.974 145.47 135.701 145.452 135.49H147.526C147.538 135.572 147.55 135.73 147.562 135.965C147.579 136.193 147.594 136.434 147.606 136.686C147.617 136.932 147.623 137.134 147.623 137.292H147.658C147.998 136.589 148.414 136.082 148.906 135.771C149.404 135.461 150.005 135.306 150.708 135.306C151.728 135.306 152.498 135.602 153.02 136.193C153.541 136.785 153.802 137.676 153.802 138.865V145H151.631V139.437C151.631 138.575 151.487 137.945 151.2 137.547C150.913 137.148 150.462 136.949 149.847 136.949C149.191 136.949 148.666 137.207 148.274 137.723C147.887 138.238 147.693 138.918 147.693 139.762ZM164.525 140.236C164.525 141.818 164.118 143.037 163.303 143.893C162.489 144.748 161.343 145.176 159.867 145.176C158.419 145.176 157.294 144.742 156.492 143.875C155.695 143.008 155.296 141.795 155.296 140.236C155.296 138.672 155.695 137.462 156.492 136.606C157.294 135.745 158.437 135.314 159.919 135.314C161.443 135.314 162.591 135.73 163.365 136.562C164.138 137.395 164.525 138.619 164.525 140.236ZM162.248 140.236C162.248 139.047 162.058 138.183 161.677 137.644C161.302 137.104 160.728 136.835 159.955 136.835C159.146 136.835 158.548 137.116 158.162 137.679C157.775 138.235 157.581 139.088 157.581 140.236C157.581 141.361 157.769 142.214 158.144 142.794C158.525 143.374 159.093 143.664 159.849 143.664C160.669 143.664 161.273 143.383 161.66 142.82C162.052 142.252 162.248 141.391 162.248 140.236ZM169.983 145.176C168.583 145.176 167.502 144.751 166.74 143.901C165.984 143.046 165.606 141.839 165.606 140.28C165.606 138.698 165.987 137.477 166.749 136.615C167.511 135.748 168.595 135.314 170.001 135.314C171.073 135.314 171.961 135.587 172.664 136.132C173.367 136.671 173.806 137.418 173.982 138.373L171.785 138.496C171.709 137.998 171.521 137.603 171.222 137.31C170.924 137.011 170.502 136.861 169.957 136.861C169.248 136.861 168.726 137.131 168.392 137.67C168.058 138.209 167.891 139.053 167.891 140.201C167.891 141.355 168.064 142.217 168.41 142.785C168.762 143.354 169.286 143.638 169.983 143.638C170.481 143.638 170.897 143.488 171.231 143.189C171.571 142.891 171.782 142.439 171.864 141.836L174.053 141.95C173.965 142.595 173.739 143.16 173.376 143.646C173.013 144.133 172.541 144.511 171.961 144.78C171.381 145.044 170.721 145.176 169.983 145.176Z" fill="white"/>
<path d="M194 173L215.75 185.328L237.301 198L237.5 223L237.301 248L215.75 260.672L194 273L172.25 260.672L150.699 248L150.5 223L150.699 198L172.25 185.328L194 173Z" fill="#2659AE"/>
<path d="M179.992 223.562V228H178.234V216.992H183.516C184.781 216.992 185.758 217.271 186.445 217.828C187.133 218.385 187.477 219.172 187.477 220.188C187.477 220.99 187.245 221.669 186.781 222.227C186.318 222.784 185.682 223.141 184.875 223.297L187.953 228H185.938L183.18 223.562H179.992ZM185.703 220.227C185.703 219.622 185.5 219.164 185.094 218.852C184.693 218.539 184.107 218.383 183.336 218.383H179.992V222.18H183.398C184.138 222.18 184.706 222.008 185.102 221.664C185.503 221.32 185.703 220.841 185.703 220.227ZM188.852 225.062C188.852 224.349 189.071 223.716 189.508 223.164C189.946 222.607 190.615 222.125 191.516 221.719C191.339 221.37 191.193 220.987 191.078 220.57C190.964 220.154 190.907 219.768 190.907 219.414C190.907 218.622 191.149 218.01 191.633 217.578C192.123 217.146 192.815 216.93 193.711 216.93C194.529 216.93 195.183 217.133 195.672 217.539C196.162 217.94 196.407 218.487 196.407 219.18C196.407 219.56 196.318 219.909 196.141 220.227C195.964 220.544 195.69 220.846 195.321 221.133C195.091 221.305 194.805 221.482 194.461 221.664C194.123 221.846 193.722 222.036 193.258 222.234C193.81 223.245 194.532 224.25 195.422 225.25C195.995 224.396 196.427 223.37 196.719 222.172L198.024 222.578C197.69 223.833 197.154 225.013 196.414 226.117C196.894 226.581 197.409 226.812 197.961 226.812C198.326 226.812 198.631 226.771 198.875 226.688V227.922C198.594 228.036 198.235 228.094 197.797 228.094C197.344 228.094 196.912 228.013 196.5 227.852C196.094 227.685 195.724 227.44 195.391 227.117C194.558 227.81 193.581 228.156 192.461 228.156C191.315 228.156 190.427 227.885 189.797 227.344C189.167 226.797 188.852 226.036 188.852 225.062ZM195.032 219.188C195.032 218.839 194.912 218.555 194.672 218.336C194.433 218.112 194.107 218 193.696 218C193.232 218 192.878 218.128 192.633 218.383C192.388 218.638 192.266 218.984 192.266 219.422C192.266 219.958 192.425 220.549 192.743 221.195C193.383 220.935 193.849 220.708 194.141 220.516C194.438 220.328 194.659 220.128 194.805 219.914C194.956 219.695 195.032 219.453 195.032 219.188ZM194.438 226.227C193.948 225.664 193.506 225.104 193.11 224.547C192.719 223.984 192.37 223.424 192.063 222.867C190.948 223.357 190.391 224.083 190.391 225.047C190.391 225.635 190.581 226.104 190.961 226.453C191.341 226.802 191.862 226.977 192.524 226.977C192.883 226.977 193.232 226.909 193.571 226.773C193.909 226.638 194.198 226.456 194.438 226.227ZM209.712 222.391C209.712 223.557 209.485 224.56 209.032 225.398C208.579 226.237 207.949 226.88 207.141 227.328C206.339 227.776 205.409 228 204.352 228H200.126V216.992H203.876C205.74 216.992 207.178 217.461 208.188 218.398C209.204 219.331 209.712 220.661 209.712 222.391ZM207.938 222.391C207.938 221.089 207.587 220.096 206.883 219.414C206.18 218.727 205.167 218.383 203.844 218.383H201.883V226.609H204.173C204.938 226.609 205.602 226.438 206.165 226.094C206.727 225.75 207.162 225.263 207.469 224.633C207.782 224.003 207.938 223.255 207.938 222.391Z" fill="white"/>
<path d="M94 173L115.75 185.328L137.301 198L137.5 223L137.301 248L115.75 260.672L94 273L72.25 260.672L50.6987 248L50.5 223L50.6987 198L72.25 185.328L94 173Z" fill="#306BBC"/>
<path d="M73.8594 222.258C73.8594 223.065 73.6901 223.781 73.3516 224.406C73.0078 225.031 72.513 225.518 71.8672 225.867C71.2266 226.211 70.4714 226.383 69.6016 226.383H69.1875V228.086H67.4688V226.383H67.0547C66.1901 226.383 65.4349 226.208 64.7891 225.859C64.1432 225.516 63.6484 225.031 63.3047 224.406C62.9661 223.776 62.7969 223.06 62.7969 222.258C62.7969 220.992 63.1745 220.013 63.9297 219.32C64.6849 218.622 65.7578 218.273 67.1484 218.273H67.4688V216.914H69.1875V218.273H69.5078C70.9036 218.273 71.9766 218.622 72.7266 219.32C73.4818 220.018 73.8594 220.997 73.8594 222.258ZM72.0859 222.289C72.0859 221.383 71.8568 220.698 71.3984 220.234C70.9453 219.771 70.2552 219.539 69.3281 219.539H69.1875V225.125H69.3906C70.2604 225.125 70.9271 224.885 71.3906 224.406C71.8542 223.922 72.0859 223.216 72.0859 222.289ZM64.5703 222.289C64.5703 223.216 64.8021 223.922 65.2656 224.406C65.7344 224.885 66.4036 225.125 67.2734 225.125H67.4688V219.539H67.3125C66.3906 219.539 65.7031 219.768 65.25 220.227C64.7969 220.685 64.5703 221.372 64.5703 222.289ZM77.5316 228.156C76.693 228.156 76.055 227.932 75.6175 227.484C75.18 227.036 74.9613 226.419 74.9613 225.633C74.9613 224.758 75.2477 224.089 75.8206 223.625C76.3935 223.161 77.2894 222.914 78.5081 222.883L80.3753 222.852V222.406C80.3753 221.76 80.2451 221.294 79.9847 221.008C79.7295 220.721 79.3206 220.578 78.7581 220.578C78.2008 220.578 77.7946 220.68 77.5394 220.883C77.2894 221.086 77.1357 221.417 77.0784 221.875L75.3363 221.75C75.5915 220.177 76.7503 219.391 78.8128 219.391C79.8753 219.391 80.68 219.641 81.2269 220.141C81.779 220.641 82.055 221.359 82.055 222.297V225.75C82.055 226.188 82.1097 226.508 82.2191 226.711C82.3284 226.909 82.5264 227.008 82.8128 227.008C82.9691 227.008 83.1253 226.99 83.2816 226.953V227.93C83.0732 227.982 82.8753 228.021 82.6878 228.047C82.5055 228.073 82.3076 228.086 82.0941 228.086C81.5628 228.086 81.1722 227.951 80.9222 227.68C80.6774 227.404 80.5368 226.984 80.5003 226.422H80.4534C80.1097 227.036 79.7008 227.479 79.2269 227.75C78.7581 228.021 78.193 228.156 77.5316 228.156ZM80.3753 223.914L78.9769 223.938C78.3675 223.953 77.9144 224.018 77.6175 224.133C77.3154 224.247 77.0836 224.422 76.9222 224.656C76.7659 224.891 76.6878 225.201 76.6878 225.586C76.6878 226.029 76.7998 226.367 77.0238 226.602C77.2529 226.831 77.5706 226.945 77.9769 226.945C78.4404 226.945 78.8519 226.836 79.2113 226.617C79.5706 226.398 79.8545 226.099 80.0628 225.719C80.2711 225.333 80.3753 224.935 80.3753 224.523V223.914ZM88.1647 219.977C89.373 219.977 90.261 220.318 90.8288 221C91.3965 221.677 91.6803 222.698 91.6803 224.062C91.6803 225.443 91.3418 226.471 90.6647 227.148C89.9876 227.82 89.0032 228.156 87.7116 228.156C86.373 228.156 85.386 227.737 84.7506 226.898C84.1204 226.06 83.8053 224.771 83.8053 223.031C83.8053 222.146 83.8678 221.37 83.9928 220.703C84.1178 220.031 84.3131 219.453 84.5788 218.969C84.8496 218.484 85.1959 218.081 85.6178 217.758C86.0397 217.435 86.5709 217.174 87.2116 216.977C87.5293 216.878 88.0267 216.768 88.7038 216.648C89.3808 216.529 90.235 216.401 91.2663 216.266V217.719C90.5371 217.802 89.8652 217.891 89.2506 217.984C88.6413 218.078 88.1126 218.177 87.6647 218.281C87.2168 218.38 86.8704 218.49 86.6256 218.609C86.0423 218.87 85.6308 219.271 85.3913 219.812C85.1517 220.349 85.0215 221.135 85.0006 222.172C85.2402 221.469 85.6282 220.927 86.1647 220.547C86.7064 220.167 87.373 219.977 88.1647 219.977ZM89.9303 224.078C89.9303 223.078 89.7663 222.344 89.4381 221.875C89.1152 221.401 88.584 221.164 87.8444 221.164C87.0631 221.164 86.4876 221.404 86.1178 221.883C85.748 222.357 85.5631 223.089 85.5631 224.078C85.5631 225.042 85.735 225.763 86.0788 226.242C86.4277 226.721 86.9668 226.961 87.6959 226.961C88.498 226.961 89.0709 226.729 89.4147 226.266C89.7584 225.802 89.9303 225.073 89.9303 224.078ZM100.548 223.734C100.548 225.188 100.28 226.289 99.7431 227.039C99.2119 227.784 98.428 228.156 97.3916 228.156C96.1155 228.156 95.2483 227.664 94.79 226.68H94.7509C94.7718 226.753 94.7822 227.206 94.7822 228.039V231.32H93.1181V221.344C93.1181 220.922 93.1129 220.562 93.1025 220.266C93.0921 219.964 93.0791 219.724 93.0634 219.547H94.6806C94.691 219.583 94.7015 219.688 94.7119 219.859C94.7275 220.026 94.7405 220.211 94.7509 220.414C94.7614 220.617 94.7666 220.784 94.7666 220.914H94.7978C95.0426 220.393 95.3785 220.01 95.8056 219.766C96.2327 219.516 96.777 219.391 97.4384 219.391C98.4645 219.391 99.2379 219.75 99.7588 220.469C100.285 221.182 100.548 222.271 100.548 223.734ZM98.7978 223.758C98.7978 222.654 98.6442 221.854 98.3369 221.359C98.0296 220.865 97.5478 220.617 96.8916 220.617C96.1832 220.617 95.652 220.88 95.2978 221.406C94.9489 221.932 94.7744 222.747 94.7744 223.852C94.7744 224.893 94.9436 225.672 95.2822 226.188C95.6207 226.703 96.152 226.961 96.8759 226.961C97.5374 226.961 98.0218 226.711 98.3291 226.211C98.6416 225.706 98.7978 224.888 98.7978 223.758ZM107.548 221.438L103.783 228H102.001V219.547H103.587V223.898C103.587 224.096 103.579 224.328 103.564 224.594C103.553 224.854 103.54 225.117 103.525 225.383C103.514 225.648 103.501 225.883 103.486 226.086L107.251 219.547H109.017V228H107.447V223.133C107.447 222.987 107.452 222.802 107.462 222.578C107.473 222.354 107.486 222.135 107.501 221.922C107.522 221.703 107.538 221.542 107.548 221.438ZM112.564 224.352V228H110.892V219.547H112.564V223.227C112.741 223.221 112.89 223.193 113.009 223.141C113.129 223.089 113.254 222.992 113.384 222.852C113.447 222.779 113.515 222.695 113.588 222.602C113.666 222.503 113.744 222.391 113.822 222.266C113.905 222.146 114.08 221.859 114.345 221.406C114.616 220.948 114.978 220.328 115.431 219.547H117.127L115.463 222.234C115.067 222.849 114.757 223.247 114.533 223.43L117.197 228H115.408L113.353 224.219C113.259 224.255 113.137 224.286 112.986 224.312C112.84 224.339 112.699 224.352 112.564 224.352ZM120.244 228.156C119.406 228.156 118.768 227.932 118.33 227.484C117.893 227.036 117.674 226.419 117.674 225.633C117.674 224.758 117.96 224.089 118.533 223.625C119.106 223.161 120.002 222.914 121.221 222.883L123.088 222.852V222.406C123.088 221.76 122.958 221.294 122.697 221.008C122.442 220.721 122.033 220.578 121.471 220.578C120.913 220.578 120.507 220.68 120.252 220.883C120.002 221.086 119.848 221.417 119.791 221.875L118.049 221.75C118.304 220.177 119.463 219.391 121.525 219.391C122.588 219.391 123.393 219.641 123.939 220.141C124.491 220.641 124.768 221.359 124.768 222.297V225.75C124.768 226.188 124.822 226.508 124.932 226.711C125.041 226.909 125.239 227.008 125.525 227.008C125.682 227.008 125.838 226.99 125.994 226.953V227.93C125.786 227.982 125.588 228.021 125.4 228.047C125.218 228.073 125.02 228.086 124.807 228.086C124.275 228.086 123.885 227.951 123.635 227.68C123.39 227.404 123.249 226.984 123.213 226.422H123.166C122.822 227.036 122.413 227.479 121.939 227.75C121.471 228.021 120.906 228.156 120.244 228.156ZM123.088 223.914L121.689 223.938C121.08 223.953 120.627 224.018 120.33 224.133C120.028 224.247 119.796 224.422 119.635 224.656C119.478 224.891 119.4 225.201 119.4 225.586C119.4 226.029 119.512 226.367 119.736 226.602C119.965 226.831 120.283 226.945 120.689 226.945C121.153 226.945 121.564 226.836 121.924 226.617C122.283 226.398 122.567 226.099 122.775 225.719C122.984 225.333 123.088 224.935 123.088 224.523V223.914Z" fill="white"/>
<path d="M194 0L215.75 12.3279L237.301 25L237.5 50L237.301 75L215.75 87.6721L194 100L172.25 87.6721L150.699 75L150.5 50L150.699 25L172.25 12.3279L194 0Z" fill="#51A8DD"/>
<path d="M187.086 33.3809V36H185.021V33.3809H179.316V31.7373L184.695 23.6162H187.086V31.7461H188.773V33.3809H187.086ZM181.145 31.7461H185.021V27.3955C185.021 27.0967 185.026 26.7803 185.038 26.4463C185.056 26.1064 185.07 25.8574 185.082 25.6992C184.988 25.8926 184.877 26.0977 184.748 26.3145C184.625 26.5254 184.484 26.7539 184.326 27L181.145 31.7461ZM197.941 29.8037C197.941 31.8896 197.58 33.4746 196.86 34.5586C196.139 35.6367 195.064 36.1758 193.634 36.1758C192.21 36.1758 191.144 35.6426 190.435 34.5762C189.726 33.5039 189.371 31.9131 189.371 29.8037C189.371 27.6475 189.711 26.0479 190.391 25.0049C191.077 23.9561 192.178 23.4316 193.696 23.4316C195.161 23.4316 196.233 23.9648 196.912 25.0312C197.598 26.0918 197.941 27.6826 197.941 29.8037ZM195.752 29.8037C195.752 28.6611 195.688 27.75 195.559 27.0703C195.436 26.3906 195.222 25.9014 194.917 25.6025C194.619 25.2979 194.208 25.1455 193.687 25.1455C193.136 25.1455 192.705 25.2979 192.395 25.6025C192.084 25.9014 191.865 26.3906 191.736 27.0703C191.613 27.75 191.551 28.6611 191.551 29.8037C191.551 30.9346 191.616 31.8398 191.744 32.5195C191.879 33.1992 192.099 33.6914 192.404 33.9961C192.708 34.3008 193.124 34.4531 193.652 34.4531C194.431 34.4531 194.976 34.0869 195.286 33.3545C195.597 32.6221 195.752 31.4385 195.752 29.8037ZM204.454 30.8848V34.5322H202.696V30.8848H199.119V29.1445H202.696V25.4971H204.454V29.1445H208.049V30.8848H204.454Z" fill="white"/>
<path d="M168.025 48.0059V56.9609H169.256V60.6113H168.142V58H161.196V60.6113H160.082V56.9609H160.848C161.189 56.3776 161.508 55.7236 161.805 54.999C162.105 54.2699 162.372 53.5088 162.604 52.7158C162.841 51.9183 163.033 51.1185 163.179 50.3164C163.329 49.5143 163.425 48.7441 163.466 48.0059H168.025ZM166.87 49.0518H164.491C164.45 49.6169 164.359 50.248 164.218 50.9453C164.076 51.638 163.894 52.349 163.671 53.0781C163.452 53.8073 163.206 54.5068 162.933 55.1768C162.664 55.8467 162.379 56.4414 162.078 56.9609H166.87V49.0518ZM176.96 54.2402C176.96 54.8555 176.88 55.4046 176.721 55.8877C176.561 56.3708 176.331 56.7786 176.031 57.1113C175.73 57.444 175.365 57.6992 174.937 57.877C174.513 58.0501 174.032 58.1367 173.494 58.1367C172.993 58.1367 172.533 58.0501 172.114 57.877C171.699 57.6992 171.339 57.444 171.033 57.1113C170.733 56.7786 170.498 56.3708 170.329 55.8877C170.165 55.4046 170.083 54.8555 170.083 54.2402C170.083 53.4199 170.222 52.7227 170.5 52.1484C170.778 51.5697 171.175 51.1299 171.69 50.8291C172.209 50.5238 172.827 50.3711 173.542 50.3711C174.226 50.3711 174.823 50.5238 175.333 50.8291C175.848 51.1344 176.247 51.5765 176.53 52.1553C176.817 52.7295 176.96 53.4245 176.96 54.2402ZM171.259 54.2402C171.259 54.8418 171.339 55.3636 171.498 55.8057C171.658 56.2477 171.904 56.5895 172.237 56.8311C172.569 57.0726 172.998 57.1934 173.522 57.1934C174.041 57.1934 174.467 57.0726 174.8 56.8311C175.137 56.5895 175.386 56.2477 175.545 55.8057C175.705 55.3636 175.784 54.8418 175.784 54.2402C175.784 53.6432 175.705 53.1283 175.545 52.6953C175.386 52.2578 175.14 51.9206 174.807 51.6836C174.474 51.4466 174.044 51.3281 173.515 51.3281C172.736 51.3281 172.164 51.5856 171.799 52.1006C171.439 52.6156 171.259 53.3288 171.259 54.2402ZM179.633 50.5078V53.2012C179.633 53.6706 179.761 54.0169 180.016 54.2402C180.276 54.4635 180.652 54.5752 181.144 54.5752C181.618 54.5752 182.049 54.5023 182.436 54.3564C182.823 54.2106 183.215 54.0124 183.612 53.7617V50.5078H184.747V58H183.612V54.6436C183.193 54.9124 182.78 55.1243 182.375 55.2793C181.969 55.4342 181.484 55.5117 180.919 55.5117C180.148 55.5117 179.551 55.3112 179.128 54.9102C178.708 54.5091 178.499 53.9668 178.499 53.2832V50.5078H179.633ZM189.751 50.3711C190.389 50.3711 190.936 50.5124 191.391 50.7949C191.847 51.0775 192.196 51.474 192.437 51.9844C192.679 52.4902 192.8 53.0827 192.8 53.7617V54.4658H187.625C187.639 55.3454 187.857 56.0153 188.281 56.4756C188.705 56.9359 189.302 57.166 190.072 57.166C190.546 57.166 190.965 57.1227 191.33 57.0361C191.695 56.9495 192.073 56.8219 192.465 56.6533V57.6514C192.086 57.82 191.71 57.943 191.337 58.0205C190.968 58.098 190.53 58.1367 190.024 58.1367C189.304 58.1367 188.675 57.9909 188.138 57.6992C187.604 57.403 187.19 56.9701 186.893 56.4004C186.597 55.8307 186.449 55.1335 186.449 54.3086C186.449 53.502 186.584 52.8047 186.852 52.2168C187.126 51.6243 187.509 51.1686 188.001 50.8496C188.498 50.5306 189.081 50.3711 189.751 50.3711ZM189.737 51.3008C189.131 51.3008 188.648 51.499 188.288 51.8955C187.928 52.292 187.714 52.8457 187.645 53.5566H191.61C191.606 53.11 191.535 52.7181 191.398 52.3809C191.266 52.0391 191.063 51.7747 190.79 51.5879C190.516 51.3965 190.166 51.3008 189.737 51.3008ZM197.968 50.3711C198.902 50.3711 199.647 50.6924 200.203 51.335C200.759 51.9775 201.037 52.9437 201.037 54.2334C201.037 55.0856 200.91 55.8011 200.654 56.3799C200.399 56.9587 200.039 57.3962 199.574 57.6924C199.114 57.9886 198.569 58.1367 197.941 58.1367C197.544 58.1367 197.195 58.0843 196.895 57.9795C196.594 57.8747 196.336 57.7334 196.122 57.5557C195.908 57.3779 195.73 57.1842 195.589 56.9746H195.507C195.521 57.1523 195.537 57.3665 195.555 57.6172C195.578 57.8678 195.589 58.0866 195.589 58.2734V61.3496H194.447V50.5078H195.384L195.534 51.6152H195.589C195.735 51.3874 195.913 51.18 196.122 50.9932C196.332 50.8018 196.587 50.6514 196.888 50.542C197.193 50.4281 197.553 50.3711 197.968 50.3711ZM197.77 51.3281C197.25 51.3281 196.831 51.4284 196.512 51.6289C196.197 51.8294 195.967 52.1302 195.821 52.5312C195.676 52.9277 195.598 53.4268 195.589 54.0283V54.2471C195.589 54.8805 195.657 55.416 195.794 55.8535C195.935 56.291 196.165 56.6237 196.484 56.8516C196.808 57.0794 197.241 57.1934 197.783 57.1934C198.248 57.1934 198.636 57.068 198.945 56.8174C199.255 56.5667 199.485 56.2181 199.636 55.7715C199.791 55.3203 199.868 54.8031 199.868 54.2197C199.868 53.3356 199.695 52.6338 199.349 52.1143C199.007 51.5902 198.481 51.3281 197.77 51.3281ZM203.881 50.5078V53.6523H208.058V50.5078H209.193V58H208.058V54.6162H203.881V58H202.74V50.5078H203.881ZM212.399 50.5078V55.2178C212.399 55.3089 212.397 55.4274 212.392 55.5732C212.388 55.7145 212.381 55.8672 212.372 56.0312C212.363 56.1908 212.354 56.3457 212.344 56.4961C212.34 56.6419 212.333 56.7627 212.324 56.8584L216.412 50.5078H217.806V58H216.747V53.4062C216.747 53.2604 216.749 53.0736 216.754 52.8457C216.758 52.6178 216.765 52.3945 216.774 52.1758C216.783 51.9525 216.79 51.7793 216.795 51.6562L212.72 58H211.319V50.5078H212.399ZM221.724 54.165L219.133 50.5078H220.432L222.407 53.3926L224.376 50.5078H225.661L223.07 54.165L225.805 58H224.506L222.407 54.9443L220.295 58H219.01L221.724 54.165ZM165.564 69.5078H166.815L163.582 73.124L167.075 77H165.742L162.338 73.1992V77H161.196V69.5078H162.338V73.1445L165.564 69.5078ZM174.609 73.2402C174.609 73.8555 174.529 74.4046 174.369 74.8877C174.21 75.3708 173.98 75.7786 173.679 76.1113C173.378 76.444 173.014 76.6992 172.585 76.877C172.161 77.0501 171.681 77.1367 171.143 77.1367C170.642 77.1367 170.181 77.0501 169.762 76.877C169.347 76.6992 168.987 76.444 168.682 76.1113C168.381 75.7786 168.146 75.3708 167.978 74.8877C167.814 74.4046 167.732 73.8555 167.732 73.2402C167.732 72.4199 167.871 71.7227 168.149 71.1484C168.427 70.5697 168.823 70.1299 169.338 69.8291C169.858 69.5238 170.475 69.3711 171.191 69.3711C171.874 69.3711 172.471 69.5238 172.982 69.8291C173.497 70.1344 173.895 70.5765 174.178 71.1553C174.465 71.7295 174.609 72.4245 174.609 73.2402ZM168.907 73.2402C168.907 73.8418 168.987 74.3636 169.147 74.8057C169.306 75.2477 169.552 75.5895 169.885 75.8311C170.218 76.0726 170.646 76.1934 171.17 76.1934C171.69 76.1934 172.116 76.0726 172.449 75.8311C172.786 75.5895 173.034 75.2477 173.194 74.8057C173.353 74.3636 173.433 73.8418 173.433 73.2402C173.433 72.6432 173.353 72.1283 173.194 71.6953C173.034 71.2578 172.788 70.9206 172.455 70.6836C172.123 70.4466 171.692 70.3281 171.163 70.3281C170.384 70.3281 169.812 70.5856 169.448 71.1006C169.088 71.6156 168.907 72.3288 168.907 73.2402ZM184.2 69.5078V77H183.174V72.1191C183.174 71.9186 183.179 71.7158 183.188 71.5107C183.202 71.3011 183.218 71.0915 183.236 70.8818H183.195L180.707 77H179.743L177.316 70.8818H177.275C177.289 71.0915 177.298 71.3011 177.302 71.5107C177.311 71.7158 177.316 71.9323 177.316 72.1602V77H176.284V69.5078H177.808L180.228 75.6328L182.682 69.5078H184.2ZM192.554 69.5078V77H191.412V70.4854H187.42V77H186.278V69.5078H192.554ZM197.483 69.3848C198.376 69.3848 199.039 69.5853 199.472 69.9863C199.905 70.3874 200.121 71.0277 200.121 71.9072V77H199.294L199.075 75.8926H199.021C198.811 76.166 198.592 76.3962 198.364 76.583C198.137 76.7653 197.872 76.9043 197.571 77C197.275 77.0911 196.911 77.1367 196.478 77.1367C196.022 77.1367 195.616 77.057 195.261 76.8975C194.91 76.738 194.632 76.4964 194.427 76.1729C194.226 75.8493 194.126 75.4391 194.126 74.9424C194.126 74.195 194.422 73.6208 195.015 73.2197C195.607 72.8187 196.51 72.5999 197.722 72.5635L199.014 72.5088V72.0508C199.014 71.4036 198.875 70.9502 198.597 70.6904C198.319 70.4307 197.927 70.3008 197.421 70.3008C197.029 70.3008 196.655 70.3577 196.3 70.4717C195.944 70.5856 195.607 70.7201 195.288 70.875L194.94 70.0137C195.277 69.8405 195.664 69.6924 196.102 69.5693C196.539 69.4463 196.999 69.3848 197.483 69.3848ZM199 73.3086L197.859 73.3564C196.924 73.3929 196.266 73.5456 195.883 73.8145C195.5 74.0833 195.309 74.4639 195.309 74.9561C195.309 75.3844 195.439 75.7012 195.698 75.9062C195.958 76.1113 196.302 76.2139 196.731 76.2139C197.396 76.2139 197.941 76.0293 198.364 75.6602C198.788 75.291 199 74.7373 199 73.999V73.3086ZM203.321 69.5078V72.6523H207.497V69.5078H208.632V77H207.497V73.6162H203.321V77H202.179V69.5078H203.321ZM211.839 69.5078V74.2178C211.839 74.3089 211.836 74.4274 211.832 74.5732C211.827 74.7145 211.82 74.8672 211.811 75.0312C211.802 75.1908 211.793 75.3457 211.784 75.4961C211.779 75.6419 211.772 75.7627 211.763 75.8584L215.851 69.5078H217.246V77H216.186V72.4062C216.186 72.2604 216.188 72.0736 216.193 71.8457C216.198 71.6178 216.204 71.3945 216.214 71.1758C216.223 70.9525 216.23 70.7793 216.234 70.6562L212.16 77H210.758V69.5078H211.839ZM220.459 69.5078V74.2178C220.459 74.3089 220.457 74.4274 220.452 74.5732C220.448 74.7145 220.441 74.8672 220.432 75.0312C220.422 75.1908 220.413 75.3457 220.404 75.4961C220.4 75.6419 220.393 75.7627 220.384 75.8584L224.472 69.5078H225.866V77H224.807V72.4062C224.807 72.2604 224.809 72.0736 224.813 71.8457C224.818 71.6178 224.825 71.3945 224.834 71.1758C224.843 70.9525 224.85 70.7793 224.854 70.6562L220.78 77H219.379V69.5078H220.459ZM225.306 66.4248C225.265 66.8851 225.148 67.2702 224.957 67.5801C224.77 67.89 224.494 68.1247 224.13 68.2842C223.765 68.4391 223.298 68.5166 222.728 68.5166C222.141 68.5166 221.667 68.4414 221.307 68.291C220.951 68.1361 220.687 67.9036 220.514 67.5938C220.345 67.2839 220.245 66.8942 220.213 66.4248H221.279C221.329 66.9261 221.464 67.2679 221.683 67.4502C221.901 67.6325 222.257 67.7236 222.749 67.7236C223.186 67.7236 223.531 67.6279 223.781 67.4365C224.032 67.2451 224.182 66.9079 224.232 66.4248H225.306Z" fill="white"/>
<path d="M94 0L115.75 12.3279L137.301 25L137.5 50L137.301 75L115.75 87.6721L94 100L72.25 87.6721L50.6987 75L50.5 50L50.6987 25L72.25 12.3279L94 0Z" fill="#4695D4"/>
<path d="M76.2285 50.1982V52H67.7207V50.4883C67.9609 49.9434 68.2627 49.4307 68.626 48.9502C68.9951 48.4697 69.4141 48.0068 69.8828 47.5615C70.3516 47.1162 70.8643 46.6709 71.4209 46.2256C71.79 45.9268 72.1094 45.6514 72.3789 45.3994C72.6543 45.1475 72.8799 44.9131 73.0557 44.6963C73.2959 44.4268 73.4834 44.1514 73.6182 43.8701C73.7529 43.583 73.8203 43.2842 73.8203 42.9736C73.8203 42.3877 73.6621 41.9424 73.3457 41.6377C73.0352 41.333 72.5811 41.1807 71.9834 41.1807C71.4092 41.1807 70.9551 41.3359 70.6211 41.6465C70.293 41.957 70.0879 42.4111 70.0059 43.0088L67.8086 42.8682C67.9434 41.7725 68.3711 40.9258 69.0918 40.3281C69.8125 39.7305 70.7734 39.4316 71.9746 39.4316C73.2812 39.4316 74.2832 39.7334 74.9805 40.3369C75.6836 40.9404 76.0352 41.79 76.0352 42.8857C76.0352 43.46 75.9121 43.9902 75.666 44.4766C75.4199 44.9629 75.0918 45.4229 74.6816 45.8564C74.3945 46.1729 74.043 46.501 73.627 46.8408C73.2109 47.1748 72.7744 47.5264 72.3174 47.8955C71.8193 48.2998 71.3916 48.6865 71.0342 49.0557C70.6768 49.4248 70.4131 49.8057 70.2432 50.1982H76.2285ZM85.9408 45.8037C85.9408 47.8896 85.5804 49.4746 84.8597 50.5586C84.139 51.6367 83.0638 52.1758 81.6341 52.1758C80.2103 52.1758 79.1439 51.6426 78.4349 50.5762C77.7259 49.5039 77.3714 47.9131 77.3714 45.8037C77.3714 43.6475 77.7113 42.0479 78.391 41.0049C79.0765 39.9561 80.1781 39.4316 81.6957 39.4316C83.1605 39.4316 84.2328 39.9648 84.9125 41.0312C85.598 42.0918 85.9408 43.6826 85.9408 45.8037ZM83.7523 45.8037C83.7523 44.6611 83.6879 43.75 83.5589 43.0703C83.4359 42.3906 83.222 41.9014 82.9173 41.6025C82.6185 41.2979 82.2084 41.1455 81.6869 41.1455C81.1361 41.1455 80.7054 41.2979 80.3949 41.6025C80.0843 41.9014 79.8646 42.3906 79.7357 43.0703C79.6127 43.75 79.5511 44.6611 79.5511 45.8037C79.5511 46.9346 79.6156 47.8398 79.7445 48.5195C79.8793 49.1992 80.099 49.6914 80.4037 49.9961C80.7084 50.3008 81.1244 50.4531 81.6517 50.4531C82.431 50.4531 82.9759 50.0869 83.2865 49.3545C83.597 48.6221 83.7523 47.4385 83.7523 45.8037ZM94.379 50.8838C94.168 51.335 93.9014 51.6631 93.5792 51.8682C93.2569 52.0732 92.8321 52.1758 92.3048 52.1758C92.1114 52.1758 91.8975 52.1641 91.6632 52.1406C91.4346 52.123 91.2559 52.0967 91.127 52.0615V50.5674C91.2794 50.6201 91.4786 50.6465 91.7247 50.6465C91.836 50.6465 91.962 50.6113 92.1026 50.541C92.2491 50.4648 92.4014 50.2715 92.5596 49.9609C92.7179 49.6445 92.8673 49.1318 93.0079 48.4229C93.0548 48.1943 93.1046 47.916 93.1573 47.5879C93.2159 47.2598 93.2774 46.8643 93.3419 46.4014C93.4122 45.9326 93.4913 45.3789 93.5792 44.7402C93.6729 44.0957 93.7755 43.3457 93.8868 42.4902H100.839V52H98.6593V43.9844H95.7413C95.5831 45.1797 95.4395 46.1846 95.3106 46.999C95.1876 47.8135 95.0792 48.4434 94.9854 48.8887C94.8038 49.7617 94.6016 50.4268 94.379 50.8838ZM104.583 47.6758C104.583 48.6543 104.771 49.4014 105.146 49.917C105.527 50.4268 106.075 50.6816 106.789 50.6816C107.305 50.6816 107.724 50.5732 108.046 50.3564C108.369 50.1338 108.591 49.8262 108.714 49.4336L110.736 49.7061C110.097 51.3525 108.752 52.1758 106.702 52.1758C105.284 52.1758 104.194 51.7539 103.432 50.9102C102.676 50.0664 102.298 48.8271 102.298 47.1924C102.298 45.6221 102.679 44.418 103.441 43.5801C104.208 42.7363 105.298 42.3145 106.71 42.3145C108.087 42.3145 109.13 42.7568 109.839 43.6416C110.554 44.5264 110.912 45.8301 110.912 47.5527V47.6758H104.583ZM108.776 46.2344C108.711 45.3906 108.5 44.7637 108.143 44.3535C107.791 43.9434 107.302 43.7383 106.675 43.7383C106.031 43.7383 105.53 43.9609 105.172 44.4062C104.815 44.8457 104.624 45.4551 104.601 46.2344H108.776ZM116.273 43.9844V52H114.094V43.9844H111.307V42.4902H119.059V43.9844H116.273Z" fill="white"/>
<path d="M75.3672 31V21.0059H81.2393V22.0312H76.5293V25.2578H78.0811C79.0426 25.2578 79.7946 25.3763 80.3369 25.6133C80.8792 25.8503 81.2598 26.1807 81.4785 26.6045C81.7018 27.0283 81.8135 27.5205 81.8135 28.0811C81.8135 29.0016 81.5378 29.7194 80.9863 30.2344C80.4395 30.7448 79.5303 31 78.2588 31H75.3672ZM76.5293 30.002H78.1357C79.0381 30.002 79.6761 29.8447 80.0498 29.5303C80.4281 29.2113 80.6172 28.7282 80.6172 28.0811C80.6172 27.6299 80.526 27.2721 80.3438 27.0078C80.1615 26.7435 79.8743 26.5544 79.4824 26.4404C79.0905 26.3265 78.5755 26.2695 77.9375 26.2695H76.5293V30.002ZM89.9485 27.2402C89.9485 27.8555 89.8688 28.4046 89.7093 28.8877C89.5498 29.3708 89.3196 29.7786 89.0188 30.1113C88.718 30.444 88.3535 30.6992 87.9251 30.877C87.5013 31.0501 87.0205 31.1367 86.4827 31.1367C85.9814 31.1367 85.5211 31.0501 85.1018 30.877C84.6871 30.6992 84.3271 30.444 84.0218 30.1113C83.721 29.7786 83.4863 29.3708 83.3177 28.8877C83.1536 28.4046 83.0716 27.8555 83.0716 27.2402C83.0716 26.4199 83.2106 25.7227 83.4886 25.1484C83.7665 24.5697 84.163 24.1299 84.678 23.8291C85.1975 23.5238 85.8151 23.3711 86.5305 23.3711C87.2141 23.3711 87.8111 23.5238 88.3216 23.8291C88.8365 24.1344 89.2353 24.5765 89.5179 25.1553C89.805 25.7295 89.9485 26.4245 89.9485 27.2402ZM84.2473 27.2402C84.2473 27.8418 84.3271 28.3636 84.4866 28.8057C84.6461 29.2477 84.8922 29.5895 85.2249 29.8311C85.5576 30.0726 85.986 30.1934 86.51 30.1934C87.0296 30.1934 87.4557 30.0726 87.7884 29.8311C88.1256 29.5895 88.374 29.2477 88.5335 28.8057C88.693 28.3636 88.7727 27.8418 88.7727 27.2402C88.7727 26.6432 88.693 26.1283 88.5335 25.6953C88.374 25.2578 88.1279 24.9206 87.7952 24.6836C87.4625 24.4466 87.0318 24.3281 86.5032 24.3281C85.7239 24.3281 85.152 24.5856 84.7874 25.1006C84.4274 25.6156 84.2473 26.3288 84.2473 27.2402ZM97.2496 31H96.0943V24.458H93.8179C93.7268 25.6383 93.6106 26.6501 93.4693 27.4932C93.3326 28.3317 93.1594 29.0176 92.9498 29.5508C92.7447 30.0794 92.494 30.4691 92.1978 30.7197C91.9061 30.9658 91.5575 31.0889 91.1519 31.0889C91.0289 31.0889 90.9127 31.082 90.8033 31.0684C90.6939 31.0547 90.6005 31.0319 90.523 31V30.1387C90.5823 30.1569 90.6438 30.1706 90.7076 30.1797C90.7759 30.1888 90.8466 30.1934 90.9195 30.1934C91.1246 30.1934 91.3114 30.109 91.48 29.9404C91.6532 29.7673 91.8082 29.5075 91.9449 29.1611C92.0862 28.8148 92.2115 28.3773 92.3209 27.8486C92.4302 27.3154 92.5259 26.6888 92.608 25.9688C92.6946 25.2441 92.7698 24.4238 92.8336 23.5078H97.2496V31ZM102.247 23.3711C102.885 23.3711 103.432 23.5124 103.888 23.7949C104.343 24.0775 104.692 24.474 104.933 24.9844C105.175 25.4902 105.296 26.0827 105.296 26.7617V27.4658H100.121C100.135 28.3454 100.353 29.0153 100.777 29.4756C101.201 29.9359 101.798 30.166 102.568 30.166C103.042 30.166 103.461 30.1227 103.826 30.0361C104.191 29.9495 104.569 29.8219 104.961 29.6533V30.6514C104.583 30.82 104.207 30.943 103.833 31.0205C103.464 31.098 103.026 31.1367 102.52 31.1367C101.8 31.1367 101.171 30.9909 100.634 30.6992C100.1 30.403 99.6857 29.9701 99.3895 29.4004C99.0933 28.8307 98.9452 28.1335 98.9452 27.3086C98.9452 26.502 99.0796 25.8047 99.3485 25.2168C99.6219 24.6243 100.005 24.1686 100.497 23.8496C100.994 23.5306 101.577 23.3711 102.247 23.3711ZM102.233 24.3008C101.627 24.3008 101.144 24.499 100.784 24.8955C100.424 25.292 100.21 25.8457 100.141 26.5566H104.106C104.102 26.11 104.031 25.7181 103.894 25.3809C103.762 25.0391 103.559 24.7747 103.286 24.5879C103.013 24.3965 102.662 24.3008 102.233 24.3008ZM109.828 23.3711C110.466 23.3711 111.013 23.5124 111.469 23.7949C111.925 24.0775 112.273 24.474 112.515 24.9844C112.756 25.4902 112.877 26.0827 112.877 26.7617V27.4658H107.702C107.716 28.3454 107.935 29.0153 108.359 29.4756C108.782 29.9359 109.379 30.166 110.15 30.166C110.623 30.166 111.043 30.1227 111.407 30.0361C111.772 29.9495 112.15 29.8219 112.542 29.6533V30.6514C112.164 30.82 111.788 30.943 111.414 31.0205C111.045 31.098 110.608 31.1367 110.102 31.1367C109.382 31.1367 108.753 30.9909 108.215 30.6992C107.682 30.403 107.267 29.9701 106.971 29.4004C106.675 28.8307 106.526 28.1335 106.526 27.3086C106.526 26.502 106.661 25.8047 106.93 25.2168C107.203 24.6243 107.586 24.1686 108.078 23.8496C108.575 23.5306 109.158 23.3711 109.828 23.3711ZM109.815 24.3008C109.208 24.3008 108.725 24.499 108.365 24.8955C108.005 25.292 107.791 25.8457 107.723 26.5566H111.688C111.683 26.11 111.612 25.7181 111.476 25.3809C111.344 25.0391 111.141 24.7747 110.867 24.5879C110.594 24.3965 110.243 24.3008 109.815 24.3008Z" fill="white"/>
<path d="M65.3379 63.5078V66.6523H69.5146V63.5078H70.6494V71H69.5146V67.6162H65.3379V71H64.1963V63.5078H65.3379ZM75.5784 63.3848C76.4716 63.3848 77.1347 63.5853 77.5677 63.9863C78.0006 64.3874 78.2171 65.0277 78.2171 65.9072V71H77.3899L77.1712 69.8926H77.1165C76.9068 70.166 76.6881 70.3962 76.4602 70.583C76.2324 70.7653 75.968 70.9043 75.6673 71C75.371 71.0911 75.0065 71.1367 74.5735 71.1367C74.1178 71.1367 73.7122 71.057 73.3567 70.8975C73.0058 70.738 72.7278 70.4964 72.5227 70.1729C72.3222 69.8493 72.222 69.4391 72.222 68.9424C72.222 68.195 72.5182 67.6208 73.1106 67.2197C73.7031 66.8187 74.6054 66.5999 75.8177 66.5635L77.1096 66.5088V66.0508C77.1096 65.4036 76.9707 64.9502 76.6927 64.6904C76.4147 64.4307 76.0227 64.3008 75.5169 64.3008C75.1249 64.3008 74.7513 64.3577 74.3958 64.4717C74.0403 64.5856 73.7031 64.7201 73.3841 64.875L73.0354 64.0137C73.3727 63.8405 73.76 63.6924 74.1975 63.5693C74.635 63.4463 75.0953 63.3848 75.5784 63.3848ZM77.096 67.3086L75.9544 67.3564C75.0201 67.3929 74.3616 67.5456 73.9788 67.8145C73.596 68.0833 73.4046 68.4639 73.4046 68.9561C73.4046 69.3844 73.5345 69.7012 73.7942 69.9062C74.054 70.1113 74.3981 70.2139 74.8264 70.2139C75.4918 70.2139 76.0364 70.0293 76.4602 69.6602C76.8841 69.291 77.096 68.7373 77.096 67.999V67.3086ZM87.1522 63.3711C88.0864 63.3711 88.8315 63.6924 89.3875 64.335C89.9435 64.9775 90.2215 65.9437 90.2215 67.2334C90.2215 68.0856 90.0939 68.8011 89.8387 69.3799C89.5835 69.9587 89.2235 70.3962 88.7586 70.6924C88.2983 70.9886 87.7537 71.1367 87.1248 71.1367C86.7284 71.1367 86.3797 71.0843 86.0789 70.9795C85.7782 70.8747 85.5207 70.7334 85.3065 70.5557C85.0923 70.3779 84.9146 70.1842 84.7733 69.9746H84.6912C84.7049 70.1523 84.7209 70.3665 84.7391 70.6172C84.7619 70.8678 84.7733 71.0866 84.7733 71.2734V74.3496H83.6317V63.5078H84.5682L84.7186 64.6152H84.7733C84.9191 64.3874 85.0968 64.18 85.3065 63.9932C85.5161 63.8018 85.7713 63.6514 86.0721 63.542C86.3774 63.4281 86.7375 63.3711 87.1522 63.3711ZM86.9539 64.3281C86.4344 64.3281 86.0151 64.4284 85.6961 64.6289C85.3817 64.8294 85.1515 65.1302 85.0057 65.5312C84.8599 65.9277 84.7824 66.4268 84.7733 67.0283V67.2471C84.7733 67.8805 84.8416 68.416 84.9784 68.8535C85.1196 69.291 85.3498 69.6237 85.6688 69.8516C85.9924 70.0794 86.4253 70.1934 86.9676 70.1934C87.4325 70.1934 87.8198 70.068 88.1297 69.8174C88.4396 69.5667 88.6698 69.2181 88.8202 68.7715C88.9751 68.3203 89.0526 67.8031 89.0526 67.2197C89.0526 66.3356 88.8794 65.6338 88.533 65.1143C88.1912 64.5902 87.6649 64.3281 86.9539 64.3281ZM91.9239 71V63.5078H93.0655V66.5977H95.1163C95.7543 66.5977 96.2784 66.6774 96.6886 66.8369C97.1033 66.9964 97.4109 67.2334 97.6114 67.5479C97.812 67.8623 97.9122 68.252 97.9122 68.7168C97.9122 69.1816 97.812 69.585 97.6114 69.9268C97.4155 70.2686 97.1056 70.5329 96.6818 70.7197C96.2625 70.9066 95.7156 71 95.0411 71H91.9239ZM93.0655 70.0771H94.9318C95.4969 70.0771 95.948 69.9769 96.2853 69.7764C96.6225 69.5758 96.7911 69.2409 96.7911 68.7715C96.7911 68.3112 96.6339 67.9922 96.3195 67.8145C96.005 67.6322 95.5538 67.541 94.9659 67.541H93.0655V70.0771ZM99.1495 71V63.5078H100.284V71H99.1495ZM103.545 63.5078V66.6523H107.722V63.5078H108.857V71H107.722V67.6162H103.545V71H102.404V63.5078H103.545ZM115.351 63.5078H116.602L113.369 67.124L116.862 71H115.529L112.125 67.1992V71H110.983V63.5078H112.125V67.1445L115.351 63.5078ZM120.82 63.3711C121.458 63.3711 122.005 63.5124 122.461 63.7949C122.917 64.0775 123.265 64.474 123.507 64.9844C123.748 65.4902 123.869 66.0827 123.869 66.7617V67.4658H118.694C118.708 68.3454 118.927 69.0153 119.351 69.4756C119.774 69.9359 120.371 70.166 121.142 70.166C121.616 70.166 122.035 70.1227 122.399 70.0361C122.764 69.9495 123.142 69.8219 123.534 69.6533V70.6514C123.156 70.82 122.78 70.943 122.406 71.0205C122.037 71.098 121.6 71.1367 121.094 71.1367C120.374 71.1367 119.745 70.9909 119.207 70.6992C118.674 70.403 118.259 69.9701 117.963 69.4004C117.667 68.8307 117.519 68.1335 117.519 67.3086C117.519 66.502 117.653 65.8047 117.922 65.2168C118.195 64.6243 118.578 64.1686 119.07 63.8496C119.567 63.5306 120.15 63.3711 120.82 63.3711ZM120.807 64.3008C120.2 64.3008 119.717 64.499 119.357 64.8955C118.997 65.292 118.783 65.8457 118.715 66.5566H122.68C122.675 66.11 122.604 65.7181 122.468 65.3809C122.336 65.0391 122.133 64.7747 121.859 64.5879C121.586 64.3965 121.235 64.3008 120.807 64.3008Z" fill="white"/>
<path d="M44 87L65.75 99.3279L87.3013 112L87.5 137L87.3013 162L65.75 174.672L44 187L22.25 174.672L0.69873 162L0.5 137L0.69873 112L22.25 99.3279L44 87Z" fill="#3D80C7"/>
<path d="M33.4219 129.904C33.4219 131.217 33.0205 132.257 32.2178 133.024C31.415 133.792 30.3105 134.176 28.9043 134.176C27.6914 134.176 26.7158 133.906 25.9775 133.367C25.2451 132.822 24.7881 132.037 24.6064 131.012L26.7861 130.818C26.9326 131.375 27.1846 131.785 27.542 132.049C27.9053 132.307 28.3682 132.436 28.9307 132.436C29.6221 132.436 30.1699 132.222 30.5742 131.794C30.9785 131.36 31.1807 130.748 31.1807 129.957C31.1807 129.26 30.9844 128.703 30.5918 128.287C30.2051 127.865 29.666 127.654 28.9746 127.654C28.6055 127.654 28.2656 127.722 27.9551 127.856C27.6445 127.985 27.3574 128.193 27.0938 128.48H24.9668L25.3975 121.616H32.7012V123.286H27.3662L27.1553 126.688C27.7822 126.16 28.5645 125.896 29.502 125.896C30.2988 125.896 30.9902 126.061 31.5762 126.389C32.1621 126.717 32.6162 127.183 32.9385 127.786C33.2607 128.384 33.4219 129.09 33.4219 129.904ZM42.9408 127.804C42.9408 129.89 42.5804 131.475 41.8597 132.559C41.139 133.637 40.0638 134.176 38.6341 134.176C37.2103 134.176 36.1439 133.643 35.4349 132.576C34.7259 131.504 34.3714 129.913 34.3714 127.804C34.3714 125.647 34.7113 124.048 35.391 123.005C36.0765 121.956 37.1781 121.432 38.6957 121.432C40.1605 121.432 41.2328 121.965 41.9125 123.031C42.598 124.092 42.9408 125.683 42.9408 127.804ZM40.7523 127.804C40.7523 126.661 40.6879 125.75 40.5589 125.07C40.4359 124.391 40.222 123.901 39.9173 123.603C39.6185 123.298 39.2084 123.146 38.6869 123.146C38.1361 123.146 37.7054 123.298 37.3949 123.603C37.0843 123.901 36.8646 124.391 36.7357 125.07C36.6127 125.75 36.5511 126.661 36.5511 127.804C36.5511 128.935 36.6156 129.84 36.7445 130.52C36.8793 131.199 37.099 131.691 37.4037 131.996C37.7084 132.301 38.1244 132.453 38.6517 132.453C39.431 132.453 39.9759 132.087 40.2865 131.354C40.597 130.622 40.7523 129.438 40.7523 127.804ZM52.6003 127.804C52.6003 129.89 52.24 131.475 51.5193 132.559C50.7986 133.637 49.7234 134.176 48.2937 134.176C46.8698 134.176 45.8034 133.643 45.0945 132.576C44.3855 131.504 44.031 129.913 44.031 127.804C44.031 125.647 44.3708 124.048 45.0505 123.005C45.7361 121.956 46.8376 121.432 48.3552 121.432C49.82 121.432 50.8923 121.965 51.572 123.031C52.2575 124.092 52.6003 125.683 52.6003 127.804ZM50.4118 127.804C50.4118 126.661 50.3474 125.75 50.2185 125.07C50.0954 124.391 49.8816 123.901 49.5769 123.603C49.278 123.298 48.8679 123.146 48.3464 123.146C47.7956 123.146 47.365 123.298 47.0544 123.603C46.7439 123.901 46.5241 124.391 46.3952 125.07C46.2722 125.75 46.2107 126.661 46.2107 127.804C46.2107 128.935 46.2751 129.84 46.404 130.52C46.5388 131.199 46.7585 131.691 47.0632 131.996C47.3679 132.301 47.7839 132.453 48.3113 132.453C49.0905 132.453 49.6355 132.087 49.946 131.354C50.2566 130.622 50.4118 129.438 50.4118 127.804ZM59.1134 128.885V132.532H57.3555V128.885H53.7784V127.145H57.3555V123.497H59.1134V127.145H62.7081V128.885H59.1134Z" fill="white"/>
<path d="M11.834 146.189C11.3613 146.189 10.9355 146.271 10.5566 146.436C10.1816 146.596 9.86133 146.83 9.5957 147.139C9.33398 147.443 9.13281 147.812 8.99219 148.246C8.85156 148.68 8.78125 149.168 8.78125 149.711C8.78125 150.43 8.89258 151.055 9.11523 151.586C9.3418 152.113 9.67773 152.521 10.123 152.811C10.5723 153.1 11.1328 153.244 11.8047 153.244C12.1875 153.244 12.5469 153.213 12.8828 153.15C13.2227 153.084 13.5527 153.002 13.873 152.904V153.771C13.5605 153.889 13.2324 153.975 12.8887 154.029C12.5449 154.088 12.1367 154.117 11.6641 154.117C10.793 154.117 10.0645 153.938 9.47852 153.578C8.89648 153.215 8.45898 152.703 8.16602 152.043C7.87695 151.383 7.73242 150.604 7.73242 149.705C7.73242 149.057 7.82227 148.465 8.00195 147.93C8.18555 147.391 8.45117 146.926 8.79883 146.535C9.15039 146.145 9.58008 145.844 10.0879 145.633C10.5996 145.418 11.1855 145.311 11.8457 145.311C12.2793 145.311 12.6973 145.354 13.0996 145.439C13.502 145.525 13.8652 145.648 14.1895 145.809L13.791 146.652C13.5176 146.527 13.2168 146.42 12.8887 146.33C12.5645 146.236 12.2129 146.189 11.834 146.189ZM20.8811 150.777C20.8811 151.305 20.8127 151.775 20.676 152.189C20.5393 152.604 20.342 152.953 20.0842 153.238C19.8264 153.523 19.5139 153.742 19.1467 153.895C18.7834 154.043 18.3713 154.117 17.9104 154.117C17.4807 154.117 17.0862 154.043 16.7268 153.895C16.3713 153.742 16.0627 153.523 15.801 153.238C15.5432 152.953 15.342 152.604 15.1975 152.189C15.0569 151.775 14.9866 151.305 14.9866 150.777C14.9866 150.074 15.1057 149.477 15.344 148.984C15.5823 148.488 15.9221 148.111 16.3635 147.854C16.8088 147.592 17.3381 147.461 17.9514 147.461C18.5373 147.461 19.0491 147.592 19.4866 147.854C19.928 148.115 20.2698 148.494 20.512 148.99C20.758 149.482 20.8811 150.078 20.8811 150.777ZM15.9944 150.777C15.9944 151.293 16.0627 151.74 16.1995 152.119C16.3362 152.498 16.5471 152.791 16.8323 152.998C17.1174 153.205 17.4846 153.309 17.9338 153.309C18.3791 153.309 18.7444 153.205 19.0295 152.998C19.3186 152.791 19.5315 152.498 19.6682 152.119C19.8049 151.74 19.8733 151.293 19.8733 150.777C19.8733 150.266 19.8049 149.824 19.6682 149.453C19.5315 149.078 19.3205 148.789 19.0354 148.586C18.7502 148.383 18.3811 148.281 17.928 148.281C17.26 148.281 16.7698 148.502 16.4573 148.943C16.1487 149.385 15.9944 149.996 15.9944 150.777ZM26.6997 148.404H24.5845V154H23.6235V148.404H21.5376V147.578H26.6997V148.404ZM30.7488 147.461C31.5495 147.461 32.1882 147.736 32.6648 148.287C33.1413 148.838 33.3796 149.666 33.3796 150.771C33.3796 151.502 33.2702 152.115 33.0515 152.611C32.8327 153.107 32.5241 153.482 32.1257 153.736C31.7312 153.99 31.2644 154.117 30.7253 154.117C30.3855 154.117 30.0866 154.072 29.8288 153.982C29.571 153.893 29.3503 153.771 29.1667 153.619C28.9831 153.467 28.8308 153.301 28.7097 153.121H28.6394C28.6511 153.273 28.6648 153.457 28.6804 153.672C28.6999 153.887 28.7097 154.074 28.7097 154.234V156.871H27.7312V147.578H28.5339L28.6628 148.527H28.7097C28.8347 148.332 28.987 148.154 29.1667 147.994C29.3464 147.83 29.5652 147.701 29.823 147.607C30.0847 147.51 30.3933 147.461 30.7488 147.461ZM30.5788 148.281C30.1335 148.281 29.7741 148.367 29.5007 148.539C29.2312 148.711 29.0339 148.969 28.9089 149.312C28.7839 149.652 28.7175 150.08 28.7097 150.596V150.783C28.7097 151.326 28.7683 151.785 28.8855 152.16C29.0066 152.535 29.2038 152.82 29.4773 153.016C29.7546 153.211 30.1257 153.309 30.5905 153.309C30.989 153.309 31.321 153.201 31.5866 152.986C31.8523 152.771 32.0495 152.473 32.1784 152.09C32.3113 151.703 32.3777 151.26 32.3777 150.76C32.3777 150.002 32.2292 149.4 31.9323 148.955C31.6394 148.506 31.1882 148.281 30.5788 148.281ZM33.8252 147.578H34.8681L36.2861 151.305C36.3681 151.523 36.4443 151.734 36.5146 151.938C36.5849 152.137 36.6474 152.328 36.7021 152.512C36.7568 152.695 36.7998 152.873 36.831 153.045H36.872C36.9267 152.85 37.0048 152.594 37.1064 152.277C37.208 151.957 37.3173 151.631 37.4345 151.299L38.7763 147.578H39.8252L37.0302 154.943C36.8818 155.338 36.708 155.682 36.5088 155.975C36.3134 156.268 36.0752 156.492 35.7939 156.648C35.5127 156.809 35.1728 156.889 34.7744 156.889C34.5908 156.889 34.4287 156.877 34.288 156.854C34.1474 156.834 34.0263 156.811 33.9248 156.783V156.004C34.0107 156.023 34.1142 156.041 34.2353 156.057C34.3603 156.072 34.4892 156.08 34.622 156.08C34.8642 156.08 35.0732 156.033 35.249 155.939C35.4287 155.85 35.583 155.717 35.7119 155.541C35.8408 155.365 35.9521 155.156 36.0459 154.914L36.3974 154.012L33.8252 147.578ZM45.3156 147.578V153.174H46.2355V156.221H45.2922V154H40.7453V156.221H39.8137V153.174H40.3176C40.6848 152.666 40.9895 152.109 41.2316 151.504C41.4738 150.898 41.6574 150.264 41.7824 149.6C41.9074 148.932 41.9738 148.258 41.9816 147.578H45.3156ZM44.3723 148.352H42.8488C42.8137 148.922 42.7297 149.502 42.5969 150.092C42.468 150.682 42.2961 151.244 42.0812 151.779C41.8664 152.311 41.6164 152.775 41.3312 153.174H44.3723V148.352ZM48.2514 147.578V150.273H51.8315V147.578H52.8041V154H51.8315V151.1H48.2514V154H47.2729V147.578H48.2514ZM55.5524 147.578V151.615C55.5524 151.693 55.5505 151.795 55.5466 151.92C55.5427 152.041 55.5368 152.172 55.529 152.312C55.5212 152.449 55.5134 152.582 55.5055 152.711C55.5016 152.836 55.4958 152.939 55.488 153.021L58.9919 147.578H60.1872V154H59.279V150.062C59.279 149.938 59.2809 149.777 59.2848 149.582C59.2887 149.387 59.2946 149.195 59.3024 149.008C59.3102 148.816 59.3161 148.668 59.32 148.562L55.8278 154H54.6266V147.578H55.5524ZM65.7597 147.578H66.832L64.0605 150.678L67.0546 154H65.912L62.9941 150.742V154H62.0155V147.578H62.9941V150.695L65.7597 147.578ZM73.5119 150.777C73.5119 151.305 73.4435 151.775 73.3068 152.189C73.1701 152.604 72.9728 152.953 72.715 153.238C72.4572 153.523 72.1447 153.742 71.7775 153.895C71.4142 154.043 71.0021 154.117 70.5412 154.117C70.1115 154.117 69.717 154.043 69.3576 153.895C69.0021 153.742 68.6935 153.523 68.4318 153.238C68.174 152.953 67.9728 152.604 67.8283 152.189C67.6877 151.775 67.6173 151.305 67.6173 150.777C67.6173 150.074 67.7365 149.477 67.9748 148.984C68.213 148.488 68.5529 148.111 68.9943 147.854C69.4396 147.592 69.9689 147.461 70.5822 147.461C71.1681 147.461 71.6798 147.592 72.1173 147.854C72.5588 148.115 72.9005 148.494 73.1427 148.99C73.3888 149.482 73.5119 150.078 73.5119 150.777ZM68.6252 150.777C68.6252 151.293 68.6935 151.74 68.8302 152.119C68.967 152.498 69.1779 152.791 69.463 152.998C69.7482 153.205 70.1154 153.309 70.5646 153.309C71.0099 153.309 71.3752 153.205 71.6603 152.998C71.9494 152.791 72.1623 152.498 72.299 152.119C72.4357 151.74 72.5041 151.293 72.5041 150.777C72.5041 150.266 72.4357 149.824 72.299 149.453C72.1623 149.078 71.9513 148.789 71.6662 148.586C71.381 148.383 71.0119 148.281 70.5588 148.281C69.8908 148.281 69.4005 148.502 69.088 148.943C68.7795 149.385 68.6252 149.996 68.6252 150.777ZM80.057 149.189C80.057 149.592 79.9398 149.906 79.7055 150.133C79.4711 150.355 79.1684 150.506 78.7973 150.584V150.631C79.1996 150.686 79.5453 150.83 79.8344 151.064C80.1273 151.295 80.2738 151.648 80.2738 152.125C80.2738 152.492 80.1859 152.816 80.0102 153.098C79.8344 153.379 79.559 153.6 79.184 153.76C78.809 153.92 78.3207 154 77.7191 154H74.9535V147.578H77.6957C78.1566 147.578 78.5629 147.631 78.9145 147.736C79.2699 147.838 79.5492 148.006 79.7523 148.24C79.9555 148.475 80.057 148.791 80.057 149.189ZM79.2602 152.125C79.2602 151.746 79.1156 151.473 78.8266 151.305C78.5414 151.137 78.1254 151.053 77.5785 151.053H75.932V153.209H77.602C78.141 153.209 78.5512 153.127 78.8324 152.963C79.1176 152.795 79.2602 152.516 79.2602 152.125ZM79.0668 149.301C79.0668 148.996 78.9555 148.77 78.7328 148.621C78.5102 148.469 78.1449 148.393 77.6371 148.393H75.932V150.238H77.4672C77.9945 150.238 78.393 150.162 78.6625 150.01C78.932 149.857 79.0668 149.621 79.0668 149.301Z" fill="white"/>
</svg>
