<svg xmlns="http://www.w3.org/2000/svg" width="28" height="28" fill="none"><g clip-path="url(#a)"><mask id="b" width="28" height="28" x="0" y="0" maskUnits="userSpaceOnUse" style="mask-type:luminance"><path fill="#fff" d="M0 0h28v28H0V0Z"/></mask><g mask="url(#b)"><path stroke="#125AA3" stroke-linecap="round" stroke-linejoin="round" stroke-miterlimit="10" d="M16.406 26.727a3.905 3.905 0 1 0-4.56-.018M4.112 19.919v3.835c0 .723.587 1.31 1.31 1.31H7.33"/><path stroke="#125AA3" stroke-linecap="round" stroke-linejoin="round" stroke-miterlimit="10" d="M5.388 21.194 4.112 19.92l-1.275 1.275M23.92 19.919v3.835a1.31 1.31 0 0 1-1.31 1.31h-1.907"/><path stroke="#125AA3" stroke-linecap="round" stroke-linejoin="round" stroke-miterlimit="10" d="m22.645 21.194 1.275-1.275 1.275 1.275M14.14 11.115v5.583M15.46 12.435l-1.32-1.32-1.322 1.32M12.773 23.712l.891.891 1.842-1.841M7.193 7.709c.357 0 .646-.303.646-.677V1.224c0-.374-.29-.677-.646-.677h-6c-.357 0-.646.303-.646.677v5.808c0 .374.29.677.646.677h6Z"/><path stroke="#125AA3" stroke-linecap="round" stroke-linejoin="round" stroke-miterlimit="10" d="M5.289.547H3.098v1.938h2.19V.547ZM2.432 5.92h.81M17 7.709c.356 0 .646-.303.646-.677V1.224c0-.374-.29-.677-.646-.677h-6c-.357 0-.646.303-.646.677v5.808c0 .374.289.677.646.677h6Z"/><path stroke="#125AA3" stroke-linecap="round" stroke-linejoin="round" stroke-miterlimit="10" d="M15.095.547h-2.19v1.938h2.19V.547ZM12.238 5.92h.811M26.806 7.709c.357 0 .646-.303.646-.677V1.224c0-.374-.29-.677-.646-.677h-6c-.356 0-.646.303-.646.677v5.808c0 .374.29.677.646.677h6Z"/><path stroke="#125AA3" stroke-linecap="round" stroke-linejoin="round" stroke-miterlimit="10" d="M24.902.547H22.71v1.938h2.19V.547ZM22.045 5.92h.81M7.193 17.46c.357 0 .646-.304.646-.678v-5.808c0-.374-.29-.676-.646-.676h-6c-.357 0-.646.302-.646.676v5.808c0 .374.29.677.646.677h6Z"/><path stroke="#125AA3" stroke-linecap="round" stroke-linejoin="round" stroke-miterlimit="10" d="M5.289 10.298H3.098v1.937h2.19v-1.937ZM2.432 15.67h.81M26.806 17.46c.357 0 .646-.304.646-.678v-5.808c0-.374-.29-.676-.646-.676h-6c-.356 0-.646.302-.646.676v5.808c0 .374.29.677.646.677h6Z"/><path stroke="#125AA3" stroke-linecap="round" stroke-linejoin="round" stroke-miterlimit="10" d="M24.902 10.298H22.71v1.937h2.19v-1.937ZM22.045 15.67h.81"/></g></g><defs><clipPath id="a"><path fill="#fff" d="M0 0h28v28H0z"/></clipPath></defs></svg>