<svg width="15" height="14" viewBox="0 0 15 14" fill="none" xmlns="http://www.w3.org/2000/svg">
<g clip-path="url(#clip0_165_3129)">
<path d="M9.52099 0.0808565C9.4568 0.0132447 9.36879 -0.0273438 9.27757 -0.0273438H3.81618C2.80841 -0.0273438 1.97656 0.801195 1.97656 1.80886V12.1364C1.97656 13.1441 2.80841 13.9727 3.81618 13.9727H11.2287C12.2365 13.9727 13.0683 13.1441 13.0683 12.1364V3.93591C13.0683 3.848 13.0277 3.76351 12.9703 3.69921L9.52099 0.0808565ZM9.61905 1.16638L11.9287 3.59101H10.4273C9.98093 3.59101 9.61905 3.23255 9.61905 2.78618V1.16638ZM11.2287 13.2964H3.81618C3.18386 13.2964 2.65289 12.7722 2.65289 12.1364V1.80886C2.65289 1.17653 3.18044 0.648988 3.81618 0.648988H8.94272V2.78618C8.94272 3.60789 9.60559 4.26734 10.4273 4.26734H12.392V12.1364C12.392 12.7722 11.8644 13.2964 11.2287 13.2964Z" fill="#125AA3"/>
<path d="M10.3055 10.9631H4.73929C4.55333 10.9631 4.40112 11.1152 4.40112 11.3013C4.40112 11.4873 4.55333 11.6395 4.73929 11.6395H10.3089C10.4948 11.6395 10.647 11.4873 10.647 11.3013C10.647 11.1152 10.4948 10.9631 10.3055 10.9631Z" fill="#125AA3"/>
<path d="M7.27552 9.74896C7.33982 9.81657 7.42773 9.85716 7.52236 9.85716C7.6171 9.85716 7.70501 9.81657 7.7692 9.74896L9.75088 7.62191C9.87937 7.48658 9.86923 7.27018 9.734 7.1451C9.59867 7.01661 9.38227 7.02665 9.2572 7.16198L7.86053 8.66001V4.96732C7.86053 4.78125 7.70832 4.62915 7.52236 4.62915C7.3364 4.62915 7.18419 4.78125 7.18419 4.96732V8.66001L5.79094 7.16198C5.66245 7.02675 5.44936 7.01661 5.31413 7.1451C5.17891 7.2736 5.16876 7.48668 5.29726 7.62191L7.27552 9.74896Z" fill="#125AA3"/>
</g>
<defs>
<clipPath id="clip0_165_3129">
<rect width="14" height="14" fill="white" transform="translate(0.5)"/>
</clipPath>
</defs>
</svg>
