<svg xmlns="http://www.w3.org/2000/svg" width="50" height="50" fill="none"><path fill="currentColor" d="M40.15 50H9.85C4.417 50 0 45.582 0 40.15V9.85C0 4.417 4.418 0 9.85 0h30.3C45.583 0 50 4.418 50 9.85v30.3c0 5.432-4.418 9.85-9.85 9.85ZM9.85 1.389c-4.665 0-8.461 3.796-8.461 8.46v30.302c0 4.665 3.795 8.46 8.46 8.46h30.302c4.664 0 8.46-3.794 8.46-8.46V9.849c0-4.664-3.794-8.46-8.46-8.46H9.849Z"/><path fill="currentColor" d="M25.003 15.27c2.6 0 5.043 1.01 6.881 2.849a9.697 9.697 0 0 1 2.843 6.846h2.083a11.773 11.773 0 0 0-3.453-8.319 11.776 11.776 0 0 0-8.408-3.452v2.078l.054-.003ZM31.883 31.88a9.7 9.7 0 0 1-6.935 2.843v2.083l.054.002c3.026 0 6.05-1.152 8.353-3.455 2.167-2.167 3.3-4.974 3.43-7.817h-2.083a9.68 9.68 0 0 1-2.82 6.344h.001ZM18.122 31.88a9.652 9.652 0 0 1-2.824-6.344h-2.084a11.754 11.754 0 0 0 11.163 11.242v-2.082a9.68 9.68 0 0 1-6.254-2.816h-.001ZM18.122 18.119a9.649 9.649 0 0 1 6.255-2.819v-2.078a11.754 11.754 0 0 0-7.729 3.425 11.733 11.733 0 0 0-3.458 8.319h2.083a9.663 9.663 0 0 1 2.849-6.846v-.001ZM25 28.628a3.628 3.628 0 1 0 0-7.256 3.628 3.628 0 0 0 0 7.256Z"/></svg>
