<svg xmlns="http://www.w3.org/2000/svg" width="50" height="50" fill="none"><g fill="currentColor" clip-path="url(#a)"><path d="M40.15 50.001H9.85c-5.432 0-9.85-4.418-9.85-9.849V9.849C0 4.42 4.418 0 9.85 0h30.3C45.583 0 50 4.418 50 9.85v30.3c0 5.432-4.418 9.85-9.85 9.85v.001ZM9.85 1.39c-4.665 0-8.461 3.796-8.461 8.46v30.302c0 4.665 3.795 8.46 8.46 8.46h30.302c4.664 0 8.46-3.794 8.46-8.46V9.849c0-4.664-3.794-8.46-8.46-8.46H9.849Z"/><path d="M25 36.136c-6.14 0-11.136-4.996-11.136-11.136 0-6.14 4.996-11.136 11.136-11.136 6.14 0 11.137 4.995 11.137 11.136 0 6.14-4.996 11.136-11.137 11.136Zm0-20.19c-4.991 0-9.053 4.062-9.053 9.054S20.01 34.053 25 34.053c4.992 0 9.053-4.061 9.053-9.053 0-4.992-4.061-9.053-9.053-9.053Z"/><path d="M25 31.48A6.486 6.486 0 0 1 18.52 25 6.486 6.486 0 0 1 25 18.523 6.486 6.486 0 0 1 31.478 25 6.486 6.486 0 0 1 25 31.48Zm0-11.569a5.095 5.095 0 0 0-5.09 5.09 5.095 5.095 0 0 0 5.09 5.09A5.095 5.095 0 0 0 30.09 25a5.095 5.095 0 0 0-5.09-5.09Z"/><path d="M22.32 25.757a.526.526 0 0 1-.525-.526 3.359 3.359 0 0 1 3.355-3.355.526.526 0 0 1 0 1.051 2.307 2.307 0 0 0-2.305 2.304c0 .29-.235.526-.525.526Z"/></g><defs><clipPath id="a"><path fill="#fff" d="M0 0h50v50.001H0z"/></clipPath></defs></svg>
