<svg xmlns="http://www.w3.org/2000/svg" width="121" height="28" fill="none"><path fill="currentColor" d="M23.303 8.248h-5.365v-.88c0-.241.08-1.522-1.121-2.483-1.065-.852-3.037-1.019-4.805-.48-1.842.56-3.043 2.32-3.043 3.683 0 1.361.96 2.322 1.842 2.723 1.213.551 3.683.96 5.845 1.521 1.922.498 3.844 1.762 4.805 3.443.824 1.442.622 3.284.4 4.245-.24 1.04-.957 2.887-2.642 4.404-1.602 1.441-3.924 2.402-5.846 2.883-1.281.32-4.885.64-7.367.24-2.483-.4-4.244-1.521-5.045-2.803C.16 23.463 0 22.102 0 21.301c0-.64.16-1.815.24-2.322h5.766c-.08.64-.08 1.185-.08 1.761 0 .721.16 1.362 1.04 2.323.882.96 2.483 1.04 3.524.96 1.041-.08 2.803-.565 3.844-1.36 1.041-.797 1.522-1.762 1.522-2.803s-.619-1.75-1.602-2.323c-.96-.56-3.844-1.361-4.164-1.441-.32-.08-3.524-.801-5.205-2.162-1.657-1.342-1.925-2.098-2.082-2.883-.08-.4-.08-1.201-.08-1.522 0-.24.16-2.242 1.521-4.164C5.606 3.443 6.727 2.482 8.97 1.361c2.242-1.12 3.603-1.2 4.244-1.28C13.533.04 14.307 0 14.574 0h1.922c1.362 0 2.764.541 3.444.88.8.401 2.002 1.362 2.722 2.483.721 1.121.801 2.563.801 3.284 0 .576-.107 1.307-.16 1.601Z"/><path fill="currentColor" fill-rule="evenodd" d="M23.143 19.94c.08-1.495.657-4.981 2.322-6.967 2.082-2.483 4.084-3.844 6.967-4.325 2.883-.48 5.205-.24 6.807.48 1.602.722 3.764 2.804 3.684 6.808-.08 4.003-1.602 7.607-4.885 9.85-3.283 2.241-7.047 2.001-8.168 1.921-1.121-.08-4.164-.72-5.446-2.963-1.28-2.242-1.335-4.164-1.28-4.805Zm8.729 4.484c-.508.027-1.682-.128-2.323-.961-.8-1.041-.8-2.563-.8-3.283 0-.721.32-3.444 1.28-5.205.962-1.762 2.243-3.204 4.085-3.204s2.322.641 2.723 1.202c.4.56.56 1.922.56 3.203s-.4 4.404-1.762 6.246c-1.089 1.473-2.936 1.975-3.763 2.002ZM82.895 19.95c.08-1.495.657-4.982 2.322-6.968C87.3 10.5 89.301 9.14 92.184 8.658c2.883-.48 5.205-.24 6.807.48 1.601.721 3.764 2.803 3.683 6.807-.08 4.004-1.601 7.608-4.884 9.85-3.284 2.242-7.047 2.002-8.168 1.922-1.121-.08-4.165-.72-5.446-2.963-1.281-2.242-1.335-4.164-1.281-4.805Zm8.729 4.484c-.508.026-1.682-.128-2.323-.961-.8-1.041-.8-2.563-.8-3.284 0-.72.32-3.443 1.28-5.205.962-1.761 2.243-3.203 4.085-3.203s2.322.64 2.722 1.201c.4.561.561 1.922.561 3.204 0 1.28-.4 4.404-1.762 6.246-1.089 1.473-2.936 1.975-3.763 2.002Z" clip-rule="evenodd"/><path fill="currentColor" d="M120.999 15.375h-5.526c0-.4.064-.432 0-1.521-.08-1.362-1.121-2.002-2.002-2.002-1.041 0-1.704.417-2.803 2.322-1.201 2.082-1.669 6.18-1.441 7.928.24 1.842 1.281 2.242 2.002 2.242.721 0 1.762-.4 2.482-1.201.546-.606.775-1.789.801-2.322h5.446c-.267.827-.881 2.594-1.202 3.042l-.013.019c-.408.571-1.367 1.915-3.11 2.944-1.761 1.041-6.886 1.442-9.289-.16-2.402-1.601-2.803-4.164-2.722-6.326.08-2.162.48-5.125 3.043-8.488 2.562-3.364 6.806-3.524 7.687-3.524.881 0 2.139-.178 4.404 1.201 1.842 1.122 2.269 2.777 2.243 3.524v2.322ZM46.045 8.809l5.205 2.322c.4-.64 2.002-1.842 2.483-2.082.48-.24 2.482-1.361 6.166-.24 3.683 1.12 2.802 6.006 2.642 7.047-.128.832-1.388 8.088-2.002 11.611h-5.685c.64-3.203 1.953-9.93 2.082-11.211.16-1.602.4-4.324-2.643-4.484-2.434-.129-3.844 2.936-4.244 4.484l-1.842 11.211h-5.605l3.443-18.658ZM65.504 8.738l5.205 2.322c.4-.64 2.002-1.842 2.483-2.082.48-.24 2.482-1.361 6.166-.24C83.04 9.859 82.16 14.744 82 15.785c-.128.833-1.388 8.088-2.002 11.611h-5.685c.64-3.203 1.953-9.93 2.082-11.21.16-1.602.4-4.325-2.643-4.485-2.434-.128-3.844 2.936-4.244 4.484l-1.842 11.211h-5.605l3.443-18.658Z"/></svg>
