<svg xmlns="http://www.w3.org/2000/svg" width="28" height="28" fill="none"><g fill="#125AA3" clip-path="url(#a)"><path d="M15.364.003c1.411.136 2.759.478 4.013.997l.024.01a14.055 14.055 0 0 1 3.56 2.146.437.437 0 0 1 .03.647l-2.27 2.267a.441.441 0 0 1-.608.012 9.965 9.965 0 0 0-2.293-1.328l-.021-.01a9.883 9.883 0 0 0-2.57-.67.438.438 0 0 1-.386-.435V.434a.44.44 0 0 1 .52-.431Zm3.677 1.806a13.122 13.122 0 0 0-3.319-.886v2.336c.838.132 1.646.363 2.412.678l.023.009c.787.325 1.529.742 2.212 1.235l1.655-1.652a13.203 13.203 0 0 0-2.96-1.712l-.023-.008Zm-6.284 2.268A9.929 9.929 0 0 0 7.86 6.104a.44.44 0 0 1-.579-.035h-.001l-2.27-2.265a.438.438 0 0 1 .047-.662A14.052 14.052 0 0 1 8.646.991a14.023 14.023 0 0 1 4.032-.992.438.438 0 0 1 .475.396l.002.04h.002V3.64a.44.44 0 0 1-.4.437Zm-2.911-.131c.771-.32 1.586-.553 2.432-.687V.923A13.111 13.111 0 0 0 5.976 3.53l1.656 1.652a10.85 10.85 0 0 1 2.214-1.236Zm-3.747 3.92a9.886 9.886 0 0 0-2.012 4.874.439.439 0 0 1-.436.384H.44a.438.438 0 0 1-.432-.519 13.91 13.91 0 0 1 1-4.002V8.6a14.013 14.013 0 0 1 2.16-3.577.44.44 0 0 1 .617-.058c.012.009.022.019.032.028l2.27 2.266c.167.166.171.435.013.606ZM3.958 9.819c.327-.786.744-1.527 1.238-2.208L3.541 5.96a13.192 13.192 0 0 0-1.725 2.977 13.034 13.034 0 0 0-.888 3.312H3.27c.136-.845.369-1.657.689-2.429Zm20.89-4.779a14.03 14.03 0 0 1 2.146 3.561c.524 1.265.87 2.624 1.003 4.046a.438.438 0 0 1-.436.476v.001H24.35a.439.439 0 0 1-.438-.398 9.846 9.846 0 0 0-.678-2.572h-.002a9.954 9.954 0 0 0-1.352-2.316.436.436 0 0 1 .035-.577l-.001-.001 2.271-2.267a.44.44 0 0 1 .663.047Zm1.336 3.894a13.125 13.125 0 0 0-1.726-2.974L22.803 7.61c.496.682.913 1.422 1.239 2.208v.002c.32.77.553 1.583.688 2.427h2.342a13.095 13.095 0 0 0-.888-3.314Zm1.809 6.393a13.99 13.99 0 0 1-4.535 9.019A14.023 14.023 0 0 1 14 27.995c-3.641 0-6.96-1.382-9.458-3.65a13.988 13.988 0 0 1-4.539-9.061.437.437 0 0 1 .436-.477v-.002H3.65a.44.44 0 0 1 .437.399 9.944 9.944 0 0 0 3.3 6.233A9.962 9.962 0 0 0 14 23.932a9.965 9.965 0 0 0 6.611-2.494 9.942 9.942 0 0 0 3.302-6.246.438.438 0 0 1 .436-.385h3.212a.44.44 0 0 1 .432.52Zm-5.125 8.371a13.125 13.125 0 0 0 4.204-8.014H24.73a10.823 10.823 0 0 1-3.54 6.409A10.837 10.837 0 0 1 14 24.809a10.834 10.834 0 0 1-7.191-2.716 10.823 10.823 0 0 1-3.54-6.41H.93a13.124 13.124 0 0 0 4.203 8.015A13.147 13.147 0 0 0 14 27.119a13.15 13.15 0 0 0 8.868-3.421Z"/><path d="M17.052 12.754a3.27 3.27 0 0 1-1.838 4.257 3.285 3.285 0 0 1-4.267-1.834 3.27 3.27 0 0 1 1.838-4.257 3.282 3.282 0 0 1 4.267 1.834Zm-.84 2.161a2.396 2.396 0 0 0-1.26-3.157 2.402 2.402 0 0 0-3.164 1.256 2.398 2.398 0 0 0 1.259 3.158 2.409 2.409 0 0 0 3.164-1.257Z"/><path d="m15.7 11.299 5.556-1.136a.827.827 0 0 1 .584.098.889.889 0 0 1 .377.442.893.893 0 0 1 .03.578.829.829 0 0 1-.357.472l-4.84 2.999a.44.44 0 0 1-.666-.436 2.42 2.42 0 0 0-.145-1.24 2.382 2.382 0 0 0-.31-.549 2.32 2.32 0 0 0-.438-.45.438.438 0 0 1 .21-.778Zm5.702-.274-4.77.976h.001a3.29 3.29 0 0 1 .632 1.586l4.137-2.562ZM15.39 13.414a1.486 1.486 0 0 1-.838 1.937 1.493 1.493 0 0 1-1.94-.835l-.003-.005a1.479 1.479 0 0 1 .017-1.136c.15-.35.437-.642.822-.795l.005-.002a1.49 1.49 0 0 1 1.936.836Zm-.822.795a.617.617 0 0 0 .008-.473.621.621 0 0 0-1.143-.015.61.61 0 0 0 .323.81.617.617 0 0 0 .811-.322ZM7.588 12.71a.44.44 0 0 1-.86-.167 7.498 7.498 0 0 1 .509-1.597.438.438 0 0 1 .8.357c-.104.227-.192.459-.266.69a6.663 6.663 0 0 0-.183.717Zm2.086-3.634a.44.44 0 0 1-.618-.037.435.435 0 0 1 .037-.616 7.329 7.329 0 0 1 2.168-1.327 7.394 7.394 0 0 1 4.356-.348 7.442 7.442 0 0 1 3.806 2.174.437.437 0 1 1-.643.596 6.549 6.549 0 0 0-9.106-.442ZM12.016 18.68h3.967a1.496 1.496 0 0 1 1.497 1.495c0 .409-.169.782-.439 1.053v.002c-.27.27-.646.438-1.058.438h-3.967c-.41 0-.784-.168-1.056-.438l-.001-.002a1.483 1.483 0 0 1 0-2.108c.008-.01.018-.018.028-.026a1.49 1.49 0 0 1 1.029-.413Zm3.966.878h-3.966a.62.62 0 0 0-.42.164l-.016.017a.615.615 0 0 0 .435 1.052h3.967a.62.62 0 0 0 .437-.182l.001.001a.616.616 0 0 0-.438-1.052Z"/></g><defs><clipPath id="a"><path fill="#fff" d="M0 0h28v28H0z"/></clipPath></defs></svg>