<svg xmlns="http://www.w3.org/2000/svg" width="28" height="28" fill="none"><path fill="#125AA3" d="M19.848 0H3.77c-.905 0-1.641.736-1.641 1.64V7.22a.547.547 0 0 0 1.094 0V1.64c0-.302.245-.547.547-.547h16.078c.301 0 .547.245.547.547v20.343a.547.547 0 0 1-.547.547H3.77a.547.547 0 0 1-.547-.547V11.831a.547.547 0 0 0-1.094 0v10.153c0 .905.736 1.641 1.64 1.641h16.079c.904 0 1.64-.736 1.64-1.64V1.64c0-.905-.736-1.641-1.64-1.641Z"/><path fill="#125AA3" d="M3.062 9.28a.55.55 0 0 0-.773 0 .553.553 0 0 0-.16.387c0 .145.058.285.16.387a.551.551 0 0 0 .934-.387.552.552 0 0 0-.16-.386ZM5.254 24.882a.55.55 0 0 0-.773 0 .55.55 0 0 0 .387.933.548.548 0 0 0 .386-.933ZM23.133 2.19a.547.547 0 0 0-.547.548v21.437a.548.548 0 0 1-.547.547H7.055a.547.547 0 1 0 0 1.094h14.984c.905 0 1.64-.736 1.64-1.64V2.737a.547.547 0 0 0-.546-.547Z"/><path fill="#125AA3" d="M25.324 4.375a.547.547 0 0 0-.547.547v21.437a.547.547 0 0 1-.547.547H7.06a.547.547 0 0 0 0 1.094H24.23c.904 0 1.64-.736 1.64-1.64V4.921a.547.547 0 0 0-.547-.547ZM10.988 4.047h-5.25a.547.547 0 0 0-.547.547v5.25c0 .302.245.547.547.547h5.25a.547.547 0 0 0 .547-.547v-5.25a.547.547 0 0 0-.547-.547Zm-.547 5.25H6.285V5.14h4.156v4.156ZM9.23 12.873a.547.547 0 0 0-.774 0l-1.454 1.454-.676-.676a.547.547 0 0 0-.773.774l1.062 1.062a.547.547 0 0 0 .774 0l1.84-1.84a.547.547 0 0 0 0-.774Z"/><path fill="#125AA3" d="M18.189 13.617h-6.38a.547.547 0 1 0 0 1.094h6.38a.547.547 0 1 0 0-1.094ZM17.879 4.047H14.05a.547.547 0 0 0 0 1.094h3.828a.547.547 0 0 0 0-1.094ZM17.879 6.672H14.05a.547.547 0 0 0 0 1.094h3.828a.547.547 0 0 0 0-1.094ZM17.879 9.297H14.05a.547.547 0 0 0 0 1.094h3.828a.547.547 0 1 0 0-1.094ZM9.23 17.05a.547.547 0 0 0-.774 0l-1.454 1.454-.676-.676a.547.547 0 0 0-.773.773l1.062 1.063a.547.547 0 0 0 .774 0l1.84-1.84a.547.547 0 0 0 0-.774ZM18.189 17.773h-6.38a.547.547 0 0 0 0 1.094h6.38a.547.547 0 1 0 0-1.094Z"/></svg>