<svg xmlns="http://www.w3.org/2000/svg" width="28" height="28" fill="none"><g fill="#125AA3" clip-path="url(#a)"><path d="M12.09 24.606c-.254 0-.424-.17-.424-.424V4.752c0-.255.17-.425.424-.425.255 0 .425.17.425.425v19.43c0 .255-.17.424-.425.424ZM5.048 17.733c-1.23 0-2.163-.933-2.163-2.163 0-1.23.933-2.164 2.163-2.164.255 0 .425.17.425.425 0 .254-.17.424-.425.424-.72 0-1.315.594-1.315 1.315s.594 1.315 1.315 1.315c.255 0 .425.17.425.424 0 .255-.17.424-.425.424ZM10.096 4.921c-.254 0-.424-.17-.424-.424 0-.721-.594-1.315-1.315-1.315s-1.315.594-1.315 1.315c0 .255-.17.424-.424.424-.255 0-.425-.17-.425-.424 0-1.23.934-2.163 2.164-2.163s2.164.933 2.164 2.163c0 .255-.17.424-.425.424ZM9.206 25.964c-.509 0-.976-.212-1.315-.552a2.001 2.001 0 0 1-.51-1.357c0-.255.213-.425.467-.382.255 0 .425.212.382.466 0 .255.085.552.255.722.17.212.424.297.721.297.594 0 1.06-.425 1.06-.976 0-.255.17-.424.425-.424.254 0 .424.17.424.424 0 .976-.848 1.782-1.909 1.782ZM7.806 13.915H7.68a1.59 1.59 0 0 1-1.06-1.909c.17-.636.678-1.06 1.357-1.103h.212c.255 0 .424.17.424.424 0 .255-.17.425-.424.425h-.17c-.254.042-.509.212-.551.509-.127.382.127.763.467.89a.46.46 0 0 1 .297.51c-.085.127-.255.254-.425.254Z"/><path d="M12.133 8.612c-.254 0-.424-.17-.424-.424v-.17c-.042-.254-.212-.509-.509-.551-.382-.127-.763.127-.89.466a.46.46 0 0 1-.51.297.46.46 0 0 1-.297-.509 1.59 1.59 0 0 1 1.91-1.06c.636.17 1.06.679 1.102 1.357v.212c.043.213-.127.382-.382.382ZM12.133 11.879c-.254 0-.424-.17-.424-.424v-.17c-.042-.255-.212-.51-.509-.552-.382-.127-.763.128-.89.467a.46.46 0 0 1-.51.297.46.46 0 0 1-.297-.51 1.59 1.59 0 0 1 1.91-1.06c.636.17 1.06.68 1.102 1.358v.212c.043.212-.127.382-.382.382ZM6.618 15.188c-.212 0-.382-.17-.424-.382-.042-.382.042-.806.297-1.103.255-.34.679-.551 1.103-.551.382-.043.764.042 1.06.296.34.255.552.68.552 1.104 0 .254-.17.424-.382.466a.462.462 0 0 1-.466-.382.605.605 0 0 0-.255-.509.479.479 0 0 0-.467-.127.661.661 0 0 0-.509.255c-.127.127-.17.296-.127.466.043.212-.127.467-.34.467h-.042ZM12.133 18.837c-.212 0-.424-.17-.424-.382-.043-.424-.34-.764-.764-.891-.509-.17-1.103.17-1.272.721-.043.212-.297.34-.51.297-.212-.042-.339-.297-.296-.51a1.883 1.883 0 0 1 2.29-1.314c.764.212 1.316.89 1.358 1.654.042.212-.127.425-.382.425Z"/><path d="M7.891 19.855c-.212 0-.424-.17-.424-.382 0-.255.17-.424.382-.467.254 0 .509-.127.678-.34.17-.211.255-.466.213-.72-.043-.51-.467-1.019-1.103-.976a.497.497 0 0 1-.467-.382c0-.255.17-.424.382-.467.976-.042 1.866.722 1.951 1.74.043.466-.085.976-.424 1.357-.212.382-.679.594-1.188.637ZM6.745 8.358c-.042 0-.127 0-.17-.043-.678-.34-1.272-.848-1.654-1.485a3.998 3.998 0 0 1-.255-4.072C5.642.72 8.145-.17 10.181.764c1.528.72 2.461 2.333 2.376 3.988 0 .254-.212.424-.466.381-.255 0-.425-.212-.382-.466a3.274 3.274 0 0 0-1.867-3.14C8.187.764 6.236 1.485 5.43 3.097a3.245 3.245 0 0 0 .212 3.224c.34.51.764.934 1.315 1.188.212.085.297.34.212.552-.127.212-.254.297-.424.297ZM9.29 27.576h-.127a3.325 3.325 0 0 1-2.29-1.06c-1.23-1.316-1.146-3.395.212-4.625.17-.17.424-.17.594.042.17.17.17.425-.043.594-.976.891-1.018 2.46-.127 3.437a2.277 2.277 0 0 0 1.697.763c.636.043 1.273-.212 1.74-.636.55-.467.848-1.23.763-1.994-.043-.212.127-.424.382-.467.254 0 .424.128.466.382.085 1.018-.297 2.037-1.018 2.715-.636.51-1.442.849-2.248.849Z"/><path d="M3.563 12.176a.506.506 0 0 1-.382-.212c-.678-1.146-.763-2.546-.254-3.691.424-.933 1.188-1.697 2.164-2.036.212-.085.466.042.551.254.085.212-.042.467-.255.552a2.816 2.816 0 0 0-1.654 1.612 3.118 3.118 0 0 0 .17 2.927.457.457 0 0 1-.128.594h-.212Z"/><path d="M5.812 21.17c-2.927 0-5.218-2.291-5.218-5.218a5.214 5.214 0 0 1 5.218-5.219c.254 0 .424.17.424.425 0 .254-.17.424-.424.424a4.363 4.363 0 0 0-4.37 4.37c0 2.46 1.91 4.37 4.37 4.37.254 0 .424.169.424.424 0 .254-.17.424-.424.424Z"/><path d="M6.152 25.03h-.043c-1.315-.17-2.376-1.06-2.757-2.29a3.233 3.233 0 0 1 .212-2.588c.085-.213.34-.297.509-.213.212.085.297.34.17.552-.297.594-.34 1.358-.128 1.951.297.934 1.103 1.613 2.079 1.698a.497.497 0 0 1 .382.466c-.043.255-.212.424-.424.424ZM12.133 24.606c-.254 0-.424-.17-.424-.424V4.752c0-.255.17-.425.424-.425.255 0 .425.17.425.425v19.43c0 .255-.17.424-.425.424Z"/><path d="M16.079 16.97h-3.946c-.254 0-.424-.17-.424-.425v-5.09c0-.255.17-.425.424-.425h3.946c.254 0 .424.17.424.425v5.09c0 .255-.17.425-.424.425Zm-3.522-.849h3.097V11.88h-3.097v4.242Z"/><path d="M16.545 19.049H12.09c-.254 0-.424-.17-.424-.425V9.376c0-.255.17-.424.424-.424h4.455c1.06 0 1.994.933 1.994 1.994v6.109c0 1.103-.891 1.994-1.994 1.994Zm-4.03-.849h4.03a1.14 1.14 0 0 0 1.145-1.145v-6.11c0-.593-.551-1.145-1.145-1.145h-4.03v8.4Z"/><path d="M22.443 14.255h-4.2c-.255 0-.425-.17-.425-.425 0-.254.17-.424.425-.424h4.2c.254 0 .424.17.424.425 0 .254-.17.424-.424.424Z"/><path d="M24.097 15.57a1.72 1.72 0 0 1-1.74-1.74c0-.975.764-1.739 1.74-1.739s1.74.764 1.74 1.74a1.72 1.72 0 0 1-1.74 1.739Zm0-2.63a.87.87 0 0 0-.891.89c0 .51.382.891.89.891a.87.87 0 0 0 .892-.89.87.87 0 0 0-.891-.891ZM15.103 9.715c-.255 0-.424-.17-.424-.424v-4.2c0-.255.17-.424.424-.424.255 0 .424.17.424.424v4.2c0 .255-.17.424-.424.424Z"/><path d="M15.103 5.176a1.72 1.72 0 0 1-1.74-1.74c0-.975.764-1.739 1.74-1.739.975 0 1.74.764 1.74 1.74a1.72 1.72 0 0 1-1.74 1.739Zm0-2.63a.87.87 0 0 0-.891.89c0 .51.382.891.89.891a.87.87 0 0 0 .892-.89.87.87 0 0 0-.891-.891ZM15.103 23.333c-.255 0-.424-.17-.424-.424v-4.2c0-.254.17-.424.424-.424.255 0 .424.17.424.424v4.2c0 .255-.17.424-.424.424Z"/><path d="M15.103 26.303a1.72 1.72 0 0 1-1.74-1.74c0-.975.764-1.739 1.74-1.739.975 0 1.74.764 1.74 1.74a1.72 1.72 0 0 1-1.74 1.739Zm0-2.63a.87.87 0 0 0-.891.89c0 .51.382.892.89.892a.87.87 0 0 0 .892-.891.87.87 0 0 0-.891-.891ZM25.666 20.491a1.72 1.72 0 0 1-1.74-1.74c0-.975.764-1.739 1.74-1.739s1.74.764 1.74 1.74a1.72 1.72 0 0 1-1.74 1.739Zm0-2.63a.87.87 0 0 0-.89.89c0 .51.381.891.89.891a.87.87 0 0 0 .891-.89.87.87 0 0 0-.89-.891Z"/><path d="M24.055 19.176h-2.716c-.254 0-.424-.17-.424-.424v-1.485h-2.46c-.255 0-.425-.17-.425-.424 0-.255.17-.425.424-.425h2.885c.255 0 .425.17.425.425v1.484h2.29c.255 0 .425.17.425.424 0 .255-.17.425-.424.425ZM25.666 10.606a1.72 1.72 0 0 1-1.74-1.74c0-.975.764-1.739 1.74-1.739s1.74.764 1.74 1.74a1.72 1.72 0 0 1-1.74 1.74Zm0-2.63a.87.87 0 0 0-.89.89c0 .51.381.892.89.892a.87.87 0 0 0 .891-.891.87.87 0 0 0-.89-.891Z"/><path d="M21.34 11.2h-3.097c-.255 0-.425-.17-.425-.424 0-.255.17-.425.425-.425h2.672V8.867c0-.255.17-.425.425-.425h2.715c.254 0 .424.17.424.425 0 .254-.17.424-.424.424h-2.291v1.485c0 .254-.17.424-.424.424Z"/></g><defs><clipPath id="a"><path fill="#fff" d="M0 0h28v28H0z"/></clipPath></defs></svg>