<svg xmlns="http://www.w3.org/2000/svg" width="28" height="28" fill="none"><g clip-path="url(#a)"><mask id="b" width="28" height="28" x="0" y="0" maskUnits="userSpaceOnUse" style="mask-type:luminance"><path fill="#fff" d="M0 0h28v28H0V0Z"/></mask><g stroke="#125AA3" stroke-linecap="round" stroke-linejoin="round" mask="url(#b)"><path stroke-miterlimit="22.926" d="M4.115 6.168a6 6 0 0 1-2.146.394c0 1.188.025 2.37.093 3.533m23.876 0c.067-1.164.093-2.345.093-3.533A6.016 6.016 0 0 1 20.016.547H7.983c0 .793-.153 1.55-.432 2.243M3.103 16.811C4.519 21.751 7.587 25.735 14 27.453c6.413-1.718 9.48-5.702 10.897-10.642"/><path stroke-miterlimit="22.926" d="M14 21.984c4.699 0 8.531-3.832 8.531-8.53 0-4.7-3.832-8.532-8.531-8.532-4.699 0-8.531 3.832-8.531 8.531 0 4.699 3.832 8.531 8.531 8.531Z"/><path stroke-miterlimit="22.926" d="M6.056 16.734H.546l1.696-3.28-1.695-3.282h5.51m15.887 0h5.51l-1.696 3.281 1.695 3.281h-5.51M14 5.113v.903M9.83 6.23l.451.782M6.777 9.283l.782.451M5.66 13.453h.902M6.777 17.623l.782-.451M9.83 20.675l.451-.78M14 21.793v-.902M18.17 20.675l-.451-.78M21.223 17.623l-.782-.451M22.34 13.453h-.902M21.223 9.283l-.782.451M18.17 6.23l-.451.782M14 14.547c.602 0 1.094-.492 1.094-1.094 0-.602-.492-1.094-1.094-1.094-.602 0-1.094.492-1.094 1.094 0 .603.492 1.094 1.094 1.094ZM14 8.203v4.156M15.094 13.453h3.062"/><path stroke-miterlimit="2.613" d="M6.186 4.837h0"/></g></g><defs><clipPath id="a"><path fill="#fff" d="M0 0h28v28H0z"/></clipPath></defs></svg>