<?xml version="1.0"?>
<svg xmlns="http://www.w3.org/2000/svg" height="512px" viewBox="0 -54 512.00046 512" width="512px"><g><path d="m5.710938 142.75.4375.207031c1.378906.652344 2.828124.957031 4.257812.957031 3.75 0 7.347656-2.121093 9.050781-5.734374 2.355469-4.996094.214844-10.957032-4.78125-13.3125l-.382812-.179688c-4.988281-2.371094-10.953125-.25-13.324219 4.742188-2.367188 4.988281-.246094 10.953124 4.742188 13.320312zm0 0" data-original="#000000" class="active-path" data-old_color="#000000" fill="#0071CE"/><path d="m506.28125 261.238281c-15.050781-7.128906-31.210938-13.535156-48.28125-19.191406v-20.191406c0-5.519531-4.480469-10-10-10-5.523438 0-10 4.480469-10 10v14.027343c-51.683594-14.769531-110.542969-23.007812-172-23.8125v-20.152343c4.46875-.058594 8.945312-.148438 13.417969-.285157 21.28125-.667968 42.257812-2.246093 62.707031-4.6875v11.5c0 5.523438 4.476562 10 10 10s10-4.476562 10-10v-14.195312c53.902344-8.058594 103.4375-22.203125 144.152344-41.492188 4.992187-2.367187 7.121094-8.328124 4.757812-13.320312-2.367187-4.992188-8.328125-7.117188-13.320312-4.753906-119.746094 56.734375-312.039063 63.136718-447.289063 14.886718-5.199219-1.859374-10.921875.855469-12.777343 6.058594-1.855469 5.203125.859374 10.921875 6.058593 12.777344 32.320313 11.53125 68.355469 20.242188 106.421875 25.898438v14.140624c0 5.523438 4.476563 10 10 10 5.523438 0 10-4.476562 10-10v-11.46875c24.730469 2.933594 50.167969 4.601563 75.871094 4.945313v20.148437c-61.457031.808594-120.316406 9.042969-172 23.8125v-14.023437c0-5.523437-4.476562-10-10-10-5.519531 0-9.996094 4.476563-9.996094 10v20.191406c-17.070312 5.652344-33.234375 12.058594-48.285156 19.1875-4.988281 2.367188-7.117188 8.328125-4.753906 13.320313 2.367187 4.988281 8.328125 7.117187 13.320312 4.753906 133.28125-63.148438 350.148438-63.148438 483.429688 0 1.386718.65625 2.84375.96875 4.277344.964844 3.742187 0 7.332031-2.109375 9.042968-5.71875 2.363282-4.992188.234375-10.953125-4.753906-13.320313zm0 0" data-original="#000000" class="active-path" data-old_color="#000000" fill="#0071CE"/><path d="m276.390625 403.996094h-40c-5.519531 0-10-4.476563-10-10v-70.289063h-5.871094c-3.722656 0-7.136719-2.070312-8.863281-5.371093-1.722656-3.300782-1.46875-7.285157.660156-10.34375l35.476563-50.957032c1.871093-2.6875 4.933593-4.289062 8.207031-4.289062s6.335938 1.601562 8.207031 4.289062l35.480469 50.957032c2.128906 3.058593 2.378906 7.042968.65625 10.34375-1.722656 3.300781-5.140625 5.371093-8.863281 5.371093h-5.089844v70.289063c0 5.523437-4.476563 10-10 10zm-30-20h20v-70.289063c0-4.253906 2.660156-7.890625 6.40625-9.332031l-16.796875-24.125-16.644531 23.902344c4.078125 1.265625 7.035156 5.066406 7.035156 9.554687zm0 0" data-original="#000000" class="active-path" data-old_color="#000000" fill="#0071CE"/><path d="m256 151.25c-3.269531 0-6.335938-1.601562-8.207031-4.289062l-35.476563-50.957032c-2.128906-3.054687-2.382812-7.042968-.65625-10.34375 1.722656-3.300781 5.136719-5.371094 8.863282-5.371094h5.871093v-70.289062c0-5.523438 4.476563-10 10-10h40c5.519531 0 10 4.476562 10 10v70.289062h5.085938c3.726562 0 7.140625 2.070313 8.863281 5.371094 1.726562 3.300782 1.472656 7.289063-.65625 10.34375l-35.480469 50.957032c-1.867187 2.6875-4.933593 4.289062-8.207031 4.289062zm-16.644531-51.40625 16.644531 23.902344 16.796875-24.121094c-3.746094-1.445312-6.40625-5.082031-6.40625-9.335938v-70.289062h-20v70.289062c0 4.492188-2.957031 8.289063-7.035156 9.554688zm0 0" data-original="#000000" class="active-path" data-old_color="#000000" fill="#0071CE"/></g> </svg>
