<?xml version="1.0" encoding="utf-8"?>
<!-- Generator: Adobe Illustrator 24.1.2, SVG Export Plug-In . SVG Version: 6.00 Build 0)  -->
<svg version="1.1" id="Capa_1" xmlns="http://www.w3.org/2000/svg" xmlns:xlink="http://www.w3.org/1999/xlink" x="0px" y="0px"
	 viewBox="0 0 512 512" style="enable-background:new 0 0 512 512;" xml:space="preserve">
<style type="text/css">
	.st0{fill:#0071CE;}
</style>
<g>
	<g>
		<g>
			<polygon class="st0" points="307.6,255.6 414.4,323.2 414.4,185.2"/>
		</g>
	</g>
	<g>
		<g>
			<polygon class="st0" points="97.6,185.2 97.6,323.2 204.4,255.6"/>
		</g>
	</g>
	<g>
		<g>
			<path class="st0" d="M394.6,145.1H117.4c-9.9,0-17.7,7.4-19.2,16.9l157.8,104l157.8-104C412.3,152.4,404.5,145.1,394.6,145.1z"/>
		</g>
	</g>
	<g>
		<g>
			<path class="st0" d="M289.5,267.6l-28,18.5c-1.7,1.1-3.5,1.6-5.4,1.6s-3.8-0.5-5.4-1.6l-28-18.5L98.2,346.2
				c1.5,9.4,9.3,16.7,19.2,16.7h277.2c9.8,0,17.6-7.3,19.2-16.7L289.5,267.6z"/>
		</g>
	</g>
</g>
<g>
	<path class="st0" d="M256,12c32.9,0,64.9,6.4,95,19.2c29.1,12.3,55.1,29.9,77.6,52.3c22.4,22.4,40,48.5,52.3,77.6
		c12.7,30.1,19.2,62,19.2,95s-6.4,64.9-19.2,95c-12.3,29.1-29.9,55.1-52.3,77.6c-22.4,22.4-48.5,40-77.6,52.3
		c-30.1,12.7-62,19.2-95,19.2s-64.9-6.4-95-19.2c-29.1-12.3-55.1-29.9-77.6-52.3c-22.4-22.4-40-48.5-52.3-77.6
		c-12.7-30.1-19.2-62-19.2-95s6.4-64.9,19.2-95c12.3-29.1,29.9-55.1,52.3-77.6c22.4-22.4,48.5-40,77.6-52.3
		C191.1,18.4,223.1,12,256,12 M256,0C114.6,0,0,114.6,0,256s114.6,256,256,256s256-114.6,256-256S397.4,0,256,0L256,0z"/>
</g>
</svg>
