<?xml version="1.0" encoding="utf-8"?>
<!-- Generator: Adobe Illustrator 24.1.0, SVG Export Plug-In . SVG Version: 6.00 Build 0)  -->
<svg version="1.1" id="Capa_1" xmlns="http://www.w3.org/2000/svg" xmlns:xlink="http://www.w3.org/1999/xlink" x="0px" y="0px"
	 viewBox="0 0 32 32" style="enable-background:new 0 0 32 32;" xml:space="preserve">
<style type="text/css">
	.st0{fill:#0071ce;}
</style>
<g>
	<g>
		<path class="st0" d="M19.58,17c-0.57,0-1.1,0.31-1.37,0.81l-3.23,5.94c-0.25,0.47-0.25,1.02,0,1.49l3.23,5.94
			c0.27,0.5,0.8,0.82,1.37,0.82h6.3c0.57,0,1.1-0.31,1.37-0.82l3.23-5.94c0.25-0.47,0.25-1.03,0-1.49l-3.23-5.94
			c-0.27-0.5-0.8-0.81-1.37-0.81L19.58,17L19.58,17z M26.46,26.85C25.7,28.18,24.27,29,22.74,29h0c-1.54,0-2.96-0.82-3.73-2.15
			l-0.11-0.19c-0.77-1.33-0.77-2.97,0-4.3L19,22.15C19.77,20.82,21.2,20,22.73,20h0c1.54,0,2.96,0.82,3.73,2.15l0.11,0.19
			c0.77,1.33,0.77,2.97,0,4.3L26.46,26.85z"/>
	</g>
</g>
<path class="st0" d="M4.79,7.97c-0.57,0-1.1,0.31-1.37,0.81l-3.23,5.94c-0.25,0.47-0.25,1.02,0,1.49l3.23,5.94
	c0.27,0.5,0.8,0.82,1.37,0.82h6.3c0.57,0,1.1-0.31,1.37-0.82l3.23-5.94c0.25-0.47,0.25-1.03,0-1.49l-3.23-5.94
	c-0.27-0.5-0.8-0.81-1.37-0.81L4.79,7.97L4.79,7.97z M11.67,17.82c-0.77,1.33-2.19,2.15-3.73,2.15h0c-1.54,0-2.96-0.82-3.73-2.15
	L4.1,17.62c-0.77-1.33-0.77-2.97,0-4.3l0.11-0.19c0.77-1.33,2.19-2.15,3.73-2.15h0c1.54,0,2.96,0.82,3.73,2.15l0.11,0.19
	c0.77,1.33,0.77,2.97,0,4.3L11.67,17.82z"/>
<path class="st0" d="M19.58,0c-0.57,0-1.1,0.31-1.37,0.81l-3.23,5.94c-0.25,0.47-0.25,1.02,0,1.49l3.23,5.94
	c0.27,0.5,0.8,0.82,1.37,0.82h6.3c0.57,0,1.1-0.31,1.37-0.82l3.23-5.94c0.25-0.47,0.25-1.03,0-1.49l-3.23-5.94
	C26.98,0.31,26.46,0,25.88,0L19.58,0L19.58,0z M26.46,9.85C25.69,11.18,24.27,12,22.73,12h0c-1.54,0-2.96-0.82-3.73-2.15l-0.11-0.19
	c-0.77-1.33-0.77-2.97,0-4.3L19,5.16C19.77,3.82,21.19,3,22.73,3h0c1.54,0,2.96,0.82,3.73,2.15l0.11,0.19c0.77,1.33,0.77,2.97,0,4.3
	L26.46,9.85z"/>
</svg>
