<?xml version="1.0" encoding="iso-8859-1"?>
<!-- Generator: Adobe Illustrator 19.0.0, SVG Export Plug-In . SVG Version: 6.00 Build 0)  -->
<svg fill="#0071ce" version="1.1" id="Capa_1" xmlns="http://www.w3.org/2000/svg" xmlns:xlink="http://www.w3.org/1999/xlink" x="0px" y="0px"
	 viewBox="0 0 512 512" style="enable-background:new 0 0 512 512;" xml:space="preserve">
<g>
	<g>
		<rect x="202.424" y="150.267" width="120.246" height="52.638"/>
	</g>
</g>
<g>
	<g>
		<path d="M202.425,232.959v218.915c0,33.154,26.972,60.126,60.125,60.126c33.154,0,60.126-26.972,60.126-60.126V232.959H202.425z"
			/>
	</g>
</g>
<g>
	<g>
		<path d="M399.289,0.03l-3.523,1.29l-47.425,17.354l-0.818-0.412L311.333,0.03L217.455,0C135.783,0,65.753,58.211,50.94,138.412
			l-7.171,38.823c0,0,45.184-40.932,54.862-47.015c26.372-16.576,75.154-22.045,103.793-9.587l120.251-0.348l25.651-18.667
			l50.839,18.663h69.065V0.03H399.289z"/>
	</g>
</g>
</svg>
