<?xml version="1.0" encoding="utf-8"?>
<!-- Generator: Adobe Illustrator 24.1.0, SVG Export Plug-In . SVG Version: 6.00 Build 0)  -->
<svg version="1.1" id="Capa_1" xmlns="http://www.w3.org/2000/svg" xmlns:xlink="http://www.w3.org/1999/xlink" x="0px" y="0px"
	 viewBox="0 0 512 512" style="enable-background:new 0 0 512 512;" xml:space="preserve">
<style type="text/css">
	.st0{fill:#0071ce;}
</style>
<g>
	<g>
		<path d="M477.87,102.4c-18.83,0-34.13,15.31-34.13,34.13s15.31,34.13,34.13,34.13S512,155.36,512,136.53
			C512,117.71,496.69,102.4,477.87,102.4z M477.87,153.6c-9.41,0-17.07-7.65-17.07-17.07c0-9.41,7.65-17.07,17.07-17.07
			s17.07,7.65,17.07,17.07C494.93,145.95,487.28,153.6,477.87,153.6z"/>
	</g>
</g>
<g>
	<g>
		<path d="M34.13,384C15.31,384,0,399.31,0,418.13s15.31,34.13,34.13,34.13c18.83,0,34.13-15.31,34.13-34.13S52.96,384,34.13,384z
			 M34.13,435.2c-9.41,0-17.07-7.65-17.07-17.07s7.65-17.07,17.07-17.07c9.41,0,17.07,7.65,17.07,17.07S43.55,435.2,34.13,435.2z"/>
	</g>
</g>
<g>
	<g>
		<path d="M461.32,113.19L387.7,77.64c-4.25-2.06-9.34-0.26-11.39,3.98c-2.05,4.24-0.27,9.34,3.98,11.39l73.62,35.54
			c1.2,0.58,2.46,0.85,3.7,0.85c3.17,0,6.22-1.78,7.69-4.83C467.35,120.34,465.56,115.23,461.32,113.19z"/>
	</g>
</g>
<g>
	<g>
		<path d="M384,443.73c-18.83,0-34.13,15.31-34.13,34.13S365.17,512,384,512s34.13-15.31,34.13-34.13S402.83,443.73,384,443.73z
			 M384,494.93c-9.41,0-17.07-7.65-17.07-17.07s7.65-17.07,17.07-17.07s17.07,7.65,17.07,17.07S393.41,494.93,384,494.93z"/>
	</g>
</g>
<g>
	<g>
		<path d="M367.45,454.52l-73.62-35.54c-4.25-2.06-9.34-0.27-11.39,3.98c-2.05,4.24-0.27,9.34,3.98,11.39l73.62,35.54
			c1.2,0.58,2.46,0.85,3.7,0.85c3.17,0,6.22-1.77,7.69-4.83C373.48,461.67,371.7,456.57,367.45,454.52z"/>
	</g>
</g>
<g>
	<g>
		<path d="M256,230.4c-18.82,0-34.13,15.31-34.13,34.13c0,18.83,15.31,34.13,34.13,34.13c18.83,0,34.13-15.31,34.13-34.13
			S274.83,230.4,256,230.4z M256,281.6c-9.41,0-17.07-7.65-17.07-17.07c0-9.41,7.65-17.07,17.07-17.07
			c9.41,0,17.07,7.65,17.07,17.07S265.41,281.6,256,281.6z"/>
	</g>
</g>
<g>
	<g>
		<path d="M241,242.14l-56.55-44.07c-3.72-2.88-9.08-2.24-11.98,1.49c-2.89,3.72-2.24,9.08,1.49,11.98l56.55,44.07
			c1.56,1.21,3.4,1.8,5.24,1.8c2.54,0,5.05-1.13,6.74-3.29C245.38,250.4,244.72,245.04,241,242.14z"/>
	</g>
</g>
<g>
	<g>
		<path d="M409.6,221.87c-51.76,0-93.87,42.11-93.87,93.87s42.11,93.87,93.87,93.87s93.87-42.11,93.87-93.87
			S461.36,221.87,409.6,221.87z M409.6,392.53c-42.35,0-76.8-34.45-76.8-76.8s34.45-76.8,76.8-76.8s76.8,34.45,76.8,76.8
			S451.95,392.53,409.6,392.53z"/>
	</g>
</g>
<g>
	<g>
		<path class="st0" d="M409.6,256c-18.83,0-34.13,15.31-34.13,34.13c0,18.83,15.31,34.13,34.13,34.13
			c18.83,0,34.13-15.31,34.13-34.13S428.42,256,409.6,256z M409.6,307.2c-9.41,0-17.07-7.65-17.07-17.07
			c0-9.41,7.65-17.07,17.07-17.07c9.41,0,17.07,7.65,17.07,17.07C426.67,299.55,419.01,307.2,409.6,307.2z"/>
	</g>
</g>
<g>
	<g>
		<path class="st0" d="M434.36,341.33h-49.51c-14.58,0-26.45,11.55-26.45,25.73v22.49c0,3.05,1.62,5.86,4.26,7.39
			c14.3,8.28,30.53,12.65,46.94,12.65s32.64-4.38,46.94-12.65c2.64-1.52,4.26-4.34,4.26-7.38v-22.49
			C460.8,352.88,448.94,341.33,434.36,341.33z M443.73,384.47c-21.24,10.58-47.03,10.58-68.27,0v-17.4c0-4.78,4.21-8.67,9.38-8.67
			h49.51c5.17,0,9.38,3.89,9.38,8.67L443.73,384.47L443.73,384.47z"/>
	</g>
</g>
<g>
	<g>
		<path d="M204.8,324.27c-51.76,0-93.87,42.11-93.87,93.87S153.04,512,204.8,512s93.87-42.11,93.87-93.87
			S256.55,324.27,204.8,324.27z M204.8,494.93c-42.35,0-76.8-34.45-76.8-76.8s34.45-76.8,76.8-76.8s76.8,34.45,76.8,76.8
			S247.15,494.93,204.8,494.93z"/>
	</g>
</g>
<g>
	<g>
		<path class="st0" d="M204.8,358.4c-18.82,0-34.13,15.31-34.13,34.13c0,18.83,15.31,34.13,34.13,34.13s34.13-15.31,34.13-34.13
			C238.93,373.71,223.62,358.4,204.8,358.4z M204.8,409.6c-9.41,0-17.07-7.65-17.07-17.07c0-9.41,7.65-17.07,17.07-17.07
			c9.41,0,17.07,7.65,17.07,17.07S214.21,409.6,204.8,409.6z"/>
	</g>
</g>
<g>
	<g>
		<path class="st0" d="M229.55,443.73h-49.51c-14.58,0-26.44,11.55-26.44,25.73v22.49c0,3.05,1.62,5.86,4.26,7.39
			c14.3,8.28,30.53,12.65,46.94,12.65s32.64-4.38,46.94-12.65c2.64-1.52,4.26-4.34,4.26-7.38v-22.49
			C256,455.28,244.14,443.73,229.55,443.73z M238.93,486.87c-21.24,10.58-47.03,10.58-68.27,0v-17.4c0-4.78,4.21-8.67,9.38-8.67
			h49.51c5.17,0,9.38,3.89,9.38,8.67L238.93,486.87L238.93,486.87z"/>
	</g>
</g>
<g>
	<g>
		<path d="M93.87,110.93C42.11,110.93,0,153.04,0,204.8s42.11,93.87,93.87,93.87s93.87-42.11,93.87-93.87
			C187.73,153.04,145.62,110.93,93.87,110.93z M93.87,281.6c-42.35,0-76.8-34.45-76.8-76.8S51.52,128,93.87,128
			s76.8,34.45,76.8,76.8C170.67,247.15,136.22,281.6,93.87,281.6z"/>
	</g>
</g>
<g>
	<g>
		<path class="st0" d="M93.87,145.07c-18.83,0-34.13,15.31-34.13,34.13s15.31,34.13,34.13,34.13c18.83,0,34.13-15.31,34.13-34.13
			S112.69,145.07,93.87,145.07z M93.87,196.27c-9.41,0-17.07-7.65-17.07-17.07s7.65-17.07,17.07-17.07
			c9.41,0,17.07,7.65,17.07,17.07S103.28,196.27,93.87,196.27z"/>
	</g>
</g>
<g>
	<g>
		<path class="st0" d="M118.62,230.4H69.11c-14.58,0-26.44,11.55-26.44,25.73v22.49c0,3.05,1.62,5.86,4.26,7.39
			c14.3,8.28,30.53,12.65,46.94,12.65s32.64-4.38,46.94-12.65c2.64-1.52,4.26-4.34,4.26-7.38v-22.49
			C145.07,241.95,133.21,230.4,118.62,230.4z M128,273.54c-21.24,10.58-47.03,10.58-68.27,0v-17.4c0-4.78,4.21-8.67,9.38-8.67h49.51
			c5.17,0,9.38,3.89,9.38,8.67L128,273.54L128,273.54z"/>
	</g>
</g>
<g>
	<g>
		<path d="M407.89,225.29l-51.2-68.27c-2.83-3.78-8.17-4.52-11.95-1.71c-3.77,2.82-4.53,8.18-1.71,11.94l51.2,68.27
			c1.68,2.24,4.24,3.41,6.83,3.41c1.77,0,3.58-0.55,5.11-1.71C409.96,234.4,410.72,229.05,407.89,225.29z"/>
	</g>
</g>
<g>
	<g>
		<path d="M298.67,0c-51.75,0-93.87,42.11-93.87,93.87s42.11,93.87,93.87,93.87s93.87-42.11,93.87-93.87
			C392.53,42.11,350.42,0,298.67,0z M298.67,170.67c-42.35,0-76.8-34.45-76.8-76.8s34.45-76.8,76.8-76.8s76.8,34.45,76.8,76.8
			C375.47,136.22,341.02,170.67,298.67,170.67z"/>
	</g>
</g>
<g>
	<g>
		<path class="st0" d="M298.67,34.13c-18.83,0-34.13,15.31-34.13,34.13s15.31,34.13,34.13,34.13s34.13-15.31,34.13-34.13
			S317.49,34.13,298.67,34.13z M298.67,85.33c-9.41,0-17.07-7.65-17.07-17.07c0-9.41,7.65-17.07,17.07-17.07s17.07,7.65,17.07,17.07
			C315.73,77.68,308.08,85.33,298.67,85.33z"/>
	</g>
</g>
<g>
	<g>
		<path class="st0" d="M323.42,119.47h-49.51c-14.58,0-26.45,11.55-26.45,25.73v22.49c0,3.05,1.62,5.86,4.26,7.39
			c14.3,8.28,30.53,12.65,46.94,12.65s32.64-4.38,46.94-12.65c2.64-1.52,4.26-4.34,4.26-7.38V145.2
			C349.87,131.01,338.01,119.47,323.42,119.47z M332.8,162.6c-21.24,10.58-47.03,10.58-68.27,0v-17.4c0-4.78,4.21-8.67,9.38-8.67
			h49.51c5.17,0,9.38,3.89,9.38,8.67L332.8,162.6L332.8,162.6z"/>
	</g>
</g>
<g>
	<g>
		<path d="M219.83,88.31c-3.06-3.57-8.45-3.99-12.03-0.93l-59.14,50.6c-3.58,3.06-4,8.45-0.94,12.03c1.69,1.97,4.08,2.99,6.49,2.99
			c1.96,0,3.93-0.67,5.55-2.06l59.14-50.6C222.47,97.28,222.89,91.89,219.83,88.31z"/>
	</g>
</g>
<g>
	<g>
		<path d="M337.86,343.95c-2.83-3.77-8.17-4.53-11.95-1.71l-47.67,35.75c-3.77,2.83-4.53,8.17-1.71,11.94
			c1.68,2.24,4.24,3.41,6.83,3.41c1.78,0,3.58-0.56,5.11-1.71l47.67-35.75C339.92,353.07,340.68,347.72,337.86,343.95z"/>
	</g>
</g>
<g>
	<g>
		<path d="M119.47,409.6H59.73c-4.71,0-8.53,3.81-8.53,8.53s3.82,8.53,8.53,8.53h59.73c4.71,0,8.53-3.81,8.53-8.53
			S124.18,409.6,119.47,409.6z"/>
	</g>
</g>
<g>
	<g>
		<path d="M93.87,0C75.04,0,59.73,15.31,59.73,34.13c0,18.83,15.31,34.13,34.13,34.13c18.82,0,34.13-15.31,34.13-34.13
			C128,15.31,112.69,0,93.87,0z M93.87,51.2c-9.41,0-17.07-7.65-17.07-17.07c0-9.41,7.65-17.07,17.07-17.07
			c9.41,0,17.07,7.65,17.07,17.07C110.93,43.55,103.28,51.2,93.87,51.2z"/>
	</g>
</g>
<g>
	<g>
		<path d="M93.87,51.2c-4.71,0-8.53,3.81-8.53,8.53v59.73c0,4.72,3.82,8.53,8.53,8.53s8.53-3.81,8.53-8.53V59.73
			C102.4,55.01,98.58,51.2,93.87,51.2z"/>
	</g>
</g>
</svg>
