<svg id="Layer_3" fill="#0071ce" enable-background="new 0 0 64 64" height="512" viewBox="0 0 64 64" width="512" xmlns="http://www.w3.org/2000/svg"><path d="m26.379 2.5h4.243v2h-4.243z" transform="matrix(.707 -.707 .707 .707 5.873 21.178)"/><path d="m27.5 10.379h2v4.243h-2z" transform="matrix(.707 -.707 .707 .707 -.491 23.814)"/><path d="m28 7h4v2h-4z"/><path d="m24 46.414-.586.586c-.644.645-1.501 1-2.414 1s-1.77-.355-2.415-1l-.585-.586c-.534-.535-1.466-.535-2 0l-.586.586c-1.288 1.289-3.54 1.289-4.829 0l-.585-.586c-.534-.535-1.466-.535-2 0l-1 1v8.586c0 .552.449 1 1 1h19v-9.586l-1-1c-.534-.535-1.466-.535-2 0z"/><path d="m27 40c0-1.654 1.346-3 3-3h1v-2c0-7.72-6.28-14-14-14s-14 6.28-14 14v23c0 1.654 1.346 3 3 3h21.184c-.112-.314-.184-.648-.184-1v-1h-19c-1.654 0-3-1.346-3-3v-20c0-.553.448-1 1-1h19v2h-18v7.666c1.315-.932 3.253-.828 4.415.334l.585.586c.534.535 1.466.535 2 0l.586-.586c1.288-1.289 3.54-1.289 4.829 0l.585.586c.534.535 1.466.535 2 0l.586-.586c1.161-1.162 3.098-1.266 4.414-.334z"/><path d="m11 15v5.178c1.855-.754 3.878-1.178 6-1.178s4.145.424 6 1.178v-5.178z"/><path d="m21 11h-1c-1.654 0-3-1.346-3-3s1.346-3 3-3h1v-2h-8v10h8z"/><path d="m40 33h10v4h-10z"/><path d="m19 8c0 .551.449 1 1 1h1v-2h-1c-.551 0-1 .449-1 1z"/><path d="m33 57h24v-12h-24zm9-7h2v-2h2v2h2v2h-2v2h-2v-2h-2z"/><path d="m30 39c-.551 0-1 .448-1 1v20c0 .552.449 1 1 1h1 29c.551 0 1-.448 1-1v-20c0-.552-.449-1-1-1zm29 19c0 .553-.448 1-1 1h-26c-.552 0-1-.447-1-1v-14c0-.553.448-1 1-1h26c.552 0 1 .447 1 1z"/><path d="m44 50h2v2h-2z"/><path d="m54 6c1.889-.63 3.37-2.111 4-4 .63 1.889 2.111 3.37 4 4-1.889.63-3.37 2.111-4 4-.63-1.889-2.111-3.37-4-4z"/><path d="m34 20c1.889-.63 3.37-2.111 4-4 .63 1.889 2.111 3.37 4 4-1.889.63-3.37 2.111-4 4-.63-1.889-2.111-3.37-4-4z"/></svg>