<?xml version="1.0" encoding="utf-8"?>
<!-- Generator: Adobe Illustrator 24.1.2, SVG Export Plug-In . SVG Version: 6.00 Build 0)  -->
<svg version="1.1" id="Capa_1" xmlns="http://www.w3.org/2000/svg" xmlns:xlink="http://www.w3.org/1999/xlink" x="0px" y="0px"
	 viewBox="0 0 512 512" style="enable-background:new 0 0 512 512;" xml:space="preserve">
<style type="text/css">
	.st0{fill:#0071CE;}
</style>
<g>
	<g>
		<g>
			<path class="st0" d="M405.9,323.2l-39.3-39.3c-10.5-10.5-28.8-10.5-39.3,0l-6.5,6.5l78.6,78.6l6.5-6.5
				C416.7,351.6,416.7,334,405.9,323.2z"/>
		</g>
	</g>
	<g>
		<g>
			<path class="st0" d="M307.3,303.2c-8.3,6.4-20.1,6.1-27.6-1.4L202,224c-7.6-7.6-7.8-19.4-1.4-27.6l-78.4-78.4
				c-33.7,39.3-32.4,98.5,4.8,135.7l122.9,122.9c35.7,35.7,94.2,40.4,135.7,4.8L307.3,303.2z"/>
		</g>
	</g>
	<g>
		<g>
			<path class="st0" d="M219.9,137.2l-39.3-39.3c-10.5-10.5-28.8-10.5-39.3,0l-6.5,6.5l78.6,78.6l6.5-6.5
				C230.8,165.6,230.7,148,219.9,137.2z"/>
		</g>
	</g>
</g>
<g>
	<path class="st0" d="M256,12c32.9,0,64.9,6.4,95,19.2c29.1,12.3,55.1,29.9,77.6,52.3c22.4,22.4,40,48.5,52.3,77.6
		c12.7,30.1,19.2,62,19.2,95s-6.4,64.9-19.2,95c-12.3,29.1-29.9,55.1-52.3,77.6c-22.4,22.4-48.5,40-77.6,52.3
		c-30.1,12.7-62,19.2-95,19.2s-64.9-6.4-95-19.2c-29.1-12.3-55.1-29.9-77.6-52.3c-22.4-22.4-40-48.5-52.3-77.6
		c-12.7-30.1-19.2-62-19.2-95s6.4-64.9,19.2-95c12.3-29.1,29.9-55.1,52.3-77.6c22.4-22.4,48.5-40,77.6-52.3
		C191.1,18.5,223.1,12,256,12 M256,0C114.6,0,0,114.6,0,256s114.6,256,256,256s256-114.6,256-256S397.4,0,256,0L256,0z"/>
</g>
</svg>
