<?xml version="1.0" standalone="no"?>
<!DOCTYPE svg PUBLIC "-//W3C//DTD SVG 1.1//EN" "http://www.w3.org/Graphics/SVG/1.1/DTD/svg11.dtd" >
<svg xmlns="http://www.w3.org/2000/svg" xmlns:xlink="http://www.w3.org/1999/xlink" version="1.1">
<metadata>
Created by FontForge 20170812 at Sun Sep  8 02:20:37 2019
 By www-data
Copyright 2019 The Inter project authors
</metadata>
<defs>
<font id="Inter-Italic" horiz-adv-x="0" >
  <font-face 
    font-family="Inter"
    font-weight="400"
    font-style="italic"
    font-stretch="normal"
    units-per-em="2816"
    panose-1="2 11 5 2 3 0 0 0 0 4"
    ascent="2252"
    descent="-564"
    x-height="1536"
    cap-height="2048"
    bbox="-2096 -900 7316 3072"
    underline-thickness="192"
    underline-position="-464"
    slope="-9.39999"
    stemh="220"
    stemv="236"
    unicode-range="U+0020-1F852"
  />
<missing-glyph horiz-adv-x="2800" 
d="M248 -640v512h2304v-512h-2304zM248 64v512h2304v-512h-2304zM248 768v512h2304v-512h-2304zM248 1472v512h2304v-512h-2304zM248 2176v512h2304v-512h-2304z" />
    <glyph glyph-name="uni27F5" unicode="&#x3c;&#x2014;&#x2014;" horiz-adv-x="3776" 
d="M1046 0l-748 896l1046 896l142 -164l-728 -622h2704l-38 -220h-2752l540 -648z" />
    <glyph glyph-name="u1F850" unicode="&#x3c;&#x2014;&#x2014;&#x2014;" horiz-adv-x="7552" 
d="M1046 0l-748 896l1046 896l142 -164l-728 -622h6480l-38 -220h-6528l540 -648z" />
    <glyph glyph-name="uni27F8" unicode="&#x3c;&#x3d;&#x3d;" horiz-adv-x="3776" 
d="M1046 0l-748 896l1046 896l142 -164l-450 -384h2464l-36 -220h-2686l-178 -152l87 -104h2735l-36 -220h-2516l342 -410z" />
    <glyph glyph-name="uni2192" unicode="&#x2d;&#x3e;" horiz-adv-x="2688" 
d="M1386 0l-142 164l728 622h-1616l38 220h1664l-540 648l166 138l748 -896z" />
    <glyph glyph-name="uni27F6" unicode="&#x2d;&#x2014;&#x3e;" horiz-adv-x="3776" 
d="M2474 0l-142 164l728 622h-2704l38 220h2752l-540 648l166 138l748 -896z" />
    <glyph glyph-name="u1F852" unicode="&#x2d;&#x2014;&#x2014;&#x3e;" horiz-adv-x="7552" 
d="M6250 0l-142 164l728 622h-6480l38 220h6528l-540 648l166 138l748 -896z" />
    <glyph glyph-name="uni21D2" unicode="&#x3d;&#x3e;" horiz-adv-x="2688" 
d="M1386 0l-140 166l448 382h-1378l36 220h1600l178 152l-87 104h-1649l36 220h1430l-342 410l166 138l748 -896z" />
    <glyph glyph-name="uni27F9" unicode="&#x3d;&#x3d;&#x3e;" horiz-adv-x="3776" 
d="M2474 0l-140 166l448 382h-2466l36 220h2688l178 152l-87 104h-2737l36 220h2518l-342 410l166 138l748 -896z" />
    <glyph glyph-name="uni2194" unicode="&#x3c;&#x2192;" horiz-adv-x="3776" 
d="M1046 0l-748 896l1046 896l142 -164l-728 -622h2388l-540 648l166 138l748 -896l-1046 -896l-142 164l728 622h-2388l540 -648z" />
    <glyph glyph-name="uni27F7" unicode="&#x3c;&#x27f6;" horiz-adv-x="4928" 
d="M1046 0l-748 896l1046 896l142 -164l-728 -622h3540l-540 648l166 138l748 -896l-1046 -896l-142 164l728 622h-3540l540 -648z" />
    <glyph glyph-name="uni21D4" unicode="&#x3c;&#x3d;&#x3e;" horiz-adv-x="3776" 
d="M2474 0l-140 166l448 382h-1912l342 -410l-166 -138l-748 896l1046 896l142 -164l-450 -384h1912l-342 410l166 138l748 -896zM687 768h2353l178 152l-87 104h-2353l-178 -152z" />
    <glyph glyph-name="uni27FA" unicode="&#x3c;&#x3d;&#x3d;&#x3e;" horiz-adv-x="4928" 
d="M3626 0l-140 166l448 382h-3064l342 -410l-166 -138l-748 896l1046 896l142 -164l-450 -384h3064l-342 410l166 138l748 -896zM687 768h3505l178 152l-87 104h-3505l-178 -152z" />
    <glyph glyph-name="uni27F5.case" unicode="&#xe097;&#x2014;&#x2014;" horiz-adv-x="3776" 
d="M1068 128l-748 896l1046 896l142 -164l-728 -622h2704l-38 -220h-2752l540 -648z" />
    <glyph glyph-name="u1F850.case" unicode="&#xe097;&#x2014;&#x2014;&#x2014;" horiz-adv-x="7552" 
d="M1068 128l-748 896l1046 896l142 -164l-728 -622h6480l-38 -220h-6528l540 -648z" />
    <glyph glyph-name="uni27F8.case" unicode="&#xe097;&#x3d;&#x3d;" horiz-adv-x="3776" 
d="M1066 128l-748 896l1046 896l142 -164l-450 -384h2464l-36 -220h-2686l-178 -152l87 -104h2735l-36 -220h-2516l342 -410z" />
    <glyph glyph-name="uni2192.case" unicode="&#x2d;&#xe098;" horiz-adv-x="2688" 
d="M1406 128l-142 164l728 622h-1616l38 220h1664l-540 648l166 138l748 -896z" />
    <glyph glyph-name="uni27F6.case" unicode="&#x2d;&#x2014;&#xe098;" horiz-adv-x="3776" 
d="M2792 1920l748 -896l-1046 -896l-142 164l728 622h-2704l38 220h2752l-540 648z" />
    <glyph glyph-name="u1F852.case" unicode="&#x2d;&#x2014;&#x2014;&#xe098;" horiz-adv-x="7552" 
d="M6270 128l-142 164l728 622h-6480l38 220h6528l-540 648l166 138l748 -896z" />
    <glyph glyph-name="uni21D2.case" unicode="&#x3d;&#xe098;" horiz-adv-x="2688" 
d="M1406 128l-140 166l448 382h-1378l36 220h1600l178 152l-87 104h-1649l36 220h1430l-342 410l166 138l748 -896z" />
    <glyph glyph-name="uni27F9.case" unicode="&#x3d;&#x3d;&#xe098;" horiz-adv-x="3776" 
d="M2494 128l-140 166l448 382h-2466l36 220h2688l178 152l-87 104h-2737l36 220h2518l-342 410l166 138l748 -896z" />
    <glyph glyph-name="uni21D4.case" unicode="&#xe097;&#x3d;&#x3e;" horiz-adv-x="3776" 
d="M2496 128l-140 166l448 382h-1912l342 -410l-166 -138l-748 896l1046 896l142 -164l-450 -384h1912l-342 410l166 138l748 -896zM709 896h2353l178 152l-87 104h-2353l-178 -152z" />
    <glyph glyph-name="uni27FA.case" unicode="&#xe097;&#x3d;&#x3d;&#x3e;" horiz-adv-x="4928" 
d="M3648 128l-140 166l448 382h-3064l342 -410l-166 -138l-748 896l1046 896l142 -164l-450 -384h3064l-342 410l166 138l748 -896zM709 896h3505l178 152l-87 104h-3505l-178 -152z" />
    <glyph glyph-name="uni24B6" unicode="A&#x20dd;" horiz-adv-x="3912" 
d="M1694 -900c-1070 0 -1794 868 -1618 1940c176 1054 1170 1908 2226 1908c1070 0 1796 -868 1618 -1940c-174 -1054 -1170 -1908 -2226 -1908zM1694 -668c942 0 1842 771 1997 1714c155 930 -462 1670 -1389 1670c-941 0 -1840 -771 -1997 -1714
c-153 -931 462 -1670 1389 -1670zM1196 0h-260l1092 2048h256l412 -2048h-260l-109 580h-828zM1614 800h672l-174 924h-16z" />
    <glyph glyph-name="uni24B7" unicode="B&#x20dd;" horiz-adv-x="3912" 
d="M1694 -900c-1070 0 -1794 868 -1618 1940c176 1054 1170 1908 2226 1908c1070 0 1796 -868 1618 -1940c-174 -1054 -1170 -1908 -2226 -1908zM1694 -668c942 0 1842 771 1997 1714c155 930 -462 1670 -1389 1670c-941 0 -1840 -771 -1997 -1714
c-153 -931 462 -1670 1389 -1670zM1192 0l340 2048h716c428 0 588 -244 536 -544c-44 -264 -220 -380 -400 -428l-4 -20c184 -12 380 -188 328 -512c-52 -308 -292 -544 -776 -544h-740zM1476 220h492c324 0 472 144 504 324c32 208 -104 388 -372 388h-504zM1632 1148h460
c224 0 424 140 456 356c32 180 -64 324 -336 324h-468z" />
    <glyph glyph-name="uni24B8" unicode="C&#x20dd;" horiz-adv-x="3912" 
d="M1694 -900c-1070 0 -1794 868 -1618 1940c176 1054 1170 1908 2226 1908c1070 0 1796 -868 1618 -1940c-174 -1054 -1170 -1908 -2226 -1908zM1694 -668c942 0 1842 771 1997 1714c155 930 -462 1670 -1389 1670c-941 0 -1840 -771 -1997 -1714
c-153 -931 462 -1670 1389 -1670zM2902 1408h-244c-12 284 -228 436 -492 436c-380 0 -728 -296 -816 -836c-88 -524 152 -804 516 -804c280 0 556 152 664 436h248c-148 -420 -516 -668 -920 -668c-532 0 -852 412 -744 1068c108 640 544 1036 1064 1036
c416 0 716 -248 724 -668z" />
    <glyph glyph-name="uni24B9" unicode="D&#x20dd;" horiz-adv-x="3912" 
d="M1694 -900c-1070 0 -1794 868 -1618 1940c176 1054 1170 1908 2226 1908c1070 0 1796 -868 1618 -1940c-174 -1054 -1170 -1908 -2226 -1908zM1694 -668c942 0 1842 771 1997 1714c155 930 -462 1670 -1389 1670c-941 0 -1840 -771 -1997 -1714
c-153 -931 462 -1670 1389 -1670zM1812 0h-640l340 2048h652c596 0 892 -392 784 -1036c-104 -632 -512 -1012 -1136 -1012zM1457 220h363c508 0 808 316 892 824c84 488 -104 784 -584 784h-405z" />
    <glyph glyph-name="uni24BA" unicode="E&#x20dd;" horiz-adv-x="3912" 
d="M1694 -900c-1070 0 -1794 868 -1618 1940c176 1054 1170 1908 2226 1908c1070 0 1796 -868 1618 -1940c-174 -1054 -1170 -1908 -2226 -1908zM1694 -668c942 0 1842 771 1997 1714c155 930 -462 1670 -1389 1670c-941 0 -1840 -771 -1997 -1714
c-153 -931 462 -1670 1389 -1670zM1210 0l340 2048h1236l-36 -220h-988l-116 -692h924l-36 -220h-924l-116 -696h1004l-36 -220h-1252z" />
    <glyph glyph-name="uni24BB" unicode="F&#x20dd;" horiz-adv-x="3912" 
d="M1694 -900c-1070 0 -1794 868 -1618 1940c176 1054 1170 1908 2226 1908c1070 0 1796 -868 1618 -1940c-174 -1054 -1170 -1908 -2226 -1908zM1694 -668c942 0 1842 771 1997 1714c155 930 -462 1670 -1389 1670c-941 0 -1840 -771 -1997 -1714
c-153 -931 462 -1670 1389 -1670zM1214 0l340 2048h1228l-36 -220h-980l-116 -692h888l-36 -220h-888l-152 -916h-248z" />
    <glyph glyph-name="uni24BC" unicode="G&#x20dd;" horiz-adv-x="3912" 
d="M1694 -900c-1070 0 -1794 868 -1618 1940c176 1054 1170 1908 2226 1908c1070 0 1796 -868 1618 -1940c-174 -1054 -1170 -1908 -2226 -1908zM1694 -668c942 0 1842 771 1997 1714c155 930 -462 1670 -1389 1670c-941 0 -1840 -771 -1997 -1714
c-153 -931 462 -1670 1389 -1670zM2652 1408c-40 268 -192 436 -488 436c-364 0 -724 -288 -812 -820s136 -820 516 -820c347 0 647 233 713 600h-541l40 220h780l-40 -220c-80 -508 -484 -832 -972 -832c-544 0 -844 404 -736 1052c104 648 544 1052 1068 1052
c432 0 720 -272 728 -668h-256z" />
    <glyph glyph-name="uni24BD" unicode="H&#x20dd;" horiz-adv-x="3912" 
d="M1694 -900c-1070 0 -1794 868 -1618 1940c176 1054 1170 1908 2226 1908c1070 0 1796 -868 1618 -1940c-174 -1054 -1170 -1908 -2226 -1908zM1694 -668c942 0 1842 771 1997 1714c155 930 -462 1670 -1389 1670c-941 0 -1840 -771 -1997 -1714
c-153 -931 462 -1670 1389 -1670zM1034 0l340 2048h248l-152 -912h1092l152 912h248l-340 -2048h-248l152 916h-1092l-152 -916h-248z" />
    <glyph glyph-name="uni24BE" unicode="I&#x20dd;" horiz-adv-x="3912" 
d="M1694 -900c-1070 0 -1794 868 -1618 1940c176 1054 1170 1908 2226 1908c1070 0 1796 -868 1618 -1940c-174 -1054 -1170 -1908 -2226 -1908zM1694 -668c942 0 1842 771 1997 1714c155 930 -462 1670 -1389 1670c-941 0 -1840 -771 -1997 -1714
c-153 -931 462 -1670 1389 -1670zM2292 2048l-340 -2048h-248l340 2048h248z" />
    <glyph glyph-name="uni24BF" unicode="J&#x20dd;" horiz-adv-x="3912" 
d="M1694 -900c-1070 0 -1794 868 -1618 1940c176 1054 1170 1908 2226 1908c1070 0 1796 -868 1618 -1940c-174 -1054 -1170 -1908 -2226 -1908zM1694 -668c942 0 1842 771 1997 1714c155 930 -462 1670 -1389 1670c-941 0 -1840 -771 -1997 -1714
c-153 -931 462 -1670 1389 -1670zM2386 2048h248l-244 -1472c-64 -392 -308 -604 -668 -604c-344 0 -561 195 -512 508h236c-25 -181 90 -288 280 -288c219 0 376 144 420 400z" />
    <glyph glyph-name="uni24C0" unicode="K&#x20dd;" horiz-adv-x="3912" 
d="M1694 -900c-1070 0 -1794 868 -1618 1940c176 1054 1170 1908 2226 1908c1070 0 1796 -868 1618 -1940c-174 -1054 -1170 -1908 -2226 -1908zM1694 -668c942 0 1842 771 1997 1714c155 930 -462 1670 -1389 1670c-941 0 -1840 -771 -1997 -1714
c-153 -931 462 -1670 1389 -1670zM1172 0l340 2048h248l-168 -1016h24l1088 1016h324l-1012 -924l672 -1124h-300l-552 952l-304 -288l-112 -664h-248z" />
    <glyph glyph-name="uni24C1" unicode="L&#x20dd;" horiz-adv-x="3912" 
d="M1694 -900c-1070 0 -1794 868 -1618 1940c176 1054 1170 1908 2226 1908c1070 0 1796 -868 1618 -1940c-174 -1054 -1170 -1908 -2226 -1908zM1694 -668c942 0 1842 771 1997 1714c155 930 -462 1670 -1389 1670c-941 0 -1840 -771 -1997 -1714
c-153 -931 462 -1670 1389 -1670zM1380 0l340 2048h248l-304 -1828h952l-36 -220h-1200z" />
    <glyph glyph-name="uni24C2" unicode="M&#x20dd;" horiz-adv-x="3912" 
d="M1694 -900c-1070 0 -1794 868 -1618 1940c176 1054 1170 1908 2226 1908c1070 0 1796 -868 1618 -1940c-174 -1054 -1170 -1908 -2226 -1908zM1694 -668c942 0 1842 771 1997 1714c155 930 -462 1670 -1389 1670c-941 0 -1840 -771 -1997 -1714
c-153 -931 462 -1670 1389 -1670zM1164 2048h296l416 -1700h24l976 1700h296l-340 -2048h-232l260 1556h-20l-900 -1556h-224l-380 1556h-20l-260 -1556h-232z" />
    <glyph glyph-name="uni24C3" unicode="N&#x20dd;" horiz-adv-x="3912" 
d="M1694 -900c-1070 0 -1794 868 -1618 1940c176 1054 1170 1908 2226 1908c1070 0 1796 -868 1618 -1940c-174 -1054 -1170 -1908 -2226 -1908zM1694 -668c942 0 1842 771 1997 1714c155 930 -462 1670 -1389 1670c-941 0 -1840 -771 -1997 -1714
c-153 -931 462 -1670 1389 -1670zM2980 2048l-340 -2048h-240l-848 1608h-20l-268 -1608h-248l340 2048h240l852 -1612h20l268 1612h244z" />
    <glyph glyph-name="uni24C4" unicode="O&#x20dd;" horiz-adv-x="3912" 
d="M1694 -900c-1070 0 -1794 868 -1618 1940c176 1054 1170 1908 2226 1908c1070 0 1796 -868 1618 -1940c-174 -1054 -1170 -1908 -2226 -1908zM1694 -668c942 0 1842 771 1997 1714c155 930 -462 1670 -1389 1670c-941 0 -1840 -771 -1997 -1714
c-153 -931 462 -1670 1389 -1670zM2900 1008c-108 -640 -544 -1036 -1060 -1036c-532 0 -852 412 -744 1068c108 640 544 1036 1064 1036c528 0 848 -412 740 -1068zM2664 1040c88 524 -152 804 -516 804c-380 0 -728 -296 -816 -836c-88 -524 152 -804 516 -804
c380 0 728 296 816 836z" />
    <glyph glyph-name="uni24C5" unicode="P&#x20dd;" horiz-adv-x="3912" 
d="M1694 -900c-1070 0 -1794 868 -1618 1940c176 1054 1170 1908 2226 1908c1070 0 1796 -868 1618 -1940c-174 -1054 -1170 -1908 -2226 -1908zM1694 -668c942 0 1842 771 1997 1714c155 930 -462 1670 -1389 1670c-941 0 -1840 -771 -1997 -1714
c-153 -931 462 -1670 1389 -1670zM1282 0l340 2048h692c480 0 648 -284 588 -648c-60 -360 -324 -652 -800 -652h-448l-124 -748h-248zM1691 968h439c328 0 488 188 528 432c40 248 -56 428 -388 428h-436z" />
    <glyph glyph-name="uni24C6" unicode="Q&#x20dd;" horiz-adv-x="3912" 
d="M1694 -900c-1070 0 -1794 868 -1618 1940c176 1054 1170 1908 2226 1908c1070 0 1796 -868 1618 -1940c-174 -1054 -1170 -1908 -2226 -1908zM1694 -668c942 0 1842 771 1997 1714c155 930 -462 1670 -1389 1670c-941 0 -1840 -771 -1997 -1714
c-153 -931 462 -1670 1389 -1670zM2900 1008c-60 -358 -224 -640 -447 -819l287 -381h-272l-197 264c-133 -65 -278 -100 -431 -100c-532 0 -852 412 -744 1068c108 640 544 1036 1064 1036c528 0 848 -412 740 -1068zM1840 640h272l202 -266c171 140 301 365 350 666
c88 524 -152 804 -516 804c-380 0 -728 -296 -816 -836c-88 -524 152 -804 516 -804c97 0 192 19 281 57z" />
    <glyph glyph-name="uni24C7" unicode="R&#x20dd;" horiz-adv-x="3912" 
d="M1694 -900c-1070 0 -1794 868 -1618 1940c176 1054 1170 1908 2226 1908c1070 0 1796 -868 1618 -1940c-174 -1054 -1170 -1908 -2226 -1908zM1694 -668c942 0 1842 771 1997 1714c155 930 -462 1670 -1389 1670c-941 0 -1840 -771 -1997 -1714
c-153 -931 462 -1670 1389 -1670zM1180 0l340 2048h692c480 0 652 -264 592 -628c-45 -270 -203 -484 -480 -574l324 -846h-288l-300 801c-17 -1 -34 -1 -52 -1h-447l-133 -800h-248zM1598 1024h442c328 0 480 152 520 396c40 248 -60 408 -392 408h-436z" />
    <glyph glyph-name="uni24C8" unicode="S&#x20dd;" horiz-adv-x="3912" 
d="M1694 -900c-1070 0 -1794 868 -1618 1940c176 1054 1170 1908 2226 1908c1070 0 1796 -868 1618 -1940c-174 -1054 -1170 -1908 -2226 -1908zM1694 -668c942 0 1842 771 1997 1714c155 930 -462 1670 -1389 1670c-941 0 -1840 -771 -1997 -1714
c-153 -931 462 -1670 1389 -1670zM2564 1520c0 220 -156 336 -404 336c-272 0 -476 -144 -508 -340c-36 -220 196 -300 340 -340l200 -56c200 -56 544 -180 480 -564c-56 -332 -364 -592 -836 -592c-440 0 -676 228 -644 564h256c-20 -232 180 -340 424 -340
c284 0 524 148 560 372c36 204 -144 280 -352 340l-240 72c-304 92 -476 256 -432 532c60 344 404 572 796 572c396 0 636 -232 600 -556h-240z" />
    <glyph glyph-name="uni24C9" unicode="T&#x20dd;" horiz-adv-x="3912" 
d="M1694 -900c-1070 0 -1794 868 -1618 1940c176 1054 1170 1908 2226 1908c1070 0 1796 -868 1618 -1940c-174 -1054 -1170 -1908 -2226 -1908zM1694 -668c942 0 1842 771 1997 1714c155 930 -462 1670 -1389 1670c-941 0 -1840 -771 -1997 -1714
c-153 -931 462 -1670 1389 -1670zM1358 1828l36 220h1536l-36 -220h-644l-304 -1828h-248l304 1828h-644z" />
    <glyph glyph-name="uni24CA" unicode="U&#x20dd;" horiz-adv-x="3912" 
d="M1694 -900c-1070 0 -1794 868 -1618 1940c176 1054 1170 1908 2226 1908c1070 0 1796 -868 1618 -1940c-174 -1054 -1170 -1908 -2226 -1908zM1694 -668c942 0 1842 771 1997 1714c155 930 -462 1670 -1389 1670c-941 0 -1840 -771 -1997 -1714
c-153 -931 462 -1670 1389 -1670zM2704 2048h248l-224 -1356c-70 -420 -436 -728 -918 -728s-744 308 -674 728l224 1356h248l-222 -1336c-48 -300 122 -516 464 -516s584 216 632 516z" />
    <glyph glyph-name="uni24CB" unicode="V&#x20dd;" horiz-adv-x="3912" 
d="M1694 -900c-1070 0 -1794 868 -1618 1940c176 1054 1170 1908 2226 1908c1070 0 1796 -868 1618 -1940c-174 -1054 -1170 -1908 -2226 -1908zM1694 -668c942 0 1842 771 1997 1714c155 930 -462 1670 -1389 1670c-941 0 -1840 -771 -1997 -1714
c-153 -931 462 -1670 1389 -1670zM1548 2048l324 -1724h24l892 1724h260l-1092 -2048h-256l-412 2048h260z" />
    <glyph glyph-name="uni24CC" unicode="W&#x20dd;" horiz-adv-x="3912" 
d="M1694 -900c-1070 0 -1794 868 -1618 1940c176 1054 1170 1908 2226 1908c1070 0 1796 -868 1618 -1940c-174 -1054 -1170 -1908 -2226 -1908zM1694 -668c942 0 1842 771 1997 1714c155 930 -462 1670 -1389 1670c-941 0 -1840 -771 -1997 -1714
c-153 -931 462 -1670 1389 -1670zM1110 0l-220 2048h252l152 -1668h20l712 1668h280l160 -1668h20l704 1668h252l-900 -2048h-256l-180 1632h-16l-724 -1632h-256z" />
    <glyph glyph-name="uni24CD" unicode="X&#x20dd;" horiz-adv-x="3912" 
d="M1694 -900c-1070 0 -1794 868 -1618 1940c176 1054 1170 1908 2226 1908c1070 0 1796 -868 1618 -1940c-174 -1054 -1170 -1908 -2226 -1908zM1694 -668c942 0 1842 771 1997 1714c155 930 -462 1670 -1389 1670c-941 0 -1840 -771 -1997 -1714
c-153 -931 462 -1670 1389 -1670zM1632 2048l388 -852h16l668 852h292l-812 -1024l472 -1024h-292l-388 836h-16l-668 -836h-292l832 1024l-492 1024h292z" />
    <glyph glyph-name="uni24CE" unicode="Y&#x20dd;" horiz-adv-x="3912" 
d="M1694 -900c-1070 0 -1794 868 -1618 1940c176 1054 1170 1908 2226 1908c1070 0 1796 -868 1618 -1940c-174 -1054 -1170 -1908 -2226 -1908zM1694 -668c942 0 1842 771 1997 1714c155 930 -462 1670 -1389 1670c-941 0 -1840 -771 -1997 -1714
c-153 -931 462 -1670 1389 -1670zM1308 2048h284l412 -956h24l724 956h284l-940 -1204l-140 -844h-248l140 844z" />
    <glyph glyph-name="uni24CF" unicode="Z&#x20dd;" horiz-adv-x="3912" 
d="M1694 -900c-1070 0 -1794 868 -1618 1940c176 1054 1170 1908 2226 1908c1070 0 1796 -868 1618 -1940c-174 -1054 -1170 -1908 -2226 -1908zM1694 -668c942 0 1842 771 1997 1714c155 930 -462 1670 -1389 1670c-941 0 -1840 -771 -1997 -1714
c-153 -931 462 -1670 1389 -1670zM1128 0l32 180l1376 1648h-1116l36 220h1412l-28 -180l-1380 -1648h1116l-36 -220h-1412z" />
    <glyph glyph-name="uni24EA" unicode="&#x30;&#x20dd;" horiz-adv-x="3912" 
d="M1694 -900c-1070 0 -1794 868 -1618 1940c176 1054 1170 1908 2226 1908c1070 0 1796 -868 1618 -1940c-174 -1054 -1170 -1908 -2226 -1908zM1694 -668c942 0 1842 771 1997 1714c155 930 -462 1670 -1389 1670c-941 0 -1840 -771 -1997 -1714
c-153 -931 462 -1670 1389 -1670zM1822 -28c-452 0 -645 383 -536 1052c108 664 436 1052 884 1052s651 -389 540 -1052c-112 -668 -436 -1052 -888 -1052zM1858 192c300 0 524 300 612 832s-40 836 -336 836s-520 -304 -608 -836s36 -832 332 -832z" />
    <glyph glyph-name="uni2460" unicode="&#x31;&#x20dd;" horiz-adv-x="3912" 
d="M1694 -900c-1070 0 -1794 868 -1618 1940c176 1054 1170 1908 2226 1908c1070 0 1796 -868 1618 -1940c-174 -1054 -1170 -1908 -2226 -1908zM1694 -668c942 0 1842 771 1997 1714c155 930 -462 1670 -1389 1670c-941 0 -1840 -771 -1997 -1714
c-153 -931 462 -1670 1389 -1670zM2336 2048l-340 -2048h-248l296 1788h-12l-556 -332l44 252l568 340h248z" />
    <glyph glyph-name="uni2461" unicode="&#x32;&#x20dd;" horiz-adv-x="3912" 
d="M1694 -900c-1070 0 -1794 868 -1618 1940c176 1054 1170 1908 2226 1908c1070 0 1796 -868 1618 -1940c-174 -1054 -1170 -1908 -2226 -1908zM1694 -668c942 0 1842 771 1997 1714c155 930 -462 1670 -1389 1670c-941 0 -1840 -771 -1997 -1714
c-153 -931 462 -1670 1389 -1670zM1156 0l32 180l796 740c280 260 416 400 448 588c36 216 -104 352 -328 352c-236 0 -420 -156 -460 -388h-236c60 360 380 604 740 604s568 -252 516 -568c-40 -228 -172 -404 -588 -780l-540 -492l-4 -16h952l-36 -220h-1292z" />
    <glyph glyph-name="uni2462" unicode="&#x33;&#x20dd;" horiz-adv-x="3912" 
d="M1694 -900c-1070 0 -1794 868 -1618 1940c176 1054 1170 1908 2226 1908c1070 0 1796 -868 1618 -1940c-174 -1054 -1170 -1908 -2226 -1908zM1694 -668c942 0 1842 771 1997 1714c155 930 -462 1670 -1389 1670c-941 0 -1840 -771 -1997 -1714
c-153 -931 462 -1670 1389 -1670zM1836 -28c-401 0 -658 216 -616 540h248c-18 -196 130 -320 372 -320c258 0 492 141 528 380c32 213 -103 368 -416 368h-168l36 220h156c243 0 443 146 480 372c33 197 -79 328 -304 328c-217 0 -442 -120 -480 -324h-240
c62 320 384 540 732 540c385 0 576 -268 528 -564c-36 -225 -197 -387 -412 -452v-12c252 -44 371 -249 328 -508c-57 -349 -369 -568 -772 -568z" />
    <glyph glyph-name="uni2463" unicode="&#x34;&#x20dd;" horiz-adv-x="3912" 
d="M1694 -900c-1070 0 -1794 868 -1618 1940c176 1054 1170 1908 2226 1908c1070 0 1796 -868 1618 -1940c-174 -1054 -1170 -1908 -2226 -1908zM1694 -668c942 0 1842 771 1997 1714c155 930 -462 1670 -1389 1670c-941 0 -1840 -771 -1997 -1714
c-153 -931 462 -1670 1389 -1670zM1040 420l32 204l1136 1424h300l-234 -1408h282l-36 -220h-282l-70 -420h-236l69 420h-961zM2039 640l181 1092h-16l-860 -1076v-16h695z" />
    <glyph glyph-name="uni2464" unicode="&#x35;&#x20dd;" horiz-adv-x="3912" 
d="M1694 -900c-1070 0 -1794 868 -1618 1940c176 1054 1170 1908 2226 1908c1070 0 1796 -868 1618 -1940c-174 -1054 -1170 -1908 -2226 -1908zM1694 -668c942 0 1842 771 1997 1714c155 930 -462 1670 -1389 1670c-941 0 -1840 -771 -1997 -1714
c-153 -931 462 -1670 1389 -1670zM1810 -28c-352 0 -584 228 -548 540h240c-12 -184 136 -320 344 -320c252 0 468 192 512 456c44 268 -112 468 -376 468c-124 0 -276 -44 -372 -104l-228 28l292 1008h1064l-36 -220h-856l-172 -604h12c96 68 236 116 376 116
c376 0 604 -292 536 -688c-64 -392 -396 -680 -788 -680z" />
    <glyph glyph-name="uni2465" unicode="&#x36;&#x20dd;" horiz-adv-x="3912" 
d="M1694 -900c-1070 0 -1794 868 -1618 1940c176 1054 1170 1908 2226 1908c1070 0 1796 -868 1618 -1940c-174 -1054 -1170 -1908 -2226 -1908zM1694 -668c942 0 1842 771 1997 1714c155 930 -462 1670 -1389 1670c-941 0 -1840 -771 -1997 -1714
c-153 -931 462 -1670 1389 -1670zM1840 -28c-344 3 -692 224 -564 988c120 720 460 1120 916 1120c339 0 560 -220 556 -544h-236c-7 191 -110 324 -328 324c-317 0 -572 -276 -660 -800l16 16c140 168 329 264 536 264c360 0 612 -292 544 -696
c-64 -372 -373 -676 -780 -672zM1848 192c256 0 492 216 536 484c40 244 -104 444 -348 444c-260 0 -504 -228 -544 -480c-40 -236 104 -448 356 -448z" />
    <glyph glyph-name="uni2466" unicode="&#x37;&#x20dd;" horiz-adv-x="3912" 
d="M1694 -900c-1070 0 -1794 868 -1618 1940c176 1054 1170 1908 2226 1908c1070 0 1796 -868 1618 -1940c-174 -1054 -1170 -1908 -2226 -1908zM1694 -668c942 0 1842 771 1997 1714c155 930 -462 1670 -1389 1670c-941 0 -1840 -771 -1997 -1714
c-153 -931 462 -1670 1389 -1670zM1360 0l1216 1812l4 16h-1056l36 220h1312l-40 -232l-1212 -1816h-260z" />
    <glyph glyph-name="uni2467" unicode="&#x38;&#x20dd;" horiz-adv-x="3912" 
d="M1694 -900c-1070 0 -1794 868 -1618 1940c176 1054 1170 1908 2226 1908c1070 0 1796 -868 1618 -1940c-174 -1054 -1170 -1908 -2226 -1908zM1694 -668c942 0 1842 771 1997 1714c155 930 -462 1670 -1389 1670c-941 0 -1840 -771 -1997 -1714
c-153 -931 462 -1670 1389 -1670zM1836 -28c-421 0 -672 254 -616 588c42 252 244 464 472 504v8c-188 52 -275 252 -232 476c59 309 340 528 692 528c364 0 598 -240 544 -560c-39 -228 -208 -396 -404 -444v-8c216 -44 361 -271 316 -536c-55 -327 -373 -556 -772 -556z
M1844 192c289 0 492 152 528 380s-124 380 -376 380c-268 0 -494 -172 -532 -412c-34 -215 109 -348 380 -348zM2004 1164c234 0 418 151 456 368c37 208 -89 328 -312 328c-242 0 -421 -144 -456 -360c-34 -210 99 -336 312 -336z" />
    <glyph glyph-name="uni2468" unicode="&#x39;&#x20dd;" horiz-adv-x="3912" 
d="M1694 -900c-1070 0 -1794 868 -1618 1940c176 1054 1170 1908 2226 1908c1070 0 1796 -868 1618 -1940c-174 -1054 -1170 -1908 -2226 -1908zM1694 -668c942 0 1842 771 1997 1714c155 930 -462 1670 -1389 1670c-941 0 -1840 -771 -1997 -1714
c-153 -931 462 -1670 1389 -1670zM2146 2080c344 -4 692 -224 564 -988c-120 -720 -460 -1120 -916 -1120c-340 0 -560 220 -556 544h236c8 -192 108 -324 328 -324c316 0 572 276 660 800l-16 -16c-140 -168 -328 -264 -536 -264c-360 0 -612 292 -544 696
c64 372 372 676 780 672zM2138 1860c-256 0 -492 -216 -536 -484c-40 -244 104 -444 348 -444c260 0 504 228 544 480c40 236 -104 448 -356 448z" />
    <glyph glyph-name="uniE12B" unicode="&#xe06b;&#x20dd;" horiz-adv-x="3912" 
d="M1694 -900c-1070 0 -1794 868 -1618 1940c176 1054 1170 1908 2226 1908c1070 0 1796 -868 1618 -1940c-174 -1054 -1170 -1908 -2226 -1908zM1694 -668c942 0 1842 771 1997 1714c155 930 -462 1670 -1389 1670c-941 0 -1840 -771 -1997 -1714
c-153 -931 462 -1670 1389 -1670zM1822 -28c-452 0 -645 383 -536 1052c108 664 436 1052 884 1052s651 -389 540 -1052c-112 -668 -436 -1052 -888 -1052zM1858 192c300 0 524 300 612 832c40 239 35 432 -8 572l-850 -1296c59 -71 142 -108 246 -108zM1529 463l848 1293
c-60 68 -141 104 -243 104c-296 0 -520 -304 -608 -836c-39 -234 -36 -422 3 -561z" />
    <glyph glyph-name="uniE12C" unicode="&#xe06c;&#x20dd;" horiz-adv-x="3912" 
d="M1694 -900c-1070 0 -1794 868 -1618 1940c176 1054 1170 1908 2226 1908c1070 0 1796 -868 1618 -1940c-174 -1054 -1170 -1908 -2226 -1908zM1694 -668c942 0 1842 771 1997 1714c155 930 -462 1670 -1389 1670c-941 0 -1840 -771 -1997 -1714
c-153 -931 462 -1670 1389 -1670zM2372 2048l-340 -2048h-248l280 1688h-16c-38 -56 -222 -152 -456 -152l32 208c318 0 498 280 528 304h220z" />
    <glyph glyph-name="uniE12D" unicode="&#xe06d;&#x20dd;" horiz-adv-x="3912" 
d="M1694 -900c-1070 0 -1794 868 -1618 1940c176 1054 1170 1908 2226 1908c1070 0 1796 -868 1618 -1940c-174 -1054 -1170 -1908 -2226 -1908zM1694 -668c942 0 1842 771 1997 1714c155 930 -462 1670 -1389 1670c-941 0 -1840 -771 -1997 -1714
c-153 -931 462 -1670 1389 -1670zM1216 512h252c-12 -208 156 -320 392 -320c256 0 476 132 516 384c36 220 -76 420 -456 420h-164l36 200l612 616v16h-868l36 220h1212l-28 -180l-664 -664v-16c352 -16 584 -272 528 -612c-56 -348 -388 -604 -800 -604
c-364 0 -636 200 -604 540z" />
    <glyph glyph-name="uniE12E" unicode="&#xe06e;&#x20dd;" horiz-adv-x="3912" 
d="M1694 -900c-1070 0 -1794 868 -1618 1940c176 1054 1170 1908 2226 1908c1070 0 1796 -868 1618 -1940c-174 -1054 -1170 -1908 -2226 -1908zM1694 -668c942 0 1842 771 1997 1714c155 930 -462 1670 -1389 1670c-941 0 -1840 -771 -1997 -1714
c-153 -931 462 -1670 1389 -1670zM1100 420l32 204l1056 1424h244l-1032 -1392v-16h699l105 640h236l-106 -640h282l-36 -220h-282l-70 -420h-236l70 420h-962z" />
    <glyph glyph-name="uniE12F" unicode="&#xe06f;&#x20dd;" horiz-adv-x="3912" 
d="M1694 -900c-1070 0 -1794 868 -1618 1940c176 1054 1170 1908 2226 1908c1070 0 1796 -868 1618 -1940c-174 -1054 -1170 -1908 -2226 -1908zM1694 -668c942 0 1842 771 1997 1714c155 930 -462 1670 -1389 1670c-941 0 -1840 -771 -1997 -1714
c-153 -931 462 -1670 1389 -1670zM1296 648c32 200 136 388 416 720l572 680h272l-672 -792c52 20 104 32 160 32c372 0 596 -280 536 -660s-380 -656 -752 -656c-376 0 -596 284 -532 676zM1528 632c-40 -260 96 -444 336 -444s436 184 480 440c44 260 -96 440 -336 440
c-236 0 -436 -176 -480 -436z" />
    <glyph glyph-name="uniE130" unicode="&#xe070;&#x20dd;" horiz-adv-x="3912" 
d="M1694 -900c-1070 0 -1794 868 -1618 1940c176 1054 1170 1908 2226 1908c1070 0 1796 -868 1618 -1940c-174 -1054 -1170 -1908 -2226 -1908zM1694 -668c942 0 1842 771 1997 1714c155 930 -462 1670 -1389 1670c-941 0 -1840 -771 -1997 -1714
c-153 -931 462 -1670 1389 -1670zM1430 1420c60 380 380 656 752 656c376 0 596 -284 532 -676c-32 -200 -136 -388 -416 -720l-572 -680h-272l672 792c-52 -20 -104 -32 -160 -32c-372 0 -596 280 -536 660zM1666 1420c-44 -260 96 -440 336 -440c236 0 436 176 480 436
c40 260 -96 444 -336 444s-436 -184 -480 -440z" />
    <glyph glyph-name="uniE131" unicode="&#x21;&#x20dd;" horiz-adv-x="3912" 
d="M1694 -900c-1070 0 -1794 868 -1618 1940c176 1054 1170 1908 2226 1908c1070 0 1796 -868 1618 -1940c-174 -1054 -1170 -1908 -2226 -1908zM1694 -668c942 0 1842 771 1997 1714c155 930 -462 1670 -1389 1670c-941 0 -1840 -771 -1997 -1714
c-153 -931 462 -1670 1389 -1670zM2312 2048l-264 -1472h-232l224 1472h272zM1864 -16c-102 0 -178 80 -180 180s82 176 180 176s182 -80 180 -176c-2 -100 -82 -180 -180 -180z" />
    <glyph glyph-name="uniE132" unicode="&#x3f;&#x20dd;" horiz-adv-x="3912" 
d="M1694 -900c-1070 0 -1794 868 -1618 1940c176 1054 1170 1908 2226 1908c1070 0 1796 -868 1618 -1940c-174 -1054 -1170 -1908 -2226 -1908zM1694 -668c942 0 1842 771 1997 1714c155 930 -462 1670 -1389 1670c-941 0 -1840 -771 -1997 -1714
c-153 -931 462 -1670 1389 -1670zM1778 576l4 24c66 373 205 487 416 604c128 72 240 184 264 344c32 196 -96 320 -284 320c-164 0 -348 -96 -400 -332h-252c72 340 360 540 684 540c352 0 544 -228 492 -540c-36 -220 -168 -376 -360 -480c-192 -108 -276 -216 -320 -456
l-4 -24h-240zM1838 -16c-102 0 -178 80 -180 180s82 176 180 176s182 -80 180 -176c-2 -100 -82 -180 -180 -180z" />
    <glyph glyph-name="uniE133" unicode="&#x23;&#x20dd;" horiz-adv-x="3912" 
d="M1694 -900c-1070 0 -1794 868 -1618 1940c176 1054 1170 1908 2226 1908c1070 0 1796 -868 1618 -1940c-174 -1054 -1170 -1908 -2226 -1908zM1694 -668c942 0 1842 771 1997 1714c155 930 -462 1670 -1389 1670c-941 0 -1840 -771 -1997 -1714
c-153 -931 462 -1670 1389 -1670zM2072 0l103 568h-520l-103 -568h-200l103 568h-305l36 200h306l93 512h-303l36 200h303l103 568h200l-103 -568h520l103 568h200l-103 -568h305l-36 -200h-305l-93 -512h302l-36 -200h-303l-103 -568h-200zM1692 768h520l93 512h-520z" />
    <glyph glyph-name="uniE134" unicode="&#x2d;&#x20dd;" horiz-adv-x="3912" 
d="M1694 -900c-1070 0 -1794 868 -1618 1940c176 1054 1170 1908 2226 1908c1070 0 1796 -868 1618 -1940c-174 -1054 -1170 -1908 -2226 -1908zM1694 -668c942 0 1842 771 1997 1714c155 930 -462 1670 -1389 1670c-941 0 -1840 -771 -1997 -1714
c-153 -931 462 -1670 1389 -1670zM2464 1134l-36 -220h-896l36 220h896z" />
    <glyph glyph-name="uniE135" unicode="&#x3c;&#x20dd;" horiz-adv-x="3912" 
d="M1694 -900c-1070 0 -1794 868 -1618 1940c176 1054 1170 1908 2226 1908c1070 0 1796 -868 1618 -1940c-174 -1054 -1170 -1908 -2226 -1908zM1694 -668c942 0 1842 771 1997 1714c155 930 -462 1670 -1389 1670c-941 0 -1840 -771 -1997 -1714
c-153 -931 462 -1670 1389 -1670zM1246 912l28 160l1396 656l-40 -256l-1061 -473l-2 -16l903 -471l-44 -256z" />
    <glyph glyph-name="uniE136" unicode="&#x3e;&#x20dd;" horiz-adv-x="3912" 
d="M1694 -900c-1070 0 -1794 868 -1618 1940c176 1054 1170 1908 2226 1908c1070 0 1796 -868 1618 -1940c-174 -1054 -1170 -1908 -2226 -1908zM1694 -668c942 0 1842 771 1997 1714c155 930 -462 1670 -1389 1670c-941 0 -1840 -771 -1997 -1714
c-153 -931 462 -1670 1389 -1670zM2722 912l-1396 -656l44 256l1057 473l2 16l-899 471l40 256l1180 -656z" />
    <glyph glyph-name="uniE137" unicode="&#x3d;&#x20dd;" horiz-adv-x="3912" 
d="M1694 -900c-1070 0 -1794 868 -1618 1940c176 1054 1170 1908 2226 1908c1070 0 1796 -868 1618 -1940c-174 -1054 -1170 -1908 -2226 -1908zM1694 -668c942 0 1842 771 1997 1714c155 930 -462 1670 -1389 1670c-941 0 -1840 -771 -1997 -1714
c-153 -931 462 -1670 1389 -1670zM1316 620l36 216h1232l-36 -216h-1232zM1414 1212l36 216h1232l-36 -216h-1232z" />
    <glyph glyph-name="uni2295" unicode="&#x2b;&#x20dd;" horiz-adv-x="3912" 
d="M1694 -900c-1070 0 -1794 868 -1618 1940c176 1054 1170 1908 2226 1908c1070 0 1796 -868 1618 -1940c-174 -1054 -1170 -1908 -2226 -1908zM1694 -668c942 0 1842 771 1997 1714c155 930 -462 1670 -1389 1670c-941 0 -1840 -771 -1997 -1714
c-153 -931 462 -1670 1389 -1670zM1778 360l91 548h-549l38 224h547l91 548h226l-91 -548h547l-38 -224h-545l-91 -548h-226z" />
    <glyph glyph-name="uni2296" unicode="&#x2212;&#x20dd;" horiz-adv-x="3912" 
d="M1694 -900c-1070 0 -1794 868 -1618 1940c176 1054 1170 1908 2226 1908c1070 0 1796 -868 1618 -1940c-174 -1054 -1170 -1908 -2226 -1908zM1694 -668c942 0 1842 771 1997 1714c155 930 -462 1670 -1389 1670c-941 0 -1840 -771 -1997 -1714
c-153 -931 462 -1670 1389 -1670zM2658 1136l-38 -224h-1280l38 224h1280z" />
    <glyph glyph-name="uni2297" unicode="&#xd7;&#x20dd;" horiz-adv-x="3912" 
d="M1694 -900c-1070 0 -1794 868 -1618 1940c176 1054 1170 1908 2226 1908c1070 0 1796 -868 1618 -1940c-174 -1054 -1170 -1908 -2226 -1908zM1694 -668c942 0 1842 771 1997 1714c155 930 -462 1670 -1389 1670c-941 0 -1840 -771 -1997 -1714
c-153 -931 462 -1670 1389 -1670zM2380 368l-398 478l-556 -474l-140 164l557 476l-403 484l164 140l403 -484l563 480l140 -164l-564 -482l398 -478z" />
    <glyph glyph-name="uni2A38" unicode="&#xf7;&#x20dd;" horiz-adv-x="3912" 
d="M1694 -900c-1070 0 -1794 868 -1618 1940c176 1054 1170 1908 2226 1908c1070 0 1796 -868 1618 -1940c-174 -1054 -1170 -1908 -2226 -1908zM1694 -668c942 0 1842 771 1997 1714c155 930 -462 1670 -1389 1670c-941 0 -1840 -771 -1997 -1714
c-153 -931 462 -1670 1389 -1670zM2656 1136l-36 -224h-1280l36 224h1280zM2068 1364c-108 0 -183 89 -164 196c16 88 100 160 196 160c100 0 174 -88 156 -192c-16 -92 -100 -164 -188 -164zM1896 328c-108 0 -175 87 -160 196c12 88 96 160 192 160
c100 0 170 -87 156 -192c-12 -92 -100 -164 -188 -164z" />
    <glyph glyph-name="uniE138" unicode="&#x2191;&#x20dd;" horiz-adv-x="3912" 
d="M1694 -900c-1070 0 -1794 868 -1618 1940c176 1054 1170 1908 2226 1908c1070 0 1796 -868 1618 -1940c-174 -1054 -1170 -1908 -2226 -1908zM1694 -668c942 0 1842 771 1997 1714c155 930 -462 1670 -1389 1670c-941 0 -1840 -771 -1997 -1714
c-153 -931 462 -1670 1389 -1670zM1696 0l272 1644l-736 -634l-130 154l1046 896l748 -896l-178 -154l-530 634l-272 -1644h-220z" />
    <glyph glyph-name="uniE139" unicode="&#x2193;&#x20dd;" horiz-adv-x="3912" 
d="M1694 -900c-1070 0 -1794 868 -1618 1940c176 1054 1170 1908 2226 1908c1070 0 1796 -868 1618 -1940c-174 -1054 -1170 -1908 -2226 -1908zM1694 -668c942 0 1842 771 1997 1714c155 930 -462 1670 -1389 1670c-941 0 -1840 -771 -1997 -1714
c-153 -931 462 -1670 1389 -1670zM2302 2048l-272 -1644l736 634l130 -154l-1046 -896l-748 896l178 154l530 -634l272 1644h220z" />
    <glyph glyph-name="uniE13A" unicode="&#x2190;&#x20dd;" horiz-adv-x="3912" 
d="M1694 -900c-1070 0 -1794 868 -1618 1940c176 1054 1170 1908 2226 1908c1070 0 1796 -868 1618 -1940c-174 -1054 -1170 -1908 -2226 -1908zM1694 -668c942 0 1842 771 1997 1714c155 930 -462 1670 -1389 1670c-941 0 -1840 -771 -1997 -1714
c-153 -931 462 -1670 1389 -1670zM1708 128l-748 896l1046 896l142 -164l-728 -622h1616l-38 -220h-1664l540 -648z" />
    <glyph glyph-name="uniE13B" unicode="&#x2192;&#x20dd;" horiz-adv-x="3912" 
d="M1694 -900c-1070 0 -1794 868 -1618 1940c176 1054 1170 1908 2226 1908c1070 0 1796 -868 1618 -1940c-174 -1054 -1170 -1908 -2226 -1908zM1694 -668c942 0 1842 771 1997 1714c155 930 -462 1670 -1389 1670c-941 0 -1840 -771 -1997 -1714
c-153 -931 462 -1670 1389 -1670zM1990 128l-142 164l728 622h-1616l38 220h1664l-540 648l166 138l748 -896z" />
    <glyph glyph-name="uniE13C" unicode="&#x2713;&#x20dd;" horiz-adv-x="3912" 
d="M1694 -900c-1070 0 -1794 868 -1618 1940c176 1054 1170 1908 2226 1908c1070 0 1796 -868 1618 -1940c-174 -1054 -1170 -1908 -2226 -1908zM1694 -668c942 0 1842 771 1997 1714c155 930 -462 1670 -1389 1670c-941 0 -1840 -771 -1997 -1714
c-153 -931 462 -1670 1389 -1670zM1086 1008l168 144l432 -512l1276 1092l144 -168l-1444 -1236z" />
    <glyph glyph-name="uniE13D" unicode="&#x2717;&#x20dd;" horiz-adv-x="3912" 
d="M1694 -900c-1070 0 -1794 868 -1618 1940c176 1054 1170 1908 2226 1908c1070 0 1796 -868 1618 -1940c-174 -1054 -1170 -1908 -2226 -1908zM1694 -668c942 0 1842 771 1997 1714c155 930 -462 1670 -1389 1670c-941 0 -1840 -771 -1997 -1714
c-153 -931 462 -1670 1389 -1670zM1356 328l-144 168l631 541l-443 527l168 144l443 -527l629 539l144 -168l-631 -541l443 -527l-168 -144l-443 527z" />
    <glyph glyph-name="u1F130" unicode="A&#x20de;" horiz-adv-x="3912" 
d="M180 -832c-224 0 -326 120 -288 344l500 3024c38 224 178 344 402 344h3024c224 0 324 -120 286 -344l-500 -3024c-38 -224 -176 -344 -400 -344h-3024zM184 -600h3092c46 0 82 32 90 78l512 3092c8 46 -18 78 -64 78h-3092c-46 0 -84 -32 -92 -78l-512 -3092
c-8 -46 20 -78 66 -78zM1206 0h-260l1092 2048h256l412 -2048h-260l-109 580h-828zM1624 800h672l-174 924h-16z" />
    <glyph glyph-name="u1F131" unicode="B&#x20de;" horiz-adv-x="3912" 
d="M180 -832c-224 0 -326 120 -288 344l500 3024c38 224 178 344 402 344h3024c224 0 324 -120 286 -344l-500 -3024c-38 -224 -176 -344 -400 -344h-3024zM184 -600h3092c46 0 82 32 90 78l512 3092c8 46 -18 78 -64 78h-3092c-46 0 -84 -32 -92 -78l-512 -3092
c-8 -46 20 -78 66 -78zM1152 0l340 2048h716c428 0 588 -244 536 -544c-44 -264 -220 -380 -400 -428l-4 -20c184 -12 380 -188 328 -512c-52 -308 -292 -544 -776 -544h-740zM1436 220h492c324 0 472 144 504 324c32 208 -104 388 -372 388h-504zM1592 1148h460
c224 0 424 140 456 356c32 180 -64 324 -336 324h-468z" />
    <glyph glyph-name="u1F132" unicode="C&#x20de;" horiz-adv-x="3912" 
d="M180 -832c-224 0 -326 120 -288 344l500 3024c38 224 178 344 402 344h3024c224 0 324 -120 286 -344l-500 -3024c-38 -224 -176 -344 -400 -344h-3024zM184 -600h3092c46 0 82 32 90 78l512 3092c8 46 -18 78 -64 78h-3092c-46 0 -84 -32 -92 -78l-512 -3092
c-8 -46 20 -78 66 -78zM2902 1408h-244c-12 284 -228 436 -492 436c-380 0 -728 -296 -816 -836c-88 -524 152 -804 516 -804c280 0 556 152 664 436h248c-148 -420 -516 -668 -920 -668c-532 0 -852 412 -744 1068c108 640 544 1036 1064 1036c416 0 716 -248 724 -668z
" />
    <glyph glyph-name="u1F133" unicode="D&#x20de;" horiz-adv-x="3912" 
d="M180 -832c-224 0 -326 120 -288 344l500 3024c38 224 178 344 402 344h3024c224 0 324 -120 286 -344l-500 -3024c-38 -224 -176 -344 -400 -344h-3024zM184 -600h3092c46 0 82 32 90 78l512 3092c8 46 -18 78 -64 78h-3092c-46 0 -84 -32 -92 -78l-512 -3092
c-8 -46 20 -78 66 -78zM1720 0h-640l340 2048h652c596 0 892 -392 784 -1036c-104 -632 -512 -1012 -1136 -1012zM1365 220h363c508 0 808 316 892 824c84 488 -104 784 -584 784h-405z" />
    <glyph glyph-name="u1F134" unicode="E&#x20de;" horiz-adv-x="3912" 
d="M180 -832c-224 0 -326 120 -288 344l500 3024c38 224 178 344 402 344h3024c224 0 324 -120 286 -344l-500 -3024c-38 -224 -176 -344 -400 -344h-3024zM184 -600h3092c46 0 82 32 90 78l512 3092c8 46 -18 78 -64 78h-3092c-46 0 -84 -32 -92 -78l-512 -3092
c-8 -46 20 -78 66 -78zM1210 0l340 2048h1236l-36 -220h-988l-116 -692h924l-36 -220h-924l-116 -696h1004l-36 -220h-1252z" />
    <glyph glyph-name="u1F135" unicode="F&#x20de;" horiz-adv-x="3912" 
d="M180 -832c-224 0 -326 120 -288 344l500 3024c38 224 178 344 402 344h3024c224 0 324 -120 286 -344l-500 -3024c-38 -224 -176 -344 -400 -344h-3024zM184 -600h3092c46 0 82 32 90 78l512 3092c8 46 -18 78 -64 78h-3092c-46 0 -84 -32 -92 -78l-512 -3092
c-8 -46 20 -78 66 -78zM1234 0l340 2048h1228l-36 -220h-980l-116 -692h888l-36 -220h-888l-152 -916h-248z" />
    <glyph glyph-name="u1F136" unicode="G&#x20de;" horiz-adv-x="3912" 
d="M180 -832c-224 0 -326 120 -288 344l500 3024c38 224 178 344 402 344h3024c224 0 324 -120 286 -344l-500 -3024c-38 -224 -176 -344 -400 -344h-3024zM184 -600h3092c46 0 82 32 90 78l512 3092c8 46 -18 78 -64 78h-3092c-46 0 -84 -32 -92 -78l-512 -3092
c-8 -46 20 -78 66 -78zM2650 1408c-40 268 -192 436 -488 436c-364 0 -724 -288 -812 -820s136 -820 516 -820c347 0 647 233 713 600h-541l40 220h780l-40 -220c-80 -508 -484 -832 -972 -832c-544 0 -844 404 -736 1052c104 648 544 1052 1068 1052
c432 0 720 -272 728 -668h-256z" />
    <glyph glyph-name="u1F137" unicode="H&#x20de;" horiz-adv-x="3912" 
d="M180 -832c-224 0 -326 120 -288 344l500 3024c38 224 178 344 402 344h3024c224 0 324 -120 286 -344l-500 -3024c-38 -224 -176 -344 -400 -344h-3024zM184 -600h3092c46 0 82 32 90 78l512 3092c8 46 -18 78 -64 78h-3092c-46 0 -84 -32 -92 -78l-512 -3092
c-8 -46 20 -78 66 -78zM1034 0l340 2048h248l-152 -912h1092l152 912h248l-340 -2048h-248l152 916h-1092l-152 -916h-248z" />
    <glyph glyph-name="u1F138" unicode="I&#x20de;" horiz-adv-x="3912" 
d="M180 -832c-224 0 -326 120 -288 344l500 3024c38 224 178 344 402 344h3024c224 0 324 -120 286 -344l-500 -3024c-38 -224 -176 -344 -400 -344h-3024zM184 -600h3092c46 0 82 32 90 78l512 3092c8 46 -18 78 -64 78h-3092c-46 0 -84 -32 -92 -78l-512 -3092
c-8 -46 20 -78 66 -78zM2292 2048l-340 -2048h-248l340 2048h248z" />
    <glyph glyph-name="u1F139" unicode="J&#x20de;" horiz-adv-x="3912" 
d="M180 -832c-224 0 -326 120 -288 344l500 3024c38 224 178 344 402 344h3024c224 0 324 -120 286 -344l-500 -3024c-38 -224 -176 -344 -400 -344h-3024zM184 -600h3092c46 0 82 32 90 78l512 3092c8 46 -18 78 -64 78h-3092c-46 0 -84 -32 -92 -78l-512 -3092
c-8 -46 20 -78 66 -78zM2466 2048h248l-244 -1472c-64 -392 -308 -604 -668 -604c-344 0 -561 195 -512 508h236c-25 -181 90 -288 280 -288c219 0 376 144 420 400z" />
    <glyph glyph-name="u1F13A" unicode="K&#x20de;" horiz-adv-x="3912" 
d="M180 -832c-224 0 -326 120 -288 344l500 3024c38 224 178 344 402 344h3024c224 0 324 -120 286 -344l-500 -3024c-38 -224 -176 -344 -400 -344h-3024zM184 -600h3092c46 0 82 32 90 78l512 3092c8 46 -18 78 -64 78h-3092c-46 0 -84 -32 -92 -78l-512 -3092
c-8 -46 20 -78 66 -78zM1110 0l340 2048h248l-168 -1016h24l1088 1016h324l-1012 -924l672 -1124h-300l-552 952l-304 -288l-112 -664h-248z" />
    <glyph glyph-name="u1F13B" unicode="L&#x20de;" horiz-adv-x="3912" 
d="M180 -832c-224 0 -326 120 -288 344l500 3024c38 224 178 344 402 344h3024c224 0 324 -120 286 -344l-500 -3024c-38 -224 -176 -344 -400 -344h-3024zM184 -600h3092c46 0 82 32 90 78l512 3092c8 46 -18 78 -64 78h-3092c-46 0 -84 -32 -92 -78l-512 -3092
c-8 -46 20 -78 66 -78zM1260 0l340 2048h248l-304 -1828h952l-36 -220h-1200z" />
    <glyph glyph-name="u1F13C" unicode="M&#x20de;" horiz-adv-x="3912" 
d="M180 -832c-224 0 -326 120 -288 344l500 3024c38 224 178 344 402 344h3024c224 0 324 -120 286 -344l-500 -3024c-38 -224 -176 -344 -400 -344h-3024zM184 -600h3092c46 0 82 32 90 78l512 3092c8 46 -18 78 -64 78h-3092c-46 0 -84 -32 -92 -78l-512 -3092
c-8 -46 20 -78 66 -78zM1164 2048h296l416 -1700h24l976 1700h296l-340 -2048h-232l260 1556h-20l-900 -1556h-224l-380 1556h-20l-260 -1556h-232z" />
    <glyph glyph-name="u1F13D" unicode="N&#x20de;" horiz-adv-x="3912" 
d="M180 -832c-224 0 -326 120 -288 344l500 3024c38 224 178 344 402 344h3024c224 0 324 -120 286 -344l-500 -3024c-38 -224 -176 -344 -400 -344h-3024zM184 -600h3092c46 0 82 32 90 78l512 3092c8 46 -18 78 -64 78h-3092c-46 0 -84 -32 -92 -78l-512 -3092
c-8 -46 20 -78 66 -78zM2980 2048l-340 -2048h-240l-848 1608h-20l-268 -1608h-248l340 2048h240l852 -1612h20l268 1612h244z" />
    <glyph glyph-name="u1F13E" unicode="O&#x20de;" horiz-adv-x="3912" 
d="M180 -832c-224 0 -326 120 -288 344l500 3024c38 224 178 344 402 344h3024c224 0 324 -120 286 -344l-500 -3024c-38 -224 -176 -344 -400 -344h-3024zM184 -600h3092c46 0 82 32 90 78l512 3092c8 46 -18 78 -64 78h-3092c-46 0 -84 -32 -92 -78l-512 -3092
c-8 -46 20 -78 66 -78zM2900 1008c-108 -640 -544 -1036 -1060 -1036c-532 0 -852 412 -744 1068c108 640 544 1036 1064 1036c528 0 848 -412 740 -1068zM2664 1040c88 524 -152 804 -516 804c-380 0 -728 -296 -816 -836c-88 -524 152 -804 516 -804
c380 0 728 296 816 836z" />
    <glyph glyph-name="u1F13F" unicode="P&#x20de;" horiz-adv-x="3912" 
d="M180 -832c-224 0 -326 120 -288 344l500 3024c38 224 178 344 402 344h3024c224 0 324 -120 286 -344l-500 -3024c-38 -224 -176 -344 -400 -344h-3024zM184 -600h3092c46 0 82 32 90 78l512 3092c8 46 -18 78 -64 78h-3092c-46 0 -84 -32 -92 -78l-512 -3092
c-8 -46 20 -78 66 -78zM1172 0l340 2048h692c480 0 648 -284 588 -648c-60 -360 -324 -652 -800 -652h-448l-124 -748h-248zM1581 968h439c328 0 488 188 528 432c40 248 -56 428 -388 428h-436z" />
    <glyph glyph-name="u1F140" unicode="Q&#x20de;" horiz-adv-x="3912" 
d="M180 -832c-224 0 -326 120 -288 344l500 3024c38 224 178 344 402 344h3024c224 0 324 -120 286 -344l-500 -3024c-38 -224 -176 -344 -400 -344h-3024zM184 -600h3092c46 0 82 32 90 78l512 3092c8 46 -18 78 -64 78h-3092c-46 0 -84 -32 -92 -78l-512 -3092
c-8 -46 20 -78 66 -78zM2900 1008c-60 -358 -224 -640 -447 -819l287 -381h-272l-197 264c-133 -65 -278 -100 -431 -100c-532 0 -852 412 -744 1068c108 640 544 1036 1064 1036c528 0 848 -412 740 -1068zM1840 640h272l202 -266c171 140 301 365 350 666
c88 524 -152 804 -516 804c-380 0 -728 -296 -816 -836c-88 -524 152 -804 516 -804c97 0 192 19 281 57z" />
    <glyph glyph-name="u1F141" unicode="R&#x20de;" horiz-adv-x="3912" 
d="M180 -832c-224 0 -326 120 -288 344l500 3024c38 224 178 344 402 344h3024c224 0 324 -120 286 -344l-500 -3024c-38 -224 -176 -344 -400 -344h-3024zM184 -600h3092c46 0 82 32 90 78l512 3092c8 46 -18 78 -64 78h-3092c-46 0 -84 -32 -92 -78l-512 -3092
c-8 -46 20 -78 66 -78zM1172 0l340 2048h692c480 0 652 -264 592 -628c-45 -270 -203 -484 -480 -574l324 -846h-288l-300 801c-17 -1 -34 -1 -52 -1h-447l-133 -800h-248zM1590 1024h442c328 0 480 152 520 396c40 248 -60 408 -392 408h-436z" />
    <glyph glyph-name="u1F142" unicode="S&#x20de;" horiz-adv-x="3912" 
d="M180 -832c-224 0 -326 120 -288 344l500 3024c38 224 178 344 402 344h3024c224 0 324 -120 286 -344l-500 -3024c-38 -224 -176 -344 -400 -344h-3024zM184 -600h3092c46 0 82 32 90 78l512 3092c8 46 -18 78 -64 78h-3092c-46 0 -84 -32 -92 -78l-512 -3092
c-8 -46 20 -78 66 -78zM2564 1520c0 220 -156 336 -404 336c-272 0 -476 -144 -508 -340c-36 -220 196 -300 340 -340l200 -56c200 -56 544 -180 480 -564c-56 -332 -364 -592 -836 -592c-440 0 -676 228 -644 564h256c-20 -232 180 -340 424 -340c284 0 524 148 560 372
c36 204 -144 280 -352 340l-240 72c-304 92 -476 256 -432 532c60 344 404 572 796 572c396 0 636 -232 600 -556h-240z" />
    <glyph glyph-name="u1F143" unicode="T&#x20de;" horiz-adv-x="3912" 
d="M180 -832c-224 0 -326 120 -288 344l500 3024c38 224 178 344 402 344h3024c224 0 324 -120 286 -344l-500 -3024c-38 -224 -176 -344 -400 -344h-3024zM184 -600h3092c46 0 82 32 90 78l512 3092c8 46 -18 78 -64 78h-3092c-46 0 -84 -32 -92 -78l-512 -3092
c-8 -46 20 -78 66 -78zM1364 1828l36 220h1536l-36 -220h-644l-304 -1828h-248l304 1828h-644z" />
    <glyph glyph-name="u1F144" unicode="U&#x20de;" horiz-adv-x="3912" 
d="M180 -832c-224 0 -326 120 -288 344l500 3024c38 224 178 344 402 344h3024c224 0 324 -120 286 -344l-500 -3024c-38 -224 -176 -344 -400 -344h-3024zM184 -600h3092c46 0 82 32 90 78l512 3092c8 46 -18 78 -64 78h-3092c-46 0 -84 -32 -92 -78l-512 -3092
c-8 -46 20 -78 66 -78zM2714 2048h248l-224 -1356c-70 -420 -436 -728 -918 -728s-744 308 -674 728l224 1356h248l-222 -1336c-48 -300 122 -516 464 -516s584 216 632 516z" />
    <glyph glyph-name="u1F145" unicode="V&#x20de;" horiz-adv-x="3912" 
d="M180 -832c-224 0 -326 120 -288 344l500 3024c38 224 178 344 402 344h3024c224 0 324 -120 286 -344l-500 -3024c-38 -224 -176 -344 -400 -344h-3024zM184 -600h3092c46 0 82 32 90 78l512 3092c8 46 -18 78 -64 78h-3092c-46 0 -84 -32 -92 -78l-512 -3092
c-8 -46 20 -78 66 -78zM1546 2048l324 -1724h24l892 1724h260l-1092 -2048h-256l-412 2048h260z" />
    <glyph glyph-name="u1F146" unicode="W&#x20de;" horiz-adv-x="3912" 
d="M180 -832c-224 0 -326 120 -288 344l500 3024c38 224 178 344 402 344h3024c224 0 324 -120 286 -344l-500 -3024c-38 -224 -176 -344 -400 -344h-3024zM184 -600h3092c46 0 82 32 90 78l512 3092c8 46 -18 78 -64 78h-3092c-46 0 -84 -32 -92 -78l-512 -3092
c-8 -46 20 -78 66 -78zM1110 0l-220 2048h252l152 -1668h20l712 1668h280l160 -1668h20l704 1668h252l-900 -2048h-256l-180 1632h-16l-724 -1632h-256z" />
    <glyph glyph-name="u1F147" unicode="X&#x20de;" horiz-adv-x="3912" 
d="M180 -832c-224 0 -326 120 -288 344l500 3024c38 224 178 344 402 344h3024c224 0 324 -120 286 -344l-500 -3024c-38 -224 -176 -344 -400 -344h-3024zM184 -600h3092c46 0 82 32 90 78l512 3092c8 46 -18 78 -64 78h-3092c-46 0 -84 -32 -92 -78l-512 -3092
c-8 -46 20 -78 66 -78zM1632 2048l388 -852h16l668 852h292l-812 -1024l472 -1024h-292l-388 836h-16l-668 -836h-292l832 1024l-492 1024h292z" />
    <glyph glyph-name="u1F148" unicode="Y&#x20de;" horiz-adv-x="3912" 
d="M180 -832c-224 0 -326 120 -288 344l500 3024c38 224 178 344 402 344h3024c224 0 324 -120 286 -344l-500 -3024c-38 -224 -176 -344 -400 -344h-3024zM184 -600h3092c46 0 82 32 90 78l512 3092c8 46 -18 78 -64 78h-3092c-46 0 -84 -32 -92 -78l-512 -3092
c-8 -46 20 -78 66 -78zM1302 2048h284l412 -956h24l724 956h284l-940 -1204l-140 -844h-248l140 844z" />
    <glyph glyph-name="u1F149" unicode="Z&#x20de;" horiz-adv-x="3912" 
d="M180 -832c-224 0 -326 120 -288 344l500 3024c38 224 178 344 402 344h3024c224 0 324 -120 286 -344l-500 -3024c-38 -224 -176 -344 -400 -344h-3024zM184 -600h3092c46 0 82 32 90 78l512 3092c8 46 -18 78 -64 78h-3092c-46 0 -84 -32 -92 -78l-512 -3092
c-8 -46 20 -78 66 -78zM1128 0l32 180l1376 1648h-1116l36 220h1412l-28 -180l-1380 -1648h1116l-36 -220h-1412z" />
    <glyph glyph-name="uniE13E" unicode="&#x30;&#x20de;" horiz-adv-x="3912" 
d="M180 -832c-224 0 -326 120 -288 344l500 3024c38 224 178 344 402 344h3024c224 0 324 -120 286 -344l-500 -3024c-38 -224 -176 -344 -400 -344h-3024zM184 -600h3092c46 0 82 32 90 78l512 3092c8 46 -18 78 -64 78h-3092c-46 0 -84 -32 -92 -78l-512 -3092
c-8 -46 20 -78 66 -78zM1822 -28c-452 0 -645 383 -536 1052c108 664 436 1052 884 1052s651 -389 540 -1052c-112 -668 -436 -1052 -888 -1052zM1858 192c300 0 524 300 612 832s-40 836 -336 836s-520 -304 -608 -836s36 -832 332 -832z" />
    <glyph glyph-name="uniE13F" unicode="&#x31;&#x20de;" horiz-adv-x="3912" 
d="M180 -832c-224 0 -326 120 -288 344l500 3024c38 224 178 344 402 344h3024c224 0 324 -120 286 -344l-500 -3024c-38 -224 -176 -344 -400 -344h-3024zM184 -600h3092c46 0 82 32 90 78l512 3092c8 46 -18 78 -64 78h-3092c-46 0 -84 -32 -92 -78l-512 -3092
c-8 -46 20 -78 66 -78zM2336 2048l-340 -2048h-248l296 1788h-12l-556 -332l44 252l568 340h248z" />
    <glyph glyph-name="uniE140" unicode="&#x32;&#x20de;" horiz-adv-x="3912" 
d="M180 -832c-224 0 -326 120 -288 344l500 3024c38 224 178 344 402 344h3024c224 0 324 -120 286 -344l-500 -3024c-38 -224 -176 -344 -400 -344h-3024zM184 -600h3092c46 0 82 32 90 78l512 3092c8 46 -18 78 -64 78h-3092c-46 0 -84 -32 -92 -78l-512 -3092
c-8 -46 20 -78 66 -78zM1176 0l32 180l796 740c280 260 416 400 448 588c36 216 -104 352 -328 352c-236 0 -420 -156 -460 -388h-236c60 360 380 604 740 604s568 -252 516 -568c-40 -228 -172 -404 -588 -780l-540 -492l-4 -16h952l-36 -220h-1292z" />
    <glyph glyph-name="uniE141" unicode="&#x33;&#x20de;" horiz-adv-x="3912" 
d="M180 -832c-224 0 -326 120 -288 344l500 3024c38 224 178 344 402 344h3024c224 0 324 -120 286 -344l-500 -3024c-38 -224 -176 -344 -400 -344h-3024zM184 -600h3092c46 0 82 32 90 78l512 3092c8 46 -18 78 -64 78h-3092c-46 0 -84 -32 -92 -78l-512 -3092
c-8 -46 20 -78 66 -78zM1836 -28c-401 0 -658 216 -616 540h248c-18 -196 130 -320 372 -320c258 0 492 141 528 380c32 213 -103 368 -416 368h-168l36 220h156c243 0 443 146 480 372c33 197 -79 328 -304 328c-217 0 -442 -120 -480 -324h-240c62 320 384 540 732 540
c385 0 576 -268 528 -564c-36 -225 -197 -387 -412 -452v-12c252 -44 371 -249 328 -508c-57 -349 -369 -568 -772 -568z" />
    <glyph glyph-name="uniE142" unicode="&#x34;&#x20de;" horiz-adv-x="3912" 
d="M180 -832c-224 0 -326 120 -288 344l500 3024c38 224 178 344 402 344h3024c224 0 324 -120 286 -344l-500 -3024c-38 -224 -176 -344 -400 -344h-3024zM184 -600h3092c46 0 82 32 90 78l512 3092c8 46 -18 78 -64 78h-3092c-46 0 -84 -32 -92 -78l-512 -3092
c-8 -46 20 -78 66 -78zM1088 420l32 204l1136 1424h300l-234 -1408h282l-36 -220h-282l-70 -420h-236l69 420h-961zM2087 640l181 1092h-16l-860 -1076v-16h695z" />
    <glyph glyph-name="uniE143" unicode="&#x35;&#x20de;" horiz-adv-x="3912" 
d="M180 -832c-224 0 -326 120 -288 344l500 3024c38 224 178 344 402 344h3024c224 0 324 -120 286 -344l-500 -3024c-38 -224 -176 -344 -400 -344h-3024zM184 -600h3092c46 0 82 32 90 78l512 3092c8 46 -18 78 -64 78h-3092c-46 0 -84 -32 -92 -78l-512 -3092
c-8 -46 20 -78 66 -78zM1810 -28c-352 0 -584 228 -548 540h240c-12 -184 136 -320 344 -320c252 0 468 192 512 456c44 268 -112 468 -376 468c-124 0 -276 -44 -372 -104l-228 28l292 1008h1064l-36 -220h-856l-172 -604h12c96 68 236 116 376 116
c376 0 604 -292 536 -688c-64 -392 -396 -680 -788 -680z" />
    <glyph glyph-name="uniE144" unicode="&#x36;&#x20de;" horiz-adv-x="3912" 
d="M180 -832c-224 0 -326 120 -288 344l500 3024c38 224 178 344 402 344h3024c224 0 324 -120 286 -344l-500 -3024c-38 -224 -176 -344 -400 -344h-3024zM184 -600h3092c46 0 82 32 90 78l512 3092c8 46 -18 78 -64 78h-3092c-46 0 -84 -32 -92 -78l-512 -3092
c-8 -46 20 -78 66 -78zM1828 -28c-344 3 -692 224 -564 988c120 720 460 1120 916 1120c339 0 560 -220 556 -544h-236c-7 191 -110 324 -328 324c-317 0 -572 -276 -660 -800l16 16c140 168 329 264 536 264c360 0 612 -292 544 -696c-64 -372 -373 -676 -780 -672z
M1836 192c256 0 492 216 536 484c40 244 -104 444 -348 444c-260 0 -504 -228 -544 -480c-40 -236 104 -448 356 -448z" />
    <glyph glyph-name="uniE145" unicode="&#x37;&#x20de;" horiz-adv-x="3912" 
d="M180 -832c-224 0 -326 120 -288 344l500 3024c38 224 178 344 402 344h3024c224 0 324 -120 286 -344l-500 -3024c-38 -224 -176 -344 -400 -344h-3024zM184 -600h3092c46 0 82 32 90 78l512 3092c8 46 -18 78 -64 78h-3092c-46 0 -84 -32 -92 -78l-512 -3092
c-8 -46 20 -78 66 -78zM1360 0l1216 1812l4 16h-1056l36 220h1312l-40 -232l-1212 -1816h-260z" />
    <glyph glyph-name="uniE146" unicode="&#x38;&#x20de;" horiz-adv-x="3912" 
d="M180 -832c-224 0 -326 120 -288 344l500 3024c38 224 178 344 402 344h3024c224 0 324 -120 286 -344l-500 -3024c-38 -224 -176 -344 -400 -344h-3024zM184 -600h3092c46 0 82 32 90 78l512 3092c8 46 -18 78 -64 78h-3092c-46 0 -84 -32 -92 -78l-512 -3092
c-8 -46 20 -78 66 -78zM1836 -28c-421 0 -672 254 -616 588c42 252 244 464 472 504v8c-188 52 -275 252 -232 476c59 309 340 528 692 528c364 0 598 -240 544 -560c-39 -228 -208 -396 -404 -444v-8c216 -44 361 -271 316 -536c-55 -327 -373 -556 -772 -556zM1844 192
c289 0 492 152 528 380s-124 380 -376 380c-268 0 -494 -172 -532 -412c-34 -215 109 -348 380 -348zM2004 1164c234 0 418 151 456 368c37 208 -89 328 -312 328c-242 0 -421 -144 -456 -360c-34 -210 99 -336 312 -336z" />
    <glyph glyph-name="uniE147" unicode="&#x39;&#x20de;" horiz-adv-x="3912" 
d="M180 -832c-224 0 -326 120 -288 344l500 3024c38 224 178 344 402 344h3024c224 0 324 -120 286 -344l-500 -3024c-38 -224 -176 -344 -400 -344h-3024zM184 -600h3092c46 0 82 32 90 78l512 3092c8 46 -18 78 -64 78h-3092c-46 0 -84 -32 -92 -78l-512 -3092
c-8 -46 20 -78 66 -78zM2156 2080c344 -4 692 -224 564 -988c-120 -720 -460 -1120 -916 -1120c-340 0 -560 220 -556 544h236c8 -192 108 -324 328 -324c316 0 572 276 660 800l-16 -16c-140 -168 -328 -264 -536 -264c-360 0 -612 292 -544 696c64 372 372 676 780 672z
M2148 1860c-256 0 -492 -216 -536 -484c-40 -244 104 -444 348 -444c260 0 504 228 544 480c40 236 -104 448 -356 448z" />
    <glyph glyph-name="uniE148" unicode="&#xe06b;&#x20de;" horiz-adv-x="3912" 
d="M180 -832c-224 0 -326 120 -288 344l500 3024c38 224 178 344 402 344h3024c224 0 324 -120 286 -344l-500 -3024c-38 -224 -176 -344 -400 -344h-3024zM184 -600h3092c46 0 82 32 90 78l512 3092c8 46 -18 78 -64 78h-3092c-46 0 -84 -32 -92 -78l-512 -3092
c-8 -46 20 -78 66 -78zM1822 -28c-452 0 -645 383 -536 1052c108 664 436 1052 884 1052s651 -389 540 -1052c-112 -668 -436 -1052 -888 -1052zM1858 192c300 0 524 300 612 832c40 239 35 432 -8 572l-850 -1296c59 -71 142 -108 246 -108zM1529 463l848 1293
c-60 68 -141 104 -243 104c-296 0 -520 -304 -608 -836c-39 -234 -36 -422 3 -561z" />
    <glyph glyph-name="uniE149" unicode="&#xe06c;&#x20de;" horiz-adv-x="3912" 
d="M180 -832c-224 0 -326 120 -288 344l500 3024c38 224 178 344 402 344h3024c224 0 324 -120 286 -344l-500 -3024c-38 -224 -176 -344 -400 -344h-3024zM184 -600h3092c46 0 82 32 90 78l512 3092c8 46 -18 78 -64 78h-3092c-46 0 -84 -32 -92 -78l-512 -3092
c-8 -46 20 -78 66 -78zM2372 2048l-340 -2048h-248l280 1688h-16c-38 -56 -222 -152 -456 -152l32 208c318 0 498 280 528 304h220z" />
    <glyph glyph-name="uniE14A" unicode="&#xe06d;&#x20de;" horiz-adv-x="3912" 
d="M180 -832c-224 0 -326 120 -288 344l500 3024c38 224 178 344 402 344h3024c224 0 324 -120 286 -344l-500 -3024c-38 -224 -176 -344 -400 -344h-3024zM184 -600h3092c46 0 82 32 90 78l512 3092c8 46 -18 78 -64 78h-3092c-46 0 -84 -32 -92 -78l-512 -3092
c-8 -46 20 -78 66 -78zM1216 512h252c-12 -208 156 -320 392 -320c256 0 476 132 516 384c36 220 -76 420 -456 420h-164l36 200l612 616v16h-868l36 220h1212l-28 -180l-664 -664v-16c352 -16 584 -272 528 -612c-56 -348 -388 -604 -800 -604c-364 0 -636 200 -604 540z
" />
    <glyph glyph-name="uniE14B" unicode="&#xe06e;&#x20de;" horiz-adv-x="3912" 
d="M180 -832c-224 0 -326 120 -288 344l500 3024c38 224 178 344 402 344h3024c224 0 324 -120 286 -344l-500 -3024c-38 -224 -176 -344 -400 -344h-3024zM184 -600h3092c46 0 82 32 90 78l512 3092c8 46 -18 78 -64 78h-3092c-46 0 -84 -32 -92 -78l-512 -3092
c-8 -46 20 -78 66 -78zM1100 420l32 204l1056 1424h244l-1032 -1392v-16h699l105 640h236l-106 -640h282l-36 -220h-282l-70 -420h-236l70 420h-962z" />
    <glyph glyph-name="uniE14C" unicode="&#xe06f;&#x20de;" horiz-adv-x="3912" 
d="M180 -832c-224 0 -326 120 -288 344l500 3024c38 224 178 344 402 344h3024c224 0 324 -120 286 -344l-500 -3024c-38 -224 -176 -344 -400 -344h-3024zM184 -600h3092c46 0 82 32 90 78l512 3092c8 46 -18 78 -64 78h-3092c-46 0 -84 -32 -92 -78l-512 -3092
c-8 -46 20 -78 66 -78zM1296 648c32 200 136 388 416 720l572 680h272l-672 -792c52 20 104 32 160 32c372 0 596 -280 536 -660s-380 -656 -752 -656c-376 0 -596 284 -532 676zM1528 632c-40 -260 96 -444 336 -444s436 184 480 440c44 260 -96 440 -336 440
c-236 0 -436 -176 -480 -436z" />
    <glyph glyph-name="uniE14D" unicode="&#xe070;&#x20de;" horiz-adv-x="3912" 
d="M180 -832c-224 0 -326 120 -288 344l500 3024c38 224 178 344 402 344h3024c224 0 324 -120 286 -344l-500 -3024c-38 -224 -176 -344 -400 -344h-3024zM184 -600h3092c46 0 82 32 90 78l512 3092c8 46 -18 78 -64 78h-3092c-46 0 -84 -32 -92 -78l-512 -3092
c-8 -46 20 -78 66 -78zM1418 1420c60 380 380 656 752 656c376 0 596 -284 532 -676c-32 -200 -136 -388 -416 -720l-572 -680h-272l672 792c-52 -20 -104 -32 -160 -32c-372 0 -596 280 -536 660zM1654 1420c-44 -260 96 -440 336 -440c236 0 436 176 480 436
c40 260 -96 444 -336 444s-436 -184 -480 -440z" />
    <glyph glyph-name="uniE14E" unicode="&#x21;&#x20de;" horiz-adv-x="3912" 
d="M180 -832c-224 0 -326 120 -288 344l500 3024c38 224 178 344 402 344h3024c224 0 324 -120 286 -344l-500 -3024c-38 -224 -176 -344 -400 -344h-3024zM184 -600h3092c46 0 82 32 90 78l512 3092c8 46 -18 78 -64 78h-3092c-46 0 -84 -32 -92 -78l-512 -3092
c-8 -46 20 -78 66 -78zM2312 2048l-264 -1472h-232l224 1472h272zM1864 -16c-102 0 -178 80 -180 180s82 176 180 176s182 -80 180 -176c-2 -100 -82 -180 -180 -180z" />
    <glyph glyph-name="uniE14F" unicode="&#x3f;&#x20de;" horiz-adv-x="3912" 
d="M180 -832c-224 0 -326 120 -288 344l500 3024c38 224 178 344 402 344h3024c224 0 324 -120 286 -344l-500 -3024c-38 -224 -176 -344 -400 -344h-3024zM184 -600h3092c46 0 82 32 90 78l512 3092c8 46 -18 78 -64 78h-3092c-46 0 -84 -32 -92 -78l-512 -3092
c-8 -46 20 -78 66 -78zM1784 576l4 24c66 373 205 487 416 604c128 72 240 184 264 344c32 196 -96 320 -284 320c-164 0 -348 -96 -400 -332h-252c72 340 360 540 684 540c352 0 544 -228 492 -540c-36 -220 -168 -376 -360 -480c-192 -108 -276 -216 -320 -456l-4 -24
h-240zM1844 -16c-102 0 -178 80 -180 180s82 176 180 176s182 -80 180 -176c-2 -100 -82 -180 -180 -180z" />
    <glyph glyph-name="uniE150" unicode="&#x23;&#x20de;" horiz-adv-x="3912" 
d="M180 -832c-224 0 -326 120 -288 344l500 3024c38 224 178 344 402 344h3024c224 0 324 -120 286 -344l-500 -3024c-38 -224 -176 -344 -400 -344h-3024zM184 -600h3092c46 0 82 32 90 78l512 3092c8 46 -18 78 -64 78h-3092c-46 0 -84 -32 -92 -78l-512 -3092
c-8 -46 20 -78 66 -78zM2072 0l103 568h-520l-103 -568h-200l103 568h-305l36 200h306l93 512h-303l36 200h303l103 568h200l-103 -568h520l103 568h200l-103 -568h305l-36 -200h-305l-93 -512h302l-36 -200h-303l-103 -568h-200zM1692 768h520l93 512h-520z" />
    <glyph glyph-name="uniE151" unicode="&#x2d;&#x20de;" horiz-adv-x="3912" 
d="M180 -832c-224 0 -326 120 -288 344l500 3024c38 224 178 344 402 344h3024c224 0 324 -120 286 -344l-500 -3024c-38 -224 -176 -344 -400 -344h-3024zM184 -600h3092c46 0 82 32 90 78l512 3092c8 46 -18 78 -64 78h-3092c-46 0 -84 -32 -92 -78l-512 -3092
c-8 -46 20 -78 66 -78zM2464 1134l-36 -220h-896l36 220h896z" />
    <glyph glyph-name="uniE152" unicode="&#x3c;&#x20de;" horiz-adv-x="3912" 
d="M180 -832c-224 0 -326 120 -288 344l500 3024c38 224 178 344 402 344h3024c224 0 324 -120 286 -344l-500 -3024c-38 -224 -176 -344 -400 -344h-3024zM184 -600h3092c46 0 82 32 90 78l512 3092c8 46 -18 78 -64 78h-3092c-46 0 -84 -32 -92 -78l-512 -3092
c-8 -46 20 -78 66 -78zM1286 912l28 160l1396 656l-40 -256l-1061 -473l-2 -16l903 -471l-44 -256z" />
    <glyph glyph-name="uniE153" unicode="&#x3e;&#x20de;" horiz-adv-x="3912" 
d="M180 -832c-224 0 -326 120 -288 344l500 3024c38 224 178 344 402 344h3024c224 0 324 -120 286 -344l-500 -3024c-38 -224 -176 -344 -400 -344h-3024zM184 -600h3092c46 0 82 32 90 78l512 3092c8 46 -18 78 -64 78h-3092c-46 0 -84 -32 -92 -78l-512 -3092
c-8 -46 20 -78 66 -78zM2682 912l-1396 -656l44 256l1057 473l2 16l-899 471l40 256l1180 -656z" />
    <glyph glyph-name="uniE154" unicode="&#x3d;&#x20de;" horiz-adv-x="3912" 
d="M180 -832c-224 0 -326 120 -288 344l500 3024c38 224 178 344 402 344h3024c224 0 324 -120 286 -344l-500 -3024c-38 -224 -176 -344 -400 -344h-3024zM184 -600h3092c46 0 82 32 90 78l512 3092c8 46 -18 78 -64 78h-3092c-46 0 -84 -32 -92 -78l-512 -3092
c-8 -46 20 -78 66 -78zM1316 620l36 216h1232l-36 -216h-1232zM1414 1212l36 216h1232l-36 -216h-1232z" />
    <glyph glyph-name="uniE155" unicode="&#x2b;&#x20de;" horiz-adv-x="3912" 
d="M180 -832c-224 0 -326 120 -288 344l500 3024c38 224 178 344 402 344h3024c224 0 324 -120 286 -344l-500 -3024c-38 -224 -176 -344 -400 -344h-3024zM184 -600h3092c46 0 82 32 90 78l512 3092c8 46 -18 78 -64 78h-3092c-46 0 -84 -32 -92 -78l-512 -3092
c-8 -46 20 -78 66 -78zM1778 360l91 548h-549l38 224h547l91 548h226l-91 -548h547l-38 -224h-545l-91 -548h-226z" />
    <glyph glyph-name="uniE156" unicode="&#x2212;&#x20de;" horiz-adv-x="3912" 
d="M180 -832c-224 0 -326 120 -288 344l500 3024c38 224 178 344 402 344h3024c224 0 324 -120 286 -344l-500 -3024c-38 -224 -176 -344 -400 -344h-3024zM184 -600h3092c46 0 82 32 90 78l512 3092c8 46 -18 78 -64 78h-3092c-46 0 -84 -32 -92 -78l-512 -3092
c-8 -46 20 -78 66 -78zM2658 1136l-38 -224h-1280l38 224h1280z" />
    <glyph glyph-name="uniE157" unicode="&#xd7;&#x20de;" horiz-adv-x="3912" 
d="M180 -832c-224 0 -326 120 -288 344l500 3024c38 224 178 344 402 344h3024c224 0 324 -120 286 -344l-500 -3024c-38 -224 -176 -344 -400 -344h-3024zM184 -600h3092c46 0 82 32 90 78l512 3092c8 46 -18 78 -64 78h-3092c-46 0 -84 -32 -92 -78l-512 -3092
c-8 -46 20 -78 66 -78zM2380 368l-398 478l-556 -474l-140 164l557 476l-403 484l164 140l403 -484l563 480l140 -164l-564 -482l398 -478z" />
    <glyph glyph-name="uniE158" unicode="&#xf7;&#x20de;" horiz-adv-x="3912" 
d="M180 -832c-224 0 -326 120 -288 344l500 3024c38 224 178 344 402 344h3024c224 0 324 -120 286 -344l-500 -3024c-38 -224 -176 -344 -400 -344h-3024zM184 -600h3092c46 0 82 32 90 78l512 3092c8 46 -18 78 -64 78h-3092c-46 0 -84 -32 -92 -78l-512 -3092
c-8 -46 20 -78 66 -78zM2656 1136l-36 -224h-1280l36 224h1280zM2068 1364c-108 0 -183 89 -164 196c16 88 100 160 196 160c100 0 174 -88 156 -192c-16 -92 -100 -164 -188 -164zM1896 328c-108 0 -175 87 -160 196c12 88 96 160 192 160c100 0 170 -87 156 -192
c-12 -92 -100 -164 -188 -164z" />
    <glyph glyph-name="uniE159" unicode="&#x2191;&#x20de;" horiz-adv-x="3912" 
d="M180 -832c-224 0 -326 120 -288 344l500 3024c38 224 178 344 402 344h3024c224 0 324 -120 286 -344l-500 -3024c-38 -224 -176 -344 -400 -344h-3024zM184 -600h3092c46 0 82 32 90 78l512 3092c8 46 -18 78 -64 78h-3092c-46 0 -84 -32 -92 -78l-512 -3092
c-8 -46 20 -78 66 -78zM1696 0l272 1644l-736 -634l-130 154l1046 896l748 -896l-178 -154l-530 634l-272 -1644h-220z" />
    <glyph glyph-name="uniE15A" unicode="&#x2193;&#x20de;" horiz-adv-x="3912" 
d="M180 -832c-224 0 -326 120 -288 344l500 3024c38 224 178 344 402 344h3024c224 0 324 -120 286 -344l-500 -3024c-38 -224 -176 -344 -400 -344h-3024zM184 -600h3092c46 0 82 32 90 78l512 3092c8 46 -18 78 -64 78h-3092c-46 0 -84 -32 -92 -78l-512 -3092
c-8 -46 20 -78 66 -78zM2302 2048l-272 -1644l736 634l130 -154l-1046 -896l-748 896l178 154l530 -634l272 1644h220z" />
    <glyph glyph-name="uniE15B" unicode="&#x2190;&#x20de;" horiz-adv-x="3912" 
d="M180 -832c-224 0 -326 120 -288 344l500 3024c38 224 178 344 402 344h3024c224 0 324 -120 286 -344l-500 -3024c-38 -224 -176 -344 -400 -344h-3024zM184 -600h3092c46 0 82 32 90 78l512 3092c8 46 -18 78 -64 78h-3092c-46 0 -84 -32 -92 -78l-512 -3092
c-8 -46 20 -78 66 -78zM1708 128l-748 896l1046 896l142 -164l-728 -622h1616l-38 -220h-1664l540 -648z" />
    <glyph glyph-name="uniE15C" unicode="&#x2192;&#x20de;" horiz-adv-x="3912" 
d="M180 -832c-224 0 -326 120 -288 344l500 3024c38 224 178 344 402 344h3024c224 0 324 -120 286 -344l-500 -3024c-38 -224 -176 -344 -400 -344h-3024zM184 -600h3092c46 0 82 32 90 78l512 3092c8 46 -18 78 -64 78h-3092c-46 0 -84 -32 -92 -78l-512 -3092
c-8 -46 20 -78 66 -78zM1990 128l-142 164l728 622h-1616l38 220h1664l-540 648l166 138l748 -896z" />
    <glyph glyph-name="uniE15D" unicode="&#x2713;&#x20de;" horiz-adv-x="3912" 
d="M180 -832c-224 0 -326 120 -288 344l500 3024c38 224 178 344 402 344h3024c224 0 324 -120 286 -344l-500 -3024c-38 -224 -176 -344 -400 -344h-3024zM184 -600h3092c46 0 82 32 90 78l512 3092c8 46 -18 78 -64 78h-3092c-46 0 -84 -32 -92 -78l-512 -3092
c-8 -46 20 -78 66 -78zM1058 1008l168 144l432 -512l1276 1092l144 -168l-1444 -1236z" />
    <glyph glyph-name="uniE15E" unicode="&#x2717;&#x20de;" horiz-adv-x="3912" 
d="M180 -832c-224 0 -326 120 -288 344l500 3024c38 224 178 344 402 344h3024c224 0 324 -120 286 -344l-500 -3024c-38 -224 -176 -344 -400 -344h-3024zM184 -600h3092c46 0 82 32 90 78l512 3092c8 46 -18 78 -64 78h-3092c-46 0 -84 -32 -92 -78l-512 -3092
c-8 -46 20 -78 66 -78zM1356 328l-144 168l631 541l-443 527l168 144l443 -527l629 539l144 -168l-631 -541l443 -527l-168 -144l-443 527z" />
    <glyph glyph-name=".notdef" horiz-adv-x="2800" 
d="M248 -640v512h2304v-512h-2304zM248 64v512h2304v-512h-2304zM248 768v512h2304v-512h-2304zM248 1472v512h2304v-512h-2304zM248 2176v512h2304v-512h-2304z" />
    <glyph glyph-name=".null" 
 />
    <glyph glyph-name="uni0041" unicode="A" horiz-adv-x="1904" 
d="M204 0h-260l1092 2048h256l412 -2048h-260l-109 580h-828zM622 800h672l-174 924h-16z" />
    <glyph glyph-name="uni00C4" unicode="&#xc4;" horiz-adv-x="1904" 
d="M204 0h-260l1092 2048h256l412 -2048h-260l-109 580h-828zM622 800h672l-174 924h-16zM1510 2304c-88 0 -160 80 -144 176c14 84 92 144 168 144c100 0 164 -76 148 -176c-12 -76 -84 -144 -172 -144zM934 2304c-88 0 -157 84 -144 176c12 84 92 144 168 144
c100 0 164 -76 148 -176c-12 -76 -84 -144 -172 -144z" />
    <glyph glyph-name="uni00C3" unicode="&#xc3;" horiz-adv-x="1904" 
d="M204 0h-260l1092 2048h256l412 -2048h-260l-109 580h-828zM622 800h672l-174 924h-16zM890 2252l-180 8c32 204 188 348 360 348c152 0 200 -128 344 -128c76 0 148 68 160 152l176 -16c-32 -208 -188 -340 -360 -340c-184 0 -188 128 -340 128c-76 0 -144 -68 -160 -152
z" />
    <glyph glyph-name="uni00C0" unicode="&#xc0;" horiz-adv-x="1904" 
d="M204 0h-260l1092 2048h256l412 -2048h-260l-109 580h-828zM622 800h672l-174 924h-16zM1100 2256l-232 464h276l164 -464h-208z" />
    <glyph glyph-name="uni00C1" unicode="&#xc1;" horiz-adv-x="1904" 
d="M204 0h-260l1092 2048h256l412 -2048h-260l-109 580h-828zM622 800h672l-174 924h-16zM1092 2256l320 464h276l-388 -464h-208z" />
    <glyph glyph-name="uni00C2" unicode="&#xc2;" horiz-adv-x="1904" 
d="M204 0h-260l1092 2048h256l412 -2048h-260l-109 580h-828zM622 800h672l-174 924h-16zM987 2232h-224l4 16l394 416h216l254 -416l-4 -16h-224l-161 280z" />
    <glyph glyph-name="uni00C5" unicode="&#xc5;" horiz-adv-x="1904" 
d="M204 0h-260l1092 2048h256l412 -2048h-260l-109 580h-828zM1188 2184c-180 0 -308 140 -280 312s196 312 380 312c183 0 316 -138 284 -312c-34 -184 -182 -312 -384 -312zM622 800h672l-174 924h-16zM1212 2336c89 0 181 73 192 160c13 95 -41 160 -140 160
c-86 0 -173 -77 -188 -160c-16 -91 44 -160 136 -160z" />
    <glyph glyph-name="uni0100" unicode="&#x100;" horiz-adv-x="1904" 
d="M204 0h-260l1092 2048h256l412 -2048h-260l-109 580h-828zM622 800h672l-174 924h-16zM1720 2560l-32 -200h-936l32 200h936z" />
    <glyph glyph-name="uni0102" unicode="&#x102;" horiz-adv-x="1904" 
d="M204 0h-260l1092 2048h256l412 -2048h-260l-109 580h-828zM622 800h672l-174 924h-16zM1446 2560h220c-36 -216 -222 -368 -478 -368c-252 0 -386 152 -350 368h220c-18 -104 20 -196 160 -196s210 92 228 196z" />
    <glyph glyph-name="uni0104" unicode="&#x104;" horiz-adv-x="1904" 
d="M204 0h-260l1092 2048h256l412 -2048c-132 -88 -260 -184 -280 -304c-12 -60 8 -96 88 -96c60 0 108 20 140 36l-12 -176c-48 -28 -128 -60 -224 -60c-164 0 -268 92 -240 264c19 115 100 233 270 336h-2l-109 580h-828zM622 800h672l-174 924h-16z" />
    <glyph glyph-name="uni01CD" unicode="&#x1cd;" horiz-adv-x="1904" 
d="M204 0h-260l1092 2048h256l412 -2048h-260l-109 580h-828zM622 800h672l-174 924h-16zM1058 2664l162 -280l254 280h224l-2 -16l-392 -416h-216l-256 416l2 16h224z" />
    <glyph glyph-name="uni01DE" unicode="&#x1de;" horiz-adv-x="1904" 
d="M204 0h-260l1092 2048h256l412 -2048h-260l-109 580h-828zM622 800h672l-174 924h-16zM1798 3072l-32 -200h-936l32 200h936zM1510 2304c-88 0 -160 80 -144 176c14 84 92 144 168 144c100 0 164 -76 148 -176c-12 -76 -84 -144 -172 -144zM934 2304
c-88 0 -157 84 -144 176c12 84 92 144 168 144c100 0 164 -76 148 -176c-12 -76 -84 -144 -172 -144z" />
    <glyph glyph-name="uni01E0" unicode="&#x1e0;" horiz-adv-x="1904" 
d="M204 0h-260l1092 2048h256l412 -2048h-260l-109 580h-828zM622 800h672l-174 924h-16zM1772 2960l-32 -200h-936l32 200h936zM1224 2228c-92 0 -168 72 -168 160s76 160 168 160s168 -72 168 -160s-76 -160 -168 -160z" />
    <glyph glyph-name="uni01FA" unicode="&#x1fa;" horiz-adv-x="1904" 
d="M204 0h-260l1092 2048h256l412 -2048h-260l-109 580h-828zM622 800h672l-174 924h-16zM1184 2160c-128 0 -220 104 -200 232c24 128 148 232 276 232c132 0 220 -104 196 -232c-20 -128 -140 -232 -272 -232zM1172 2688l240 248h272l-344 -248h-168zM1204 2296
c56 0 104 44 112 96c8 48 -24 92 -80 92c-52 0 -104 -44 -112 -92c-8 -52 28 -96 80 -96z" />
    <glyph glyph-name="uni0200" unicode="&#x200;" horiz-adv-x="1904" 
d="M204 0h-260l1092 2048h256l412 -2048h-260l-109 580h-828zM622 800h672l-174 924h-16zM1314 2256l-168 464h300l74 -464h-206zM890 2256l-254 464h294l168 -464h-208z" />
    <glyph glyph-name="uni0202" unicode="&#x202;" horiz-adv-x="1904" 
d="M204 0h-260l1092 2048h256l412 -2048h-260l-109 580h-828zM622 800h672l-174 924h-16zM794 2304c36 216 220 372 476 372s388 -156 352 -372h-220c16 108 -24 200 -160 200c-144 0 -212 -96 -228 -200h-220z" />
    <glyph glyph-name="uni0226" unicode="&#x226;" horiz-adv-x="1904" 
d="M204 0h-260l1092 2048h256l412 -2048h-260l-109 580h-828zM622 800h672l-174 924h-16zM1234 2304c-92 0 -168 72 -168 160s76 160 168 160s168 -72 168 -160s-76 -160 -168 -160z" />
    <glyph glyph-name="uni1E00" unicode="&#x1e00;" horiz-adv-x="1904" 
d="M204 0h-260l1092 2048h256l412 -2048h-260l-109 580h-828zM622 800h672l-174 924h-16zM496 -336c24 136 148 232 284 232c128 0 228 -96 204 -232c-20 -140 -152 -232 -280 -232c-136 0 -228 92 -208 232zM620 -336c-12 -68 32 -120 100 -120c60 0 128 52 140 120
s-40 120 -100 120c-68 0 -128 -52 -140 -120z" />
    <glyph glyph-name="uni1EA0" unicode="&#x1ea0;" horiz-adv-x="1904" 
d="M204 0h-260l1092 2048h256l412 -2048h-260l-109 580h-828zM622 800h672l-174 924h-16zM768 -504c-92 0 -168 72 -168 160s76 160 168 160s168 -72 168 -160s-76 -160 -168 -160z" />
    <glyph glyph-name="uni1EA2" unicode="&#x1ea2;" horiz-adv-x="1904" 
d="M204 0h-260l1092 2048h256l412 -2048h-260l-109 580h-828zM622 800h672l-174 924h-16zM1304 2256h-196l36 216c140 8 196 36 208 100c12 72 -80 104 -200 104l36 152c276 0 400 -104 376 -264c-24 -136 -136 -192 -244 -208z" />
    <glyph glyph-name="uni1EA4" unicode="&#x1ea4;" horiz-adv-x="1904" 
d="M204 0h-260l1092 2048h256l412 -2048h-260l-109 580h-828zM622 800h672l-174 924h-16zM684 2240l468 364h220l348 -364h-288l-196 212l-260 -212h-292zM1652 2484l256 360h292l-340 -360h-208z" />
    <glyph glyph-name="uni1EA6" unicode="&#x1ea6;" horiz-adv-x="1904" 
d="M204 0h-260l1092 2048h256l412 -2048h-260l-109 580h-828zM622 800h672l-174 924h-16zM1364 2600l348 -364h-288l-192 212l-264 -212h-288l464 364h220zM696 2844l132 -364h-204l-224 364h296z" />
    <glyph glyph-name="uni1EA8" unicode="&#x1ea8;" horiz-adv-x="1904" 
d="M204 0h-260l1092 2048h256l412 -2048h-260l-109 580h-828zM622 800h672l-174 924h-16zM1392 2576l320 -364h-248l-232 252l-308 -252h-248l440 364h276zM1784 2404h-168l28 184c112 8 168 24 180 84c8 64 -68 88 -176 88l32 132c240 0 348 -88 324 -224
c-20 -120 -116 -168 -208 -180z" />
    <glyph glyph-name="uni1EAA" unicode="&#x1eaa;" horiz-adv-x="1904" 
d="M204 0h-260l1092 2048h256l412 -2048h-260l-109 580h-828zM622 800h672l-174 924h-16zM1332 2520l368 -336h-248l-236 212l-300 -212h-248l472 336h192zM1544 2872l108 -32c-20 -108 -136 -216 -264 -216c-136 0 -152 96 -260 96c-56 0 -124 -52 -132 -100l-104 28
c16 108 132 220 260 220c112 0 156 -92 260 -92c56 0 124 48 132 96z" />
    <glyph glyph-name="uni1EAC" unicode="&#x1eac;" horiz-adv-x="1904" 
d="M204 0h-260l1092 2048h256l412 -2048h-260l-109 580h-828zM622 800h672l-174 924h-16zM987 2232h-224l4 16l394 416h216l254 -416l-4 -16h-224l-161 280zM768 -504c-92 0 -168 72 -168 160s76 160 168 160s168 -72 168 -160s-76 -160 -168 -160z" />
    <glyph glyph-name="uni1EAE" unicode="&#x1eae;" horiz-adv-x="1904" 
d="M204 0h-260l1092 2048h256l412 -2048h-260l-109 580h-828zM622 800h672l-174 924h-16zM1432 2516h224c-28 -168 -208 -288 -468 -288s-400 120 -372 288h224c-12 -84 28 -156 172 -156c140 0 208 72 220 156zM1160 2548l196 272h224l-272 -272h-148z" />
    <glyph glyph-name="uni1EB0" unicode="&#x1eb0;" horiz-adv-x="1904" 
d="M204 0h-260l1092 2048h256l412 -2048h-260l-109 580h-828zM622 800h672l-174 924h-16zM1432 2516h224c-28 -168 -208 -288 -468 -288s-400 120 -372 288h224c-12 -84 28 -156 172 -156c140 0 208 72 220 156zM1192 2548l-176 272h224l100 -272h-148z" />
    <glyph glyph-name="uni1EB2" unicode="&#x1eb2;" horiz-adv-x="1904" 
d="M204 0h-260l1092 2048h256l412 -2048h-260l-109 580h-828zM622 800h672l-174 924h-16zM1420 2544h216c-28 -168 -200 -288 -452 -288c-248 0 -384 120 -356 288h216c-12 -84 28 -156 164 -156s200 72 212 156zM1344 2572h-188l28 176c132 4 188 20 200 72
c8 56 -80 76 -200 76l32 116c268 0 388 -80 368 -196c-16 -104 -124 -144 -224 -156z" />
    <glyph glyph-name="uni1EB4" unicode="&#x1eb4;" horiz-adv-x="1904" 
d="M204 0h-260l1092 2048h256l412 -2048h-260l-109 580h-828zM622 800h672l-174 924h-16zM1428 2556h220c-28 -172 -204 -296 -460 -296c-252 0 -392 124 -364 296h220c-12 -84 28 -160 168 -160s204 76 216 160zM1584 2960l112 -36c-20 -136 -136 -248 -272 -248
c-148 0 -168 100 -288 100c-60 0 -116 -52 -128 -120l-120 28c24 132 140 256 276 256c120 0 172 -100 288 -100c60 0 120 52 132 120z" />
    <glyph glyph-name="uni1EB6" unicode="&#x1eb6;" horiz-adv-x="1904" 
d="M204 0h-260l1092 2048h256l412 -2048h-260l-109 580h-828zM622 800h672l-174 924h-16zM1446 2560h220c-36 -216 -222 -368 -478 -368c-252 0 -386 152 -350 368h220c-18 -104 20 -196 160 -196s210 92 228 196zM768 -504c-92 0 -168 72 -168 160s76 160 168 160
s168 -72 168 -160s-76 -160 -168 -160z" />
    <glyph glyph-name="uni0391" unicode="&#x391;" horiz-adv-x="1904" 
d="M204 0h-260l1092 2048h256l412 -2048h-260l-109 580h-828zM622 800h672l-174 924h-16z" />
    <glyph glyph-name="uni0386" unicode="&#x386;" horiz-adv-x="1904" 
d="M204 0h-260l1092 2048h256l412 -2048h-260l-109 580h-828zM622 800h672l-174 924h-16zM496 1708l144 468h256l-236 -468h-164z" />
    <glyph glyph-name="uni1F08" unicode="&#x1f08;" horiz-adv-x="1904" 
d="M204 0h-260l1092 2048h256l412 -2048h-260l-109 580h-828zM622 800h672l-174 924h-16zM812 2048l-16 -112c-28 -160 -140 -296 -316 -384l-96 84c92 84 144 176 164 308l16 104h248z" />
    <glyph glyph-name="uni1F09" unicode="&#x1f09;" horiz-adv-x="1904" 
d="M204 0h-260l1092 2048h256l412 -2048h-260l-109 580h-828zM622 800h672l-174 924h-16zM448 1936l20 112h248l-16 -104c-24 -132 -4 -224 60 -308l-124 -84c-144 88 -212 224 -188 384z" />
    <glyph glyph-name="uni1F0A" unicode="&#x1f0a;" horiz-adv-x="1904" 
d="M204 0h-260l1092 2048h256l412 -2048h-260l-109 580h-828zM622 800h672l-174 924h-16zM288 2048l-16 -112c-28 -160 -144 -296 -316 -384l-96 84c88 84 144 176 164 308l16 104h248zM724 1604l-4 -20h-128l-244 436l4 28h288z" />
    <glyph glyph-name="uni1F0B" unicode="&#x1f0b;" horiz-adv-x="1904" 
d="M204 0h-260l1092 2048h256l412 -2048h-260l-109 580h-828zM622 800h672l-174 924h-16zM16 1936l20 112h248l-16 -104c-24 -132 -4 -224 60 -308l-124 -84c-144 88 -212 224 -188 384zM748 1604l-4 -20h-128l-244 436l4 28h292z" />
    <glyph glyph-name="uni1F0C" unicode="&#x1f0c;" horiz-adv-x="1904" 
d="M204 0h-260l1092 2048h256l412 -2048h-260l-109 580h-828zM622 800h672l-174 924h-16zM388 2048l-20 -112c-24 -160 -140 -296 -316 -384l-92 84c84 84 140 176 164 308l16 104h248zM332 1584l4 20l228 444h288l-4 -28l-388 -436h-128z" />
    <glyph glyph-name="uni1F0D" unicode="&#x1f0d;" horiz-adv-x="1904" 
d="M204 0h-260l1092 2048h256l412 -2048h-260l-109 580h-828zM622 800h672l-174 924h-16zM-48 1936l20 112h248l-16 -104c-24 -132 0 -224 60 -308l-124 -84c-144 88 -212 224 -188 384zM308 1584l4 20l224 444h292l-4 -28l-388 -436h-128z" />
    <glyph glyph-name="uni1F0E" unicode="&#x1f0e;" horiz-adv-x="1904" 
d="M204 0h-260l1092 2048h256l412 -2048h-260l-109 580h-828zM622 800h672l-174 924h-16zM852 2376l116 -36c-24 -132 -136 -248 -272 -248c-148 0 -168 100 -288 100c-60 0 -116 -52 -128 -120l-116 32c24 132 136 256 272 256c124 0 168 -104 284 -104
c60 0 124 52 132 120zM664 2024l-16 -96c-16 -104 -96 -236 -220 -316l-108 68c68 76 104 152 120 244l16 100h208z" />
    <glyph glyph-name="uni1F0F" unicode="&#x1f0f;" horiz-adv-x="1904" 
d="M204 0h-260l1092 2048h256l412 -2048h-260l-109 580h-828zM622 800h672l-174 924h-16zM852 2372l116 -36c-24 -132 -136 -248 -272 -248c-148 0 -168 100 -288 100c-60 0 -116 -52 -128 -120l-116 32c24 132 136 256 272 256c124 0 168 -104 284 -104
c60 0 124 52 132 120zM428 1924l16 96h208l-16 -100c-16 -92 -4 -168 40 -244l-136 -68c-100 80 -128 212 -112 316z" />
    <glyph glyph-name="uni1FB8" unicode="&#x1fb8;" horiz-adv-x="1904" 
d="M204 0h-260l1092 2048h256l412 -2048h-260l-109 580h-828zM622 800h672l-174 924h-16zM1446 2560h220c-36 -216 -222 -368 -478 -368c-252 0 -386 152 -350 368h220c-18 -104 20 -196 160 -196s210 92 228 196z" />
    <glyph glyph-name="uni1FB9" unicode="&#x1fb9;" horiz-adv-x="1904" 
d="M204 0h-260l1092 2048h256l412 -2048h-260l-109 580h-828zM622 800h672l-174 924h-16zM1720 2560l-32 -200h-936l32 200h936z" />
    <glyph glyph-name="uni1FBA" unicode="&#x1fba;" horiz-adv-x="1904" 
d="M204 0h-260l1092 2048h256l412 -2048h-260l-109 580h-828zM622 800h672l-174 924h-16zM692 1580h-132l-244 440v28h292l84 -444v-24z" />
    <glyph glyph-name="uni023A" unicode="&#x23a;" horiz-adv-x="1904" 
d="M1828 2308l-425 -814l301 -1494h-260l-109 580h-409l-438 -840h-228l438 840h-191l-303 -580h-260l1092 2048h256l48 -238l260 498h228zM813 800l353 677l-46 247h-16l-482 -924h191zM1227 1156l-186 -356h253z" />
    <glyph glyph-name="uni1FBB" unicode="&#x1fbb;" horiz-adv-x="1904" 
d="M204 0h-260l1092 2048h256l412 -2048h-260l-109 580h-828zM622 800h672l-174 924h-16zM506 1728l4 24l226 444h292l-4 -28l-390 -440h-128z" />
    <glyph glyph-name="uni0410" unicode="&#x410;" horiz-adv-x="1904" 
d="M204 0h-260l1092 2048h256l412 -2048h-260l-109 580h-828zM622 800h672l-174 924h-16z" />
    <glyph glyph-name="uni04D0" unicode="&#x4d0;" horiz-adv-x="1904" 
d="M204 0h-260l1092 2048h256l412 -2048h-260l-109 580h-828zM622 800h672l-174 924h-16zM1446 2560h220c-36 -216 -222 -368 -478 -368c-252 0 -386 152 -350 368h220c-18 -104 20 -196 160 -196s210 92 228 196z" />
    <glyph glyph-name="uni04D2" unicode="&#x4d2;" horiz-adv-x="1904" 
d="M204 0h-260l1092 2048h256l412 -2048h-260l-109 580h-828zM622 800h672l-174 924h-16zM1510 2304c-88 0 -160 80 -144 176c14 84 92 144 168 144c100 0 164 -76 148 -176c-12 -76 -84 -144 -172 -144zM934 2304c-88 0 -157 84 -144 176c12 84 92 144 168 144
c100 0 164 -76 148 -176c-12 -76 -84 -144 -172 -144z" />
    <glyph glyph-name="uni1F88" unicode="&#x1f88;" horiz-adv-x="1904" 
d="M204 0h-260l1092 2048h256l412 -2048h-260l-109 580h-828zM622 800h672l-174 924h-16zM840 -680c-136 0 -220 76 -190 256l50 304h208l-48 -300c-14 -80 10 -108 50 -108c20 0 48 4 60 4l-24 -140c-20 -8 -54 -16 -106 -16zM812 2048l-16 -112
c-28 -160 -140 -296 -316 -384l-96 84c92 84 144 176 164 308l16 104h248z" />
    <glyph glyph-name="uni1F89" unicode="&#x1f89;" horiz-adv-x="1904" 
d="M204 0h-260l1092 2048h256l412 -2048h-260l-109 580h-828zM622 800h672l-174 924h-16zM840 -680c-136 0 -220 76 -190 256l50 304h208l-48 -300c-14 -80 10 -108 50 -108c20 0 48 4 60 4l-24 -140c-20 -8 -54 -16 -106 -16zM448 1936l20 112h248l-16 -104
c-24 -132 -4 -224 60 -308l-124 -84c-144 88 -212 224 -188 384z" />
    <glyph glyph-name="uni1F8A" unicode="&#x1f8a;" horiz-adv-x="1904" 
d="M204 0h-260l1092 2048h256l412 -2048h-260l-109 580h-828zM622 800h672l-174 924h-16zM840 -680c-136 0 -220 76 -190 256l50 304h208l-48 -300c-14 -80 10 -108 50 -108c20 0 48 4 60 4l-24 -140c-20 -8 -54 -16 -106 -16zM288 2048l-16 -112
c-28 -160 -144 -296 -316 -384l-96 84c88 84 144 176 164 308l16 104h248zM724 1604l-4 -20h-128l-244 436l4 28h288z" />
    <glyph glyph-name="uni1F8B" unicode="&#x1f8b;" horiz-adv-x="1904" 
d="M204 0h-260l1092 2048h256l412 -2048h-260l-109 580h-828zM622 800h672l-174 924h-16zM840 -680c-136 0 -220 76 -190 256l50 304h208l-48 -300c-14 -80 10 -108 50 -108c20 0 48 4 60 4l-24 -140c-20 -8 -54 -16 -106 -16zM16 1936l20 112h248l-16 -104
c-24 -132 -4 -224 60 -308l-124 -84c-144 88 -212 224 -188 384zM748 1604l-4 -20h-128l-244 436l4 28h292z" />
    <glyph glyph-name="uni1F8C" unicode="&#x1f8c;" horiz-adv-x="1904" 
d="M204 0h-260l1092 2048h256l412 -2048h-260l-109 580h-828zM622 800h672l-174 924h-16zM840 -680c-136 0 -220 76 -190 256l50 304h208l-48 -300c-14 -80 10 -108 50 -108c20 0 48 4 60 4l-24 -140c-20 -8 -54 -16 -106 -16zM388 2048l-20 -112
c-24 -160 -140 -296 -316 -384l-92 84c84 84 140 176 164 308l16 104h248zM332 1584l4 20l228 444h288l-4 -28l-388 -436h-128z" />
    <glyph glyph-name="uni1F8D" unicode="&#x1f8d;" horiz-adv-x="1904" 
d="M204 0h-260l1092 2048h256l412 -2048h-260l-109 580h-828zM622 800h672l-174 924h-16zM840 -680c-136 0 -220 76 -190 256l50 304h208l-48 -300c-14 -80 10 -108 50 -108c20 0 48 4 60 4l-24 -140c-20 -8 -54 -16 -106 -16zM-48 1936l20 112h248l-16 -104
c-24 -132 0 -224 60 -308l-124 -84c-144 88 -212 224 -188 384zM308 1584l4 20l224 444h292l-4 -28l-388 -436h-128z" />
    <glyph glyph-name="uni1F8E" unicode="&#x1f8e;" horiz-adv-x="1904" 
d="M204 0h-260l1092 2048h256l412 -2048h-260l-109 580h-828zM622 800h672l-174 924h-16zM852 2376l116 -36c-24 -132 -136 -248 -272 -248c-148 0 -168 100 -288 100c-60 0 -116 -52 -128 -120l-116 32c24 132 136 256 272 256c124 0 168 -104 284 -104
c60 0 124 52 132 120zM840 -680c-136 0 -220 76 -190 256l50 304h208l-48 -300c-14 -80 10 -108 50 -108c20 0 48 4 60 4l-24 -140c-20 -8 -54 -16 -106 -16zM664 2024l-16 -96c-16 -104 -96 -236 -220 -316l-108 68c68 76 104 152 120 244l16 100h208z" />
    <glyph glyph-name="uni1F8F" unicode="&#x1f8f;" horiz-adv-x="1904" 
d="M204 0h-260l1092 2048h256l412 -2048h-260l-109 580h-828zM622 800h672l-174 924h-16zM852 2372l116 -36c-24 -132 -136 -248 -272 -248c-148 0 -168 100 -288 100c-60 0 -116 -52 -128 -120l-116 32c24 132 136 256 272 256c124 0 168 -104 284 -104
c60 0 124 52 132 120zM840 -680c-136 0 -220 76 -190 256l50 304h208l-48 -300c-14 -80 10 -108 50 -108c20 0 48 4 60 4l-24 -140c-20 -8 -54 -16 -106 -16zM428 1924l16 96h208l-16 -100c-16 -92 -4 -168 40 -244l-136 -68c-100 80 -128 212 -112 316z" />
    <glyph glyph-name="uni1FBC" unicode="&#x1fbc;" horiz-adv-x="1904" 
d="M204 0h-260l1092 2048h256l412 -2048h-260l-109 580h-828zM622 800h672l-174 924h-16zM840 -680c-136 0 -220 76 -190 256l50 304h208l-48 -300c-14 -80 10 -108 50 -108c20 0 48 4 60 4l-24 -140c-20 -8 -54 -16 -106 -16z" />
    <glyph glyph-name="uni039B" unicode="&#x39b;" horiz-adv-x="1904" 
d="M204 0h-260l1092 2048h256l412 -2048h-260l-320 1724h-24z" />
    <glyph glyph-name="uni00C6" unicode="&#xc6;" horiz-adv-x="2788" 
d="M-56 0l1332 2048h1524l-36 -220h-988l-116 -692h924l-36 -220h-924l-116 -696h1004l-36 -220h-1252l96 580h-735l-369 -580h-272zM725 800h632l171 1028h-148z" />
    <glyph glyph-name="uni01E2" unicode="&#x1e2;" horiz-adv-x="2788" 
d="M-56 0l1332 2048h1524l-36 -220h-988l-116 -692h924l-36 -220h-924l-116 -696h1004l-36 -220h-1252l96 580h-735l-369 -580h-272zM725 800h632l171 1028h-148zM2588 2560l-32 -200h-936l32 200h936z" />
    <glyph glyph-name="uni01FC" unicode="&#x1fc;" horiz-adv-x="2788" 
d="M-56 0l1332 2048h1524l-36 -220h-988l-116 -692h924l-36 -220h-924l-116 -696h1004l-36 -220h-1252l96 580h-735l-369 -580h-272zM725 800h632l171 1028h-148zM1960 2256l320 464h276l-388 -464h-208z" />
    <glyph glyph-name="uni04D4" unicode="&#x4d4;" horiz-adv-x="2788" 
d="M-56 0l1332 2048h1524l-36 -220h-988l-116 -692h924l-36 -220h-924l-116 -696h1004l-36 -220h-1252l96 580h-735l-369 -580h-272zM725 800h632l171 1028h-148z" />
    <glyph glyph-name="uni0042" unicode="B" horiz-adv-x="1832" 
d="M120 0l340 2048h716c428 0 588 -244 536 -544c-44 -264 -220 -380 -400 -428l-4 -20c184 -12 380 -188 328 -512c-52 -308 -292 -544 -776 -544h-740zM404 220h492c324 0 472 144 504 324c32 208 -104 388 -372 388h-504zM560 1148h460c224 0 424 140 456 356
c32 180 -64 324 -336 324h-468z" />
    <glyph glyph-name="uni1E02" unicode="&#x1e02;" horiz-adv-x="1832" 
d="M120 0l340 2048h716c428 0 588 -244 536 -544c-44 -264 -220 -380 -400 -428l-4 -20c184 -12 380 -188 328 -512c-52 -308 -292 -544 -776 -544h-740zM404 220h492c324 0 472 144 504 324c32 208 -104 388 -372 388h-504zM560 1148h460c224 0 424 140 456 356
c32 180 -64 324 -336 324h-468zM1158 2304c-92 0 -168 72 -168 160s76 160 168 160s168 -72 168 -160s-76 -160 -168 -160z" />
    <glyph glyph-name="uni1E04" unicode="&#x1e04;" horiz-adv-x="1832" 
d="M120 0l340 2048h716c428 0 588 -244 536 -544c-44 -264 -220 -380 -400 -428l-4 -20c184 -12 380 -188 328 -512c-52 -308 -292 -544 -776 -544h-740zM404 220h492c324 0 472 144 504 324c32 208 -104 388 -372 388h-504zM560 1148h460c224 0 424 140 456 356
c32 180 -64 324 -336 324h-468zM704 -504c-92 0 -168 72 -168 160s76 160 168 160s168 -72 168 -160s-76 -160 -168 -160z" />
    <glyph glyph-name="uni1E06" unicode="&#x1e06;" horiz-adv-x="1832" 
d="M120 0l340 2048h716c428 0 588 -244 536 -544c-44 -264 -220 -380 -400 -428l-4 -20c184 -12 380 -188 328 -512c-52 -308 -292 -544 -776 -544h-740zM404 220h492c324 0 472 144 504 324c32 208 -104 388 -372 388h-504zM560 1148h460c224 0 424 140 456 356
c32 180 -64 324 -336 324h-468zM1186 -252l-32 -200h-936l32 200h936z" />
    <glyph glyph-name="uni0243" unicode="&#x243;" horiz-adv-x="1988" 
d="M280 0l80 484h-320l32 184h319l229 1380h716c428 0 588 -244 536 -544c-44 -264 -220 -380 -400 -428l-4 -20c184 -12 380 -188 328 -512c-52 -308 -292 -544 -776 -544h-740zM564 220h492c324 0 472 144 504 324c32 208 -104 388 -372 388h-504l-44 -264h312l-32 -184
h-312zM720 1148h460c224 0 424 140 456 356c32 180 -64 324 -336 324h-468z" />
    <glyph glyph-name="uni0181" unicode="&#x181;" horiz-adv-x="2260" 
d="M548 0l303 1828h-127c-159 0 -200 -120 -220 -248l-12 -76h-232l20 136c33 225 213 408 476 408h848c428 0 588 -244 536 -544c-44 -264 -220 -380 -400 -428l-4 -20c184 -12 380 -188 328 -512c-52 -308 -292 -544 -776 -544h-740zM832 220h492c324 0 472 144 504 324
c32 208 -104 388 -372 388h-504zM988 1148h460c224 0 424 140 456 356c32 180 -64 324 -336 324h-468z" />
    <glyph glyph-name="uni0412" unicode="&#x412;" horiz-adv-x="1832" 
d="M120 0l340 2048h716c428 0 588 -244 536 -544c-44 -264 -220 -380 -400 -428l-4 -20c184 -12 380 -188 328 -512c-52 -308 -292 -544 -776 -544h-740zM404 220h492c324 0 472 144 504 324c32 208 -104 388 -372 388h-504zM560 1148h460c224 0 424 140 456 356
c32 180 -64 324 -336 324h-468z" />
    <glyph glyph-name="uni0392" unicode="&#x392;" horiz-adv-x="1832" 
d="M120 0l340 2048h716c428 0 588 -244 536 -544c-44 -264 -220 -380 -400 -428l-4 -20c184 -12 380 -188 328 -512c-52 -308 -292 -544 -776 -544h-740zM404 220h492c324 0 472 144 504 324c32 208 -104 388 -372 388h-504zM560 1148h460c224 0 424 140 456 356
c32 180 -64 324 -336 324h-468z" />
    <glyph glyph-name="uni0043" unicode="C" horiz-adv-x="2048" 
d="M2000 1408h-244c-12 284 -228 436 -492 436c-380 0 -728 -296 -816 -836c-88 -524 152 -804 516 -804c280 0 556 152 664 436h248c-148 -420 -516 -668 -920 -668c-532 0 -852 412 -744 1068c108 640 544 1036 1064 1036c416 0 716 -248 724 -668z" />
    <glyph glyph-name="uni0187" unicode="&#x187;" horiz-adv-x="2172" 
d="M2000 1408h-244c-12 284 -228 436 -492 436c-380 0 -728 -296 -816 -836c-88 -524 152 -804 516 -804c280 0 556 152 664 436h248c-148 -420 -516 -668 -920 -668c-532 0 -852 412 -744 1068c108 640 544 1036 1064 1036c249 0 457 -89 585 -251c83 163 241 251 415 251
c47 0 99 0 132 -12l-32 -200c-19 4 -46 8 -76 8c-126 0 -229 -48 -256 -208z" />
    <glyph glyph-name="uni00C7" unicode="&#xc7;" horiz-adv-x="2048" 
d="M2000 1408h-244c-12 284 -228 436 -492 436c-380 0 -728 -296 -816 -836c-88 -524 152 -804 516 -804c280 0 556 152 664 436h248c-137 -389 -462 -630 -830 -664l-26 -64c104 -16 196 -80 168 -236c-28 -172 -192 -292 -468 -292l20 156c124 0 220 36 236 128
s-44 116 -196 128l70 182c-468 51 -739 451 -638 1062c108 640 544 1036 1064 1036c416 0 716 -248 724 -668z" />
    <glyph glyph-name="uni0106" unicode="&#x106;" horiz-adv-x="2048" 
d="M2000 1408h-244c-12 284 -228 436 -492 436c-380 0 -728 -296 -816 -836c-88 -524 152 -804 516 -804c280 0 556 152 664 436h248c-148 -420 -516 -668 -920 -668c-532 0 -852 412 -744 1068c108 640 544 1036 1064 1036c416 0 716 -248 724 -668zM1216 2256l320 464h276
l-388 -464h-208z" />
    <glyph glyph-name="uni0108" unicode="&#x108;" horiz-adv-x="2048" 
d="M2000 1408h-244c-12 284 -228 436 -492 436c-380 0 -728 -296 -816 -836c-88 -524 152 -804 516 -804c280 0 556 152 664 436h248c-148 -420 -516 -668 -920 -668c-532 0 -852 412 -744 1068c108 640 544 1036 1064 1036c416 0 716 -248 724 -668zM1111 2232h-224l4 16
l394 416h216l254 -416l-4 -16h-224l-161 280z" />
    <glyph glyph-name="uni010A" unicode="&#x10a;" horiz-adv-x="2048" 
d="M2000 1408h-244c-12 284 -228 436 -492 436c-380 0 -728 -296 -816 -836c-88 -524 152 -804 516 -804c280 0 556 152 664 436h248c-148 -420 -516 -668 -920 -668c-532 0 -852 412 -744 1068c108 640 544 1036 1064 1036c416 0 716 -248 724 -668zM1358 2304
c-92 0 -168 72 -168 160s76 160 168 160s168 -72 168 -160s-76 -160 -168 -160z" />
    <glyph glyph-name="uni010C" unicode="&#x10c;" horiz-adv-x="2048" 
d="M2000 1408h-244c-12 284 -228 436 -492 436c-380 0 -728 -296 -816 -836c-88 -524 152 -804 516 -804c280 0 556 152 664 436h248c-148 -420 -516 -668 -920 -668c-532 0 -852 412 -744 1068c108 640 544 1036 1064 1036c416 0 716 -248 724 -668zM1182 2664l162 -280
l254 280h224l-2 -16l-392 -416h-216l-256 416l2 16h224z" />
    <glyph glyph-name="uni1E08" unicode="&#x1e08;" horiz-adv-x="2048" 
d="M2000 1408h-244c-12 284 -228 436 -492 436c-380 0 -728 -296 -816 -836c-88 -524 152 -804 516 -804c280 0 556 152 664 436h248c-137 -389 -462 -630 -830 -664l-26 -64c104 -16 196 -80 168 -236c-28 -172 -192 -292 -468 -292l20 156c124 0 220 36 236 128
s-44 116 -196 128l70 182c-468 51 -739 451 -638 1062c108 640 544 1036 1064 1036c416 0 716 -248 724 -668zM1216 2256l320 464h276l-388 -464h-208z" />
    <glyph glyph-name="uni023B" unicode="&#x23b;" horiz-adv-x="2048" 
d="M292 -260l195 374c-234 174 -345 498 -275 926c108 640 544 1036 1064 1036c78 0 153 -9 221 -26l135 258h228l-174 -333c190 -110 309 -305 314 -567h-244c-7 159 -77 276 -184 349l-795 -1525c57 -19 120 -28 187 -28c280 0 556 152 664 436h248
c-148 -420 -516 -668 -920 -668c-106 0 -203 16 -290 47l-146 -279h-228zM602 334l782 1499c-38 7 -79 11 -120 11c-380 0 -728 -296 -816 -836c-53 -316 13 -543 154 -674z" />
    <glyph glyph-name="uni0186" unicode="&#x186;" horiz-adv-x="2050" 
d="M260 1408c147 420 529 668 945 668c520 0 825 -396 721 -1036c-109 -656 -565 -1068 -1097 -1068c-404 0 -690 248 -699 668h248c14 -284 240 -436 520 -436c364 0 696 280 782 804c91 540 -159 836 -539 836c-264 0 -531 -152 -637 -436h-244z" />
    <glyph glyph-name="uni03F9" unicode="&#x3f9;" horiz-adv-x="2048" 
d="M2000 1408h-244c-12 284 -228 436 -492 436c-380 0 -728 -296 -816 -836c-88 -524 152 -804 516 -804c280 0 556 152 664 436h248c-148 -420 -516 -668 -920 -668c-532 0 -852 412 -744 1068c108 640 544 1036 1064 1036c416 0 716 -248 724 -668z" />
    <glyph glyph-name="uni0044" unicode="D" horiz-adv-x="2024" 
d="M760 0h-640l340 2048h652c596 0 892 -392 784 -1036c-104 -632 -512 -1012 -1136 -1012zM405 220h363c508 0 808 316 892 824c84 488 -104 784 -584 784h-405z" />
    <glyph glyph-name="uni018A" unicode="&#x18a;" horiz-adv-x="2468" 
d="M260 1504l20 136c32 224 212 408 476 408h800c596 0 892 -392 784 -1036c-104 -632 -512 -1012 -1136 -1012h-640l303 1828h-143c-160 0 -200 -120 -220 -248l-12 -76h-232zM849 220h363c508 0 808 316 892 824c84 488 -104 784 -584 784h-405z" />
    <glyph glyph-name="uni010E" unicode="&#x10e;" horiz-adv-x="2024" 
d="M760 0h-640l340 2048h652c596 0 892 -392 784 -1036c-104 -632 -512 -1012 -1136 -1012zM405 220h363c508 0 808 316 892 824c84 488 -104 784 -584 784h-405zM1210 2664l162 -280l254 280h224l-2 -16l-392 -416h-216l-256 416l2 16h224z" />
    <glyph glyph-name="uni1E0A" unicode="&#x1e0a;" horiz-adv-x="2024" 
d="M760 0h-640l340 2048h652c596 0 892 -392 784 -1036c-104 -632 -512 -1012 -1136 -1012zM405 220h363c508 0 808 316 892 824c84 488 -104 784 -584 784h-405zM1386 2304c-92 0 -168 72 -168 160s76 160 168 160s168 -72 168 -160s-76 -160 -168 -160z" />
    <glyph glyph-name="uni1E0C" unicode="&#x1e0c;" horiz-adv-x="2024" 
d="M760 0h-640l340 2048h652c596 0 892 -392 784 -1036c-104 -632 -512 -1012 -1136 -1012zM405 220h363c508 0 808 316 892 824c84 488 -104 784 -584 784h-405zM544 -504c-92 0 -168 72 -168 160s76 160 168 160s168 -72 168 -160s-76 -160 -168 -160z" />
    <glyph glyph-name="uni1E0E" unicode="&#x1e0e;" horiz-adv-x="2024" 
d="M760 0h-640l340 2048h652c596 0 892 -392 784 -1036c-104 -632 -512 -1012 -1136 -1012zM405 220h363c508 0 808 316 892 824c84 488 -104 784 -584 784h-405zM1026 -252l-32 -200h-936l32 200h936z" />
    <glyph glyph-name="uni1E10" unicode="&#x1e10;" horiz-adv-x="2024" 
d="M760 0h-640l340 2048h652c596 0 892 -392 784 -1036c-104 -632 -512 -1012 -1136 -1012zM405 220h363c508 0 808 316 892 824c84 488 -104 784 -584 784h-405zM254 -680l198 518h242l-256 -518h-184z" />
    <glyph glyph-name="uni1E12" unicode="&#x1e12;" horiz-adv-x="2024" 
d="M760 0h-640l340 2048h652c596 0 892 -392 784 -1036c-104 -632 -512 -1012 -1136 -1012zM405 220h363c508 0 808 316 892 824c84 488 -104 784 -584 784h-405zM311 -560h-224l4 16l394 416h216l254 -416l-4 -16h-224l-161 280z" />
    <glyph glyph-name="uni0189" unicode="&#x189;" horiz-adv-x="2024" 
d="M760 0h-640l160 964h-268l32 184h267l149 900h652c596 0 892 -392 784 -1036c-104 -632 -512 -1012 -1136 -1012zM559 1148h365l-32 -184h-364l-123 -744h363c508 0 808 316 892 824c84 488 -104 784 -584 784h-405z" />
    <glyph glyph-name="uni01F2" unicode="&#x1f2;" horiz-adv-x="3548" 
d="M760 0h-640l340 2048h652c596 0 892 -392 784 -1036c-104 -632 -512 -1012 -1136 -1012zM405 220h363c508 0 808 316 892 824c84 488 -104 784 -584 784h-405zM2068 0l32 180l1056 1120l4 16h-844l36 220h1148l-32 -188l-1032 -1112l-4 -16h876l-36 -220h-1204z" />
    <glyph glyph-name="uni01C5" unicode="&#x1c5;" horiz-adv-x="3548" 
d="M760 0h-640l340 2048h652c596 0 892 -392 784 -1036c-104 -632 -512 -1012 -1136 -1012zM405 220h363c508 0 808 316 892 824c84 488 -104 784 -584 784h-405zM2068 0l32 180l1056 1120l4 16h-844l36 220h1148l-32 -188l-1032 -1112l-4 -16h876l-36 -220h-1204z
M2802 2152l162 -280l254 280h224l-2 -16l-392 -416h-216l-256 416l2 16h224z" />
    <glyph glyph-name="uni0045" unicode="E" horiz-adv-x="1684" 
d="M120 0l340 2048h1236l-36 -220h-988l-116 -692h924l-36 -220h-924l-116 -696h1004l-36 -220h-1252z" />
    <glyph glyph-name="uni00C8" unicode="&#xc8;" horiz-adv-x="1684" 
d="M120 0l340 2048h1236l-36 -220h-988l-116 -692h924l-36 -220h-924l-116 -696h1004l-36 -220h-1252zM1012 2256l-232 464h276l164 -464h-208z" />
    <glyph glyph-name="uni00C9" unicode="&#xc9;" horiz-adv-x="1684" 
d="M120 0l340 2048h1236l-36 -220h-988l-116 -692h924l-36 -220h-924l-116 -696h1004l-36 -220h-1252zM1004 2256l320 464h276l-388 -464h-208z" />
    <glyph glyph-name="uni00CA" unicode="&#xca;" horiz-adv-x="1684" 
d="M120 0l340 2048h1236l-36 -220h-988l-116 -692h924l-36 -220h-924l-116 -696h1004l-36 -220h-1252zM899 2232h-224l4 16l394 416h216l254 -416l-4 -16h-224l-161 280z" />
    <glyph glyph-name="uni00CB" unicode="&#xcb;" horiz-adv-x="1684" 
d="M120 0l340 2048h1236l-36 -220h-988l-116 -692h924l-36 -220h-924l-116 -696h1004l-36 -220h-1252zM1422 2304c-88 0 -160 80 -144 176c14 84 92 144 168 144c100 0 164 -76 148 -176c-12 -76 -84 -144 -172 -144zM846 2304c-88 0 -157 84 -144 176c12 84 92 144 168 144
c100 0 164 -76 148 -176c-12 -76 -84 -144 -172 -144z" />
    <glyph glyph-name="uni0112" unicode="&#x112;" horiz-adv-x="1684" 
d="M120 0l340 2048h1236l-36 -220h-988l-116 -692h924l-36 -220h-924l-116 -696h1004l-36 -220h-1252zM1632 2560l-32 -200h-936l32 200h936z" />
    <glyph glyph-name="uni0114" unicode="&#x114;" horiz-adv-x="1684" 
d="M120 0l340 2048h1236l-36 -220h-988l-116 -692h924l-36 -220h-924l-116 -696h1004l-36 -220h-1252zM1358 2560h220c-36 -216 -222 -368 -478 -368c-252 0 -386 152 -350 368h220c-18 -104 20 -196 160 -196s210 92 228 196z" />
    <glyph glyph-name="uni0116" unicode="&#x116;" horiz-adv-x="1684" 
d="M120 0l340 2048h1236l-36 -220h-988l-116 -692h924l-36 -220h-924l-116 -696h1004l-36 -220h-1252zM1146 2304c-92 0 -168 72 -168 160s76 160 168 160s168 -72 168 -160s-76 -160 -168 -160z" />
    <glyph glyph-name="uni0118" unicode="&#x118;" horiz-adv-x="1684" 
d="M120 0l340 2048h1236l-36 -220h-988l-116 -692h924l-36 -220h-924l-116 -696h1004l-36 -220c-132 -88 -260 -184 -280 -304c-12 -60 8 -96 88 -96c60 0 108 20 140 36l-12 -176c-48 -28 -128 -60 -224 -60c-164 0 -268 92 -240 264c19 115 100 233 270 336h-994z" />
    <glyph glyph-name="uni011A" unicode="&#x11a;" horiz-adv-x="1684" 
d="M120 0l340 2048h1236l-36 -220h-988l-116 -692h924l-36 -220h-924l-116 -696h1004l-36 -220h-1252zM970 2664l162 -280l254 280h224l-2 -16l-392 -416h-216l-256 416l2 16h224z" />
    <glyph glyph-name="uni0204" unicode="&#x204;" horiz-adv-x="1684" 
d="M120 0l340 2048h1236l-36 -220h-988l-116 -692h924l-36 -220h-924l-116 -696h1004l-36 -220h-1252zM1226 2256l-168 464h300l74 -464h-206zM802 2256l-254 464h294l168 -464h-208z" />
    <glyph glyph-name="uni0206" unicode="&#x206;" horiz-adv-x="1684" 
d="M120 0l340 2048h1236l-36 -220h-988l-116 -692h924l-36 -220h-924l-116 -696h1004l-36 -220h-1252zM706 2304c36 216 220 372 476 372s388 -156 352 -372h-220c16 108 -24 200 -160 200c-144 0 -212 -96 -228 -200h-220z" />
    <glyph glyph-name="uni0228" unicode="&#x228;" horiz-adv-x="1684" 
d="M120 0l340 2048h1236l-36 -220h-988l-116 -692h924l-36 -220h-924l-116 -696h1004l-36 -220h-559l-29 -72c104 -16 196 -80 168 -236c-28 -172 -192 -292 -468 -292l20 156c124 0 220 36 236 128s-44 116 -196 128l73 188h-497z" />
    <glyph glyph-name="uni1E14" unicode="&#x1e14;" horiz-adv-x="1684" 
d="M120 0l340 2048h1236l-36 -220h-988l-116 -692h924l-36 -220h-924l-116 -696h1004l-36 -220h-1252zM1618 2504l-32 -200h-936l32 200h936zM1066 2640l-290 304h284l250 -304h-244z" />
    <glyph glyph-name="uni1E16" unicode="&#x1e16;" horiz-adv-x="1684" 
d="M120 0l340 2048h1236l-36 -220h-988l-116 -692h924l-36 -220h-924l-116 -696h1004l-36 -220h-1252zM1612 2504l-32 -200h-936l32 200h936zM1032 2640l352 304h284l-392 -304h-244z" />
    <glyph glyph-name="uni1E18" unicode="&#x1e18;" horiz-adv-x="1684" 
d="M120 0l340 2048h1236l-36 -220h-988l-116 -692h924l-36 -220h-924l-116 -696h1004l-36 -220h-1252zM427 -560h-224l4 16l394 416h216l254 -416l-4 -16h-224l-161 280z" />
    <glyph glyph-name="uni1E1A" unicode="&#x1e1a;" horiz-adv-x="1684" 
d="M120 0l340 2048h1236l-36 -220h-988l-116 -692h924l-36 -220h-924l-116 -696h1004l-36 -220h-1252zM400 -508l-180 8c32 204 188 348 360 348c152 0 200 -128 344 -128c76 0 148 68 160 152l176 -16c-32 -208 -188 -340 -360 -340c-184 0 -188 128 -340 128
c-76 0 -144 -68 -160 -152z" />
    <glyph glyph-name="uni1E1C" unicode="&#x1e1c;" horiz-adv-x="1684" 
d="M120 0l340 2048h1236l-36 -220h-988l-116 -692h924l-36 -220h-924l-116 -696h1004l-36 -220h-559l-29 -72c104 -16 196 -80 168 -236c-28 -172 -192 -292 -468 -292l20 156c124 0 220 36 236 128s-44 116 -196 128l73 188h-497zM1358 2560h220
c-36 -216 -222 -368 -478 -368c-252 0 -386 152 -350 368h220c-18 -104 20 -196 160 -196s210 92 228 196z" />
    <glyph glyph-name="uni1EB8" unicode="&#x1eb8;" horiz-adv-x="1684" 
d="M120 0l340 2048h1236l-36 -220h-988l-116 -692h924l-36 -220h-924l-116 -696h1004l-36 -220h-1252zM660 -504c-92 0 -168 72 -168 160s76 160 168 160s168 -72 168 -160s-76 -160 -168 -160z" />
    <glyph glyph-name="uni1EBA" unicode="&#x1eba;" horiz-adv-x="1684" 
d="M120 0l340 2048h1236l-36 -220h-988l-116 -692h924l-36 -220h-924l-116 -696h1004l-36 -220h-1252zM1216 2256h-196l36 216c140 8 196 36 208 100c12 72 -80 104 -200 104l36 152c276 0 400 -104 376 -264c-24 -136 -136 -192 -244 -208z" />
    <glyph glyph-name="uni1EBC" unicode="&#x1ebc;" horiz-adv-x="1684" 
d="M120 0l340 2048h1236l-36 -220h-988l-116 -692h924l-36 -220h-924l-116 -696h1004l-36 -220h-1252zM800 2232l-180 8c32 204 188 348 360 348c152 0 200 -128 344 -128c76 0 148 68 160 152l176 -16c-32 -208 -188 -340 -360 -340c-184 0 -188 128 -340 128
c-76 0 -144 -68 -160 -152z" />
    <glyph glyph-name="uni1EBE" unicode="&#x1ebe;" horiz-adv-x="1684" 
d="M120 0l340 2048h1236l-36 -220h-988l-116 -692h924l-36 -220h-924l-116 -696h1004l-36 -220h-1252zM596 2240l468 364h220l348 -364h-288l-196 212l-260 -212h-292zM1564 2484l256 360h292l-340 -360h-208z" />
    <glyph glyph-name="uni1EC0" unicode="&#x1ec0;" horiz-adv-x="1684" 
d="M120 0l340 2048h1236l-36 -220h-988l-116 -692h924l-36 -220h-924l-116 -696h1004l-36 -220h-1252zM1276 2600l348 -364h-288l-192 212l-264 -212h-288l464 364h220zM608 2844l132 -364h-204l-224 364h296z" />
    <glyph glyph-name="uni1EC2" unicode="&#x1ec2;" horiz-adv-x="1684" 
d="M120 0l340 2048h1236l-36 -220h-988l-116 -692h924l-36 -220h-924l-116 -696h1004l-36 -220h-1252zM1304 2576l320 -364h-248l-232 252l-308 -252h-248l440 364h276zM1696 2404h-168l28 184c112 8 168 24 180 84c8 64 -68 88 -176 88l32 132c240 0 348 -88 324 -224
c-20 -120 -116 -168 -208 -180z" />
    <glyph glyph-name="uni1EC4" unicode="&#x1ec4;" horiz-adv-x="1684" 
d="M120 0l340 2048h1236l-36 -220h-988l-116 -692h924l-36 -220h-924l-116 -696h1004l-36 -220h-1252zM1244 2520l368 -336h-248l-236 212l-300 -212h-248l472 336h192zM1456 2872l108 -32c-20 -108 -136 -216 -264 -216c-136 0 -152 96 -260 96c-56 0 -124 -52 -132 -100
l-104 28c16 108 132 220 260 220c112 0 156 -92 260 -92c56 0 124 48 132 96z" />
    <glyph glyph-name="uni1EC6" unicode="&#x1ec6;" horiz-adv-x="1684" 
d="M120 0l340 2048h1236l-36 -220h-988l-116 -692h924l-36 -220h-924l-116 -696h1004l-36 -220h-1252zM899 2232h-224l4 16l394 416h216l254 -416l-4 -16h-224l-161 280zM660 -504c-92 0 -168 72 -168 160s76 160 168 160s168 -72 168 -160s-76 -160 -168 -160z" />
    <glyph glyph-name="uni0246" unicode="&#x246;" horiz-adv-x="1684" 
d="M1668 2308l-118 -260h146l-36 -220h-210l-315 -692h345l-36 -220h-409l-317 -696h690l-36 -220h-754l-118 -260h-228l118 260h-270l340 2048h862l118 260h228zM1222 1828h-550l-116 -692h351zM807 916h-287l-116 -696h86z" />
    <glyph glyph-name="uni018E" unicode="&#x18e;" horiz-adv-x="1668" 
d="M1556 2048l-340 -2048h-1236l36 220h988l116 692h-924l36 220h924l116 696h-1004l36 220h1252z" />
    <glyph glyph-name="uni0395" unicode="&#x395;" horiz-adv-x="1684" 
d="M120 0l340 2048h1236l-36 -220h-988l-116 -692h924l-36 -220h-924l-116 -696h1004l-36 -220h-1252z" />
    <glyph glyph-name="uni0388" unicode="&#x388;" horiz-adv-x="1940" 
d="M376 0l340 2048h1236l-36 -220h-988l-116 -692h924l-36 -220h-924l-116 -696h1004l-36 -220h-1252zM256 1708l144 468h256l-236 -468h-164z" />
    <glyph glyph-name="uni1F18" unicode="&#x1f18;" horiz-adv-x="2040" 
d="M476 0l340 2048h1236l-36 -220h-988l-116 -692h924l-36 -220h-924l-116 -696h1004l-36 -220h-1252zM672 2048l-16 -112c-28 -160 -140 -296 -316 -384l-96 84c92 84 144 176 164 308l16 104h248z" />
    <glyph glyph-name="uni1F19" unicode="&#x1f19;" horiz-adv-x="2024" 
d="M460 0l340 2048h1236l-36 -220h-988l-116 -692h924l-36 -220h-924l-116 -696h1004l-36 -220h-1252zM292 1936l20 112h248l-16 -104c-24 -132 -4 -224 60 -308l-124 -84c-144 88 -212 224 -188 384z" />
    <glyph glyph-name="uni1F1A" unicode="&#x1f1a;" horiz-adv-x="2564" 
d="M1000 0l340 2048h1236l-36 -220h-988l-116 -692h924l-36 -220h-924l-116 -696h1004l-36 -220h-1252zM672 2048l-16 -112c-28 -160 -144 -296 -316 -384l-96 84c88 84 144 176 164 308l16 104h248zM1108 1604l-4 -20h-128l-244 436l4 28h288z" />
    <glyph glyph-name="uni1F1B" unicode="&#x1f1b;" horiz-adv-x="2456" 
d="M892 0l340 2048h1236l-36 -220h-988l-116 -692h924l-36 -220h-924l-116 -696h1004l-36 -220h-1252zM292 1936l20 112h248l-16 -104c-24 -132 -4 -224 60 -308l-124 -84c-144 88 -212 224 -188 384zM1024 1604l-4 -20h-128l-244 436l4 28h292z" />
    <glyph glyph-name="uni1F1C" unicode="&#x1f1c;" horiz-adv-x="2464" 
d="M900 0l340 2048h1236l-36 -220h-988l-116 -692h924l-36 -220h-924l-116 -696h1004l-36 -220h-1252zM672 2048l-20 -112c-24 -160 -140 -296 -316 -384l-92 84c84 84 140 176 164 308l16 104h248zM616 1584l4 20l228 444h288l-4 -28l-388 -436h-128z" />
    <glyph glyph-name="uni1F1D" unicode="&#x1f1d;" horiz-adv-x="2520" 
d="M956 0l340 2048h1236l-36 -220h-988l-116 -692h924l-36 -220h-924l-116 -696h1004l-36 -220h-1252zM292 1936l20 112h248l-16 -104c-24 -132 0 -224 60 -308l-124 -84c-144 88 -212 224 -188 384zM648 1584l4 20l224 444h292l-4 -28l-388 -436h-128z" />
    <glyph glyph-name="uni1FC8" unicode="&#x1fc8;" horiz-adv-x="2176" 
d="M612 0l340 2048h1236l-36 -220h-988l-116 -692h924l-36 -220h-924l-116 -696h1004l-36 -220h-1252zM688 1580h-132l-244 440v28h292l84 -444v-24z" />
    <glyph glyph-name="uni1FC9" unicode="&#x1fc9;" horiz-adv-x="2080" 
d="M516 0l340 2048h1236l-36 -220h-988l-116 -692h924l-36 -220h-924l-116 -696h1004l-36 -220h-1252zM406 1728l4 24l226 444h292l-4 -28l-390 -440h-128z" />
    <glyph glyph-name="uni0415" unicode="&#x415;" horiz-adv-x="1684" 
d="M120 0l340 2048h1236l-36 -220h-988l-116 -692h924l-36 -220h-924l-116 -696h1004l-36 -220h-1252z" />
    <glyph glyph-name="uni0400" unicode="&#x400;" horiz-adv-x="1684" 
d="M120 0l340 2048h1236l-36 -220h-988l-116 -692h924l-36 -220h-924l-116 -696h1004l-36 -220h-1252zM1012 2256l-232 464h276l164 -464h-208z" />
    <glyph glyph-name="uni0401" unicode="&#x401;" horiz-adv-x="1684" 
d="M120 0l340 2048h1236l-36 -220h-988l-116 -692h924l-36 -220h-924l-116 -696h1004l-36 -220h-1252zM1422 2304c-88 0 -160 80 -144 176c14 84 92 144 168 144c100 0 164 -76 148 -176c-12 -76 -84 -144 -172 -144zM846 2304c-88 0 -157 84 -144 176c12 84 92 144 168 144
c100 0 164 -76 148 -176c-12 -76 -84 -144 -172 -144z" />
    <glyph glyph-name="uni04D6" unicode="&#x4d6;" horiz-adv-x="1684" 
d="M120 0l340 2048h1236l-36 -220h-988l-116 -692h924l-36 -220h-924l-116 -696h1004l-36 -220h-1252zM1358 2560h220c-36 -216 -222 -368 -478 -368c-252 0 -386 152 -350 368h220c-18 -104 20 -196 160 -196s210 92 228 196z" />
    <glyph glyph-name="uni0046" unicode="F" horiz-adv-x="1652" 
d="M120 0l340 2048h1228l-36 -220h-980l-116 -692h888l-36 -220h-888l-152 -916h-248z" />
    <glyph glyph-name="uni0191" unicode="&#x191;" horiz-adv-x="1652" 
d="M120 0l340 2048h1228l-36 -220h-980l-116 -692h888l-36 -220h-888l-152 -916l-28 -164c-45 -266 -236 -412 -516 -412c-24 0 -52 0 -92 12l32 204c20 -4 48 -8 84 -8c116 0 223 42 248 208z" />
    <glyph glyph-name="uni1E1E" unicode="&#x1e1e;" horiz-adv-x="1652" 
d="M120 0l340 2048h1228l-36 -220h-980l-116 -692h888l-36 -220h-888l-152 -916h-248zM1170 2304c-92 0 -168 72 -168 160s76 160 168 160s168 -72 168 -160s-76 -160 -168 -160z" />
    <glyph glyph-name="uni2132" unicode="&#x2132;" horiz-adv-x="1652" 
d="M1616 2048l-340 -2048h-1228l36 220h980l116 692h-888l36 220h888l152 916h248z" />
    <glyph glyph-name="uni0047" unicode="G" horiz-adv-x="2092" 
d="M1752 1408c-40 268 -192 436 -488 436c-364 0 -724 -288 -812 -820s136 -820 516 -820c347 0 647 233 713 600h-541l40 220h780l-40 -220c-80 -508 -484 -832 -972 -832c-544 0 -844 404 -736 1052c104 648 544 1052 1068 1052c432 0 720 -272 728 -668h-256z" />
    <glyph glyph-name="uni01E4" unicode="&#x1e4;" horiz-adv-x="2092" 
d="M2032 624l-32 -200h-218c-175 -284 -482 -452 -834 -452c-544 0 -844 404 -736 1052c104 648 544 1052 1068 1052c432 0 720 -272 728 -668h-256c-40 268 -192 436 -488 436c-364 0 -724 -288 -812 -820s136 -820 516 -820c203 0 390 80 524 220h-412l32 200h514
c25 56 44 116 55 180h-541l40 220h780l-40 -220c-10 -63 -25 -123 -44 -180h156z" />
    <glyph glyph-name="uni0193" unicode="&#x193;" horiz-adv-x="2176" 
d="M1752 1408c-40 268 -192 436 -488 436c-364 0 -724 -288 -812 -820s136 -820 516 -820c347 0 647 233 713 600h-541l40 220h780l-40 -220c-80 -508 -484 -832 -972 -832c-544 0 -844 404 -736 1052c104 648 544 1052 1068 1052c258 0 465 -97 591 -260
c82 143 216 220 401 220c48 0 100 0 132 -12l-32 -200c-18 4 -46 8 -72 8c-130 0 -233 -48 -260 -208l-33 -196c1 -7 1 -13 1 -20h-256z" />
    <glyph glyph-name="uni011C" unicode="&#x11c;" horiz-adv-x="2092" 
d="M1752 1408c-40 268 -192 436 -488 436c-364 0 -724 -288 -812 -820s136 -820 516 -820c347 0 647 233 713 600h-541l40 220h780l-40 -220c-80 -508 -484 -832 -972 -832c-544 0 -844 404 -736 1052c104 648 544 1052 1068 1052c432 0 720 -272 728 -668h-256zM1099 2232
h-224l4 16l394 416h216l254 -416l-4 -16h-224l-161 280z" />
    <glyph glyph-name="uni011E" unicode="&#x11e;" horiz-adv-x="2092" 
d="M1752 1408c-40 268 -192 436 -488 436c-364 0 -724 -288 -812 -820s136 -820 516 -820c347 0 647 233 713 600h-541l40 220h780l-40 -220c-80 -508 -484 -832 -972 -832c-544 0 -844 404 -736 1052c104 648 544 1052 1068 1052c432 0 720 -272 728 -668h-256zM1558 2560
h220c-36 -216 -222 -368 -478 -368c-252 0 -386 152 -350 368h220c-18 -104 20 -196 160 -196s210 92 228 196z" />
    <glyph glyph-name="uni0120" unicode="&#x120;" horiz-adv-x="2092" 
d="M1752 1408c-40 268 -192 436 -488 436c-364 0 -724 -288 -812 -820s136 -820 516 -820c347 0 647 233 713 600h-541l40 220h780l-40 -220c-80 -508 -484 -832 -972 -832c-544 0 -844 404 -736 1052c104 648 544 1052 1068 1052c432 0 720 -272 728 -668h-256zM1346 2304
c-92 0 -168 72 -168 160s76 160 168 160s168 -72 168 -160s-76 -160 -168 -160z" />
    <glyph glyph-name="uni0122" unicode="&#x122;" horiz-adv-x="2092" 
d="M1752 1408c-40 268 -192 436 -488 436c-364 0 -724 -288 -812 -820s136 -820 516 -820c347 0 647 233 713 600h-541l40 220h780l-40 -220c-80 -508 -484 -832 -972 -832c-544 0 -844 404 -736 1052c104 648 544 1052 1068 1052c432 0 720 -272 728 -668h-256zM586 -680
l198 518h242l-256 -518h-184z" />
    <glyph glyph-name="uni01E6" unicode="&#x1e6;" horiz-adv-x="2092" 
d="M1752 1408c-40 268 -192 436 -488 436c-364 0 -724 -288 -812 -820s136 -820 516 -820c347 0 647 233 713 600h-541l40 220h780l-40 -220c-80 -508 -484 -832 -972 -832c-544 0 -844 404 -736 1052c104 648 544 1052 1068 1052c432 0 720 -272 728 -668h-256zM1170 2664
l162 -280l254 280h224l-2 -16l-392 -416h-216l-256 416l2 16h224z" />
    <glyph glyph-name="uni01F4" unicode="&#x1f4;" horiz-adv-x="2092" 
d="M1752 1408c-40 268 -192 436 -488 436c-364 0 -724 -288 -812 -820s136 -820 516 -820c347 0 647 233 713 600h-541l40 220h780l-40 -220c-80 -508 -484 -832 -972 -832c-544 0 -844 404 -736 1052c104 648 544 1052 1068 1052c432 0 720 -272 728 -668h-256zM1204 2256
l320 464h276l-388 -464h-208z" />
    <glyph glyph-name="uni1E20" unicode="&#x1e20;" horiz-adv-x="2092" 
d="M1752 1408c-40 268 -192 436 -488 436c-364 0 -724 -288 -812 -820s136 -820 516 -820c347 0 647 233 713 600h-541l40 220h780l-40 -220c-80 -508 -484 -832 -972 -832c-544 0 -844 404 -736 1052c104 648 544 1052 1068 1052c432 0 720 -272 728 -668h-256zM1832 2560
l-32 -200h-936l32 200h936z" />
    <glyph glyph-name="uniE002" unicode="&#xe002;" horiz-adv-x="2112" 
d="M950 -28c-544 0 -845 404 -738 1052s554 1052 1078 1052c432 0 731 -272 742 -668h-256c-38 270 -209 436 -504 436c-364 0 -732 -288 -820 -820s136 -820 516 -820c356 0 664 249 735 600h-559l36 220h800l-170 -1024h-208l12 250h-10c-186 -179 -383 -278 -654 -278z
" />
    <glyph glyph-name="uniE003" unicode="&#xe003;" horiz-adv-x="2112" 
d="M2052 624l-32 -200h-140l-70 -424h-208l12 250h-10c-186 -179 -383 -278 -654 -278c-544 0 -845 404 -738 1052s554 1052 1078 1052c432 0 731 -272 742 -668h-256c-38 270 -209 436 -504 436c-364 0 -732 -288 -820 -820s136 -820 516 -820c205 0 395 83 532 220h-420
l32 200h530c28 56 48 116 61 180h-559l36 220h800l-66 -400h138z" />
    <glyph glyph-name="uniE004" unicode="&#xe004;" horiz-adv-x="2176" 
d="M2032 1408h-256c-38 270 -209 436 -504 436c-364 0 -732 -288 -820 -820s136 -820 516 -820c356 0 664 249 735 600h-559l36 220h800l-170 -1024h-208l12 250h-10c-186 -179 -383 -278 -654 -278c-544 0 -845 404 -738 1052s554 1052 1078 1052c262 0 476 -100 605 -268
c82 148 217 228 405 228c48 0 100 0 132 -12l-32 -200c-18 4 -46 8 -72 8c-130 0 -233 -48 -260 -208z" />
    <glyph glyph-name="uniE005" unicode="&#xe005;" horiz-adv-x="2112" 
d="M950 -28c-544 0 -845 404 -738 1052s554 1052 1078 1052c432 0 731 -272 742 -668h-256c-38 270 -209 436 -504 436c-364 0 -732 -288 -820 -820s136 -820 516 -820c356 0 664 249 735 600h-559l36 220h800l-170 -1024h-208l12 250h-10c-186 -179 -383 -278 -654 -278z
M1099 2232h-224l4 16l394 416h216l254 -416l-4 -16h-224l-161 280z" />
    <glyph glyph-name="uniE006" unicode="&#xe006;" horiz-adv-x="2112" 
d="M950 -28c-544 0 -845 404 -738 1052s554 1052 1078 1052c432 0 731 -272 742 -668h-256c-38 270 -209 436 -504 436c-364 0 -732 -288 -820 -820s136 -820 516 -820c356 0 664 249 735 600h-559l36 220h800l-170 -1024h-208l12 250h-10c-186 -179 -383 -278 -654 -278z
M1558 2560h220c-36 -216 -222 -368 -478 -368c-252 0 -386 152 -350 368h220c-18 -104 20 -196 160 -196s210 92 228 196z" />
    <glyph glyph-name="uniE007" unicode="&#xe007;" horiz-adv-x="2112" 
d="M950 -28c-544 0 -845 404 -738 1052s554 1052 1078 1052c432 0 731 -272 742 -668h-256c-38 270 -209 436 -504 436c-364 0 -732 -288 -820 -820s136 -820 516 -820c356 0 664 249 735 600h-559l36 220h800l-170 -1024h-208l12 250h-10c-186 -179 -383 -278 -654 -278z
M1346 2304c-92 0 -168 72 -168 160s76 160 168 160s168 -72 168 -160s-76 -160 -168 -160z" />
    <glyph glyph-name="uniE008" unicode="&#xe008;" horiz-adv-x="2112" 
d="M950 -28c-544 0 -845 404 -738 1052s554 1052 1078 1052c432 0 731 -272 742 -668h-256c-38 270 -209 436 -504 436c-364 0 -732 -288 -820 -820s136 -820 516 -820c356 0 664 249 735 600h-559l36 220h800l-170 -1024h-208l12 250h-10c-186 -179 -383 -278 -654 -278z
M588 -680l198 518h242l-256 -518h-184z" />
    <glyph glyph-name="uniE009" unicode="&#xe009;" horiz-adv-x="2112" 
d="M950 -28c-544 0 -845 404 -738 1052s554 1052 1078 1052c432 0 731 -272 742 -668h-256c-38 270 -209 436 -504 436c-364 0 -732 -288 -820 -820s136 -820 516 -820c356 0 664 249 735 600h-559l36 220h800l-170 -1024h-208l12 250h-10c-186 -179 -383 -278 -654 -278z
M1170 2664l162 -280l254 280h224l-2 -16l-392 -416h-216l-256 416l2 16h224z" />
    <glyph glyph-name="uniE00A" unicode="&#xe00a;" horiz-adv-x="2112" 
d="M950 -28c-544 0 -845 404 -738 1052s554 1052 1078 1052c432 0 731 -272 742 -668h-256c-38 270 -209 436 -504 436c-364 0 -732 -288 -820 -820s136 -820 516 -820c356 0 664 249 735 600h-559l36 220h800l-170 -1024h-208l12 250h-10c-186 -179 -383 -278 -654 -278z
M1204 2256l320 464h276l-388 -464h-208z" />
    <glyph glyph-name="uniE00B" unicode="&#xe00b;" horiz-adv-x="2112" 
d="M950 -28c-544 0 -845 404 -738 1052s554 1052 1078 1052c432 0 731 -272 742 -668h-256c-38 270 -209 436 -504 436c-364 0 -732 -288 -820 -820s136 -820 516 -820c356 0 664 249 735 600h-559l36 220h800l-170 -1024h-208l12 250h-10c-186 -179 -383 -278 -654 -278z
M1832 2560l-32 -200h-936l32 200h936z" />
    <glyph glyph-name="uni0048" unicode="H" horiz-adv-x="2084" 
d="M120 0l340 2048h248l-152 -912h1092l152 912h248l-340 -2048h-248l152 916h-1092l-152 -916h-248z" />
    <glyph glyph-name="uni1E28" unicode="&#x1e28;" horiz-adv-x="2084" 
d="M120 0l340 2048h248l-152 -912h1092l152 912h248l-340 -2048h-248l152 916h-1092l-152 -916h-3l-29 -72c104 -16 196 -80 168 -236c-28 -172 -192 -292 -468 -292l20 156c124 0 220 36 236 128s-44 116 -196 128l73 188h-49z" />
    <glyph glyph-name="uni0124" unicode="&#x124;" horiz-adv-x="2084" 
d="M120 0l340 2048h248l-152 -912h1092l152 912h248l-340 -2048h-248l152 916h-1092l-152 -916h-248zM1087 2236h-224l4 16l394 416h216l254 -416l-4 -16h-224l-161 280z" />
    <glyph glyph-name="uni021E" unicode="&#x21e;" horiz-adv-x="2084" 
d="M120 0l340 2048h248l-152 -912h1092l152 912h248l-340 -2048h-248l152 916h-1092l-152 -916h-248zM1158 2668l162 -280l254 280h224l-2 -16l-392 -416h-216l-256 416l2 16h224z" />
    <glyph glyph-name="uni1E22" unicode="&#x1e22;" horiz-adv-x="2084" 
d="M120 0l340 2048h248l-152 -912h1092l152 912h248l-340 -2048h-248l152 916h-1092l-152 -916h-248zM1334 2308c-92 0 -168 72 -168 160s76 160 168 160s168 -72 168 -160s-76 -160 -168 -160z" />
    <glyph glyph-name="uni1E24" unicode="&#x1e24;" horiz-adv-x="2084" 
d="M120 0l340 2048h248l-152 -912h1092l152 912h248l-340 -2048h-248l152 916h-1092l-152 -916h-248zM856 -504c-92 0 -168 72 -168 160s76 160 168 160s168 -72 168 -160s-76 -160 -168 -160z" />
    <glyph glyph-name="uni1E26" unicode="&#x1e26;" horiz-adv-x="2084" 
d="M120 0l340 2048h248l-152 -912h1092l152 912h248l-340 -2048h-248l152 916h-1092l-152 -916h-248zM1610 2308c-88 0 -160 80 -144 176c14 84 92 144 168 144c100 0 164 -76 148 -176c-12 -76 -84 -144 -172 -144zM1034 2308c-88 0 -157 84 -144 176c12 84 92 144 168 144
c100 0 164 -76 148 -176c-12 -76 -84 -144 -172 -144z" />
    <glyph glyph-name="uni1E2A" unicode="&#x1e2a;" horiz-adv-x="2084" 
d="M120 0l340 2048h248l-152 -912h1092l152 912h248l-340 -2048h-248l152 916h-1092l-152 -916h-248zM1084 -132h220c-36 -220 -224 -372 -476 -372c-256 0 -388 160 -352 372h220c-20 -108 20 -200 156 -200c140 0 212 96 232 200z" />
    <glyph glyph-name="uni0126" unicode="&#x126;" horiz-adv-x="2188" 
d="M2192 1616l-32 -208h-166l-234 -1408h-248l152 916h-1092l-152 -916h-248l234 1408h-162l32 208h164l72 432h248l-72 -432h1092l72 432h248l-72 -432h164zM1745 1408h-1092l-45 -272h1092z" />
    <glyph glyph-name="uni04C7" unicode="&#x4c7;" horiz-adv-x="2084" 
d="M1460 0l152 916h-1092l-152 -916h-248l340 2048h248l-152 -912h1092l152 912h248l-340 -2048l-28 -172c-40 -252 -240 -404 -476 -404c-40 0 -96 4 -124 16l16 200c24 -8 56 -8 68 -8c136 0 248 68 272 216z" />
    <glyph glyph-name="uni04A2" unicode="&#x4a2;" horiz-adv-x="2160" 
d="M120 0l340 2048h248l-152 -912h1092l152 912h248l-303 -1828h211l-116 -716h-236l80 496h-224l152 916h-1092l-152 -916h-248z" />
    <glyph glyph-name="uni04C9" unicode="&#x4c9;" horiz-adv-x="2184" 
d="M120 0l340 2048h248l-152 -912h1092l152 912h248l-314 -1892h250l-32 -188c-32 -176 -128 -340 -256 -496l-196 40c96 160 172 300 196 452l6 36h-242l152 916h-1092l-152 -916h-248z" />
    <glyph glyph-name="uni04A4" unicode="&#x4a4;" horiz-adv-x="2776" 
d="M2852 2048l-36 -220h-805l-303 -1828h-248l152 916h-1092l-152 -916h-248l340 2048h248l-152 -912h1092l152 912h1052z" />
    <glyph glyph-name="uni01F6" unicode="&#x1f6;" horiz-adv-x="3136" 
d="M2128 -28c-400 0 -632 232 -560 676l44 268h-1092l-152 -916h-248l340 2048h248l-152 -912h1092l152 912h248l-232 -1400c-52 -308 80 -448 348 -448s436 140 488 448l148 888h248l-148 -888c-76 -452 -384 -676 -772 -676z" />
    <glyph glyph-name="uni0397" unicode="&#x397;" horiz-adv-x="2084" 
d="M120 0l340 2048h248l-152 -912h1092l152 912h248l-340 -2048h-248l152 916h-1092l-152 -916h-248z" />
    <glyph glyph-name="uni0389" unicode="&#x389;" horiz-adv-x="2428" 
d="M468 0l340 2048h248l-152 -912h1092l152 912h248l-340 -2048h-248l152 916h-1092l-152 -916h-248zM356 1708l144 468h256l-236 -468h-164z" />
    <glyph glyph-name="uni1F28" unicode="&#x1f28;" horiz-adv-x="2532" 
d="M568 0l340 2048h248l-152 -912h1092l152 912h248l-340 -2048h-248l152 916h-1092l-152 -916h-248zM772 2048l-16 -112c-28 -160 -140 -296 -316 -384l-96 84c92 84 144 176 164 308l16 104h248z" />
    <glyph glyph-name="uni1F29" unicode="&#x1f29;" horiz-adv-x="2516" 
d="M552 0l340 2048h248l-152 -912h1092l152 912h248l-340 -2048h-248l152 916h-1092l-152 -916h-248zM392 1936l20 112h248l-16 -104c-24 -132 -4 -224 60 -308l-124 -84c-144 88 -212 224 -188 384z" />
    <glyph glyph-name="uni1F2A" unicode="&#x1f2a;" horiz-adv-x="3056" 
d="M1092 0l340 2048h248l-152 -912h1092l152 912h248l-340 -2048h-248l152 916h-1092l-152 -916h-248zM772 2048l-16 -112c-28 -160 -144 -296 -316 -384l-96 84c88 84 144 176 164 308l16 104h248zM1208 1604l-4 -20h-128l-244 436l4 28h288z" />
    <glyph glyph-name="uni1F2B" unicode="&#x1f2b;" horiz-adv-x="2948" 
d="M984 0l340 2048h248l-152 -912h1092l152 912h248l-340 -2048h-248l152 916h-1092l-152 -916h-248zM392 1936l20 112h248l-16 -104c-24 -132 -4 -224 60 -308l-124 -84c-144 88 -212 224 -188 384zM1124 1604l-4 -20h-128l-244 436l4 28h292z" />
    <glyph glyph-name="uni1F2C" unicode="&#x1f2c;" horiz-adv-x="2956" 
d="M992 0l340 2048h248l-152 -912h1092l152 912h248l-340 -2048h-248l152 916h-1092l-152 -916h-248zM772 2048l-20 -112c-24 -160 -140 -296 -316 -384l-92 84c84 84 140 176 164 308l16 104h248zM716 1584l4 20l228 444h288l-4 -28l-388 -436h-128z" />
    <glyph glyph-name="uni1F2D" unicode="&#x1f2d;" horiz-adv-x="3012" 
d="M1048 0l340 2048h248l-152 -912h1092l152 912h248l-340 -2048h-248l152 916h-1092l-152 -916h-248zM392 1936l20 112h248l-16 -104c-24 -132 0 -224 60 -308l-124 -84c-144 88 -212 224 -188 384zM748 1584l4 20l224 444h292l-4 -28l-388 -436h-128z" />
    <glyph glyph-name="uni1F2E" unicode="&#x1f2e;" horiz-adv-x="2828" 
d="M864 0l340 2048h248l-152 -912h1092l152 912h248l-340 -2048h-248l152 916h-1092l-152 -916h-248zM1108 2376l116 -36c-24 -132 -136 -248 -272 -248c-148 0 -168 100 -288 100c-60 0 -116 -52 -128 -120l-116 32c24 132 136 256 272 256c124 0 168 -104 284 -104
c60 0 124 52 132 120zM920 2024l-16 -96c-16 -104 -96 -236 -220 -316l-108 68c68 76 104 152 120 244l16 100h208z" />
    <glyph glyph-name="uni1F2F" unicode="&#x1f2f;" horiz-adv-x="2828" 
d="M864 0l340 2048h248l-152 -912h1092l152 912h248l-340 -2048h-248l152 916h-1092l-152 -916h-248zM1108 2372l116 -36c-24 -132 -136 -248 -272 -248c-148 0 -168 100 -288 100c-60 0 -116 -52 -128 -120l-116 32c24 132 136 256 272 256c124 0 168 -104 284 -104
c60 0 124 52 132 120zM684 1924l16 96h208l-16 -100c-16 -92 -4 -168 40 -244l-136 -68c-100 80 -128 212 -112 316z" />
    <glyph glyph-name="uni1FCA" unicode="&#x1fca;" horiz-adv-x="2668" 
d="M704 0l340 2048h248l-152 -912h1092l152 912h248l-340 -2048h-248l152 916h-1092l-152 -916h-248zM788 1580h-132l-244 440v28h292l84 -444v-24z" />
    <glyph glyph-name="uni1FCB" unicode="&#x1fcb;" horiz-adv-x="2572" 
d="M608 0l340 2048h248l-152 -912h1092l152 912h248l-340 -2048h-248l152 916h-1092l-152 -916h-248zM506 1728l4 24l226 444h292l-4 -28l-390 -440h-128z" />
    <glyph glyph-name="uni041D" unicode="&#x41d;" horiz-adv-x="2084" 
d="M120 0l340 2048h248l-152 -912h1092l152 912h248l-340 -2048h-248l152 916h-1092l-152 -916h-248z" />
    <glyph glyph-name="uni1F98" unicode="&#x1f98;" horiz-adv-x="2432" 
d="M468 0l340 2048h248l-152 -912h1092l152 912h248l-340 -2048h-248l152 916h-1092l-152 -916h-248zM1276 -680c-136 0 -220 76 -190 256l50 304h208l-48 -300c-14 -80 10 -108 50 -108c20 0 48 4 60 4l-24 -140c-20 -8 -54 -16 -106 -16zM672 2048l-16 -112
c-28 -160 -140 -296 -316 -384l-96 84c92 84 144 176 164 308l16 104h248z" />
    <glyph glyph-name="uni1F99" unicode="&#x1f99;" horiz-adv-x="2516" 
d="M552 0l340 2048h248l-152 -912h1092l152 912h248l-340 -2048h-248l152 916h-1092l-152 -916h-248zM1360 -680c-136 0 -220 76 -190 256l50 304h208l-48 -300c-14 -80 10 -108 50 -108c20 0 48 4 60 4l-24 -140c-20 -8 -54 -16 -106 -16zM392 1936l20 112h248l-16 -104
c-24 -132 -4 -224 60 -308l-124 -84c-144 88 -212 224 -188 384z" />
    <glyph glyph-name="uni1F9A" unicode="&#x1f9a;" horiz-adv-x="3056" 
d="M1092 0l340 2048h248l-152 -912h1092l152 912h248l-340 -2048h-248l152 916h-1092l-152 -916h-248zM1900 -680c-136 0 -220 76 -190 256l50 304h208l-48 -300c-14 -80 10 -108 50 -108c20 0 48 4 60 4l-24 -140c-20 -8 -54 -16 -106 -16zM772 2048l-16 -112
c-28 -160 -144 -296 -316 -384l-96 84c88 84 144 176 164 308l16 104h248zM1208 1604l-4 -20h-128l-244 436l4 28h288z" />
    <glyph glyph-name="uni1F9B" unicode="&#x1f9b;" horiz-adv-x="2948" 
d="M984 0l340 2048h248l-152 -912h1092l152 912h248l-340 -2048h-248l152 916h-1092l-152 -916h-248zM1792 -680c-136 0 -220 76 -190 256l50 304h208l-48 -300c-14 -80 10 -108 50 -108c20 0 48 4 60 4l-24 -140c-20 -8 -54 -16 -106 -16zM392 1936l20 112h248l-16 -104
c-24 -132 -4 -224 60 -308l-124 -84c-144 88 -212 224 -188 384zM1124 1604l-4 -20h-128l-244 436l4 28h292z" />
    <glyph glyph-name="uni1F9C" unicode="&#x1f9c;" horiz-adv-x="2956" 
d="M992 0l340 2048h248l-152 -912h1092l152 912h248l-340 -2048h-248l152 916h-1092l-152 -916h-248zM1800 -680c-136 0 -220 76 -190 256l50 304h208l-48 -300c-14 -80 10 -108 50 -108c20 0 48 4 60 4l-24 -140c-20 -8 -54 -16 -106 -16zM772 2048l-20 -112
c-24 -160 -140 -296 -316 -384l-92 84c84 84 140 176 164 308l16 104h248zM716 1584l4 20l228 444h288l-4 -28l-388 -436h-128z" />
    <glyph glyph-name="uni1F9D" unicode="&#x1f9d;" horiz-adv-x="3012" 
d="M1048 0l340 2048h248l-152 -912h1092l152 912h248l-340 -2048h-248l152 916h-1092l-152 -916h-248zM1856 -680c-136 0 -220 76 -190 256l50 304h208l-48 -300c-14 -80 10 -108 50 -108c20 0 48 4 60 4l-24 -140c-20 -8 -54 -16 -106 -16zM392 1936l20 112h248l-16 -104
c-24 -132 0 -224 60 -308l-124 -84c-144 88 -212 224 -188 384zM748 1584l4 20l224 444h292l-4 -28l-388 -436h-128z" />
    <glyph glyph-name="uni1F9E" unicode="&#x1f9e;" horiz-adv-x="2828" 
d="M864 0l340 2048h248l-152 -912h1092l152 912h248l-340 -2048h-248l152 916h-1092l-152 -916h-248zM1108 2376l116 -36c-24 -132 -136 -248 -272 -248c-148 0 -168 100 -288 100c-60 0 -116 -52 -128 -120l-116 32c24 132 136 256 272 256c124 0 168 -104 284 -104
c60 0 124 52 132 120zM1672 -680c-136 0 -220 76 -190 256l50 304h208l-48 -300c-14 -80 10 -108 50 -108c20 0 48 4 60 4l-24 -140c-20 -8 -54 -16 -106 -16zM920 2024l-16 -96c-16 -104 -96 -236 -220 -316l-108 68c68 76 104 152 120 244l16 100h208z" />
    <glyph glyph-name="uni1F9F" unicode="&#x1f9f;" horiz-adv-x="2828" 
d="M864 0l340 2048h248l-152 -912h1092l152 912h248l-340 -2048h-248l152 916h-1092l-152 -916h-248zM1108 2372l116 -36c-24 -132 -136 -248 -272 -248c-148 0 -168 100 -288 100c-60 0 -116 -52 -128 -120l-116 32c24 132 136 256 272 256c124 0 168 -104 284 -104
c60 0 124 52 132 120zM1672 -680c-136 0 -220 76 -190 256l50 304h208l-48 -300c-14 -80 10 -108 50 -108c20 0 48 4 60 4l-24 -140c-20 -8 -54 -16 -106 -16zM684 1924l16 96h208l-16 -100c-16 -92 -4 -168 40 -244l-136 -68c-100 80 -128 212 -112 316z" />
    <glyph glyph-name="uni1FCC" unicode="&#x1fcc;" horiz-adv-x="2084" 
d="M120 0l340 2048h248l-152 -912h1092l152 912h248l-340 -2048h-248l152 916h-1092l-152 -916h-248zM928 -680c-136 0 -220 76 -190 256l50 304h208l-48 -300c-14 -80 10 -108 50 -108c20 0 48 4 60 4l-24 -140c-20 -8 -54 -16 -106 -16z" />
    <glyph glyph-name="uni0049" unicode="I" horiz-adv-x="744" 
d="M708 2048l-340 -2048h-248l340 2048h248z" />
    <glyph glyph-name="uni00CF" unicode="&#xcf;" horiz-adv-x="744" 
d="M708 2048l-340 -2048h-248l340 2048h248zM926 2304c-88 0 -160 80 -144 176c14 84 92 144 168 144c100 0 164 -76 148 -176c-12 -76 -84 -144 -172 -144zM350 2304c-88 0 -157 84 -144 176c12 84 92 144 168 144c100 0 164 -76 148 -176c-12 -76 -84 -144 -172 -144z" />
    <glyph glyph-name="uni1E2E" unicode="&#x1e2e;" horiz-adv-x="744" 
d="M708 2048l-340 -2048h-248l340 2048h248zM902 2208c-88 0 -160 80 -144 176c14 84 92 144 168 144c100 0 164 -76 148 -176c-12 -76 -84 -144 -172 -144zM326 2208c-88 0 -157 84 -144 176c12 84 92 144 168 144c100 0 164 -76 148 -176c-12 -76 -84 -144 -172 -144z
M556 2672l324 304h276l-392 -304h-208z" />
    <glyph glyph-name="uni0197" unicode="&#x197;" horiz-adv-x="744" 
d="M708 2048l-149 -900h317l-32 -184h-316l-160 -964h-248l160 964h-316l32 184h315l149 900h248z" />
    <glyph glyph-name="uni1E2C" unicode="&#x1e2c;" horiz-adv-x="744" 
d="M708 2048l-340 -2048h-248l340 2048h248zM-68 -508l-180 8c32 204 188 348 360 348c152 0 200 -128 344 -128c76 0 148 68 160 152l176 -16c-32 -208 -188 -340 -360 -340c-184 0 -188 128 -340 128c-76 0 -144 -68 -160 -152z" />
    <glyph glyph-name="uni00CC" unicode="&#xcc;" horiz-adv-x="744" 
d="M708 2048l-340 -2048h-248l340 2048h248zM516 2256l-232 464h276l164 -464h-208z" />
    <glyph glyph-name="uni00CD" unicode="&#xcd;" horiz-adv-x="744" 
d="M708 2048l-340 -2048h-248l340 2048h248zM508 2256l320 464h276l-388 -464h-208z" />
    <glyph glyph-name="uni00CE" unicode="&#xce;" horiz-adv-x="744" 
d="M708 2048l-340 -2048h-248l340 2048h248zM403 2232h-224l4 16l394 416h216l254 -416l-4 -16h-224l-161 280z" />
    <glyph glyph-name="uni0128" unicode="&#x128;" horiz-adv-x="1248" 
d="M960 2048l-340 -2048h-248l340 2048h248zM556 2232l-180 8c32 204 188 348 360 348c152 0 200 -128 344 -128c76 0 148 68 160 152l176 -16c-32 -208 -188 -340 -360 -340c-184 0 -188 128 -340 128c-76 0 -144 -68 -160 -152z" />
    <glyph glyph-name="uni012A" unicode="&#x12a;" horiz-adv-x="744" 
d="M708 2048l-340 -2048h-248l340 2048h248zM1136 2560l-32 -200h-936l32 200h936z" />
    <glyph glyph-name="uni012C" unicode="&#x12c;" horiz-adv-x="744" 
d="M708 2048l-340 -2048h-248l340 2048h248zM862 2560h220c-36 -216 -222 -368 -478 -368c-252 0 -386 152 -350 368h220c-18 -104 20 -196 160 -196s210 92 228 196z" />
    <glyph glyph-name="uni012E" unicode="&#x12e;" horiz-adv-x="744" 
d="M708 2048l-340 -2048c-132 -88 -260 -184 -280 -304c-12 -60 8 -96 88 -96c60 0 108 20 140 36l-12 -176c-48 -28 -128 -60 -224 -60c-164 0 -268 92 -240 264c19 118 104 238 281 343l339 2041h248z" />
    <glyph glyph-name="uni0130" unicode="&#x130;" horiz-adv-x="744" 
d="M708 2048l-340 -2048h-248l340 2048h248zM650 2304c-92 0 -168 72 -168 160s76 160 168 160s168 -72 168 -160s-76 -160 -168 -160z" />
    <glyph glyph-name="uni01CF" unicode="&#x1cf;" horiz-adv-x="744" 
d="M708 2048l-340 -2048h-248l340 2048h248zM474 2664l162 -280l254 280h224l-2 -16l-392 -416h-216l-256 416l2 16h224z" />
    <glyph glyph-name="uni0208" unicode="&#x208;" horiz-adv-x="744" 
d="M708 2048l-340 -2048h-248l340 2048h248zM730 2256l-168 464h300l74 -464h-206zM306 2256l-254 464h294l168 -464h-208z" />
    <glyph glyph-name="uni020A" unicode="&#x20a;" horiz-adv-x="744" 
d="M708 2048l-340 -2048h-248l340 2048h248zM210 2304c36 216 220 372 476 372s388 -156 352 -372h-220c16 108 -24 200 -160 200c-144 0 -212 -96 -228 -200h-220z" />
    <glyph glyph-name="uni1EC8" unicode="&#x1ec8;" horiz-adv-x="744" 
d="M708 2048l-340 -2048h-248l340 2048h248zM720 2256h-196l36 216c140 8 196 36 208 100c12 72 -80 104 -200 104l36 152c276 0 400 -104 376 -264c-24 -136 -136 -192 -244 -208z" />
    <glyph glyph-name="uni1ECA" unicode="&#x1eca;" horiz-adv-x="744" 
d="M708 2048l-340 -2048h-248l340 2048h248zM192 -504c-92 0 -168 72 -168 160s76 160 168 160s168 -72 168 -160s-76 -160 -168 -160z" />
    <glyph glyph-name="uni0399" unicode="&#x399;" horiz-adv-x="744" 
d="M708 2048l-340 -2048h-248l340 2048h248z" />
    <glyph glyph-name="uni038A" unicode="&#x38a;" horiz-adv-x="856" 
d="M820 2048l-340 -2048h-248l340 2048h248zM176 1708l144 468h256l-236 -468h-164z" />
    <glyph glyph-name="uni03AA" unicode="&#x3aa;" horiz-adv-x="744" 
d="M708 2048l-340 -2048h-248l340 2048h248zM926 2304c-88 0 -160 80 -144 176c14 84 92 144 168 144c100 0 164 -76 148 -176c-12 -76 -84 -144 -172 -144zM350 2304c-88 0 -157 84 -144 176c12 84 92 144 168 144c100 0 164 -76 148 -176c-12 -76 -84 -144 -172 -144z" />
    <glyph glyph-name="uni1F38" unicode="&#x1f38;" horiz-adv-x="1136" 
d="M1100 2048l-340 -2048h-248l340 2048h248zM772 2048l-16 -112c-28 -160 -140 -296 -316 -384l-96 84c92 84 144 176 164 308l16 104h248z" />
    <glyph glyph-name="uni1F39" unicode="&#x1f39;" horiz-adv-x="1120" 
d="M1084 2048l-340 -2048h-248l340 2048h248zM392 1936l20 112h248l-16 -104c-24 -132 -4 -224 60 -308l-124 -84c-144 88 -212 224 -188 384z" />
    <glyph glyph-name="uni1F3A" unicode="&#x1f3a;" horiz-adv-x="1660" 
d="M1624 2048l-340 -2048h-248l340 2048h248zM772 2048l-16 -112c-28 -160 -144 -296 -316 -384l-96 84c88 84 144 176 164 308l16 104h248zM1208 1604l-4 -20h-128l-244 436l4 28h288z" />
    <glyph glyph-name="uni1F3B" unicode="&#x1f3b;" horiz-adv-x="1552" 
d="M1516 2048l-340 -2048h-248l340 2048h248zM392 1936l20 112h248l-16 -104c-24 -132 -4 -224 60 -308l-124 -84c-144 88 -212 224 -188 384zM1124 1604l-4 -20h-128l-244 436l4 28h292z" />
    <glyph glyph-name="uni1F3C" unicode="&#x1f3c;" horiz-adv-x="1560" 
d="M1524 2048l-340 -2048h-248l340 2048h248zM772 2048l-20 -112c-24 -160 -140 -296 -316 -384l-92 84c84 84 140 176 164 308l16 104h248zM716 1584l4 20l228 444h288l-4 -28l-388 -436h-128z" />
    <glyph glyph-name="uni1F3D" unicode="&#x1f3d;" horiz-adv-x="1616" 
d="M1580 2048l-340 -2048h-248l340 2048h248zM392 1936l20 112h248l-16 -104c-24 -132 0 -224 60 -308l-124 -84c-144 88 -212 224 -188 384zM748 1584l4 20l224 444h292l-4 -28l-388 -436h-128z" />
    <glyph glyph-name="uni1F3E" unicode="&#x1f3e;" horiz-adv-x="1432" 
d="M1396 2048l-340 -2048h-248l340 2048h248zM1108 2376l116 -36c-24 -132 -136 -248 -272 -248c-148 0 -168 100 -288 100c-60 0 -116 -52 -128 -120l-116 32c24 132 136 256 272 256c124 0 168 -104 284 -104c60 0 124 52 132 120zM920 2024l-16 -96
c-16 -104 -96 -236 -220 -316l-108 68c68 76 104 152 120 244l16 100h208z" />
    <glyph glyph-name="uni1F3F" unicode="&#x1f3f;" horiz-adv-x="1432" 
d="M1396 2048l-340 -2048h-248l340 2048h248zM1108 2372l116 -36c-24 -132 -136 -248 -272 -248c-148 0 -168 100 -288 100c-60 0 -116 -52 -128 -120l-116 32c24 132 136 256 272 256c124 0 168 -104 284 -104c60 0 124 52 132 120zM684 1924l16 96h208l-16 -100
c-16 -92 -4 -168 40 -244l-136 -68c-100 80 -128 212 -112 316z" />
    <glyph glyph-name="uni1FD8" unicode="&#x1fd8;" horiz-adv-x="744" 
d="M708 2048l-340 -2048h-248l340 2048h248zM862 2560h220c-36 -216 -222 -368 -478 -368c-252 0 -386 152 -350 368h220c-18 -104 20 -196 160 -196s210 92 228 196z" />
    <glyph glyph-name="uni1FD9" unicode="&#x1fd9;" horiz-adv-x="744" 
d="M708 2048l-340 -2048h-248l340 2048h248zM1136 2560l-32 -200h-936l32 200h936z" />
    <glyph glyph-name="uni1FDA" unicode="&#x1fda;" horiz-adv-x="1272" 
d="M1236 2048l-340 -2048h-248l340 2048h248zM788 1580h-132l-244 440v28h292l84 -444v-24z" />
    <glyph glyph-name="uni1FDB" unicode="&#x1fdb;" horiz-adv-x="1176" 
d="M1140 2048l-340 -2048h-248l334 2012l-252 -284h-128l4 24l226 444h292l-4 -28l-106 -120h222z" />
    <glyph glyph-name="uni0406" unicode="&#x406;" horiz-adv-x="744" 
d="M708 2048l-340 -2048h-248l340 2048h248z" />
    <glyph glyph-name="uni0407" unicode="&#x407;" horiz-adv-x="744" 
d="M708 2048l-340 -2048h-248l340 2048h248zM926 2304c-88 0 -160 80 -144 176c14 84 92 144 168 144c100 0 164 -76 148 -176c-12 -76 -84 -144 -172 -144zM350 2304c-88 0 -157 84 -144 176c12 84 92 144 168 144c100 0 164 -76 148 -176c-12 -76 -84 -144 -172 -144z" />
    <glyph glyph-name="uniE00C" unicode="&#xe00c;" horiz-adv-x="1248" 
d="M312 1828l36 220h976l-36 -220h-365l-266 -1608h363l-36 -220h-976l36 220h365l266 1608h-363z" />
    <glyph glyph-name="uniE00D" unicode="&#xe00d;" horiz-adv-x="1248" 
d="M312 1828l36 220h976l-36 -220h-365l-266 -1608h363l-36 -220h-976l36 220h365l266 1608h-363zM1178 2304c-88 0 -160 80 -144 176c14 84 92 144 168 144c100 0 164 -76 148 -176c-12 -76 -84 -144 -172 -144zM602 2304c-88 0 -157 84 -144 176c12 84 92 144 168 144
c100 0 164 -76 148 -176c-12 -76 -84 -144 -172 -144z" />
    <glyph glyph-name="uniE00E" unicode="&#xe00e;" horiz-adv-x="1248" 
d="M312 1828l36 220h976l-36 -220h-365l-266 -1608h363l-36 -220h-976l36 220h365l266 1608h-363zM1154 2208c-88 0 -160 80 -144 176c14 84 92 144 168 144c100 0 164 -76 148 -176c-12 -76 -84 -144 -172 -144zM578 2208c-88 0 -157 84 -144 176c12 84 92 144 168 144
c100 0 164 -76 148 -176c-12 -76 -84 -144 -172 -144zM808 2672l324 304h276l-392 -304h-208z" />
    <glyph glyph-name="uniE00F" unicode="&#xe00f;" horiz-adv-x="1248" 
d="M312 1828l36 220h976l-36 -220h-365l-112 -680h317l-32 -184h-316l-123 -744h363l-36 -220h-976l36 220h365l123 744h-316l32 184h315l112 680h-363z" />
    <glyph glyph-name="uniE010" unicode="&#xe010;" horiz-adv-x="1248" 
d="M312 1828l36 220h976l-36 -220h-365l-266 -1608h363l-36 -220h-976l36 220h365l266 1608h-363zM184 -508l-180 8c32 204 188 348 360 348c152 0 200 -128 344 -128c76 0 148 68 160 152l176 -16c-32 -208 -188 -340 -360 -340c-184 0 -188 128 -340 128
c-76 0 -144 -68 -160 -152z" />
    <glyph glyph-name="uniE011" unicode="&#xe011;" horiz-adv-x="1248" 
d="M312 1828l36 220h976l-36 -220h-365l-266 -1608h363l-36 -220h-976l36 220h365l266 1608h-363zM768 2256l-232 464h276l164 -464h-208z" />
    <glyph glyph-name="uniE012" unicode="&#xe012;" horiz-adv-x="1248" 
d="M312 1828l36 220h976l-36 -220h-365l-266 -1608h363l-36 -220h-976l36 220h365l266 1608h-363zM760 2256l320 464h276l-388 -464h-208z" />
    <glyph glyph-name="uniE013" unicode="&#xe013;" horiz-adv-x="1248" 
d="M312 1828l36 220h976l-36 -220h-365l-266 -1608h363l-36 -220h-976l36 220h365l266 1608h-363zM655 2232h-224l4 16l394 416h216l254 -416l-4 -16h-224l-161 280z" />
    <glyph glyph-name="uniE014" unicode="&#xe014;" horiz-adv-x="1248" 
d="M312 1828l36 220h976l-36 -220h-365l-266 -1608h363l-36 -220h-976l36 220h365l266 1608h-363zM556 2232l-180 8c32 204 188 348 360 348c152 0 200 -128 344 -128c76 0 148 68 160 152l176 -16c-32 -208 -188 -340 -360 -340c-184 0 -188 128 -340 128
c-76 0 -144 -68 -160 -152z" />
    <glyph glyph-name="uniE015" unicode="&#xe015;" horiz-adv-x="1248" 
d="M312 1828l36 220h976l-36 -220h-365l-266 -1608h363l-36 -220h-976l36 220h365l266 1608h-363zM1388 2560l-32 -200h-936l32 200h936z" />
    <glyph glyph-name="uniE016" unicode="&#xe016;" horiz-adv-x="1248" 
d="M312 1828l36 220h976l-36 -220h-365l-266 -1608h363l-36 -220h-976l36 220h365l266 1608h-363zM1114 2560h220c-36 -216 -222 -368 -478 -368c-252 0 -386 152 -350 368h220c-18 -104 20 -196 160 -196s210 92 228 196z" />
    <glyph glyph-name="uniE017" unicode="&#xe017;" horiz-adv-x="1248" 
d="M312 1828l36 220h976l-36 -220h-365l-266 -1608h363l-36 -220c-132 -88 -260 -184 -280 -304c-12 -60 8 -96 88 -96c60 0 108 20 140 36l-12 -176c-48 -28 -128 -60 -224 -60c-164 0 -268 92 -240 264c19 115 100 233 270 336h-718l36 220h365l266 1608h-363z" />
    <glyph glyph-name="uniE018" unicode="&#xe018;" horiz-adv-x="1248" 
d="M312 1828l36 220h976l-36 -220h-365l-266 -1608h363l-36 -220h-976l36 220h365l266 1608h-363zM902 2304c-92 0 -168 72 -168 160s76 160 168 160s168 -72 168 -160s-76 -160 -168 -160z" />
    <glyph glyph-name="uniE019" unicode="&#xe019;" horiz-adv-x="1248" 
d="M312 1828l36 220h976l-36 -220h-365l-266 -1608h363l-36 -220h-976l36 220h365l266 1608h-363zM726 2664l162 -280l254 280h224l-2 -16l-392 -416h-216l-256 416l2 16h224z" />
    <glyph glyph-name="uniE01A" unicode="&#xe01a;" horiz-adv-x="1248" 
d="M312 1828l36 220h976l-36 -220h-365l-266 -1608h363l-36 -220h-976l36 220h365l266 1608h-363zM982 2256l-168 464h300l74 -464h-206zM558 2256l-254 464h294l168 -464h-208z" />
    <glyph glyph-name="uniE01B" unicode="&#xe01b;" horiz-adv-x="1248" 
d="M312 1828l36 220h976l-36 -220h-365l-266 -1608h363l-36 -220h-976l36 220h365l266 1608h-363zM462 2304c36 216 220 372 476 372s388 -156 352 -372h-220c16 108 -24 200 -160 200c-144 0 -212 -96 -228 -200h-220z" />
    <glyph glyph-name="uniE01C" unicode="&#xe01c;" horiz-adv-x="1248" 
d="M312 1828l36 220h976l-36 -220h-365l-266 -1608h363l-36 -220h-976l36 220h365l266 1608h-363zM972 2256h-196l36 216c140 8 196 36 208 100c12 72 -80 104 -200 104l36 152c276 0 400 -104 376 -264c-24 -136 -136 -192 -244 -208z" />
    <glyph glyph-name="uniE01D" unicode="&#xe01d;" horiz-adv-x="1248" 
d="M312 1828l36 220h976l-36 -220h-365l-266 -1608h363l-36 -220h-976l36 220h365l266 1608h-363zM444 -504c-92 0 -168 72 -168 160s76 160 168 160s168 -72 168 -160s-76 -160 -168 -160z" />
    <glyph glyph-name="uniE01E" unicode="&#xe01e;" horiz-adv-x="1688" 
d="M752 1828l36 220h976l-36 -220h-365l-266 -1608h363l-36 -220h-976l36 220h365l266 1608h-363zM708 2048l-16 -112c-28 -160 -140 -296 -316 -384l-96 84c92 84 144 176 164 308l16 104h248z" />
    <glyph glyph-name="uniE01F" unicode="&#xe01f;" horiz-adv-x="1672" 
d="M736 1828l36 220h976l-36 -220h-365l-266 -1608h363l-36 -220h-976l36 220h365l266 1608h-363zM328 1936l20 112h248l-16 -104c-24 -132 -4 -224 60 -308l-124 -84c-144 88 -212 224 -188 384z" />
    <glyph glyph-name="uniE020" unicode="&#xe020;" horiz-adv-x="2212" 
d="M1276 1828l36 220h976l-36 -220h-365l-266 -1608h363l-36 -220h-976l36 220h365l266 1608h-363zM708 2048l-16 -112c-28 -160 -144 -296 -316 -384l-96 84c88 84 144 176 164 308l16 104h248zM1144 1604l-4 -20h-128l-244 436l4 28h288z" />
    <glyph glyph-name="uniE021" unicode="&#xe021;" horiz-adv-x="2104" 
d="M1168 1828l36 220h976l-36 -220h-365l-266 -1608h363l-36 -220h-976l36 220h365l266 1608h-363zM328 1936l20 112h248l-16 -104c-24 -132 -4 -224 60 -308l-124 -84c-144 88 -212 224 -188 384zM1060 1604l-4 -20h-128l-244 436l4 28h292z" />
    <glyph glyph-name="uniE022" unicode="&#xe022;" horiz-adv-x="2112" 
d="M1176 1828l36 220h976l-36 -220h-365l-266 -1608h363l-36 -220h-976l36 220h365l266 1608h-363zM708 2048l-20 -112c-24 -160 -140 -296 -316 -384l-92 84c84 84 140 176 164 308l16 104h248zM652 1584l4 20l228 444h288l-4 -28l-388 -436h-128z" />
    <glyph glyph-name="uniE023" unicode="&#xe023;" horiz-adv-x="2168" 
d="M1232 1828l36 220h976l-36 -220h-365l-266 -1608h363l-36 -220h-976l36 220h365l266 1608h-363zM328 1936l20 112h248l-16 -104c-24 -132 0 -224 60 -308l-124 -84c-144 88 -212 224 -188 384zM684 1584l4 20l224 444h292l-4 -28l-388 -436h-128z" />
    <glyph glyph-name="uniE024" unicode="&#xe024;" horiz-adv-x="1984" 
d="M1048 1828l36 220h976l-36 -220h-365l-266 -1608h363l-36 -220h-976l36 220h365l266 1608h-363zM1044 2376l116 -36c-24 -132 -136 -248 -272 -248c-148 0 -168 100 -288 100c-60 0 -116 -52 -128 -120l-116 32c24 132 136 256 272 256c124 0 168 -104 284 -104
c60 0 124 52 132 120zM856 2024l-16 -96c-16 -104 -96 -236 -220 -316l-108 68c68 76 104 152 120 244l16 100h208z" />
    <glyph glyph-name="uniE025" unicode="&#xe025;" horiz-adv-x="1984" 
d="M1048 1828l36 220h976l-36 -220h-365l-266 -1608h363l-36 -220h-976l36 220h365l266 1608h-363zM1044 2372l116 -36c-24 -132 -136 -248 -272 -248c-148 0 -168 100 -288 100c-60 0 -116 -52 -128 -120l-116 32c24 132 136 256 272 256c124 0 168 -104 284 -104
c60 0 124 52 132 120zM620 1924l16 96h208l-16 -100c-16 -92 -4 -168 40 -244l-136 -68c-100 80 -128 212 -112 316z" />
    <glyph glyph-name="uniE026" unicode="&#xe026;" horiz-adv-x="1248" 
d="M312 1828l36 220h976l-36 -220h-365l-266 -1608h363l-36 -220h-976l36 220h365l266 1608h-363zM1114 2560h220c-36 -216 -222 -368 -478 -368c-252 0 -386 152 -350 368h220c-18 -104 20 -196 160 -196s210 92 228 196z" />
    <glyph glyph-name="uniE027" unicode="&#xe027;" horiz-adv-x="1248" 
d="M312 1828l36 220h976l-36 -220h-365l-266 -1608h363l-36 -220h-976l36 220h365l266 1608h-363zM1388 2560l-32 -200h-936l32 200h936z" />
    <glyph glyph-name="uniE028" unicode="&#xe028;" horiz-adv-x="1824" 
d="M888 1828l36 220h976l-36 -220h-365l-266 -1608h363l-36 -220h-976l36 220h365l266 1608h-363zM724 1580h-132l-244 440v28h292l84 -444v-24z" />
    <glyph glyph-name="uniE029" unicode="&#xe029;" horiz-adv-x="1724" 
d="M788 1828l30 185l-252 -285h-128l4 24l226 444h292l-4 -28l-106 -120h950l-36 -220h-365l-266 -1608h363l-36 -220h-976l36 220h365l266 1608h-363z" />
    <glyph glyph-name="uniE02A" unicode="&#xe02a;" horiz-adv-x="1248" 
d="M312 1828l36 220h976l-36 -220h-365l-266 -1608h363l-36 -220h-976l36 220h365l266 1608h-363z" />
    <glyph glyph-name="uniE02B" unicode="&#xe02b;" horiz-adv-x="1248" 
d="M312 1828l36 220h976l-36 -220h-365l-266 -1608h363l-36 -220h-976l36 220h365l266 1608h-363zM1178 2304c-88 0 -160 80 -144 176c14 84 92 144 168 144c100 0 164 -76 148 -176c-12 -76 -84 -144 -172 -144zM602 2304c-88 0 -157 84 -144 176c12 84 92 144 168 144
c100 0 164 -76 148 -176c-12 -76 -84 -144 -172 -144z" />
    <glyph glyph-name="uni004A" unicode="J" horiz-adv-x="1528" 
d="M1244 2048h248l-244 -1472c-64 -392 -308 -604 -668 -604c-344 0 -561 195 -512 508h236c-25 -181 90 -288 280 -288c219 0 376 144 420 400z" />
    <glyph glyph-name="uni0134" unicode="&#x134;" horiz-adv-x="1528" 
d="M1244 2048h248l-244 -1472c-64 -392 -308 -604 -668 -604c-344 0 -561 195 -512 508h236c-25 -181 90 -288 280 -288c219 0 376 144 420 400zM1191 2232h-224l4 16l394 416h216l254 -416l-4 -16h-224l-161 280z" />
    <glyph glyph-name="uni0248" unicode="&#x248;" horiz-adv-x="1528" 
d="M1244 2048h248l-123 -740h319l-32 -184h-317l-91 -548c-64 -392 -308 -604 -668 -604c-344 0 -561 195 -512 508h236c-25 -181 90 -288 280 -288c219 0 376 144 420 400l88 532h-316l32 184h314z" />
    <glyph glyph-name="uni037F" unicode="&#x37f;" horiz-adv-x="1528" 
d="M1244 2048h248l-244 -1472c-64 -392 -308 -604 -668 -604c-344 0 -561 195 -512 508h236c-25 -181 90 -288 280 -288c219 0 376 144 420 400z" />
    <glyph glyph-name="uni0408" unicode="&#x408;" horiz-adv-x="1528" 
d="M1244 2048h248l-244 -1472c-64 -392 -308 -604 -668 -604c-344 0 -561 195 -512 508h236c-25 -181 90 -288 280 -288c219 0 376 144 420 400z" />
    <glyph glyph-name="uni004B" unicode="K" horiz-adv-x="1836" 
d="M120 0l340 2048h248l-168 -1016h24l1088 1016h324l-1012 -924l672 -1124h-300l-552 952l-304 -288l-112 -664h-248z" />
    <glyph glyph-name="uni0136" unicode="&#x136;" horiz-adv-x="1836" 
d="M120 0l340 2048h248l-168 -1016h24l1088 1016h324l-1012 -924l672 -1124h-300l-552 952l-304 -288l-112 -664h-248zM474 -680l198 518h242l-256 -518h-184z" />
    <glyph glyph-name="uni01E8" unicode="&#x1e8;" horiz-adv-x="1836" 
d="M120 0l340 2048h248l-168 -1016h24l1088 1016h324l-1012 -924l672 -1124h-300l-552 952l-304 -288l-112 -664h-248zM1026 2664l162 -280l254 280h224l-2 -16l-392 -416h-216l-256 416l2 16h224z" />
    <glyph glyph-name="uni1E30" unicode="&#x1e30;" horiz-adv-x="1836" 
d="M120 0l340 2048h248l-168 -1016h24l1088 1016h324l-1012 -924l672 -1124h-300l-552 952l-304 -288l-112 -664h-248zM1060 2256l320 464h276l-388 -464h-208z" />
    <glyph glyph-name="uni1E32" unicode="&#x1e32;" horiz-adv-x="1836" 
d="M120 0l340 2048h248l-168 -1016h24l1088 1016h324l-1012 -924l672 -1124h-300l-552 952l-304 -288l-112 -664h-248zM764 -504c-92 0 -168 72 -168 160s76 160 168 160s168 -72 168 -160s-76 -160 -168 -160z" />
    <glyph glyph-name="uni1E34" unicode="&#x1e34;" horiz-adv-x="1836" 
d="M120 0l340 2048h248l-168 -1016h24l1088 1016h324l-1012 -924l672 -1124h-300l-552 952l-304 -288l-112 -664h-248zM1246 -252l-32 -200h-936l32 200h936z" />
    <glyph glyph-name="uni04A0" unicode="&#x4a0;" horiz-adv-x="2100" 
d="M1604 0l-548 940h-252l-156 -940h-248l303 1828h-503l36 220h752l-148 -888h108l968 888h296l-976 -900l664 -1148h-296z" />
    <glyph glyph-name="uni049A" unicode="&#x49a;" horiz-adv-x="2004" 
d="M1324 0l-548 940h-252l-156 -940h-248l340 2048h248l-148 -888h108l968 888h296l-976 -900l537 -928h219l-116 -716h-236l80 496h-116z" />
    <glyph glyph-name="uni0198" unicode="&#x198;" horiz-adv-x="1892" 
d="M120 0l340 2048h248l-168 -1016h24l960 896c188 176 404 184 548 68l-132 -184c-76 56 -169 49 -288 -60l-688 -628l672 -1124h-300l-552 952l-304 -288l-112 -664h-248z" />
    <glyph glyph-name="uni039A" unicode="&#x39a;" horiz-adv-x="1836" 
d="M120 0l340 2048h248l-168 -1016h24l1088 1016h324l-1012 -924l672 -1124h-300l-552 952l-304 -288l-112 -664h-248z" />
    <glyph glyph-name="uni004C" unicode="L" horiz-adv-x="1584" 
d="M120 0l340 2048h248l-304 -1828h952l-36 -220h-1200z" />
    <glyph glyph-name="uni0139" unicode="&#x139;" horiz-adv-x="1584" 
d="M120 0l340 2048h248l-304 -1828h952l-36 -220h-1200zM516 2256l320 464h276l-388 -464h-208z" />
    <glyph glyph-name="uni013B" unicode="&#x13b;" horiz-adv-x="1584" 
d="M120 0l340 2048h248l-304 -1828h952l-36 -220h-1200zM386 -680l198 518h242l-256 -518h-184z" />
    <glyph glyph-name="uni013D" unicode="&#x13d;" horiz-adv-x="1584" 
d="M120 0l340 2048h248l-304 -1828h952l-36 -220h-1200zM982 1626l86 518h242l-156 -518h-172z" />
    <glyph glyph-name="uni1E36" unicode="&#x1e36;" horiz-adv-x="1584" 
d="M120 0l340 2048h248l-304 -1828h952l-36 -220h-1200zM676 -504c-92 0 -168 72 -168 160s76 160 168 160s168 -72 168 -160s-76 -160 -168 -160z" />
    <glyph glyph-name="uni1E38" unicode="&#x1e38;" horiz-adv-x="1584" 
d="M120 0l340 2048h248l-304 -1828h952l-36 -220h-1200zM1144 2560l-32 -200h-936l32 200h936zM676 -504c-92 0 -168 72 -168 160s76 160 168 160s168 -72 168 -160s-76 -160 -168 -160z" />
    <glyph glyph-name="uni1E3A" unicode="&#x1e3a;" horiz-adv-x="1584" 
d="M120 0l340 2048h248l-304 -1828h952l-36 -220h-1200zM1158 -252l-32 -200h-936l32 200h936z" />
    <glyph glyph-name="uni1E3C" unicode="&#x1e3c;" horiz-adv-x="1584" 
d="M120 0l340 2048h248l-304 -1828h952l-36 -220h-1200zM443 -560h-224l4 16l394 416h216l254 -416l-4 -16h-224l-161 280z" />
    <glyph glyph-name="uni0141" unicode="&#x141;" horiz-adv-x="1584" 
d="M872 1280v-180l-339 -107l-129 -773h952l-36 -220h-1200l151 911l-211 -67v180l243 77l157 947h248l-144 -865z" />
    <glyph glyph-name="uni023D" unicode="&#x23d;" horiz-adv-x="1584" 
d="M120 0l160 964h-316l32 184h315l149 900h248l-150 -900h318l-32 -184h-316l-124 -744h952l-36 -220h-1200z" />
    <glyph glyph-name="uni01C8" unicode="&#x1c8;" horiz-adv-x="2252" 
d="M120 0l340 2048h248l-304 -1828h952l-36 -220h-1200zM1928 1536h236l-272 -1648c-48 -284 -224 -464 -520 -464h-48l36 220h44c144 0 224 88 252 244zM2110 1792c-92 0 -168 72 -168 160s76 160 168 160s168 -72 168 -160s-76 -160 -168 -160z" />
    <glyph glyph-name="uni004D" unicode="M" horiz-adv-x="2504" 
d="M460 2048h296l416 -1700h24l976 1700h296l-340 -2048h-232l260 1556h-20l-900 -1556h-224l-380 1556h-20l-260 -1556h-232z" />
    <glyph glyph-name="uni1E3E" unicode="&#x1e3e;" horiz-adv-x="2504" 
d="M460 2048h296l416 -1700h24l976 1700h296l-340 -2048h-232l260 1556h-20l-900 -1556h-224l-380 1556h-20l-260 -1556h-232zM1392 2256l320 464h276l-388 -464h-208z" />
    <glyph glyph-name="uni1E40" unicode="&#x1e40;" horiz-adv-x="2504" 
d="M460 2048h296l416 -1700h24l976 1700h296l-340 -2048h-232l260 1556h-20l-900 -1556h-224l-380 1556h-20l-260 -1556h-232zM1534 2304c-92 0 -168 72 -168 160s76 160 168 160s168 -72 168 -160s-76 -160 -168 -160z" />
    <glyph glyph-name="uni1E42" unicode="&#x1e42;" horiz-adv-x="2504" 
d="M460 2048h296l416 -1700h24l976 1700h296l-340 -2048h-232l260 1556h-20l-900 -1556h-224l-380 1556h-20l-260 -1556h-232zM1068 -504c-92 0 -168 72 -168 160s76 160 168 160s168 -72 168 -160s-76 -160 -168 -160z" />
    <glyph glyph-name="uni04CD" unicode="&#x4cd;" horiz-adv-x="2544" 
d="M460 2048h296l416 -1700h24l976 1700h296l-314 -1892h226l-32 -188c-32 -176 -128 -340 -256 -496l-196 40c96 160 172 300 196 452l6 36h-202l260 1556h-20l-900 -1556h-224l-380 1556h-20l-260 -1556h-232z" />
    <glyph glyph-name="uni039C" unicode="&#x39c;" horiz-adv-x="2504" 
d="M460 2048h296l416 -1700h24l976 1700h296l-340 -2048h-232l260 1556h-20l-900 -1556h-224l-380 1556h-20l-260 -1556h-232z" />
    <glyph glyph-name="uni03FA" unicode="&#x3fa;" horiz-adv-x="2504" 
d="M460 2048h296l416 -1700h24l976 1700h296l-340 -2048h-232l260 1556h-20l-900 -1556h-224l-380 1556h-20l-260 -1556h-232z" />
    <glyph glyph-name="uni041C" unicode="&#x41c;" horiz-adv-x="2504" 
d="M460 2048h296l416 -1700h24l976 1700h296l-340 -2048h-232l260 1556h-20l-900 -1556h-224l-380 1556h-20l-260 -1556h-232z" />
    <glyph glyph-name="uni004E" unicode="N" horiz-adv-x="2120" 
d="M2084 2048l-340 -2048h-240l-848 1608h-20l-268 -1608h-248l340 2048h240l852 -1612h20l268 1612h244z" />
    <glyph glyph-name="uni00D1" unicode="&#xd1;" horiz-adv-x="2120" 
d="M2084 2048l-340 -2048h-240l-848 1608h-20l-268 -1608h-248l340 2048h240l852 -1612h20l268 1612h244zM996 2232l-180 8c32 204 188 348 360 348c152 0 200 -128 344 -128c76 0 148 68 160 152l176 -16c-32 -208 -188 -340 -360 -340c-184 0 -188 128 -340 128
c-76 0 -144 -68 -160 -152z" />
    <glyph glyph-name="uni0143" unicode="&#x143;" horiz-adv-x="2120" 
d="M2084 2048l-340 -2048h-240l-848 1608h-20l-268 -1608h-248l340 2048h240l852 -1612h20l268 1612h244zM1200 2256l320 464h276l-388 -464h-208z" />
    <glyph glyph-name="uni0145" unicode="&#x145;" horiz-adv-x="2120" 
d="M2084 2048l-340 -2048h-240l-848 1608h-20l-268 -1608h-248l340 2048h240l852 -1612h20l268 1612h244zM586 -680l198 518h242l-256 -518h-184z" />
    <glyph glyph-name="uni0147" unicode="&#x147;" horiz-adv-x="2120" 
d="M2084 2048l-340 -2048h-240l-848 1608h-20l-268 -1608h-248l340 2048h240l852 -1612h20l268 1612h244zM1166 2664l162 -280l254 280h224l-2 -16l-392 -416h-216l-256 416l2 16h224z" />
    <glyph glyph-name="uni01F8" unicode="&#x1f8;" horiz-adv-x="2120" 
d="M2084 2048l-340 -2048h-240l-848 1608h-20l-268 -1608h-248l340 2048h240l852 -1612h20l268 1612h244zM1208 2256l-232 464h276l164 -464h-208z" />
    <glyph glyph-name="uni1E44" unicode="&#x1e44;" horiz-adv-x="2120" 
d="M2084 2048l-340 -2048h-240l-848 1608h-20l-268 -1608h-248l340 2048h240l852 -1612h20l268 1612h244zM1342 2304c-92 0 -168 72 -168 160s76 160 168 160s168 -72 168 -160s-76 -160 -168 -160z" />
    <glyph glyph-name="uni1E46" unicode="&#x1e46;" horiz-adv-x="2120" 
d="M2084 2048l-340 -2048h-240l-848 1608h-20l-268 -1608h-248l340 2048h240l852 -1612h20l268 1612h244zM876 -504c-92 0 -168 72 -168 160s76 160 168 160s168 -72 168 -160s-76 -160 -168 -160z" />
    <glyph glyph-name="uni1E48" unicode="&#x1e48;" horiz-adv-x="2120" 
d="M2084 2048l-340 -2048h-240l-848 1608h-20l-268 -1608h-248l340 2048h240l852 -1612h20l268 1612h244zM1358 -252l-32 -200h-936l32 200h936z" />
    <glyph glyph-name="uni1E4A" unicode="&#x1e4a;" horiz-adv-x="2120" 
d="M2084 2048l-340 -2048h-240l-848 1608h-20l-268 -1608h-248l340 2048h240l852 -1612h20l268 1612h244zM643 -560h-224l4 16l394 416h216l254 -416l-4 -16h-224l-161 280z" />
    <glyph glyph-name="uni019D" unicode="&#x19d;" horiz-adv-x="2140" 
d="M140 0l340 2048h240l852 -1612h20l268 1612h244l-340 -2048h-240l-848 1608h-20l-268 -1608l-32 -164c-57 -284 -225 -416 -448 -416c-63 0 -121 7 -164 16l32 204c23 -4 51 -8 76 -8c131 0 231 48 260 208z" />
    <glyph glyph-name="uni014A" unicode="&#x14a;" horiz-adv-x="2120" 
d="M1504 0l-848 1608h-20l-268 -1608h-248l340 2048h240l852 -1612h20l268 1612h244l-340 -2048l-32 -164c-51 -262 -251 -412 -476 -412c-47 0 -99 0 -132 12l32 204c20 -4 48 -8 76 -8c128 0 228 49 260 208z" />
    <glyph glyph-name="uni0418" unicode="&#x418;" horiz-adv-x="2120" 
d="M458 2048h244l-266 -1612h20l1386 1612h240l-338 -2048h-248l264 1608h-20l-1380 -1608h-240z" />
    <glyph glyph-name="uni040D" unicode="&#x40d;" horiz-adv-x="2120" 
d="M458 2048h244l-266 -1612h20l1386 1612h240l-338 -2048h-248l264 1608h-20l-1380 -1608h-240zM1202 2256l-232 464h276l164 -464h-208z" />
    <glyph glyph-name="uni0419" unicode="&#x419;" horiz-adv-x="2120" 
d="M458 2048h244l-266 -1612h20l1386 1612h240l-338 -2048h-248l264 1608h-20l-1380 -1608h-240zM1548 2560h220c-36 -216 -222 -368 -478 -368c-252 0 -386 152 -350 368h220c-18 -104 20 -196 160 -196s210 92 228 196z" />
    <glyph glyph-name="uni04E2" unicode="&#x4e2;" horiz-adv-x="2120" 
d="M458 2048h244l-266 -1612h20l1386 1612h240l-338 -2048h-248l264 1608h-20l-1380 -1608h-240zM1822 2560l-32 -200h-936l32 200h936z" />
    <glyph glyph-name="uni04E4" unicode="&#x4e4;" horiz-adv-x="2120" 
d="M458 2048h244l-266 -1612h20l1386 1612h240l-338 -2048h-248l264 1608h-20l-1380 -1608h-240zM1612 2304c-88 0 -160 80 -144 176c14 84 92 144 168 144c100 0 164 -76 148 -176c-12 -76 -84 -144 -172 -144zM1036 2304c-88 0 -157 84 -144 176c12 84 92 144 168 144
c100 0 164 -76 148 -176c-12 -76 -84 -144 -172 -144z" />
    <glyph glyph-name="uni048A" unicode="&#x48a;" horiz-adv-x="2120" 
d="M458 2048h244l-266 -1612h20l1386 1612h240l-312 -1892h250l-32 -188c-32 -176 -128 -340 -256 -496l-196 40c96 160 172 300 196 452l6 36h-242l264 1608h-20l-1380 -1608h-240zM1548 2560h220c-36 -216 -222 -368 -478 -368c-252 0 -386 152 -350 368h220
c-18 -104 20 -196 160 -196s210 92 228 196z" />
    <glyph glyph-name="uni0376" unicode="&#x376;" horiz-adv-x="2120" 
d="M458 2048h244l-266 -1612h20l1386 1612h240l-338 -2048h-248l264 1608h-20l-1380 -1608h-240z" />
    <glyph glyph-name="uni039D" unicode="&#x39d;" horiz-adv-x="2120" 
d="M2084 2048l-340 -2048h-240l-848 1608h-20l-268 -1608h-248l340 2048h240l852 -1612h20l268 1612h244z" />
    <glyph glyph-name="uni01CB" unicode="&#x1cb;" horiz-adv-x="2748" 
d="M2084 2048l-340 -2048h-240l-848 1608h-20l-268 -1608h-248l340 2048h240l852 -1612h20l268 1612h244zM2424 1536h236l-272 -1648c-48 -284 -224 -464 -520 -464h-48l36 220h44c144 0 224 88 252 244zM2606 1792c-92 0 -168 72 -168 160s76 160 168 160s168 -72 168 -160
s-76 -160 -168 -160z" />
    <glyph glyph-name="uni004F" unicode="O" horiz-adv-x="2144" 
d="M2016 1008c-108 -640 -544 -1036 -1060 -1036c-532 0 -852 412 -744 1068c108 640 544 1036 1064 1036c528 0 848 -412 740 -1068zM1780 1040c88 524 -152 804 -516 804c-380 0 -728 -296 -816 -836c-88 -524 152 -804 516 -804c380 0 728 296 816 836z" />
    <glyph glyph-name="uni00D6" unicode="&#xd6;" horiz-adv-x="2144" 
d="M2016 1008c-108 -640 -544 -1036 -1060 -1036c-532 0 -852 412 -744 1068c108 640 544 1036 1064 1036c528 0 848 -412 740 -1068zM1780 1040c88 524 -152 804 -516 804c-380 0 -728 -296 -816 -836c-88 -524 152 -804 516 -804c380 0 728 296 816 836zM1626 2304
c-88 0 -160 80 -144 176c14 84 92 144 168 144c100 0 164 -76 148 -176c-12 -76 -84 -144 -172 -144zM1050 2304c-88 0 -157 84 -144 176c12 84 92 144 168 144c100 0 164 -76 148 -176c-12 -76 -84 -144 -172 -144z" />
    <glyph glyph-name="uni00D5" unicode="&#xd5;" horiz-adv-x="2144" 
d="M2016 1008c-108 -640 -544 -1036 -1060 -1036c-532 0 -852 412 -744 1068c108 640 544 1036 1064 1036c528 0 848 -412 740 -1068zM1780 1040c88 524 -152 804 -516 804c-380 0 -728 -296 -816 -836c-88 -524 152 -804 516 -804c380 0 728 296 816 836zM1006 2252l-180 8
c32 204 188 348 360 348c152 0 200 -128 344 -128c76 0 148 68 160 152l176 -16c-32 -208 -188 -340 -360 -340c-184 0 -188 128 -340 128c-76 0 -144 -68 -160 -152z" />
    <glyph glyph-name="uni00D8" unicode="&#xd8;" horiz-adv-x="2148" 
d="M480 -84l-152 104l97 143c-191 183 -277 485 -213 873c108 640 544 1036 1064 1036c143 0 271 -30 379 -87l97 143l152 -104l-100 -147c190 -183 276 -485 212 -873c-108 -640 -544 -1036 -1060 -1036c-144 0 -273 30 -382 88zM564 370l955 1414c-74 37 -160 56 -255 56
c-380 0 -728 -296 -816 -836c-48 -286 2 -500 116 -634zM1780 1036c48 286 -2 499 -115 634l-955 -1414c74 -37 160 -56 254 -56c380 0 728 296 816 836z" />
    <glyph glyph-name="uni01A0" unicode="&#x1a0;" horiz-adv-x="2180" 
d="M2144 2196h236c-47 -284 -190 -471 -422 -537c77 -172 101 -393 58 -651c-108 -640 -544 -1036 -1060 -1036c-532 0 -852 412 -744 1068c108 640 544 1036 1064 1036c242 0 440 -86 573 -243c166 26 260 157 295 363zM1780 1040c88 524 -152 804 -516 804
c-380 0 -728 -296 -816 -836c-88 -524 152 -804 516 -804c380 0 728 296 816 836z" />
    <glyph glyph-name="uni00D2" unicode="&#xd2;" horiz-adv-x="2144" 
d="M2016 1008c-108 -640 -544 -1036 -1060 -1036c-532 0 -852 412 -744 1068c108 640 544 1036 1064 1036c528 0 848 -412 740 -1068zM1780 1040c88 524 -152 804 -516 804c-380 0 -728 -296 -816 -836c-88 -524 152 -804 516 -804c380 0 728 296 816 836zM1216 2256
l-232 464h276l164 -464h-208z" />
    <glyph glyph-name="uni00D3" unicode="&#xd3;" horiz-adv-x="2144" 
d="M2016 1008c-108 -640 -544 -1036 -1060 -1036c-532 0 -852 412 -744 1068c108 640 544 1036 1064 1036c528 0 848 -412 740 -1068zM1780 1040c88 524 -152 804 -516 804c-380 0 -728 -296 -816 -836c-88 -524 152 -804 516 -804c380 0 728 296 816 836zM1208 2256
l320 464h276l-388 -464h-208z" />
    <glyph glyph-name="uni00D4" unicode="&#xd4;" horiz-adv-x="2144" 
d="M2016 1008c-108 -640 -544 -1036 -1060 -1036c-532 0 -852 412 -744 1068c108 640 544 1036 1064 1036c528 0 848 -412 740 -1068zM1780 1040c88 524 -152 804 -516 804c-380 0 -728 -296 -816 -836c-88 -524 152 -804 516 -804c380 0 728 296 816 836zM1103 2232h-224
l4 16l394 416h216l254 -416l-4 -16h-224l-161 280z" />
    <glyph glyph-name="uni014C" unicode="&#x14c;" horiz-adv-x="2144" 
d="M2016 1008c-108 -640 -544 -1036 -1060 -1036c-532 0 -852 412 -744 1068c108 640 544 1036 1064 1036c528 0 848 -412 740 -1068zM1780 1040c88 524 -152 804 -516 804c-380 0 -728 -296 -816 -836c-88 -524 152 -804 516 -804c380 0 728 296 816 836zM1836 2560
l-32 -200h-936l32 200h936z" />
    <glyph glyph-name="uni014E" unicode="&#x14e;" horiz-adv-x="2144" 
d="M2016 1008c-108 -640 -544 -1036 -1060 -1036c-532 0 -852 412 -744 1068c108 640 544 1036 1064 1036c528 0 848 -412 740 -1068zM1780 1040c88 524 -152 804 -516 804c-380 0 -728 -296 -816 -836c-88 -524 152 -804 516 -804c380 0 728 296 816 836zM1562 2560h220
c-36 -216 -222 -368 -478 -368c-252 0 -386 152 -350 368h220c-18 -104 20 -196 160 -196s210 92 228 196z" />
    <glyph glyph-name="uni0150" unicode="&#x150;" horiz-adv-x="2144" 
d="M2016 1008c-108 -640 -544 -1036 -1060 -1036c-532 0 -852 412 -744 1068c108 640 544 1036 1064 1036c528 0 848 -412 740 -1068zM1780 1040c88 524 -152 804 -516 804c-380 0 -728 -296 -816 -836c-88 -524 152 -804 516 -804c380 0 728 296 816 836zM1368 2216
l380 424h264l-436 -424h-208zM956 2216l296 424h260l-368 -424h-188z" />
    <glyph glyph-name="uni01D1" unicode="&#x1d1;" horiz-adv-x="2144" 
d="M2016 1008c-108 -640 -544 -1036 -1060 -1036c-532 0 -852 412 -744 1068c108 640 544 1036 1064 1036c528 0 848 -412 740 -1068zM1780 1040c88 524 -152 804 -516 804c-380 0 -728 -296 -816 -836c-88 -524 152 -804 516 -804c380 0 728 296 816 836zM1174 2664
l162 -280l254 280h224l-2 -16l-392 -416h-216l-256 416l2 16h224z" />
    <glyph glyph-name="uni01EA" unicode="&#x1ea;" horiz-adv-x="2144" 
d="M2016 1008c-95 -562 -443 -936 -876 -1019c-126 -85 -245 -178 -264 -293c-12 -60 8 -96 88 -96c60 0 108 20 140 36l-12 -176c-48 -28 -128 -60 -224 -60c-164 0 -268 92 -240 264c17 107 89 215 233 313c-474 46 -750 447 -649 1063c108 640 544 1036 1064 1036
c528 0 848 -412 740 -1068zM1780 1040c88 524 -152 804 -516 804c-380 0 -728 -296 -816 -836c-88 -524 152 -804 516 -804c380 0 728 296 816 836z" />
    <glyph glyph-name="uni01EC" unicode="&#x1ec;" horiz-adv-x="2144" 
d="M2016 1008c-95 -562 -443 -936 -876 -1019c-126 -85 -245 -178 -264 -293c-12 -60 8 -96 88 -96c60 0 108 20 140 36l-12 -176c-48 -28 -128 -60 -224 -60c-164 0 -268 92 -240 264c17 107 89 215 233 313c-474 46 -750 447 -649 1063c108 640 544 1036 1064 1036
c528 0 848 -412 740 -1068zM1780 1040c88 524 -152 804 -516 804c-380 0 -728 -296 -816 -836c-88 -524 152 -804 516 -804c380 0 728 296 816 836zM1836 2560l-32 -200h-936l32 200h936z" />
    <glyph glyph-name="uni020C" unicode="&#x20c;" horiz-adv-x="2144" 
d="M2016 1008c-108 -640 -544 -1036 -1060 -1036c-532 0 -852 412 -744 1068c108 640 544 1036 1064 1036c528 0 848 -412 740 -1068zM1780 1040c88 524 -152 804 -516 804c-380 0 -728 -296 -816 -836c-88 -524 152 -804 516 -804c380 0 728 296 816 836zM1430 2256
l-168 464h300l74 -464h-206zM1006 2256l-254 464h294l168 -464h-208z" />
    <glyph glyph-name="uni020E" unicode="&#x20e;" horiz-adv-x="2144" 
d="M2016 1008c-108 -640 -544 -1036 -1060 -1036c-532 0 -852 412 -744 1068c108 640 544 1036 1064 1036c528 0 848 -412 740 -1068zM1780 1040c88 524 -152 804 -516 804c-380 0 -728 -296 -816 -836c-88 -524 152 -804 516 -804c380 0 728 296 816 836zM910 2304
c36 216 220 372 476 372s388 -156 352 -372h-220c16 108 -24 200 -160 200c-144 0 -212 -96 -228 -200h-220z" />
    <glyph glyph-name="uni022A" unicode="&#x22a;" horiz-adv-x="2144" 
d="M2016 1008c-108 -640 -544 -1036 -1060 -1036c-532 0 -852 412 -744 1068c108 640 544 1036 1064 1036c528 0 848 -412 740 -1068zM1780 1040c88 524 -152 804 -516 804c-380 0 -728 -296 -816 -836c-88 -524 152 -804 516 -804c380 0 728 296 816 836zM1914 3072
l-32 -200h-936l32 200h936zM1626 2304c-88 0 -160 80 -144 176c14 84 92 144 168 144c100 0 164 -76 148 -176c-12 -76 -84 -144 -172 -144zM1050 2304c-88 0 -157 84 -144 176c12 84 92 144 168 144c100 0 164 -76 148 -176c-12 -76 -84 -144 -172 -144z" />
    <glyph glyph-name="uni022C" unicode="&#x22c;" horiz-adv-x="2144" 
d="M2016 1008c-108 -640 -544 -1036 -1060 -1036c-532 0 -852 412 -744 1068c108 640 544 1036 1064 1036c528 0 848 -412 740 -1068zM1780 1040c88 524 -152 804 -516 804c-380 0 -728 -296 -816 -836c-88 -524 152 -804 516 -804c380 0 728 296 816 836zM1892 2888
l-32 -208h-940l32 208h940zM1628 2540l116 -32c-24 -136 -140 -252 -276 -252c-148 0 -168 104 -288 104c-60 0 -116 -60 -128 -124l-112 32c20 132 136 256 268 256c124 0 172 -100 288 -100c60 0 120 48 132 116z" />
    <glyph glyph-name="uni022E" unicode="&#x22e;" horiz-adv-x="2144" 
d="M2016 1008c-108 -640 -544 -1036 -1060 -1036c-532 0 -852 412 -744 1068c108 640 544 1036 1064 1036c528 0 848 -412 740 -1068zM1780 1040c88 524 -152 804 -516 804c-380 0 -728 -296 -816 -836c-88 -524 152 -804 516 -804c380 0 728 296 816 836zM1350 2304
c-92 0 -168 72 -168 160s76 160 168 160s168 -72 168 -160s-76 -160 -168 -160z" />
    <glyph glyph-name="uni0230" unicode="&#x230;" horiz-adv-x="2144" 
d="M2016 1008c-108 -640 -544 -1036 -1060 -1036c-532 0 -852 412 -744 1068c108 640 544 1036 1064 1036c528 0 848 -412 740 -1068zM1780 1040c88 524 -152 804 -516 804c-380 0 -728 -296 -816 -836c-88 -524 152 -804 516 -804c380 0 728 296 816 836zM1888 2960
l-32 -200h-936l32 200h936zM1340 2228c-92 0 -168 72 -168 160s76 160 168 160s168 -72 168 -160s-76 -160 -168 -160z" />
    <glyph glyph-name="uni1E4C" unicode="&#x1e4c;" horiz-adv-x="2144" 
d="M2016 1008c-108 -640 -544 -1036 -1060 -1036c-532 0 -852 412 -744 1068c108 640 544 1036 1064 1036c528 0 848 -412 740 -1068zM1780 1040c88 524 -152 804 -516 804c-380 0 -728 -296 -816 -836c-88 -524 152 -804 516 -804c380 0 728 296 816 836zM1004 2232l-180 8
c32 204 188 348 360 348c152 0 200 -128 344 -128c76 0 148 68 160 152l176 -16c-32 -208 -188 -340 -360 -340c-184 0 -188 128 -340 128c-76 0 -144 -68 -160 -152zM1248 2672l324 304h276l-392 -304h-208z" />
    <glyph glyph-name="uni1E4E" unicode="&#x1e4e;" horiz-adv-x="2144" 
d="M2016 1008c-108 -640 -544 -1036 -1060 -1036c-532 0 -852 412 -744 1068c108 640 544 1036 1064 1036c528 0 848 -412 740 -1068zM1780 1040c88 524 -152 804 -516 804c-380 0 -728 -296 -816 -836c-88 -524 152 -804 516 -804c380 0 728 296 816 836zM1628 2540
l116 -32c-24 -136 -140 -252 -276 -252c-148 0 -168 104 -288 104c-60 0 -116 -56 -128 -124l-112 32c20 132 132 256 268 256c124 0 172 -100 288 -100c60 0 120 52 132 116zM1568 2776c12 84 80 152 184 152c100 0 144 -68 132 -152c-16 -84 -80 -152 -184 -152
s-148 64 -132 152zM924 2776c12 84 76 152 180 152s148 -64 136 -152c-16 -84 -84 -148 -188 -148c-100 0 -144 64 -128 148z" />
    <glyph glyph-name="uni1E50" unicode="&#x1e50;" horiz-adv-x="2144" 
d="M2016 1008c-108 -640 -544 -1036 -1060 -1036c-532 0 -852 412 -744 1068c108 640 544 1036 1064 1036c528 0 848 -412 740 -1068zM1780 1040c88 524 -152 804 -516 804c-380 0 -728 -296 -816 -836c-88 -524 152 -804 516 -804c380 0 728 296 816 836zM1822 2504
l-32 -200h-936l32 200h936zM1270 2640l-290 304h284l250 -304h-244z" />
    <glyph glyph-name="uni1E52" unicode="&#x1e52;" horiz-adv-x="2144" 
d="M2016 1008c-108 -640 -544 -1036 -1060 -1036c-532 0 -852 412 -744 1068c108 640 544 1036 1064 1036c528 0 848 -412 740 -1068zM1780 1040c88 524 -152 804 -516 804c-380 0 -728 -296 -816 -836c-88 -524 152 -804 516 -804c380 0 728 296 816 836zM1816 2504
l-32 -200h-936l32 200h936zM1236 2640l352 304h284l-392 -304h-244z" />
    <glyph glyph-name="uni1ECC" unicode="&#x1ecc;" horiz-adv-x="2144" 
d="M2016 1008c-108 -640 -544 -1036 -1060 -1036c-532 0 -852 412 -744 1068c108 640 544 1036 1064 1036c528 0 848 -412 740 -1068zM1780 1040c88 524 -152 804 -516 804c-380 0 -728 -296 -816 -836c-88 -524 152 -804 516 -804c380 0 728 296 816 836zM904 -496
c-92 0 -168 72 -168 160s76 160 168 160s168 -72 168 -160s-76 -160 -168 -160z" />
    <glyph glyph-name="uni1ECE" unicode="&#x1ece;" horiz-adv-x="2144" 
d="M2016 1008c-108 -640 -544 -1036 -1060 -1036c-532 0 -852 412 -744 1068c108 640 544 1036 1064 1036c528 0 848 -412 740 -1068zM1780 1040c88 524 -152 804 -516 804c-380 0 -728 -296 -816 -836c-88 -524 152 -804 516 -804c380 0 728 296 816 836zM1420 2256h-196
l36 216c140 8 196 36 208 100c12 72 -80 104 -200 104l36 152c276 0 400 -104 376 -264c-24 -136 -136 -192 -244 -208z" />
    <glyph glyph-name="uni1ED0" unicode="&#x1ed0;" horiz-adv-x="2144" 
d="M2016 1008c-108 -640 -544 -1036 -1060 -1036c-532 0 -852 412 -744 1068c108 640 544 1036 1064 1036c528 0 848 -412 740 -1068zM1780 1040c88 524 -152 804 -516 804c-380 0 -728 -296 -816 -836c-88 -524 152 -804 516 -804c380 0 728 296 816 836zM800 2240l468 364
h220l348 -364h-288l-196 212l-260 -212h-292zM1768 2484l256 360h292l-340 -360h-208z" />
    <glyph glyph-name="uni1ED2" unicode="&#x1ed2;" horiz-adv-x="2144" 
d="M2016 1008c-108 -640 -544 -1036 -1060 -1036c-532 0 -852 412 -744 1068c108 640 544 1036 1064 1036c528 0 848 -412 740 -1068zM1780 1040c88 524 -152 804 -516 804c-380 0 -728 -296 -816 -836c-88 -524 152 -804 516 -804c380 0 728 296 816 836zM1480 2600
l348 -364h-288l-192 212l-264 -212h-288l464 364h220zM812 2844l132 -364h-204l-224 364h296z" />
    <glyph glyph-name="uni1ED4" unicode="&#x1ed4;" horiz-adv-x="2144" 
d="M2016 1008c-108 -640 -544 -1036 -1060 -1036c-532 0 -852 412 -744 1068c108 640 544 1036 1064 1036c528 0 848 -412 740 -1068zM1780 1040c88 524 -152 804 -516 804c-380 0 -728 -296 -816 -836c-88 -524 152 -804 516 -804c380 0 728 296 816 836zM1508 2576
l320 -364h-248l-232 252l-308 -252h-248l440 364h276zM1900 2404h-168l28 184c112 8 168 24 180 84c8 64 -68 88 -176 88l32 132c240 0 348 -88 324 -224c-20 -120 -116 -168 -208 -180z" />
    <glyph glyph-name="uni1ED6" unicode="&#x1ed6;" horiz-adv-x="2144" 
d="M2016 1008c-108 -640 -544 -1036 -1060 -1036c-532 0 -852 412 -744 1068c108 640 544 1036 1064 1036c528 0 848 -412 740 -1068zM1780 1040c88 524 -152 804 -516 804c-380 0 -728 -296 -816 -836c-88 -524 152 -804 516 -804c380 0 728 296 816 836zM1448 2520
l368 -336h-248l-236 212l-300 -212h-248l472 336h192zM1660 2872l108 -32c-20 -108 -136 -216 -264 -216c-136 0 -152 96 -260 96c-56 0 -124 -52 -132 -100l-104 28c16 108 132 220 260 220c112 0 156 -92 260 -92c56 0 124 48 132 96z" />
    <glyph glyph-name="uni1ED8" unicode="&#x1ed8;" horiz-adv-x="2144" 
d="M2016 1008c-108 -640 -544 -1036 -1060 -1036c-532 0 -852 412 -744 1068c108 640 544 1036 1064 1036c528 0 848 -412 740 -1068zM1780 1040c88 524 -152 804 -516 804c-380 0 -728 -296 -816 -836c-88 -524 152 -804 516 -804c380 0 728 296 816 836zM1103 2232h-224
l4 16l394 416h216l254 -416l-4 -16h-224l-161 280zM904 -496c-92 0 -168 72 -168 160s76 160 168 160s168 -72 168 -160s-76 -160 -168 -160z" />
    <glyph glyph-name="uni1EDA" unicode="&#x1eda;" horiz-adv-x="2180" 
d="M2144 2196h236c-47 -284 -190 -471 -422 -537c77 -172 101 -393 58 -651c-108 -640 -544 -1036 -1060 -1036c-532 0 -852 412 -744 1068c108 640 544 1036 1064 1036c242 0 440 -86 573 -243c166 26 260 157 295 363zM1780 1040c88 524 -152 804 -516 804
c-380 0 -728 -296 -816 -836c-88 -524 152 -804 516 -804c380 0 728 296 816 836zM1208 2256l320 464h276l-388 -464h-208z" />
    <glyph glyph-name="uni1EDC" unicode="&#x1edc;" horiz-adv-x="2180" 
d="M2144 2196h236c-47 -284 -190 -471 -422 -537c77 -172 101 -393 58 -651c-108 -640 -544 -1036 -1060 -1036c-532 0 -852 412 -744 1068c108 640 544 1036 1064 1036c242 0 440 -86 573 -243c166 26 260 157 295 363zM1780 1040c88 524 -152 804 -516 804
c-380 0 -728 -296 -816 -836c-88 -524 152 -804 516 -804c380 0 728 296 816 836zM1216 2256l-232 464h276l164 -464h-208z" />
    <glyph glyph-name="uni1EDE" unicode="&#x1ede;" horiz-adv-x="2180" 
d="M2144 2196h236c-47 -284 -190 -471 -422 -537c77 -172 101 -393 58 -651c-108 -640 -544 -1036 -1060 -1036c-532 0 -852 412 -744 1068c108 640 544 1036 1064 1036c242 0 440 -86 573 -243c166 26 260 157 295 363zM1780 1040c88 524 -152 804 -516 804
c-380 0 -728 -296 -816 -836c-88 -524 152 -804 516 -804c380 0 728 296 816 836zM1420 2256h-196l36 216c140 8 196 36 208 100c12 72 -80 104 -200 104l36 152c276 0 400 -104 376 -264c-24 -136 -136 -192 -244 -208z" />
    <glyph glyph-name="uni1EE0" unicode="&#x1ee0;" horiz-adv-x="2180" 
d="M2144 2196h236c-47 -284 -190 -471 -422 -537c77 -172 101 -393 58 -651c-108 -640 -544 -1036 -1060 -1036c-532 0 -852 412 -744 1068c108 640 544 1036 1064 1036c242 0 440 -86 573 -243c166 26 260 157 295 363zM1780 1040c88 524 -152 804 -516 804
c-380 0 -728 -296 -816 -836c-88 -524 152 -804 516 -804c380 0 728 296 816 836zM1004 2232l-180 8c32 204 188 348 360 348c152 0 200 -128 344 -128c76 0 148 68 160 152l176 -16c-32 -208 -188 -340 -360 -340c-184 0 -188 128 -340 128c-76 0 -144 -68 -160 -152z" />
    <glyph glyph-name="uni1EE2" unicode="&#x1ee2;" horiz-adv-x="2180" 
d="M2144 2196h236c-47 -284 -190 -471 -422 -537c77 -172 101 -393 58 -651c-108 -640 -544 -1036 -1060 -1036c-532 0 -852 412 -744 1068c108 640 544 1036 1064 1036c242 0 440 -86 573 -243c166 26 260 157 295 363zM1780 1040c88 524 -152 804 -516 804
c-380 0 -728 -296 -816 -836c-88 -524 152 -804 516 -804c380 0 728 296 816 836zM904 -496c-92 0 -168 72 -168 160s76 160 168 160s168 -72 168 -160s-76 -160 -168 -160z" />
    <glyph glyph-name="uni01FE" unicode="&#x1fe;" horiz-adv-x="2148" 
d="M480 -84l-152 104l97 143c-191 183 -277 485 -213 873c108 640 544 1036 1064 1036c143 0 271 -30 379 -87l97 143l152 -104l-100 -147c190 -183 276 -485 212 -873c-108 -640 -544 -1036 -1060 -1036c-144 0 -273 30 -382 88zM564 370l955 1414c-74 37 -160 56 -255 56
c-380 0 -728 -296 -816 -836c-48 -286 2 -500 116 -634zM1780 1036c48 286 -2 499 -115 634l-955 -1414c74 -37 160 -56 254 -56c380 0 728 296 816 836zM1208 2252l320 464h276l-388 -464h-208z" />
    <glyph glyph-name="uni039F" unicode="&#x39f;" horiz-adv-x="2144" 
d="M2016 1008c-108 -640 -544 -1036 -1060 -1036c-532 0 -852 412 -744 1068c108 640 544 1036 1064 1036c528 0 848 -412 740 -1068zM1780 1040c88 524 -152 804 -516 804c-380 0 -728 -296 -816 -836c-88 -524 152 -804 516 -804c380 0 728 296 816 836z" />
    <glyph glyph-name="uni038C" unicode="&#x38c;" horiz-adv-x="2228" 
d="M2100 1008c-108 -640 -544 -1036 -1060 -1036c-532 0 -852 412 -744 1068c108 640 544 1036 1064 1036c528 0 848 -412 740 -1068zM1864 1040c88 524 -152 804 -516 804c-380 0 -728 -296 -816 -836c-88 -524 152 -804 516 -804c380 0 728 296 816 836zM140 1708l144 468
h256l-236 -468h-164z" />
    <glyph glyph-name="uni1F48" unicode="&#x1f48;" horiz-adv-x="2328" 
d="M2200 1008c-108 -640 -544 -1036 -1060 -1036c-532 0 -852 412 -744 1068c108 640 544 1036 1064 1036c528 0 848 -412 740 -1068zM1964 1040c88 524 -152 804 -516 804c-380 0 -728 -296 -816 -836c-88 -524 152 -804 516 -804c380 0 728 296 816 836zM556 2048
l-16 -112c-28 -160 -140 -296 -316 -384l-96 84c92 84 144 176 164 308l16 104h248z" />
    <glyph glyph-name="uni1F49" unicode="&#x1f49;" horiz-adv-x="2428" 
d="M2304 1008c-108 -640 -544 -1036 -1060 -1036c-532 0 -852 412 -744 1068c108 640 544 1036 1064 1036c528 0 848 -412 740 -1068zM2068 1040c88 524 -152 804 -516 804c-380 0 -728 -296 -816 -836c-88 -524 152 -804 516 -804c380 0 728 296 816 836zM296 1936l20 112
h248l-16 -104c-24 -132 -4 -224 60 -308l-124 -84c-144 88 -212 224 -188 384z" />
    <glyph glyph-name="uni1F4A" unicode="&#x1f4a;" horiz-adv-x="2852" 
d="M2724 1008c-108 -640 -544 -1036 -1060 -1036c-532 0 -852 412 -744 1068c108 640 544 1036 1064 1036c528 0 848 -412 740 -1068zM2488 1040c88 524 -152 804 -516 804c-380 0 -728 -296 -816 -836c-88 -524 152 -804 516 -804c380 0 728 296 816 836zM556 2048
l-16 -112c-28 -160 -144 -296 -316 -384l-96 84c88 84 144 176 164 308l16 104h248zM992 1604l-4 -20h-128l-244 436l4 28h288z" />
    <glyph glyph-name="uni1F4B" unicode="&#x1f4b;" horiz-adv-x="2744" 
d="M2616 1008c-108 -640 -544 -1036 -1060 -1036c-532 0 -852 412 -744 1068c108 640 544 1036 1064 1036c528 0 848 -412 740 -1068zM2380 1040c88 524 -152 804 -516 804c-380 0 -728 -296 -816 -836c-88 -524 152 -804 516 -804c380 0 728 296 816 836zM176 1936l20 112
h248l-16 -104c-24 -132 -4 -224 60 -308l-124 -84c-144 88 -212 224 -188 384zM908 1604l-4 -20h-128l-244 436l4 28h292z" />
    <glyph glyph-name="uni1F4C" unicode="&#x1f4c;" horiz-adv-x="2632" 
d="M2504 1008c-108 -640 -544 -1036 -1060 -1036c-532 0 -852 412 -744 1068c108 640 544 1036 1064 1036c528 0 848 -412 740 -1068zM2268 1040c88 524 -152 804 -516 804c-380 0 -728 -296 -816 -836c-88 -524 152 -804 516 -804c380 0 728 296 816 836zM556 2048
l-20 -112c-24 -160 -140 -296 -316 -384l-92 84c84 84 140 176 164 308l16 104h248zM500 1584l4 20l228 444h288l-4 -28l-388 -436h-128z" />
    <glyph glyph-name="uni1F4D" unicode="&#x1f4d;" horiz-adv-x="2672" 
d="M2544 1008c-108 -640 -544 -1036 -1060 -1036c-532 0 -852 412 -744 1068c108 640 544 1036 1064 1036c528 0 848 -412 740 -1068zM2308 1040c88 524 -152 804 -516 804c-380 0 -728 -296 -816 -836c-88 -524 152 -804 516 -804c380 0 728 296 816 836zM176 1936l20 112
h248l-16 -104c-24 -132 0 -224 60 -308l-124 -84c-144 88 -212 224 -188 384zM532 1584l4 20l224 444h292l-4 -28l-388 -436h-128z" />
    <glyph glyph-name="uni1FF8" unicode="&#x1ff8;" horiz-adv-x="2464" 
d="M2336 1008c-108 -640 -544 -1036 -1060 -1036c-532 0 -852 412 -744 1068c108 640 544 1036 1064 1036c528 0 848 -412 740 -1068zM2100 1040c88 524 -152 804 -516 804c-380 0 -728 -296 -816 -836c-88 -524 152 -804 516 -804c380 0 728 296 816 836zM572 1580h-132
l-244 440v28h292l84 -444v-24z" />
    <glyph glyph-name="uni03F4" unicode="&#x3f4;" horiz-adv-x="2144" 
d="M2016 1008c-108 -640 -544 -1036 -1060 -1036c-532 0 -852 412 -744 1068c108 640 544 1036 1064 1036c528 0 848 -412 740 -1068zM1746 887c-259 -98 -453 -40 -649 18c-196 59 -394 118 -660 22c-51 -472 182 -723 527 -723c342 0 659 240 782 683zM1792 1127
c48 468 -185 717 -528 717c-341 0 -656 -238 -781 -677c255 93 447 35 641 -23c198 -59 398 -118 668 -17z" />
    <glyph glyph-name="uni1FF9" unicode="&#x1ff9;" horiz-adv-x="2248" 
d="M2116 1008c-108 -640 -544 -1036 -1060 -1036c-532 0 -852 412 -744 1068c108 640 544 1036 1064 1036c528 0 848 -412 740 -1068zM1880 1040c88 524 -152 804 -516 804c-380 0 -728 -296 -816 -836c-88 -524 152 -804 516 -804c380 0 728 296 816 836zM286 1728l4 24
l226 444h292l-4 -28l-390 -440h-128z" />
    <glyph glyph-name="uni041E" unicode="&#x41e;" horiz-adv-x="2144" 
d="M2016 1008c-108 -640 -544 -1036 -1060 -1036c-532 0 -852 412 -744 1068c108 640 544 1036 1064 1036c528 0 848 -412 740 -1068zM1780 1040c88 524 -152 804 -516 804c-380 0 -728 -296 -816 -836c-88 -524 152 -804 516 -804c380 0 728 296 816 836z" />
    <glyph glyph-name="uni04E6" unicode="&#x4e6;" horiz-adv-x="2144" 
d="M2016 1008c-108 -640 -544 -1036 -1060 -1036c-532 0 -852 412 -744 1068c108 640 544 1036 1064 1036c528 0 848 -412 740 -1068zM1780 1040c88 524 -152 804 -516 804c-380 0 -728 -296 -816 -836c-88 -524 152 -804 516 -804c380 0 728 296 816 836zM1626 2304
c-88 0 -160 80 -144 176c14 84 92 144 168 144c100 0 164 -76 148 -176c-12 -76 -84 -144 -172 -144zM1050 2304c-88 0 -157 84 -144 176c12 84 92 144 168 144c100 0 164 -76 148 -176c-12 -76 -84 -144 -172 -144z" />
    <glyph glyph-name="uni019F" unicode="&#x19f;" horiz-adv-x="2144" 
d="M2016 1008c-108 -640 -544 -1036 -1060 -1036c-532 0 -852 412 -744 1068c108 640 544 1036 1064 1036c528 0 848 -412 740 -1068zM1746 887c-259 -98 -453 -40 -649 18c-196 59 -394 118 -660 22c-51 -472 182 -723 527 -723c342 0 659 240 782 683zM1792 1127
c48 468 -185 717 -528 717c-341 0 -656 -238 -781 -677c255 93 447 35 641 -23c198 -59 398 -118 668 -17z" />
    <glyph glyph-name="uni04E8" unicode="&#x4e8;" horiz-adv-x="2144" 
d="M2016 1008c-108 -640 -544 -1036 -1060 -1036c-532 0 -852 412 -744 1068c108 640 544 1036 1064 1036c528 0 848 -412 740 -1068zM1746 887c-259 -98 -453 -40 -649 18c-196 59 -394 118 -660 22c-51 -472 182 -723 527 -723c342 0 659 240 782 683zM1792 1127
c48 468 -185 717 -528 717c-341 0 -656 -238 -781 -677c255 93 447 35 641 -23c198 -59 398 -118 668 -17z" />
    <glyph glyph-name="uni04EA" unicode="&#x4ea;" horiz-adv-x="2144" 
d="M2016 1008c-108 -640 -544 -1036 -1060 -1036c-532 0 -852 412 -744 1068c108 640 544 1036 1064 1036c528 0 848 -412 740 -1068zM1746 887c-259 -98 -453 -40 -649 18c-196 59 -394 118 -660 22c-51 -472 182 -723 527 -723c342 0 659 240 782 683zM1792 1127
c48 468 -185 717 -528 717c-341 0 -656 -238 -781 -677c255 93 447 35 641 -23c198 -59 398 -118 668 -17zM1626 2304c-88 0 -160 80 -144 176c14 84 92 144 168 144c100 0 164 -76 148 -176c-12 -76 -84 -144 -172 -144zM1050 2304c-88 0 -157 84 -144 176
c12 84 92 144 168 144c100 0 164 -76 148 -176c-12 -76 -84 -144 -172 -144z" />
    <glyph glyph-name="uni0152" unicode="&#x152;" horiz-adv-x="2684" 
d="M940 0c-538 0 -834 412 -732 1024c101 616 533 1024 1072 1024h1412l-36 -220h-988l-116 -692h924l-36 -220h-924l-116 -696h1004l-36 -220h-1428zM1153 220l266 1608h-175c-396 0 -716 -320 -796 -804c-80 -480 134 -804 532 -804h173z" />
    <glyph glyph-name="uni0050" unicode="P" horiz-adv-x="1784" 
d="M120 0l340 2048h692c480 0 648 -284 588 -648c-60 -360 -324 -652 -800 -652h-448l-124 -748h-248zM529 968h439c328 0 488 188 528 432c40 248 -56 428 -388 428h-436z" />
    <glyph glyph-name="uni1E54" unicode="&#x1e54;" horiz-adv-x="1784" 
d="M120 0l340 2048h692c480 0 648 -284 588 -648c-60 -360 -324 -652 -800 -652h-448l-124 -748h-248zM529 968h439c328 0 488 188 528 432c40 248 -56 428 -388 428h-436zM1032 2256l320 464h276l-388 -464h-208z" />
    <glyph glyph-name="uni1E56" unicode="&#x1e56;" horiz-adv-x="1784" 
d="M120 0l340 2048h692c480 0 648 -284 588 -648c-60 -360 -324 -652 -800 -652h-448l-124 -748h-248zM529 968h439c328 0 488 188 528 432c40 248 -56 428 -388 428h-436zM1174 2304c-92 0 -168 72 -168 160s76 160 168 160s168 -72 168 -160s-76 -160 -168 -160z" />
    <glyph glyph-name="uni048E" unicode="&#x48e;" horiz-adv-x="1784" 
d="M120 0l340 2048h692c480 0 648 -284 588 -648c-34 -206 -135 -389 -304 -508l120 -212l-192 -120l-130 231c-87 -28 -185 -43 -294 -43h-448l-124 -748h-248zM1196 1316l132 -234c93 78 147 191 168 318c40 248 -56 428 -388 428h-436l-143 -860h439c57 0 110 6 157 17
l-121 215z" />
    <glyph glyph-name="uni01A4" unicode="&#x1a4;" horiz-adv-x="2216" 
d="M492 1504h-232l20 136c33 225 213 408 476 408h824c480 0 648 -284 588 -648c-60 -360 -324 -652 -800 -652h-448l-124 -748h-248l303 1828h-127c-159 0 -200 -120 -220 -248zM957 968h439c328 0 488 188 528 432c40 248 -56 428 -388 428h-436z" />
    <glyph glyph-name="uni03A1" unicode="&#x3a1;" horiz-adv-x="1784" 
d="M120 0l340 2048h692c480 0 648 -284 588 -648c-60 -360 -324 -652 -800 -652h-448l-124 -748h-248zM529 968h439c328 0 488 188 528 432c40 248 -56 428 -388 428h-436z" />
    <glyph glyph-name="uni1FEC" unicode="&#x1fec;" horiz-adv-x="2144" 
d="M480 0l340 2048h692c480 0 648 -284 588 -648c-60 -360 -324 -652 -800 -652h-448l-124 -748h-248zM889 968h439c328 0 488 188 528 432c40 248 -56 428 -388 428h-436zM328 1936l20 112h248l-16 -104c-24 -132 -4 -224 60 -308l-124 -84c-144 88 -212 224 -188 384z" />
    <glyph glyph-name="uni0051" unicode="Q" horiz-adv-x="2184" 
d="M2016 1008c-60 -358 -224 -640 -447 -819l287 -381h-272l-197 264c-133 -65 -278 -100 -431 -100c-532 0 -852 412 -744 1068c108 640 544 1036 1064 1036c528 0 848 -412 740 -1068zM956 640h272l202 -266c171 140 301 365 350 666c88 524 -152 804 -516 804
c-380 0 -728 -296 -816 -836c-88 -524 152 -804 516 -804c97 0 192 19 281 57z" />
    <glyph glyph-name="uni0052" unicode="R" horiz-adv-x="1800" 
d="M120 0l340 2048h692c480 0 652 -264 592 -628c-45 -270 -203 -484 -480 -574l324 -846h-288l-300 801c-17 -1 -34 -1 -52 -1h-447l-133 -800h-248zM538 1024h442c328 0 480 152 520 396c40 248 -60 408 -392 408h-436z" />
    <glyph glyph-name="uni0154" unicode="&#x154;" horiz-adv-x="1800" 
d="M120 0l340 2048h692c480 0 652 -264 592 -628c-45 -270 -203 -484 -480 -574l324 -846h-288l-300 801c-17 -1 -34 -1 -52 -1h-447l-133 -800h-248zM538 1024h442c328 0 480 152 520 396c40 248 -60 408 -392 408h-436zM1028 2256l320 464h276l-388 -464h-208z" />
    <glyph glyph-name="uni0156" unicode="&#x156;" horiz-adv-x="1800" 
d="M120 0l340 2048h692c480 0 652 -264 592 -628c-45 -270 -203 -484 -480 -574l324 -846h-288l-300 801c-17 -1 -34 -1 -52 -1h-447l-133 -800h-248zM538 1024h442c328 0 480 152 520 396c40 248 -60 408 -392 408h-436zM450 -680l198 518h242l-256 -518h-184z" />
    <glyph glyph-name="uni0158" unicode="&#x158;" horiz-adv-x="1800" 
d="M120 0l340 2048h692c480 0 652 -264 592 -628c-45 -270 -203 -484 -480 -574l324 -846h-288l-300 801c-17 -1 -34 -1 -52 -1h-447l-133 -800h-248zM538 1024h442c328 0 480 152 520 396c40 248 -60 408 -392 408h-436zM994 2664l162 -280l254 280h224l-2 -16l-392 -416
h-216l-256 416l2 16h224z" />
    <glyph glyph-name="uni0210" unicode="&#x210;" horiz-adv-x="1800" 
d="M120 0l340 2048h692c480 0 652 -264 592 -628c-45 -270 -203 -484 -480 -574l324 -846h-288l-300 801c-17 -1 -34 -1 -52 -1h-447l-133 -800h-248zM538 1024h442c328 0 480 152 520 396c40 248 -60 408 -392 408h-436zM1250 2256l-168 464h300l74 -464h-206zM826 2256
l-254 464h294l168 -464h-208z" />
    <glyph glyph-name="uni0212" unicode="&#x212;" horiz-adv-x="1800" 
d="M120 0l340 2048h692c480 0 652 -264 592 -628c-45 -270 -203 -484 -480 -574l324 -846h-288l-300 801c-17 -1 -34 -1 -52 -1h-447l-133 -800h-248zM538 1024h442c328 0 480 152 520 396c40 248 -60 408 -392 408h-436zM730 2304c36 216 220 372 476 372
s388 -156 352 -372h-220c16 108 -24 200 -160 200c-144 0 -212 -96 -228 -200h-220z" />
    <glyph glyph-name="uni1E58" unicode="&#x1e58;" horiz-adv-x="1800" 
d="M120 0l340 2048h692c480 0 652 -264 592 -628c-45 -270 -203 -484 -480 -574l324 -846h-288l-300 801c-17 -1 -34 -1 -52 -1h-447l-133 -800h-248zM538 1024h442c328 0 480 152 520 396c40 248 -60 408 -392 408h-436zM1170 2304c-92 0 -168 72 -168 160s76 160 168 160
s168 -72 168 -160s-76 -160 -168 -160z" />
    <glyph glyph-name="uni1E5A" unicode="&#x1e5a;" horiz-adv-x="1800" 
d="M120 0l340 2048h692c480 0 652 -264 592 -628c-45 -270 -203 -484 -480 -574l324 -846h-288l-300 801c-17 -1 -34 -1 -52 -1h-447l-133 -800h-248zM538 1024h442c328 0 480 152 520 396c40 248 -60 408 -392 408h-436zM740 -504c-92 0 -168 72 -168 160s76 160 168 160
s168 -72 168 -160s-76 -160 -168 -160z" />
    <glyph glyph-name="uni1E5C" unicode="&#x1e5c;" horiz-adv-x="1800" 
d="M120 0l340 2048h692c480 0 652 -264 592 -628c-45 -270 -203 -484 -480 -574l324 -846h-288l-300 801c-17 -1 -34 -1 -52 -1h-447l-133 -800h-248zM538 1024h442c328 0 480 152 520 396c40 248 -60 408 -392 408h-436zM1656 2560l-32 -200h-936l32 200h936zM740 -504
c-92 0 -168 72 -168 160s76 160 168 160s168 -72 168 -160s-76 -160 -168 -160z" />
    <glyph glyph-name="uni1E5E" unicode="&#x1e5e;" horiz-adv-x="1800" 
d="M120 0l340 2048h692c480 0 652 -264 592 -628c-45 -270 -203 -484 -480 -574l324 -846h-288l-300 801c-17 -1 -34 -1 -52 -1h-447l-133 -800h-248zM538 1024h442c328 0 480 152 520 396c40 248 -60 408 -392 408h-436zM1222 -252l-32 -200h-936l32 200h936z" />
    <glyph glyph-name="uni211F" unicode="&#x211f;" horiz-adv-x="1764" 
d="M1624 2316l-145 -324c230 -96 309 -308 265 -572c-45 -270 -203 -484 -480 -574l324 -846h-288l-300 801c-17 -1 -34 -1 -52 -1h-4l-576 -1284l-148 32l562 1252h-281l-133 -800h-248l340 2048h692c67 0 129 -5 184 -15l84 187l-412 128l80 148zM883 1024l356 794
c-39 7 -82 10 -131 10h-436l-134 -804h345zM1379 1770l-334 -744c283 19 418 167 455 394c26 159 -6 283 -121 350z" />
    <glyph glyph-name="uni211E" unicode="&#x211e;" horiz-adv-x="1924" 
d="M460 2048h684c488 0 640 -288 584 -628c-48 -297 -231 -495 -511 -585l110 -194l233 259h280l-402 -453l254 -447h-288l-141 251l-223 -251h-288l402 447l-196 349h-458l-132 -796h-248zM538 1024h410c360 0 500 168 536 396c32 192 -12 408 -376 408h-436z" />
    <glyph glyph-name="uni024C" unicode="&#x24c;" horiz-adv-x="1788" 
d="M144 0l133 800h-237l36 224h238l170 1024h692c480 0 652 -264 592 -628c-45 -270 -203 -484 -480 -574l324 -846h-288l-300 801c-17 -1 -34 -1 -52 -1h-447l-133 -800h-248zM562 1024h442c328 0 480 152 520 396c40 248 -60 408 -392 408h-436z" />
    <glyph glyph-name="uni0053" unicode="S" horiz-adv-x="1796" 
d="M1492 1520c0 220 -156 336 -404 336c-272 0 -476 -144 -508 -340c-36 -220 196 -300 340 -340l200 -56c200 -56 544 -180 480 -564c-56 -332 -364 -592 -836 -592c-440 0 -676 228 -644 564h256c-20 -232 180 -340 424 -340c284 0 524 148 560 372
c36 204 -144 280 -352 340l-240 72c-304 92 -476 256 -432 532c60 344 404 572 796 572c396 0 636 -232 600 -556h-240z" />
    <glyph glyph-name="uni015A" unicode="&#x15a;" horiz-adv-x="1796" 
d="M1492 1520c0 220 -156 336 -404 336c-272 0 -476 -144 -508 -340c-36 -220 196 -300 340 -340l200 -56c200 -56 544 -180 480 -564c-56 -332 -364 -592 -836 -592c-440 0 -676 228 -644 564h256c-20 -232 180 -340 424 -340c284 0 524 148 560 372
c36 204 -144 280 -352 340l-240 72c-304 92 -476 256 -432 532c60 344 404 572 796 572c396 0 636 -232 600 -556h-240zM1036 2256l320 464h276l-388 -464h-208z" />
    <glyph glyph-name="uni015C" unicode="&#x15c;" horiz-adv-x="1796" 
d="M1492 1520c0 220 -156 336 -404 336c-272 0 -476 -144 -508 -340c-36 -220 196 -300 340 -340l200 -56c200 -56 544 -180 480 -564c-56 -332 -364 -592 -836 -592c-440 0 -676 228 -644 564h256c-20 -232 180 -340 424 -340c284 0 524 148 560 372
c36 204 -144 280 -352 340l-240 72c-304 92 -476 256 -432 532c60 344 404 572 796 572c396 0 636 -232 600 -556h-240zM931 2232h-224l4 16l394 416h216l254 -416l-4 -16h-224l-161 280z" />
    <glyph glyph-name="uni015E" unicode="&#x15e;" horiz-adv-x="1796" 
d="M1492 1520c0 220 -156 336 -404 336c-272 0 -476 -144 -508 -340c-36 -220 196 -300 340 -340l200 -56c200 -56 544 -180 480 -564c-52 -310 -324 -557 -744 -589l-16 -39c104 -16 196 -80 168 -236c-28 -172 -192 -292 -468 -292l20 156c124 0 220 36 236 128
s-44 116 -196 128l61 156c-374 34 -570 251 -541 560h256c-20 -232 180 -340 424 -340c284 0 524 148 560 372c36 204 -144 280 -352 340l-240 72c-304 92 -476 256 -432 532c60 344 404 572 796 572c396 0 636 -232 600 -556h-240z" />
    <glyph glyph-name="uni0160" unicode="&#x160;" horiz-adv-x="1796" 
d="M1492 1520c0 220 -156 336 -404 336c-272 0 -476 -144 -508 -340c-36 -220 196 -300 340 -340l200 -56c200 -56 544 -180 480 -564c-56 -332 -364 -592 -836 -592c-440 0 -676 228 -644 564h256c-20 -232 180 -340 424 -340c284 0 524 148 560 372
c36 204 -144 280 -352 340l-240 72c-304 92 -476 256 -432 532c60 344 404 572 796 572c396 0 636 -232 600 -556h-240zM1002 2664l162 -280l254 280h224l-2 -16l-392 -416h-216l-256 416l2 16h224z" />
    <glyph glyph-name="uni0218" unicode="&#x218;" horiz-adv-x="1796" 
d="M1492 1520c0 220 -156 336 -404 336c-272 0 -476 -144 -508 -340c-36 -220 196 -300 340 -340l200 -56c200 -56 544 -180 480 -564c-56 -332 -364 -592 -836 -592c-440 0 -676 228 -644 564h256c-20 -232 180 -340 424 -340c284 0 524 148 560 372
c36 204 -144 280 -352 340l-240 72c-304 92 -476 256 -432 532c60 344 404 572 796 572c396 0 636 -232 600 -556h-240zM422 -716l198 518h242l-256 -518h-184z" />
    <glyph glyph-name="uni1E60" unicode="&#x1e60;" horiz-adv-x="1796" 
d="M1492 1520c0 220 -156 336 -404 336c-272 0 -476 -144 -508 -340c-36 -220 196 -300 340 -340l200 -56c200 -56 544 -180 480 -564c-56 -332 -364 -592 -836 -592c-440 0 -676 228 -644 564h256c-20 -232 180 -340 424 -340c284 0 524 148 560 372
c36 204 -144 280 -352 340l-240 72c-304 92 -476 256 -432 532c60 344 404 572 796 572c396 0 636 -232 600 -556h-240zM1178 2304c-92 0 -168 72 -168 160s76 160 168 160s168 -72 168 -160s-76 -160 -168 -160z" />
    <glyph glyph-name="uni1E62" unicode="&#x1e62;" horiz-adv-x="1796" 
d="M1492 1520c0 220 -156 336 -404 336c-272 0 -476 -144 -508 -340c-36 -220 196 -300 340 -340l200 -56c200 -56 544 -180 480 -564c-56 -332 -364 -592 -836 -592c-440 0 -676 228 -644 564h256c-20 -232 180 -340 424 -340c284 0 524 148 560 372
c36 204 -144 280 -352 340l-240 72c-304 92 -476 256 -432 532c60 344 404 572 796 572c396 0 636 -232 600 -556h-240zM712 -540c-92 0 -168 72 -168 160s76 160 168 160s168 -72 168 -160s-76 -160 -168 -160z" />
    <glyph glyph-name="uni1E64" unicode="&#x1e64;" horiz-adv-x="1796" 
d="M1492 1520c0 220 -156 336 -404 336c-272 0 -476 -144 -508 -340c-36 -220 196 -300 340 -340l200 -56c200 -56 544 -180 480 -564c-56 -332 -364 -592 -836 -592c-440 0 -676 228 -644 564h256c-20 -232 180 -340 424 -340c284 0 524 148 560 372
c36 204 -144 280 -352 340l-240 72c-304 92 -476 256 -432 532c60 344 404 572 796 572c396 0 636 -232 600 -556h-240zM1072 2272l252 364h296l-344 -364h-204zM876 2696c16 84 84 152 184 152c108 0 148 -72 132 -152c-12 -84 -76 -152 -184 -152c-104 0 -144 72 -132 152
z" />
    <glyph glyph-name="uni1E66" unicode="&#x1e66;" horiz-adv-x="1796" 
d="M1492 1520c0 220 -156 336 -404 336c-272 0 -476 -144 -508 -340c-36 -220 196 -300 340 -340l200 -56c200 -56 544 -180 480 -564c-56 -332 -364 -592 -836 -592c-440 0 -676 228 -644 564h256c-20 -232 180 -340 424 -340c284 0 524 148 560 372
c36 204 -144 280 -352 340l-240 72c-304 92 -476 256 -432 532c60 344 404 572 796 572c396 0 636 -232 600 -556h-240zM996 2572l172 -172l228 172h236l-4 -24l-404 -300h-164l-300 296l4 28h232zM1076 2776c12 88 80 152 180 152c108 0 148 -68 136 -152
c-16 -84 -84 -148 -188 -148c-100 0 -144 64 -128 148z" />
    <glyph glyph-name="uni1E68" unicode="&#x1e68;" horiz-adv-x="1796" 
d="M1492 1520c0 220 -156 336 -404 336c-272 0 -476 -144 -508 -340c-36 -220 196 -300 340 -340l200 -56c200 -56 544 -180 480 -564c-56 -332 -364 -592 -836 -592c-440 0 -676 228 -644 564h256c-20 -232 180 -340 424 -340c284 0 524 148 560 372
c36 204 -144 280 -352 340l-240 72c-304 92 -476 256 -432 532c60 344 404 572 796 572c396 0 636 -232 600 -556h-240zM1178 2304c-92 0 -168 72 -168 160s76 160 168 160s168 -72 168 -160s-76 -160 -168 -160zM712 -540c-92 0 -168 72 -168 160s76 160 168 160
s168 -72 168 -160s-76 -160 -168 -160z" />
    <glyph glyph-name="uni0405" unicode="&#x405;" horiz-adv-x="1796" 
d="M1492 1520c0 220 -156 336 -404 336c-272 0 -476 -144 -508 -340c-36 -220 196 -300 340 -340l200 -56c200 -56 544 -180 480 -564c-56 -332 -364 -592 -836 -592c-440 0 -676 228 -644 564h256c-20 -232 180 -340 424 -340c284 0 524 148 560 372
c36 204 -144 280 -352 340l-240 72c-304 92 -476 256 -432 532c60 344 404 572 796 572c396 0 636 -232 600 -556h-240z" />
    <glyph glyph-name="uni01A7" unicode="&#x1a7;" horiz-adv-x="1788" 
d="M543 1520h-240c72 324 388 556 784 556c392 0 661 -228 607 -572c-47 -276 -274 -440 -608 -532l-264 -72c-228 -60 -433 -136 -465 -340c-38 -224 153 -372 437 -372c244 0 480 108 537 340h256c-79 -336 -391 -564 -831 -564c-472 0 -694 260 -640 592
c63 384 448 508 667 564l218 56c158 40 416 120 453 340c33 196 -123 340 -395 340c-248 0 -443 -116 -516 -336z" />
    <glyph glyph-name="uni1E9E" unicode="&#x1e9e;" horiz-adv-x="1920" 
d="M120 0l228 1360c77 476 329 716 744 716c301 0 493 -140 648 -308l-552 -600c402 -24 598 -240 540 -592c-65 -392 -388 -604 -788 -604c-124 0 -248 20 -372 68l116 220c71 -32 165 -68 296 -68c261 0 433 148 472 388c63 376 -293 376 -376 376h-200l36 216l500 556
c-79 60 -176 128 -344 128c-312 0 -432 -240 -472 -496l-228 -1360h-248z" />
    <glyph glyph-name="uni0054" unicode="T" horiz-adv-x="1808" 
d="M312 1828l36 220h1536l-36 -220h-644l-304 -1828h-248l304 1828h-644z" />
    <glyph glyph-name="uni0162" unicode="&#x162;" horiz-adv-x="1808" 
d="M312 1828l36 220h1536l-36 -220h-644l-304 -1828h-3l-29 -72c104 -16 196 -80 168 -236c-28 -172 -192 -292 -468 -292l20 156c124 0 220 36 236 128s-44 116 -196 128l73 188h-49l304 1828h-644z" />
    <glyph glyph-name="uni0164" unicode="&#x164;" horiz-adv-x="1808" 
d="M312 1828l36 220h1536l-36 -220h-644l-304 -1828h-248l304 1828h-644zM1010 2664l162 -280l254 280h224l-2 -16l-392 -416h-216l-256 416l2 16h224z" />
    <glyph glyph-name="uni021A" unicode="&#x21a;" horiz-adv-x="1808" 
d="M312 1828l36 220h1536l-36 -220h-644l-304 -1828h-248l304 1828h-644zM430 -680l198 518h242l-256 -518h-184z" />
    <glyph glyph-name="uni1E6A" unicode="&#x1e6a;" horiz-adv-x="1808" 
d="M312 1828l36 220h1536l-36 -220h-644l-304 -1828h-248l304 1828h-644zM1186 2304c-92 0 -168 72 -168 160s76 160 168 160s168 -72 168 -160s-76 -160 -168 -160z" />
    <glyph glyph-name="uni1E6C" unicode="&#x1e6c;" horiz-adv-x="1808" 
d="M312 1828l36 220h1536l-36 -220h-644l-304 -1828h-248l304 1828h-644zM720 -504c-92 0 -168 72 -168 160s76 160 168 160s168 -72 168 -160s-76 -160 -168 -160z" />
    <glyph glyph-name="uni1E6E" unicode="&#x1e6e;" horiz-adv-x="1808" 
d="M312 1828l36 220h1536l-36 -220h-644l-304 -1828h-248l304 1828h-644zM1202 -252l-32 -200h-936l32 200h936z" />
    <glyph glyph-name="uni1E70" unicode="&#x1e70;" horiz-adv-x="1808" 
d="M312 1828l36 220h1536l-36 -220h-644l-304 -1828h-248l304 1828h-644zM487 -560h-224l4 16l394 416h216l254 -416l-4 -16h-224l-161 280z" />
    <glyph glyph-name="uni01AC" unicode="&#x1ac;" horiz-adv-x="1920" 
d="M1996 2048l-36 -220h-644l-304 -1828h-248l304 1828h-348c-141 0 -205 -112 -224 -228l-12 -76h-224l20 120c39 240 223 404 476 404h1240z" />
    <glyph glyph-name="uni01AE" unicode="&#x1ae;" horiz-adv-x="1808" 
d="M900 0l-28 -164c-27 -160 80 -192 208 -192h76l-36 -220h-136c-224 0 -404 142 -360 408l28 168l304 1828h-644l36 220h1536l-36 -220h-644z" />
    <glyph glyph-name="uni023E" unicode="&#x23e;" horiz-adv-x="1808" 
d="M188 -260l618 1184l150 904h-644l36 220h1044l136 260h228l-136 -260h264l-36 -220h-342l-443 -848l-163 -980h-248l47 282l-283 -542h-228zM1170 1621l108 207h-74z" />
    <glyph glyph-name="uni03A4" unicode="&#x3a4;" horiz-adv-x="1808" 
d="M312 1828l36 220h1536l-36 -220h-644l-304 -1828h-248l304 1828h-644z" />
    <glyph glyph-name="uni0055" unicode="U" horiz-adv-x="2088" 
d="M1804 2048h248l-224 -1356c-70 -420 -436 -728 -918 -728s-744 308 -674 728l224 1356h248l-222 -1336c-48 -300 122 -516 464 -516s584 216 632 516z" />
    <glyph glyph-name="uni01AF" unicode="&#x1af;" horiz-adv-x="2436" 
d="M2300 2172h232c-57 -349 -222 -553 -557 -593l-147 -887c-70 -420 -436 -728 -918 -728s-744 308 -674 728l224 1356h248l-222 -1336c-48 -300 122 -516 464 -516s584 216 632 516l222 1336h248l-44 -267c181 40 256 174 292 391z" />
    <glyph glyph-name="uni00D9" unicode="&#xd9;" horiz-adv-x="2088" 
d="M1804 2048h248l-224 -1356c-70 -420 -436 -728 -918 -728s-744 308 -674 728l224 1356h248l-222 -1336c-48 -300 122 -516 464 -516s584 216 632 516zM1190 2256l-232 464h276l164 -464h-208z" />
    <glyph glyph-name="uni00DA" unicode="&#xda;" horiz-adv-x="2088" 
d="M1804 2048h248l-224 -1356c-70 -420 -436 -728 -918 -728s-744 308 -674 728l224 1356h248l-222 -1336c-48 -300 122 -516 464 -516s584 216 632 516zM1182 2256l320 464h276l-388 -464h-208z" />
    <glyph glyph-name="uni00DB" unicode="&#xdb;" horiz-adv-x="2088" 
d="M1804 2048h248l-224 -1356c-70 -420 -436 -728 -918 -728s-744 308 -674 728l224 1356h248l-222 -1336c-48 -300 122 -516 464 -516s584 216 632 516zM1077 2232h-224l4 16l394 416h216l254 -416l-4 -16h-224l-161 280z" />
    <glyph glyph-name="uni00DC" unicode="&#xdc;" horiz-adv-x="2088" 
d="M1804 2048h248l-224 -1356c-70 -420 -436 -728 -918 -728s-744 308 -674 728l224 1356h248l-222 -1336c-48 -300 122 -516 464 -516s584 216 632 516zM1600 2304c-88 0 -160 80 -144 176c14 84 92 144 168 144c100 0 164 -76 148 -176c-12 -76 -84 -144 -172 -144z
M1024 2304c-88 0 -157 84 -144 176c12 84 92 144 168 144c100 0 164 -76 148 -176c-12 -76 -84 -144 -172 -144z" />
    <glyph glyph-name="uni0168" unicode="&#x168;" horiz-adv-x="2088" 
d="M1804 2048h248l-224 -1356c-70 -420 -436 -728 -918 -728s-744 308 -674 728l224 1356h248l-222 -1336c-48 -300 122 -516 464 -516s584 216 632 516zM978 2232l-180 8c32 204 188 348 360 348c152 0 200 -128 344 -128c76 0 148 68 160 152l176 -16
c-32 -208 -188 -340 -360 -340c-184 0 -188 128 -340 128c-76 0 -144 -68 -160 -152z" />
    <glyph glyph-name="uni016A" unicode="&#x16a;" horiz-adv-x="2088" 
d="M1804 2048h248l-224 -1356c-70 -420 -436 -728 -918 -728s-744 308 -674 728l224 1356h248l-222 -1336c-48 -300 122 -516 464 -516s584 216 632 516zM1810 2560l-32 -200h-936l32 200h936z" />
    <glyph glyph-name="uni016C" unicode="&#x16c;" horiz-adv-x="2088" 
d="M1804 2048h248l-224 -1356c-70 -420 -436 -728 -918 -728s-744 308 -674 728l224 1356h248l-222 -1336c-48 -300 122 -516 464 -516s584 216 632 516zM1536 2560h220c-36 -216 -222 -368 -478 -368c-252 0 -386 152 -350 368h220c-18 -104 20 -196 160 -196
s210 92 228 196z" />
    <glyph glyph-name="uni016E" unicode="&#x16e;" horiz-adv-x="2088" 
d="M1804 2048h248l-224 -1356c-70 -420 -436 -728 -918 -728s-744 308 -674 728l224 1356h248l-222 -1336c-48 -300 122 -516 464 -516s584 216 632 516zM1278 2184c-180 0 -308 140 -280 312s196 312 380 312c183 0 316 -138 284 -312c-34 -184 -182 -312 -384 -312z
M1302 2336c89 0 181 73 192 160c13 95 -41 160 -140 160c-86 0 -173 -77 -188 -160c-16 -91 44 -160 136 -160z" />
    <glyph glyph-name="uni0170" unicode="&#x170;" horiz-adv-x="2088" 
d="M1804 2048h248l-224 -1356c-70 -420 -436 -728 -918 -728s-744 308 -674 728l224 1356h248l-222 -1336c-48 -300 122 -516 464 -516s584 216 632 516zM1342 2216l380 424h264l-436 -424h-208zM930 2216l296 424h260l-368 -424h-188z" />
    <glyph glyph-name="uni0172" unicode="&#x172;" horiz-adv-x="2088" 
d="M1804 2048h248l-224 -1356c-62 -371 -355 -655 -755 -716c-117 -80 -221 -169 -239 -276c-12 -60 8 -96 88 -96c60 0 108 20 140 36l-12 -176c-48 -28 -128 -60 -224 -60c-164 0 -268 92 -240 264c17 103 83 207 217 301c-413 43 -632 335 -567 723l224 1356h248
l-222 -1336c-48 -300 122 -516 464 -516s584 216 632 516z" />
    <glyph glyph-name="uni01D3" unicode="&#x1d3;" horiz-adv-x="2088" 
d="M1804 2048h248l-224 -1356c-70 -420 -436 -728 -918 -728s-744 308 -674 728l224 1356h248l-222 -1336c-48 -300 122 -516 464 -516s584 216 632 516zM1148 2664l162 -280l254 280h224l-2 -16l-392 -416h-216l-256 416l2 16h224z" />
    <glyph glyph-name="uni01D5" unicode="&#x1d5;" horiz-adv-x="2088" 
d="M1804 2048h248l-224 -1356c-70 -420 -436 -728 -918 -728s-744 308 -674 728l224 1356h248l-222 -1336c-48 -300 122 -516 464 -516s584 216 632 516zM1888 3072l-32 -200h-936l32 200h936zM1600 2304c-88 0 -160 80 -144 176c14 84 92 144 168 144
c100 0 164 -76 148 -176c-12 -76 -84 -144 -172 -144zM1024 2304c-88 0 -157 84 -144 176c12 84 92 144 168 144c100 0 164 -76 148 -176c-12 -76 -84 -144 -172 -144z" />
    <glyph glyph-name="uni01D7" unicode="&#x1d7;" horiz-adv-x="2088" 
d="M1804 2048h248l-224 -1356c-70 -420 -436 -728 -918 -728s-744 308 -674 728l224 1356h248l-222 -1336c-48 -300 122 -516 464 -516s584 216 632 516zM1576 2208c-88 0 -160 80 -144 176c14 84 92 144 168 144c100 0 164 -76 148 -176c-12 -76 -84 -144 -172 -144z
M1000 2208c-88 0 -157 84 -144 176c12 84 92 144 168 144c100 0 164 -76 148 -176c-12 -76 -84 -144 -172 -144zM1230 2672l324 304h276l-392 -304h-208z" />
    <glyph glyph-name="uni01D9" unicode="&#x1d9;" horiz-adv-x="2088" 
d="M1804 2048h248l-224 -1356c-70 -420 -436 -728 -918 -728s-744 308 -674 728l224 1356h248l-222 -1336c-48 -300 122 -516 464 -516s584 216 632 516zM1190 2876l172 -172l228 172h236l-4 -24l-404 -300h-168l-296 296l4 28h232zM838 2416c12 88 80 156 180 156
c104 0 148 -68 136 -156c-16 -84 -80 -148 -184 -148s-148 68 -132 148zM1482 2416c12 84 80 152 184 152c100 0 144 -68 132 -152c-16 -80 -80 -152 -184 -152s-148 68 -132 152z" />
    <glyph glyph-name="uni01DB" unicode="&#x1db;" horiz-adv-x="2088" 
d="M1804 2048h248l-224 -1356c-70 -420 -436 -728 -918 -728s-744 308 -674 728l224 1356h248l-222 -1336c-48 -300 122 -516 464 -516s584 216 632 516zM838 2416c12 88 80 156 180 156c104 0 148 -68 136 -156c-16 -84 -80 -148 -184 -148s-148 68 -132 148zM1482 2416
c12 84 80 152 184 152c100 0 144 -68 132 -152c-16 -80 -80 -152 -184 -152s-148 68 -132 152zM1310 2808l124 -312h-176l-200 312h252z" />
    </font>
</defs>
</svg>
