<?xml version="1.0" encoding="utf-8"?>
<!-- Generator: Adobe Illustrator 24.2.0, SVG Export Plug-In . SVG Version: 6.00 Build 0)  -->
<svg version="1.1" id="Слой_1" xmlns="http://www.w3.org/2000/svg" xmlns:xlink="http://www.w3.org/1999/xlink" x="0px" y="0px"
	 viewBox="0 0 349.3 97.4" style="enable-background:new 0 0 349.3 97.4;" xml:space="preserve">
<style type="text/css">
	.st0{fill:#003DA6;}
	.st1{fill-rule:evenodd;clip-rule:evenodd;fill:#003DA6;}
	.st2{fill-rule:evenodd;clip-rule:evenodd;fill:#0071CE;}
	.st3{fill-rule:evenodd;clip-rule:evenodd;fill:#65B2E8;}
	.st4{fill:#65B2E8;}
	.st5{fill:#0071CE;}
	.st6{fill:#004B9B;}
</style>
<g>
	<path class="st0" d="M102.4,83.9h5.2c1.3,0,2.3,0.4,2.9,1c0.5,0.5,0.8,1.1,0.8,1.9c0,1.3-0.7,2-1.5,2.4c1.3,0.5,2.1,1.2,2.1,2.8
		c0,2-1.7,3.1-4.2,3.1h-5.3V83.9z M107.1,88.5c1.1,0,1.8-0.4,1.8-1.2c0-0.7-0.6-1.2-1.6-1.2h-2.4v2.4
		C104.9,88.5,107.1,88.5,107.1,88.5z M107.8,93c1.1,0,1.7-0.4,1.7-1.2c0-0.8-0.6-1.2-1.8-1.2h-2.8V93H107.8z"/>
	<path class="st0" d="M113.2,92.6c0-1.9,1.4-2.7,3.5-2.7c0.9,0,1.5,0.1,2.1,0.4v-0.1c0-1-0.6-1.6-1.8-1.6c-0.9,0-1.6,0.2-2.4,0.5
		l-0.6-1.9c0.9-0.4,1.9-0.7,3.3-0.7c1.3,0,2.3,0.4,2.9,1s0.9,1.6,0.9,2.7v5h-2.4v-0.9c-0.6,0.7-1.4,1.1-2.6,1.1
		C114.5,95.3,113.2,94.4,113.2,92.6z M118.8,92.1v-0.4c-0.4-0.2-1-0.3-1.6-0.3c-1,0-1.7,0.4-1.7,1.2c0,0.7,0.5,1,1.3,1
		C118,93.6,118.8,93,118.8,92.1z"/>
	<path class="st0" d="M136,95.1h-12.8v-8.6h2.4V93h2.7v-6.5h2.4V93h2.7v-6.5h2.4v8.6H136z"/>
	<path class="st0" d="M146.1,95.1h-2.4v-5l-3.3,5h-2.3v-8.6h2.4v5l3.3-5h2.3V95.1z"/>
	<path class="st0" d="M152.6,87.8c0.9-0.8,2.1-1.3,3.6-1.3c1.9,0,3.3,1,3.3,2.3c0,1-0.6,1.6-1.3,1.9c0.9,0.3,1.5,0.9,1.5,2
		c0,1.5-1.4,2.6-3.5,2.6c-1.6,0-2.9-0.5-3.9-1.4l1.1-1.6c0.7,0.6,1.6,1,2.6,1c0.7,0,1.3-0.4,1.3-0.9s-0.5-0.9-1.4-0.9h-1V90h1
		c0.8,0,1.2-0.4,1.2-0.9c0-0.4-0.5-0.8-1.1-0.8c-0.9,0-1.7,0.3-2.3,0.9L152.6,87.8z"/>
	<path class="st0" d="M161,92.6c0-1.9,1.4-2.7,3.5-2.7c0.9,0,1.5,0.1,2.1,0.4v-0.1c0-1-0.6-1.6-1.8-1.6c-0.9,0-1.6,0.2-2.4,0.5
		l-0.6-1.9c0.9-0.4,1.9-0.7,3.3-0.7c1.3,0,2.3,0.4,2.9,1c0.6,0.6,0.9,1.6,0.9,2.7v5h-2.4v-0.9c-0.6,0.7-1.4,1.1-2.6,1.1
		C162.3,95.3,161,94.4,161,92.6z M166.5,92.1v-0.4c-0.4-0.2-1-0.3-1.6-0.3c-1,0-1.7,0.4-1.7,1.2c0,0.7,0.5,1,1.3,1
		C165.8,93.6,166.5,93,166.5,92.1z"/>
	<path class="st0" d="M172.2,95.1l-0.2,2h-2V93h0.9c0.7-1.5,0.8-3.7,0.8-5.8v-0.7h7V93h1.2l-0.3,4.1h-2v-2H172.2z M176.3,93v-4.4
		H174v0.2c0,1.5-0.1,3-0.6,4.2C173.4,93,176.3,93,176.3,93z"/>
	<path class="st0" d="M180.8,92.6c0-1.9,1.4-2.7,3.5-2.7c0.9,0,1.5,0.1,2.1,0.4v-0.1c0-1-0.6-1.6-1.8-1.6c-0.9,0-1.6,0.2-2.4,0.5
		l-0.6-1.9c0.9-0.4,1.9-0.7,3.3-0.7c1.3,0,2.3,0.4,2.9,1c0.6,0.6,0.9,1.6,0.9,2.7v5h-2.4v-0.9c-0.6,0.7-1.4,1.1-2.6,1.1
		C182.1,95.3,180.8,94.4,180.8,92.6z M186.3,92.1v-0.4c-0.4-0.2-1-0.3-1.6-0.3c-1,0-1.7,0.4-1.7,1.2c0,0.7,0.5,1,1.3,1
		C185.6,93.6,186.3,93,186.3,92.1z"/>
	<path class="st0" d="M193,89.2c0,0.9,0.4,1.4,1.2,1.4c0.7,0,1.2-0.2,1.7-0.4v-3.7h2.4v8.6h-2.4v-3c-0.6,0.3-1.5,0.6-2.3,0.6
		c-1.7,0-3-1-3-2.8v-3.4h2.5L193,89.2L193,89.2z"/>
	<path class="st0" d="M208.4,95.1H206v-5l-3.3,5h-2.3v-8.6h2.4v5l3.3-5h2.3V95.1z"/>
	<path class="st0" d="M215.1,89h4.9v2.3h-4.9V89z"/>
	<path class="st0" d="M234.6,95.1h-2.4v-3.3h-3v3.3h-2.4v-8.6h2.4v3.3h3v-3.3h2.4V95.1z"/>
	<path class="st0" d="M236.2,92.6c0-1.9,1.4-2.7,3.5-2.7c0.9,0,1.5,0.1,2.1,0.4v-0.1c0-1-0.6-1.6-1.8-1.6c-0.9,0-1.6,0.2-2.4,0.5
		l-0.6-1.9c0.9-0.4,1.9-0.7,3.3-0.7c1.3,0,2.3,0.4,2.9,1c0.6,0.6,0.9,1.6,0.9,2.7v5h-2.4v-0.9c-0.6,0.7-1.4,1.1-2.6,1.1
		C237.6,95.3,236.2,94.4,236.2,92.6z M241.8,92.1v-0.4c-0.4-0.2-1-0.3-1.6-0.3c-1,0-1.7,0.4-1.7,1.2c0,0.7,0.5,1,1.3,1
		C241.1,93.6,241.8,93,241.8,92.1z"/>
	<path class="st0" d="M259,95.1h-12.8v-8.6h2.4V93h2.7v-6.5h2.4V93h2.7v-6.5h2.4v8.6H259z"/>
	<path class="st0" d="M269.2,95.1h-2.4v-5l-3.3,5h-2.3v-8.6h2.4v5l3.3-5h2.3V95.1z"/>
	<path class="st0" d="M276.1,86.6h2.4v1.2c0.6-0.8,1.4-1.4,2.7-1.4c2,0,3.9,1.6,3.9,4.5s-1.9,4.4-3.9,4.4c-1.3,0-2.1-0.6-2.7-1.3
		v3.7h-2.4V86.6z M282.7,90.8c0-1.4-1-2.4-2.1-2.4s-2.1,0.9-2.1,2.4c0,1.4,0.9,2.4,2.1,2.4S282.7,92.3,282.7,90.8z"/>
	<path class="st0" d="M286.5,90.9c0-2.4,1.7-4.5,4.2-4.5c2.9,0,4.2,2.2,4.2,4.7c0,0.2,0,0.4,0,0.6h-6c0.2,1.1,1,1.7,2.1,1.7
		c0.8,0,1.4-0.3,2.1-0.9l1.4,1.2c-0.8,1-2,1.6-3.5,1.6C288.4,95.3,286.5,93.5,286.5,90.9z M292.6,90.2c-0.1-1.1-0.8-1.8-1.8-1.8
		s-1.7,0.7-1.9,1.8H292.6z"/>
	<path class="st0" d="M309.5,95.1h-12.8v-8.6h2.4V93h2.7v-6.5h2.4V93h2.7v-6.5h2.4v8.6H309.5z"/>
	<path class="st0" d="M311.3,90.9c0-2.4,1.7-4.5,4.2-4.5c2.9,0,4.2,2.2,4.2,4.7c0,0.2,0,0.4,0,0.6h-6c0.2,1.1,1,1.7,2.1,1.7
		c0.8,0,1.4-0.3,2.1-0.9l1.4,1.2c-0.8,1-2,1.6-3.5,1.6C313.2,95.3,311.3,93.5,311.3,90.9z M317.3,90.2c-0.1-1.1-0.8-1.8-1.8-1.8
		s-1.7,0.7-1.9,1.8H317.3z"/>
	<path class="st0" d="M329.3,95.1h-2.4v-3.3h-3v3.3h-2.4v-8.6h2.4v3.3h3v-3.3h2.4V95.1z"/>
	<path class="st0" d="M339.5,95.1h-2.4v-5l-3.3,5h-2.3v-8.6h2.4v5l3.3-5h2.3V95.1z"/>
	<path class="st0" d="M349.3,95.1h-2.4v-2.8h-1.3l-1.8,2.8H341l2.2-3.2c-1.1-0.4-1.8-1.2-1.8-2.6c0-1.7,1.2-2.9,3.5-2.9h4.5v8.7
		H349.3z M346.8,90.6v-2.2h-1.7c-0.9,0-1.4,0.4-1.4,1.1s0.5,1.1,1.4,1.1H346.8z"/>
</g>
<g id="Слой_4">
	<path class="st1" d="M43.9,0c24.2,0,43.9,19.7,43.9,43.9c0,24.2-19.6,43.8-43.8,43.9L28,75.5c4.8,2.4,10.2,3.8,15.9,3.8
		c19.6,0,35.5-15.9,35.5-35.5c0-19.6-15.9-35.5-35.5-35.5C24.3,8.4,8.4,24.3,8.4,43.9c0,0.1,0,0.2,0,0.3h0v25.5v25.6H0V44.2h0l0-0.3
		C0,19.6,19.7,0,43.9,0L43.9,0z"/>
	<path class="st2" d="M43.9,9.7C62.7,9.7,78,25,78,43.9C78,62.7,62.7,78,43.9,78C25.1,78,9.8,62.7,9.8,43.9
		C9.8,25,25.1,9.7,43.9,9.7L43.9,9.7z M43.9,18.2c14.2,0,25.7,11.5,25.7,25.7c0,14.2-11.5,25.7-25.7,25.7
		c-14.2,0-25.7-11.5-25.7-25.7C18.2,29.7,29.7,18.2,43.9,18.2L43.9,18.2z"/>
	<path class="st3" d="M43.9,19.5c13.4,0,24.3,10.9,24.3,24.3c0,13.4-10.9,24.3-24.3,24.3c-13.4,0-24.3-10.9-24.3-24.3
		C19.6,30.4,30.5,19.5,43.9,19.5L43.9,19.5z M43.9,28c8.8,0,15.9,7.1,15.9,15.9c0,8.8-7.1,15.9-15.9,15.9c-8.8,0-15.9-7.1-15.9-15.9
		C28,35.1,35.1,28,43.9,28L43.9,28z"/>
	<polygon class="st4" points="25.7,75.5 11.4,75.5 37.4,95.3 51.7,95.3 25.7,75.5 	"/>
	<polygon class="st5" points="14,75.5 11.4,75.5 37.4,95.3 40.1,95.3 14,75.5 	"/>
</g>
<g id="Слой_3">
	<polygon class="st6" points="138.9,27.3 153.6,27.3 161.5,44.6 169.8,27.3 183,27.3 161.7,72 148,72 154.8,58.8 	"/>
	<path class="st6" d="M214.4,31.5v-5h-5.8h-5.8v5c0,0-19.8,0.8-19.8,18.2s19.8,17.9,19.8,17.9v5.8h5.8h5.8v-5.8
		c0,0,19.8-0.5,19.8-17.9S214.4,31.5,214.4,31.5z M202,56.7c0,0-6.8-1.1-6.8-7s6.8-6.1,6.8-6.1V56.7z M214.6,56.7V43.6
		c0,0,6.8,0.2,6.8,6.1S214.6,56.7,214.6,56.7z"/>
	<path class="st6" d="M127.2,27.3h-25.3V72h13.2V60.5h9.8c0,0,14.3-3.5,14.3-16.3C139.3,31.3,127.2,27.3,127.2,27.3z M122,49.7h-7.2
		V38.6h7.3c0,0,3.7,0,3.7,5.6C125.9,50,122,49.7,122,49.7z"/>
	<path class="st6" d="M265.7,26.6c-12.7,0-23.1,10.3-23.1,23.1s10.3,23.1,23.1,23.1s23.1-10.3,23.1-23.1S278.4,26.6,265.7,26.6z
		 M265.7,60.6c-6,0-10.9-4.9-10.9-10.9s4.9-10.9,10.9-10.9s10.9,4.9,10.9,10.9S271.7,60.6,265.7,60.6z"/>
	<polygon class="st6" points="322.7,71.5 325.8,71.5 337.3,47.6 337.3,71.5 349.1,71.5 349.1,27.2 332.2,27.2 322.7,49.3 
		313.1,27.2 296.2,27.2 296.2,71.5 308.1,71.5 308.1,47.6 319.6,71.5 	"/>
</g>
</svg>
