<?xml version="1.0" standalone="no"?>
<!DOCTYPE svg PUBLIC "-//W3C//DTD SVG 20010904//EN"
 "http://www.w3.org/TR/2001/REC-SVG-20010904/DTD/svg10.dtd">
<svg version="1.0" xmlns="http://www.w3.org/2000/svg"
 width="800.000000pt" height="800.000000pt" viewBox="0 0 800.000000 800.000000"
 preserveAspectRatio="xMidYMid meet">
<metadata>
Created by potrace 1.11, written by Peter Selinger 2001-2013
</metadata>
<g transform="translate(0.000000,800.000000) scale(0.100000,-0.100000)"
fill="#000000" stroke="none">
<path d="M3715 7974 c-16 -2 -79 -9 -140 -15 -60 -6 -117 -12 -125 -14 -8 -1
-31 -5 -50 -9 -19 -3 -53 -8 -75 -12 -22 -3 -102 -19 -177 -35 -1360 -295
-2490 -1314 -2926 -2639 -63 -190 -124 -433 -147 -580 -32 -215 -32 -215 -42
-325 -15 -169 -8 -678 11 -795 2 -14 7 -47 10 -75 3 -27 8 -61 10 -75 3 -14 7
-41 10 -60 4 -30 23 -128 42 -218 31 -153 114 -420 186 -602 56 -143 180 -401
238 -497 22 -36 40 -67 40 -70 0 -2 38 -63 85 -135 500 -763 1234 -1329 2093
-1613 152 -51 242 -75 402 -110 86 -19 86 -19 205 -39 115 -19 144 -23 230
-31 39 -4 84 -9 100 -11 67 -8 526 -11 612 -4 451 41 781 116 1163 267 1108
435 1972 1353 2338 2483 67 205 139 519 156 681 4 31 9 66 11 78 19 101 27
630 11 806 -17 195 -43 361 -91 575 -104 471 -337 987 -625 1389 -161 226
-281 366 -474 555 -468 461 -1050 800 -1681 981 -85 25 -165 47 -177 49 -13 3
-66 14 -118 24 -92 20 -137 28 -210 38 -19 2 -48 6 -65 9 -16 3 -55 7 -85 11
-30 3 -66 8 -80 11 -30 6 -622 12 -665 7z m625 -779 c282 -38 470 -79 685
-150 681 -226 1263 -671 1663 -1270 206 -309 349 -631 442 -991 15 -61 31
-127 34 -145 3 -19 10 -57 15 -86 6 -29 13 -74 16 -100 4 -26 8 -59 11 -73 18
-108 25 -487 11 -650 -51 -606 -267 -1178 -627 -1658 -100 -134 -117 -155
-220 -265 -560 -602 -1309 -963 -2120 -1024 -170 -12 -504 -6 -610 11 -14 3
-74 12 -135 21 -571 86 -1143 351 -1594 739 -112 96 -285 271 -362 366 -30 36
-56 67 -59 70 -16 14 -145 196 -192 270 -274 429 -432 886 -494 1425 -10 89
-12 447 -3 550 58 670 293 1264 702 1773 469 583 1126 985 1862 1137 110 22
252 43 345 51 47 3 87 8 89 10 6 6 490 -4 541 -11z"/>
<path d="M3988 7115 c-2 -1 -64 -5 -138 -9 -74 -3 -151 -8 -170 -11 -19 -2
-57 -7 -85 -10 -157 -19 -500 -101 -610 -146 -17 -7 -34 -13 -40 -14 -77 -19
-389 -169 -543 -262 -303 -184 -611 -453 -812 -713 -19 -25 -40 -51 -47 -57
-25 -27 -144 -204 -206 -308 -115 -195 -227 -445 -291 -657 -30 -97 -82 -313
-91 -373 -3 -23 -7 -50 -9 -60 -21 -110 -36 -311 -36 -475 0 -212 6 -291 45
-550 8 -52 36 -178 61 -270 89 -329 239 -656 426 -929 163 -239 432 -529 643
-693 108 -84 335 -238 350 -238 5 0 16 -6 24 -14 27 -23 204 -112 339 -169
127 -55 335 -126 428 -147 27 -7 56 -13 64 -15 8 -2 44 -10 80 -19 62 -14 99
-21 180 -32 19 -2 49 -6 65 -9 179 -27 621 -27 795 0 14 2 43 6 65 10 23 3 52
8 65 10 14 3 41 8 60 11 68 11 246 56 355 91 707 226 1321 712 1710 1353 229
377 364 778 430 1270 10 79 14 512 4 595 -26 233 -39 314 -79 475 -11 47 -23
94 -25 104 -3 11 -21 69 -41 130 -59 179 -152 387 -249 561 -30 55 -194 307
-205 315 -3 3 -19 23 -35 45 -17 22 -32 42 -35 45 -3 3 -27 32 -54 65 -78 95
-312 324 -416 406 -358 285 -741 479 -1160 588 -168 43 -268 62 -460 86 -19 2
-91 7 -160 10 -69 4 -140 8 -157 9 -18 2 -34 2 -35 1z m194 -779 c51 -3 102
-8 113 -10 11 -2 41 -7 66 -10 359 -48 770 -225 1076 -463 99 -77 320 -290
373 -360 19 -26 40 -52 47 -58 14 -14 173 -251 173 -258 0 -3 16 -34 36 -68
71 -127 187 -426 210 -542 2 -10 5 -26 8 -35 3 -9 7 -33 10 -52 3 -19 8 -46
11 -60 3 -14 8 -45 11 -70 3 -25 8 -54 11 -65 12 -51 10 -456 -3 -555 -93
-693 -452 -1276 -1024 -1659 -499 -334 -1108 -461 -1705 -356 -770 135 -1446
682 -1742 1410 -172 421 -218 865 -138 1308 127 691 573 1302 1195 1634 95 51
254 121 270 120 3 0 15 5 28 12 22 11 194 67 236 76 12 2 32 6 46 9 14 3 48
10 75 16 48 9 61 11 147 24 20 3 76 8 125 11 48 3 88 7 89 8 4 4 161 -1 256
-7z"/>
<path d="M3858 6218 c-82 -6 -135 -12 -218 -24 -19 -3 -80 -16 -135 -29 -411
-96 -765 -295 -1065 -596 -90 -91 -129 -134 -180 -204 -25 -33 -47 -62 -50
-65 -21 -18 -121 -185 -174 -290 -105 -206 -176 -424 -212 -650 -2 -14 -6 -38
-9 -55 -23 -142 -22 -453 1 -590 1 -11 6 -40 9 -65 3 -25 17 -91 30 -147 160
-678 645 -1256 1280 -1526 116 -49 277 -103 287 -95 2 1 12 -3 23 -9 11 -6 37
-14 57 -17 21 -3 58 -10 83 -16 25 -6 62 -13 83 -15 20 -3 46 -7 57 -10 23 -5
231 -18 290 -18 55 -1 267 13 274 17 3 2 30 6 59 10 192 23 469 114 682 223
96 50 274 163 332 211 181 152 278 248 384 382 154 194 277 420 356 650 31 93
72 249 83 320 4 25 9 54 11 65 16 82 24 204 24 345 1 134 -3 178 -25 340 -28
200 -116 468 -222 670 -406 780 -1251 1254 -2115 1188z m357 -779 c416 -64
777 -294 1003 -641 88 -137 180 -350 198 -464 3 -21 8 -42 9 -45 2 -3 7 -28
11 -55 3 -27 8 -58 10 -69 2 -11 4 -76 5 -145 2 -391 -143 -748 -419 -1027
-382 -386 -944 -523 -1465 -357 -420 134 -771 474 -916 888 -28 79 -39 118
-57 201 -13 60 -26 180 -28 260 -12 561 317 1089 829 1331 52 25 103 47 112
49 10 2 38 11 62 19 178 64 440 87 646 55z"/>
</g>
</svg>
