<svg width="48" height="48" viewBox="0 0 48 48" fill="none" xmlns="http://www.w3.org/2000/svg">
<path d="M30 30.2099C30 26.9624 29.9925 23.7149 30.0075 20.4599C30.0075 20.1599 29.925 19.9874 29.6775 19.8074C23.7075 15.6374 24.2475 6.67492 30.6675 3.23992C31.845 2.60992 33 3.28492 33 4.62742C33.0075 6.60742 33.0075 8.59492 32.9925 10.5749C32.9925 10.8674 33.06 11.0399 33.3525 11.1224C33.6075 11.1899 33.8775 11.2724 34.0875 11.4224C35.3025 12.2474 36.3 11.3924 37.3575 11.0174C37.4475 10.9874 37.4925 10.7249 37.4925 10.5749C37.5 8.63242 37.5 6.67492 37.5 4.72492C37.5 3.26242 38.64 2.59492 39.9225 3.29242C46.2525 6.76492 46.755 15.6374 40.86 19.7924C40.5825 19.9874 40.4925 20.1824 40.4925 20.5199C40.5 26.8799 40.5 33.2324 40.5 39.5924C40.5 42.1649 38.925 44.2274 36.5175 44.8349C33.2625 45.6599 30.0825 43.2299 30 39.8699C30 39.8249 30 39.7799 30 39.7274C30 36.5549 30 33.3824 30 30.2099ZM30 7.61992C29.82 7.85992 29.7225 7.97242 29.6325 8.09992C27.465 11.3474 28.4925 15.7724 31.8975 17.6774C32.6925 18.1199 33.015 18.6974 33.0075 19.5974C32.9925 26.1824 33 32.7749 33 39.3674C33 39.5399 32.9925 39.7124 33.0075 39.8849C33.075 41.0549 34.0575 41.9849 35.2275 41.9999C36.525 42.0074 37.5 40.9949 37.5 39.6074C37.5 32.9249 37.5075 26.2349 37.4925 19.5524C37.4925 18.6899 37.8075 18.1274 38.565 17.7074C41.985 15.7874 43.035 11.4224 40.89 8.14492C40.7925 8.00242 40.68 7.86742 40.5 7.62742C40.5 9.11242 40.485 10.4549 40.5075 11.7974C40.515 12.6149 40.17 13.1624 39.405 13.4624C38.2575 13.9124 37.11 14.3624 35.97 14.8349C35.46 15.0449 34.98 15.0224 34.4775 14.8199C33.3675 14.3624 32.25 13.9274 31.1325 13.4774C30.3075 13.1399 30 12.6899 30 11.7899C30 10.4474 30 9.11242 30 7.61992Z" fill="#495053"/>
<path d="M22.395 5.99995C22.305 7.13245 22.215 8.21995 22.1325 9.30745C22.0725 10.185 21.705 10.665 20.8575 10.875C19.47 11.2275 18.165 11.76 16.9425 12.5024C16.245 12.9299 15.63 12.87 15 12.3375C14.1375 11.61 13.29 10.875 12.465 10.17C11.7 10.935 10.95 11.6775 10.1775 12.45C10.8525 13.2375 11.5575 14.0549 12.2475 14.8724C12.9075 15.6449 12.96 16.1849 12.4425 17.0399C11.7375 18.2099 11.2275 19.4625 10.89 20.7899C10.6575 21.7049 10.2225 22.0574 9.27749 22.1249C8.20499 22.2074 7.13249 22.2974 6.02999 22.3799C6.02999 23.4524 6.02999 24.5024 6.02999 25.5975C7.13999 25.6875 8.24249 25.7774 9.34499 25.8599C10.1925 25.9274 10.6725 26.3025 10.875 27.1199C11.22 28.5075 11.76 29.8125 12.5025 31.035C12.9375 31.7625 12.885 32.3624 12.33 33.0149C11.6175 33.8624 10.89 34.7024 10.1925 35.5124C10.9575 36.2699 11.7 37.02 12.48 37.7924C13.2375 37.1399 14.055 36.4424 14.8725 35.7449C15.6675 35.07 16.2 35.0249 17.0775 35.5574C18.195 36.2249 19.38 36.7275 20.6475 37.0499C21.7425 37.3274 22.05 37.7099 22.14 38.8349C22.2225 39.8774 22.305 40.9124 22.395 41.9699C23.475 41.9699 24.5175 41.9699 25.425 41.9699C25.7475 41.5499 25.9725 41.145 26.295 40.8675C26.7375 40.5 27.285 40.5075 27.795 40.7774C28.2975 41.0474 28.5825 41.4825 28.5975 42.06C28.635 43.5299 27.3225 44.9099 25.785 44.9699C24.6 45.0075 23.4075 45.0075 22.2225 44.9699C20.7375 44.9249 19.515 43.7024 19.4025 42.2099C19.35 41.5124 19.275 40.8074 19.2375 40.1099C19.2225 39.8549 19.14 39.735 18.9 39.645C18.0975 39.3374 17.31 39.0149 16.5225 38.6624C16.2975 38.5649 16.1625 38.5724 15.99 38.7299C15.4725 39.1875 14.955 39.63 14.4225 40.0724C13.1175 41.1674 11.4525 41.0999 10.2375 39.915C9.50999 39.2024 8.79749 38.4824 8.08499 37.7624C6.86999 36.5249 6.81749 34.8525 7.92749 33.54C8.36249 33.03 8.78999 32.5124 9.23999 32.01C9.41999 31.815 9.40499 31.6649 9.29999 31.4324C8.95499 30.6674 8.63249 29.8874 8.33999 29.0999C8.24249 28.8375 8.10749 28.7474 7.83749 28.74C7.15499 28.7024 6.46499 28.635 5.78249 28.5825C4.22999 28.4625 3.02249 27.2024 2.99999 25.6424C2.98499 24.5324 2.98499 23.4224 2.99999 22.3124C3.02999 20.7524 4.23749 19.5 5.79749 19.3874C6.49499 19.3349 7.19999 19.2599 7.89749 19.2224C8.14499 19.2074 8.23499 19.1099 8.32499 18.8925C8.63999 18.0975 8.95499 17.295 9.30749 16.5225C9.41999 16.275 9.38999 16.1399 9.22499 15.9524C8.77499 15.45 8.34749 14.9399 7.91249 14.4225C6.81749 13.1174 6.86999 11.445 8.05499 10.2375C8.78999 9.48745 9.52499 8.74495 10.275 8.01745C11.4525 6.86995 13.125 6.81745 14.3925 7.87495C14.9175 8.31745 15.4425 8.75995 15.96 9.21745C16.1475 9.38245 16.29 9.41245 16.53 9.29995C17.31 8.94745 18.105 8.63245 18.9 8.31745C19.1175 8.23495 19.215 8.12995 19.2225 7.88995C19.26 7.18495 19.335 6.48745 19.3875 5.78995C19.5075 4.22995 20.76 3.02995 22.32 2.99245C22.8675 2.97745 23.415 2.97745 23.9625 2.99245C24.8475 3.01495 25.5 3.67495 25.5 4.50745C25.4925 5.33995 24.8325 5.98495 23.955 5.99995C23.4525 6.00745 22.9575 5.99995 22.395 5.99995Z" fill="#495053"/>
<path d="M23.82 34.4999C18.7275 34.4999 14.145 30.3974 13.5675 25.3124C12.96 19.9874 16.35 14.8574 21.885 13.7174C22.2675 13.6424 22.7025 13.6424 23.07 13.7549C23.7 13.9499 24.06 14.6324 23.9925 15.2774C23.925 15.9224 23.445 16.4624 22.77 16.5899C20.8125 16.9574 19.215 17.9024 18 19.4849C14.5725 23.9699 17.3325 30.6524 22.9275 31.4174C24.0975 31.5749 25.2225 31.4549 26.355 31.1324C26.715 31.0274 27.135 31.0049 27.495 31.0949C28.11 31.2449 28.4925 31.8374 28.5 32.4674C28.5075 33.1274 28.11 33.6899 27.4425 33.9149C26.325 34.2974 25.1775 34.5149 23.82 34.4999Z" fill="#495053"/>
</svg>
