<svg width="156" height="28" viewBox="0 0 156 28" fill="none" xmlns="http://www.w3.org/2000/svg">
<path fill-rule="evenodd" clip-rule="evenodd" d="M131.964 14.7552H129.224V9.54237H131.964V14.7552ZM133.519 8.07117C133.146 7.72637 132.71 7.46317 132.212 7.25997C131.683 7.05757 131.153 6.93517 130.593 6.93517C130.034 6.93517 129.504 7.05677 129.006 7.22957C128.477 7.46237 128.041 7.72557 127.669 8.07037C127.294 8.41517 126.984 8.82077 126.766 9.28637C126.548 9.78317 126.423 10.2696 126.423 10.796L126.455 27.7432H129.225L129.215 22.2392C129.215 22.2392 129.225 22.2488 129.225 19.604V17.3536H131.964V27.744H134.735V10.7976C134.735 10.2704 134.611 9.78397 134.423 9.31757C134.174 8.82157 133.894 8.41597 133.519 8.07117ZM155.688 13.7016C155.906 13.2312 156 12.7288 156 12.176V6.93597H153.26L153.259 12.1456C153.259 12.8824 153.104 13.4656 152.856 13.9672C152.544 14.4896 152.233 14.7248 151.89 14.7248L150.49 14.756V6.93597H147.719V27.744H150.49V17.3544H151.89C152.233 17.3544 152.544 17.5904 152.824 18.0912C153.104 18.5824 153.26 19.1968 153.26 19.9344V27.744H156L155.999 19.9344C155.999 19.4016 155.906 18.9112 155.688 18.4392C155.471 17.9384 155.19 17.5288 154.816 17.18C154.443 16.832 153.272 16.0336 152.712 16.0344C153.303 16.0344 154.474 15.2768 154.816 14.9296C155.19 14.5816 155.47 14.1712 155.688 13.7016ZM142.537 14.7552H139.767V6.93597H136.997V27.744H139.767V17.3544H142.537V27.744H145.277V6.93597H142.537V14.7552ZM121.702 25.144H118.932V17.3544H121.702V25.144ZM121.702 14.7248H118.932V9.54557H124.064V6.93597H120.301C119.711 6.93597 119.18 7.05837 118.683 7.23277C118.185 7.46877 117.75 7.73357 117.376 8.08157C117.003 8.46077 116.722 8.86957 116.504 9.34077C116.286 9.83277 116.193 10.3336 116.193 10.8864V27.744H120.301C120.892 27.744 121.422 27.6616 121.919 27.4776C122.449 27.2728 122.885 27.048 123.258 26.7208C123.632 26.4032 123.942 25.9936 124.13 25.5536C124.347 25.0832 124.471 24.5504 124.471 23.9976V17.3544C124.471 16.628 124.192 15.9832 123.693 15.4816C123.166 14.9904 122.48 14.7248 121.702 14.7248ZM81.4565 22.1368C80.6742 23.0104 80.233 23.7864 80.0305 24.472V6.93597C78.7287 7.31997 62.0111 14.6272 61.9288 14.7552C64.3477 14.7256 65.3978 19.9952 62.5942 21.6152C61.5796 22.1856 58.1646 22.4416 58.1638 18.5856L58.1646 6.93597L51.0386 9.54157L51.0289 17.6208C50.9305 20.0704 51.7024 27.96 61.3916 27.96C65.0494 27.96 71.0648 26.4552 71.0696 18.388L71.0752 14.9928C71.072 14.8552 71.3462 14.3632 71.9213 14.3632C72.5246 14.3632 72.886 14.6776 72.886 15.692C72.886 15.692 72.886 23.7288 72.919 27.7432H80.0297V26.1144C80.4886 27.3464 81.9953 27.9936 83.4181 27.9984C86.6532 27.9984 88.1034 26.2672 88.0341 24.3584C88.0341 24.3584 87.1291 22.8624 87.9405 21.8688C90.3473 18.9176 92.7726 15.9952 92.8234 16.0648C93.8494 17.56 99.0533 25.2928 100.65 27.7424L109.199 27.7376C105.881 22.8472 101.471 16.124 95.1834 6.93357C95.1851 6.93597 82.3647 21.1328 81.4565 22.1368ZM41.8695 18.5352C41.8695 20.1888 40.2855 21.6152 37.3028 21.6152C33.5224 21.6152 32.3884 19.3624 32.5239 15.0824L32.5513 6.93597L25.2479 9.59277V17.6608C25.2414 23.052 28.8927 27.656 37.3028 27.6856C39.8733 27.6856 41.3985 26.4064 41.8695 25.8064C41.8655 26.4456 41.8695 26.9568 41.8695 27.7448H49.327L49.3295 6.93597L41.8695 9.54157V18.5352ZM9.86589 20.12C11.696 17.8864 13.147 16.2824 13.1873 16.3416C13.5954 16.932 14.3157 18.2304 15.5481 20.0608L9.86589 20.12ZM1.47762 22.1368C2.41646 21.1536 15.2062 6.93677 15.2062 6.93677C21.4933 16.1264 25.8988 22.8544 29.217 27.7448H20.6755C20.1738 26.9776 19.5616 26.0624 18.5937 24.6168H8.04063C7.97369 26.42 6.52913 28 3.4408 28C0.896088 27.9904 -1.7196 25.5008 1.47762 22.1368ZM40.9726 6.35997C38.29 7.41357 35.8526 6.98317 35.5283 5.38797C35.2041 3.78397 37.1157 1.63997 39.7983 0.575973C42.4809 -0.478427 44.9176 -0.0472274 45.2418 1.55677C45.5668 3.15197 43.6545 5.30557 40.9726 6.35997Z" fill="#787879"/>
</svg>
