<svg width="35" height="45" viewBox="0 0 35 45" fill="none" xmlns="http://www.w3.org/2000/svg">
<g clip-path="url(#clip0_234_656)">
<path d="M2.28906 0.908569H32.7111C33.4655 0.908569 34.0793 1.52691 34.0793 2.25882V42.7412C34.0793 43.4731 33.4527 44.0914 32.7111 44.0914H2.28906C1.54737 44.0914 0.920776 43.4857 0.920776 42.7412V2.25882C0.920776 1.51429 1.53459 0.908569 2.28906 0.908569Z" stroke="#495053" stroke-width="2" stroke-linecap="round" stroke-linejoin="round"/>
<path d="M9.19434 15.774V23.2319" stroke="#495053" stroke-width="2" stroke-linecap="round" stroke-linejoin="round"/>
<path d="M5.422 19.4966H12.9668" stroke="#495053" stroke-width="2" stroke-linecap="round" stroke-linejoin="round"/>
<path d="M28.1458 16.8845L22.8134 22.1467" stroke="#495053" stroke-width="2" stroke-linecap="round" stroke-linejoin="round"/>
<path d="M6.52173 33.3273L11.8542 38.5895" stroke="#495053" stroke-width="2" stroke-linecap="round" stroke-linejoin="round"/>
<path d="M6.52173 38.5895L11.8542 33.3273" stroke="#495053" stroke-width="2" stroke-linecap="round" stroke-linejoin="round"/>
<path d="M1.08691 27.5098H33.913" stroke="#495053" stroke-width="2" stroke-linecap="round" stroke-linejoin="round"/>
<path d="M17.4937 11.3068V43.7002" stroke="#495053" stroke-width="2" stroke-linecap="round" stroke-linejoin="round"/>
<path d="M22.0077 33.9582H29.5524" stroke="#495053" stroke-width="2" stroke-linecap="round" stroke-linejoin="round"/>
<path d="M22.0077 37.9585H29.5524" stroke="#495053" stroke-width="2" stroke-linecap="round" stroke-linejoin="round"/>
<path fill-rule="evenodd" clip-rule="evenodd" d="M22.1868 16.0137C21.8287 16.3671 21.8287 16.9349 22.1868 17.2756C22.5448 17.629 23.1203 17.629 23.4655 17.2756C23.8236 16.9223 23.8236 16.3544 23.4655 16.0137C23.1075 15.6604 22.532 15.6604 22.1868 16.0137Z" fill="#495053" stroke="#495053" stroke-width="2" stroke-miterlimit="22.93"/>
<path fill-rule="evenodd" clip-rule="evenodd" d="M27.826 21.5788C27.468 21.9321 27.468 22.5 27.826 22.8407C28.1841 23.194 28.7595 23.194 29.1048 22.8407C29.4629 22.4874 29.4629 21.9195 29.1048 21.5788C28.7468 21.2254 28.1713 21.2254 27.826 21.5788Z" fill="#495053" stroke="#495053" stroke-width="2" stroke-miterlimit="22.93"/>
<path d="M1.08691 10.9282H33.913" stroke="#495053" stroke-width="2" stroke-linecap="round" stroke-linejoin="round"/>
</g>
<defs>
<clipPath id="clip0_234_656">
<rect width="35" height="45" fill="white"/>
</clipPath>
</defs>
</svg>
