<svg width="48" height="48" viewBox="0 0 48 48" fill="none" xmlns="http://www.w3.org/2000/svg">
<g clip-path="url(#clip0_2_219)">
<path d="M15.8475 0C16.2525 0 16.6575 0 17.07 0C17.1075 0.0225 17.1525 0.06 17.19 0.0675C20.1525 0.45 22.1625 3.3075 21.6825 6.1575C21.63 6.4875 21.72 6.96 21.9375 7.2C22.5825 7.935 23.325 8.58 24.06 9.3C24.645 8.7075 25.2225 8.0925 25.83 7.515C26.28 7.0875 26.4075 6.6 26.34 5.9925C26.2875 5.52 26.3025 5.025 26.34 4.5525C26.385 4.05 26.7225 3.7875 27.15 3.855C27.5475 3.915 27.765 4.2675 27.7275 4.7325C27.705 5.085 27.675 5.4525 27.7275 5.805C27.885 6.855 27.6075 7.7325 26.8425 8.49C24.435 10.875 22.0425 13.275 19.65 15.675C18.915 16.4175 18.06 16.7175 17.0175 16.545C14.985 16.2225 12.9675 17.685 12.69 19.665C12.765 19.605 12.825 19.5675 12.8775 19.515C13.9125 18.5325 15.1425 18.0675 16.575 18.09C17.6025 18.105 18.6375 18.0675 19.665 18.105C20.1825 18.12 20.595 18.06 20.8425 17.535C20.925 17.3625 21.105 17.235 21.255 17.085C23.565 14.775 25.89 12.48 28.17 10.1475C29.0025 9.2925 29.925 8.955 31.1175 9.105C33.105 9.36 34.89 8.055 35.31 6.1125C35.4 5.7075 35.3775 5.2875 35.4075 4.8675C35.355 4.8525 35.31 4.845 35.2575 4.83C34.6125 5.4825 33.96 6.135 33.3225 6.795C33.03 7.095 32.7225 7.1925 32.31 7.0575C31.8225 6.9 31.32 6.7875 30.8175 6.66C30.4725 6.57 30.255 6.36 30.1725 6C30.045 5.4825 29.9025 4.9725 29.76 4.4625C29.6475 4.08 29.745 3.7725 30.0375 3.4875C30.6375 2.91 31.215 2.325 31.7925 1.7325C31.8675 1.6575 31.9275 1.56 32.025 1.4325C30.9825 1.335 30.0975 1.5675 29.3025 2.13C28.815 2.475 28.41 2.46 28.1475 2.1075C27.87 1.7475 27.9675 1.2675 28.5 0.99C29.25 0.6 30.06 0.3225 30.8475 0C31.32 0 31.785 0 32.2575 0C32.67 0.1275 33.0975 0.2325 33.495 0.3825C34.23 0.66 34.3275 1.1775 33.7725 1.7475C33.0675 2.46 32.385 3.1875 31.6425 3.855C31.26 4.2 31.1775 4.5225 31.3425 4.995C31.545 5.565 32.3475 5.775 32.775 5.3475C33.54 4.59 34.2975 3.825 35.0625 3.06C35.6325 2.4975 36.165 2.61 36.45 3.36C36.9375 4.6575 36.9375 5.955 36.42 7.245C35.5125 9.5175 33.33 10.7475 30.7275 10.5075C30.3525 10.4775 29.865 10.545 29.6025 10.77C28.875 11.3925 28.23 12.1275 27.5625 12.81C28.245 13.5075 28.8975 14.25 29.625 14.895C29.865 15.105 30.33 15.195 30.6675 15.15C34.5825 14.625 37.575 17.9775 36.6 21.8175C36.57 21.9525 36.5325 22.1025 36.57 22.23C36.9075 23.46 37.26 24.6825 37.6125 25.92C38.7975 25.125 38.7975 25.125 40.275 25.125C40.65 25.125 41.025 25.1175 41.4 25.125C42.54 25.1475 43.5075 25.965 43.68 27.0375C43.8675 28.2225 43.215 29.3175 42.0825 29.685C41.955 29.73 41.8275 29.76 41.6625 29.8125C41.7375 29.91 41.775 29.97 41.82 30.03C42.6225 30.9225 43.0725 31.9575 43.14 33.1575C43.245 35.0475 43.335 36.93 43.4625 38.8125C43.4775 39.0075 43.6125 39.24 43.77 39.375C44.1675 39.7125 44.385 40.125 44.4 40.635C44.415 41.43 44.43 42.225 44.4 43.0275C44.3625 43.8975 43.77 44.505 42.9375 44.565C42.315 44.61 42.315 44.61 42.315 45.255C42.315 45.345 42.3075 45.4425 42.315 45.5325C42.4275 46.7475 41.94 47.58 40.785 48.0075C38.94 48.0075 37.095 48.0075 35.25 48.0075C33.6 47.4 33.675 46.005 33.7725 44.5725C33.5475 44.5725 33.375 44.5725 33.21 44.5725C31.9425 44.5725 30.6825 44.5725 29.415 44.5725C28.665 44.5725 27.915 44.58 27.165 44.565C26.7 44.5575 26.4375 44.2875 26.43 43.8825C26.4225 43.4775 26.685 43.2075 27.1425 43.17C27.345 43.155 27.5475 43.1625 27.75 43.1625C28.1175 43.1625 28.485 43.1625 28.8525 43.1625C28.8525 42.2325 28.8525 41.385 28.8525 40.515C25.605 40.515 22.38 40.515 19.1625 40.515C19.1625 41.4075 19.1625 42.2775 19.1625 43.1625C20.6175 43.1625 22.0425 43.1625 23.46 43.1625C23.6475 43.1625 23.835 43.1625 24.015 43.2075C24.3675 43.29 24.5475 43.545 24.5325 43.89C24.5175 44.2575 24.3075 44.505 23.925 44.55C23.7525 44.5725 23.58 44.565 23.4075 44.565C20.55 44.565 17.6925 44.565 14.835 44.565C14.655 44.565 14.4675 44.565 14.2425 44.565C14.2425 44.8875 14.25 45.15 14.2425 45.4125C14.235 45.7575 14.25 46.1025 14.19 46.44C14.055 47.25 13.4625 47.685 12.75 48C10.905 48 9.05997 48 7.21497 48C6.05997 47.58 5.56497 46.74 5.67747 45.5325C5.69247 45.36 5.66247 45.1875 5.68497 45.015C5.72247 44.6775 5.60997 44.5575 5.24997 44.55C4.20747 44.535 3.60747 43.9125 3.58497 42.8775C3.56997 42.1725 3.58497 41.475 3.58497 40.77C3.58497 40.23 3.73497 39.735 4.19247 39.42C4.43997 39.2475 4.52997 39.0525 4.54497 38.7675C4.64247 36.8625 4.73997 34.965 4.85247 33.06C4.91997 31.9275 5.36247 30.945 6.09747 30.0975C6.17247 30.015 6.23247 29.9175 6.30747 29.7975C6.19497 29.76 6.14247 29.745 6.08247 29.73C4.83747 29.3925 4.13247 28.35 4.29747 27.09C4.44747 25.965 5.44497 25.1325 6.67497 25.125C7.03497 25.125 7.39497 25.14 7.75497 25.125C8.71497 25.08 9.63747 25.155 10.35 26.0025C10.725 24.6975 11.0775 23.4675 11.415 22.245C11.4525 22.1175 11.415 21.9675 11.385 21.8325C10.4025 17.9925 13.41 14.6325 17.3175 15.1575C17.655 15.2025 18.12 15.12 18.36 14.91C19.0875 14.2575 19.74 13.5225 20.46 12.7725C19.98 12.3 19.44 11.8425 18.99 11.31C18.405 10.62 17.745 10.4325 16.8375 10.5225C13.0125 10.905 10.0875 6.9 11.55 3.3375C11.8425 2.625 12.3675 2.52 12.9225 3.0675C13.635 3.7725 14.3625 4.455 15.03 5.1975C15.375 5.5725 15.6825 5.6775 16.1625 5.49C16.695 5.2875 16.9425 4.485 16.545 4.0875C15.7725 3.315 15 2.5425 14.2275 1.77C13.65 1.1925 13.7625 0.675 14.535 0.39C14.97 0.2175 15.4125 0.12 15.8475 0ZM42.0675 39.0525C41.955 37.0425 41.8725 35.0775 41.73 33.12C41.61 31.4925 40.47 30.2025 38.865 29.9025C38.1375 29.7675 37.3725 29.82 36.6225 29.8125C35.4375 29.7975 34.245 29.8125 33.06 29.805C32.52 29.805 32.19 29.5275 32.1825 29.1C32.175 28.665 32.4975 28.41 33.0525 28.4025C33.3075 28.4025 33.57 28.4025 33.8325 28.4025C33.8325 28.29 33.84 28.245 33.8325 28.2C33.33 26.415 32.82 24.63 32.3175 22.845C32.2125 22.4625 31.95 22.3425 31.5825 22.3425C26.535 22.35 21.4875 22.35 16.44 22.3425C15.99 22.3425 15.765 22.5225 15.645 22.9575C15.315 24.21 14.9475 25.4475 14.595 26.6925C14.4375 27.24 14.28 27.795 14.1075 28.4025C14.355 28.4025 14.5425 28.4025 14.7225 28.4025C18.66 28.4025 22.5975 28.4025 26.535 28.4025C27.5475 28.4025 28.5675 28.395 29.58 28.41C30.0075 28.4175 30.27 28.68 30.285 29.0625C30.3 29.445 30.06 29.7375 29.6475 29.7975C29.475 29.82 29.3025 29.8125 29.13 29.8125C22.74 29.8125 16.35 29.8125 9.95997 29.8125C7.92747 29.8125 6.40497 31.1775 6.24747 33.21C6.10497 35.1075 6.03747 37.0125 5.93997 38.9175C5.93997 38.955 5.96997 39 5.99247 39.06C18 39.0525 29.9925 39.0525 42.0675 39.0525ZM36.855 28.3575C36.225 26.16 35.64 23.9925 34.98 21.8475C34.53 20.4075 33.1875 19.5 31.65 19.5C26.5575 19.4925 21.465 19.4925 16.3725 19.5C14.7225 19.5 13.41 20.5125 12.9375 22.1025C12.6975 22.9125 12.4725 23.7225 12.2475 24.5325C11.8875 25.8075 11.5275 27.075 11.16 28.38C11.685 28.38 12.1575 28.38 12.6525 28.38C12.6975 28.2525 12.735 28.1325 12.7725 28.0125C13.2975 26.1675 13.8225 24.3225 14.3475 22.4775C14.64 21.465 15.2775 20.94 16.32 20.94C21.4425 20.925 26.5725 20.9325 31.695 20.94C32.745 20.94 33.39 21.4575 33.675 22.4625C34.125 24.0375 34.5675 25.6125 35.0175 27.1875C35.3775 28.4625 35.385 28.4625 36.72 28.395C36.7425 28.3875 36.7725 28.3725 36.855 28.3575ZM12.63 4.7325C12.615 5.0625 12.5925 5.2425 12.6 5.43C12.735 7.755 14.6325 9.3825 16.9425 9.105C18.0975 8.9625 19.02 9.2775 19.8 10.1325C20.3325 10.7175 20.9175 11.265 21.3975 11.745C21.93 11.2275 22.425 10.7475 22.95 10.2375C22.365 9.66 21.7575 9.0525 21.1425 8.46C20.4 7.7475 20.13 6.885 20.28 5.865C20.55 4.005 19.5075 2.265 17.7525 1.65C17.1975 1.455 16.6275 1.3425 15.9375 1.485C16.6575 2.205 17.3175 2.865 17.985 3.51C18.2625 3.78 18.3525 4.08 18.255 4.44C18.1125 4.965 17.9625 5.49 17.8275 6.0225C17.7375 6.3825 17.5125 6.5775 17.16 6.66C16.6725 6.78 16.185 6.8925 15.7125 7.05C15.2625 7.2 14.94 7.08 14.625 6.75C14.01 6.0975 13.365 5.4675 12.63 4.7325ZM17.6925 40.5225C17.625 40.5075 17.58 40.485 17.5425 40.485C13.485 40.485 9.41997 40.485 5.36247 40.4775C5.06247 40.4775 4.98747 40.6125 4.99497 40.875C5.00247 41.4525 5.02497 42.03 4.98747 42.6075C4.96497 43.035 5.09997 43.17 5.53497 43.17C9.43497 43.155 13.3425 43.1625 17.25 43.1625C17.4 43.1625 17.55 43.1475 17.7 43.1325C17.6925 42.225 17.6925 41.3775 17.6925 40.5225ZM30.315 43.155C30.5325 43.155 30.7125 43.155 30.9 43.155C34.32 43.155 37.74 43.155 41.16 43.155C41.625 43.155 42.0975 43.14 42.5625 43.1625C42.915 43.1775 43.0275 43.0425 43.02 42.6975C42.9975 42.15 42.9825 41.6025 43.0275 41.0625C43.065 40.575 42.885 40.4625 42.42 40.47C38.565 40.485 34.71 40.4775 30.8475 40.4775C30.6825 40.4775 30.51 40.4775 30.315 40.4775C30.315 41.3775 30.315 42.225 30.315 43.155ZM35.3325 19.7025C35.3175 19.575 35.325 19.515 35.31 19.455C34.83 17.475 32.9325 16.215 30.915 16.5375C29.985 16.6875 29.1825 16.4325 28.5075 15.7875C28.08 15.375 27.6525 14.9625 27.2475 14.5275C27.015 14.28 26.8275 13.995 26.6475 13.7625C26.025 14.3775 25.545 14.8575 25.0275 15.3675C25.56 15.8925 26.1075 16.425 26.6475 16.965C27.0075 17.325 27.3 17.8575 27.7425 18.03C28.215 18.2175 28.8225 18.075 29.3625 18.075C29.985 18.075 30.615 18.0975 31.2375 18.0675C32.82 18.015 34.1775 18.5325 35.3325 19.7025ZM9.50997 28.38C9.50997 28.1025 9.51747 27.855 9.50997 27.615C9.47997 26.9025 9.10497 26.535 8.38497 26.5275C7.80747 26.52 7.22997 26.52 6.65247 26.5275C6.11247 26.535 5.74497 26.8725 5.69997 27.36C5.65497 27.885 5.97747 28.3425 6.51747 28.365C7.49247 28.41 8.47497 28.38 9.50997 28.38ZM38.5275 28.3725C39.54 28.3725 40.5375 28.41 41.5275 28.3575C42.045 28.335 42.345 27.8775 42.3075 27.3675C42.27 26.895 41.9175 26.5425 41.415 26.5275C40.7625 26.5125 40.1025 26.5125 39.45 26.5275C38.985 26.5425 38.595 26.8725 38.5425 27.315C38.49 27.6525 38.5275 27.9975 38.5275 28.3725ZM22.4175 18.0525C23.46 18.0525 24.555 18.0525 25.5825 18.0525C25.0575 17.5125 24.5175 16.965 24.015 16.455C23.49 16.98 22.95 17.52 22.4175 18.0525ZM10.455 46.5825C10.455 45.9 10.455 45.2625 10.455 44.6025C10.1175 44.6025 9.80247 44.6025 9.49497 44.6025C9.49497 45.285 9.49497 45.93 9.49497 46.5825C9.82497 46.5825 10.125 46.5825 10.455 46.5825ZM37.5525 44.5875C37.5525 45.2775 37.5525 45.915 37.5525 46.5525C37.8975 46.5525 38.2125 46.5525 38.52 46.5525C38.52 45.885 38.52 45.2475 38.52 44.5875C38.19 44.5875 37.89 44.5875 37.5525 44.5875ZM7.14747 44.565C7.11747 44.6775 7.10247 44.7225 7.10247 44.7675C7.09497 45.1125 7.09497 45.45 7.09497 45.795C7.10247 46.4925 7.31247 46.665 8.02497 46.545C8.02497 45.9 8.02497 45.255 8.02497 44.5875C7.88997 44.58 7.78497 44.565 7.67997 44.565C7.51497 44.5575 7.34247 44.565 7.14747 44.565ZM39.975 46.5525C40.575 46.6275 40.86 46.5075 40.89 46.11C40.9275 45.615 40.8975 45.12 40.8975 44.595C40.575 44.595 40.29 44.595 39.975 44.595C39.975 45.2625 39.975 45.9075 39.975 46.5525ZM11.8875 46.5525C12.54 46.62 12.81 46.4775 12.8325 46.035C12.8625 45.5625 12.84 45.0825 12.84 44.5875C12.5025 44.5875 12.2175 44.5875 11.9175 44.5875C11.9025 44.6925 11.8875 44.7675 11.8875 44.8425C11.8875 45.405 11.8875 45.9675 11.8875 46.5525ZM36.0975 44.595C35.7825 44.595 35.4825 44.595 35.1825 44.595C35.1675 44.6775 35.16 44.7225 35.16 44.7675C35.16 45.1125 35.1525 45.45 35.16 45.795C35.1675 46.4775 35.4075 46.665 36.0975 46.53C36.0975 45.915 36.0975 45.2925 36.0975 44.595Z" fill="#312A05"/>
<path d="M24.0074 31.7026C25.7099 31.7026 27.4124 31.7026 29.1149 31.7026C29.8724 31.7026 30.1049 31.9276 30.0974 32.6701C30.0899 33.2926 30.1199 33.9301 30.0149 34.5376C29.6999 36.4351 28.1399 37.8226 26.2274 37.8826C24.7274 37.9276 23.2274 37.9351 21.7274 37.8826C19.6574 37.8076 17.9774 36.0526 17.9099 33.9826C17.8949 33.5326 17.9024 33.0751 17.9024 32.6251C17.9024 31.9426 18.1424 31.7101 18.8399 31.7101C20.5649 31.6951 22.2824 31.7026 24.0074 31.7026ZM19.3499 33.1201C19.0424 35.1826 20.4674 36.6001 22.3199 36.5101C23.5799 36.4426 24.8474 36.5251 26.1074 36.4801C27.8399 36.4201 29.0174 34.8301 28.6199 33.1201C25.5449 33.1201 22.4624 33.1201 19.3499 33.1201Z" fill="#312A05"/>
<path d="M13.44 37.5C12.5775 37.5 11.7225 37.5075 10.86 37.5C9.34497 37.4775 8.22747 36.39 8.17497 34.8825C8.15247 34.1925 8.15997 33.51 8.17497 32.82C8.18247 32.2275 8.44497 31.98 9.05247 31.98C11.3925 31.98 13.74 31.98 16.08 31.98C16.7175 31.98 16.965 32.2275 16.965 32.85C16.9725 34.1175 16.9725 35.3775 16.965 36.645C16.965 37.245 16.71 37.5 16.11 37.5C15.2175 37.5075 14.3325 37.5 13.44 37.5ZM15.525 36.0825C15.525 35.16 15.525 34.2825 15.525 33.4125C14.4375 33.4125 13.3875 33.4125 12.3375 33.4125C12.3375 34.32 12.3375 35.1975 12.3375 36.0825C13.4175 36.0825 14.46 36.0825 15.525 36.0825ZM10.8675 33.42C10.4475 33.42 10.0275 33.42 9.58497 33.42C9.58497 33.9375 9.56997 34.425 9.58497 34.905C9.60747 35.58 10.2225 36.1575 10.8675 36.06C10.8675 35.19 10.8675 34.32 10.8675 33.42Z" fill="#312A05"/>
<path d="M34.5675 37.4999C33.675 37.4999 32.79 37.5074 31.8975 37.4999C31.29 37.4924 31.035 37.2449 31.035 36.6449C31.0275 35.3624 31.0275 34.0799 31.035 32.8049C31.035 32.2349 31.2975 31.9724 31.8675 31.9724C34.245 31.9649 36.615 31.9649 38.9925 31.9724C39.5625 31.9724 39.8175 32.2349 39.825 32.8049C39.8325 33.4949 39.8475 34.1774 39.825 34.8674C39.78 36.3824 38.655 37.4699 37.1475 37.4924C36.2925 37.5074 35.43 37.4999 34.5675 37.4999ZM32.46 36.0674C33.5475 36.0674 34.605 36.0674 35.67 36.0674C35.67 35.1674 35.67 34.2899 35.67 33.4049C34.5825 33.4049 33.5325 33.4049 32.46 33.4049C32.46 34.2974 32.46 35.1599 32.46 36.0674ZM37.11 33.3899C37.11 33.8699 37.11 34.3049 37.11 34.7399C37.11 35.1824 37.11 35.6324 37.11 36.0749C38.445 35.9999 38.5725 34.9649 38.3475 33.3899C37.9575 33.3899 37.575 33.3899 37.11 33.3899Z" fill="#312A05"/>
<path d="M24 34.0275C24.495 34.0275 24.9975 34.02 25.4925 34.0275C25.9275 34.035 26.2275 34.3125 26.2425 34.695C26.2575 35.0775 25.9725 35.4075 25.5375 35.415C24.51 35.4375 23.4825 35.4375 22.455 35.415C22.0275 35.4075 21.7425 35.0775 21.7575 34.695C21.7725 34.3125 22.0725 34.035 22.5075 34.0275C23.01 34.02 23.505 34.0275 24 34.0275Z" fill="#312A05"/>
</g>
<defs>
<clipPath id="clip0_2_219">
<rect width="48" height="48" fill="white"/>
</clipPath>
</defs>
</svg>
