<svg xmlns="http://www.w3.org/2000/svg" width="41" height="40" fill="none"><g clip-path="url(#a)"><path fill="#D80027" d="M20.415 40c10.941 0 19.811-8.954 19.811-20S31.356 0 20.415 0C9.473 0 .604 8.954.604 20s8.87 20 19.81 20Z"/><path fill="#FFDA44" d="m11.446 12.172 1.71 5.312h5.533l-4.473 3.29 1.71 5.312-4.48-3.281-4.48 3.28 1.717-5.312-4.48-3.289h5.533l1.71-5.312ZM24.091 30.977l-1.308-1.625-1.934.757 1.122-1.757-1.308-1.633 2.004.539 1.13-1.758.108 2.094 2.012.539-1.942.75.116 2.094ZM26.691 26.21l.62-2L25.615 23l2.074-.031.61-2 .674 1.984 2.074-.023-1.664 1.25.666 1.984-1.695-1.21-1.664 1.257ZM30.197 14.68l-.913 1.883 1.486 1.46-2.051-.296-.913 1.875-.356-2.063-2.059-.297 1.842-.976-.356-2.07 1.486 1.46 1.834-.976ZM24.145 8.977l-.154 2.085 1.926.79-2.02.5-.146 2.093-1.092-1.78-2.02.5 1.34-1.602-1.1-1.774 1.927.79 1.34-1.602Z"/></g><defs><clipPath id="a"><path fill="#fff" d="M.604 0h39.623v40H.604z"/></clipPath></defs></svg>