<svg width="49" height="45" viewBox="0 0 49 45" fill="none" xmlns="http://www.w3.org/2000/svg">
<g clip-path="url(#clip0_234_811)">
<path d="M42.1201 25.9531L45.1325 22.9248C50.3162 17.704 47.7515 10.6334 43.572 6.09775C42.2015 4.60415 40.6274 3.30238 38.9991 2.38429C36.8822 1.17844 30.2331 -0.575514 25.8772 3.69976L16.8534 12.771C14.4109 15.2238 20.5715 17.5944 23.6789 14.4976L25.9586 12.2366C29.3239 9.16718 33.5441 15.3197 38.7955 11.1267" stroke="#495053" stroke-width="2" stroke-linecap="round" stroke-linejoin="round"/>
<path d="M6.98849 24.5143L3.98959 21.486C-6.02481 11.4007 11.3172 -5.9196 21.4673 4.05604L23.4892 6.08405" stroke="#495053" stroke-width="2" stroke-linecap="round" stroke-linejoin="round"/>
<path d="M30.7488 14.429L42.378 26.7342C44.7527 29.2418 41.2245 34.0241 38.1849 30.8587L32.7299 25.1857" stroke="#495053" stroke-width="2" stroke-linecap="round" stroke-linejoin="round"/>
<path d="M27.9807 29.0088L33.9649 35.2162C36.3668 37.7101 41.2111 34.0241 38.1715 30.8587L32.323 24.761" stroke="#495053" stroke-width="2" stroke-linecap="round" stroke-linejoin="round"/>
<path d="M26.1624 35.8739L29.1477 38.916C31.5631 41.3825 36.2717 37.8608 33.2457 34.6544" stroke="#495053" stroke-width="2" stroke-linecap="round" stroke-linejoin="round"/>
<path d="M14.1125 22.0204L14.4382 22.3493C15.5237 23.4455 15.5102 25.2269 14.4382 26.3231L10.2994 30.5024C9.22741 31.585 7.44979 31.5987 6.36422 30.5024L6.03854 30.1736C4.95297 29.0774 4.95297 27.296 6.03854 26.1998L10.1773 22.0204C11.2629 20.9242 13.0269 20.9242 14.1125 22.0204Z" stroke="#495053" stroke-width="2" stroke-miterlimit="22.93"/>
<path d="M21.0872 23.9388L21.4129 24.2677C22.4984 25.3639 22.4849 27.1453 21.4129 28.2415L14.818 34.901C13.746 35.9836 11.9684 35.9836 10.8828 34.901L10.5571 34.5722C9.48514 33.4897 9.47157 31.6946 10.5571 30.5984L17.152 23.9388C18.2376 22.8426 20.0016 22.8426 21.0872 23.9388V23.9388Z" stroke="#495053" stroke-width="2" stroke-miterlimit="22.93"/>
<path d="M23.7739 30.1599L24.0996 30.4887C25.1852 31.585 25.1852 33.3663 24.0996 34.4626L19.5809 39.0256C18.4953 40.1218 16.7313 40.1218 15.6457 39.0256L15.32 38.6967C14.2345 37.6005 14.2345 35.8191 15.32 34.7229L19.8387 30.1599C20.9243 29.0637 22.6884 29.0637 23.7739 30.1599V30.1599Z" stroke="#495053" stroke-width="2" stroke-miterlimit="22.93"/>
<path d="M26.6779 36.0932L27.0036 36.422C28.0892 37.5183 28.0756 39.2996 27.0036 40.3959L24.2218 43.2049C23.1498 44.2875 21.3722 44.2875 20.2866 43.2049L19.961 42.8761C18.889 41.7935 18.8754 39.9985 19.961 38.9023L22.7427 36.0932C23.8283 34.997 25.5924 34.997 26.6779 36.0932V36.0932Z" stroke="#495053" stroke-width="2" stroke-miterlimit="22.93"/>
</g>
<defs>
<clipPath id="clip0_234_811">
<rect width="49" height="45" fill="white"/>
</clipPath>
</defs>
</svg>
