<svg width="18" height="18" viewBox="0 0 18 18" xmlns="http://www.w3.org/2000/svg">
<path fill-rule="evenodd" clip-rule="evenodd" d="M17.4853 0.5147C17.6728 0.702237 17.7782 0.956591 17.7782 1.22181C17.7782 1.48702 17.6728 1.74138 17.4853 1.92891L10.4142 8.99998L17.4853 16.071C17.6728 16.2586 17.7782 16.5129 17.7782 16.7782C17.7782 17.0434 17.6728 17.2977 17.4853 17.4853C17.2977 17.6728 17.0434 17.7782 16.7782 17.7782C16.513 17.7782 16.2586 17.6728 16.0711 17.4853L9 10.4142L1.92893 17.4853C1.7414 17.6728 1.48704 17.7782 1.22183 17.7782C0.956609 17.7782 0.702255 17.6728 0.514719 17.4853C0.327182 17.2977 0.221825 17.0434 0.221825 16.7782C0.221825 16.5129 0.327182 16.2586 0.514719 16.071L7.58579 8.99998L0.514719 1.92891C0.327182 1.74138 0.221825 1.48702 0.221825 1.22181C0.221825 0.956591 0.327182 0.702237 0.514719 0.5147C0.702255 0.327164 0.956609 0.221807 1.22183 0.221807C1.48704 0.221807 1.7414 0.327164 1.92893 0.5147L9 7.58577L16.0711 0.5147C16.2586 0.327164 16.513 0.221807 16.7782 0.221807C17.0434 0.221807 17.2977 0.327164 17.4853 0.5147Z" />
</svg>
