<svg width="101" height="101" viewBox="0 0 101 101" fill="none" xmlns="http://www.w3.org/2000/svg">
<path d="M63.3169 3.21997C62.5632 3.21997 61.7869 3.31747 61.0119 3.50872L61.6082 5.93497C66.3344 4.77497 70.4557 8.37122 70.4557 12.86C70.4557 23.3737 58.4832 31.1225 53.4919 32.5812L54.1932 34.9812C60.5332 33.1275 72.9569 24.4712 72.9582 12.86C72.9582 7.54372 68.6332 3.21997 63.3169 3.21997Z" fill="black"/>
<path d="M9.54074 12.86C9.54074 8.37123 13.6607 4.76998 18.3882 5.93623L18.987 3.50873C12.732 1.97123 7.04199 6.79123 7.04199 12.86C7.04199 24.4725 19.467 33.1287 25.8045 34.9812L26.5057 32.5812C21.5132 31.1212 9.54074 23.3737 9.54074 12.86Z" fill="black"/>
<path d="M44.3343 46.5312H35.6643C34.9743 46.5312 34.4143 47.09 34.4143 47.7812V52.525C34.4143 52.9013 34.5856 53.26 34.8793 53.4975C35.1031 53.6788 35.3806 53.775 35.6643 53.775C35.7518 53.775 35.8406 53.765 35.9281 53.7463C38.5031 53.19 41.4968 53.19 44.0706 53.7463C44.4406 53.8238 44.8256 53.7338 45.1193 53.4975C45.4131 53.26 45.5843 52.9038 45.5843 52.525V47.7812C45.5843 47.09 45.0256 46.5312 44.3343 46.5312ZM43.0843 51.035C41.0818 50.7588 38.9168 50.7575 36.9143 51.0363V49.0312V49.03H43.0843V51.035Z" fill="black"/>
<path d="M56.8707 72.8824H23.1282C22.4382 72.8824 21.8782 73.4412 21.8782 74.1324V78.7499C21.8782 79.4412 22.4382 79.9999 23.1282 79.9999H56.8707C57.5619 79.9999 58.1207 79.4412 58.1207 78.7499V74.1324C58.1207 73.4412 57.5619 72.8824 56.8707 72.8824ZM55.6207 77.4999H24.3782V75.3824H55.6207V77.4999Z" fill="black"/>
<path d="M54.707 55.2712H25.292C24.602 55.2712 24.042 55.83 24.042 56.5212V74.1325C24.042 74.8237 24.602 75.3825 25.292 75.3825H54.707C55.397 75.3825 55.957 74.8225 55.957 74.1325V56.5212C55.957 55.83 55.3982 55.2712 54.707 55.2712ZM53.457 72.8825H26.542V57.7712H53.457V72.8825Z" fill="black"/>
<path d="M49.7082 60.27H30.292C29.602 60.27 29.042 60.8288 29.042 61.52V69.1313C29.042 69.8225 29.602 70.3813 30.292 70.3813H49.7082C50.3982 70.3813 50.9582 69.8213 50.9582 69.1313V61.52C50.9582 60.8288 50.3995 60.27 49.7082 60.27ZM48.4582 67.8813H31.542V62.77H48.4582V67.8813Z" fill="black"/>
<path d="M62.0295 0.62875C61.6295 0.22375 61.097 0 60.5295 0H19.4707C18.9057 0 18.3732 0.2225 17.9732 0.625C17.5732 1.02875 17.3545 1.5625 17.357 2.13C17.3657 2.98125 17.3995 3.81875 17.4382 4.7725C17.4695 5.5425 17.5132 6.305 17.5645 7.06375C18.1882 16.3213 20.2507 24.78 23.5307 31.5263C24.0132 32.5188 24.5345 33.4913 25.0782 34.4138C27.5832 38.6675 30.452 41.7187 33.6082 43.485C33.9395 43.67 34.3332 43.6938 34.6782 43.5563C34.9682 43.5663 35.2957 43.5663 35.6632 43.5663H45.3407C45.482 43.6188 45.6307 43.645 45.7795 43.645C45.9895 43.645 46.1995 43.5925 46.3907 43.4863C49.5457 41.7213 52.4157 38.6687 54.9207 34.415C55.4607 33.4937 55.9807 32.5225 56.4657 31.5287C59.7482 24.7787 61.8107 16.3187 62.4332 7.065C62.4832 6.30625 62.527 5.54625 62.5582 4.77C62.5945 3.89625 62.6295 3.02125 62.6382 2.13625C62.6457 1.56875 62.4295 1.03375 62.0295 0.62875ZM60.0607 4.67C60.0282 5.41875 59.9882 6.15875 59.9382 6.89625C59.3382 15.8325 57.3595 23.9713 54.217 30.4338C53.762 31.3688 53.2732 32.2825 52.7657 33.1463C50.6332 36.7675 48.1557 39.495 45.577 41.065H35.6645C35.667 41.0663 34.8245 41.065 34.4232 41.065C31.8432 39.4938 29.3657 36.7675 27.2345 33.145C26.7245 32.2788 26.2357 31.3675 25.782 30.4338C22.6407 23.9737 20.6632 15.835 20.0607 6.89625C20.012 6.16 19.9695 5.41875 19.9345 4.5575C19.907 3.87375 19.8782 3.19 19.8657 2.5H60.132C60.1195 3.22875 60.0895 3.94875 60.0607 4.67Z" fill="black"/>
<path d="M55.0168 5.41248C54.9968 5.80498 54.9743 6.17498 54.9493 6.54123C54.4281 14.2862 52.6656 21.5862 49.9856 27.0962C49.6106 27.8662 49.2031 28.6287 48.7743 29.3587C47.2931 31.8737 45.6331 33.8262 43.9756 35.0062L45.4256 37.0437C47.3681 35.6612 49.2693 33.4425 50.9293 30.6275C51.3918 29.8387 51.8318 29.0187 52.2343 28.19C55.0506 22.3962 56.9006 14.7675 57.4443 6.70623C57.4693 6.32498 57.4918 5.94623 57.5143 5.54248L55.0168 5.41248Z" fill="black"/>
<path d="M44.3344 41.0663H35.6082C33.5044 41.0663 33.2957 45.145 33.2957 45.1863C33.2957 45.225 33.5407 49.0325 35.6644 49.0325H44.3919C46.4594 49.0325 46.7044 45.225 46.7044 45.1863C46.7044 45.145 46.4957 41.0663 44.3344 41.0663ZM43.8782 46.5325H36.1207C35.9582 46.1225 35.7994 45.4413 35.7944 45.1875C35.7982 44.8838 35.9794 44.0488 36.1582 43.5663H43.8407C44.0207 44.0488 44.2007 44.8838 44.2044 45.185C44.2007 45.4413 44.0407 46.1238 43.8782 46.5325Z" fill="black"/>
<path d="M44.5981 51.3025C41.6781 50.6737 38.3219 50.6712 35.4006 51.3025C31.2594 52.1987 28.7869 54.15 28.7869 56.52C28.7869 57.2112 29.3469 57.77 30.0369 57.77H49.9619C50.6519 57.77 51.2119 57.2112 51.2119 56.52C51.2119 54.1487 48.7394 52.1987 44.5981 51.3025ZM32.1694 55.27C32.9419 54.6887 34.2094 54.1187 35.9281 53.7462C38.5044 53.19 41.4981 53.19 44.0694 53.7462C45.7894 54.1187 47.0569 54.6887 47.8294 55.27H32.1694Z" fill="black"/>
</svg>
