<svg width="80" height="80" viewBox="0 0 80 80" fill="none" xmlns="http://www.w3.org/2000/svg">
<path d="M69.8752 32.4131L65.2083 23.1439C65.1138 22.9509 64.9661 22.7885 64.7822 22.6756C64.5984 22.5628 64.386 22.5042 64.1699 22.5067H63.2832L62.1165 21.348H64.1699C64.4793 21.348 64.7761 21.226 64.9949 21.0087C65.2137 20.7914 65.3366 20.4967 65.3366 20.1894V15.5548C65.3366 15.2475 65.2137 14.9528 64.9949 14.7355C64.7761 14.5182 64.4793 14.3962 64.1699 14.3962H62.1165L63.5749 12.9595C63.7935 12.7407 63.9161 12.445 63.9161 12.1368C63.9161 11.8286 63.7935 11.5329 63.5749 11.3142L60.273 8.03522C60.0528 7.81815 59.755 7.69634 59.4447 7.69634C59.1343 7.69634 58.8366 7.81815 58.6163 8.03522L57.1696 9.48353V7.44431C57.1696 7.13702 57.0466 6.84231 56.8278 6.62503C56.609 6.40774 56.3123 6.28567 56.0028 6.28567H51.3359C51.0265 6.28567 50.7297 6.40774 50.5109 6.62503C50.2921 6.84231 50.1692 7.13702 50.1692 7.44431V9.48353L48.7225 8.03522C48.5022 7.81815 48.2044 7.69634 47.8941 7.69634C47.5837 7.69634 47.286 7.81815 47.0657 8.03522L43.7639 11.3142C43.5453 11.5329 43.4226 11.8286 43.4226 12.1368C43.4226 12.445 43.5453 12.7407 43.7639 12.9595L45.2223 14.3962H43.1688C42.8594 14.3962 42.5626 14.5182 42.3438 14.7355C42.125 14.9528 42.0021 15.2475 42.0021 15.5548V20.1894C42.0021 20.4967 42.125 20.7914 42.3438 21.0087C42.5626 21.226 42.8594 21.348 43.1688 21.348H45.2223L44.0556 22.5067H37.3352V20.1083C37.3335 19.6256 37.4345 19.148 37.6316 18.7067C37.8286 18.2655 38.1172 17.8705 38.4786 17.5477C39.814 16.3694 40.8246 14.8723 41.4148 13.1981C42.0051 11.5238 42.1554 9.72761 41.8517 7.97951C41.548 6.2314 40.8003 4.58913 39.6792 3.20804C38.5582 1.82696 37.1008 0.75271 35.4451 0.0869204C35.2675 0.0144334 35.0745 -0.0133713 34.8834 0.00597479C34.6923 0.0253209 34.509 0.0912191 34.3497 0.19782C34.1904 0.304421 34.0601 0.448426 33.9703 0.617053C33.8806 0.78568 33.8341 0.973713 33.835 1.16446V9.13593L31.5016 10.6885L29.1681 9.13593V1.16446C29.1691 0.973713 29.1226 0.78568 29.0328 0.617053C28.9431 0.448426 28.8127 0.304421 28.6535 0.19782C28.4942 0.0912191 28.3108 0.0253209 28.1198 0.00597479C27.9287 -0.0133713 27.7357 0.0144334 27.5581 0.0869204C25.9023 0.75271 24.445 1.82696 23.324 3.20804C22.2029 4.58913 21.4551 6.2314 21.1514 7.97951C20.8477 9.72761 20.9981 11.5238 21.5884 13.1981C22.1786 14.8723 23.1892 16.3694 24.5246 17.5477C24.8859 17.8705 25.1746 18.2655 25.3716 18.7067C25.5686 19.148 25.6696 19.6256 25.668 20.1083V22.5067H24.5012C24.2851 22.5042 24.0728 22.5628 23.8889 22.6756C23.7051 22.7885 23.5573 22.9509 23.4629 23.1439L18.7959 32.4131C18.7064 32.5895 18.6638 32.7856 18.6722 32.983C18.6805 33.1803 18.7395 33.3723 18.8435 33.5406C18.9475 33.7089 19.0932 33.848 19.2666 33.9448C19.44 34.0415 19.6354 34.0925 19.8343 34.0931H23.3345V48.2518L21.0011 48.8311V46.8382C21.0011 46.5309 20.8781 46.2362 20.6593 46.0189C20.4405 45.8016 20.1438 45.6796 19.8343 45.6796H10.5005C10.1911 45.6796 9.89433 45.8016 9.67553 46.0189C9.45673 46.2362 9.3338 46.5309 9.3338 46.8382V47.9969H1.16673C0.857291 47.9969 0.560529 48.1189 0.341726 48.3362C0.122922 48.5535 0 48.8482 0 49.1555V65.3765C0 65.6838 0.122922 65.9785 0.341726 66.1958C0.560529 66.4131 0.857291 66.5352 1.16673 66.5352H9.3338V67.6938C9.3338 68.0011 9.45673 68.2958 9.67553 68.5131C9.89433 68.7304 10.1911 68.8525 10.5005 68.8525H19.8343C20.1438 68.8525 20.4405 68.7304 20.6593 68.5131C20.8781 68.2958 21.0011 68.0011 21.0011 67.6938V66.0949L22.5061 66.8364C23.6408 67.3973 24.8905 67.6907 26.158 67.6938H43.6239C45.0582 67.6969 46.4676 67.321 47.7074 66.6047L67.3084 55.3658C68.1704 54.872 68.8505 54.117 69.2491 53.2114C69.6477 52.3059 69.7438 51.2974 69.5234 50.3336C69.3029 49.3699 68.7775 48.5016 68.0241 47.8559C67.2707 47.2102 66.3289 46.8211 65.3366 46.7455V34.0931H68.8368C69.0357 34.0925 69.2311 34.0415 69.4045 33.9448C69.5779 33.848 69.7236 33.7089 69.8276 33.5406C69.9317 33.3723 69.9907 33.1803 69.999 32.983C70.0073 32.7856 69.9647 32.5895 69.8752 32.4131ZM9.3338 64.2179H2.33345V50.3142H9.3338V64.2179ZM18.6676 66.5352H11.6673V47.9969H18.6676V66.5352ZM44.3356 19.0308V16.7135H47.0774C47.328 16.7127 47.5718 16.6325 47.7733 16.4846C47.9747 16.3366 48.1233 16.1286 48.1974 15.8908C48.2485 15.7267 48.3149 15.5676 48.3958 15.4158C48.5107 15.1971 48.5522 14.9476 48.5145 14.7038C48.4767 14.46 48.3615 14.2345 48.1858 14.0602L46.2373 12.1368L47.8941 10.4915L49.8308 12.4265C50.0064 12.601 50.2334 12.7154 50.479 12.7529C50.7245 12.7904 50.9757 12.7491 51.1959 12.635C51.3488 12.5547 51.509 12.4887 51.6743 12.4381C51.9137 12.3645 52.1231 12.2169 52.2721 12.0168C52.4212 11.8167 52.5019 11.5746 52.5026 11.3258V8.60296H54.8361V11.3258C54.8368 11.5746 54.9176 11.8167 55.0666 12.0168C55.2156 12.2169 55.4251 12.3645 55.6645 12.4381C55.8298 12.4887 55.9899 12.5547 56.1428 12.635C56.3631 12.7491 56.6143 12.7904 56.8598 12.7529C57.1053 12.7154 57.3324 12.601 57.5079 12.4265L59.4447 10.4915L61.1014 12.1368L59.153 14.0602C58.9772 14.2345 58.8621 14.46 58.8243 14.7038C58.7865 14.9476 58.8281 15.1971 58.943 15.4158C59.0239 15.5676 59.0903 15.7267 59.1413 15.8908C59.2154 16.1286 59.364 16.3366 59.5655 16.4846C59.767 16.6325 60.0108 16.7127 60.2614 16.7135H63.0032V19.0308H60.2614C60.0108 19.0315 59.767 19.1117 59.5655 19.2597C59.364 19.4076 59.2154 19.6157 59.1413 19.8534C59.0903 20.0175 59.0239 20.1766 58.943 20.3284C58.8281 20.5472 58.7865 20.7966 58.8243 21.0404C58.8621 21.2842 58.9772 21.5097 59.153 21.6841L59.993 22.5067H47.3457L48.1858 21.6841C48.3615 21.5097 48.4767 21.2842 48.5145 21.0404C48.5522 20.7966 48.5107 20.5472 48.3958 20.3284C48.3149 20.1766 48.2485 20.0175 48.1974 19.8534C48.1233 19.6157 47.9747 19.4076 47.7733 19.2597C47.5718 19.1117 47.328 19.0315 47.0774 19.0308H44.3356ZM45.5023 28.578L47.9641 33.4559C48.0585 33.6489 48.2063 33.8113 48.3901 33.9242C48.574 34.037 48.7864 34.0956 49.0025 34.0931H63.0032V47.1626C62.8865 47.2206 62.7582 47.2785 62.6415 47.3364L51.2659 53.8596C50.6447 52.9353 49.7084 52.2646 48.6291 51.971L45.5023 51.1484V28.578ZM23.3345 9.7616C23.3316 8.45275 23.6486 7.16275 24.2582 6.00234C24.8679 4.84194 25.752 3.84578 26.8347 3.0994V9.7616C26.8357 9.95244 26.8841 10.1401 26.9757 10.3078C27.0673 10.4756 27.1992 10.6183 27.3597 10.7233L30.8599 13.0406C31.0482 13.1707 31.2722 13.2404 31.5016 13.2404C31.731 13.2404 31.955 13.1707 32.1433 13.0406L35.6435 10.7233C35.804 10.6183 35.9359 10.4756 36.0275 10.3078C36.119 10.1401 36.1675 9.95244 36.1685 9.7616V3.0994C37.1813 3.79941 38.0212 4.71822 38.6251 5.78682C39.229 6.85543 39.5813 8.04604 39.6554 9.26923C39.7295 10.4924 39.5235 11.7164 39.053 12.8492C38.5824 13.982 37.8595 14.9942 36.9385 15.8097C36.3259 16.3478 35.8362 17.0097 35.5022 17.7511C35.1681 18.4924 34.9975 19.2961 35.0018 20.1083V22.5067H32.6683V19.0308C32.6683 18.7235 32.5454 18.4288 32.3266 18.2115C32.1078 17.9942 31.811 17.8721 31.5016 17.8721C31.1922 17.8721 30.8954 17.9942 30.6766 18.2115C30.4578 18.4288 30.3349 18.7235 30.3349 19.0308V22.5067H28.0014V20.1083C28.0052 19.2973 27.8355 18.4948 27.5036 17.7537C27.1718 17.0127 26.6853 16.3501 26.0763 15.8097C25.2134 15.0524 24.5227 14.1215 24.05 13.0787C23.5772 12.0359 23.3334 10.9052 23.3345 9.7616ZM21.7244 31.7758L25.2246 24.824H42.4455L38.9453 31.7758H21.7244ZM43.1688 28.578V50.5227L31.2216 47.348C29.8819 46.9891 28.472 46.9771 27.1264 47.3133L25.668 47.6724V34.0931H39.6687C39.8848 34.0956 40.0971 34.037 40.281 33.9242C40.4648 33.8113 40.6126 33.6489 40.7071 33.4559L43.1688 28.578ZM66.9817 50.1983C67.2916 50.7286 67.3771 51.3593 67.2197 51.9522C67.0622 52.545 66.6746 53.0518 66.1417 53.3614L46.5407 64.6002C45.6543 65.1097 44.648 65.3775 43.6239 65.3765H26.158C25.2504 65.3784 24.3551 65.168 23.5445 64.7624L21.0011 63.4995V51.2179L27.6864 49.561C28.6484 49.3195 29.6568 49.3275 30.6149 49.5842L48.0224 54.2188C48.4703 54.3343 48.8732 54.5799 49.1795 54.9243C49.4859 55.2687 49.6817 55.696 49.7418 56.1516C49.802 56.6072 49.7238 57.0703 49.5172 57.4815C49.3107 57.8926 48.9852 58.2332 48.5825 58.4594C48.3195 58.6135 48.028 58.7134 47.7253 58.7532C47.4226 58.793 47.115 58.7719 46.8207 58.6911L32.9017 54.9835C32.6015 54.9036 32.2817 54.9454 32.0126 55.0997C31.7434 55.2539 31.547 55.5081 31.4666 55.8061C31.3861 56.1042 31.4282 56.4218 31.5836 56.6891C31.7389 56.9563 31.9948 57.1514 32.295 57.2313L46.214 60.9273C46.6097 61.0331 47.0176 61.0877 47.4274 61.0895C48.2437 61.0907 49.0454 60.8747 49.7492 60.4639C50.2824 60.1614 50.7499 59.7568 51.1244 59.2734C51.499 58.7901 51.7731 58.2378 51.931 57.6484C52.0604 57.1376 52.1037 56.6091 52.0593 56.0842L63.8082 49.3525C64.3443 49.057 64.9751 48.98 65.5673 49.1378C66.1595 49.2957 66.6667 49.6759 66.9817 50.1983ZM49.7258 31.7758L46.2257 24.824H63.4465L66.9467 31.7758H49.7258Z" fill="black"/>
<path d="M58.5246 18.3606C58.5246 17.4528 58.2554 16.5653 57.751 15.8105C57.2466 15.0556 56.5297 14.4673 55.691 14.1199C54.8522 13.7724 53.9293 13.6815 53.0389 13.8586C52.1485 14.0358 51.3306 14.4729 50.6887 15.1149C50.0467 15.7568 49.6096 16.5747 49.4324 17.4651C49.2553 18.3555 49.3462 19.2784 49.6936 20.1172C50.0411 20.9559 50.6294 21.6728 51.3842 22.1772C52.1391 22.6816 53.0266 22.9508 53.9344 22.9508C55.1518 22.9508 56.3193 22.4672 57.1801 21.6063C58.041 20.7455 58.5246 19.578 58.5246 18.3606ZM53.9344 20.6557C53.4805 20.6557 53.0367 20.5211 52.6593 20.2689C52.2819 20.0167 51.9877 19.6583 51.814 19.2389C51.6403 18.8195 51.5949 18.3581 51.6834 17.9129C51.772 17.4677 51.9906 17.0587 52.3115 16.7377C52.6325 16.4168 53.0415 16.1982 53.4867 16.1096C53.9319 16.0211 54.3933 16.0665 54.8127 16.2402C55.2321 16.4139 55.5905 16.7081 55.8427 17.0855C56.0949 17.463 56.2295 17.9067 56.2295 18.3606C56.2295 18.9693 55.9877 19.5531 55.5573 19.9835C55.1269 20.4139 54.5431 20.6557 53.9344 20.6557Z" fill="black"/>
</svg>
