<svg width="47" height="45" viewBox="0 0 47 45" fill="none" xmlns="http://www.w3.org/2000/svg">
<g clip-path="url(#clip0_234_657)">
<path d="M30.8133 11.511V42.4039C30.8133 43.283 30.0745 44.0247 29.1988 44.0247H2.59966C1.72397 44.0247 0.985107 43.2967 0.985107 42.4039V2.60989C0.985107 1.71704 1.71029 0.989014 2.59966 0.989014H20.3187" stroke="#495053" stroke-width="2" stroke-linecap="round" stroke-linejoin="round"/>
<path d="M30.8133 11.511H21.9333C21.0439 11.511 20.3187 10.783 20.3187 9.89011V0.989014L30.8133 11.511V11.511Z" stroke="#495053" stroke-width="2" stroke-linecap="round" stroke-linejoin="round"/>
<path d="M36.5054 6.38739H42.2521V36.3187C42.2521 42.2802 36.5054 42.2802 36.5054 36.3187V6.38739Z" stroke="#495053" stroke-width="2" stroke-linecap="round" stroke-linejoin="round"/>
<path d="M45.9875 22.2802L46.0149 11.0989H36.478" stroke="#495053" stroke-width="2" stroke-linecap="round" stroke-linejoin="round"/>
<path d="M39.283 44.011V40.7967" stroke="#495053" stroke-width="2" stroke-linecap="round" stroke-linejoin="round"/>
<path d="M7.41602 9.64288H15.8993" stroke="#495053" stroke-width="2" stroke-linecap="round" stroke-linejoin="round"/>
<path d="M7.41602 17.6923H24.3689" stroke="#495053" stroke-width="2" stroke-linecap="round" stroke-linejoin="round"/>
<path d="M7.41602 22.4039H24.3689" stroke="#495053" stroke-width="2" stroke-linecap="round" stroke-linejoin="round"/>
<path d="M7.41602 27.1016H24.3689" stroke="#495053" stroke-width="2" stroke-linecap="round" stroke-linejoin="round"/>
<path d="M7.41602 31.7994H15.8993" stroke="#495053" stroke-width="2" stroke-linecap="round" stroke-linejoin="round"/>
</g>
<defs>
<clipPath id="clip0_234_657">
<rect width="47" height="45" fill="white"/>
</clipPath>
</defs>
</svg>
