<svg width="52" height="53" viewBox="0 0 52 53" fill="none" xmlns="http://www.w3.org/2000/svg">
<g clip-path="url(#clip0_234_333)">
<path d="M35 16.1788V49M5 5H23.8409" stroke="#495053" stroke-width="2" stroke-linecap="round" stroke-linejoin="round"/>
<path d="M39 13.1788V46M9 2H27.8409" stroke="#495053" stroke-width="2" stroke-linecap="round" stroke-linejoin="round"/>
<path d="M35 16L24 5" stroke="#495053" stroke-width="2" stroke-linecap="round" stroke-linejoin="round"/>
<path d="M39 13L28 2" stroke="#495053" stroke-width="2" stroke-linecap="round" stroke-linejoin="round"/>
<path d="M30.8133 19.511V50.4039C30.8133 51.283 30.0745 52.0247 29.1988 52.0247H2.59966C1.72397 52.0247 0.985107 51.2967 0.985107 50.4039V10.6099C0.985107 9.71704 1.71029 8.98901 2.59966 8.98901H20.3187" stroke="#495053" stroke-width="2" stroke-linecap="round" stroke-linejoin="round"/>
<path d="M30.8135 19.511H21.9334C21.044 19.511 20.3188 18.783 20.3188 17.8901V8.98901L30.8135 19.511V19.511Z" stroke="#495053" stroke-width="2" stroke-linecap="round" stroke-linejoin="round"/>
<path d="M7.41602 17.6428H15.8993" stroke="#495053" stroke-width="2" stroke-linecap="round" stroke-linejoin="round"/>
<path d="M7.41602 25.6923H24.3689" stroke="#495053" stroke-width="2" stroke-linecap="round" stroke-linejoin="round"/>
<path d="M7.41602 30.4038H24.3689" stroke="#495053" stroke-width="2" stroke-linecap="round" stroke-linejoin="round"/>
<path d="M7.41602 35.1017H24.3689" stroke="#495053" stroke-width="2" stroke-linecap="round" stroke-linejoin="round"/>
<path d="M7.41602 39.7994H15.8993" stroke="#495053" stroke-width="2" stroke-linecap="round" stroke-linejoin="round"/>
</g>
<defs>
<clipPath id="clip0_234_333">
<rect width="52" height="53" fill="white"/>
</clipPath>
</defs>
</svg>
