<svg width="23" height="23" viewBox="0 0 23 23" fill="none" xmlns="http://www.w3.org/2000/svg">
<path d="M11.5 16.4156C11.3167 16.4156 11.1448 16.3868 10.9844 16.329C10.824 16.2722 10.675 16.175 10.5375 16.0375L5.5875 11.0875C5.33542 10.8354 5.20938 10.5146 5.20938 10.125C5.20938 9.73542 5.33542 9.41458 5.5875 9.1625C5.83958 8.91042 6.16592 8.77842 6.5665 8.7665C6.968 8.7555 7.29479 8.87604 7.54688 9.12813L10.125 11.7063V1.875C10.125 1.48542 10.257 1.15863 10.521 0.894625C10.7841 0.631542 11.1104 0.5 11.5 0.5C11.8896 0.5 12.2164 0.631542 12.4804 0.894625C12.7435 1.15863 12.875 1.48542 12.875 1.875V11.7063L15.4531 9.12813C15.7052 8.87604 16.032 8.7555 16.4335 8.7665C16.8341 8.77842 17.1604 8.91042 17.4125 9.1625C17.6646 9.41458 17.7906 9.73542 17.7906 10.125C17.7906 10.5146 17.6646 10.8354 17.4125 11.0875L12.4625 16.0375C12.325 16.175 12.176 16.2722 12.0156 16.329C11.8552 16.3868 11.6833 16.4156 11.5 16.4156ZM3.25 22.5C2.49375 22.5 1.84658 22.231 1.3085 21.6929C0.7695 21.1539 0.5 20.5063 0.5 19.75V17C0.5 16.6104 0.631542 16.2836 0.894625 16.0196C1.15863 15.7565 1.48542 15.625 1.875 15.625C2.26458 15.625 2.59137 15.7565 2.85538 16.0196C3.11846 16.2836 3.25 16.6104 3.25 17V19.75H19.75V17C19.75 16.6104 19.882 16.2836 20.146 16.0196C20.4091 15.7565 20.7354 15.625 21.125 15.625C21.5146 15.625 21.8409 15.7565 22.104 16.0196C22.368 16.2836 22.5 16.6104 22.5 17V19.75C22.5 20.5063 22.231 21.1539 21.6929 21.6929C21.1539 22.231 20.5063 22.5 19.75 22.5H3.25Z" fill="#D80027"/>
</svg>
