<svg width="48" height="48" viewBox="0 0 48 48" fill="none" xmlns="http://www.w3.org/2000/svg">
<g clip-path="url(#clip0_161_98)">
<path d="M28.5 0C29.0025 0 29.4975 0 30 0C30.0375 0.0225 30.075 0.06 30.12 0.0675C32.9175 0.4875 34.7625 2.07 35.8725 4.6425C38.97 11.8425 42.0975 19.035 45.195 26.235C45.99 28.08 46.77 29.9325 47.475 31.815C47.7675 32.6025 47.835 33.48 48.0075 34.3125C48.0075 35.0025 48.0075 35.685 48.0075 36.375C47.91 36.9075 47.8425 37.455 47.7225 37.98C46.65 42.5175 43.935 45.6375 39.5625 47.2425C38.52 47.625 37.3875 47.7525 36.2925 48C35.6325 48 34.98 48 34.3275 48C34.2525 47.9775 34.185 47.9325 34.11 47.925C32.2275 47.76 30.495 47.1375 28.86 46.2075C21.015 41.7975 13.185 37.38 5.3475 32.9775C2.925 31.6125 1.23 29.6625 0.4275 26.9925C0.225 26.325 0.135 25.62 0 24.9375C0 24.435 0 23.94 0 23.4375C0.0225 23.3475 0.06 23.265 0.0675 23.1675C0.4275 20.1 1.935 17.7375 4.44 15.9675C11.3025 11.115 18.1575 6.24 25.0425 1.41C25.77 0.9 26.64 0.5925 27.465 0.2325C27.78 0.0975 28.155 0.075 28.5 0ZM11.415 14.475C16.14 15.3675 19.2525 19.095 19.635 23.28C19.8525 25.6425 19.29 27.81 17.955 29.76C16.6125 31.7175 14.775 33.0075 12.405 33.72C16.1625 35.835 19.815 37.8975 23.52 39.9825C21.8175 34.56 22.7175 29.7675 26.925 25.9725C31.1325 22.1775 36 21.81 41.19 24.06C39.24 19.545 37.305 15.075 35.355 10.5675C33.1875 13.905 29.82 14.5125 27.465 13.8225C24.06 12.825 22.395 10.41 22.1625 6.87C18.5925 9.3975 15.045 11.91 11.415 14.475ZM25.4925 35.355C25.4925 40.785 29.9175 45.195 35.3925 45.18C40.7625 45.165 45.24 40.7925 45.195 35.1675C45.15 29.9175 40.7025 25.5075 35.37 25.4925C29.9475 25.485 25.4925 29.9325 25.4925 35.355ZM16.8825 24.24C16.8975 20.37 13.755 17.1825 9.9 17.1525C6.0075 17.1225 2.82 20.28 2.805 24.18C2.79 28.065 5.925 31.215 9.81 31.23C13.695 31.245 16.8675 28.11 16.8825 24.24ZM25.0275 6.99C24.9825 9.285 26.8575 11.205 29.1675 11.25C31.4775 11.295 33.435 9.405 33.4725 7.0875C33.51 4.8375 31.5825 2.85 29.3175 2.805C27.0375 2.76 25.065 4.68 25.0275 6.99Z" fill="#495053"/>
<path d="M28.32 35.3551C28.3125 31.4851 31.485 28.3126 35.355 28.3201C39.2175 28.3276 42.345 31.4551 42.36 35.3326C42.375 39.2251 39.2175 42.3751 35.3325 42.3601C31.4475 42.3376 28.32 39.2176 28.32 35.3551ZM31.125 35.3326C31.1175 37.6201 33.015 39.5326 35.3175 39.5626C37.62 39.5926 39.57 37.6501 39.5625 35.3401C39.555 33.0451 37.6425 31.1326 35.3475 31.1326C33.06 31.1326 31.125 33.0526 31.125 35.3326Z" fill="#495053"/>
<path d="M5.62497 24.2176C5.60997 21.9301 7.49997 20.0251 9.81747 19.9876C12.09 19.9501 14.07 21.9226 14.055 24.2176C14.04 26.4901 12.1725 28.3576 9.86247 28.3876C7.58247 28.4251 5.63997 26.5126 5.62497 24.2176ZM9.86247 25.5976C10.6425 25.5901 11.2575 24.9676 11.2575 24.1951C11.25 23.4376 10.6125 22.8001 9.84747 22.8001C9.05997 22.8001 8.41497 23.4526 8.42997 24.2401C8.44497 25.0051 9.07497 25.6051 9.86247 25.5976Z" fill="#495053"/>
<path d="M29.22 8.42253C28.4325 8.40753 27.8325 7.78503 27.855 7.00503C27.87 6.21753 28.5 5.61003 29.265 5.62503C30.0225 5.64003 30.6525 6.29253 30.645 7.05003C30.63 7.81503 29.985 8.43753 29.22 8.42253Z" fill="#495053"/>
<path d="M35.3625 33.9449C36.1275 33.9524 36.7575 34.5899 36.75 35.3549C36.7425 36.1274 36.12 36.7424 35.34 36.7349C34.56 36.7274 33.9375 36.0974 33.945 35.3324C33.9525 34.5674 34.5975 33.9374 35.3625 33.9449Z" fill="#495053"/>
</g>
<defs>
<clipPath id="clip0_161_98">
<rect width="48" height="48" fill="white"/>
</clipPath>
</defs>
</svg>
