<svg width="48" height="48" viewBox="0 0 48 48" fill="none" xmlns="http://www.w3.org/2000/svg">
<path d="M48 26.5274C48 27.0599 48 27.5924 48 28.1249C47.97 28.2299 47.9325 28.3274 47.91 28.4399C47.25 32.1074 45.1425 34.4624 41.55 35.4599C40.9125 35.6399 40.2375 35.6774 39.5625 35.7899C39.5625 36.7049 39.555 37.6274 39.5775 38.5499C39.5775 38.6699 39.735 38.8349 39.855 38.8949C41.5275 39.7049 42.345 41.0474 42.375 42.8924C42.3825 43.6724 42.375 44.4524 42.375 45.2324C42.375 46.4549 41.865 46.9649 40.635 46.9649C35.325 46.9649 30.015 46.9649 24.6975 46.9649C18.87 46.9649 13.0425 46.9649 7.215 46.9649C6.18 46.9649 5.625 46.4099 5.6175 45.3749C5.61 44.6099 5.625 43.8449 5.6175 43.0799C5.6025 41.1449 6.405 39.7199 8.1825 38.8799C8.2875 38.8274 8.415 38.6924 8.415 38.5949C8.43 37.6499 8.4225 36.6974 8.4225 35.7374C8.25 35.7224 8.1225 35.7149 8.0025 35.7074C4.38 35.3849 1.86 33.5399 0.5175 30.1574C0.2775 29.5049 0.1725 28.7999 0 28.1249C0 27.6224 0 27.1274 0 26.6249C0.03 26.5049 0.06 26.3849 0.075 26.2649C0.4425 23.5424 1.7925 21.4499 4.155 20.0399C4.5675 19.7924 4.9275 19.5974 4.7925 19.0349C4.77 18.9524 4.8075 18.8474 4.8375 18.7574C5.565 16.2899 6.3 13.8224 7.02 11.3549C7.05 11.2574 7.0725 11.1299 7.035 11.0474C6.6525 10.1999 6.255 9.3524 5.91 8.6249C5.4 8.5499 4.965 8.5574 4.605 8.4074C4.095 8.1974 3.84 7.7324 3.855 7.1624C3.8625 6.5324 4.2 6.1274 4.755 5.8649C7.5525 4.5599 10.35 3.2549 13.1475 1.9499C13.77 1.6574 14.3775 1.3349 15.0225 1.1099C16.035 0.757403 17.0475 1.6724 16.7775 2.7074C16.6725 3.0974 16.3575 3.4349 16.1025 3.8624C16.3275 4.3424 16.6275 4.9049 16.86 5.5049C17.0925 6.0974 17.43 6.4574 18.06 6.7124C20.085 7.5299 22.065 8.4449 24.06 9.3449C24.3675 9.4799 24.6225 9.4949 24.9375 9.3524C27.15 8.3774 29.37 7.4249 31.5825 6.4574C31.6575 6.4199 31.74 6.3524 31.7775 6.2774C32.175 5.4374 32.5725 4.5899 32.97 3.7274C32.43 3.3599 32.1075 2.9024 32.1825 2.2574C32.2875 1.3724 33.255 0.704903 34.365 1.2374C37.59 2.7749 40.83 4.2674 44.07 5.7824C44.2275 5.8574 44.385 5.9174 44.5275 6.0149C45.0075 6.3449 45.24 6.8024 45.15 7.3799C45.06 7.9724 44.715 8.3924 44.1225 8.5199C43.815 8.5874 43.485 8.5349 43.14 8.5349C42.8625 9.1199 42.615 9.7274 42.3 10.2974C42.015 10.8299 41.9625 11.2949 42.165 11.9099C42.81 13.8824 43.3425 15.8849 43.9275 17.8724C44.1375 18.5999 44.4375 19.3274 43.965 20.0624C44.115 20.1749 44.2125 20.2499 44.3175 20.3174C45.57 21.1724 46.575 22.2674 47.1525 23.6699C47.5275 24.5924 47.7225 25.5749 48 26.5274ZM31.215 30.0899C31.6575 30.0899 32.0175 30.0899 32.3775 30.0899C33.4875 30.0974 34.5975 30.0824 35.7 30.1274C36.0525 30.1424 36.2175 30.0824 36.3675 29.7599C37.965 26.3024 39.5775 22.8599 41.175 19.4024C41.265 19.1999 41.295 18.9149 41.235 18.7049C40.74 16.9349 40.23 15.1649 39.69 13.4024C39.6225 13.1849 39.4275 12.9374 39.225 12.8399C36.87 11.7224 34.515 10.6199 32.145 9.5324C31.965 9.4499 31.6875 9.4499 31.5075 9.5249C29.8125 10.2524 28.14 11.0024 26.4525 11.7374C25.17 12.2924 23.88 12.2999 22.5975 11.7449C20.91 11.0099 19.23 10.2524 17.5425 9.5324C17.3475 9.4499 17.055 9.4574 16.86 9.5399C14.505 10.6199 12.1575 11.7149 9.825 12.8249C9.6225 12.9224 9.405 13.1549 9.345 13.3724C8.805 15.1499 8.295 16.9349 7.7925 18.7199C7.74 18.9074 7.7475 19.1624 7.8225 19.3349C9.435 22.8149 11.0625 26.2949 12.675 29.7749C12.78 30.0074 12.915 30.0899 13.17 30.0899C14.28 30.0749 15.39 30.0824 16.5 30.0824C16.5825 30.0824 16.665 30.0599 16.785 30.0449C15.945 28.2674 15.12 26.5349 14.3025 24.8024C13.395 22.8824 12.45 20.9849 11.6025 19.0424C10.68 16.9349 11.6925 14.5124 13.815 13.5674C15.87 12.6449 18.3375 13.5899 19.29 15.6749C19.4325 15.9824 19.5975 16.0349 19.89 16.0349C22.605 16.0274 25.3275 16.0199 28.0425 16.0349C28.4175 16.0349 28.6125 15.9374 28.77 15.5849C29.7525 13.4699 32.4075 12.5999 34.4625 13.7024C36.5325 14.8124 37.3125 17.1749 36.3075 19.3199C35.13 21.8174 33.945 24.3149 32.7675 26.8124C32.2575 27.8699 31.755 28.9424 31.215 30.0899ZM11.2575 38.4899C19.785 38.4899 28.2525 38.4899 36.75 38.4899C36.75 37.1324 36.75 35.8049 36.75 34.4774C36.75 33.4499 36.1875 32.9024 35.145 32.8949C33.7275 32.8874 32.3025 32.9249 30.885 32.8799C30.135 32.8574 29.595 33.0299 29.0175 33.5924C25.9275 36.5924 21.3525 36.3599 18.5025 33.1499C18.39 33.0224 18.2025 32.9024 18.0525 32.8949C16.245 32.8799 14.43 32.8724 12.6225 32.8949C11.8875 32.9024 11.295 33.4649 11.2725 34.1924C11.235 35.6249 11.2575 37.0499 11.2575 38.4899ZM39.5625 44.1299C39.5625 43.7699 39.5625 43.4549 39.5625 43.1474C39.5625 41.8199 39.0825 41.3399 37.7625 41.3399C28.5825 41.3399 19.395 41.3399 10.215 41.3399C10.0725 41.3399 9.93 41.3399 9.795 41.3474C9.15 41.3849 8.5875 41.7974 8.4975 42.4274C8.4225 42.9824 8.4825 43.5599 8.4825 44.1374C18.84 44.1299 29.175 44.1299 39.5625 44.1299ZM17.6925 25.3649C19.1325 22.9724 21.2025 21.6524 23.97 21.6749C26.745 21.6974 28.8225 23.0549 30.3 25.4249C30.9075 24.1349 31.485 22.9124 32.055 21.7124C32.0175 21.6599 32.01 21.6449 31.995 21.6374C31.95 21.6149 31.9125 21.5999 31.8675 21.5924C30.375 21.3299 29.3025 20.5049 28.6875 19.1249C28.5675 18.8624 28.4025 18.8474 28.1775 18.8474C25.395 18.8474 22.62 18.8549 19.8375 18.8399C19.545 18.8399 19.41 18.9224 19.2825 19.1924C18.765 20.3324 17.8875 21.0899 16.6875 21.4649C16.44 21.5399 16.185 21.5924 15.9075 21.6599C16.47 22.8449 17.0025 23.9849 17.5425 25.1249C17.58 25.1849 17.625 25.2524 17.6925 25.3649ZM28.3125 28.7774C28.3275 26.4599 26.355 24.5099 23.955 24.4649C21.645 24.4274 19.7025 26.3399 19.695 28.6649C19.68 30.9524 21.5775 32.8649 23.8875 32.8949C26.235 32.9324 28.29 31.0124 28.3125 28.7774ZM6.0375 22.2224C3.72 23.2724 2.4375 25.8374 2.9175 28.3799C3.3825 30.8174 5.58 32.7299 8.07 32.8949C8.505 32.9249 8.775 32.8499 8.91 32.3999C8.97 32.1974 9.15 32.0324 9.24 31.8374C9.435 31.4249 10.0875 31.2824 10.005 30.7649C9.93 30.3224 9.6375 29.9099 9.435 29.4899C8.3025 27.0749 7.1775 24.6599 6.0375 22.2224ZM42.78 22.6574C42.69 22.8374 42.6225 22.9724 42.555 23.1149C41.3775 25.6424 40.2075 28.1774 39 30.6974C38.7225 31.2749 38.49 31.7924 39.045 32.3249C39.0975 32.3774 39.1275 32.4599 39.1425 32.5349C39.225 32.8424 39.4125 32.9174 39.7275 32.9099C42.5775 32.8349 45.015 30.4949 45.1575 27.6524C45.27 25.5749 44.4675 23.9249 42.78 22.6574ZM35.535 4.8974C35.13 5.7599 34.7475 6.5849 34.35 7.4474C36.06 8.2424 37.74 9.0299 39.4425 9.8249C39.84 8.9699 40.23 8.1449 40.6275 7.2824C38.9175 6.4799 37.2525 5.6999 35.535 4.8974ZM9.5775 9.8249C11.3025 9.0149 12.975 8.2349 14.67 7.4474C14.2575 6.5699 13.875 5.7449 13.4775 4.8974C11.7525 5.7074 10.08 6.4874 8.385 7.2749C8.79 8.1524 9.1725 8.9699 9.5775 9.8249ZM32.52 18.8324C33.285 18.8399 33.9225 18.2024 33.93 17.4374C33.9375 16.6724 33.3075 16.0349 32.535 16.0274C31.77 16.0199 31.125 16.6499 31.125 17.4224C31.125 18.1874 31.755 18.8249 32.52 18.8324ZM15.48 18.8324C16.245 18.8249 16.875 18.1874 16.875 17.4149C16.8675 16.6424 16.23 16.0199 15.465 16.0274C14.7 16.0349 14.07 16.6724 14.07 17.4374C14.07 18.2024 14.715 18.8399 15.48 18.8324Z" fill="#495053"/>
<path d="M23.9175 30.0824C23.1525 30.0899 22.5075 29.4524 22.5075 28.6874C22.5 27.9224 23.13 27.2849 23.9025 27.2774C24.675 27.2699 25.3125 27.8999 25.3125 28.6724C25.3125 29.4374 24.6825 30.0824 23.9175 30.0824Z" fill="#495053"/>
</svg>
