<svg width="80" height="80" viewBox="0 0 80 80" fill="none" xmlns="http://www.w3.org/2000/svg">
<path d="M72.5 45.0016H70V42.5016H73.2012C73.7557 42.501 74.3032 42.3776 74.8042 42.14C75.3053 41.9025 75.7474 41.5568 76.0987 41.1278C76.4501 40.6989 76.702 40.1973 76.8362 39.6594C76.9704 39.1214 76.9837 38.5603 76.875 38.0166L75.375 30.5166C75.2034 29.6676 74.744 28.904 74.0744 28.3546C73.4048 27.8053 72.5661 27.504 71.7 27.5015H62.05C61.7616 27.5019 61.482 27.4025 61.2585 27.2203C61.035 27.038 60.8814 26.7841 60.8237 26.5015L59.125 18.0165C58.9534 17.1676 58.494 16.404 57.8244 15.8546C57.1548 15.3053 56.3161 15.0039 55.45 15.0015H49.75L43.7725 5.43903C43.2142 4.53824 42.4347 3.79536 41.508 3.28117C40.5814 2.76697 39.5385 2.49857 38.4788 2.50153H20.2875C20.2262 2.42778 20.1713 2.35028 20.1075 2.27778C19.1372 1.19761 17.8494 0.45285 16.4293 0.150508C15.0091 -0.151834 13.5297 0.00381165 12.2035 0.595078C10.8774 1.18634 9.77279 2.18279 9.04852 3.44124C8.32424 4.69968 8.01754 6.15534 8.1725 7.59904L11.0475 34.4741C10.3729 35.3395 10.0045 36.4043 10 37.5016V40.0016C7.34784 40.0016 4.8043 41.0551 2.92893 42.9305C1.05357 44.8059 0 47.3494 0 50.0016C0 52.6537 1.05357 55.1973 2.92893 57.0726C4.8043 58.948 7.34784 60.0016 10 60.0016H23.75C24.0815 60.0016 24.3995 59.8699 24.6339 59.6355C24.8683 59.401 25 59.0831 25 58.7516V57.5016C24.9984 56.9197 24.8621 56.3461 24.6019 55.8256C24.3417 55.3052 23.9645 54.852 23.5 54.5016L20 51.8766V37.5016C19.9955 36.4021 19.6257 35.3354 18.9487 34.4691L21.5425 10.2515L33.505 12.0915C34.0977 12.1835 34.6598 12.4163 35.1439 12.7704C35.6281 13.1245 36.0203 13.5895 36.2875 14.1265L39.5537 20.6578L37.7812 38.3766C37.7288 38.898 37.7863 39.4247 37.95 39.9226C38.1136 40.4204 38.3798 40.8785 38.7314 41.2672C39.083 41.6558 39.5121 41.9665 39.9911 42.1791C40.4701 42.3917 40.9884 42.5016 41.5125 42.5016H42.5V45.0016H40C38.0109 45.0016 36.1032 45.7917 34.6967 47.1983C33.2902 48.6048 32.5 50.5124 32.5 52.5016C32.5 54.4907 33.2902 56.3983 34.6967 57.8049C36.1032 59.2114 38.0109 60.0016 40 60.0016H72.5C74.4891 60.0016 76.3968 59.2114 77.8033 57.8049C79.2098 56.3983 80 54.4907 80 52.5016C80 50.5124 79.2098 48.6048 77.8033 47.1983C76.3968 45.7917 74.4891 45.0016 72.5 45.0016ZM12.5 37.5016C12.5 36.8385 12.7634 36.2026 13.2322 35.7338C13.7011 35.2649 14.337 35.0016 15 35.0016C15.663 35.0016 16.2989 35.2649 16.7678 35.7338C17.2366 36.2026 17.5 36.8385 17.5 37.5016V40.0016H12.5V37.5016ZM22 56.5016C22.1547 56.6185 22.2804 56.7695 22.3671 56.943C22.4538 57.1165 22.4993 57.3076 22.5 57.5016H10C8.01088 57.5016 6.10322 56.7114 4.6967 55.3049C3.29018 53.8983 2.5 51.9907 2.5 50.0016C2.5 48.0124 3.29018 46.1048 4.6967 44.6983C6.10322 43.2917 8.01088 42.5016 10 42.5016H17.5V52.5016C17.5 52.6956 17.5452 52.887 17.632 53.0606C17.7188 53.2341 17.8448 53.3851 18 53.5016L22 56.5016ZM19.3425 7.33278L16.6138 32.7928C15.573 32.4045 14.427 32.4045 13.3862 32.7928L10.6575 7.33278C10.592 6.72338 10.6555 6.10701 10.8439 5.52377C11.0323 4.94052 11.3413 4.40346 11.7509 3.9475C12.1605 3.49154 12.6615 3.12689 13.2213 2.87727C13.781 2.62765 14.3871 2.49864 15 2.49864C15.6129 2.49864 16.219 2.62765 16.7787 2.87727C17.3385 3.12689 17.8395 3.49154 18.2491 3.9475C18.6587 4.40346 18.9677 4.94052 19.1561 5.52377C19.3445 6.10701 19.408 6.72338 19.3425 7.33278ZM33.885 9.62654L21.81 7.76903L21.8275 7.60279C21.9188 6.72906 21.8411 5.84593 21.5987 5.00153H38.4737C39.1102 4.99952 39.7365 5.16043 40.2931 5.46894C40.8498 5.77745 41.3182 6.2233 41.6538 6.76403L46.8075 15.0015H43.5125C42.888 15.0008 42.2733 15.1571 41.725 15.4562C41.1768 15.7552 40.7125 16.1873 40.375 16.7128L38.5238 13.0015C38.0762 12.1095 37.4215 11.3376 36.6145 10.7504C35.8074 10.1632 34.8715 9.77785 33.885 9.62654ZM40.5863 39.5941C40.468 39.4651 40.3786 39.3125 40.3238 39.1463C40.2691 38.9802 40.2503 38.8043 40.2687 38.6303L42.2687 18.6303C42.2998 18.3209 42.4451 18.0342 42.6763 17.8262C42.9074 17.6181 43.2078 17.5037 43.5187 17.5053H55.4563C55.7446 17.5049 56.0243 17.6043 56.2477 17.7866C56.4712 17.9688 56.6248 18.2227 56.6825 18.5053L58.375 26.9865C58.5466 27.8355 59.006 28.5991 59.6756 29.1485C60.3452 29.6978 61.1839 29.9991 62.05 30.0016H71.7C71.9884 30.0012 72.268 30.1006 72.4915 30.2828C72.715 30.4651 72.8686 30.719 72.9262 31.0016L74.4263 38.5016C74.4633 38.6832 74.4595 38.8708 74.4152 39.0508C74.3708 39.2308 74.2869 39.3986 74.1697 39.5422C74.0524 39.6858 73.9047 39.8015 73.7372 39.881C73.5697 39.9604 73.3866 40.0016 73.2012 40.0016H41.5125C41.3378 40.0024 41.1649 39.9662 41.0052 39.8953C40.8456 39.8244 40.7028 39.7205 40.5863 39.5903V39.5941ZM45 42.5016H67.5V45.0016H45V42.5016ZM72.5 57.5016H40C38.6739 57.5016 37.4021 56.9748 36.4645 56.0371C35.5268 55.0994 35 53.8276 35 52.5016C35 51.1755 35.5268 49.9037 36.4645 48.966C37.4021 48.0283 38.6739 47.5016 40 47.5016H72.5C73.8261 47.5016 75.0979 48.0283 76.0355 48.966C76.9732 49.9037 77.5 51.1755 77.5 52.5016C77.5 53.8276 76.9732 55.0994 76.0355 56.0371C75.0979 56.9748 73.8261 57.5016 72.5 57.5016Z" fill="black"/>
<path d="M72.5 48.7515H40C39.0054 48.7515 38.0516 49.1466 37.3483 49.8499C36.6451 50.5531 36.25 51.507 36.25 52.5015C36.25 53.4961 36.6451 54.4499 37.3483 55.1532C38.0516 55.8564 39.0054 56.2515 40 56.2515H60C60.3315 56.2515 60.6495 56.1198 60.8839 55.8854C61.1183 55.651 61.25 55.333 61.25 55.0015C61.25 54.67 61.1183 54.3521 60.8839 54.1176C60.6495 53.8832 60.3315 53.7515 60 53.7515H43.52C43.8267 52.9464 43.8267 52.0566 43.52 51.2515H68.98C68.6733 52.0566 68.6733 52.9464 68.98 53.7515H65C64.6685 53.7515 64.3505 53.8832 64.1161 54.1176C63.8817 54.3521 63.75 54.67 63.75 55.0015C63.75 55.333 63.8817 55.651 64.1161 55.8854C64.3505 56.1198 64.6685 56.2515 65 56.2515H72.5C73.4946 56.2515 74.4484 55.8564 75.1516 55.1532C75.8549 54.4499 76.25 53.4961 76.25 52.5015C76.25 51.507 75.8549 50.5531 75.1516 49.8499C74.4484 49.1466 73.4946 48.7515 72.5 48.7515ZM41.25 52.5015C41.25 52.7488 41.1767 52.9904 41.0393 53.196C40.902 53.4015 40.7068 53.5618 40.4784 53.6564C40.2499 53.751 39.9986 53.7757 39.7561 53.7275C39.5137 53.6793 39.2909 53.5602 39.1161 53.3854C38.9413 53.2106 38.8222 52.9879 38.774 52.7454C38.7258 52.5029 38.7505 52.2516 38.8452 52.0232C38.9398 51.7948 39.1 51.5995 39.3055 51.4622C39.5111 51.3248 39.7528 51.2515 40 51.2515C40.3315 51.2515 40.6495 51.3832 40.8839 51.6176C41.1183 51.8521 41.25 52.17 41.25 52.5015ZM72.5 53.7515C72.2528 53.7515 72.0111 53.6782 71.8055 53.5409C71.6 53.4035 71.4398 53.2083 71.3452 52.9799C71.2505 52.7515 71.2258 52.5001 71.274 52.2577C71.3223 52.0152 71.4413 51.7925 71.6161 51.6176C71.7909 51.4428 72.0137 51.3238 72.2561 51.2755C72.4986 51.2273 72.7499 51.2521 72.9784 51.3467C73.2068 51.4413 73.402 51.6015 73.5393 51.8071C73.6767 52.0126 73.75 52.2543 73.75 52.5015C73.75 52.833 73.6183 53.151 73.3839 53.3854C73.1495 53.6198 72.8315 53.7515 72.5 53.7515Z" fill="black"/>
<path d="M56.2499 35.0015C56.433 35.0013 56.6137 34.961 56.7794 34.8833C56.9451 34.8057 57.0918 34.6925 57.209 34.552C57.3262 34.4114 57.4111 34.2468 57.4577 34.0698C57.5043 33.8929 57.5115 33.7078 57.4787 33.5277L56.5699 28.5278C56.5444 28.3628 56.486 28.2047 56.3983 28.0626C56.3107 27.9206 56.1954 27.7976 56.0594 27.7008C55.9234 27.604 55.7695 27.5355 55.6065 27.4992C55.4436 27.4629 55.2751 27.4596 55.1109 27.4895C54.9467 27.5194 54.7901 27.5818 54.6504 27.6732C54.5107 27.7646 54.3908 27.883 54.2976 28.0215C54.2044 28.16 54.1399 28.3157 54.1079 28.4795C54.0759 28.6433 54.077 28.8119 54.1112 28.9753L54.7499 32.5015H45.1249L46.1474 21.2515H52.7137L53.2137 23.9753C53.2393 24.1402 53.2976 24.2983 53.3853 24.4404C53.473 24.5824 53.5882 24.7054 53.7242 24.8022C53.8602 24.899 54.0142 24.9675 54.1771 25.0038C54.34 25.0401 54.5085 25.0434 54.6728 25.0135C54.837 24.9836 54.9935 24.9212 55.1332 24.8298C55.2729 24.7384 55.3929 24.62 55.486 24.4815C55.5792 24.343 55.6437 24.1873 55.6757 24.0235C55.7077 23.8597 55.7066 23.6911 55.6724 23.5278L54.9899 19.7778C54.9372 19.488 54.784 19.2262 54.5571 19.0385C54.3303 18.8507 54.0444 18.7491 53.7499 18.7515H44.9999C44.687 18.7502 44.385 18.8664 44.1536 19.077C43.9221 19.2876 43.7781 19.5774 43.7499 19.889L42.4999 33.639C42.4843 33.8124 42.505 33.9871 42.5608 34.152C42.6165 34.3169 42.7061 34.4683 42.8238 34.5965C42.9415 34.7248 43.0846 34.8271 43.2441 34.8968C43.4036 34.9666 43.5759 35.0022 43.7499 35.0015H56.2499Z" fill="black"/>
<path d="M15 3.75153C14.2583 3.75153 13.5333 3.97146 12.9166 4.38352C12.2999 4.79557 11.8193 5.38124 11.5355 6.06646C11.2516 6.75169 11.1774 7.50569 11.3221 8.23311C11.4668 8.96054 11.8239 9.62873 12.3484 10.1532C12.8728 10.6776 13.541 11.0348 14.2684 11.1795C14.9958 11.3242 15.7498 11.2499 16.4351 10.9661C17.1203 10.6822 17.706 10.2016 18.118 9.58491C18.5301 8.96823 18.75 8.24321 18.75 7.50153C18.75 6.50696 18.3549 5.55314 17.6517 4.84987C16.9484 4.14661 15.9946 3.75153 15 3.75153ZM15 8.75153C14.7528 8.75153 14.5111 8.67821 14.3055 8.54086C14.1 8.40351 13.9398 8.20829 13.8452 7.97988C13.7505 7.75147 13.7258 7.50014 13.774 7.25766C13.8223 7.01519 13.9413 6.79246 14.1161 6.61764C14.2909 6.44283 14.5137 6.32378 14.7561 6.27554C14.9986 6.22731 15.2499 6.25207 15.4784 6.34668C15.7068 6.44129 15.902 6.6015 16.0393 6.80706C16.1767 7.01262 16.25 7.2543 16.25 7.50153C16.25 7.83305 16.1183 8.15099 15.8839 8.38541C15.6495 8.61983 15.3315 8.75153 15 8.75153Z" fill="black"/>
</svg>
