<svg width="80" height="80" viewBox="0 0 80 80" fill="none" xmlns="http://www.w3.org/2000/svg">
<path d="M59.1571 53.934C62.5168 48.0327 61.1499 40.5705 55.9165 36.2434V27.9573H57.1874C57.8892 27.9573 58.4583 27.3882 58.4583 26.6863V22.8737H59.7291C60.431 22.872 60.9986 22.3017 60.9969 21.5998C60.996 21.1856 60.7932 20.7977 60.4534 20.5608L31.2243 0.226702C30.7887 -0.0755675 30.2111 -0.0755675 29.7756 0.226702L0.546497 20.5608C-0.0290703 20.9625 -0.169894 21.7547 0.231728 22.3303C0.468817 22.67 0.856619 22.8728 1.27087 22.8737H2.54174V26.6863C2.54174 27.3882 3.11076 27.9573 3.81261 27.9573H5.08348V48.2913H3.81249C3.11064 48.2913 2.54162 48.8604 2.54162 49.5622V53.6036C1.02211 54.1408 0.00452734 55.5756 0 57.1874V59.7291C0 60.431 0.569015 61 1.27087 61H59.7291C60.431 61 61 60.431 61 59.7291V57.1874C60.9961 55.8555 60.2976 54.6221 59.1571 53.934ZM55.9165 25.4155H45.7499V22.8738H55.9165V25.4155ZM53.3749 27.9573V34.5785C51.7909 33.765 50.0651 33.2643 48.2915 33.1043V27.9573H53.3749ZM30.4999 2.81929L55.6751 20.332H5.32474L30.4999 2.81929ZM16.5208 48.2913H15.25V27.9573H16.5208C17.2227 27.9573 17.7917 27.3882 17.7917 26.6863V22.8737H22.875V26.6863C22.875 27.3882 23.444 27.9573 24.1458 27.9573H25.4167V48.2913H24.1458C23.444 48.2913 22.875 48.8604 22.875 49.5622V53.3749H17.7916V49.5622C17.7916 48.8602 17.2227 48.2913 16.5208 48.2913ZM25.4166 50.833H33.5881C33.8383 51.7112 34.1745 52.5627 34.5921 53.3747H25.4167V50.833H25.4166ZM27.9583 48.2913V27.9573H33.0417V48.2913H27.9583ZM34.3124 25.4155H25.4166V22.8738H35.5832V25.4155H34.3124ZM35.5833 27.9573H36.8542C37.556 27.9573 38.125 27.3882 38.125 26.6863V22.8737H43.2084V26.6863C43.2084 27.3882 43.7774 27.9573 44.4793 27.9573H45.7499V33.1043C41.6592 33.4806 37.9411 35.6372 35.5833 39.0011V27.9573ZM5.08336 22.8737H15.25V25.4154H5.08336V22.8737ZM12.7083 27.9573V48.2913H7.62499V27.9573H12.7083ZM5.08336 50.833H15.25V53.3747H5.08336V50.833ZM2.54162 58.4583V57.1874C2.54162 56.4855 3.11064 55.9165 3.81249 55.9165H36.2441C37.046 56.8827 37.9734 57.7376 39.0018 58.4582L2.54162 58.4583ZM58.4583 58.4583H55.027C56.017 57.7669 56.914 56.9511 57.6958 56.031C58.1561 56.2318 58.4549 56.6852 58.4583 57.1875V58.4583ZM47.0208 58.4583C40.7041 58.4583 35.5833 53.3373 35.5833 47.0204C35.5833 40.7035 40.7041 35.5825 47.0208 35.5825C53.3375 35.5825 58.4583 40.7035 58.4583 47.0204C58.4583 53.3373 53.3375 58.4583 47.0208 58.4583Z" fill="black"/>
<path d="M45.0143 15.8559L31.3888 5.46271L29.8652 7.56734L40.4064 15.6091H18.209V18.2074H44.2215C44.78 18.236 45.2876 17.8688 45.4603 17.311C45.6282 16.7758 45.4481 16.1882 45.0143 15.8559Z" fill="black"/>
<path d="M49.3918 40.71H48.1399V38.2388H45.6362V40.71H44.3843C43.0015 40.71 41.8806 41.8164 41.8806 43.1813V45.6525C41.8806 47.0173 43.0015 48.1237 44.3843 48.1237H49.3918V50.5949H44.3843V49.3592H41.8806V50.5949C41.8806 51.9597 43.0015 53.0661 44.3843 53.0661H45.6362V55.5373H48.1399V53.0661H49.3918C50.7746 53.0661 51.8955 51.9597 51.8955 50.5949V48.1237C51.8955 46.7589 50.7746 45.6525 49.3918 45.6525H44.3843V43.1813H49.3918V44.4169H51.8955V43.1813C51.8955 41.8164 50.7746 40.71 49.3918 40.71Z" fill="black"/>
</svg>
