<svg xmlns="http://www.w3.org/2000/svg" width="40" height="40" fill="none"><g clip-path="url(#a)"><path fill="#FFDA44" d="M1.244 26.957C4.07 34.572 11.401 40 20 40c8.6 0 15.93-5.428 18.756-13.043L20 25.217l-18.756 1.74Z"/><path fill="#000" d="M20 0C11.4 0 4.07 5.428 1.244 13.043L20 14.784l18.756-1.74C35.93 5.428 28.6 0 20 0Z"/><path fill="#D80027" d="M1.244 13.043A19.956 19.956 0 0 0 0 20c0 2.446.44 4.79 1.244 6.956h37.512A19.957 19.957 0 0 0 40 20c0-2.447-.44-4.79-1.244-6.957H1.244Z"/></g><defs><clipPath id="a"><path fill="#fff" d="M0 0h40v40H0z"/></clipPath></defs></svg>