<svg width="48" height="48" viewBox="0 0 48 48" fill="none" xmlns="http://www.w3.org/2000/svg">
<path d="M7.27499 8.59501C7.27499 7.66501 7.27499 6.75001 7.27499 5.73751C6.65249 5.73751 6.02999 5.76001 5.41499 5.73001C4.82999 5.70001 4.48499 5.31001 4.49999 4.75501C4.51499 4.22251 4.86749 3.84001 5.42249 3.83251C7.29749 3.81751 9.17249 3.81751 11.0475 3.83251C11.6325 3.84001 11.985 4.22251 11.985 4.77751C11.985 5.34001 11.6475 5.70751 11.0475 5.73001C10.4475 5.75251 9.83999 5.73751 9.21749 5.73751C9.21749 6.73501 9.21749 7.65001 9.21749 8.59501C9.56249 8.67751 9.91499 8.75251 10.2525 8.85001C13.455 9.78001 15.54 12.5625 15.54 15.9375C15.5475 24.3975 15.54 32.85 15.54 41.31C15.54 41.5125 15.54 41.7075 15.54 41.955C15.765 41.955 15.93 41.955 16.1025 41.955C25.0425 41.955 33.9825 41.955 42.9225 41.9475C43.215 41.9475 43.5225 41.925 43.8 41.8425C44.6925 41.565 45.21 40.7025 45.09 39.7575C44.985 38.9025 44.25 38.2125 43.35 38.1375C43.1625 38.1225 42.975 38.1225 42.7875 38.1225C40.5975 38.1225 38.415 38.13 36.225 38.1225C33.765 38.1075 32.16 36.48 32.1525 34.02C32.1525 33.54 32.1525 33.06 32.1525 32.58C24.9075 31.9275 19.5975 26.1075 19.3125 19.3875C19.155 15.645 20.28 12.33 22.755 9.51001C25.2375 6.69751 28.4025 5.19751 32.1525 4.86751C32.1525 4.67251 32.1525 4.50001 32.1525 4.32751C32.1525 3.86251 32.1525 3.39751 32.1525 2.87251C31.7475 2.87251 31.38 2.88001 31.005 2.87251C30.315 2.85001 29.94 2.49751 29.955 1.88251C29.9625 1.29001 30.33 0.94501 30.9975 0.93751C32.4375 0.93001 33.87 0.93001 35.31 0.93751C35.985 0.94501 36.3525 1.27501 36.3675 1.86751C36.3825 2.48251 36.015 2.84251 35.325 2.86501C34.965 2.88001 34.6125 2.86501 34.2075 2.86501C34.2075 3.50251 34.2075 4.11751 34.2075 4.76251C38.49 5.22751 41.9625 7.13251 44.49 10.6425C46.3125 13.1775 47.145 16.035 47.0175 19.1475C46.725 26.3625 41.0175 32.0025 34.215 32.4675C34.215 33.18 34.14 33.9 34.23 34.605C34.3425 35.4825 35.1825 36.0825 36.135 36.0825C38.5125 36.09 40.8825 36.0675 43.26 36.0975C45.1425 36.12 46.695 37.515 46.9725 39.375C47.31 41.6175 45.615 43.6725 43.3575 43.77C43.155 43.7775 42.9525 43.7775 42.75 43.7775C33.9225 43.7775 25.0875 43.7775 16.26 43.7775C16.0725 43.7775 15.885 43.7775 15.6675 43.7775C15.63 43.95 15.5925 44.115 15.5625 44.2725C15.2475 45.87 13.965 47.01 12.345 47.0325C9.64499 47.0625 6.93749 47.07 4.23749 47.0325C2.36999 47.0025 0.937493 45.5025 0.937493 43.635C0.929993 34.365 0.922493 25.095 0.937493 15.825C0.944993 12.2175 3.38249 9.34501 6.93749 8.67001C7.05749 8.65501 7.15499 8.62501 7.27499 8.59501ZM21.3 18.63C21.3075 25.185 26.6475 30.5175 33.21 30.525C39.7275 30.5325 45.1125 25.1325 45.105 18.6075C45.0975 12.06 39.735 6.70501 33.195 6.71251C26.6625 6.72751 21.2925 12.105 21.3 18.63ZM13.62 29.565C13.62 25.125 13.62 20.685 13.62 16.245C13.62 15.9825 13.62 15.7125 13.605 15.45C13.4175 12.2925 10.4325 9.95251 7.32749 10.53C4.63499 11.0325 2.88749 13.185 2.87999 16.035C2.87249 25.1625 2.87999 34.29 2.87999 43.4175C2.87999 44.5725 3.51749 45.2025 4.67999 45.2025C7.05749 45.2025 9.42749 45.2025 11.805 45.2025C13.1025 45.2025 13.62 44.685 13.62 43.3875C13.62 38.79 13.62 34.1775 13.62 29.565Z" fill="#495053"/>
<path d="M23.04 19.3125C23.04 13.6425 26.55 9.41252 31.4475 8.65502C37.7175 7.68752 42.7125 12.24 43.23 17.685C43.5225 20.7825 42.6 23.4825 40.47 25.7475C39.9 26.355 39.42 26.3475 38.8275 25.7625C37.8525 24.795 36.8775 23.82 35.91 22.845C35.31 22.245 35.295 21.795 35.85 21.1425C37.5975 19.065 36.705 15.945 34.17 15.2475C32.6175 14.82 30.915 15.4575 30.0675 16.7925C29.22 18.135 29.3925 19.8225 30.5025 21.0825C31.05 21.705 31.05 22.125 30.4725 22.7025C29.505 23.6775 28.53 24.6525 27.555 25.62C26.94 26.235 26.385 26.2275 25.7925 25.59C23.97 23.6175 23.07 21.285 23.04 19.3125ZM41.3625 19.5825C40.5075 19.5825 39.6825 19.575 38.8575 19.59C38.775 19.59 38.6625 19.7175 38.625 19.815C38.3475 20.475 38.0925 21.135 37.8375 21.7725C38.43 22.365 39.0525 22.9875 39.6975 23.6325C40.635 22.4775 41.16 21.135 41.3625 19.5825ZM30.03 14.0025C30.7725 13.6725 31.4925 13.3575 32.2125 13.0425C32.2125 12.2175 32.2125 11.355 32.2125 10.455C30.6825 10.68 29.325 11.1825 28.1775 12.15C28.8225 12.795 29.4375 13.41 30.03 14.0025ZM28.605 21.78C28.29 21.075 27.9675 20.355 27.6375 19.605C26.835 19.605 25.965 19.605 25.0725 19.605C25.275 21.135 25.8 22.485 26.7525 23.6475C27.375 23.0025 27.99 22.3875 28.605 21.78ZM38.2425 12.135C37.065 11.205 35.73 10.65 34.1775 10.47C34.1775 11.325 34.17 12.12 34.185 12.915C34.185 13.0125 34.3125 13.155 34.41 13.2C35.0625 13.4775 35.73 13.74 36.3825 13.995C36.975 13.41 37.59 12.795 38.2425 12.135ZM25.0725 17.6475C25.92 17.6475 26.73 17.655 27.5325 17.64C27.63 17.64 27.765 17.505 27.81 17.4C28.0875 16.7475 28.3425 16.08 28.575 15.51C27.96 14.895 27.3375 14.265 26.7075 13.635C25.8375 14.775 25.245 16.0875 25.0725 17.6475ZM41.355 17.6475C41.1675 16.0875 40.5825 14.7675 39.6975 13.6125C39.0525 14.2575 38.43 14.88 37.8525 15.4575C38.1075 16.1025 38.37 16.77 38.6475 17.4225C38.685 17.5125 38.805 17.64 38.8875 17.64C39.6975 17.6475 40.5 17.6475 41.355 17.6475Z" fill="#495053"/>
<path d="M34.1775 20.595C34.1775 21.3 34.1925 21.9975 34.17 22.7025C34.1625 23.01 34.2675 23.1675 34.5375 23.31C35.6925 23.9325 36.225 25.2075 35.9025 26.4525C35.5875 27.645 34.485 28.4925 33.2475 28.5C31.9575 28.5075 30.8625 27.6675 30.525 26.415C30.2025 25.1925 30.765 23.9025 31.9275 23.2875C32.19 23.145 32.265 23.0025 32.265 22.7175C32.25 21.2775 32.25 19.845 32.265 18.405C32.2725 17.6325 32.8275 17.205 33.54 17.415C34.0275 17.5575 34.1775 17.9325 34.185 18.3825C34.1775 19.125 34.1775 19.86 34.1775 20.595ZM33.225 24.855C32.76 24.8475 32.355 25.245 32.3475 25.71C32.34 26.175 32.73 26.58 33.195 26.5875C33.6675 26.595 34.0575 26.2125 34.065 25.74C34.0725 25.26 33.69 24.8625 33.225 24.855Z" fill="#495053"/>
<path d="M11.805 29.16C11.805 33.4725 11.805 37.785 11.805 42.105C11.805 43.1325 11.535 43.4025 10.4925 43.4025C8.94749 43.4025 7.39499 43.4025 5.84999 43.4025C4.97999 43.4025 4.59749 43.0125 4.59749 42.1425C4.59749 33.465 4.59749 24.795 4.59749 16.1175C4.59749 15.1575 4.87499 14.88 5.81249 14.88C7.40999 14.88 8.99999 14.88 10.5975 14.88C11.52 14.88 11.805 15.165 11.805 16.08C11.805 20.4375 11.805 24.8025 11.805 29.16ZM9.84749 16.815C8.73749 16.815 7.64999 16.815 6.54749 16.815C6.54749 17.9325 6.54749 19.02 6.54749 20.1225C7.65749 20.1225 8.74499 20.1225 9.84749 20.1225C9.84749 19.0125 9.84749 17.925 9.84749 16.815ZM9.84749 27.39C8.73749 27.39 7.65749 27.39 6.54749 27.39C6.54749 28.5 6.54749 29.58 6.54749 30.69C7.65749 30.69 8.73749 30.69 9.84749 30.69C9.84749 29.58 9.84749 28.4925 9.84749 27.39ZM9.84749 36.075C9.84749 34.95 9.84749 33.8625 9.84749 32.7675C8.72999 32.7675 7.64999 32.7675 6.56249 32.7675C6.56249 33.885 6.56249 34.9725 6.56249 36.075C7.65749 36.075 8.72999 36.075 9.84749 36.075ZM9.84749 22.11C8.73749 22.11 7.65749 22.11 6.56249 22.11C6.56249 23.2275 6.56249 24.3075 6.56249 25.3875C7.67999 25.3875 8.76749 25.3875 9.84749 25.3875C9.84749 24.2775 9.84749 23.205 9.84749 22.11ZM6.54749 41.445C7.67249 41.445 8.74499 41.445 9.83999 41.445C9.83999 40.335 9.83999 39.2475 9.83999 38.16C8.72249 38.16 7.64249 38.16 6.54749 38.16C6.54749 39.2625 6.54749 40.335 6.54749 41.445Z" fill="#495053"/>
</svg>
