<svg xmlns="http://www.w3.org/2000/svg" width="145" height="145" fill="none"><g clip-path="url(#a)"><path fill="#000" fill-opacity=".7" d="M142.734 88.897h-9.544a30.86 30.86 0 0 0-6.287-11.498v-2.973h5.438a2.272 2.272 0 0 0 2.265-2.266v-7.646a2.272 2.272 0 0 0-2.265-2.266h-5.438v-2.889a2.272 2.272 0 0 0-2.265-2.265h-12.943v-22.09a2.272 2.272 0 0 0-2.265-2.266h-2.917l-.029-11.101h2.464a2.273 2.273 0 0 0 2.266-2.266 2.273 2.273 0 0 0-2.266-2.265h-4.758c-.594 0-1.189.226-1.614.68a2.292 2.292 0 0 0-.651 1.613l.056 13.368h-3.596a2.272 2.272 0 0 0-2.266 2.265v22.09h-3.483v-3.88c0-.51-.17-1.02-.482-1.416l-20.56-25.771a2.242 2.242 0 0 0-1.756-.85H37.355a2.272 2.272 0 0 0-2.266 2.266v18.974H9.176a2.272 2.272 0 0 0-2.266 2.266v13.962H2.266A2.272 2.272 0 0 0 0 64.939v19.54a2.272 2.272 0 0 0 2.266 2.266H6.91v11.696c0 .369.085.737.283 1.077l5.155 9.515a2.254 2.254 0 0 0 1.982 1.19h3.002c1.133 9.912 9.572 17.643 19.796 17.643s18.663-7.731 19.796-17.643h10.563a2.273 2.273 0 0 0 2.266-2.266v-2.039h4.956a30.607 30.607 0 0 0 10.11 15.18 30.607 30.607 0 0 0 19.145 6.768c6.967 0 13.764-2.407 19.144-6.768a30.61 30.61 0 0 0 10.111-15.18h9.515a2.273 2.273 0 0 0 2.266-2.266V91.163a2.273 2.273 0 0 0-2.266-2.266ZM4.531 82.186v-15.01h2.38v15.01H4.53Zm99.405-10.706c7.363 0 14.046 3.002 18.804 8.015.142.227.34.453.567.595a25.902 25.902 0 0 1 5.154 8.807h-49.05c3.596-10.252 13.48-17.416 24.525-17.416Zm26.168-4.7v3.143h-3.172v-3.144h3.172Zm-7.704 6.4a30.49 30.49 0 0 0-18.464-6.23 30.617 30.617 0 0 0-18.465 6.23V61.653h36.901V73.18h.028Zm-21.721-35.882h6.513v19.824h-6.513V37.298Zm-63.551 86.065c-8.496 0-15.378-6.91-15.378-15.378 0-8.467 6.91-15.378 15.378-15.378s15.378 6.91 15.378 15.378-6.882 15.378-15.378 15.378Zm28.065-17.643h-8.27c-1.132-9.912-9.571-17.644-19.795-17.644-10.224 0-18.663 7.732-19.796 17.644h-1.67l-4.249-7.873V50.948H35.06v4.362c0 .538.199 1.076.567 1.5l13.849 15.775a2.275 2.275 0 0 0 1.699.765h13.99v32.37h.028Zm-12.97-36.93L39.62 54.432V29.708h29.113l19.4 24.299v3.087h-4.928a2.272 2.272 0 0 0-2.266 2.265V77.4a30.866 30.866 0 0 0-6.287 11.498h-4.956V71.056a2.272 2.272 0 0 0-2.265-2.266H52.223Zm51.713 54.573c-11.045 0-20.93-7.193-24.526-17.445h49.023c-3.569 10.252-13.453 17.445-24.497 17.445Zm36.533-21.976H69.725v-7.958h70.744v7.958ZM78.249 47.55c.368-.793.283-1.728-.283-2.407l-9.94-12.461a2.257 2.257 0 0 0-1.785-.85H45.313a2.272 2.272 0 0 0-2.266 2.266v12.46a2.272 2.272 0 0 0 2.266 2.266h30.869c.906 0 1.699-.481 2.067-1.274ZM47.635 44.32v-7.93h17.558l6.316 7.93H47.635ZM70.036 57.52h-6.344a2.272 2.272 0 0 1-2.265-2.266 2.272 2.272 0 0 1 2.265-2.266h6.344a2.272 2.272 0 0 1 2.266 2.266 2.272 2.272 0 0 1-2.266 2.266ZM26.168 67.26a2.272 2.272 0 0 1-2.266 2.265H17.56a2.272 2.272 0 0 1-2.266-2.265 2.272 2.272 0 0 1 2.266-2.266h6.343a2.272 2.272 0 0 1 2.266 2.266Zm0 7.42a2.272 2.272 0 0 1-2.266 2.265H17.56a2.272 2.272 0 0 1-2.266-2.265 2.272 2.272 0 0 1 2.266-2.266h6.343a2.272 2.272 0 0 1 2.266 2.266Zm0 7.42a2.272 2.272 0 0 1-2.266 2.265H17.56a2.272 2.272 0 0 1-2.266-2.265 2.272 2.272 0 0 1 2.266-2.266h6.343a2.272 2.272 0 0 1 2.266 2.266Z"/></g><defs><clipPath id="a"><path fill="#fff" d="M0 0h145v145H0z"/></clipPath></defs></svg>