<svg width="24" height="24" viewBox="0 0 24 24" fill="none" xmlns="http://www.w3.org/2000/svg">
<path d="M12 24C18.6274 24 24 18.6274 24 12C24 5.37258 18.6274 0 12 0C5.37258 0 0 5.37258 0 12C0 18.6274 5.37258 24 12 24Z" fill="#D80027"/>
<path d="M17.8686 12.0001L15.4707 13.128L16.7476 15.4505L14.1436 14.9523L13.8138 17.5827L12 15.6482L10.1863 17.5827L9.85632 14.9523L7.2525 15.4504L8.52938 13.1279L6.13139 12.0001L8.52938 10.8722L7.2525 8.54968L9.85622 9.04796L10.1864 6.41748L12 8.35206L13.8139 6.41748L14.1436 9.04796L16.7477 8.54968L15.4708 10.8724L17.8686 12.0001Z" fill="#FFDA44"/>
<path d="M12 15.6522C14.017 15.6522 15.6522 14.0171 15.6522 12.0001C15.6522 9.98303 14.017 8.3479 12 8.3479C9.98296 8.3479 8.34782 9.98303 8.34782 12.0001C8.34782 14.0171 9.98296 15.6522 12 15.6522Z" fill="#D80027"/>
<path d="M10.1739 12C10.0859 12 9.99905 12.0045 9.91331 12.013C9.91646 12.5189 10.0995 12.9818 10.4017 13.3415C10.563 12.9076 10.8037 12.5119 11.1073 12.1733C10.8173 12.0618 10.5028 12 10.1739 12Z" fill="#FFDA44"/>
<path d="M11.298 13.9656C11.5174 14.044 11.7536 14.0869 12 14.0869C12.2464 14.0869 12.4826 14.044 12.702 13.9656C12.5824 13.4963 12.3355 13.0773 12 12.748C11.6645 13.0773 11.4176 13.4963 11.298 13.9656Z" fill="#FFDA44"/>
<path d="M13.8073 10.9569C13.4464 10.3332 12.7725 9.91309 12 9.91309C11.2275 9.91309 10.5536 10.3331 10.1927 10.9569C10.8506 10.9602 11.4675 11.1391 12 11.448C12.5325 11.1391 13.1493 10.9602 13.8073 10.9569Z" fill="#FFDA44"/>
<path d="M12.8926 12.1733C13.1962 12.5119 13.437 12.9075 13.5982 13.3415C13.9005 12.9818 14.0835 12.5189 14.0866 12.013C14.0008 12.0045 13.914 12 13.826 12C13.4972 12 13.1827 12.0617 12.8926 12.1733Z" fill="#FFDA44"/>
</svg>
