<svg width="164" height="18" viewBox="0 0 164 18" fill="none" xmlns="http://www.w3.org/2000/svg">
<path d="M0.137784 0.909091H2.89915V9.14205H3.00781L8.66477 0.909091H11.0874V14H8.3196V5.76065H8.22372L2.5348 14H0.137784V0.909091ZM12.1141 14V0.909091H14.8819V6.31037H20.5005V0.909091H23.2618V14H20.5005V8.59233H14.8819V14H12.1141ZM23.5743 17.1577V11.7947H24.4628C24.7653 11.5774 25.0423 11.2706 25.2937 10.8743C25.5452 10.4737 25.7604 9.92188 25.9393 9.21875C26.1183 8.51136 26.2462 7.58665 26.3229 6.4446L26.6936 0.909091H35.3548V11.7947H36.7866V17.1449H34.1275V14H26.2334V17.1577H23.5743ZM27.6588 11.7947H32.6957V3.19105H29.1865L28.982 6.4446C28.9266 7.30966 28.8349 8.0767 28.7071 8.74574C28.5835 9.41477 28.4322 10.0007 28.2533 10.5036C28.0785 11.0021 27.8804 11.4325 27.6588 11.7947ZM47.1809 0.909091V14H44.4963V0.909091H47.1809ZM36.5893 14L40.693 7.09659L36.7619 0.909091H40.1689L43.1092 6.29759H48.6383L51.502 0.909091H54.8961L51.0609 7.07741L55.0879 14H51.7832L49.0155 8.8544H42.7065L39.8684 14H36.5893ZM57.735 14H54.7691L59.2883 0.909091H62.8551L67.3678 14H64.4019L61.1228 3.90057H61.0205L57.735 14ZM57.5497 8.8544H64.5553V11.0149H57.5497V8.8544ZM67.6835 14V0.909091H72.8483C73.8412 0.909091 74.687 1.09872 75.3859 1.47798C76.0848 1.85298 76.6174 2.375 76.9839 3.04403C77.3546 3.70881 77.54 4.47585 77.54 5.34517C77.54 6.21449 77.3525 6.98153 76.9775 7.64631C76.6025 8.31108 76.0592 8.82883 75.3475 9.19957C74.6402 9.57031 73.7836 9.75568 72.7779 9.75568H69.486V7.53764H72.3305C72.8632 7.53764 73.3021 7.44602 73.6473 7.26278C73.9967 7.07528 74.2566 6.81747 74.4271 6.48935C74.6018 6.15696 74.6892 5.77557 74.6892 5.34517C74.6892 4.91051 74.6018 4.53125 74.4271 4.20739C74.2566 3.87926 73.9967 3.62571 73.6473 3.44673C73.2978 3.26349 72.8546 3.17188 72.3177 3.17188H70.4512V14H67.6835ZM78.8225 14H75.8566L80.3757 0.909091H83.9425L88.4553 14H85.4894L82.2102 3.90057H82.108L78.8225 14ZM78.6371 8.8544H85.6428V11.0149H78.6371V8.8544ZM94.837 6.37429V8.5348H88.8668V6.37429H94.837ZM95.2389 14V11.7756L95.6096 11.7436C96.0869 11.7053 96.4726 11.5241 96.7666 11.2003C97.0606 10.8722 97.2801 10.3501 97.425 9.63423C97.5741 8.91406 97.67 7.94673 97.7126 6.73224L97.9299 0.909091H106.815V14H104.124V3.12713H100.5L100.295 7.68466C100.227 9.15057 100.052 10.348 99.7709 11.277C99.4939 12.206 99.0507 12.892 98.4413 13.3352C97.8362 13.7784 97.0074 14 95.9548 14H95.2389ZM107.837 0.909091H110.598V9.14205H110.707L116.364 0.909091H118.786V14H116.019V5.76065H115.923L110.234 14H107.837V0.909091ZM124.575 14.179C123.621 14.179 122.771 14.0149 122.025 13.6868C121.283 13.3544 120.697 12.8984 120.267 12.3189C119.841 11.7351 119.621 11.0618 119.609 10.299H122.396C122.413 10.6186 122.517 10.8999 122.709 11.1428C122.905 11.3814 123.165 11.5668 123.489 11.6989C123.812 11.831 124.177 11.897 124.582 11.897C125.004 11.897 125.376 11.8224 125.7 11.6733C126.024 11.5241 126.278 11.3175 126.461 11.0533C126.644 10.7891 126.736 10.4844 126.736 10.1392C126.736 9.78977 126.638 9.48082 126.442 9.21236C126.25 8.93963 125.973 8.72656 125.611 8.57315C125.253 8.41974 124.827 8.34304 124.332 8.34304H123.111V6.31037H124.332C124.75 6.31037 125.119 6.23793 125.438 6.09304C125.762 5.94815 126.013 5.74787 126.192 5.49219C126.371 5.23224 126.461 4.92969 126.461 4.58452C126.461 4.25639 126.382 3.96875 126.224 3.72159C126.071 3.47017 125.854 3.27415 125.572 3.13352C125.295 2.9929 124.972 2.92259 124.601 2.92259C124.226 2.92259 123.883 2.99077 123.572 3.12713C123.261 3.25923 123.011 3.44886 122.824 3.69602C122.636 3.94318 122.536 4.23295 122.523 4.56534H119.871C119.883 3.81108 120.099 3.14631 120.516 2.57102C120.934 1.99574 121.496 1.54616 122.204 1.2223C122.915 0.894176 123.719 0.730113 124.614 0.730113C125.517 0.730113 126.307 0.894176 126.985 1.2223C127.663 1.55043 128.189 1.99361 128.564 2.55185C128.943 3.10582 129.131 3.72798 129.126 4.41832C129.131 5.15128 128.903 5.76278 128.442 6.25284C127.986 6.7429 127.392 7.05398 126.659 7.18608V7.28835C127.622 7.41193 128.355 7.74645 128.858 8.2919C129.365 8.8331 129.616 9.51065 129.612 10.3246C129.616 11.0703 129.401 11.733 128.967 12.3125C128.536 12.892 127.942 13.348 127.183 13.6804C126.425 14.0128 125.555 14.179 124.575 14.179ZM130.418 0.909091H133.18V9.14205H133.288L138.945 0.909091H141.368V14H138.6V5.76065H138.504L132.815 14H130.418V0.909091ZM142.395 14V0.909091H145.162V6.31037H150.781V0.909091H153.542V14H150.781V8.59233H145.162V14H142.395ZM163.251 0.909091V3.19105H157.332V14H154.564V0.909091H163.251Z" fill="#BBBBBB"/>
</svg>
