<svg width="288" height="56" viewBox="0 0 288 56" fill="none" xmlns="http://www.w3.org/2000/svg">
<rect width="288" height="56" rx="8" fill="#F2F1F5"/>
<path d="M51.7668 32.6543H58.6609C59.2028 32.6543 59.6422 33.0871 59.6427 33.6213V40.5139L51.7668 32.6543Z" fill="#7C7B87"/>
<path d="M85.2701 32.876H80.4932V43.5821H85.2701V32.876Z" fill="#7C7B87"/>
<path fill-rule="evenodd" clip-rule="evenodd" d="M122.691 32.7236C119.108 32.7236 116.203 35.2365 116.203 38.3357C116.203 41.4349 119.108 43.9477 122.691 43.9477C126.274 43.9477 129.179 41.4349 129.179 38.3357C129.179 35.2365 126.274 32.7236 122.691 32.7236ZM122.691 41.7201C121.55 41.7201 120.624 40.204 120.624 38.3352C120.624 36.4664 121.55 34.9489 122.691 34.9489C123.832 34.9489 124.758 36.465 124.758 38.3352C124.758 40.2054 123.832 41.7201 122.691 41.7201Z" fill="#7C7B87"/>
<path fill-rule="evenodd" clip-rule="evenodd" d="M130.719 32.7383H134.799L137.988 37.4704V32.7383H142.317V43.6189H139.049L135.093 37.8654V43.6189H130.719V32.7383Z" fill="#7C7B87"/>
<path fill-rule="evenodd" clip-rule="evenodd" d="M98.7648 32.8764L98.7568 39.7589C98.7568 41.8711 97.0206 43.5845 94.8762 43.5845H91.124C88.9814 43.5845 87.2434 41.8711 87.2434 39.7589V32.876H91.917V41.4737H94.0907V32.876H98.7648V32.8764Z" fill="#7C7B87"/>
<path fill-rule="evenodd" clip-rule="evenodd" d="M153.906 43.6364L148.245 43.629C146.102 43.629 143.909 41.9156 143.909 39.8034V36.5548C143.909 34.4426 146.102 32.7292 148.245 32.7292H156V34.9066H148.268V41.5535H151.898V39.1291H150.09V37.3124H155.976V42.7709C155.976 42.7709 156.008 43.6355 154.946 43.6355L153.906 43.6369V43.6364Z" fill="#7C7B87"/>
<path fill-rule="evenodd" clip-rule="evenodd" d="M112.397 43.7608L105.441 43.7533C102.96 43.7533 100.374 41.6886 100.374 39.1455V35.2338C100.374 32.6884 102.96 30.626 105.441 30.626H114.364V33.2482H105.877V41.0101H109.672V38.333H107.984V36.144H114.338V42.7179C114.338 42.7179 114.375 43.7584 113.146 43.7584L112.397 43.7603V43.7608Z" fill="#7C7B87"/>
<path fill-rule="evenodd" clip-rule="evenodd" d="M79.0621 43.5826V41.1563H73.7333V30.6777H68.2931L68.2799 42.5398C68.2799 42.5398 68.2412 43.5826 69.4718 43.5826H79.0621Z" fill="#7C7B87"/>
<path fill-rule="evenodd" clip-rule="evenodd" d="M59.6441 42.5746H46.1576C44.2214 42.5746 42.6505 41.0259 42.6505 39.1171V26H38V39.3949C38 43.5942 41.4548 47 45.7163 47H59.6441V42.5746Z" fill="#7C7B87"/>
<path fill-rule="evenodd" clip-rule="evenodd" d="M49.0173 40.5141H46.9214C45.7598 40.5141 44.8181 39.5858 44.8181 38.4406V28.7675C44.8176 27.2398 46.0737 26.002 47.6233 26.002H59.0593V29.9732H49.0003V36.4722H53.1825L57.1914 40.5141H49.0173Z" fill="#7C7B87"/>
<path d="M46.5398 15.6364C46.5398 16.5682 46.3693 17.3693 46.0284 18.0398C45.6875 18.7074 45.2202 19.2216 44.6264 19.5824C44.0355 19.9403 43.3636 20.1193 42.6108 20.1193C41.8551 20.1193 41.1804 19.9403 40.5866 19.5824C39.9957 19.2216 39.5298 18.706 39.1889 18.0355C38.848 17.3651 38.6776 16.5653 38.6776 15.6364C38.6776 14.7045 38.848 13.9048 39.1889 13.2372C39.5298 12.5668 39.9957 12.0526 40.5866 11.6946C41.1804 11.3338 41.8551 11.1534 42.6108 11.1534C43.3636 11.1534 44.0355 11.3338 44.6264 11.6946C45.2202 12.0526 45.6875 12.5668 46.0284 13.2372C46.3693 13.9048 46.5398 14.7045 46.5398 15.6364ZM45.2358 15.6364C45.2358 14.9261 45.1207 14.3281 44.8906 13.8423C44.6634 13.3537 44.3509 12.9844 43.9531 12.7344C43.5582 12.4815 43.1108 12.3551 42.6108 12.3551C42.108 12.3551 41.6591 12.4815 41.2642 12.7344C40.8693 12.9844 40.5568 13.3537 40.3267 13.8423C40.0994 14.3281 39.9858 14.9261 39.9858 15.6364C39.9858 16.3466 40.0994 16.946 40.3267 17.4347C40.5568 17.9205 40.8693 18.2898 41.2642 18.5426C41.6591 18.7926 42.108 18.9176 42.6108 18.9176C43.1108 18.9176 43.5582 18.7926 43.9531 18.5426C44.3509 18.2898 44.6634 17.9205 44.8906 17.4347C45.1207 16.946 45.2358 16.3466 45.2358 15.6364ZM51.9306 12.2784H53.5031C54.1678 12.2784 54.7573 12.4247 55.2715 12.7173C55.7886 13.0071 56.1934 13.4148 56.486 13.9403C56.7815 14.4631 56.9292 15.071 56.9292 15.7642C56.9292 16.4517 56.7815 17.0554 56.486 17.5753C56.1934 18.0952 55.7886 18.5014 55.2715 18.794C54.7573 19.0838 54.1678 19.2287 53.5031 19.2287H51.9306C51.2658 19.2287 50.6749 19.0852 50.1579 18.7983C49.6408 18.5085 49.2346 18.1051 48.9391 17.5881C48.6465 17.071 48.5002 16.4673 48.5002 15.777C48.5002 15.081 48.6479 14.4702 48.9434 13.9446C49.2388 13.419 49.6437 13.0099 50.1579 12.7173C50.6749 12.4247 51.2658 12.2784 51.9306 12.2784ZM51.9306 13.4162C51.4761 13.4162 51.0883 13.5114 50.7673 13.7017C50.4462 13.8892 50.2005 14.1591 50.03 14.5114C49.8596 14.8636 49.7744 15.2855 49.7744 15.777C49.7744 16.2571 49.8596 16.6705 50.03 17.017C50.2033 17.3608 50.4505 17.6264 50.7715 17.8139C51.0925 17.9986 51.4789 18.0909 51.9306 18.0909H53.5073C53.959 18.0909 54.344 17.9986 54.6621 17.8139C54.9832 17.6264 55.2275 17.3594 55.3951 17.0128C55.5656 16.6634 55.6508 16.2472 55.6508 15.7642C55.6508 15.2784 55.5656 14.8608 55.3951 14.5114C55.2275 14.1591 54.9832 13.8892 54.6621 13.7017C54.344 13.5114 53.959 13.4162 53.5073 13.4162H51.9306ZM53.3667 11.1193V20.358H52.0755V11.1193H53.3667ZM59.1666 11.2727H60.4706V17.6818H60.5516L64.9919 11.2727H66.2107V20H64.8939V13.5994H64.8129L60.3811 20H59.1666V11.2727ZM76.4744 18.8366L76.3593 22.0625H75.0468V20H74.4332V18.8366H76.4744ZM68.7315 20V11.2727H69.9928V18.858H74.2031V11.2727H75.4687V20H68.7315ZM78.519 11.2727H79.8229V17.6818H79.9039L84.3442 11.2727H85.563V20H84.2462V13.5994H84.1653L79.7335 20H78.519V11.2727ZM88.821 20H87.4233L90.5639 11.2727H92.0852L95.2259 20H93.8281L91.3608 12.858H91.2926L88.821 20ZM89.0554 16.5824H93.5895V17.6903H89.0554V16.5824ZM96.4256 20V18.858L96.6813 18.8494C97.0279 18.8409 97.3006 18.723 97.4995 18.4957C97.7012 18.2685 97.8475 17.902 97.9384 17.3963C98.0322 16.8906 98.0947 16.2159 98.1259 15.3722L98.2751 11.2727H103.794V20H102.494V12.3892H99.5151L99.3788 15.7216C99.3418 16.6562 99.2481 17.4418 99.0975 18.0781C98.9469 18.7116 98.6913 19.1903 98.3305 19.5142C97.9725 19.8381 97.4626 20 96.8006 20H96.4256ZM107.236 14.7926H109.588C110.236 14.7926 110.787 14.8977 111.242 15.108C111.696 15.3182 112.043 15.6151 112.281 15.9986C112.523 16.3821 112.642 16.8338 112.639 17.3537C112.642 17.8736 112.523 18.3324 112.281 18.7301C112.043 19.1278 111.696 19.4389 111.242 19.6634C110.787 19.8878 110.236 20 109.588 20H106.32V11.2727H107.641V18.892H109.588C109.966 18.892 110.284 18.8182 110.543 18.6705C110.804 18.5227 111.001 18.331 111.135 18.0952C111.271 17.8594 111.34 17.6065 111.34 17.3366C111.34 16.9446 111.189 16.608 110.888 16.3267C110.587 16.0426 110.153 15.9006 109.588 15.9006H107.236V14.7926ZM114.845 20V11.2727H116.162V15.0653H120.512V11.2727H121.833V20H120.512V16.1946H116.162V20H114.845ZM125.276 14.7926H127.628C128.276 14.7926 128.827 14.8977 129.281 15.108C129.736 15.3182 130.083 15.6151 130.321 15.9986C130.563 16.3821 130.682 16.8338 130.679 17.3537C130.682 17.8736 130.563 18.3324 130.321 18.7301C130.083 19.1278 129.736 19.4389 129.281 19.6634C128.827 19.8878 128.276 20 127.628 20H124.36V11.2727H125.681V18.892H127.628C128.006 18.892 128.324 18.8182 128.583 18.6705C128.844 18.5227 129.041 18.331 129.175 18.0952C129.311 17.8594 129.379 17.6065 129.379 17.3366C129.379 16.9446 129.229 16.608 128.928 16.3267C128.627 16.0426 128.193 15.9006 127.628 15.9006H125.276V14.7926ZM132.806 11.2727V20H131.485V11.2727H132.806ZM135.322 11.2727H136.626V17.6818H136.707L141.147 11.2727H142.366V20H141.049V13.5994H140.968L136.537 20H135.322V11.2727ZM139.681 9.05682H140.73C140.73 9.53693 140.559 9.92756 140.218 10.2287C139.88 10.527 139.423 10.6761 138.846 10.6761C138.272 10.6761 137.816 10.527 137.478 10.2287C137.14 9.92756 136.971 9.53693 136.971 9.05682H138.015C138.015 9.26989 138.078 9.45881 138.203 9.62358C138.328 9.78551 138.542 9.86648 138.846 9.86648C139.145 9.86648 139.358 9.78551 139.485 9.62358C139.616 9.46165 139.681 9.27273 139.681 9.05682ZM148.002 22.1094V18.8835H148.577C148.774 18.7187 148.957 18.4844 149.127 18.1804C149.298 17.8764 149.443 17.4659 149.562 16.9489C149.681 16.4318 149.764 15.7685 149.809 14.9588L150.014 11.2727H155.396V18.8835H156.384V22.0966H155.123V20H149.264V22.1094H148.002ZM150.129 18.8835H154.134V12.4062H151.207L151.07 14.9588C151.033 15.5753 150.972 16.1293 150.887 16.6207C150.805 17.1122 150.698 17.5469 150.568 17.9247C150.44 18.2997 150.293 18.6193 150.129 18.8835ZM158.427 11.2727H159.731V17.6818H159.812L164.252 11.2727H165.471V20H164.154V13.5994H164.073L159.641 20H158.427V11.2727ZM175.24 14.1108H173.911C173.86 13.8267 173.764 13.5767 173.625 13.3608C173.486 13.1449 173.315 12.9616 173.114 12.8111C172.912 12.6605 172.686 12.5469 172.436 12.4702C172.189 12.3935 171.926 12.3551 171.648 12.3551C171.145 12.3551 170.695 12.4815 170.297 12.7344C169.902 12.9872 169.59 13.358 169.36 13.8466C169.132 14.3352 169.019 14.9318 169.019 15.6364C169.019 16.3466 169.132 16.946 169.36 17.4347C169.59 17.9233 169.904 18.2926 170.301 18.5426C170.699 18.7926 171.146 18.9176 171.644 18.9176C171.919 18.9176 172.181 18.8807 172.428 18.8068C172.678 18.7301 172.904 18.6179 173.105 18.4702C173.307 18.3224 173.477 18.142 173.617 17.929C173.759 17.7131 173.857 17.4659 173.911 17.1875L175.24 17.1918C175.169 17.6207 175.031 18.0156 174.827 18.3764C174.625 18.7344 174.365 19.044 174.047 19.3054C173.732 19.5639 173.371 19.7642 172.965 19.9062C172.558 20.0483 172.115 20.1193 171.635 20.1193C170.879 20.1193 170.206 19.9403 169.615 19.5824C169.024 19.2216 168.558 18.706 168.217 18.0355C167.879 17.3651 167.71 16.5653 167.71 15.6364C167.71 14.7045 167.881 13.9048 168.222 13.2372C168.563 12.5668 169.029 12.0526 169.619 11.6946C170.21 11.3338 170.882 11.1534 171.635 11.1534C172.098 11.1534 172.53 11.2202 172.931 11.3537C173.334 11.4844 173.696 11.6776 174.017 11.9332C174.338 12.1861 174.604 12.4957 174.814 12.8622C175.024 13.2259 175.166 13.642 175.24 14.1108ZM176.985 12.4062V11.2727H183.74V12.4062H181.017V20H179.704V12.4062H176.985ZM185.832 20V11.2727H188.943C189.622 11.2727 190.185 11.3963 190.631 11.6435C191.077 11.8906 191.41 12.2287 191.632 12.6577C191.854 13.0838 191.964 13.5639 191.964 14.098C191.964 14.6349 191.852 15.1179 191.628 15.5469C191.406 15.973 191.071 16.3111 190.622 16.5611C190.176 16.8082 189.615 16.9318 188.939 16.9318H186.8V15.8153H188.819C189.248 15.8153 189.596 15.7415 189.864 15.5938C190.131 15.4432 190.327 15.2386 190.452 14.9801C190.577 14.7216 190.639 14.4276 190.639 14.098C190.639 13.7685 190.577 13.4759 190.452 13.2202C190.327 12.9645 190.129 12.7642 189.859 12.6193C189.592 12.4744 189.24 12.402 188.802 12.402H187.149V20H185.832ZM194.108 11.2727H195.412V17.6818H195.493L199.933 11.2727H201.152V20H199.835V13.5994H199.754L195.323 20H194.108V11.2727ZM203.673 20V11.2727H209.115V12.4062H204.99V14.7926H206.941C207.589 14.7926 208.139 14.8977 208.59 15.108C209.045 15.3182 209.392 15.6151 209.63 15.9986C209.872 16.3821 209.992 16.8338 209.992 17.3537C209.992 17.8736 209.872 18.3324 209.63 18.7301C209.392 19.1278 209.045 19.4389 208.59 19.6634C208.139 19.8878 207.589 20 206.941 20H203.673ZM204.99 18.892H206.941C207.316 18.892 207.633 18.8182 207.892 18.6705C208.153 18.5227 208.35 18.331 208.484 18.0952C208.62 17.8594 208.688 17.6065 208.688 17.3366C208.688 16.9446 208.538 16.608 208.237 16.3267C207.936 16.0426 207.504 15.9006 206.941 15.9006H204.99V18.892ZM213.073 14.7926H215.425C216.073 14.7926 216.624 14.8977 217.078 15.108C217.533 15.3182 217.879 15.6151 218.118 15.9986C218.36 16.3821 218.479 16.8338 218.476 17.3537C218.479 17.8736 218.36 18.3324 218.118 18.7301C217.879 19.1278 217.533 19.4389 217.078 19.6634C216.624 19.8878 216.073 20 215.425 20H212.156V11.2727H213.477V18.892H215.425C215.803 18.892 216.121 18.8182 216.379 18.6705C216.641 18.5227 216.838 18.331 216.972 18.0952C217.108 17.8594 217.176 17.6065 217.176 17.3366C217.176 16.9446 217.026 16.608 216.725 16.3267C216.423 16.0426 215.99 15.9006 215.425 15.9006H213.073V14.7926ZM221.998 11.2727V20H220.681V11.2727H221.998ZM223.895 15.1889V16.2926H221.189V15.1889H223.895ZM231.36 15.6364C231.36 16.5682 231.19 17.3693 230.849 18.0398C230.508 18.7074 230.041 19.2216 229.447 19.5824C228.856 19.9403 228.184 20.1193 227.431 20.1193C226.676 20.1193 226.001 19.9403 225.407 19.5824C224.816 19.2216 224.35 18.706 224.01 18.0355C223.669 17.3651 223.498 16.5653 223.498 15.6364C223.498 14.7045 223.669 13.9048 224.01 13.2372C224.35 12.5668 224.816 12.0526 225.407 11.6946C226.001 11.3338 226.676 11.1534 227.431 11.1534C228.184 11.1534 228.856 11.3338 229.447 11.6946C230.041 12.0526 230.508 12.5668 230.849 13.2372C231.19 13.9048 231.36 14.7045 231.36 15.6364ZM230.056 15.6364C230.056 14.9261 229.941 14.3281 229.711 13.8423C229.484 13.3537 229.172 12.9844 228.774 12.7344C228.379 12.4815 227.931 12.3551 227.431 12.3551C226.929 12.3551 226.48 12.4815 226.085 12.7344C225.69 12.9844 225.377 13.3537 225.147 13.8423C224.92 14.3281 224.806 14.9261 224.806 15.6364C224.806 16.3466 224.92 16.946 225.147 17.4347C225.377 17.9205 225.69 18.2898 226.085 18.5426C226.48 18.7926 226.929 18.9176 227.431 18.9176C227.931 18.9176 228.379 18.7926 228.774 18.5426C229.172 18.2898 229.484 17.9205 229.711 17.4347C229.941 16.946 230.056 16.3466 230.056 15.6364ZM233.167 12.4062V11.2727H239.922V12.4062H237.199V20H235.886V12.4062H233.167ZM242.014 20V11.2727H247.486V12.4062H243.331V15.0653H247.2V16.1946H243.331V18.8665H247.537V20H242.014ZM249.845 20V11.2727H252.956C253.635 11.2727 254.197 11.3963 254.643 11.6435C255.089 11.8906 255.423 12.2287 255.644 12.6577C255.866 13.0838 255.977 13.5639 255.977 14.098C255.977 14.6349 255.865 15.1179 255.64 15.5469C255.419 15.973 255.083 16.3111 254.635 16.5611C254.188 16.8082 253.627 16.9318 252.951 16.9318H250.812V15.8153H252.832C253.261 15.8153 253.609 15.7415 253.876 15.5938C254.143 15.4432 254.339 15.2386 254.464 14.9801C254.589 14.7216 254.652 14.4276 254.652 14.098C254.652 13.7685 254.589 13.4759 254.464 13.2202C254.339 12.9645 254.142 12.7642 253.872 12.6193C253.605 12.4744 253.252 12.402 252.815 12.402H251.162V20H249.845Z" fill="#7C7B87"/>
<path d="M162.535 42V33.2727H165.731C166.35 33.2727 166.863 33.375 167.269 33.5795C167.675 33.7812 167.979 34.0554 168.181 34.402C168.383 34.7457 168.483 35.1335 168.483 35.5653C168.483 35.929 168.417 36.2358 168.283 36.4858C168.15 36.733 167.971 36.9318 167.746 37.0824C167.525 37.2301 167.28 37.3381 167.013 37.4062V37.4915C167.303 37.5057 167.586 37.5994 167.861 37.7727C168.14 37.9432 168.37 38.1861 168.552 38.5014C168.733 38.8168 168.824 39.2003 168.824 39.652C168.824 40.098 168.719 40.4986 168.509 40.8537C168.302 41.206 167.981 41.4858 167.546 41.6932C167.111 41.8977 166.556 42 165.88 42H162.535ZM163.851 40.8707H165.752C166.383 40.8707 166.834 40.7486 167.107 40.5043C167.38 40.2599 167.516 39.9545 167.516 39.5881C167.516 39.3125 167.447 39.0597 167.307 38.8295C167.168 38.5994 166.969 38.4162 166.711 38.2798C166.455 38.1435 166.151 38.0753 165.799 38.0753H163.851V40.8707ZM163.851 37.0483H165.616C165.911 37.0483 166.177 36.9915 166.412 36.8778C166.651 36.7642 166.84 36.6051 166.979 36.4006C167.121 36.1932 167.192 35.9489 167.192 35.6676C167.192 35.3068 167.066 35.0043 166.813 34.7599C166.56 34.5156 166.172 34.3935 165.65 34.3935H163.851V37.0483ZM177.539 42L174.608 38.0881H173.679V42H172.362V33.2727H173.679V36.9588H174.109L177.407 33.2727H179.014L175.524 37.1804L179.146 42H177.539ZM180.691 36.7926H183.043C183.691 36.7926 184.242 36.8977 184.696 37.108C185.151 37.3182 185.497 37.6151 185.736 37.9986C185.977 38.3821 186.097 38.8338 186.094 39.3537C186.097 39.8736 185.977 40.3324 185.736 40.7301C185.497 41.1278 185.151 41.4389 184.696 41.6634C184.242 41.8878 183.691 42 183.043 42H179.774V33.2727H181.095V40.892H183.043C183.421 40.892 183.739 40.8182 183.997 40.6705C184.259 40.5227 184.456 40.331 184.59 40.0952C184.726 39.8594 184.794 39.6065 184.794 39.3366C184.794 38.9446 184.644 38.608 184.343 38.3267C184.041 38.0426 183.608 37.9006 183.043 37.9006H180.691V36.7926ZM188.22 33.2727V42H186.899V33.2727H188.22ZM189.537 42V33.2727H192.648C193.327 33.2727 193.889 33.3963 194.335 33.6435C194.781 33.8906 195.115 34.2287 195.337 34.6577C195.558 35.0838 195.669 35.5639 195.669 36.098C195.669 36.6349 195.557 37.1179 195.332 37.5469C195.111 37.973 194.776 38.3111 194.327 38.5611C193.881 38.8082 193.32 38.9318 192.643 38.9318H190.504V37.8153H192.524C192.953 37.8153 193.301 37.7415 193.568 37.5938C193.835 37.4432 194.031 37.2386 194.156 36.9801C194.281 36.7216 194.344 36.4276 194.344 36.098C194.344 35.7685 194.281 35.4759 194.156 35.2202C194.031 34.9645 193.834 34.7642 193.564 34.6193C193.297 34.4744 192.945 34.402 192.507 34.402H190.854V42H189.537ZM202.054 33.2727V34.4062H197.929V42H196.613V33.2727H202.054ZM203.863 36.7926H206.215C206.863 36.7926 207.414 36.8977 207.869 37.108C208.323 37.3182 208.67 37.6151 208.909 37.9986C209.15 38.3821 209.269 38.8338 209.267 39.3537C209.269 39.8736 209.15 40.3324 208.909 40.7301C208.67 41.1278 208.323 41.4389 207.869 41.6634C207.414 41.8878 206.863 42 206.215 42H202.947V33.2727H204.268V40.892H206.215C206.593 40.892 206.912 40.8182 207.17 40.6705C207.431 40.5227 207.629 40.331 207.762 40.0952C207.899 39.8594 207.967 39.6065 207.967 39.3366C207.967 38.9446 207.816 38.608 207.515 38.3267C207.214 38.0426 206.781 37.9006 206.215 37.9006H203.863V36.7926ZM211.393 33.2727V42H210.072V33.2727H211.393ZM215.629 42.1193C215.043 42.1193 214.521 42.0185 214.06 41.8168C213.603 41.6151 213.241 41.3352 212.974 40.9773C212.71 40.6165 212.568 40.1989 212.548 39.7244H213.886C213.903 39.983 213.989 40.2074 214.146 40.3977C214.305 40.5852 214.512 40.7301 214.768 40.8324C215.024 40.9347 215.308 40.9858 215.62 40.9858C215.964 40.9858 216.268 40.9261 216.532 40.8068C216.799 40.6875 217.008 40.5213 217.158 40.3082C217.309 40.0923 217.384 39.8438 217.384 39.5625C217.384 39.2699 217.309 39.0128 217.158 38.7912C217.011 38.5668 216.793 38.3906 216.506 38.2628C216.222 38.1349 215.879 38.071 215.475 38.071H214.738V36.9972H215.475C215.799 36.9972 216.083 36.9389 216.327 36.8224C216.575 36.706 216.768 36.544 216.907 36.3366C217.046 36.1264 217.116 35.8807 217.116 35.5994C217.116 35.3295 217.055 35.0952 216.933 34.8963C216.813 34.6946 216.643 34.5369 216.421 34.4233C216.202 34.3097 215.944 34.2528 215.646 34.2528C215.362 34.2528 215.096 34.3054 214.849 34.4105C214.604 34.5128 214.406 34.6605 214.252 34.8537C214.099 35.044 214.016 35.2727 214.005 35.5398H212.731C212.745 35.0682 212.884 34.6534 213.149 34.2955C213.416 33.9375 213.768 33.6577 214.205 33.456C214.643 33.2543 215.129 33.1534 215.663 33.1534C216.222 33.1534 216.705 33.2628 217.112 33.4815C217.521 33.6974 217.836 33.9858 218.058 34.3466C218.282 34.7074 218.393 35.1023 218.39 35.5312C218.393 36.0199 218.256 36.4347 217.981 36.7756C217.708 37.1165 217.345 37.3452 216.89 37.4616V37.5298C217.47 37.6179 217.918 37.848 218.237 38.2202C218.558 38.5923 218.717 39.054 218.714 39.6051C218.717 40.0852 218.583 40.5156 218.313 40.8963C218.046 41.277 217.681 41.5767 217.218 41.7955C216.755 42.0114 216.225 42.1193 215.629 42.1193ZM227.093 36.1108H225.763C225.712 35.8267 225.617 35.5767 225.477 35.3608C225.338 35.1449 225.168 34.9616 224.966 34.8111C224.764 34.6605 224.539 34.5469 224.289 34.4702C224.041 34.3935 223.779 34.3551 223.5 34.3551C222.997 34.3551 222.547 34.4815 222.149 34.7344C221.754 34.9872 221.442 35.358 221.212 35.8466C220.985 36.3352 220.871 36.9318 220.871 37.6364C220.871 38.3466 220.985 38.946 221.212 39.4347C221.442 39.9233 221.756 40.2926 222.154 40.5426C222.551 40.7926 222.999 40.9176 223.496 40.9176C223.772 40.9176 224.033 40.8807 224.28 40.8068C224.53 40.7301 224.756 40.6179 224.958 40.4702C225.159 40.3224 225.33 40.142 225.469 39.929C225.611 39.7131 225.709 39.4659 225.763 39.1875L227.093 39.1918C227.022 39.6207 226.884 40.0156 226.679 40.3764C226.477 40.7344 226.218 41.044 225.899 41.3054C225.584 41.5639 225.223 41.7642 224.817 41.9062C224.411 42.0483 223.968 42.1193 223.487 42.1193C222.732 42.1193 222.058 41.9403 221.468 41.5824C220.877 41.2216 220.411 40.706 220.07 40.0355C219.732 39.3651 219.563 38.5653 219.563 37.6364C219.563 36.7045 219.733 35.9048 220.074 35.2372C220.415 34.5668 220.881 34.0526 221.472 33.6946C222.063 33.3338 222.735 33.1534 223.487 33.1534C223.95 33.1534 224.382 33.2202 224.783 33.3537C225.186 33.4844 225.549 33.6776 225.87 33.9332C226.191 34.1861 226.456 34.4957 226.666 34.8622C226.877 35.2259 227.019 35.642 227.093 36.1108ZM227.638 34.4062V33.2727H234.392V34.4062H231.669V42H230.357V34.4062H227.638ZM234.991 42H233.593L236.733 33.2727H238.255L241.395 42H239.998L237.53 34.858H237.462L234.991 42ZM235.225 38.5824H239.759V39.6903H235.225V38.5824ZM242.056 42V33.2727H243.372V37.0653H247.723V33.2727H249.044V42H247.723V38.1946H243.372V42H242.056ZM250.362 42V33.2727H255.834V34.4062H251.679V37.0653H255.548V38.1946H251.679V40.8665H255.885V42H250.362Z" fill="#7C7B87"/>
</svg>
