<svg width="358" height="60" viewBox="0 0 358 60" fill="none" xmlns="http://www.w3.org/2000/svg">
<rect width="358" height="60" rx="8" fill="#F2F1F5"/>
<path d="M72.7839 18.2727C72.7839 19.2822 72.5992 20.1501 72.2299 20.8764C71.8606 21.5997 71.3543 22.1567 70.7111 22.5476C70.0709 22.9354 69.3431 23.1293 68.5275 23.1293C67.7088 23.1293 66.9779 22.9354 66.3347 22.5476C65.6945 22.1567 65.1898 21.5981 64.8205 20.8718C64.4511 20.1455 64.2665 19.2791 64.2665 18.2727C64.2665 17.2633 64.4511 16.3969 64.8205 15.6737C65.1898 14.9473 65.6945 14.3903 66.3347 14.0025C66.9779 13.6116 67.7088 13.4162 68.5275 13.4162C69.3431 13.4162 70.0709 13.6116 70.7111 14.0025C71.3543 14.3903 71.8606 14.9473 72.2299 15.6737C72.5992 16.3969 72.7839 17.2633 72.7839 18.2727ZM71.3712 18.2727C71.3712 17.5033 71.2466 16.8555 70.9973 16.3292C70.7511 15.7998 70.4126 15.3997 69.9817 15.1289C69.5539 14.855 69.0692 14.718 68.5275 14.718C67.9828 14.718 67.4965 14.855 67.0687 15.1289C66.6409 15.3997 66.3024 15.7998 66.0531 16.3292C65.8069 16.8555 65.6837 17.5033 65.6837 18.2727C65.6837 19.0421 65.8069 19.6915 66.0531 20.2209C66.3024 20.7472 66.6409 21.1473 67.0687 21.4212C67.4965 21.692 67.9828 21.8274 68.5275 21.8274C69.0692 21.8274 69.5539 21.692 69.9817 21.4212C70.4126 21.1473 70.7511 20.7472 70.9973 20.2209C71.2466 19.6915 71.3712 19.0421 71.3712 18.2727ZM78.234 14.6349H79.9374C80.6576 14.6349 81.2962 14.7934 81.8533 15.1104C82.4134 15.4244 82.852 15.866 83.169 16.4354C83.4891 17.0017 83.6491 17.6603 83.6491 18.4112C83.6491 19.156 83.4891 19.81 83.169 20.3732C82.852 20.9364 82.4134 21.3765 81.8533 21.6935C81.2962 22.0075 80.6576 22.1644 79.9374 22.1644H78.234C77.5138 22.1644 76.8736 22.009 76.3135 21.6982C75.7534 21.3842 75.3133 20.9472 74.9932 20.3871C74.6762 19.8269 74.5177 19.1729 74.5177 18.4251C74.5177 17.671 74.6777 17.0094 74.9978 16.44C75.3179 15.8706 75.7565 15.4274 76.3135 15.1104C76.8736 14.7934 77.5138 14.6349 78.234 14.6349ZM78.234 15.8675C77.7415 15.8675 77.3214 15.9706 76.9737 16.1768C76.6259 16.38 76.3597 16.6723 76.175 17.054C75.9904 17.4356 75.898 17.8926 75.898 18.4251C75.898 18.9452 75.9904 19.393 76.175 19.7685C76.3628 20.1409 76.6305 20.4286 76.9783 20.6317C77.3261 20.8318 77.7446 20.9318 78.234 20.9318H79.9421C80.4314 20.9318 80.8484 20.8318 81.1931 20.6317C81.5409 20.4286 81.8056 20.1393 81.9872 19.7638C82.1718 19.3853 82.2642 18.9344 82.2642 18.4112C82.2642 17.8849 82.1718 17.4325 81.9872 17.054C81.8056 16.6723 81.5409 16.38 81.1931 16.1768C80.8484 15.9706 80.4314 15.8675 79.9421 15.8675H78.234ZM79.7897 13.3793V23.3878H78.3909V13.3793H79.7897ZM85.683 13.5455H87.0956V20.4886H87.1833L91.9937 13.5455H93.314V23H91.8875V16.0661H91.7998L86.9987 23H85.683V13.5455ZM104.043 21.7397L103.918 25.2344H102.497V23H101.832V21.7397H104.043ZM95.6549 23V13.5455H97.0214V21.7628H101.582V13.5455H102.954V23H95.6549ZM105.868 13.5455H107.281V20.4886H107.368L112.179 13.5455H113.499V23H112.073V16.0661H111.985L107.184 23H105.868V13.5455ZM116.639 23H115.124L118.527 13.5455H120.175L123.577 23H122.063L119.39 15.2628H119.316L116.639 23ZM116.892 19.2976H121.804V20.4979H116.892V19.2976ZM124.487 23V21.7628L124.764 21.7536C125.139 21.7443 125.435 21.6166 125.65 21.3704C125.869 21.1242 126.027 20.7272 126.126 20.1793C126.227 19.6315 126.295 18.9006 126.329 17.9865L126.49 13.5455H132.469V23H131.061V14.755H127.834L127.686 18.3651C127.646 19.3776 127.545 20.2286 127.381 20.918C127.218 21.6043 126.941 22.1229 126.55 22.4737C126.163 22.8246 125.61 23 124.893 23H124.487ZM135.808 17.3587H138.356C139.058 17.3587 139.655 17.4725 140.147 17.7003C140.64 17.928 141.015 18.2496 141.274 18.6651C141.536 19.0806 141.665 19.57 141.662 20.1332C141.665 20.6964 141.536 21.1934 141.274 21.6243C141.015 22.0552 140.64 22.3922 140.147 22.6353C139.655 22.8784 139.058 23 138.356 23H134.815V13.5455H136.247V21.7997H138.356C138.766 21.7997 139.11 21.7197 139.39 21.5597C139.674 21.3996 139.887 21.1919 140.032 20.9364C140.18 20.681 140.254 20.4071 140.254 20.1147C140.254 19.69 140.091 19.3253 139.764 19.0206C139.438 18.7128 138.969 18.5589 138.356 18.5589H135.808V17.3587ZM143.661 23V13.5455H145.087V17.6541H149.801V13.5455H151.232V23H149.801V18.8775H145.087V23H143.661ZM154.571 17.3587H157.119C157.821 17.3587 158.418 17.4725 158.911 17.7003C159.403 17.928 159.779 18.2496 160.037 18.6651C160.299 19.0806 160.428 19.57 160.425 20.1332C160.428 20.6964 160.299 21.1934 160.037 21.6243C159.779 22.0552 159.403 22.3922 158.911 22.6353C158.418 22.8784 157.821 23 157.119 23H153.579V13.5455H155.01V21.7997H157.119C157.529 21.7997 157.873 21.7197 158.154 21.5597C158.437 21.3996 158.651 21.1919 158.795 20.9364C158.943 20.681 159.017 20.4071 159.017 20.1147C159.017 19.69 158.854 19.3253 158.527 19.0206C158.201 18.7128 157.732 18.5589 157.119 18.5589H154.571V17.3587ZM162.728 13.5455V23H161.297V13.5455H162.728ZM165.065 13.5455H166.477V20.4886H166.565L171.375 13.5455H172.696V23H171.269V16.0661H171.182L166.38 23H165.065V13.5455ZM169.787 11.1449H170.923C170.923 11.665 170.738 12.0882 170.369 12.4144C170.003 12.7376 169.507 12.8991 168.883 12.8991C168.261 12.8991 167.767 12.7376 167.401 12.4144C167.034 12.0882 166.851 11.665 166.851 11.1449H167.982C167.982 11.3757 168.05 11.5804 168.185 11.7589C168.321 11.9343 168.553 12.022 168.883 12.022C169.206 12.022 169.437 11.9343 169.575 11.7589C169.717 11.5835 169.787 11.3788 169.787 11.1449ZM178.022 25.2852V21.7905H178.645C178.857 21.612 179.056 21.3581 179.24 21.0288C179.425 20.6995 179.582 20.2547 179.711 19.6946C179.84 19.1345 179.93 18.4158 179.979 17.5387L180.201 13.5455H186.031V21.7905H187.102V25.2713H185.736V23H179.388V25.2852H178.022ZM180.325 21.7905H184.665V14.7734H181.493L181.345 17.5387C181.305 18.2066 181.239 18.8067 181.147 19.3391C181.058 19.8716 180.942 20.3424 180.801 20.7518C180.662 21.158 180.504 21.5043 180.325 21.7905ZM188.925 13.5455H190.337V20.4886H190.425L195.236 13.5455H196.556V23H195.129V16.0661H195.042L190.241 23H188.925V13.5455ZM206.749 16.62H205.309C205.254 16.3123 205.151 16.0414 205 15.8075C204.849 15.5736 204.664 15.3751 204.446 15.212C204.227 15.0489 203.983 14.9258 203.712 14.8427C203.444 14.7596 203.159 14.718 202.858 14.718C202.313 14.718 201.825 14.855 201.394 15.1289C200.966 15.4028 200.628 15.8045 200.379 16.3338C200.132 16.8632 200.009 17.5095 200.009 18.2727C200.009 19.0421 200.132 19.6915 200.379 20.2209C200.628 20.7502 200.968 21.1503 201.399 21.4212C201.83 21.692 202.314 21.8274 202.853 21.8274C203.152 21.8274 203.435 21.7874 203.702 21.7074C203.973 21.6243 204.218 21.5027 204.436 21.3427C204.655 21.1826 204.84 20.9872 204.99 20.7564C205.144 20.5225 205.251 20.2547 205.309 19.9531L206.749 19.9577C206.672 20.4225 206.523 20.8503 206.302 21.2411C206.083 21.6289 205.801 21.9644 205.457 22.2475C205.115 22.5276 204.724 22.7446 204.284 22.8984C203.844 23.0523 203.364 23.1293 202.844 23.1293C202.025 23.1293 201.296 22.9354 200.656 22.5476C200.015 22.1567 199.511 21.5981 199.141 20.8718C198.775 20.1455 198.592 19.2791 198.592 18.2727C198.592 17.2633 198.777 16.3969 199.146 15.6737C199.515 14.9473 200.02 14.3903 200.66 14.0025C201.3 13.6116 202.028 13.4162 202.844 13.4162C203.345 13.4162 203.813 13.4885 204.247 13.6332C204.684 13.7747 205.077 13.984 205.424 14.261C205.772 14.5349 206.06 14.8704 206.288 15.2674C206.515 15.6613 206.669 16.1122 206.749 16.62ZM208.25 14.7734V13.5455H215.567V14.7734H212.617V23H211.195V14.7734H208.25ZM217.444 23V13.5455H220.814C221.55 13.5455 222.159 13.6793 222.642 13.9471C223.125 14.2148 223.487 14.5811 223.727 15.0458C223.967 15.5075 224.087 16.0276 224.087 16.6062C224.087 17.1879 223.966 17.7111 223.722 18.1758C223.482 18.6374 223.119 19.0037 222.633 19.2745C222.15 19.5423 221.542 19.6761 220.809 19.6761H218.492V18.4666H220.68C221.145 18.4666 221.522 18.3866 221.811 18.2266C222.101 18.0634 222.313 17.8419 222.448 17.5618C222.584 17.2817 222.651 16.9632 222.651 16.6062C222.651 16.2492 222.584 15.9322 222.448 15.6552C222.313 15.3782 222.099 15.1612 221.807 15.0043C221.517 14.8473 221.136 14.7688 220.662 14.7688H218.871V23H217.444ZM226.019 13.5455H227.432V20.4886H227.52L232.33 13.5455H233.651V23H232.224V16.0661H232.136L227.335 23H226.019V13.5455ZM235.991 23V13.5455H241.887V14.7734H237.418V17.3587H239.532C240.234 17.3587 240.829 17.4725 241.319 17.7003C241.811 17.928 242.187 18.2496 242.445 18.6651C242.707 19.0806 242.838 19.57 242.838 20.1332C242.838 20.6964 242.707 21.1934 242.445 21.6243C242.187 22.0552 241.811 22.3922 241.319 22.6353C240.829 22.8784 240.234 23 239.532 23H235.991ZM237.418 21.7997H239.532C239.938 21.7997 240.282 21.7197 240.562 21.5597C240.845 21.3996 241.059 21.1919 241.203 20.9364C241.351 20.681 241.425 20.4071 241.425 20.1147C241.425 19.69 241.262 19.3253 240.936 19.0206C240.609 18.7128 240.142 18.5589 239.532 18.5589H237.418V21.7997ZM245.784 17.3587H248.333C249.034 17.3587 249.632 17.4725 250.124 17.7003C250.616 17.928 250.992 18.2496 251.25 18.6651C251.512 19.0806 251.641 19.57 251.638 20.1332C251.641 20.6964 251.512 21.1934 251.25 21.6243C250.992 22.0552 250.616 22.3922 250.124 22.6353C249.632 22.8784 249.034 23 248.333 23H244.792V13.5455H246.223V21.7997H248.333C248.742 21.7997 249.087 21.7197 249.367 21.5597C249.65 21.3996 249.864 21.1919 250.009 20.9364C250.156 20.681 250.23 20.4071 250.23 20.1147C250.23 19.69 250.067 19.3253 249.741 19.0206C249.415 18.7128 248.945 18.5589 248.333 18.5589H245.784V17.3587ZM255.064 13.5455V23H253.637V13.5455H255.064ZM257.118 17.788V18.9837H254.187V17.788H257.118ZM265.206 18.2727C265.206 19.2822 265.022 20.1501 264.652 20.8764C264.283 21.5997 263.777 22.1567 263.133 22.5476C262.493 22.9354 261.765 23.1293 260.95 23.1293C260.131 23.1293 259.4 22.9354 258.757 22.5476C258.117 22.1567 257.612 21.5981 257.243 20.8718C256.874 20.1455 256.689 19.2791 256.689 18.2727C256.689 17.2633 256.874 16.3969 257.243 15.6737C257.612 14.9473 258.117 14.3903 258.757 14.0025C259.4 13.6116 260.131 13.4162 260.95 13.4162C261.765 13.4162 262.493 13.6116 263.133 14.0025C263.777 14.3903 264.283 14.9473 264.652 15.6737C265.022 16.3969 265.206 17.2633 265.206 18.2727ZM263.794 18.2727C263.794 17.5033 263.669 16.8555 263.42 16.3292C263.173 15.7998 262.835 15.3997 262.404 15.1289C261.976 14.855 261.492 14.718 260.95 14.718C260.405 14.718 259.919 14.855 259.491 15.1289C259.063 15.3997 258.725 15.7998 258.475 16.3292C258.229 16.8555 258.106 17.5033 258.106 18.2727C258.106 19.0421 258.229 19.6915 258.475 20.2209C258.725 20.7472 259.063 21.1473 259.491 21.4212C259.919 21.692 260.405 21.8274 260.95 21.8274C261.492 21.8274 261.976 21.692 262.404 21.4212C262.835 21.1473 263.173 20.7472 263.42 20.2209C263.669 19.6915 263.794 19.0421 263.794 18.2727ZM266.774 14.7734V13.5455H274.091V14.7734H271.141V23H269.719V14.7734H266.774ZM283.774 18.2727C283.774 19.2822 283.59 20.1501 283.22 20.8764C282.851 21.5997 282.345 22.1567 281.702 22.5476C281.061 22.9354 280.334 23.1293 279.518 23.1293C278.699 23.1293 277.968 22.9354 277.325 22.5476C276.685 22.1567 276.18 21.5981 275.811 20.8718C275.442 20.1455 275.257 19.2791 275.257 18.2727C275.257 17.2633 275.442 16.3969 275.811 15.6737C276.18 14.9473 276.685 14.3903 277.325 14.0025C277.968 13.6116 278.699 13.4162 279.518 13.4162C280.334 13.4162 281.061 13.6116 281.702 14.0025C282.345 14.3903 282.851 14.9473 283.22 15.6737C283.59 16.3969 283.774 17.2633 283.774 18.2727ZM282.362 18.2727C282.362 17.5033 282.237 16.8555 281.988 16.3292C281.742 15.7998 281.403 15.3997 280.972 15.1289C280.544 14.855 280.06 14.718 279.518 14.718C278.973 14.718 278.487 14.855 278.059 15.1289C277.631 15.3997 277.293 15.7998 277.044 16.3292C276.797 16.8555 276.674 17.5033 276.674 18.2727C276.674 19.0421 276.797 19.6915 277.044 20.2209C277.293 20.7472 277.631 21.1473 278.059 21.4212C278.487 21.692 278.973 21.8274 279.518 21.8274C280.06 21.8274 280.544 21.692 280.972 21.4212C281.403 21.1473 281.742 20.7472 281.988 20.2209C282.237 19.6915 282.362 19.0421 282.362 18.2727ZM285.813 23V13.5455H289.183C289.918 13.5455 290.528 13.6793 291.011 13.9471C291.494 14.2148 291.856 14.5811 292.096 15.0458C292.336 15.5075 292.456 16.0276 292.456 16.6062C292.456 17.1879 292.334 17.7111 292.091 18.1758C291.851 18.6374 291.488 19.0037 291.002 19.2745C290.519 19.5423 289.911 19.6761 289.178 19.6761H286.861V18.4666H289.049C289.514 18.4666 289.891 18.3866 290.18 18.2266C290.469 18.0634 290.682 17.8419 290.817 17.5618C290.953 17.2817 291.02 16.9632 291.02 16.6062C291.02 16.2492 290.953 15.9322 290.817 15.6552C290.682 15.3782 290.468 15.1612 290.175 15.0043C289.886 14.8473 289.505 14.7688 289.031 14.7688H287.239V23H285.813Z" fill="#7C7B87"/>
<path d="M78.4238 34.105H85.3761C85.9226 34.105 86.3658 34.5353 86.3662 35.0665V41.9204L78.4238 34.105Z" fill="#E27537"/>
<path d="M112.211 34.3259H107.394V44.9718H112.211V34.3259Z" fill="#12316C"/>
<path fill-rule="evenodd" clip-rule="evenodd" d="M149.948 34.1736C146.335 34.1736 143.406 36.6723 143.406 39.754C143.406 42.8358 146.335 45.3345 149.948 45.3345C153.562 45.3345 156.491 42.8358 156.491 39.754C156.491 36.6723 153.561 34.1736 149.948 34.1736ZM149.948 43.1195C148.797 43.1195 147.864 41.6119 147.864 39.7536C147.864 37.8953 148.797 36.3863 149.948 36.3863C151.099 36.3863 152.032 37.8939 152.032 39.7536C152.032 41.6133 151.099 43.1195 149.948 43.1195Z" fill="#12316C"/>
<path fill-rule="evenodd" clip-rule="evenodd" d="M158.043 34.1887H162.158L165.373 38.8942V34.1887H169.74V45.0082H166.444L162.455 39.287V45.0082H158.043V34.1887Z" fill="#12316C"/>
<path fill-rule="evenodd" clip-rule="evenodd" d="M125.82 34.3264L125.812 41.1701C125.812 43.2704 124.061 44.9742 121.898 44.9742H118.114C115.954 44.9742 114.201 43.2704 114.201 41.1701V34.3259H118.914V42.8752H121.106V34.3259H125.82V34.3264Z" fill="#12316C"/>
<path fill-rule="evenodd" clip-rule="evenodd" d="M181.426 45.0253L175.717 45.0179C173.556 45.0179 171.345 43.3141 171.345 41.2138V37.9835C171.345 35.8832 173.557 34.1794 175.717 34.1794H183.538V36.3445H175.741V42.9541H179.401V40.5433H177.578V38.7368H183.514V44.1646C183.514 44.1646 183.545 45.0243 182.475 45.0243L181.426 45.0257V45.0253Z" fill="#12316C"/>
<path fill-rule="evenodd" clip-rule="evenodd" d="M139.567 45.1493L132.551 45.1419C130.05 45.1419 127.442 43.0888 127.442 40.56V36.6703C127.442 34.1392 130.05 32.0884 132.551 32.0884H141.551V34.6958H132.991V42.4141H136.818V39.752H135.117V37.5754H141.524V44.1123C141.524 44.1123 141.561 45.147 140.322 45.147L139.567 45.1488V45.1493Z" fill="#12316C"/>
<path fill-rule="evenodd" clip-rule="evenodd" d="M105.95 44.9719V42.5593H100.576V32.1396H95.0902L95.0769 43.935C95.0769 43.935 95.0379 44.9719 96.2789 44.9719H105.95Z" fill="#12316C"/>
<path fill-rule="evenodd" clip-rule="evenodd" d="M86.3674 43.9694H72.767C70.8144 43.9694 69.2302 42.4294 69.2302 40.5313V27.488H64.5404V40.8076C64.5404 44.9832 68.0244 48.3699 72.3219 48.3699H86.3674V43.9694Z" fill="#12316C"/>
<path fill-rule="evenodd" clip-rule="evenodd" d="M75.6513 41.9205H73.5378C72.3663 41.9205 71.4166 40.9974 71.4166 39.8586V30.24C71.4162 28.7208 72.6828 27.49 74.2456 27.49H85.7782V31.4389H75.6342V37.9013H79.8517L83.8946 41.9205H75.6513Z" fill="#12316C"/>
<path d="M191.401 45V35.5455H194.863C195.534 35.5455 196.09 35.6562 196.53 35.8778C196.97 36.0964 197.299 36.3933 197.518 36.7688C197.736 37.1412 197.846 37.5613 197.846 38.0291C197.846 38.4231 197.773 38.7554 197.629 39.0263C197.484 39.294 197.29 39.5095 197.047 39.6726C196.807 39.8326 196.542 39.9496 196.253 40.0234V40.1158C196.567 40.1312 196.873 40.2327 197.172 40.4205C197.473 40.6051 197.723 40.8683 197.92 41.2099C198.116 41.5515 198.215 41.967 198.215 42.4563C198.215 42.9395 198.101 43.3735 197.873 43.7582C197.649 44.1398 197.301 44.4429 196.83 44.6676C196.359 44.8892 195.757 45 195.025 45H191.401ZM192.828 43.7766H194.886C195.57 43.7766 196.059 43.6443 196.355 43.3796C196.65 43.1149 196.798 42.7841 196.798 42.3871C196.798 42.0885 196.722 41.8146 196.571 41.5653C196.421 41.3161 196.205 41.1175 195.925 40.9698C195.648 40.8221 195.319 40.7482 194.937 40.7482H192.828V43.7766ZM192.828 39.6357H194.739C195.059 39.6357 195.347 39.5741 195.602 39.451C195.861 39.3279 196.065 39.1555 196.216 38.9339C196.37 38.7093 196.447 38.4446 196.447 38.1399C196.447 37.7491 196.31 37.4213 196.036 37.1566C195.762 36.8919 195.342 36.7596 194.776 36.7596H192.828V39.6357ZM207.656 45L204.48 40.7621H203.474V45H202.047V35.5455H203.474V39.5387H203.94L207.513 35.5455H209.254L205.473 39.7788L209.397 45H207.656ZM211.07 39.3587H213.618C214.32 39.3587 214.917 39.4725 215.409 39.7003C215.902 39.928 216.277 40.2496 216.536 40.6651C216.798 41.0806 216.927 41.57 216.924 42.1332C216.927 42.6964 216.798 43.1934 216.536 43.6243C216.277 44.0552 215.902 44.3922 215.409 44.6353C214.917 44.8784 214.32 45 213.618 45H210.077V35.5455H211.509V43.7997H213.618C214.028 43.7997 214.372 43.7197 214.652 43.5597C214.936 43.3996 215.149 43.1919 215.294 42.9364C215.442 42.681 215.516 42.4071 215.516 42.1147C215.516 41.69 215.353 41.3253 215.026 41.0206C214.7 40.7128 214.231 40.5589 213.618 40.5589H211.07V39.3587ZM219.227 35.5455V45H217.796V35.5455H219.227ZM220.654 45V35.5455H224.024C224.759 35.5455 225.369 35.6793 225.852 35.9471C226.335 36.2148 226.697 36.5811 226.937 37.0458C227.177 37.5075 227.297 38.0276 227.297 38.6062C227.297 39.1879 227.175 39.7111 226.932 40.1758C226.692 40.6374 226.329 41.0037 225.842 41.2745C225.359 41.5423 224.751 41.6761 224.019 41.6761H221.702V40.4666H223.89C224.354 40.4666 224.731 40.3866 225.021 40.2266C225.31 40.0634 225.522 39.8419 225.658 39.5618C225.793 39.2817 225.861 38.9632 225.861 38.6062C225.861 38.2492 225.793 37.9322 225.658 37.6552C225.522 37.3782 225.309 37.1612 225.016 37.0043C224.727 36.8473 224.345 36.7688 223.871 36.7688H222.08V45H220.654ZM234.214 35.5455V36.7734H229.745V45H228.319V35.5455H234.214ZM236.174 39.3587H238.722C239.424 39.3587 240.021 39.4725 240.513 39.7003C241.006 39.928 241.381 40.2496 241.64 40.6651C241.901 41.0806 242.03 41.57 242.027 42.1332C242.03 42.6964 241.901 43.1934 241.64 43.6243C241.381 44.0552 241.006 44.3922 240.513 44.6353C240.021 44.8784 239.424 45 238.722 45H235.181V35.5455H236.612V43.7997H238.722C239.131 43.7997 239.476 43.7197 239.756 43.5597C240.039 43.3996 240.253 43.1919 240.398 42.9364C240.546 42.681 240.619 42.4071 240.619 42.1147C240.619 41.69 240.456 41.3253 240.13 41.0206C239.804 40.7128 239.334 40.5589 238.722 40.5589H236.174V39.3587ZM244.331 35.5455V45H242.9V35.5455H244.331ZM248.92 45.1293C248.286 45.1293 247.719 45.02 247.221 44.8015C246.725 44.583 246.333 44.2798 246.044 43.892C245.757 43.5012 245.603 43.0488 245.582 42.5348H247.031C247.05 42.8149 247.144 43.058 247.313 43.2642C247.485 43.4673 247.71 43.6243 247.987 43.7351C248.264 43.8459 248.572 43.9013 248.91 43.9013C249.283 43.9013 249.612 43.8366 249.898 43.7074C250.188 43.5781 250.414 43.3981 250.577 43.1673C250.74 42.9334 250.822 42.6641 250.822 42.3594C250.822 42.0424 250.74 41.7638 250.577 41.5238C250.417 41.2807 250.181 41.0898 249.871 40.9513C249.563 40.8129 249.19 40.7436 248.753 40.7436H247.955V39.5803H248.753C249.104 39.5803 249.412 39.5172 249.677 39.391C249.944 39.2648 250.154 39.0894 250.305 38.8647C250.455 38.637 250.531 38.3707 250.531 38.0661C250.531 37.7737 250.465 37.5198 250.332 37.3043C250.203 37.0858 250.018 36.915 249.778 36.7919C249.541 36.6688 249.261 36.6072 248.938 36.6072C248.63 36.6072 248.343 36.6642 248.075 36.7781C247.81 36.8888 247.595 37.0489 247.428 37.2582C247.262 37.4644 247.173 37.7121 247.161 38.0014H245.78C245.796 37.4905 245.947 37.0412 246.233 36.6534C246.522 36.2656 246.904 35.9625 247.378 35.744C247.852 35.5254 248.378 35.4162 248.957 35.4162C249.563 35.4162 250.086 35.5347 250.526 35.7717C250.969 36.0056 251.311 36.3179 251.551 36.7088C251.794 37.0997 251.914 37.5275 251.911 37.9922C251.914 38.5215 251.766 38.9709 251.468 39.3402C251.172 39.7095 250.778 39.9573 250.286 40.0835V40.1573C250.914 40.2527 251.4 40.502 251.745 40.9052C252.093 41.3084 252.265 41.8085 252.262 42.4055C252.265 42.9257 252.12 43.3919 251.828 43.8043C251.539 44.2167 251.143 44.5414 250.642 44.7784C250.14 45.0123 249.566 45.1293 248.92 45.1293ZM261.339 38.62H259.898C259.843 38.3123 259.74 38.0414 259.589 37.8075C259.438 37.5736 259.254 37.3751 259.035 37.212C258.817 37.0489 258.572 36.9258 258.301 36.8427C258.033 36.7596 257.749 36.718 257.447 36.718C256.902 36.718 256.415 36.855 255.984 37.1289C255.556 37.4028 255.217 37.8045 254.968 38.3338C254.722 38.8632 254.599 39.5095 254.599 40.2727C254.599 41.0421 254.722 41.6915 254.968 42.2209C255.217 42.7502 255.557 43.1503 255.988 43.4212C256.419 43.692 256.904 43.8274 257.443 43.8274C257.741 43.8274 258.024 43.7874 258.292 43.7074C258.563 43.6243 258.807 43.5027 259.026 43.3427C259.244 43.1826 259.429 42.9872 259.58 42.7564C259.734 42.5225 259.84 42.2547 259.898 41.9531L261.339 41.9577C261.262 42.4225 261.113 42.8503 260.891 43.2411C260.673 43.6289 260.391 43.9644 260.046 44.2475C259.705 44.5276 259.314 44.7446 258.874 44.8984C258.434 45.0523 257.953 45.1293 257.433 45.1293C256.615 45.1293 255.885 44.9354 255.245 44.5476C254.605 44.1567 254.1 43.5981 253.731 42.8718C253.365 42.1455 253.182 41.2791 253.182 40.2727C253.182 39.2633 253.366 38.3969 253.735 37.6737C254.105 36.9473 254.61 36.3903 255.25 36.0025C255.89 35.6116 256.618 35.4162 257.433 35.4162C257.935 35.4162 258.403 35.4885 258.837 35.6332C259.274 35.7747 259.666 35.984 260.014 36.261C260.362 36.5349 260.649 36.8704 260.877 37.2674C261.105 37.6613 261.259 38.1122 261.339 38.62ZM261.929 36.7734V35.5455H269.247V36.7734H266.297V45H264.875V36.7734H261.929ZM269.895 45H268.381L271.783 35.5455H273.431L276.834 45H275.319L272.646 37.2628H272.573L269.895 45ZM270.149 41.2976H275.061V42.4979H270.149V41.2976ZM277.549 45V35.5455H278.975V39.6541H283.689V35.5455H285.12V45H283.689V40.8775H278.975V45H277.549ZM286.547 45V35.5455H292.475V36.7734H287.974V39.6541H292.166V40.8775H287.974V43.772H292.53V45H286.547Z" fill="#7C7B87"/>
</svg>
