<svg width="14" height="20" viewBox="0 0 14 20" fill="none" xmlns="http://www.w3.org/2000/svg">
<path fill-rule="evenodd" clip-rule="evenodd" d="M0 7.26489C0 3.39489 3.13 0.264893 7 0.264893C10.87 0.264893 14 3.39489 14 7.26489C14 11.4349 9.58 17.1849 7.77 19.3749C7.37 19.8549 6.64 19.8549 6.24 19.3749C4.42 17.1849 0 11.4349 0 7.26489ZM4.5 7.26489C4.5 8.64489 5.62 9.76489 7 9.76489C8.38 9.76489 9.5 8.64489 9.5 7.26489C9.5 5.88489 8.38 4.76489 7 4.76489C5.62 4.76489 4.5 5.88489 4.5 7.26489Z" fill="#E1282E"/>
</svg>
