<svg width="49" height="43" viewBox="0 0 49 43" fill="none" xmlns="http://www.w3.org/2000/svg">
<g clip-path="url(#clip0_234_547)">
<path d="M1.01257 25.3583H47.9873V1.0065H1.01257V25.3583Z" stroke="#495053" stroke-width="2" stroke-linecap="round" stroke-linejoin="round"/>
<path d="M24.5 21.1086C27.8051 21.1086 30.4774 17.5579 30.4774 13.1824C30.4774 8.80688 27.8051 5.25616 24.5 5.25616C21.1949 5.25616 18.5227 8.80688 18.5227 13.1824C18.5227 17.5579 21.1949 21.1086 24.5 21.1086Z" stroke="#495053" stroke-width="2" stroke-linecap="round" stroke-linejoin="round"/>
<path d="M9.56366 24.2819C9.56366 20.2279 6.25855 16.9568 2.19397 16.9568" stroke="#495053" stroke-width="2" stroke-linecap="round" stroke-linejoin="round"/>
<path d="M39.4363 24.2819C39.4363 20.2279 42.7414 16.9568 46.806 16.9568" stroke="#495053" stroke-width="2" stroke-linecap="round" stroke-linejoin="round"/>
<path d="M9.56366 2.08289C9.56366 6.13685 6.25855 9.40798 2.19397 9.40798" stroke="#495053" stroke-width="2" stroke-linecap="round" stroke-linejoin="round"/>
<path d="M39.4363 2.08289C39.4363 6.13685 42.7414 9.40798 46.806 9.40798" stroke="#495053" stroke-width="2" stroke-linecap="round" stroke-linejoin="round"/>
<path d="M12.5313 14.7201C13.3892 14.7201 14.0784 14.0351 14.0784 13.1824C14.0784 12.3296 13.3892 11.6447 12.5313 11.6447C11.6734 11.6447 10.9843 12.3296 10.9843 13.1824C10.9843 14.0351 11.6734 14.7201 12.5313 14.7201Z" stroke="#495053" stroke-width="2" stroke-linecap="round" stroke-linejoin="round"/>
<path d="M36.4547 14.7201C37.3126 14.7201 38.0017 14.0351 38.0017 13.1824C38.0017 12.3296 37.3126 11.6447 36.4547 11.6447C35.5967 11.6447 34.9076 12.3296 34.9076 13.1824C34.9076 14.0351 35.5967 14.7201 36.4547 14.7201Z" stroke="#495053" stroke-width="2" stroke-linecap="round" stroke-linejoin="round"/>
<path d="M1.1814 31.0338H47.8186" stroke="#495053" stroke-width="2" stroke-linecap="round" stroke-linejoin="round"/>
<path d="M1.1814 36.5137H47.8186" stroke="#495053" stroke-width="2" stroke-linecap="round" stroke-linejoin="round"/>
<path d="M1.1814 41.9935H47.8186" stroke="#495053" stroke-width="2" stroke-linecap="round" stroke-linejoin="round"/>
</g>
<defs>
<clipPath id="clip0_234_547">
<rect width="49" height="43" fill="white"/>
</clipPath>
</defs>
</svg>
