<svg xmlns="http://www.w3.org/2000/svg" width="40" height="40" fill="none"><g clip-path="url(#a)"><path fill="#F0F0F0" d="M20 40c11.046 0 20-8.954 20-20S31.046 0 20 0C8.955 0 0 8.954 0 20s8.955 20 20 20Z"/><path fill="#A2001D" d="M5.858 34.142a20.123 20.123 0 0 0 2.673 2.246L36.388 8.531a20.114 20.114 0 0 0-4.92-4.919L3.613 31.47a20.118 20.118 0 0 0 2.246 2.673Z"/><path fill="#0052B4" d="M5.858 5.857c-6.31 6.31-7.521 15.786-3.637 23.313L29.17 2.22C21.643-1.663 12.167-.452 5.858 5.857Z"/><path fill="#496E2D" d="M34.142 34.142c6.31-6.31 7.52-15.785 3.636-23.312L10.83 37.778c7.527 3.885 17.002 2.674 23.312-3.636Z"/><path fill="#FFDA44" d="m16.522 11.304-2.241 1.054 1.193 2.17-2.434-.465-.308 2.459-1.695-1.808-1.695 1.808-.308-2.458-2.434.465 1.193-2.17-2.24-1.055 2.24-1.054L6.6 8.08l2.434.465.308-2.458 1.695 1.808 1.695-1.808.309 2.458 2.433-.465-1.193 2.17 2.24 1.054Z"/></g><defs><clipPath id="a"><path fill="#fff" d="M0 0h40v40H0z"/></clipPath></defs></svg>