<svg width="48" height="48" viewBox="0 0 48 48" fill="none" xmlns="http://www.w3.org/2000/svg">
<g clip-path="url(#clip0_193_122)">
<path d="M0 27.75C0.12 26.8725 0.21 25.9875 0.3675 25.11C1.5225 18.8175 4.68 13.755 9.8025 9.94501C14.1 6.74251 18.975 5.22001 24.33 5.26501C35.5875 5.37001 45.4275 13.59 47.5425 24.6525C47.715 25.5525 47.7975 26.475 47.925 27.3825C47.94 27.5025 47.9775 27.6225 48.0075 27.7425C48.0075 28.74 48.0075 29.745 48.0075 30.7425C47.88 31.65 47.7825 32.565 47.625 33.4725C47.1525 36.2025 46.215 38.775 44.835 41.175C44.3775 41.97 43.5975 42.18 42.795 41.73C41.535 41.01 40.275 40.29 39.0225 39.555C38.2725 39.1125 38.04 38.28 38.4525 37.59C38.85 36.915 39.675 36.7125 40.4175 37.125C41.2725 37.605 42.12 38.1 43.0125 38.6175C44.2425 36.1125 44.9475 33.495 45.135 30.6675C44.085 30.6675 43.0875 30.675 42.0975 30.6675C41.25 30.66 40.65 30.015 40.695 29.19C40.7325 28.4325 41.34 27.8775 42.1725 27.8625C43.14 27.8475 44.1075 27.8625 45.135 27.8625C44.97 25.065 44.2425 22.4625 43.02 19.935C42.36 20.31 41.73 20.67 41.1 21.03C40.845 21.18 40.59 21.3375 40.3275 21.4725C39.63 21.825 38.8275 21.5925 38.4525 20.9475C38.0625 20.28 38.265 19.455 38.955 19.035C39.6975 18.5775 40.47 18.1575 41.22 17.7225C41.325 17.6625 41.43 17.5875 41.5875 17.49C40.035 15.1725 38.115 13.26 35.79 11.6925C35.265 12.5925 34.7775 13.4625 34.2675 14.3175C33.9225 14.895 33.3225 15.1425 32.7 14.9925C32.1375 14.8575 31.665 14.3475 31.665 13.755C31.665 13.4325 31.77 13.0725 31.9275 12.7875C32.37 11.9475 32.865 11.1375 33.3525 10.2825C30.8325 9.04501 28.2225 8.34751 25.41 8.15251C25.41 9.17251 25.4175 10.155 25.41 11.1375C25.4025 11.895 24.945 12.465 24.2625 12.585C23.3775 12.735 22.62 12.1125 22.5975 11.19C22.5825 10.35 22.5975 9.50251 22.5975 8.66251C22.5975 8.51251 22.5975 8.35501 22.5975 8.16001C19.7925 8.34001 17.1825 9.05251 14.655 10.2825C15.1425 11.13 15.6375 11.94 16.08 12.78C16.2375 13.0725 16.3425 13.425 16.3425 13.7475C16.3425 14.3475 15.8775 14.8575 15.3075 14.9925C14.7075 15.135 14.1075 14.91 13.77 14.3625C13.35 13.6875 12.9675 12.99 12.57 12.3C12.4575 12.1125 12.3525 11.925 12.2175 11.7C9.9 13.26 7.9875 15.1725 6.4125 17.505C7.29 18.015 8.1375 18.495 8.9775 18.9975C9.5925 19.365 9.8625 19.9575 9.7125 20.5725C9.48 21.51 8.4825 21.9375 7.605 21.4425C6.75 20.9625 5.9025 20.46 5.01 19.9425C3.7725 22.44 3.075 25.05 2.8725 27.8775C3.195 27.8775 3.4875 27.8775 3.78 27.8775C4.5 27.8775 5.22 27.8625 5.9325 27.885C6.7425 27.9075 7.3275 28.5225 7.3275 29.295C7.3275 30.075 6.7425 30.6675 5.925 30.6825C5.1 30.6975 4.2675 30.69 3.4425 30.69C3.2775 30.69 3.105 30.69 2.88 30.69C3.0525 33.51 3.7725 36.1125 4.995 38.64C5.88 38.13 6.735 37.6275 7.5975 37.1475C8.3625 36.72 9.24 36.9675 9.6075 37.7025C9.93 38.3475 9.75 39.12 9.105 39.51C7.785 40.305 6.4425 41.0775 5.0925 41.8275C4.41 42.2025 3.615 41.9625 3.225 41.2875C1.725 38.6925 0.75 35.91 0.2925 32.9475C0.1725 32.1975 0.09 31.47 0 30.75C0 29.745 0 28.7475 0 27.75Z" fill="#495053"/>
<path d="M28.485 29.34C28.35 29.865 28.2525 30.405 28.08 30.915C27.9975 31.1625 28.005 31.305 28.1925 31.485C28.6125 31.8825 29.0175 32.295 29.4225 32.7075C30.0525 33.3525 30.075 34.2225 29.49 34.7925C28.92 35.3475 28.0575 35.31 27.435 34.7025C27.0225 34.2975 26.61 33.8925 26.2125 33.4725C26.04 33.285 25.89 33.255 25.6425 33.3525C22.95 34.3875 20.1525 32.8125 19.6425 29.9775C19.5075 29.2275 19.5525 28.47 19.8525 27.7725C20.0175 27.39 19.9275 27.18 19.65 26.9025C17.58 24.8625 15.5325 22.8 13.4775 20.745C13.065 20.3325 12.915 19.845 13.0725 19.29C13.2225 18.765 13.5825 18.435 14.115 18.315C14.6925 18.1875 15.1425 18.42 15.54 18.825C17.58 20.8725 19.6275 22.9125 21.6675 24.96C21.915 25.2075 22.0875 25.2825 22.455 25.1475C25.3575 24.0375 28.4175 26.1975 28.485 29.34ZM25.5975 29.25C25.59 28.365 24.855 27.645 23.97 27.66C23.085 27.675 22.38 28.41 22.4025 29.3025C22.4175 30.18 23.1225 30.8625 24.0075 30.855C24.9 30.8625 25.605 30.15 25.5975 29.25Z" fill="#495053"/>
<path d="M24 42.735C22.515 42.735 21.03 42.75 19.5525 42.7275C18.3825 42.7125 17.7 41.55 18.285 40.59C18.5925 40.0875 19.065 39.915 19.635 39.915C22.32 39.9225 25.005 39.915 27.69 39.915C27.8925 39.915 28.095 39.915 28.2975 39.915C29.295 39.9225 29.9175 40.47 29.91 41.3325C29.9025 42.1725 29.2725 42.72 28.305 42.72C26.88 42.735 25.44 42.735 24 42.735Z" fill="#495053"/>
</g>
<defs>
<clipPath id="clip0_193_122">
<rect width="48" height="48" fill="white"/>
</clipPath>
</defs>
</svg>
