<svg width="48" height="48" viewBox="0 0 48 48" fill="none" xmlns="http://www.w3.org/2000/svg">
<g clip-path="url(#clip0_193_219)">
<path d="M-2.19736e-05 7.31249C0.344978 5.85749 1.18498 4.64249 1.96498 3.41249C3.41248 1.13999 6.56998 0.824992 8.44498 2.75249C9.50248 3.83999 10.47 5.00999 11.4825 6.12749C11.6775 6.34499 11.91 6.53999 12.1575 6.68999C13.9725 7.75499 15.8025 8.79749 17.67 9.87749C18.135 9.06749 18.5925 8.27999 19.0725 7.45499C18.9 7.34999 18.7575 7.26749 18.615 7.17749C17.565 6.56999 16.5 5.96999 15.4575 5.34749C14.73 4.91249 14.52 4.08749 14.925 3.40499C15.3225 2.74499 16.1325 2.50499 16.845 2.91749C20.0925 4.77749 23.34 6.65249 26.5725 8.53499C27.285 8.94749 27.4725 9.77249 27.0825 10.4475C26.7 11.115 25.89 11.3475 25.17 10.9575C24.105 10.3725 23.055 9.74999 22.005 9.14249C21.855 9.05999 21.705 8.97749 21.51 8.87249C21.045 9.67499 20.5875 10.47 20.1075 11.295C20.28 11.3925 20.4225 11.4825 20.565 11.565C21.9975 12.39 23.415 13.2375 24.8625 14.04C26.13 14.745 26.9025 15.78 27.255 17.175C27.6675 18.81 28.1325 20.43 28.545 22.0575C28.6275 22.365 28.755 22.47 29.07 22.515C33.63 23.1525 38.19 23.805 42.7425 24.465C43.5375 24.5775 44.0175 25.035 44.1075 25.725C44.1825 26.3475 43.8375 26.91 43.14 27.225C36.2325 30.345 29.325 33.465 22.41 36.57C21.0825 37.17 19.755 37.08 18.495 36.36C13.29 33.36 8.07748 30.3675 2.88748 27.345C0.644978 26.04 0.029978 23.5875 1.31998 21.3225C2.43748 19.3725 3.55498 17.4225 4.69498 15.4875C4.87498 15.18 4.87498 15 4.62748 14.73C3.68998 13.71 2.78998 12.645 1.85248 11.6175C0.997478 10.6875 0.202478 9.74249 -0.022522 8.44499C-2.19736e-05 8.06249 -2.19736e-05 7.68749 -2.19736e-05 7.31249ZM5.78998 19.2375C5.91748 19.32 6.01498 19.395 6.11998 19.455C12.945 23.3925 19.77 27.3375 26.6025 31.2675C26.7825 31.3725 27.09 31.38 27.2775 31.2975C30.615 29.8125 33.9375 28.3125 37.26 26.805C37.3725 26.7525 37.4775 26.685 37.6575 26.58C34.2375 26.0925 30.9375 25.605 27.63 25.155C26.82 25.0425 26.34 24.645 26.13 23.85C25.6125 21.855 25.0575 19.875 24.5475 17.88C24.3825 17.25 24.0525 16.815 23.4825 16.485C19.5975 14.25 15.7275 12 11.8425 9.76499C11.7 9.68249 11.55 9.61499 11.3925 9.53249C9.50998 12.7875 7.65748 16.005 5.78998 19.2375ZM23.775 32.8875C17.25 29.1225 10.8225 25.41 4.37998 21.69C4.16248 22.065 3.96748 22.38 3.78748 22.71C3.23998 23.67 3.43498 24.3825 4.39498 24.945C5.49748 25.59 6.60748 26.2275 7.71748 26.865C11.715 29.175 15.7125 31.4775 19.71 33.795C20.1375 34.0425 20.58 34.2675 21.0825 34.065C21.96 33.6975 22.8225 33.3075 23.775 32.8875ZM6.42748 12.5025C7.28998 11.0025 8.11498 9.57749 8.93998 8.14499C8.96998 8.09249 9.02998 8.03999 9.02998 7.97999C9.02998 7.84499 9.05998 7.65749 8.99248 7.57499C8.16748 6.62249 7.34248 5.66249 6.47248 4.74749C5.80498 4.05749 4.79248 4.18499 4.27498 5.01749C3.83248 5.71499 3.42748 6.43499 3.02998 7.15499C2.70748 7.73249 2.74498 8.30999 3.17248 8.81249C4.22998 10.035 5.30998 11.2425 6.42748 12.5025Z" fill="#495053"/>
<path d="M48 41.535C47.79 42.5175 47.4825 43.455 46.86 44.2725C45.135 46.545 41.97 47.175 39.5175 45.72C37.035 44.2425 36.0525 41.16 37.2675 38.55C38.4975 35.91 39.7575 33.2775 41.0025 30.6375C41.2875 30.0375 41.7075 29.6325 42.3975 29.64C43.065 29.6475 43.47 30.0525 43.7475 30.6375C44.9925 33.2925 46.26 35.9325 47.4975 38.595C47.7225 39.0825 47.835 39.6225 48 40.1325C48 40.5975 48 41.0625 48 41.535ZM42.3975 34.3275C42.3 34.5 42.2625 34.56 42.225 34.6275C41.46 36.2475 40.6875 37.86 39.93 39.4875C39.7725 39.825 39.66 40.185 39.6 40.5525C39.42 41.64 40.0125 42.7725 41.025 43.3275C42.0675 43.8975 43.2825 43.77 44.205 42.99C45.045 42.285 45.45 41.01 45.015 40.02C44.205 38.1375 43.305 36.2925 42.3975 34.3275Z" fill="#495053"/>
</g>
<defs>
<clipPath id="clip0_193_219">
<rect width="48" height="48" fill="white"/>
</clipPath>
</defs>
</svg>
