<svg width="18" height="18" viewBox="0 0 18 18" fill="none" xmlns="http://www.w3.org/2000/svg">
<path fill-rule="evenodd" clip-rule="evenodd" d="M13.9918 8.01934H9.99179C9.44179 8.01934 8.99179 7.56934 8.99179 7.01934V3.01934C8.99179 2.46934 9.44179 2.01934 9.99179 2.01934C10.5418 2.01934 10.9918 2.46934 10.9918 3.01934V4.60934L15.3018 0.299336C15.6918 -0.0906641 16.3218 -0.0906641 16.7118 0.299336C17.1018 0.689336 17.1018 1.31934 16.7118 1.70934L12.4018 6.01934H13.9918C14.5418 6.01934 14.9918 6.46934 14.9918 7.01934C14.9918 7.56934 14.5418 8.01934 13.9918 8.01934ZM13.6818 11.9893L16.2218 12.2793C17.2318 12.3993 17.9918 13.2493 17.9818 14.2593V15.9893C17.9818 17.1193 17.0418 18.0593 15.9118 17.9893C7.38179 17.4593 0.551786 10.6393 0.0217857 2.09934C-0.0482143 0.969336 0.891786 0.0293359 2.02179 0.0293359H3.75179C4.77179 0.0293359 5.62179 0.789336 5.74179 1.79934L6.03179 4.31934C6.10179 4.92934 5.89179 5.52934 5.46179 5.95934L3.61179 7.80934C5.05179 10.6493 7.37179 12.9593 10.2018 14.3993L12.0418 12.5593C12.4718 12.1293 13.0718 11.9193 13.6818 11.9893Z" fill="#E1282E"/>
</svg>
