<svg width="48" height="48" viewBox="0 0 48 48" fill="none" xmlns="http://www.w3.org/2000/svg">
<path d="M0 41.25C0.105 40.86 0.1875 40.4625 0.315 40.0875C1.1925 37.4775 3.6225 35.88 6.4725 36C6.69 36 6.975 35.91 7.125 35.76C11.7975 31.11 16.455 26.445 21.1125 21.7875C21.165 21.735 21.2175 21.675 21.24 21.6525C20.685 21.0975 20.1375 20.55 19.5525 19.9725C19.5075 20.01 19.395 20.115 19.29 20.22C18.57 20.94 17.8575 21.66 17.13 22.3725C16.575 22.9125 15.9075 22.95 15.375 22.4325C14.22 21.3075 13.0875 20.175 11.9625 19.02C11.4825 18.525 11.505 17.8875 11.9475 17.37C12.045 17.25 12.165 17.145 12.27 17.0325C17.73 11.58 23.1825 6.12 28.65 0.675C28.9125 0.4125 29.235 0.225 29.535 0C29.7225 0 29.91 0 30.0975 0C30.3675 0.2025 30.675 0.3675 30.915 0.6075C36.405 6.0825 41.8875 11.5725 47.3625 17.0625C47.61 17.31 47.79 17.625 48.0075 17.91C48.0075 18.0975 48.0075 18.285 48.0075 18.4725C47.7975 18.7575 47.6175 19.0725 47.37 19.3275C41.91 24.8025 36.4425 30.2625 30.975 35.73C30.0825 36.6225 29.55 36.6225 28.65 35.715C27.675 34.74 26.7075 33.7725 25.7325 32.7975C25.035 32.0925 25.035 31.47 25.7325 30.7725C26.5125 29.985 27.3 29.2125 28.05 28.4625C27.48 27.8925 26.9325 27.345 26.3625 26.775C26.325 26.8125 26.22 26.895 26.1225 26.9925C21.5175 31.5975 16.9125 36.2025 12.3 40.8C12.075 41.025 11.9775 41.2425 11.9925 41.5725C12.15 44.7825 10.11 47.34 6.9675 47.9175C6.885 47.9325 6.8175 47.97 6.75 48C6.2475 48 5.7525 48 5.25 48C5.1525 47.97 5.0475 47.925 4.95 47.9025C2.5425 47.385 0.96 45.9525 0.225 43.5975C0.135 43.32 0.075 43.035 0 42.75C0 42.2475 0 41.7525 0 41.25ZM26.475 6.435C22.53 10.38 18.5775 14.3325 14.715 18.195C15.21 18.69 15.7575 19.245 16.32 19.8075C17.025 19.095 17.775 18.3375 18.525 17.5875C19.3275 16.785 19.9125 16.7775 20.715 17.58C23.94 20.805 27.165 24.03 30.39 27.255C31.23 28.095 31.2225 28.665 30.375 29.5125C29.625 30.2625 28.875 31.005 28.1775 31.7025C28.7625 32.295 29.31 32.8425 29.7825 33.33C33.705 29.4075 37.65 25.4625 41.58 21.54C36.5475 16.515 31.485 11.445 26.475 6.435ZM22.935 23.2725C22.8075 23.4375 22.7025 23.595 22.5675 23.7225C17.8275 28.4625 13.0875 33.2025 8.355 37.95C7.8825 38.4225 7.4025 38.67 6.7275 38.4675C6.465 38.385 6.1725 38.3775 5.895 38.3925C3.795 38.4675 2.2575 40.2375 2.445 42.3525C2.6175 44.325 4.5075 45.8175 6.51 45.5475C8.5575 45.2775 9.96 43.3425 9.54 41.3025C9.39 40.605 9.5775 40.1175 10.065 39.63C14.8275 34.89 19.575 30.135 24.3225 25.3875C24.45 25.26 24.57 25.125 24.675 25.02C24.09 24.435 23.5575 23.895 22.935 23.2725ZM44.9625 18.2475C39.885 13.1775 34.8075 8.0925 29.7975 3.09C29.295 3.585 28.7475 4.1325 28.26 4.62C33.3 9.66 38.37 14.73 43.44 19.8C43.9425 19.2825 44.475 18.7425 44.9625 18.2475Z" fill="#495053"/>
<path d="M33.3975 18.1874C33.3975 20.1974 31.8 21.7949 29.7975 21.7874C27.795 21.7799 26.1975 20.1674 26.2125 18.1724C26.2275 16.1849 27.81 14.6099 29.79 14.6024C31.8 14.5874 33.3975 16.1774 33.3975 18.1874ZM29.7975 19.3949C30.435 19.4024 30.9975 18.8549 31.0125 18.2174C31.0275 17.5799 30.4875 17.0174 29.8425 16.9949C29.19 16.9724 28.605 17.5424 28.605 18.2024C28.6125 18.8324 29.16 19.3874 29.7975 19.3949Z" fill="#495053"/>
</svg>
