<svg width="34" height="46" viewBox="0 0 34 46" fill="none" xmlns="http://www.w3.org/2000/svg">
<path d="M12.11 25.655C11.8475 25.655 11.66 25.655 11.4725 25.655C8.38247 25.655 5.28498 25.655 2.19498 25.655C1.27998 25.655 0.657476 25.235 0.544976 24.455C0.492476 24.095 0.582476 23.675 0.732476 23.33C3.05748 18.0425 5.39748 12.77 7.73747 7.49003C8.59997 5.53253 9.48498 3.59003 10.3325 1.62503C10.6775 0.822534 11.24 0.470034 12.1175 0.477534C15.9575 0.500034 19.805 0.485034 23.645 0.485034C25.055 0.485034 25.715 1.43753 25.2125 2.76503C23.6525 6.92753 22.085 11.09 20.525 15.2525C20.465 15.41 20.4125 15.5675 20.33 15.7775C20.5625 15.7775 20.7275 15.7775 20.9 15.7775C24.5075 15.7775 28.115 15.785 31.73 15.77C32.45 15.77 33.0275 15.98 33.3425 16.6625C33.6575 17.3525 33.4175 17.9225 32.9525 18.4625C25.325 27.245 17.6975 36.0425 10.07 44.8325C9.48498 45.5075 8.79498 45.6875 8.11998 45.335C7.42998 44.9825 7.17497 44.3 7.41497 43.4075C8.92997 37.6775 10.4525 31.9475 11.975 26.2175C12.0125 26.0525 12.05 25.8875 12.11 25.655ZM4.28748 22.6475C4.57248 22.6475 4.75998 22.6475 4.94748 22.6475C7.88748 22.6475 10.82 22.6475 13.76 22.6475C15.1175 22.6475 15.7625 23.48 15.4175 24.8C14.315 29.015 13.205 33.2225 12.1025 37.43C12.065 37.5725 12.035 37.715 11.9975 37.865C12.0275 37.88 12.0575 37.9025 12.095 37.9175C17.6 31.565 23.0975 25.2125 28.67 18.7775C28.3775 18.7775 28.2125 18.7775 28.0475 18.7775C24.845 18.7775 21.6425 18.7775 18.44 18.7775C17.0075 18.7775 16.355 17.84 16.8575 16.505C18.2975 12.68 19.73 8.84753 21.17 5.02253C21.3575 4.52753 21.5375 4.04003 21.74 3.48503C21.515 3.48503 21.365 3.48503 21.215 3.48503C18.575 3.48503 15.935 3.49253 13.295 3.47753C12.9275 3.47753 12.755 3.58253 12.605 3.92003C10.2425 9.26003 7.87248 14.5925 5.50248 19.925C5.10498 20.8025 4.71498 21.6875 4.28748 22.6475Z" fill="#495053"/>
</svg>
