<svg width="102" height="102" viewBox="0 0 102 102" fill="none" xmlns="http://www.w3.org/2000/svg">
<g opacity="0.78">
<path d="M21.6213 74.0631C21.4688 74.063 21.3185 74.0301 21.1825 73.9671C21.0464 73.9041 20.9285 73.8127 20.8383 73.7003C20.748 73.5879 20.688 73.4577 20.6629 73.3202C20.6379 73.1827 20.6486 73.0417 20.6941 72.9086L29.7428 46.5075H17.4552C17.2906 46.5075 17.1288 46.4694 16.9848 46.3966C16.8408 46.3238 16.7194 46.2189 16.6319 46.0915C16.5444 45.9641 16.4936 45.8185 16.4844 45.6683C16.4752 45.5182 16.5079 45.3683 16.5793 45.2328L32.968 14.1217C33.0475 13.971 33.1718 13.8438 33.3267 13.7549C33.4816 13.6659 33.6609 13.6187 33.8438 13.6187H49.1217C49.283 13.6187 49.4418 13.6554 49.5838 13.7255C49.7257 13.7956 49.8464 13.8969 49.9348 14.0202C50.0233 14.1436 50.0767 14.2851 50.0904 14.4321C50.1041 14.5791 50.0776 14.7269 50.0132 14.8621L41.2993 33.1742H54.3996C54.5811 33.1742 54.7589 33.2205 54.913 33.3081C55.0671 33.3957 55.1914 33.5209 55.2717 33.6697C55.352 33.8184 55.3852 33.9848 55.3675 34.1499C55.3497 34.315 55.2818 34.4722 55.1715 34.6039L22.3937 73.715C22.3028 73.8233 22.1858 73.9111 22.0519 73.9714C21.918 74.0318 21.7707 74.0631 21.6213 74.0631ZM19.0028 44.7298H31.0663C31.2188 44.7298 31.3692 44.7626 31.5053 44.8256C31.6413 44.8886 31.7593 44.98 31.8496 45.0924C31.9399 45.2048 32 45.335 32.0251 45.4726C32.0501 45.6101 32.0395 45.7512 31.9939 45.8843L24.1933 68.6447L52.43 34.952H39.8163C39.6549 34.952 39.4962 34.9153 39.3542 34.8452C39.2123 34.7751 39.0916 34.6738 39.0032 34.5504C38.9147 34.427 38.8612 34.2855 38.8476 34.1385C38.8339 33.9916 38.8604 33.8438 38.9248 33.7085L47.6387 15.3964H34.4549L19.0028 44.7298Z" fill="black"/>
</g>
</svg>
