<svg width="58" height="58" viewBox="0 0 58 58" fill="none" xmlns="http://www.w3.org/2000/svg">
<path d="M28.9638 5.31958C37.7816 5.41927 45.3578 11.7993 46.8894 20.4268C47.5147 23.9611 46.7988 27.2236 45.24 30.3774C43.1919 34.5099 40.5184 38.2255 37.5641 41.7418C35.4706 44.243 33.2413 46.6355 31.0572 49.0643C30.3141 49.889 29.3625 50.2605 28.2478 49.9343C27.8853 49.8255 27.4866 49.6352 27.2328 49.3633C22.3753 44.3065 17.7716 39.0411 14.1556 32.9874C12.9775 31.0118 11.9625 28.9546 11.3281 26.7252C10.4672 23.7165 10.7572 20.7258 11.7903 17.844C14.0831 11.4005 18.6234 7.37677 25.2663 5.79083C26.4716 5.50989 27.7313 5.47364 28.9638 5.31958ZM28.6466 7.23177C28.0756 7.28614 27.1603 7.31333 26.2813 7.48552C20.3725 8.65458 16.1856 12.0077 13.8656 17.5721C12.76 20.2365 12.3069 23.0458 13.0319 25.9186C13.6572 28.3927 14.8353 30.6221 16.1675 32.7699C19.5931 38.2799 23.8072 43.1555 28.2841 47.8227C28.7825 48.3393 29.2719 48.3302 29.7794 47.7593C32.1628 45.0768 34.5916 42.4396 36.8844 39.6846C39.3494 36.7302 41.5425 33.5674 43.3188 30.1327C44.8866 27.0968 45.7022 23.9793 45.0134 20.5083C43.6088 13.349 37.3194 7.32239 28.6466 7.23177Z" fill="#312A05"/>
<path d="M43.2281 48.9284C41.8416 48.2759 40.4731 48.0131 39.0956 47.8046C37.7181 47.5962 36.3406 47.4512 34.8725 47.2609C35.3528 46.7171 35.7969 46.1915 36.2591 45.6931C36.3316 45.6206 36.5038 45.6115 36.6216 45.6206C38.7513 45.82 40.8628 46.0828 42.8928 46.7896C43.4184 46.9709 43.9441 47.2246 44.4153 47.5328C45.6297 48.3393 45.6569 49.5446 44.3972 50.2878C43.5363 50.7953 42.5484 51.1487 41.5788 51.4115C38.9778 52.0912 36.2953 52.2815 33.6219 52.4356C29.5256 52.6712 25.4294 52.5987 21.3422 52.209C19.1672 52.0006 16.9831 51.7287 14.9169 50.9675C14.4094 50.7771 13.9019 50.5324 13.4669 50.2153C12.4066 49.4449 12.3794 48.3121 13.485 47.6234C14.2916 47.1249 15.1978 46.7081 16.1131 46.4996C17.8169 46.11 19.5659 45.9015 21.2969 45.6387C21.4509 45.6115 21.6866 45.675 21.7863 45.7837C22.2031 46.2368 22.5928 46.7262 23.055 47.2881C20.1822 47.5962 17.3728 47.8046 14.5544 48.9103C14.9078 49.0734 15.1253 49.2275 15.3609 49.2818C17.2369 49.6715 19.1128 50.1518 21.0069 50.3874C25.2934 50.9131 29.5981 50.8678 33.9028 50.6231C36.6488 50.4599 39.3947 50.1699 42.0591 49.4087C42.3128 49.3362 42.5575 49.2456 42.8113 49.1459C42.9109 49.1096 43.0106 49.0462 43.2281 48.9284Z" fill="#312A05"/>
<path d="M28.9819 9.0442C36.9478 9.03514 43.4819 15.5511 43.5 23.517C43.5091 31.5101 36.966 38.0623 28.9819 38.0623C21.016 38.0533 14.491 31.5192 14.491 23.5533C14.491 15.5873 21.016 9.05326 28.9819 9.0442ZM17.4544 28.6645C17.4997 28.6373 17.5631 28.6283 17.5903 28.592C18.8772 27.3142 20.1641 26.0364 21.4328 24.7404C21.5506 24.6226 21.605 24.3689 21.5778 24.1876C20.7169 17.9617 26.6619 13.1223 32.5525 15.2611C33.5494 15.6236 33.6944 16.2851 32.9422 17.0464C31.8638 18.1339 30.7853 19.2214 29.6888 20.2908C29.4531 20.5264 29.3625 20.7348 29.426 21.0792C29.7703 22.8464 29.7613 22.8645 31.5285 23.1726C31.7731 23.2179 32.1266 23.0911 32.3078 22.9189C33.4497 21.8223 34.5553 20.6804 35.6881 19.5658C36.3135 18.9495 37.0747 19.0945 37.2922 19.9464C37.555 20.9433 37.8269 21.9673 37.8269 22.9914C37.836 28.0301 33.4316 31.7095 28.42 30.9573C28.2206 30.9301 27.9397 31.0389 27.7947 31.1839C26.8431 32.0992 25.9188 33.0508 24.9763 33.9751C24.6047 34.3376 24.206 34.682 23.78 35.0626C28.6738 37.3826 35.4163 36.277 39.2769 30.9211C43.0106 25.7283 42.2947 18.5961 37.6275 14.2733C32.8878 9.88701 25.7466 9.68764 20.871 13.7929C15.805 18.0795 15.4153 24.6951 17.4544 28.6645ZM35.8422 21.777C34.8544 22.7648 33.9119 23.6983 32.9875 24.6408C32.625 25.0123 32.2172 25.1483 31.7097 25.0395C30.8035 24.8492 29.8972 24.6589 28.991 24.4958C28.4291 24.3961 28.1391 24.0789 28.0394 23.5261C27.8853 22.6742 27.7313 21.8133 27.5138 20.9795C27.3506 20.3542 27.4866 19.9192 27.9669 19.4842C28.9185 18.6051 29.8066 17.6626 30.731 16.7473C30.7128 16.6839 30.6947 16.6205 30.6766 16.557C29.9153 16.6023 29.145 16.5661 28.411 16.7201C24.9853 17.4451 22.8375 20.7529 23.5081 24.2239C23.626 24.822 23.5081 25.2751 23.0641 25.7011C22.2666 26.4533 21.5053 27.2417 20.735 28.0211C19.9375 28.8186 19.14 29.6161 18.3335 30.4226C19.3666 31.9723 20.5991 33.2411 22.1578 34.2198C23.7528 32.6158 25.3388 31.0479 26.8975 29.462C27.2963 29.0542 27.7041 28.9183 28.266 29.0542C29.8156 29.4258 31.3019 29.1811 32.6975 28.4289C35.0719 27.1329 36.4675 24.233 35.8422 21.777Z" fill="#312A05"/>
</svg>
