<svg width="40" height="40" viewBox="0 0 40 40" fill="none" xmlns="http://www.w3.org/2000/svg">
<path d="M40.0001 2.575C39.9313 3.16875 39.8626 3.7625 39.7876 4.35C39.2688 8.3 37.9251 11.9625 35.9563 15.4062C34.3813 18.175 32.4438 20.6625 30.0938 22.8187C29.8126 23.075 29.7251 23.3437 29.7063 23.7C29.4501 28.7062 27.6438 33.075 24.3313 36.8312C24.1001 37.0938 23.8563 37.35 23.6001 37.5938C23.3376 37.8438 23.0313 37.95 22.6688 37.8187C22.3126 37.6875 22.1501 37.425 22.1001 37.05C21.8126 34.9875 21.5126 32.9313 21.2063 30.775C20.9376 31.0125 20.7126 31.2125 20.4876 31.4125C19.9251 31.9125 19.5438 31.9 19.0063 31.3687C15.5438 27.9062 12.0813 24.45 8.62506 20.9875C8.08756 20.45 8.08131 20.0687 8.58131 19.5062C8.77506 19.2875 8.97506 19.0688 9.21881 18.7938C8.19381 18.6437 7.25006 18.5 6.30631 18.3687C5.16256 18.2062 4.01256 18.05 2.86881 17.8813C2.51881 17.8313 2.25006 17.6562 2.13756 17.3125C2.02506 16.9625 2.12506 16.6562 2.39381 16.3875C5.18756 13.6437 8.47506 11.7688 12.2876 10.875C13.6001 10.5687 14.9563 10.4562 16.2938 10.2937C16.6626 10.25 16.9376 10.15 17.1938 9.875C21.6001 5.21875 26.9313 2.1625 33.1626 0.6875C34.4876 0.375 35.8563 0.26875 37.2063 0.0625C37.3001 0.05 37.4001 0.025 37.5001 0C38.1251 0 38.7501 0 39.3751 0C39.5813 0.20625 39.7938 0.41875 40.0001 0.625C40.0001 1.275 40.0001 1.925 40.0001 2.575ZM10.2626 20.1375C13.4688 23.35 16.6626 26.5375 19.8626 29.7375C19.9188 29.6875 20.0126 29.6125 20.0938 29.5375C22.5626 27.3375 25.0001 25.1062 27.5001 22.9437C30.1876 20.6187 32.5251 18.0063 34.3251 14.9312C36.4688 11.2687 37.8688 7.3625 38.2626 3.11875C38.3063 2.64375 38.3126 2.16875 38.3438 1.58125C36.8938 1.775 35.5126 1.86875 34.1688 2.15C28.0563 3.45 22.8188 6.36875 18.5251 10.9125C16.3626 13.2 14.3188 15.6 12.2188 17.95C11.5501 18.6875 10.8876 19.4375 10.2626 20.1375ZM15.2563 12.025C11.3001 12.4937 7.86256 13.9375 4.80006 16.45C4.92506 16.475 4.96881 16.4875 5.01256 16.4937C6.77506 16.75 8.53756 17.0125 10.3001 17.2437C10.4501 17.2625 10.6688 17.15 10.7813 17.0312C11.8876 15.8188 12.9751 14.5938 14.0626 13.3687C14.4438 12.9437 14.8188 12.5188 15.2563 12.025ZM27.9688 24.7812C27.8688 24.85 27.8126 24.875 27.7688 24.9187C26.1501 26.3625 24.5188 27.8063 22.9126 29.2688C22.7938 29.375 22.7376 29.6313 22.7563 29.8125C22.8313 30.5125 22.9438 31.2 23.0438 31.9C23.2001 32.975 23.3563 34.05 23.5251 35.2125C26.0563 32.1312 27.5063 28.7 27.9688 24.7812Z" fill="#312A05"/>
<path d="M0 38.9062C0.3375 37.9 0.66875 36.8937 1.0125 35.8875C1.79375 33.6437 2.6 31.4062 3.725 29.3C4.825 27.25 7.225 26.2687 9.4375 26.825C11.7 27.3937 13.3125 29.4062 13.3187 31.7562C13.3187 33.6937 12.5063 35.225 10.7938 36.2125C9.10625 37.1812 7.3 37.875 5.46875 38.5125C4.10625 38.9937 2.73125 39.425 1.36875 39.8812C1.275 39.9125 1.18125 39.9625 1.09375 40.0062C0.73125 40 0.3625 40 0 40C0 39.6375 0 39.2687 0 38.9062ZM2.075 37.95C3.68125 37.3687 5.19375 36.8625 6.66875 36.2687C7.85625 35.7875 9.0375 35.2687 10.1562 34.6375C11.4 33.9312 11.925 32.3625 11.5437 30.925C11.1812 29.525 9.89375 28.4437 8.4875 28.3625C6.94375 28.275 5.8 28.9187 5.08125 30.2937C3.83125 32.6937 2.9875 35.2562 2.075 37.95Z" fill="#312A05"/>
<path d="M32.7249 11.4624C32.7124 13.7562 30.8187 15.6312 28.5312 15.6124C26.2374 15.5937 24.3624 13.6874 24.3937 11.4062C24.4187 9.11867 26.2937 7.26867 28.5687 7.27492C30.8624 7.28117 32.7374 9.17492 32.7249 11.4624ZM28.5437 13.9374C29.9374 13.9437 31.0562 12.8374 31.0499 11.4374C31.0437 10.0562 29.9562 8.96242 28.5687 8.94992C27.1749 8.93742 26.0562 10.0562 26.0624 11.4499C26.0624 12.8312 27.1624 13.9312 28.5437 13.9374Z" fill="#312A05"/>
</svg>
