<svg width="101" height="101" viewBox="0 0 101 101" fill="none" xmlns="http://www.w3.org/2000/svg">
<path fill-rule="evenodd" clip-rule="evenodd" d="M71.6666 20.9983C71.6666 17.7066 69.7266 14.7216 66.7183 13.3833C60.5233 10.6316 48.6999 5.37661 43.3849 3.01328C41.2299 2.05661 38.7699 2.05661 36.6149 3.01328C31.2999 5.37661 19.4766 10.6316 13.2816 13.3833C10.2732 14.7216 8.33325 17.7066 8.33325 20.9983V46.6666C8.33325 56.9566 14.0266 64.2766 20.6333 69.2616C27.0549 74.1049 34.3149 76.7133 37.6766 77.7433C37.6849 77.7466 37.6949 77.7483 37.7033 77.7516C39.2033 78.1833 40.7949 78.1833 42.2949 77.7533C42.3049 77.7499 42.3149 77.7483 42.3249 77.7449C45.6866 76.7133 52.9449 74.1066 59.3666 69.2616C65.9732 64.2766 71.6666 56.9566 71.6666 46.6666V20.9983ZM68.3333 20.9983V46.6666C68.3333 55.7683 63.2033 62.1899 57.3583 66.5999C51.3383 71.1433 44.5282 73.5816 41.3632 74.5533C40.4749 74.8049 39.5333 74.8049 38.6449 74.5533C35.4733 73.5799 28.6632 71.1433 22.6416 66.5999C16.7966 62.1899 11.6666 55.7683 11.6666 46.6666V20.9983C11.6666 19.0233 12.8299 17.2333 14.6366 16.4299C20.8299 13.6766 32.6533 8.42161 37.9699 6.05995C39.2616 5.48495 40.7382 5.48495 42.0299 6.05995C47.3466 8.42161 59.1699 13.6766 65.3632 16.4299C67.1699 17.2333 68.3333 19.0233 68.3333 20.9983Z" fill="black"/>
<path fill-rule="evenodd" clip-rule="evenodd" d="M39.9999 22.0383C29.9832 22.0383 21.8516 30.17 21.8516 40.185C21.8516 50.2017 29.9832 58.3333 39.9999 58.3333C50.0166 58.3333 58.1483 50.2017 58.1483 40.185C58.1483 30.17 50.0166 22.0383 39.9999 22.0383ZM39.9999 25.3717C48.1766 25.3717 54.8149 32.0083 54.8149 40.185C54.8149 48.3617 48.1766 55 39.9999 55C31.8232 55 25.1849 48.3617 25.1849 40.185C25.1849 32.0083 31.8232 25.3717 39.9999 25.3717Z" fill="black"/>
<path fill-rule="evenodd" clip-rule="evenodd" d="M31.6749 41.4149L36.3882 46.1282C37.0387 46.7787 38.0945 46.7787 38.7449 46.1282L48.1716 36.7016C48.822 36.0511 48.822 34.9953 48.1716 34.3449C47.5211 33.6945 46.4654 33.6945 45.8149 34.3449L37.5666 42.5932L34.0316 39.0582C33.3811 38.4078 32.3254 38.4078 31.6749 39.0582C31.0245 39.7087 31.0245 40.7645 31.6749 41.4149Z" fill="black"/>
</svg>
