<svg width="80" height="80" viewBox="0 0 80 80" fill="none" xmlns="http://www.w3.org/2000/svg">
<path d="M69.637 36.3817L63.445 30.1863C63.329 30.0701 63.1912 29.978 63.0395 29.9151C62.8879 29.8522 62.7253 29.8198 62.5612 29.8198C62.397 29.8198 62.2344 29.8522 62.0828 29.9151C61.9311 29.978 61.7933 30.0701 61.6773 30.1863L59.8971 31.9674L55.2646 27.0518C56.0056 26.5428 56.5772 25.8234 56.9056 24.9862C57.234 24.149 57.304 23.2326 57.1068 22.3552C56.9095 21.4778 56.4539 20.6797 55.7988 20.0639C55.1438 19.4481 54.3193 19.0429 53.4318 18.9005C53.6152 18.241 53.6555 17.5498 53.55 16.8734C53.4445 16.1969 53.1957 15.5509 52.8203 14.9786C52.4448 14.4062 51.9514 13.9208 51.3731 13.5549C50.7948 13.189 50.1449 12.9511 49.4672 12.857C49.6304 12.2393 49.6582 11.5937 49.5486 10.9642C49.4391 10.3348 49.1948 9.73655 48.8326 9.21041C48.4703 8.68428 47.9987 8.24273 47.45 7.91603C46.9012 7.58933 46.2884 7.38521 45.6534 7.31765C45.7509 6.70289 45.719 6.07454 45.5596 5.47285C45.4003 4.87117 45.1171 4.30943 44.7281 3.82364C44.3392 3.33785 43.8531 2.93873 43.301 2.65185C42.7489 2.36496 42.143 2.19666 41.5221 2.15771C36.602 1.35845 31.1293 0.380834 30.4616 0.129135C30.0781 -0.0299344 29.6494 -0.0424764 29.2572 0.0938924C28.865 0.230261 28.5365 0.506037 28.3342 0.868822C27.472 0.557848 26.5369 0.510077 25.6476 0.731569C24.7582 0.953061 23.9546 1.43384 23.3387 2.11292C22.7642 2.61444 22.3289 3.25602 22.0752 3.97544C21.8214 4.69486 21.7579 5.46768 21.8906 6.21893C21.1803 6.35943 20.5278 6.7078 20.0156 7.21986L19.0054 8.23126C18.5741 8.66448 18.2577 9.19858 18.0849 9.78511C17.912 10.3716 17.8883 10.9921 18.0157 11.5901C16.9868 11.981 16.0858 12.6485 15.4119 13.5191C15.0432 13.9011 14.7592 14.3566 14.5785 14.8559C14.3978 15.3552 14.3244 15.8871 14.3633 16.4167C14.4021 16.9463 14.5522 17.4618 14.8038 17.9294C15.0553 18.397 15.4027 18.8062 15.8232 19.1302C15.0702 19.5797 14.3977 20.152 13.8334 20.8235C13.1451 21.5135 12.7585 22.4486 12.7585 23.4235C12.7585 24.3984 13.1451 25.3334 13.8334 26.0234L14.7262 26.9169L9.85159 31.8198L8.32269 30.2901C8.20664 30.1739 8.06885 30.0818 7.91719 30.0189C7.76553 29.956 7.60298 29.9236 7.43882 29.9236C7.27465 29.9236 7.1121 29.956 6.96044 30.0189C6.80878 30.0818 6.67099 30.1739 6.55494 30.2901L0.363023 36.4855C0.130435 36.721 0 37.0388 0 37.3699C0 37.7009 0.130435 38.0187 0.363023 38.2542L19.7355 57.6368C19.9709 57.8695 20.2885 58 20.6194 58C20.9503 58 21.2679 57.8695 21.5033 57.6368L27.6946 51.4414C27.8108 51.3253 27.9029 51.1874 27.9657 51.0357C28.0286 50.8839 28.0609 50.7213 28.0609 50.557C28.0609 50.3928 28.0286 50.2301 27.9657 50.0784C27.9029 49.9267 27.8108 49.7888 27.6946 49.6727L26.0189 47.996L31.6654 42.5074H38.7798L43.9946 47.8788L42.3055 49.5688C42.1894 49.685 42.0972 49.8228 42.0344 49.9746C41.9716 50.1263 41.9392 50.289 41.9392 50.4532C41.9392 50.6175 41.9716 50.7801 42.0344 50.9318C42.0972 51.0836 42.1894 51.2214 42.3055 51.3376L48.4968 57.5329C48.7322 57.7657 49.0498 57.8962 49.3807 57.8962C49.7116 57.8962 50.0292 57.7657 50.2646 57.5329L69.637 38.1504C69.8696 37.9149 70 37.5971 70 37.266C70 36.9349 69.8696 36.6172 69.637 36.3817ZM37.4505 4.01746L33.7634 7.73085C30.8199 5.78286 30.1939 4.4922 30.2747 2.65772C31.7742 3.0227 34.7795 3.56238 37.4505 4.01746ZM24.9808 3.99883C25.2864 3.57773 25.7341 3.28165 26.2411 3.16539C26.748 3.04914 27.2799 3.12058 27.7383 3.36649C27.8436 5.51912 29.2815 8.27739 33.4062 10.4055C33.5898 10.4966 33.7926 10.5421 33.9974 10.5383C34.2023 10.5344 34.4032 10.4814 34.5833 10.3836C34.8237 10.7353 34.9389 11.1578 34.9102 11.583C34.8815 12.0082 34.7106 12.4114 34.425 12.7276C34.2845 12.9883 34.0892 13.2155 33.8526 13.3936C33.616 13.5716 33.3438 13.6964 33.0545 13.7593C32.7652 13.8222 32.4657 13.8217 32.1766 13.7579C31.8875 13.6941 31.6156 13.5685 31.3796 13.3896L24.8678 6.80092C24.6856 6.61251 24.5435 6.38904 24.4501 6.14405C24.3567 5.89907 24.314 5.63766 24.3245 5.37567C24.3351 5.11368 24.3987 4.85657 24.5115 4.6199C24.6243 4.38323 24.7839 4.17194 24.9808 3.99883ZM20.7745 9.99999L21.7841 8.98861C22.0048 8.76886 22.3035 8.6455 22.6148 8.6455C22.9262 8.6455 23.2249 8.76886 23.4456 8.98861C24.9384 10.4662 27.9271 13.4955 29.3928 15.0093C29.5424 15.101 29.6694 15.2253 29.7641 15.373C29.8589 15.5207 29.919 15.6879 29.9401 15.8622C29.9611 16.0364 29.9424 16.2132 29.8855 16.3792C29.8285 16.5452 29.7348 16.6962 29.6113 16.8208L28.6023 17.8309C28.3818 18.0511 28.083 18.1749 27.7715 18.1751C27.46 18.1753 27.161 18.052 26.9402 17.8322L20.7744 11.6624C20.5543 11.4419 20.4306 11.1429 20.4306 10.8312C20.4306 10.5195 20.5543 10.2205 20.7745 9.99999ZM17.1804 15.2878L18.19 14.2764C18.4104 14.0569 18.7086 13.9335 19.0196 13.9333C19.3305 13.9331 19.629 14.056 19.8497 14.2751L25.1724 19.6008C26.172 20.6798 24.8997 21.5425 24.1854 22.2795C23.9625 22.4987 23.6628 22.622 23.3502 22.6232C23.0377 22.6244 22.7371 22.5033 22.5125 22.2858C22.4175 22.1919 17.241 17.02 17.1226 16.8889C16.9285 16.664 16.8265 16.3739 16.8372 16.077C16.8479 15.78 16.9705 15.4981 17.1804 15.2878ZM15.6018 22.5923C16.2906 21.9144 17.251 20.5909 18.2712 21.5797L20.747 24.0568C20.9661 24.2779 21.0891 24.5768 21.0889 24.8882C21.0888 25.1996 20.9657 25.4983 20.7463 25.7193L19.7361 26.7307C19.5126 26.9447 19.2151 27.0641 18.9057 27.0641C18.5963 27.0641 18.2988 26.9447 18.0752 26.7307L15.6012 24.2547C15.3813 24.034 15.2579 23.735 15.258 23.4234C15.2581 23.1117 15.3818 22.8128 15.6018 22.5923ZM20.6194 54.9836L3.0146 37.3699L7.43885 32.9432L25.043 50.557L20.6194 54.9836ZM31.1581 40.0058C30.8327 40.0058 30.5202 40.1329 30.2871 40.36L24.2514 46.2275L11.6194 33.5886L16.512 28.6677C18.5345 30.4504 21.0361 29.3826 22.5152 27.4878C23.1472 26.853 23.5227 26.0071 23.5697 25.1123C24.2441 25.0146 24.8918 24.7812 25.4736 24.4262C26.0554 24.0712 26.5593 23.6019 26.9548 23.0466C27.5911 22.4071 27.9675 21.5541 28.0108 20.6527C28.6819 20.5519 29.3259 20.3174 29.9047 19.9629C30.4834 19.6085 30.9852 19.1414 31.3802 18.5894C31.983 17.9818 32.3522 17.181 32.4228 16.3278C32.491 16.3373 32.5598 16.3416 32.6286 16.3407C36.3169 16.2775 38.9533 11.5518 36.4039 8.62042L39.7776 5.22275C40.1634 4.84572 40.6819 4.6356 41.2212 4.63774C41.611 4.64488 41.9903 4.76569 42.3125 4.98536C42.6347 5.20502 42.8858 5.51399 43.035 5.87438C43.1843 6.23476 43.2252 6.6309 43.1527 7.0142C43.0802 7.3975 42.8975 7.7513 42.627 8.03222L40.1836 10.5423C39.9598 10.7809 39.8384 11.0978 39.8454 11.4249C39.8524 11.752 39.9872 12.0634 40.221 12.2922C40.4547 12.5211 40.7688 12.6491 41.0958 12.649C41.4228 12.6488 41.7368 12.5205 41.9703 12.2915L43.8516 10.3762C44.2115 10.02 44.698 9.82149 45.2042 9.82425C45.7104 9.82702 46.1948 10.0309 46.5508 10.391C46.9068 10.7511 47.1052 11.2379 47.1025 11.7444C47.0997 12.2509 46.8959 12.7355 46.536 13.0917C45.8931 13.7218 44.3067 15.2463 43.6416 15.8901C43.5234 16.0041 43.4289 16.1403 43.3633 16.2909C43.2978 16.4415 43.2625 16.6036 43.2596 16.7678C43.2566 16.9321 43.2861 17.0953 43.3462 17.2482C43.4062 17.401 43.4958 17.5406 43.6098 17.6588C43.7238 17.777 43.86 17.8716 44.0105 17.9372C44.161 18.0027 44.323 18.038 44.4871 18.041C44.6513 18.0439 44.8144 18.0145 44.9672 17.9544C45.12 17.8942 45.2594 17.8046 45.3776 17.6905C45.3768 17.6843 47.1982 15.9372 47.1995 15.9325C47.6385 15.5222 48.2197 15.2985 48.8204 15.3088C49.4211 15.3191 49.9943 15.5625 50.419 15.9877C50.8437 16.4128 51.0867 16.9864 51.0967 17.5875C51.1067 18.1885 50.8829 18.7699 50.4726 19.2089C49.9036 19.797 48.2825 21.4768 47.6892 22.0903C47.4665 22.3304 47.3467 22.6482 47.3556 22.9757C47.3644 23.3031 47.5012 23.614 47.7366 23.8416C47.972 24.0692 48.2871 24.1955 48.6145 24.1933C48.9418 24.191 49.2553 24.0605 49.4875 23.8297L51.3602 21.89C51.7247 21.5247 52.2188 21.3183 52.7348 21.3161C53.2507 21.3139 53.7466 21.5158 54.1143 21.878C54.482 22.2402 54.6916 22.7332 54.6975 23.2494C54.7033 23.7656 54.5048 24.2631 54.1454 24.6335L38.7968 40.0059L31.1581 40.0058ZM41.066 41.2731L53.4963 28.8228L58.128 33.7376L45.7621 46.1102L41.066 41.2731ZM49.3806 54.8798L44.957 50.4532L62.5612 32.8394L66.9854 37.2661L49.3806 54.8798Z" fill="black"/>
</svg>
