<svg width="48" height="48" viewBox="0 0 48 48" fill="none" xmlns="http://www.w3.org/2000/svg">
<path d="M40.965 48C40.56 48 40.155 48 39.75 48C39.7275 47.9775 39.7125 47.9475 39.6825 47.94C38.0775 47.5875 37.1025 46.59 36.6075 45.0525C36.3975 44.4 36.135 43.755 35.895 43.11C35.805 43.3425 35.805 43.56 35.805 43.77C35.805 45.4575 34.86 46.395 33.1575 46.395C22.98 46.395 12.8025 46.395 2.625 46.395C2.4075 46.395 2.1825 46.395 1.9725 46.3575C0.915 46.185 0.3375 45.4875 0 44.535C0 31.41 0 18.285 0 5.16C0.63 3.645 1.185 3.2775 2.8425 3.2775C5.01 3.2775 7.1775 3.2775 9.3525 3.2775C9.5175 3.2775 9.6825 3.2775 9.885 3.2775C9.885 2.9475 9.885 2.6775 9.885 2.415C9.8925 1.62 10.1775 0.945 10.83 0.4725C11.1 0.2775 11.4225 0.1575 11.7225 0C15.8475 0 19.9725 0 24.0975 0C25.455 0.495 26.0475 1.47 25.92 2.895C25.9125 3.015 25.9425 3.135 25.965 3.27C26.1675 3.27 26.34 3.27 26.5125 3.27C28.7475 3.27 30.9825 3.27 33.21 3.27C34.8825 3.27 35.805 4.2 35.805 5.8875C35.805 8.2275 35.8125 10.575 35.7975 12.915C35.7975 13.23 35.8875 13.3725 36.1875 13.485C37.275 13.89 38.0025 14.6775 38.4075 15.7575C38.7825 16.7475 39.1425 17.745 39.4875 18.75C40.035 20.3325 39.63 21.855 38.3625 22.935C38.175 23.1 38.145 23.2125 38.2275 23.445C39.7125 27.5175 41.19 31.59 42.69 35.6625C42.7425 35.7975 42.96 35.9625 43.1025 35.9625C44.8875 36.045 46.095 36.9 46.71 38.58C47.1525 39.78 47.5725 40.98 48 42.18C48 42.585 48 42.99 48 43.395C47.97 43.4775 47.925 43.56 47.9025 43.6425C47.5875 44.82 46.905 45.705 45.795 46.2375C44.9925 46.62 44.49 46.425 44.1825 45.6C43.86 44.7225 43.5375 43.8525 43.23 42.9675C43.14 42.705 43.02 42.615 42.75 42.735C42.42 42.8775 42.09 43.0125 41.745 43.1025C41.3475 43.2075 41.3175 43.4025 41.4525 43.7475C41.79 44.6025 42.09 45.465 42.3975 46.335C42.6525 47.055 42.4275 47.4975 41.715 47.7525C41.4675 47.8425 41.22 47.9175 40.965 48ZM9.81 5.1525C7.4175 5.1525 5.025 5.1525 2.64 5.1525C1.965 5.1525 1.8825 5.235 1.8825 5.9025C1.8825 18.525 1.8825 31.1475 1.8825 43.77C1.8825 44.415 1.995 44.5275 2.6475 44.5275C12.8175 44.5275 22.9875 44.5275 33.1575 44.5275C33.8325 44.5275 33.9375 44.415 33.9375 43.7325C33.9375 39.78 33.87 35.8275 33.9675 31.875C34.02 29.715 33.765 27.66 32.8575 25.695C32.7 25.3575 32.58 25.2 32.1675 25.2225C30.5625 25.2975 29.175 24.405 28.5825 22.935C28.1475 21.8325 27.735 20.7225 27.3675 19.5975C26.715 17.5875 27.7725 15.5175 29.7675 14.805C30.4425 14.565 30.8925 14.76 31.1475 15.4275C31.3725 16.0125 31.5675 16.605 31.7925 17.1825C31.9575 17.61 32.055 18.225 32.37 18.3975C32.6475 18.54 33.1875 18.1575 33.6225 18.045C34.005 17.9475 34.0725 17.775 33.93 17.4075C33.585 16.5375 33.27 15.6525 32.9625 14.775C32.73 14.1075 32.955 13.6575 33.6225 13.4175C33.72 13.38 33.8175 13.335 33.9375 13.29C33.9375 10.815 33.9375 8.3475 33.9375 5.88C33.9375 5.2875 33.825 5.175 33.225 5.1675C30.945 5.1675 28.665 5.1675 26.385 5.1675C26.25 5.1675 26.115 5.1825 25.9575 5.19C25.935 5.3025 25.92 5.3925 25.905 5.4825C25.7475 6.7125 24.8625 7.575 23.6025 7.5825C19.8075 7.605 16.0125 7.605 12.2175 7.5825C11.25 7.575 10.515 7.1025 10.11 6.2025C9.96 5.88 9.915 5.535 9.81 5.1525ZM45.6225 44.07C46.11 43.455 46.2525 42.855 46.0275 42.21C45.66 41.13 45.2775 40.0575 44.865 39C44.5125 38.115 43.6125 37.6875 42.6825 37.8975C41.8125 38.1 41.5275 37.95 41.2275 37.1175C39.5475 32.505 37.8675 27.8925 36.1875 23.2725C35.8875 22.4475 36.0225 22.125 36.795 21.735C37.6125 21.33 38.0625 20.475 37.7925 19.635C37.4175 18.465 36.9975 17.3025 36.5325 16.1625C36.3 15.585 35.805 15.24 35.0925 15.1275C35.34 15.81 35.5575 16.41 35.775 17.01C36.0225 17.7075 35.9325 18.3675 35.505 18.9675C34.995 19.68 32.805 20.4825 31.9425 20.28C31.155 20.0925 30.675 19.59 30.405 18.855C30.18 18.24 29.955 17.6175 29.7075 16.9425C29.0475 17.64 28.8975 18.36 29.19 19.17C29.5275 20.1225 29.8725 21.075 30.2325 22.0275C30.645 23.13 31.5375 23.5725 32.655 23.235C33.5475 22.9725 33.9075 23.1525 34.2225 24.03C35.8875 28.5975 37.5525 33.1725 39.21 37.74C39.5625 38.715 39.435 39.015 38.4675 39.435C37.605 39.81 37.095 40.71 37.365 41.565C37.74 42.735 38.1675 43.8975 38.6325 45.0375C38.9175 45.735 39.6525 46.14 40.305 46.0575C40.08 45.4425 39.855 44.8275 39.6375 44.205C39.1875 42.93 39.69 41.8725 40.965 41.4C41.3625 41.2575 41.7525 41.1075 42.15 40.965C43.4175 40.5225 44.4975 41.0175 44.97 42.2775C45.1875 42.8475 45.39 43.425 45.6225 44.07ZM17.9025 1.875C16.0725 1.875 14.25 1.875 12.42 1.875C11.8875 1.875 11.7525 2.0025 11.7525 2.535C11.745 3.375 11.7525 4.2225 11.7525 5.0625C11.7525 5.49 11.94 5.7 12.3675 5.7C16.05 5.7 19.7325 5.7 23.4225 5.7C23.85 5.7 24.0525 5.505 24.045 5.07C24.0375 4.245 24.045 3.4125 24.045 2.5875C24.045 1.965 23.94 1.8675 23.295 1.8675C21.495 1.875 19.7025 1.875 17.9025 1.875ZM35.8275 39.3525C36.105 39.0225 36.2925 38.655 36.5925 38.4675C37.2825 38.0475 37.23 37.5825 36.945 36.9375C36.54 36.0225 36.24 35.0625 35.895 34.1175C35.8725 34.125 35.85 34.1325 35.8275 34.1325C35.8275 35.8575 35.8275 37.575 35.8275 39.3525Z" fill="#495053"/>
<path d="M17.5201 10.95C19.3276 10.95 21.1426 10.9425 22.9501 10.95C23.5426 10.95 23.9251 11.3175 23.9401 11.85C23.9551 12.3825 23.5876 12.765 23.0101 12.8175C22.8676 12.8325 22.7326 12.825 22.5901 12.825C20.4826 12.825 18.3751 12.825 16.2751 12.825C14.9476 12.825 13.6201 12.8325 12.3001 12.8175C12.0601 12.8175 11.7901 12.78 11.5801 12.675C11.1901 12.48 11.0326 12.1275 11.1151 11.7C11.2051 11.2425 11.5501 10.9575 12.0526 10.9575C13.8676 10.9425 15.6976 10.95 17.5201 10.95Z" fill="#495053"/>
<path d="M17.535 35.07C15.7275 35.07 13.9125 35.0775 12.105 35.07C11.31 35.0625 10.845 34.35 11.1975 33.705C11.4225 33.3 11.7975 33.195 12.2325 33.2025C13.89 33.21 15.54 33.2025 17.1975 33.2025C19.0725 33.2025 20.94 33.2025 22.815 33.2025C23.2875 33.2025 23.685 33.33 23.88 33.795C24.15 34.44 23.6775 35.07 22.92 35.0775C21.12 35.0775 19.3275 35.07 17.535 35.07Z" fill="#495053"/>
<path d="M17.5275 18.3676C19.29 18.3676 21.0525 18.3676 22.815 18.3676C23.52 18.3676 23.925 18.7051 23.9325 19.2751C23.94 19.8676 23.52 20.2351 22.8075 20.2351C19.2675 20.2351 15.7275 20.2426 12.18 20.2351C11.3175 20.2351 10.815 19.5151 11.1975 18.8401C11.4 18.4801 11.73 18.3526 12.1425 18.3601C13.9425 18.3751 15.735 18.3676 17.5275 18.3676Z" fill="#495053"/>
<path d="M17.5275 27.6526C15.72 27.6526 13.905 27.6526 12.0975 27.6526C11.685 27.6526 11.37 27.4876 11.1825 27.1201C11.01 26.7826 11.01 26.4001 11.295 26.1676C11.55 25.9576 11.9175 25.7926 12.24 25.7926C15.5925 25.7626 18.9525 25.7776 22.305 25.7776C22.5075 25.7776 22.71 25.7701 22.9125 25.7776C23.55 25.7926 23.955 26.1676 23.94 26.7376C23.925 27.2851 23.535 27.6451 22.9125 27.6526C21.1125 27.6601 19.32 27.6526 17.5275 27.6526Z" fill="#495053"/>
<path d="M6.60751 14.2575C6.04501 14.2575 5.48251 14.265 4.92 14.2575C4.2825 14.2425 3.93 13.9125 3.9225 13.275C3.9075 12.3375 3.9075 11.4 3.9225 10.4625C3.93 9.90755 4.26 9.52505 4.81501 9.51005C6.00001 9.48005 7.18501 9.48005 8.37751 9.51005C8.95501 9.52505 9.28501 9.91505 9.29251 10.4925C9.30001 11.415 9.30001 12.3375 9.29251 13.26C9.28501 13.89 8.92501 14.2425 8.30251 14.2575C7.73251 14.265 7.17001 14.2575 6.60751 14.2575ZM5.80501 12.345C6.36751 12.345 6.87751 12.345 7.37251 12.345C7.37251 12 7.37251 11.7 7.37251 11.4075C6.83251 11.4075 6.33001 11.4075 5.80501 11.4075C5.80501 11.73 5.80501 12.0225 5.80501 12.345Z" fill="#495053"/>
<path d="M6.5925 31.7775C7.14 31.7775 7.6875 31.77 8.235 31.7775C8.925 31.785 9.285 32.1375 9.285 32.8125C9.2925 33.72 9.2925 34.6275 9.285 35.5275C9.2775 36.1275 8.94 36.5175 8.34 36.5325C7.185 36.555 6.03 36.555 4.875 36.5325C4.275 36.5175 3.93 36.15 3.9225 35.5425C3.9075 34.62 3.9075 33.6975 3.9225 32.775C3.93 32.115 4.2825 31.785 4.9575 31.7775C5.4975 31.77 6.045 31.7775 6.5925 31.7775ZM7.395 33.6825C6.84 33.6825 6.33 33.6825 5.8275 33.6825C5.8275 34.02 5.8275 34.32 5.8275 34.6275C6.3675 34.6275 6.8775 34.6275 7.395 34.6275C7.395 34.305 7.395 34.0125 7.395 33.6825Z" fill="#495053"/>
<path d="M6.59256 21.675C6.03006 21.675 5.46756 21.6825 4.90506 21.675C4.26006 21.66 3.92256 21.3225 3.91506 20.685C3.90006 19.7625 3.90006 18.84 3.91506 17.925C3.92256 17.31 4.25256 16.95 4.86756 16.9425C6.02256 16.92 7.17756 16.92 8.33256 16.9425C8.94006 16.95 9.27006 17.3175 9.27756 17.9325C9.28506 18.855 9.28506 19.7775 9.27756 20.6925C9.27006 21.3 8.92506 21.645 8.32506 21.675C8.29506 21.675 8.26506 21.675 8.23506 21.675C7.68756 21.6825 7.14006 21.6825 6.59256 21.675ZM5.81256 19.77C6.35256 19.77 6.87006 19.77 7.38756 19.77C7.38756 19.44 7.38756 19.155 7.38756 18.8475C6.84756 18.8475 6.33756 18.8475 5.81256 18.8475C5.81256 19.17 5.81256 19.4625 5.81256 19.77Z" fill="#495053"/>
<path d="M6.5925 24.36C7.155 24.36 7.7175 24.3525 8.28 24.36C8.94 24.375 9.2775 24.72 9.285 25.3875C9.2925 26.295 9.2925 27.195 9.285 28.1025C9.2775 28.7175 8.94 29.085 8.34 29.0925C7.185 29.115 6.03 29.115 4.875 29.0925C4.2675 29.085 3.93 28.725 3.9225 28.11C3.9075 27.1875 3.9075 26.265 3.9225 25.35C3.93 24.705 4.275 24.375 4.9125 24.3525C4.9425 24.3525 4.9725 24.3525 5.0025 24.3525C5.5275 24.36 6.06 24.36 6.5925 24.36ZM5.8275 26.25C5.8275 26.6025 5.8275 26.9025 5.8275 27.1875C6.375 27.1875 6.8775 27.1875 7.3725 27.1875C7.3725 26.85 7.3725 26.55 7.3725 26.25C6.84 26.25 6.345 26.25 5.8275 26.25Z" fill="#495053"/>
</svg>
