<svg width="80" height="80" viewBox="0 0 80 80" fill="none" xmlns="http://www.w3.org/2000/svg">
<path d="M51.2155 8.64048C45.5508 3.06858 38.019 0 30.008 0C21.9969 0 14.4652 3.06858 8.80031 8.64048C3.19699 14.1519 0.0857812 21.4605 0.0189844 29.2446C0.00785156 29.3235 0 29.4035 0 29.4854C0 29.5665 0.00761719 29.6456 0.0186328 29.7237C0.0771094 37.5197 3.18926 44.8406 8.80031 50.3596C14.4652 55.9315 21.9968 59 30.0079 59C38.0189 59 45.5508 55.9315 51.2154 50.3596C56.8804 44.7879 60 37.3798 60 29.5001C60 21.6203 56.8804 14.2121 51.2155 8.64048ZM49.9154 46.6672L47.8902 44.7485C47.1906 44.0858 46.0778 44.1066 45.4043 44.7944C44.7307 45.4823 44.7517 46.577 45.4509 47.2395L47.4266 49.1112C43.0406 52.8909 37.5855 55.1104 31.7661 55.4833V49.2496C31.7661 48.2946 30.9791 47.5203 30.008 47.5203C29.037 47.5203 28.2498 48.2946 28.2498 49.2496V55.4833C23.0854 55.1523 18.2081 53.3671 14.1101 50.3277L15.9612 48.4375C16.6348 47.7496 16.6139 46.6549 15.9145 45.9924C15.2152 45.3299 14.1022 45.3505 13.4286 46.0382L11.4442 48.0648C11.392 48.0143 11.3388 47.965 11.287 47.914C6.69949 43.4019 4.00453 37.5254 3.59039 31.2149H9.91289C10.8839 31.2149 11.6711 30.4406 11.6711 29.4855C11.6711 28.5304 10.8839 27.7562 9.91289 27.7562H3.59191C3.95215 22.3634 5.97891 17.2891 9.42879 13.1136L11.463 15.0408C11.8042 15.364 12.2435 15.5246 12.6825 15.5246C13.1435 15.5246 13.6041 15.3473 13.9491 14.9949C14.6227 14.307 14.6018 13.2123 13.9024 12.5498L11.8199 10.5769C16.3289 6.37829 22.085 3.91151 28.2496 3.51673V9.75036C28.2496 10.7054 29.0367 11.4797 30.0077 11.4797C30.9789 11.4797 31.7659 10.7054 31.7659 9.75036V3.51661C37.9205 3.91093 43.6678 6.37045 48.1736 10.5566L46.1645 12.6084C45.4909 13.2961 45.5119 14.3909 46.211 15.0535C46.5522 15.3767 46.9916 15.5372 47.4305 15.5372C47.8916 15.5372 48.3519 15.36 48.697 15.0076L50.571 13.094C54.0306 17.2731 56.063 22.3548 56.4238 27.7561H50.0712C49.1002 27.7561 48.313 28.5303 48.313 29.4854C48.313 30.4405 49.1002 31.2147 50.0712 31.2147H56.4257C56.0487 36.9594 53.7802 42.3438 49.9154 46.6672Z" fill="black"/>
<path d="M41.329 35.921L31.6224 28.3968V15.7327C31.6224 14.7757 30.8116 14 29.8112 14C28.8109 14 28 14.7757 28 15.7327V29.2379C28.0001 29.8497 28.3325 30.3862 28.8327 30.6946L39.0484 38.6135C39.3839 38.8734 39.787 39 40.1877 39C40.7151 39 41.2381 38.7807 41.5959 38.3581C42.2257 37.6145 42.1062 36.5235 41.329 35.921Z" fill="black"/>
</svg>
