<svg width="48" height="48" viewBox="0 0 48 48" fill="none" xmlns="http://www.w3.org/2000/svg">
<path d="M10.3125 0C10.935 0 11.565 0 12.1875 0C12.54 0.06 12.8925 0.12 13.2375 0.18C19.005 1.185 23.205 6.6225 22.335 12.705C22.1775 13.8225 22.32 14.565 23.19 15.2625C23.835 15.78 24.375 16.44 24.9225 16.995C27.5175 14.4 30.0525 11.865 32.64 9.2775C32.4 9.0525 32.1225 8.805 31.86 8.5425C30.9675 7.65 31.0875 6.6825 32.1675 6.0375C35.535 4.02 38.91 2.01 42.285 0C42.5025 0 42.72 0 42.945 0C43.32 0.2925 43.725 0.5475 44.0625 0.87C45.1125 1.89 46.1475 2.925 47.16 3.975C47.475 4.305 47.7225 4.695 48 5.0625C48 5.28 48 5.4975 48 5.715C47.9025 5.8875 47.82 6.0675 47.715 6.24C45.7725 9.48 43.8375 12.72 41.8875 15.9525C41.325 16.8825 40.335 16.995 39.555 16.2375C39.255 15.945 38.9775 15.63 38.655 15.285C36.045 17.8725 33.4875 20.4075 30.915 22.965C31.905 23.9475 32.805 24.8625 33.72 25.7475C33.8175 25.8375 34.0275 25.8525 34.185 25.83C34.815 25.755 35.445 25.6125 36.0825 25.56C40.95 25.1625 45.7725 28.32 47.3325 32.955C47.64 33.8775 47.7825 34.86 48 35.8125C48 36.435 48 37.065 48 37.6875C47.97 37.8075 47.925 37.9275 47.91 38.0475C47.7525 39.36 47.3775 40.605 46.785 41.79C46.1775 43.0125 45.1725 43.1775 44.205 42.21C42.5925 40.5975 40.98 38.985 39.3675 37.3725C39.225 37.23 39.0825 37.08 38.91 36.9675C38.4375 36.66 37.9425 36.6375 37.4475 36.9225C36.975 37.1925 36.7425 37.6125 36.7425 38.16C36.7425 38.6325 36.99 38.9775 37.3125 39.3C38.985 40.965 40.65 42.63 42.315 44.31C43.1475 45.15 42.975 46.215 41.9175 46.725C41.3025 47.025 40.665 47.3025 40.0125 47.49C39.255 47.715 38.4675 47.835 37.6875 48C37.065 48 36.435 48 35.8125 48C35.7075 47.97 35.6025 47.9325 35.4975 47.9175C34.08 47.775 32.745 47.37 31.5 46.695C26.9625 44.2575 24.69 39.2325 25.8225 34.215C25.86 34.065 25.8525 33.8625 25.7775 33.7425C25.575 33.435 25.3275 33.165 25.0425 32.805C24.795 33.0975 24.69 33.255 24.555 33.39C20.445 37.5 16.335 41.61 12.2325 45.72C11.16 46.8 9.915 47.5575 8.415 47.8575C8.205 47.9025 7.995 47.955 7.785 48C7.2825 48 6.7875 48 6.285 48C6.2175 47.97 6.15 47.9325 6.075 47.9175C3.5475 47.52 1.7175 46.1625 0.6525 43.845C0.3375 43.1775 0.21 42.4275 0 41.715C0 41.2125 0 40.7175 0 40.215C0.0225 40.155 0.06 40.1025 0.0675 40.0425C0.2925 38.2725 1.1625 36.87 2.415 35.6325C6.5025 31.5675 10.5675 27.4875 14.6475 23.415C14.775 23.2875 14.9625 23.2125 15.1875 23.07C14.8575 22.7775 14.6475 22.6275 14.4975 22.44C14.2575 22.1475 14.0025 22.11 13.6425 22.2C13.1175 22.3275 12.57 22.3875 12.0225 22.4325C7.11 22.86 2.25 19.7175 0.675 15.045C0.36 14.1225 0.225 13.14 0 12.1875C0 11.565 0 10.935 0 10.3125C0.03 10.2075 0.0675 10.1025 0.0825 9.9975C0.24 8.67 0.615 7.4025 1.2075 6.2025C1.815 4.98 2.82 4.815 3.795 5.7825C5.4 7.38 6.9975 8.985 8.6025 10.59C8.745 10.7325 8.8875 10.8825 9.0525 10.995C9.5325 11.325 10.0425 11.355 10.5525 11.07C11.0475 10.7925 11.34 10.3425 11.235 9.795C11.16 9.4125 10.95 8.9925 10.68 8.7075C9.03 7.02 7.35 5.37 5.685 3.69C4.8525 2.85 5.025 1.7775 6.09 1.275C6.75 0.9675 7.4325 0.6825 8.13 0.4725C8.8425 0.2625 9.585 0.1575 10.3125 0ZM9.0825 3.1125C10.3125 4.3425 11.4825 5.5125 12.6525 6.6825C13.245 7.275 13.695 7.95 13.9275 8.775C14.4 10.47 13.695 12.3825 12.2025 13.38C10.7175 14.37 8.6175 14.3325 7.305 13.17C5.9925 12 4.77 10.7175 3.5175 9.4725C3.3975 9.3525 3.345 9.1725 3.2625 9.0225C2.1075 12.1875 3.5775 16.2525 6.3375 18.09C8.6325 19.62 11.1 20.0475 13.74 19.2525C14.5875 18.9975 15.2175 19.1775 15.8475 19.8075C19.9275 23.925 24.0225 28.0275 28.14 32.1C28.83 32.7825 29.025 33.45 28.725 34.365C28.245 35.805 28.2225 37.2975 28.605 38.7525C29.415 41.8425 31.3575 43.9125 34.425 44.8575C35.8875 45.3075 37.3725 45.3075 38.895 44.8875C38.76 44.745 38.6625 44.625 38.55 44.52C37.4475 43.4175 36.33 42.3225 35.2425 41.205C33.5175 39.4275 33.495 36.8025 35.175 35.1525C36.8625 33.5025 39.42 33.5325 41.1975 35.2425C41.85 35.8725 42.48 36.5175 43.125 37.1625C43.695 37.7325 44.265 38.31 44.88 38.925C44.9325 38.7225 44.9775 38.595 45 38.46C45.4275 36.4575 45.165 34.5375 44.175 32.7525C42.87 30.405 40.8675 28.9875 38.2125 28.5C36.8025 28.245 35.415 28.3725 34.05 28.8C33.39 29.01 32.835 28.8675 32.34 28.3725C28.1025 24.1275 23.8575 19.89 19.6125 15.645C19.1475 15.18 18.9975 14.655 19.1775 14.025C19.29 13.635 19.425 13.245 19.485 12.8475C20.0325 9.0975 18.8025 6.105 15.5925 4.0425C13.62 2.775 11.4375 2.52 9.0825 3.1125ZM16.95 25.005C16.8525 25.125 16.7625 25.275 16.635 25.395C12.5475 29.4825 8.46 33.57 4.38 37.6575C4.125 37.9125 3.885 38.1825 3.66 38.46C1.95 40.605 3 44.07 5.625 44.925C7.395 45.5025 8.91 45.06 10.2075 43.7625C14.385 39.585 18.5625 35.415 22.7325 31.2375C22.815 31.155 22.8975 31.0575 22.95 30.9975C20.9625 29.01 18.9975 27.045 16.95 25.005ZM42.3525 3.2025C39.915 4.665 37.4475 6.1425 35.0175 7.605C36.8175 9.405 38.6025 11.19 40.395 12.975C41.85 10.545 43.335 8.0775 44.79 5.6475C43.965 4.815 43.1775 4.0275 42.3525 3.2025ZM28.95 20.8875C31.47 18.3675 34.0125 15.825 36.495 13.3425C35.8875 12.735 35.2425 12.09 34.635 11.4825C32.1375 13.98 29.6025 16.515 27.09 19.0275C27.6975 19.6425 28.3425 20.2725 28.95 20.8875Z" fill="#495053"/>
<path d="M18.78 31.0351C18.6 31.3651 18.48 31.7626 18.225 32.0176C15.405 34.8676 12.57 37.7026 9.71999 40.5301C9.11999 41.1301 8.26499 41.1301 7.70999 40.5751C7.12499 39.9976 7.14749 39.1426 7.79249 38.4976C10.59 35.6926 13.395 32.8876 16.2 30.0901C16.3125 29.9776 16.4325 29.8726 16.5675 29.7976C17.04 29.5276 17.52 29.5126 17.9925 29.7826C18.4425 30.0451 18.675 30.4576 18.78 31.0351Z" fill="#495053"/>
</svg>
