<svg width="60" height="60" viewBox="0 0 60 60" fill="none" xmlns="http://www.w3.org/2000/svg">
<g clip-path="url(#clip0_234_454)">
<path d="M41.804 54.0283C42.3018 50.9616 40.2193 48.072 37.1526 47.5742C34.0859 47.0764 31.1963 49.1589 30.6985 52.2256C30.2007 55.2923 32.2832 58.1819 35.3499 58.6797C38.4166 59.1775 41.3062 57.095 41.804 54.0283Z" stroke="#495053" stroke-width="2" stroke-linecap="round" stroke-linejoin="round"/>
<path d="M36.2508 58.7504H6.25024" stroke="#495053" stroke-width="2" stroke-linecap="round" stroke-linejoin="round"/>
<path d="M16.2505 20.0004V33.7505" stroke="#495053" stroke-width="2" stroke-linecap="round" stroke-linejoin="round"/>
<path d="M11.2498 40.0007H6.25024" stroke="#495053" stroke-width="2" stroke-linecap="round" stroke-linejoin="round"/>
<path d="M60.0001 58.7504H58.2148L48.8141 56.3997C46.7329 55.8794 46.0773 53.2448 47.6723 51.8104L52.8589 47.1431L54.6442 46.251" stroke="#495053" stroke-width="2" stroke-linecap="round" stroke-linejoin="round"/>
<path d="M52.8578 47.1431L58.2148 58.7504" stroke="#495053" stroke-width="2" stroke-linecap="round" stroke-linejoin="round"/>
<path d="M12.3436 54.4419C13.0731 51.4219 11.2163 48.3824 8.19634 47.6529C5.17635 46.9234 2.13679 48.7802 1.4073 51.8002C0.6778 54.8202 2.53461 57.8597 5.5546 58.5892C8.57459 59.3187 11.6142 57.4619 12.3436 54.4419Z" stroke="#495053" stroke-width="2" stroke-linecap="round" stroke-linejoin="round"/>
<path d="M5.99072 54.0093L7.75953 52.2416" stroke="#495053" stroke-width="2" stroke-linecap="round" stroke-linejoin="round"/>
<path d="M38.4608 23.0782L36.2509 27.5002V36.2508" stroke="#495053" stroke-width="2" stroke-linecap="round" stroke-linejoin="round"/>
<path d="M6.25024 47.5006V37.2859C6.25024 36.6226 6.51315 35.9868 6.98285 35.5182L10.0002 32.5009H18.9653C19.6286 32.5009 20.2644 32.7638 20.733 33.2335L23.7503 36.2508H41.2504C42.6309 36.2508 43.7507 37.3706 43.7507 38.7511V47.5017H6.25024V47.5006Z" stroke="#495053" stroke-width="2" stroke-linecap="round" stroke-linejoin="round"/>
<path d="M47.5007 53.7509H22.5007" stroke="#495053" stroke-width="2" stroke-linecap="round" stroke-linejoin="round"/>
<path d="M29.6519 36.2497L23.7504 18.7507" stroke="#495053" stroke-width="2" stroke-linecap="round" stroke-linejoin="round"/>
<path d="M10.2081 32.4997L11.0749 21.0608C11.1739 19.7572 12.2607 18.7496 13.5676 18.7496H27.5003" stroke="#495053" stroke-width="2" stroke-linecap="round" stroke-linejoin="round"/>
</g>
<defs>
<clipPath id="clip0_234_454">
<rect width="60" height="60" fill="white"/>
</clipPath>
</defs>
</svg>
