<svg width="48" height="48" viewBox="0 0 48 48" fill="none" xmlns="http://www.w3.org/2000/svg">
<path d="M48 1.49255C48 8.05505 48 14.6176 48 21.1801C47.07 21.1801 46.14 21.1801 45.18 21.1801C45.18 20.2126 45.18 19.3126 45.18 18.3901C43.7775 18.3901 42.4125 18.3901 40.9875 18.3901C42.21 21.8851 42.495 25.4326 41.8725 29.0326C41.2575 32.6326 39.7575 35.8651 37.455 38.7076C39.0225 39.9301 39.7125 41.4376 39.21 43.3501C38.7675 45.0301 37.6425 46.0876 35.9475 46.3951C33.795 46.7851 32.2725 45.8176 31.2525 43.9426C24.48 47.3701 17.715 47.3701 10.95 43.9426C9.9375 45.8101 8.43 46.7626 6.2925 46.4025C4.6875 46.1326 3.57 45.1651 3.0675 43.6126C2.4225 41.6176 3.09 40.0126 4.695 38.7451C4.6875 38.7076 4.6875 38.6701 4.6725 38.6476C4.6125 38.5576 4.5525 38.4676 4.485 38.3776C2.3475 35.6476 0.9675 32.5726 0.3525 29.1601C0.195 28.2901 0.1125 27.4051 0 26.5276C0 25.7776 0 25.0276 0 24.2776C0.06 23.7676 0.1275 23.2576 0.1875 22.7476C0.5325 19.8601 1.455 17.1601 2.955 14.6701C3.495 13.7776 4.11 12.9376 4.6875 12.0676C2.07 10.0876 2.52 7.01255 4.1025 5.50505C4.98 4.66505 6.045 4.25255 7.2525 4.32755C8.9775 4.43255 10.1775 5.35505 10.9425 6.88505C11.085 6.82505 11.1825 6.78755 11.28 6.73505C14.4975 5.04005 17.925 4.29755 21.555 4.30505C29.235 4.32005 36.9225 4.31255 44.6025 4.31255C44.7825 4.31255 44.97 4.31255 45.2025 4.31255C45.2025 3.35255 45.2025 2.44505 45.2025 1.50005C46.1625 1.49255 47.085 1.49255 48 1.49255ZM45.15 15.5551C45.15 12.7126 45.15 9.92255 45.15 7.11755C44.9325 7.11755 44.745 7.11755 44.5575 7.11755C36.84 7.11755 29.1225 7.11005 21.405 7.12505C20.49 7.12505 19.56 7.18505 18.6525 7.31255C13.92 7.95005 10.005 10.1326 6.9975 13.8076C3.66 17.8876 2.3025 22.5976 3 27.8476C3.6375 32.5801 5.82 36.5026 9.5025 39.5026C13.8675 43.0651 18.9 44.3626 24.465 43.3576C27.9975 42.7201 31.065 41.1226 33.6675 38.6401C36.9225 35.5276 38.79 31.7176 39.27 27.2476C39.585 24.3451 39.165 21.5176 38.13 18.7876C38.01 18.4726 37.875 18.3601 37.53 18.3676C34.515 18.3826 31.5 18.3751 28.485 18.3751C28.35 18.3751 28.215 18.3751 27.99 18.3751C28.1325 18.5401 28.2075 18.6301 28.2825 18.7126C30.66 21.4051 31.4625 24.4951 30.5625 27.9826C29.19 33.3526 23.295 36.5401 18.0525 34.7701C12 32.7301 9.3825 25.8226 12.6675 20.3476C14.52 17.2576 17.3625 15.6076 20.97 15.5776C28.83 15.5176 36.69 15.5551 44.55 15.5551C44.745 15.5551 44.9325 15.5551 45.15 15.5551ZM24.705 23.1226C24.93 23.9326 25.29 24.5701 26.1075 24.8251C26.19 24.8476 26.2725 24.9151 26.34 24.9751C26.9025 25.4476 27.465 25.9276 28.0425 26.4151C28.23 25.2001 28.08 24.0226 27.645 22.8826C27.6075 22.7926 27.48 22.6726 27.39 22.6726C26.475 22.6951 25.5525 22.6951 24.705 23.1226ZM17.5275 27.6601C17.31 27.2326 17.205 26.6401 16.875 26.4526C15.8775 25.8826 14.955 25.2526 14.1675 24.2776C13.95 25.6201 14.115 26.8126 14.565 27.9751C14.595 28.0426 14.7 28.1326 14.7675 28.1326C15.6975 28.1101 16.635 28.1176 17.5275 27.6601ZM15.5025 21.1726C16.1025 22.3126 16.7625 23.1001 17.3775 23.4076C17.49 23.2426 17.5725 23.0401 17.715 22.9126C18.0975 22.5751 18.1125 22.1551 18.0975 21.6826C18.09 21.1426 18.165 20.5951 18.2475 20.0551C18.3075 19.6651 18.4425 19.2901 18.555 18.8701C17.2875 19.3651 16.29 20.1376 15.5025 21.1726ZM24.915 27.2401C24.6975 27.5701 24.615 27.7726 24.4725 27.9001C24.09 28.2376 24.075 28.6576 24.09 29.1301C24.0975 29.6701 24.0225 30.2176 23.94 30.7576C23.88 31.1476 23.745 31.5226 23.6325 31.9426C24.9075 31.4401 25.8975 30.6676 26.745 29.5576C26.1525 28.8076 25.5675 28.0576 24.915 27.2401ZM25.515 19.9726C24.6 19.2226 23.6475 18.8176 22.605 18.5476C22.08 18.4126 21.8325 18.5251 21.6225 19.0276C21.33 19.7251 20.955 20.3776 20.925 21.1576C21.225 21.1876 21.4875 21.2251 21.75 21.2401C21.945 21.2551 22.2 21.3301 22.3275 21.2401C23.265 20.5876 24.2925 20.1676 25.515 19.9726ZM21.2625 29.6851C20.4825 29.4826 19.74 29.4226 19.1175 30.0226C19.0725 30.0601 19.0125 30.0826 18.9525 30.1051C18.2325 30.3751 17.505 30.6451 16.77 30.9151C17.7 31.6801 18.8025 32.1376 20.0175 32.3251C20.115 32.3401 20.295 32.2501 20.34 32.1601C20.76 31.3801 21.2025 30.6076 21.2625 29.6851ZM21.105 24.0001C20.34 23.9926 19.695 24.6226 19.6875 25.3876C19.68 26.1526 20.31 26.7976 21.075 26.8051C21.84 26.8126 22.485 26.1826 22.4925 25.4176C22.5 24.6526 21.87 24.0076 21.105 24.0001ZM5.6325 8.46755C5.6175 9.03755 5.9775 9.61505 6.4875 9.78755C6.63 9.83255 6.8625 9.81005 6.9825 9.72005C7.4175 9.39755 7.8375 9.03755 8.235 8.67005C8.34 8.57255 8.4225 8.37755 8.4 8.24255C8.295 7.55255 7.5975 7.05005 6.9 7.12505C6.21 7.20005 5.64 7.79255 5.6325 8.46755ZM7.0125 43.6801C7.6575 43.6876 8.235 43.2601 8.37 42.6226C8.4 42.4726 8.325 42.2251 8.2125 42.1201C7.8525 41.7751 7.4325 41.4976 7.08 41.1451C6.825 40.8901 6.5925 40.9201 6.33 41.0701C5.82 41.3551 5.52 42.0376 5.6625 42.5926C5.82 43.2301 6.375 43.6726 7.0125 43.6801ZM36.555 42.3301C36.5625 41.7601 36.2025 41.1826 35.685 41.0101C35.55 40.9651 35.34 40.9801 35.2275 41.0626C34.77 41.4076 34.3275 41.7826 33.9 42.1726C33.8175 42.2476 33.7575 42.4126 33.7725 42.5251C33.855 43.2001 34.545 43.7326 35.25 43.6801C35.9625 43.6276 36.555 43.0126 36.555 42.3301Z" fill="#495053"/>
</svg>
