<svg width="101" height="101" viewBox="0 0 101 101" fill="none" xmlns="http://www.w3.org/2000/svg">
<path d="M40.7695 11.6926H22.3125C22.2567 11.6926 22.2023 11.6876 22.1484 11.6804V14.1961H42V12.9231C42 12.2436 41.4491 11.6926 40.7695 11.6926Z" fill="black"/>
<path d="M22.1484 16.657H42V19.1179H22.1484V16.657Z" fill="black"/>
<path d="M22.1484 21.5789H42V24.0421H22.1484V21.5789Z" fill="black"/>
<path d="M0 37.4929C0 38.1725 0.550922 38.7234 1.23047 38.7234H40.7695C41.4491 38.7234 42 38.1725 42 37.4929V36.3468H0V37.4929Z" fill="black"/>
<path d="M0 31.425H42V33.886H0V31.425Z" fill="black"/>
<path d="M16.5243 26.5007H0V28.9641H42V26.5031H16.5703C16.5548 26.503 16.5397 26.5013 16.5243 26.5007Z" fill="black"/>
<path d="M19.6875 9.27649H16.5703H1.23047C0.550922 9.27649 0 9.82741 0 10.507V24.0398H19.6875V9.27649ZM14.7656 12.9667C15.4434 12.9667 15.9961 13.5195 15.9961 14.1972C15.9961 14.875 15.4434 15.4277 14.7656 15.4277C14.0879 15.4277 13.5352 14.875 13.5352 14.1972C13.5352 13.5195 14.0879 12.9667 14.7656 12.9667ZM13.5352 16.6582C13.5352 17.3359 12.9824 17.8886 12.3047 17.8886C11.6269 17.8886 11.0742 17.3359 11.0742 16.6582C11.0742 15.9804 11.6269 15.4277 12.3047 15.4277C12.9824 15.4277 13.5352 15.9804 13.5352 16.6582ZM12.3047 10.5058C12.9824 10.5058 13.5352 11.0585 13.5352 11.7363C13.5352 12.414 12.9824 12.9667 12.3047 12.9667C11.6269 12.9667 11.0742 12.414 11.0742 11.7363C11.0742 11.0585 11.6269 10.5058 12.3047 10.5058ZM9.84375 12.9667C10.5215 12.9667 11.0742 13.5195 11.0742 14.1972C11.0742 14.875 10.5215 15.4277 9.84375 15.4277C9.16601 15.4277 8.61328 14.875 8.61328 14.1972C8.61328 13.5195 9.16601 12.9667 9.84375 12.9667ZM7.38281 10.5058C8.06055 10.5058 8.61328 11.0585 8.61328 11.7363C8.61328 12.414 8.06055 12.9667 7.38281 12.9667C6.70507 12.9667 6.15234 12.414 6.15234 11.7363C6.15234 11.0585 6.70507 10.5058 7.38281 10.5058ZM8.61328 16.6582C8.61328 17.3359 8.06055 17.8886 7.38281 17.8886C6.70507 17.8886 6.15234 17.3359 6.15234 16.6582C6.15234 15.9804 6.70507 15.4277 7.38281 15.4277C8.06055 15.4277 8.61328 15.9804 8.61328 16.6582ZM4.92188 12.9667C5.59962 12.9667 6.15234 13.5195 6.15234 14.1972C6.15234 14.875 5.59962 15.4277 4.92188 15.4277C4.24413 15.4277 3.69141 14.875 3.69141 14.1972C3.69141 13.5195 4.24413 12.9667 4.92188 12.9667ZM2.46094 10.5058C3.13868 10.5058 3.69141 11.0585 3.69141 11.7363C3.69141 12.414 3.13868 12.9667 2.46094 12.9667C1.7832 12.9667 1.23047 12.414 1.23047 11.7363C1.23047 11.0585 1.7832 10.5058 2.46094 10.5058ZM2.46094 15.4277C3.13868 15.4277 3.69141 15.9804 3.69141 16.6582C3.69141 17.3359 3.13868 17.8886 2.46094 17.8886C1.7832 17.8886 1.23047 17.3359 1.23047 16.6582C1.23047 15.9804 1.7832 15.4277 2.46094 15.4277ZM2.46094 22.8105C1.7832 22.8105 1.23047 22.2578 1.23047 21.58C1.23047 20.9023 1.7832 20.3496 2.46094 20.3496C3.13868 20.3496 3.69141 20.9023 3.69141 21.58C3.69141 22.2578 3.13868 22.8105 2.46094 22.8105ZM4.92188 20.3496C4.24413 20.3496 3.69141 19.7968 3.69141 19.1191C3.69141 18.4413 4.24413 17.8886 4.92188 17.8886C5.59962 17.8886 6.15234 18.4413 6.15234 19.1191C6.15234 19.7968 5.59962 20.3496 4.92188 20.3496ZM7.38281 22.8105C6.70507 22.8105 6.15234 22.2578 6.15234 21.58C6.15234 20.9023 6.70507 20.3496 7.38281 20.3496C8.06055 20.3496 8.61328 20.9023 8.61328 21.58C8.61328 22.2578 8.06055 22.8105 7.38281 22.8105ZM9.84375 20.3496C9.16601 20.3496 8.61328 19.7968 8.61328 19.1191C8.61328 18.4413 9.16601 17.8886 9.84375 17.8886C10.5215 17.8886 11.0742 18.4413 11.0742 19.1191C11.0742 19.7968 10.5215 20.3496 9.84375 20.3496ZM12.3047 22.8105C11.6269 22.8105 11.0742 22.2578 11.0742 21.58C11.0742 20.9023 11.6269 20.3496 12.3047 20.3496C12.9824 20.3496 13.5352 20.9023 13.5352 21.58C13.5352 22.2578 12.9824 22.8105 12.3047 22.8105ZM14.7656 20.3496C14.0879 20.3496 13.5352 19.7968 13.5352 19.1191C13.5352 18.4413 14.0879 17.8886 14.7656 17.8886C15.4434 17.8886 15.9961 18.4413 15.9961 19.1191C15.9961 19.7968 15.4434 20.3496 14.7656 20.3496ZM17.2266 22.8105C16.5488 22.8105 15.9961 22.2578 15.9961 21.58C15.9961 20.9023 16.5488 20.3496 17.2266 20.3496C17.9043 20.3496 18.457 20.9023 18.457 21.58C18.457 22.2578 17.9043 22.8105 17.2266 22.8105ZM17.2266 17.8886C16.5488 17.8886 15.9961 17.3359 15.9961 16.6582C15.9961 15.9804 16.5488 15.4277 17.2266 15.4277C17.9043 15.4277 18.457 15.9804 18.457 16.6582C18.457 17.3359 17.9043 17.8886 17.2266 17.8886ZM17.2266 12.9667C16.5488 12.9667 15.9961 12.414 15.9961 11.7363C15.9961 11.0585 16.5488 10.5058 17.2266 10.5058C17.9043 10.5058 18.457 11.0585 18.457 11.7363C18.457 12.414 17.9043 12.9667 17.2266 12.9667Z" fill="black"/>
<mask id="mask0_60_1539" style="mask-type:luminance" maskUnits="userSpaceOnUse" x="42" y="28" width="56" height="43">
<path d="M42 28H98V71H42V28Z" fill="white"/>
</mask>
<g mask="url(#mask0_60_1539)">
<path d="M65.1887 68.1712C58.0831 69.0139 51.6565 69.4871 44.1273 67.5384C43.4489 67.3632 42.9996 66.7704 43 66.1226V32.8769C43 32.0667 43.6801 31.4097 44.5189 31.4097C44.681 31.4097 44.8373 31.4344 44.9838 31.4797C53.4765 33.6596 61.6181 32.5361 69.6462 31.428C78.7888 30.324 86.5073 29.0873 95.6793 31.4311C96.3597 31.604 96.8129 32.1976 96.8125 32.8468V66.0925C96.8125 66.9027 96.1324 67.5597 95.2936 67.5597C95.1227 67.5597 94.9584 67.5324 94.805 67.4821C88.0611 65.7788 81.5994 66.125 74.952 66.9298" stroke="black" stroke-width="2" stroke-miterlimit="22.926" stroke-linecap="round" stroke-linejoin="round"/>
<path d="M69.9063 59.2013C75.328 59.2013 79.75 54.8433 79.75 49.5001C79.75 44.1568 75.328 39.7988 69.9063 39.7988C64.4845 39.7988 60.0625 44.1568 60.0625 49.5001C60.0625 54.8433 64.4845 59.2013 69.9063 59.2013Z" stroke="black" stroke-width="2" stroke-miterlimit="22.926" stroke-linecap="round" stroke-linejoin="round"/>
<path d="M70.073 67.5741H70.0738" stroke="black" stroke-width="2" stroke-miterlimit="2.613" stroke-linecap="round" stroke-linejoin="round"/>
</g>
</svg>
