<svg width="20" height="20" viewBox="0 0 20 20" fill="none" xmlns="http://www.w3.org/2000/svg">
<path d="M15.256 10L19.6371 5.61888C20.1208 5.13519 20.1211 4.35084 19.6371 3.8669L16.1319 0.362954C15.648 -0.120985 14.8639 -0.120985 14.38 0.362954L10 4.74409L5.6189 0.362954C5.13496 -0.120985 4.35086 -0.120985 3.86692 0.362954L0.362955 3.8669C-0.120985 4.35084 -0.120985 5.13494 0.362955 5.61888L4.74411 10L0.362955 14.3799C-0.120985 14.8639 -0.120985 15.648 0.362955 16.1319L3.86692 19.6371C4.35061 20.1208 5.13479 20.1212 5.6189 19.6371L10 15.2559L14.38 19.6371C14.8637 20.1208 15.6478 20.1212 16.1319 19.6371L19.6371 16.1319C20.1208 15.6482 20.1211 14.8639 19.6371 14.3799L15.256 10Z" fill="#7EB5A6"/>
</svg>
