<svg width="80" height="80" viewBox="0 0 80 80" fill="none" xmlns="http://www.w3.org/2000/svg">
<path d="M61.9867 16.4483C61.9313 16.1006 61.6966 15.8105 61.4021 15.6245L31.5093 0.124554C31.1904 -0.0415178 30.8096 -0.0415178 30.4907 0.124554L0.597857 15.6245C0.256857 15.8017 0 16.2202 0 16.6077V60.8934C0 61.5045 0.496 62.0005 1.10714 62.0005H5.53571C6.14686 62.0005 6.64286 61.5045 6.64286 60.8934V28.7863H55.3571V60.8934C55.3571 61.5045 55.8531 62.0005 56.4643 62.0005H60.8928C61.504 62.0005 62 61.5045 62 60.8934C62 60.8934 62 16.6165 62 16.6077C62 16.5545 61.9956 16.5014 61.9867 16.4483ZM57.5714 59.7863V27.6791C57.5714 27.068 57.0754 26.572 56.4643 26.572H5.53571C4.92457 26.572 4.42857 27.068 4.42857 27.6791V59.7863H2.21429V17.2808L31 2.35434L59.7857 17.2808V59.7863H57.5714Z" fill="black"/>
<path d="M18.8213 17.7148H5.53561C4.92447 17.7148 4.42847 18.2108 4.42847 18.822V23.2506C4.42847 23.8617 4.92447 24.3577 5.53561 24.3577H18.8213C19.4325 24.3577 19.9285 23.8617 19.9285 23.2506V18.822C19.9285 18.2108 19.4325 17.7148 18.8213 17.7148ZM17.7142 22.1434H6.64275V19.9291H17.7142V22.1434Z" fill="black"/>
<path d="M56.4643 16.7148H43.1786C42.5674 16.7148 42.0714 17.2108 42.0714 17.822V22.2506C42.0714 22.8617 42.5674 23.3577 43.1786 23.3577H56.4643C57.0754 23.3577 57.5714 22.8617 57.5714 22.2506V17.822C57.5714 17.2108 57.0754 16.7148 56.4643 16.7148ZM55.3571 21.1434H44.2857V18.9291H55.3571V21.1434Z" fill="black"/>
<path d="M38.7501 17.7148H23.2501C22.6389 17.7148 22.1429 18.2108 22.1429 18.822V23.2506C22.1429 23.8617 22.6389 24.3577 23.2501 24.3577H38.7501C39.3612 24.3577 39.8572 23.8617 39.8572 23.2506V18.822C39.8572 18.2108 39.3612 17.7148 38.7501 17.7148ZM37.6429 22.1434H24.3572V19.9291H37.6429V22.1434Z" fill="black"/>
<path d="M49.8947 44.3846H44.3684V32.1154C44.3684 31.4997 43.8733 31 43.2632 31H16.7368C16.1267 31 15.6316 31.4997 15.6316 32.1154V44.3846H10.1053C9.49516 44.3846 9 44.8843 9 45.5V58.8846C9 59.5003 9.49516 60 10.1053 60H49.8947C50.5048 60 51 59.5003 51 58.8846V45.5C51 44.8843 50.5048 44.3846 49.8947 44.3846ZM42.1579 46.6154H44.3684V48.1568L43.7583 47.849C43.4533 47.6951 43.0753 47.6951 42.7702 47.849L42.1579 48.1568V46.6154ZM42.1579 44.3846H31.1053V33.2308H33.3158V36.5769C33.3158 36.9628 33.5147 37.322 33.8397 37.525C34.1646 37.728 34.5714 37.7458 34.914 37.5741L36.6294 36.7085L38.3447 37.5741C38.5039 37.6522 38.6719 37.6923 38.8421 37.6923C39.0433 37.6923 39.2466 37.6365 39.4235 37.525C39.7484 37.322 39.9474 36.9628 39.9474 36.5769V33.2308H42.1579V44.3846ZM28.8947 46.6154H31.1053V48.1568L30.4952 47.849C30.1945 47.6973 29.8165 47.6928 29.5071 47.849L28.8947 48.1568V46.6154ZM37.7368 33.2308V34.7722L37.1267 34.4644C36.972 34.3863 36.8018 34.3462 36.6316 34.3462C36.4614 34.3462 36.2934 34.3863 36.1364 34.4644L35.5263 34.7722V33.2308H37.7368ZM24.4737 33.2308V34.7722L23.8636 34.4644C23.7088 34.3863 23.5386 34.3462 23.3684 34.3462C23.1982 34.3462 23.0302 34.3863 22.8733 34.4644L22.2632 34.7722V33.2308H24.4737ZM17.8421 33.2308H20.0526V36.5769C20.0526 36.9628 20.2516 37.322 20.5765 37.525C20.8993 37.728 21.3082 37.7458 21.6508 37.5741L23.3662 36.7085L25.0816 37.5741C25.2407 37.6522 25.4087 37.6923 25.5789 37.6923C25.7801 37.6923 25.9835 37.6365 26.1603 37.525C26.4853 37.322 26.6842 36.9628 26.6842 36.5769V33.2308H28.8947V44.3846H17.8421V33.2308ZM17.8421 46.6154V48.1568L17.232 47.849C16.9225 47.6928 16.5534 47.6928 16.2439 47.849L15.6316 48.1568V46.6154H17.8421ZM11.2105 46.6154H13.4211V49.9615C13.4211 50.778 14.2964 51.3201 15.0215 50.9587L16.7368 50.0932C16.7368 50.0932 18.4478 50.9565 18.4522 50.9587C19.1618 51.3156 20.0526 50.7847 20.0526 49.9615V46.6154H22.2632V57.7692H11.2105V46.6154ZM24.4737 46.6154H26.6842V49.9615C26.6842 50.7713 27.5684 51.3156 28.2846 50.9587L30 50.0932L31.7154 50.9587C32.4338 51.3223 33.3158 50.7735 33.3158 49.9615V46.6154H35.5263V57.7692H24.4737V46.6154ZM48.7895 57.7692H37.7368V46.6154H39.9474V49.9615C39.9474 50.778 40.8227 51.3178 41.5478 50.9587L43.2632 50.0932L44.9785 50.9587C45.7036 51.3245 46.5789 50.7735 46.5789 49.9615V46.6154H48.7895V57.7692Z" fill="black"/>
</svg>
