<svg xmlns="http://www.w3.org/2000/svg" width="391.3" height="474"><path d="M190 474c-4-1-6-3-10-6-4-5-5-7-5-15 0-7 0-8 2-11 3-5 8-9 12-10l9-1c5 1 7 1 10 3 7 4 11 12 10 20 0 7-6 16-12 19l-16 1zm16-2c4-2 8-7 9-9l1-3c2-3 2-10 1-15-2-4-6-9-10-11-3-2-14-2-18-1s-10 6-12 10-2 16 0 20c2 3 8 8 12 9 4 2 13 1 17 0zm-5-3h3v1l-3 1h-2zm-8-1c-4-3-5-8-5-15 0-6 0-7 2-12 1-4 4-6 8-5 2 1 5 3 5 5l1 6c1 6 1 13-1 17-1 2-5 5-7 5l-3-1zm7-2c3-2 4-6 4-13 0-5-2-13-4-15-2-1-6-1-8 1-4 3-5 18-2 24 2 3 4 5 7 5l3-2zm-13-1-4-5c-1-4-4-13-3-15v1c2 9 4 14 9 21v1l-2-3zm25-7-3-7-2-5-2-5 5 9 3 6 1 3-2-1zm-28-6c-1-2 0-5 1-8 2-5 3-4 1 1l-1 6c0 2 0 3-1 1zm-51 19 4-1-6-8-7-9 4-2c3-2 5-5 5-9 0-5-4-7-14-7-3 0-4 0-3 1 3 1 6 2 7 4s0 6-1 8l-5 4 2-1c2-1 4-4 4-8s-3-6-7-6h-3v4-6h-3c-3-1-8 0-8 1l1 1 1 16-1 16c-2 1-1 2 5 2l7-1-1-2c-3-3-3-12 0-13 1-1 4 3 9 10l6 6h2-2c-2 0-3 0-5-5l-10-11c-2 0-2 10 0 13s2 3-6 3c-7 0-8 0-6-2s2-30 0-32c-2-3 0-3 11-3 13 0 16 1 18 3s2 3 2 5c0 5-1 7-4 9l-4 3 6 8 8 9-4 1c-4 0-4 0-2-1zm135 0c-3 0-6-3-7-5l-1-14c0-10-1-13-2-15v-3h2c1 0 1 0 0 0-2 1-2 1-1 3s2 6 2 15c1 16 2 18 10 19l2 1-5-1zm11 1 3-1 2-1 5-3 2-6v-3l-1 3c-1 3-2 5-7 7-2 1-4 2-6 1-5-1-6-1-7-4-2-2-2-4-2-12v-10 7l1 11c0 2 0 3 2 5l6 2c4 0 8-1 10-3s2-3 2-13a46 46 0 0 0-3-17l4-1c5 0 5 1 3 4l-1 14-2 14c-2 3-8 6-11 6-2 0-2 0 0 0zm12-23 1-11 2-3h-4c-3 0-3 0-2 3l1 10 1 10 1-9zm47 22c-1-1 0-2 1-3l1-15-1-15c-2-3-2-4 2-5l25 2 3 3c2 3 1 3-1 1 0-2-2-3-4-4h-26l1 2c2 2 2 4 2 16 0 11-1 13-2 15l-1 3h7c7 0 8 0 6-3l-1-7c0-5 0-5 2-5 2-1 2 0 0 0-1 0-2 1-2 5s1 6 2 7c2 3 1 4-7 4l-7-1zm-309-1c-6-4-8-8-8-18 0-8 1-12 8-16l4-3h9c10 0 12 1 12 3 0 1 0 1 0 0-1-2-2-2-11-2-8 0-10 0-12 2-2 0-3 1-3 2l-2 1c-3 1-4 5-5 13 0 8 1 12 5 15s7 4 17 3c5 0 8 0 7 1H40l-11-1zm25-2 2-5 1-5c0-2 0-2-4-2h-5l1 3c1 4 0 8-1 9s-10 2-13 0c-1 0-3-2-4-5-2-3-2-5-2-10 0-7 1-12 4-15 2-2 2-2 7-2l8 1 4 4c0 2 1 2 1-1l1-2v2l-1 3-4-3-3-4h-5c-6 0-7 1-10 6-2 4-2 17 0 21 3 5 5 6 11 5l6-1c1-2 1-7-1-9s-1-3 5-3l6 1-1 3-1 5c0 3-2 6-3 6l1-2zm292-1v-7c1-6 0-15-2-20-3-4-3-4-1-4s5 13 4 20v8c0 5 0 7-1 3zm-218-3-4-5-3-4-1-1 3 2a102 102 0 0 0 9 11l-4-3zm136-3-1-7 1 1 1 7 1 5-2-6zm-237 4c-1-2-4-12-3-13 0-1 0-1 0 0l2 8 1 6v-1zm25 0v-4l-1-3 1 3v4zm305-10c4-1 9-4 11-6l2-4 1-4v3c-1 4-2 5-5 8l-10 3h1zm-246-3-5-15 4 10 1 6v-1zm240 0c-2-1-2-14 0-15 4-2 7 0 8 5s0 8-3 9c-3 2-3 2-5 1zm4-1c2-1 4-5 4-7l-1-3c0-2-2-4-5-4-2 0-3 1-2 8s1 7 4 6zm-242-2c0-3 0-3 1 0l1 2v1c-2 0-2-1-2-3zm247 1h3c1 0 2 0 0 0h-3zm-334-3v-1 2-1zm238-5v-5l1 5-1 5v-5zm-238 1 1-3v2c0 3-1 3-1 1zm242-2 1-4c0-2 0-2-2-2h-5c-1-1 3-1 6-1 2 1 2 1 1 6l-1 1zm-21-36-12-13-23-28v25c0 7 1 8 5 10 3 0 5 3 3 4l-5 2h-3l4-1c3 0 3-1 3-2s0-2-3-3-4-2-5-7v-29c1-1 4 3 18 21 19 22 18 21 22 21h3v-5l1-26c0-22 1-23 4-25h11c3 1 3 5 3 23l2 22c4 7 11 10 23 11l8 1-8-1c-9 0-14-1-19-6-5-4-6-6-6-28-1-23-1-22-8-22-5 0-6 0-7 2l-2 2v26l-1 26h-8zm61-1c5-1 13-9 14-13l1-20 1-18 3-4 7-1c5 0 7 0 9 3l1 23-1 23c0 1-2 3-4 3-7 3-4 4 25 4 28 0 26 0 26-10 0-7-1-8-4-2-3 4-7 8-10 8l1-1c3-1 5-3 8-8 4-6 6-6 6 3 0 6-1 9-4 10-5 1-50 0-51-1s0-3 2-3l3-2 2-2v-44l-2-2c-2-1-3-2-7-2s-5 1-7 2l-3 3v18l-1 21c-2 5-12 13-16 13l1-1zm-172 0c-2-1-2-3 0-4l3-2c1-2 2-41 1-45 0-3-3-5-8-6h-4 4c4 0 8 2 9 5v45l-2 2-3 2-1 2a259 259 0 0 0 50-1l1-7-1-7-1 3c-2 4-8 9-10 9l1-1c2 0 6-5 9-10l2-2 1 15-4 2h-47zm58 0-1-2 4-3c6-3 6-2 6-24s0-22-6-25l-4-4 1-2 12-1c11 0 11 0 13 2a771 771 0 0 1 27 32l2 2v-8c0-17 0-19-5-21l-5-3c-1-1-1-1 1-2l27-2a434 434 0 0 1-27 3l3 3c6 2 7 4 7 22l-1 9a429 429 0 0 0-30-35l-12-1c-11 0-12 0-12 2l2 2c8 4 8 6 8 29 0 18 0 20-4 22l-6 3 9 2h9-18zM0 403l3-3c5-3 5-3 18-35l9-21h3c4 0 4 0 6 3l1 3-1-2c-2-3-2-3-5-3h-4l-4 10a437 437 0 0 1-22 45l-2 2h16l-3-2c-3-2-3-4 1-13 1-4 2-4 14-4h9l2 5 3 8c1 3 1 3-2 5l-2 1h24l-1-2c-3-1-4-3-6-7a763 763 0 0 1-9-25c10 26 11 29 15 31l4 3-8 1c-9 1-20 0-20-1l2-2c3-1 3-1 3-4l-3-8-3-4-8-1-11 1c-2 1-5 7-5 12l2 4c5 3 4 3-6 3H0zm92 0a1551 1551 0 0 1-22-50l-5-4c-3-3-4-4-1-5l27 1c1 0 1 1-3 3l-3 3 7 17c6 15 8 18 5 15l-12-33 3-3 2-2H64c-1 1 0 1 2 3l4 4c2 2 12 26 20 47l2 4h8l1-4 4-8 5-12c4-11 11-25 13-28l3-3a148 148 0 0 0-18 36l-7 17-1 3h-4l-4-1zm156-6a76 76 0 0 0-9-14l10 14c3 5 3 6 2 6l-3-6zm40 4-6-12 2 3 5 8c3 2 2 3-1 1zm-139-2-3-17 1 6 3 11 1 2-2-2zm56 1c-2-2-1-2 1 0l1 1-2-1zm7 0c-2-1-4-4-3-5v2l4 3 2 1-3-1zm140 0c-2-3-3-15-2-26v-11 11c0 12 1 21 3 25 2 3 1 3-1 1zm9 0-3-2v-23h6c6 0 9 1 10 4 2 5 3 6 4 2v-2 2c0 5-2 5-4 1-2-5-4-6-10-6h-5v10c-1 13-1 13 9 14 6 0 6 1-2 1l-5-1zm-314-8zm50 8-8-19-4-8a441 441 0 0 1 12 27zm59 0-2-10v-12c1-2 1-3 4-4 5-1 11 2 13 6 1 3 2 4 3 2v-19c-1-1-1-1-2 1l-4 5c-2 2-3 3-5 2h-2 2c2 0 3-1 5-3l3-5 2-2c2 0 2 3 2 12 0 12-2 14-5 7l-3-4h-11c-2 2-1 21 1 23h8l7 1h-16zm229 0v-3l1 2c2 2 1 3-1 1zm-87-1c-6-1-10-6-9-11v1l4 7c2 2 3 2 7 3 8 0 12-1 16-7l3-3-1-17-1-20-4-3-4-2c-1-3 1-3 39-4a878 878 0 0 1-37 2c-1 1 0 3 3 4 5 2 5 3 5 23v18l-2 3c-3 4-7 6-13 7l-6-1zm-243-2c-3-4-4-6-1-3l4 5-3-2zm128-1 1-1c0-1 0-1 0 0 0 2 0 3-1 1zm-86-5-3-4 2 1 4 4 1 2-4-3zm54-1-1-4 1 3 1 5-1-4zm57 2v-2 3-1zm39-3-4-5 4 3 5 6-5-4zm38 1-1-4 2 3c2 5 1 5-1 1zm69 0c-2-5-2-6 0-2 1 1 2 3 1 4l-1-2zm-254-2-1-3 1 2 1 2 14-33c1-5 1-7-3-8-3-2-4-4-2-4a212 212 0 0 1 14 0l-15 1 3 2c5 2 5 4 2 13a114 114 0 0 1-6 17c-3 8-6 13-7 13l-1-2zm-52 0v-2l1 2v1l-1-1zm240-20c0-19 0-19 5-20 3-1 4-2 1-3v-1l2 1c1 2 0 3-3 4l-4 1v18l-1 18zm-139 15v-1 2-1zm131 0-1-3 1 1v2zm72 0v-1 2-1zm-111-1c-1-1-1-1 0 0l2 1-2-1zm-35 0 1-2h1l-1 2h-1zm32-1v-1l1 2-1-1zm43-2c0-2 1-2 1-1v2l-1-1zm72 0v-4c0-3 1-3 1-1 1 1 0 7-1 7v-2zm-203-4v-2 5-3zm89 4c-1-1-1-1 0 0l2 1-2-1zm-219 0c-1-1 6-19 8-19l3 4 5 14c0 2 0 2-8 2l-8-1zm15-1-5-15-2-2c-2 2-7 15-7 17l7 1 7-1zm112-6-2-13-1-6 2 6 1 14v7zm87 4-2-2 3 2c3 4 2 4-1 0zm45-4v-2 5-3zm99 3v-5 5zm-144-2-2-2 3 2c3 3 2 3-1 0zm-14-6-11-13-6-7-1-1h1c2 0 3 2 6 6 5 7 17 20 20 21 2 1 2 1 0 1l-9-7zm-136 3c-1-1-1-2 0 0v1-1zm269-2v-2 4-2zm11 3h2-2zm-209-6v-6 11h3l3 1h-6zm74 5h1l-1 1v-1zm129-11v-11h18l5 5 5 5 1-6-1-7-1-1c2 0 3 3 3 8 0 8-2 8-6 3-6-6-7-7-15-7h-8v22h2c2 1 2 1 0 1h-3zm11 10 5-4c2-4 4-4 4 0v1c-1-4-2-4-3-1l-7 6 1-2zm-147-4-4-5 4 5zm60 1v-1 3-2zm-132-1c0-1 0-1 0 0v1-1zm128-1-1-7-1-5 3 12h-1zm-129-2s0-1 0 0v1-1zm-71-5-5-8-1-2 1 1 8 15-3-6zm203 5v-1 2-1zm67-5-4-8-1-2 2 2 5 13c-1 1-1-2-2-5zm-97 4 1-3c2-3 2-3 2-1l-2 3-1 1zm-216-1c0-1 0-2 1-1v1h-1zm113-1 1-1v2c-1 1-1 0-1-1zm203 0 1-1v2l-1-1zm-71-2v-1 3-2zm-126-1v-1 3-2zm23-3c-4-4-5-5-8-5l-5-1h1l5 1c3 0 4 0 7 4l5 5 1-6v-6h-3l-20-1a194 194 0 0 1 1-1l22 2c2 2 1 14-1 13l-5-5zm-143 0v-6l1 5v6l-1-5zm179 1-1-8 1 2 1 5c2 5 1 5-1 1zm-66 1v-9l1 5v5l-1-1zm203 0v-9l1 5v5l-1-1zm-71-4v-5c1-1 1 1 1 5l-1 3zm-200 0-1-3v-1l1 3v1zm76 1c0-4 1-4 5-4h3-4l-4 3v1zm99-2v-4 5-1zm127-1-2-2 4 4-2-2zm-63 0-1-2 2 1c1 3 1 3-1 1zm-140-1-1-1 4 2-3-1zm69 0c-1-1-1-1 0 0l2 1c0 1-1 1-2-1zm76 0c-1-1 0-2 1-2l2 1-3 1zm-148-37a183 183 0 0 1-57-19c-1-1 14-37 15-39l5 2c9 5 29 11 42 13a114 114 0 0 0 43-3l-19 4c-12 1-20 1-30-1a165 165 0 0 1-40-14l-15 35-1 3 9 4c11 5 26 10 38 13 9 2 11 2 28 2s19 0 27-2a174 174 0 0 0-24 3l-21-1zm62-12h-13c-29 0-51-3-71-10-11-3-12-4-17-18l-3-10c1 0 4 6 6 14 3 9 6 11 22 15 15 4 22 5 42 5 14 0 20-1 26-2 11-1 13-1 18 2l3 2-3 1c-4 2-6 2-10 1zm24-5 3-2c2 0 3-1 1-6l-2-4 3 4 1 5-4 3-4 2zm-9-6-12-6-3-3 3-8 4-12v4l-4 15c0 2 4 6 8 7l14 6c0 1-1 1-10-3zm-73 0c-13-1-30-6-33-9-2-2-2-3-2-9l-1-8c-1-2-1-2 1-1l1 7c0 8 1 10 4 12 7 3 30 7 35 6a569 569 0 0 1 6-2l-7-7-6-6 7 1c7 0 7 0 10 3 4 3 9 6 15 7l4 3c-1 2-21 4-34 3zm78-20-6-13c-1-1-2 0-4 1l-12 5 6-3 7-4c1-1 4-1 4 1a7032 7032 0 0 0 5 13zm-164 7c-34-29-53-66-56-111A158 158 0 0 1 150 5l-8 3a156 156 0 0 0-61 255l18 15 6-13 2-7a5231 5231 0 0 0 75-179c6-14 7-16 6-17l-14 2-5 1c-7 1-25 10-30 15-3 2-5 7-25 56a564 564 0 0 1 0-1l22-55 4-3c10-6 21-11 34-13l15-2-4 12a27019 27019 0 0 0-86 205l-6-4zm191 3a2882 2882 0 0 1-32-77l-1-3h-41c-43 0-53-1-53-2l17-40 6-1h5-5l-6 2c-2 3-16 38-15 39a1051 1051 0 0 0 93 2 2712 2712 0 0 1 33 80l16-13c6-5 14-15 19-22a163 163 0 0 0 25-66l2-9a155 155 0 0 1-34 85c-7 10-25 26-28 26l-1-1zm-186-7c-1-5-7-20-10-24l-5-7a156 156 0 0 1-3-174l15-26c0-2 1-3 3-5 6-5 15-11 16-10 0 1-4 8-13 19-19 22-27 34-34 53-8 18-11 35-11 56 0 33 9 60 28 86 4 6 7 10 9 16 5 12 7 16 6 18l-1-2zm195-3-1-7-2-11-20-50c-2-5-9-12-14-14-5-3-10-3-39-3l-30-1c-3-1-6-6-7-11l-3-7c-2-3-2-6-1-6 2 0 5 7 6 12 2 8 3 9 8 10l29 1c32 0 36 0 45 8 5 4 7 8 17 33s16 44 14 46h-2zm-65-5 6-2c0 1-9 4-10 3l4-1zm-128-8c-4-4-6-8-6-13a3698 3698 0 0 0 61-149l16-26-6 11a6122 6122 0 0 1-63 150c-7 14-7 18-4 21 3 2 6 3 8 2l49-116a260 260 0 0 1 20-45 304953 304953 0 0 0-71 169l-4-4zm201-14 5-12c9-16 14-30 17-45 2-7 2-8 0-9h-20c-37 1-43-2-50-27a633 633 0 0 0-28-63l-10-15c0-2 0-3 1-2 1 0 2 1 2 3 1 4 5 10 8 14l5 7 22 53c6 17 8 20 16 24 6 2 7 3 13 3 8 0 12-1 12-2l-2-5-1-5c-1-2-1-3 2-3l4 2 1 2h13l14-1 1-2 2-1c1 0 2 1 1 2l-3 6c-3 6-3 6-1 9v6l-7 31c-3 10-4 13-2 13l6-3 11-7-7 14-3 3-16 8c-5 3-6 4-6 2zM80 213c-10-3-14-9-18-32-2-9-2-11-2-26l1-24c5-21 14-41 26-53 6-7 7-6 4 4l-1 13v7l-3 6-2 5-1-3-2-8-2-7c-1-1-5 4-8 11-13 24-15 53-8 81 4 15 6 19 13 21 9 2 10 2 11-2l1-3v8c-2 3-3 3-9 2zm7-15a136 136 0 0 1-6-28l3 16c3 13 4 15 6 9l1-2-3 7-1-2zm14-3-6-5 1-2 2 1c1 2 6 4 7 4l3-3 37-94c2-5 2-11 0-15-2-3-2-3 2-5 2-1 2-1 3 2 1 4 0 11-2 17-3 9-39 99-41 100-2 2-2 2-6 0zm90-21c-2-3 1-13 5-14h8c5 0 6 0 10 3l10 5c6 3 8 5 5 6a184 184 0 0 1-38 0zm156-14v-6l-9 1a1465 1465 0 0 1-59 0l-3-5 2 2 2 3h5a3256 3256 0 0 0 62-1v11zm-268-8c1-16 4-29 10-45a129 129 0 0 1 40-46c12-8 29-15 42-18 11-2 20-3 29-2a115 115 0 0 1 95 66l4 8h42v-2c-1-4-6-18-11-27-19-36-46-61-82-74a170 170 0 0 0-91-9c12-3 34-4 50-2a153 153 0 0 1 135 113v2h-43l-3-6a116 116 0 0 0-113-68c-34 3-66 23-86 53-10 16-16 35-17 57l-1 11zm154 7c-2 0-2-1 3-1 8-2 10-4 10-11l-1-8c-1-6-17-44-20-48l-18-21-5-3-2-1 4 1c3 1 6 4 12 12l11 14a624 624 0 0 1 21 56c0 6-2 9-8 10-4 2-5 2-7 0zm-47-3zm43-1 4-1a887 887 0 0 0 1 1l-5 1h-4zm37-28zm56-18a98 98 0 0 1-19-21 132 132 0 0 0-54-49 117 117 0 0 0-65-10c-9 2-20 7-25 12-3 2-5 5-7 5a135 135 0 0 0-12 6c-2 0 1-4 4-7 6-7 19-14 32-18 21-5 51 0 77 13 21 10 39 28 52 49 3 5 8 10 19 19a1037 1037 0 0 1-2 1zm5-4c-13-8-15-10-20-19-7-12-18-25-28-34-25-21-59-32-96-32-11 0-13 0-13-2l6-4 11-8 4-4 5 1 8 1h3l-6 4c-9 5-12 8-9 9l13 3c15 3 22 4 32 8 10 3 26 11 35 17a149 149 0 0 1 40 47c2 4 5 6 21 15 4 3 7 5 5 5l-11-7zm-71-3c-1-2-1-3 0 0l1 2-1-2zm-2-5c-1-2-1-3 0 0l1 2-1-2zm-5-10-4-9a98 98 0 0 0-32-13l-7-2-3-1 11 2c13 4 28 10 31 14 2 1 8 15 8 16l-4-7zm-53-25 3-1 2 1h-5zM152 5h1-1c-1 0-1 0 0 0z" style="fill:#f6d697;fill-rule:evenodd"/><path d="M280 471c0-2 2-3 4-2v1l-2 1h-2zm-144-1-3-2c-3-1-3-3-1-3 1 1 1 0 0 0l4 3v2zm50-2-6-5c-2-3-2-4-2-10 0-8 1-11 2-5 0 2 0 3 1 2v2c0 4 4 11 8 15 3 3 3 4 2 4s-4-1-5-3zm18 1-1-2 2-2c1-3 1-3 1 1s0 4-2 3zm74 0h1l-1 1v-1zm-225-1v-2c-1-1-1-1 1-1 2 1 2 1 0 3h-1zm289-1 1-15c0-13 0-13 1-11 2 4 3 13 2 19v7c0 2 0 2-2 2s-2 0-2-2zm5 1v-1l1 1c0 1 0 2-1 0zm-241-11c1-17 1-17 3-10 2 5 2 7 1 9v11c1 1 1 1-1 1h-3zm182 10v-2l2-4 1-3v3c0 3-2 7-3 6zm-161-3-2-2 2 1 2 3-2-2zm137-1v-6 3l1 2v3l-1-2zm-213-1h1v1l-1-1zm135 0c-1-1-1-1 0 0l1 1-1-1zm28 0-1-3c-1 0-1-1 0 0h3c1-1 1-1 0 0l-1 3c-1 2-1 2-1 0zm-190-1v-7c1-1 1-1 1 1v4c1 4 1 4-1 2zm182-1h1v1l-1-1zm-154-1h-1l-1-1c0-2-1-2-1 0h-1c0-3 4-2 4 0v2-1zm215 1-1-3c0-2 0-2 1-1 1 2 2 3 0 4zm-240-5c-1-4 0-4 1 0v3l-1-3zm186 2-2-1v-1l2 1 2 2-2-1zm-27-2-1-2 1 1 1 1h1c0 3-1 3-2 0zm104 2-1-4c1-2 1-2 1 1v3zm-73-2 1-1v2l-1-1zm-98-2-1-1 1 1h1l1 1c-1 1-1 1-2-1zm243-1c1 0 0 0 0 0-2 0 0-1 3-2 2 0 3 0 1 1l-4 1zm-12 0 1-1v1h-1zm-3-3v-1 3-2zm-321 1v-1 2-1zm159 0v-1 1c0 1 0 1 0 0zm2-1 1-1v2l-1-1zm171 0h1v2l-1-2zm-94 0c0-2 0-2 1-1v2l-1-1zm26-6-1-7h-2l2-1 2 1 1 1v1l-1 7c-1 5-1 5-1-2zm-180 5h1v1c-1 1-1 0-1-1zm252 1h2-2zm-13-2 1-1v2c-1 1-1 0-1-1zm-237-1 1-1v2l-1-1zm-86-2c0-1 0-1 0 0v2-2zm83 1 1-1v2l-1-1zm71-1c0-1 0-2 1-1v2l-1-1zm169-2c0-2 0-2 1-1v3c-1 1-1 0-1-2zm-3 1 1-1v1h-1zm-319-2c-1-1 0-2 1-3l1-2-1 2v4l-1-1zm25 0-2-3-1-1 4 5-1-1zm137 1-2-1v-1l1-1 1-1 4-5h-1c-1-1 1-1 4-1 4 0 6 0 4 1l-3 1 4 3c4 3 6 5 3 5l-1-1c1-1-4-4-6-5-3-1-7 1-7 4l-1 2zm-82-3c0-2 0-2 1-1l1 2c0 1-1 1-2-1zm238 0v-1l1 2-1-1zm-82 0 1-1v2l-1-1zm-146-3-3-1h6l-1 1v1l-2-1zm146 0v-1l1 1-1 1v-1zm87 0c-1-1 0-2 3-2l3 1c-1 0-2 0-1 1h-1l-3 1-1-1zm-238 0v-1l1 1h-1zm249-2 1 1h-1v-1zm-143-31c1-1 1-1-1-1s-2-1 0-1c2-1 2-1 2 1l-1 2v-1zm-202-1v-1c-1-1-1-1 0 0 2 1 2 2 1 2l-1-1zm43-1c-2-2-2-3 0-2l2 1 3 1v1h-2c-1 1-2 0-3-1zm187-1-14-17c-18-22-18-22-21-22l-2 1-1 9-1 9-1-12c0-15-1-17-6-20l-3-2h2l5 2 3 1 1 1c1 0 0 0 0 0l-1 1 1 1h2-1v1l1 1v1l1 1 1 1 2 3c1-1 2 1 4 3l3 3v2l2 1 2 2 2 2-2-2v1c2 2 3 2 5 1h2c-1 1 1 2 2 4l3 3 1 1 2 2 5 7c1 0 1 0 0 0l2 7 3 5c0 2-1 1-4-2zm-26-34-3-4-3-2 3 3 3 3zm85 35c6 0 10-1 10-3h-2c-2 1-2 1 0-1 3-2 6-6 6-9l1-2v4l1 3c3-3 0 2-4 5l-4 4h-14l6-1zm83 0h1s1 0 0 0v1l-1-1zm-246-1c1-5 2-9 2-26v-17h1v1c0 2 0 3 1 2v3l1 9-1 9v3l1 5v1c1-1 1 0 1 2-1 2 0 4 1 6l1 3h-4c-5 0-5 0-4-1zm9 0c-1-1-1-1 0 0l1 1-1-1zm8 1 5-1 5 1h-10zm43-1h3c1 1 1 1-2 1h-4zm48 0v-1l1 2-1-1zm36 0c-2 0-4-2-5-3-5-4-5-5-5-25v-16l2 2v3l1 2v2c1-1 1 0 1 2 0 1 0 2-1 1l-1 4 1 5v2c0 3 0 4 1 3v3l1 1v1l1 1v1c0-1 1 0 0 0 0 2 3 9 4 8l2 1h-1c-1-1-1 1 1 2 1 2 1 2-2 0zm9 1h2c1 0 1 0 0 0h-2zm49 0 1-2 1-23c0-19 0-22 1-20 1 1 1 2 2 1v1c-1 1 0 5 1 4v3c-1 16 0 31 2 35l1 1h-9zm10-1c-1-1-1-1 0 0l2 1-2-1zm11 1h2-2c-1 0-1 0 0 0zm5 0h2-2zm-323-1v-1c1-2-5-16-7-18-1-1-2-1-1-2l-1-4-1-4 1 1v1h1c-1 1 1 5 1 4v1l1 1c0-1 1-1 0 0l1 1c0 2 0 3 1 2h1c-1 1 1 4 1 4l1 1c-1 1-1 1 0 0h1c-1 1 2 9 3 8l1 4 1 2h-2l-3-1zm6-1c-1-1-1-1 0 0l1 2-1-2zm38-4a244 244 0 0 0-21-48l3 3 3 2v1l1 1v1s0 1 0 0l1 1v1h1c-1 1 1 6 2 6v1h1v2l1 1v1l1 1v2l1 2 1 2h1c-1 1 0 3 1 3 0-1 0 0 0 0-1 1 0 3 1 3h1c-1 1 0 3 1 3 0-1 0 0 0 0v1h1c-1 1 2 9 3 8l1 5c1 3 1 3-1 3-1 0-2-1-4-6zm95 4-2-1-1-1-2-2 3-5 2-2v11zm-2-4c0-1 0-1 0 0l-1 1c1 2 1 1 1-1zm26 4v-1a1 1 0 0 1 1 2l-1-1zm81 0-3-4-2-3 2 3 4 3 2 2-3-1zm7 0 1 1h-1v-1zm60 0c-2-2-3-6-2-7h1c1-1 1 0 1 2l1 5h-1zm-303-1-1-2 1 1 2 2-2-1zm150 0v-1l1 1c0 1 0 2-1 0zm185 0c0-1 0-1 0 0v1-1zm-237-1-1-3h1l1 2v1c0 2 0 2-1 0zm231 1-1-1v-1l2-2v1l-1 3zm-282-1-1-2 1-2 1 1-1 3c0 1 0 1 0 0zm146-2-1-2 2 2v1l-1-1zm-40 0v-2c1-1 1 0 1 1l-1 1c0 1 0 0 0 0zm43-1v-1h2l1 2c0 1-1 1-3-1zm-103 0 1-1-1 2v-1zm203 0 1-1v2l-1-1zm-299 0-1-2v-1c1 0 3 2 2 3h-1zm102-1v-1 2-1zm57 0c0-1 0-1 0 0v1-1zm39-3-1-1 2 1 1 2-2-2zm4-1h1v2l-1-2zm-154 1 1-1 1 1-1 1-1-1zm255-1v-1 1c0 1 0 0 0 0zm-206-1 1-1v1h-1zm95-3-2-2 3 2c3 3 2 3-1 0zm-35 1c-1-1 1-3 1-2v1l-1 1c0 1 0 1 0 0zm-60-1h1l-1 1v-1zm-2-1c0-1 0-1 0 0v1-1zm174-1v-1 3-2zm29 1c0-1 0-1 0 0v1-1zm2 1 1-1c0-1 0-1 0 0v1h-1zm-2-4s0-1 0 0v1-1zm2 1v-1h1v1h-1zm-203-2 1 1h-1v-1zm225 0-1-3c-2-1-2-1 0-1 1 1 2 3 1 4zm-224-2v-2 1l1 2-1-1zm20 0-2-2 2 1 1 2-1-1zm151-2 1-6v4c0 6-1 6-1 2zm33 2 1-1v2l-1-1zm-3-3v-1 3-2zm-200 1v-1 1c0 1 0 0 0 0zm83-1-2-2 2 2 1 2-1-2zm48-2v-2 4-2zm-135 2 1-1v2l-1-1zm2-1 1-1c1-1 1 0 0 0 0 2-1 2-1 1zm8 0h2-2zm6 0h2-2zm71-2h-1s-1 0 0 0h1l1 1-1-1zm119 0v-1h1l-1 2v-1zm-241-1c-1-2 0-3 1-3l1 1-1 2h-1zm118 0 1-1 1 1-1 1-1-1zm-194-1v-2 2zm113-2v-2l1 2-1 2v-2zm-115-2v-2l1 1c0 3 0 3-1 1zm140 0c0-1 0-1 0 0v1-1zm75-3v-2h3-1l-2 3v-1zm127 0h1-1s-1 0 0 0zm-346-5c-2-1-2-2-2-3 1-1 1-1 3 2l1 3-2-2zm187 2h2l-1 1-1-1zm63 0 1-1v2l-1-1zm-245-2 1-1v1h-1zm219 0-1-6c0-4 0-4 1-2v1h1l2-1c1-1 1-1 0 0l-2 5-1 3zm-107-1a1 1 0 0 1 2 0l-1 1-1-1zm204 0v-1l1 1v1l-1-1zm32-2-2-3v-2l-1-2-1-1h-1v2h-1l-2-2h2c2-1 2-1 4 1l1 2 1 2v-1c-1 0 0-1 0 0l1 2 1 3c3 3 1 2-2-1zm-202 1c2 1 1-3-1-6l-1-1h3l1 4c0 4-1 5-2 3zm98-1a1 1 0 0 1 2 0l-1 1-1-1zm-132-2v-3l1-1-1 3v1zm66-1h1v1c-1 1-1 0-1-1zm137 1v-3l1-1-1 3v1zm-316-3v-2c-1 2-1 2-1 0l1-3h1v8l-1-3zm45 1v-1 1c-1 1-1 1 0 0zm63-2-2-3 2 2 2 3-2-2zm105 0v-2l2 1c1 2 0 2-2 1zm-173-1c-1-1-1-1 0 0l1 1-1-1zm139 0v-1 2-1zm132 0c-1-1-1-1 0 0l1 1-1-1zm-172 0h-2c-3 0-2-1 2-1h4-1l-2 1h-1zm82 0 1-2v2l-1 1v-1zm5 0v-3h2l2 1v2h-4c-1 1-2 1 0 0zm62-1v-2l6-1h6l-3 2-3 1-1 1c-1 0-2 0-1-1l-2-1c-1 0-2 1 0 2v1l-2-2zm-117 0h1l1 1-2-1zm73 0-2-2c-1-1 0-1 2-1 3 0 4 0 3 1l-1 1c0 1 0 1 0 0l-2 1c0 1 0 1 0 0zm71 0-1-2v-1l3 2c1 0 0 1 0 0l-1 1h-1zm-203 0v-2c-1-1 0-1 1-1 2 0 2 0-1 4v-1zm65-1-1-2h1c3 0 3 0 1 2l-1 1v-1zm157 1h1-1c-1 0-1 0 0 0zm-291-1c-1-1-1-1 1-1l1 1h-2zm175-1c-1-1-1-1 1-1l3 1-1 1-3-1zm-131 0-2-1h2l3 1h-3zm5-1h2-2zm49 0h3-3zm91 0h2l-1 1-1-1zm18 0h1v1l-1-1zm98 0h1l-1 1v-1zm-206-36c-15-2-32-7-47-14-7-3-8-4-7-5l5-14 6-13 3 9c5 14 6 14 17 18l28 7c12 2 16 2 38 3l21 1c2 1-15 6-29 8h-35zm70-14c-4-2-6-2-16-1l-24 2h-18l16-1 26-2c12-2 12-2 19 2l2 3-5-3zm-63 0h4-4zm-6-1h3-3zm85 0-1-1c2-1 1-2-2-3l-3-2c1 0 8 3 7 4h3c1-1 1-1 0 0l-2 1-2 1zm-89-1h2c1 1 0 1-1 1s-2 0-1-1zm-4 0h2-2zm-3-1h1c1 0 0 0 0 0h-1zm91-1-1-1 3 1 1 1-3-1zm-94 0h2l-1 1-1-1zm-3 0h2-2zm-3-1h2-2zm36 0c12-1 20-3 20-5l-4-2c-6-1-11-4-15-7-2-3-3-3-6-3a52 52 0 0 1-15-4 1112 1112 0 0 1 25 6c5 4 13 7 22 8l4 1c0 1-4 3-12 4l-17 2h-12zm60 0v-1l1 1h1-2zm-76-1h3-3zm-5-1h2l-1 1c-1 0-2 0-1-1zm-4 0h1-1c-1 0-1 0 0 0zm-3-1h1-1c-1 0-1 0 0 0zm9 0-19-4h4c11 3 22 3 24 1l-4-5-6-6-2-2h3c2 0 4 2 9 7 7 6 7 7 6 8l-15 1zm-13-1h1l-1 1v-1zm79-2-3-3 1-6c2-6 2-5 1 1l-2 4 3 3c3 3 3 3 0 1zm5 0c-1 0 0 0 0 0l1 1-1-1zm-3-2-2-2 2 2 1 2-1-2zm-101 0v-2l1 1c0 1 0 2-1 1zm5-2-2-2 2 2 2 2-2-2zm5 2h2c1 0 1 0 0 0h-2zm-4-3-1-1 1 1c1 1 1 2 0 0zm93-1v-1 2-1zm-101-2v-2l1 1v3l-1-2zm-48-6a152 152 0 0 1-4-224c11-11 11-7-2 13-28 45-36 81-28 125 5 22 13 40 27 58 5 6 7 11 11 21 3 7 4 13 3 13l-7-6zm54 0 1-7v5c0 8-1 9-1 2zm140 5-32-79a1487 1487 0 0 0-91-1c-1-1 12-33 13-33l5 10c1 5 4 10 7 11l30 1c29 0 34 0 39 3 5 2 12 9 14 14 3 4 18 41 20 47l3 19c1 3 0 4-3 6-4 4-4 4-5 2zm-142-4v-2 4-2zm-7-4-2-6c0-1 5 10 4 11l-2-5zm-37 2c-1-3-1-4 0 0l1 3-1-3zm142 2 1-1v2l-1-1zm-1-2 1-5 1-4 3-2h1v2l-1 3-2 2 2-2c1-3 1-4-1-3l-2 6-2 3zm2 0 1-2c0-1 0-1 0 0v1l-1 1zm54-2-2-8 1 4c1 2 2 4 1 5v-1zm-154-4-2-5 2 1 4 1-1 1-2 1v5l-1-4zm-37 1-1-2-7-8c-1-2 0-1 3 2l4 4c2 0 6-8 14-28a3483 3483 0 0 1-13 32l-1 3zm-8 0c-1-1-1-2 0 0l1 1-1-1zm195-9 1-1v2l-1-1zm-194-5c-3-3-3-7 4-22a8007 8007 0 0 0-5 16c0 4 4 6 6 4a4803 4803 0 0 0 63-151c2-5 5-9 8-10a533 533 0 0 0-19 46l-49 119c-2 1-5 0-8-2zm-3 0-1-2 1 1v2-1zm202-3c-1-3 0-5 5-13a151 151 0 0 0 21-52c1 2-4 19-8 30l-9 18c-7 14-7 15 1 10l16-8c2-1 4-3 6-8l3-4 2-5c5-8 3-2-4 11l-11 19 3-5c3-6 4-7 1-5l-5 2-10 6c-9 5-10 6-11 4zm-213-7zm10 3c-1-4 0-6 3-13l4-12 4-7c4-5 5-4 2 0-4 5-12 26-13 32v4zm194-3v-1 1c0 1 0 0 0 0zm-2-4v-1l1 2-1-1zm-1-4c-1-1-1-2 0 0v1-1zm-2-3c0-2 0-3 1-1v2l-1-1zm-209-3v-1l1 1 1 2-2-2zm208-1v-1l1 2-1-1zm33-1 3-12a250 250 0 0 0 3-7c-4 16-4 16 4 10l8-5 3-2-1 3c-1 3-2 4-4 5l-9 6c-6 4-7 4-7 2zm-243-3-2-3 2 3 1 3-1-3zm208 0c0-1 0-2 1 0v1l-1-1zm-1-3v-1l1 2-1-1zm-197-2c-4-1-9-4-11-7-3-4-3-4 0-1 3 4 7 6 13 6 3 1 3 1 5-2v-8l-1-1v-2l1-1 2 11-2 4-3 2-4-1zm-2-6c-5-1-9-4-11-6l2 1c2 2 4 2 8 3 6 2 7 1 8-1v-2l1 2c0 2-2 4-3 4l-5-1zm257 1v-2l1-1-1 2v1zm-228-6 1-2h1l-1 1-1 1zm163-3c0-2 0-3 1-1v2l-1-1zm-161-1 1-2s0-1 0 0v2h-1zm-11-4-5-4h2c1 2 7 5 8 5l2-2c2-2 1 0 0 2-2 2-2 2-7-1zm169-2c-4-6-11-10-19-12-5-1-5-1-1-1 7 1 17 7 21 14l-1-1zm-168-2-3-3-2-2 21-52c18-45 21-52 23-54l3-2 2 3c2 3 2 9 0 14l-37 94c-2 3-3 4-7 2zm8 1 1-3 1-1-1 3-1 1zm6-2v-1l1-1-1 2c0 1 0 1 0 0zm209-1v-1 2-1zm-261-1 1-2v2h-1zm48-1 1-2c0-1 0-1 0 0v1l-1 1zm5 0 1-2c0-1 0-1 0 0v1l-1 1zm208-1 1-1v2l-1-1zm-265-3c0-1 0-1 0 0v1-1zm53 0 1-2h1l-1 2h-1zm5 0 1-2h1l-1 2h-1zm208-2c0-1 0-2 1-1l-1 2v-1zm-264 1 2-3-1 2-1 1zm-3-3s0-1 0 0v1-1zm56 0 1-1v-1 2h-1zm75 0c-4-1-5-3-7-10l-3-9-1-3 5 12 2 6c2 3 3 4 32 4h28l-26 1-30-1zm135-2-1-2-24-1c-25 0-28 0-35-4-3-2-4-3-6-8l-3-7 1 2c4 9 8 12 16 15 5 1 7 2 28 2h24v3c0 2 0 2 0 0zm-204 1v-2h1l-1 2zm206-2s0-1 0 0v1-1zm19-1v-1 2-1zm-288 0v-1 2-1zm4 0h1v1l-1-1zm54 1 1-2h1l-1 1-1 1zm6-2 1-2h1l-1 2h-1zm89 0 19-1c3-1 1-3-5-6l-10-5c-4-3-5-3-10-3h-8c-4 1-7 11-5 14v1c-2-1-2-6 0-12l1-4 10-1h10l3 3 11 7 9 5c0 2-4 2-23 2h-19zm114-2 2-8 3-6c1-1 0-2-1-2h-30 13l15 1-1 2-14 1c-13 0-13 0-14-2l-4-2-4-1h5a637 637 0 0 1 36 1l-2 6c-3 5-3 6-3 9v4l-1-3zm-207 0v-2h1l-1 2s0 1 0 0zm-61-2 1-1v1h-1zm5 0v-1 2-1zm62 1v-2l1-1-1 2v1zm151-1c-8-3-12-6-16-13-2-5-2-5 1-1 4 9 13 14 22 14l7-1 1-7v-6l1 2 2 6c2 5 2 5 0 6-3 2-14 1-18 0zm-215-3 1-1v2c-1 1-1 0-1-1zm59 1 1-1 1-1-1 2h-1zm2-3v-2h1l-1 1v1zm-64-3v-1 3-2zm4-1v-1 3-2zm66 1 1-2h1l-1 2h-1zm-5-1 5-11-5 12v-1zm110-2c-2-2-1-2 2-1l6 1 6-3c2-2 2-3 3-8v-5 5l-1 7c-3 5-12 7-16 4zm-172-5v-4 7-3zm69 4v-2h1l-1 2c0 1 0 1 0 0zm109-3-18-45-18-44c1-1 6 3 9 7l5 4 2 1v1l2 3 1 1v-1l1 2 3 3h1v1h-1l1 1 1 1c1 0 1 0 0 0h-1l2 1v2c1-1 1 0 1 1-1 0-1 1 0 0h1c-1 1 3 10 7 21 9 21 10 25 10 31s-2 8-7 10c-2 0-3 0-2-1zm-41 0zm-67 0 1-2 1-1-1 2-1 1zm204-1h2-2zm6 0h1c1 0 1 0 0 0h-1zm-279-5v-2 4-2zm194 2c0-1 0-1 0 0v1-1zm-123-1 1-2 1-1-1 2-1 1zm-5-1 1-2h1l-1 1-1 1zm7-3v-2h1l-1 2zm-5-1v-2h1l-1 2s0 1 0 0zm-49-2v-1 2-1zm-23-2v-1 3-2zm78 1 1-2h1l-1 2h-1zm-75-2h1v1c-1 1-1 0-1-1zm2 0c0-1 0-1 0 0v1-1zm68 2 1-2 1-1-1 2-1 1zm122 0v-2l1-1-1 2v1zm-1-4 1-1v1h-1zm-119 0v-2h1l-1 2zm5-1 1-2h1l-1 2h-1zm-75-2 1-1v2l-1-1zm-1 0v-1 2-1zm-4-1c0-2 1-2 1-1v2l-1-1zm76 0 1-2v2h-1zm6 0 1-2v-1 2l-1 1zm-76-2c0-1 0-2 1-1v2l-1-1zm-1-1v-1 2-1zm72 0 1-2 1-1-1 2-1 1zm-76-2v-1 2-1zm82 1 1-2h1l-1 2h-1zm-76-2s0-1 0 0v1-1zm72-1 6-15a104 104 0 0 1-6 15zm-71-2s0-1 0 0v1-1zm77 1 1-2 1-1-1 2-1 1zm-83-2c0-1 0-1 0 0v1-1zm4 0h1v1l-1-1zm-3-3c0-1 0-1 0 0v1-1zm4 0c0-1 0-1 0 0v1-1zm2 0 7-16c3-7 7-12 8-11l2 7 2 8c1 2 0 6-1 6-1 1-3-4-4-9s-2-6-4-5l-8 16-2 4zm78 0 1-2v2h-1zm-84-4h1v1c-1 1-1 0-1-1zm85 1 1-2 1-1-1 2-1 1zm-58-6c0-4 3-11 4-11v-7l1-13c3-10 2-10-4-4-5 5-10 12-14 20s-5 8-1 0c6-12 17-26 23-31 2-1 3-2 4-1l-3 8c-3 7-3 9-3 15l-1 8c0 2 0 2 2 0l3-4-2 4c-2 3-6 9-7 13-2 5-3 6-2 3zm60 2 1-2c0-1 0-1 0 0v2h-1zm193-1c-1-2-1-2 1-2l1 1v2l-2-1zm-278-1s0-1 0 0v1-1zm236-7c-15-29-36-49-64-59-15-6-36-9-47-9a133 133 0 0 0-30 6c-1-1 8-7 14-10 11-6 18-7 31-7a125 125 0 0 1 102 61c4 7 8 11 19 21l5 4h-26zm28 3-4-4 3 3a96 96 0 0 0 6 5l-5-4zm-184 3 1-2h1l-1 2h-1zm7-2 1-2c0-1 0-1 0 0v1l-1 1zm187-1c-3-2-4-3-1-2l3 3-2-1zm-273 0c0-1 2-8 3-7l-1 4-2 3zm5 0 1-3 1-1-1 3-1 1zm76-1 1-2v2h-1zm7-2v-2h1l-1 2s0 1 0 0zm-6-1 1-2 1-1-1 2-1 1zm173-2-2-3 3 2 2 3-3-2zm9 2v-3 3zm-175-3 1-1v-1 2h-1zm-5-2c3-7 4-11 4-18l1-7c1-1 2 2 1 7a87 87 0 0 1-6 18zm-81 0 1-2v2h-1zm247-2-2-2 2 2 2 2-2-2zm-159 0 1-4 1-1-2 4v1zm-86-1 1-3 1-1-1 3-1 1zm246-2v-1c0-1 0-1 0 0v1l1 1-1-1zm-6-1c0-2 0-2 1-1l1 2-2-1zM69 92l9-18 23-30c8-10 13-17 13-19l7-5c1 1-3 8-10 15a227 227 0 0 0-42 57zm241-2h1v1l-1-1zm-5-1-1-1 1 1 1 1-1-1zm-81-5v-1h1v2l-1-1zm82 0v-1l1 1-1 1v-1zm-2-2 1-1 1 1h-2zm-83-1h1v-1c-1-2 0-2 1 0v1h-2zm77-2c-1-1-1-1 0 0l1 1-1-1zm5 0c2 0 3 1 1 1l-1-1zm-140-1h2l-1 1-1-1zm138-1h1c2 0 2 1 1 1l-2-1zm-5-1c-1-1-1-1 0 0l1 1-1-1zm-77-3-1-5v1a161 161 0 0 0 1 4zm-7 1-1-1 2 1 1 2-2-2zm5 0v-1l1 1v2l-1-2zm83 1h1c1 0 2 1 0 1l-1-1zm-134-2 1-1v1l-1 1v-1zm127 0-1-2 1 2 2 1-2-1zm4-1v-1l2 1h1-3zm-88-2-2-2 2 2c2 1 2 2 1 2l-1-2zm-41 0 2-2v-2c-1-1-1-1 1-1h3c1-1 1-1 0 0l-1 1-1 3c-2 2-2 2-1 0v-2l-2 2-1 1zm46-2-2-3c-2-1-2-1 0 0l4 1h2l-2 1-1 1v1l1 2-2-3zm75 0-2-3 2 3 3 3-3-3zm5 0h1l1 1-2-1zm-88 0-3-2-3-1c1 0 5 1 6 3l1 1-1-1zm88-2c-1-1-1-2-2-1l-3-3-2-2 2 2 3 2 2 1 2 2-2-1zm-113-3h1-1c-1 0-1 0 0 0zm6 0-1-1 2 1h1-2zm97-1-2-2 2 2 2 1-2-1zm3-4-3-4 3 3 3 4-3-3zm-9-2-3-2 3 2 2 3-2-3zm5 0-3-3 3 3 3 3-3-3zm-150-2c0-5 15-17 29-23 11-5 19-6 30-6l11-1-10 1c-15 1-30 5-41 13-5 3-12 10-12 12-1 3-7 6-7 4zm140-2-2-1 2 1 2 2-2-2zm6-1-1-2 2 2 1 1-2-1zm-2 0v-1l1 2-1-1zm-8-2-3-2 3 2 2 2-2-2zM83 45l5-4-4 4-4 4 3-4zm190 3v-1l-1-1c0-2 0-2 1-1l1 2v1l1 1-2-1zm2 0c-1-1 0-1 1-1l1 2-2-1zm-24-9-4-2 8 4-4-2zm3-4-2-2 6 3-4-1zm-11 0-1-1 2 1 1 1-2-1zm-4-1v-1l2 1h-2zm7-3-1-1 2 1c1 0 1 0 0 0h-1zm-22-2h2-2zm-3-1h2l-1 1-1-1zm-2-1h1l-1 1v-1zm-4 0h1-1c-1 0-1 0 0 0zm-5-1h2-2zm-5-1h3-3zm23-1h1c1 1 0 1-1 1v-1zm-3 0h1c1 0 0 0 0 0h-1zm-3-1h2-2zm-3-1h2l-1 1-1-1zm-58-1v-1l3-2h1l6-4 11-8 6-4s1 0 0 0l-2-1h-1l23 1c3 1 2 1-6 1h-11l-5 3c-2 3-7 6-10 8l-6 4c0 1 2 2 8 2s6 0-3 1a217 217 0 0 0-14 0zm46 1h1-1c-1 0-1 0 0 0zm-2-2-14-4c0-2 3-4 9-8s9-4 14-3l2 1-2 1-7 2c-13 6-13 8 3 11l8 2-13-2zm-4 1h2-2zm-11-1h5-5zm29-16h1-1c-1 0-1 0 0 0zm-5-1h2l-1 1c-2 0-2-1-1-1zm-35-2h2l-1 1-1-1z" style="fill:#fac65e;fill-rule:evenodd"/><path d="M194 473h4-4zm-5-1h2l-1 1-1-1zm12 1 2-1h2l-4 1zm-17-3-8-9 3 3 6 6 3 2-4-2zm91 2h2-2zm-143-1 3-1h1l-4 1c-2 0-2 0 0 0zm75 0 5-4-4 3-1 1zm64 0h2-2zm8 0 1-1c1 1 1 1-1 1zm59 0 1-2 1-4 1-3v2l-1 4c-2 2-1 2 0 3h1-3zm12 0v-3l-1-7c0-6 0-6 4-6h-1c-2 1-2 1-2 6l1 7v3h-1zm-316-1v-1c-2-1-5-7-4-7l2 3 3 3h14l-2 1c-2 0-2 0 0 1H34zm68 0 1-2 1-2v2l-1 3-1-1zm11-1h1l1 1-1 1-1-2zm14 1h2l-1 1-1-1zm-98-1v-1l3 1-1 1-2-1zm20 1 2-1h1l-3 1zm147-1h1c1 1 0 1-1 1v-1zm79 0h2l-1 1-1-1zm-150-1h1l1 1-2-1zm66-1-1-2 2 2 2 2-3-2zm72 0-1-4 1 1 2 4v1l-2-2zm8 1-2-2 2 1 2 2-2-1zm12 1c0-1 4-3 5-2l-4 2h-1zm-82-2 2-3 1-1-2 3-1 1zm5 0v-1 2-1zm-181-1-3-5 1 1 3 4 1 2-2-2zm24-1 1-3v-2c1-1 1-1 1 2l-1 4c-1 1-1 1-1-1zm63 1v-1 2-1zm-57-3 1-5c1-1 1-2 1 0l-1 5c-1 3-1 3-1 0zm158 2 1-1v1h-1zm-84-2-2-1 2 1 2 2-2-2zm-24-10v-6a168 168 0 0 1 0 6zm23 7-3-5 3 3 4 6-4-4zm-10-2c-3-4-5-4-6-2v1c0-2 1-3 2-3l7 7-3-3zm86 2h1v1c-1 1-1 0-1-1zm57-8v-4a105 105 0 0 1 0 4zm-240 6 1-2v3l-1-1zm155 0v-1 2-1zm31 1 1-1-1 2v-1zm8-1 2-1v1l-2 1v-1zm-10-4v-2 4-2zm-151 2h1c1 1 0 1-1 1v-1zm213 0v-5 2l1 3v1l-1-1zm-239-5 1-6v4c-1 7-1 8-1 2zm330 3 3-2h2l-6 3 1-1zm-234-1c1-1 3-3 5-3 3-3 3-2-2 1l-3 2zm93 0 1-1v2l-1-1zm-103-1h1-1c-1 0-1 0 0 0zm-93-3c0-2 1-2 1-1v2l-1-1zm91 0 1-1v2l-1-1zm105 1c0-1 0-2 1-1v1h-1zm72-5-1-8 1 1 1 8v5zm-167 4 1-2-1 2c-1 2-1 2 0 0zm238 0-1-2 1 1v1zm-184-2 2-5c2-3 7-9 9-8h-1c-4 3-9 9-10 13 0 2 0 2 0 0zm28 0 1-1v2l-1-1zm-17-1h1v1l-1-1zm182 0c0-1 0-1 0 0v1-1zm-246-3 1-1v3l-1-2zm9 2 1-1-1 2v-1zm71-1c0-3 1-3 2-2v1l-1 1h-1zm12-1-7-8h1c3 2 8 9 7 10l-1-2zm-27 0h1v1l-1-1zm171 0 1-1v2l-1-1zm11 0v-1 2-1zm-347 0 1-2 1-1-1 3h-1zm245-2v-1 2-1zm72 0c0-2 1-2 1-1v2l-1-1zm-208-1-3-3-1-1c2 0 5 3 5 5s-1 2-1-1zm-79 0v-1 2-1zm-22-1c4-5 3-5 12-5 8 0 10 1 10 2h-1l-5-1-6 1h-6l-3 2-1 1zm228-1c-1-3-1-3 1-3h1c1 0 0 0 0 0-2 0-2 1-1 3l1 2-2-2zm100 2v-1 2-1zm-247-2v-2 2c0 2 0 2 0 0zm-9 0v-3l1 2c0 3 0 3-1 1zm18-1-2-1 2 1 2 2-2-2zm228 1h1l-1 1v-1zm18-1-2-2 2 2c2 1 2 2 1 2l-1-2zm-177-1 2-2-2-1c-2 0-2 0 0 0h3l-3 4v-1zm149 1c-1-1-1-3 1-3v1c-1 0-2 1 0 2v1l-1-1zm17-1h-1l2 1-1-1zm-92 1c0-2 2-3 3-2s1 1 0 0l-2 1-1 1zm27-1h3-3c0 1 0 1 0 0zm-170-1h2l-1 1-1-1zm76 0 1-2v3l-1-1zm-90-1h2l-1 1c-2 0-2 0-1-1zm251 0h1c1 1 1 1-1 1v-1zm-14 0h2-2zm-98-31a739 739 0 0 1-35-40v10l-1 9v-8l1-12c2 0 5 4 20 22 17 22 16 21 20 20l3 1h-3c-3 0-4 0-5-2zm55 1 9-1 1-1c1 1-3 3-10 3h-8zm-88 0 3-1 2-1-1 1-4 1h-2zm78 0h1-1c-1 0-1 0 0 0zm-143-1zm46 0 2-3v1c-2 1-2 2 0 2s2 0 0 1l-2-1zm92 0h2l1 1-3-1zm60 0zm30 0 11-1 1-2v1l-1 2h-22zM2 402l1-1 4-3-1 1-2 3h12H2zm46 0h13l-8 1c-5 0-7 0-5-1zm44 0c-1-2-1-2 1-1v2l-1-1zm7 0 2-3c0-1 0-1 0 0l-1 2-1 1zm36 0h2l-1 1-1-1zm49 0 2-1v-1c1 1-1 3-2 3v-1zm120 0h2c1 1 0 1-1 1l-1-1zm32 0 3-2 4-2h1l-4 2-2 2v1l-2-1zm-293-1 2-4v-2 2l-1 3v2h-3zm240 0h1v1l-1-1zm-113 0h1-1c-1 0-1 0 0 0zm37-1c-1-1-1-1 0 0l1 1-1-1zm-147 0-1-1-1-2v-1l4 5-2-1zm79-1 2-1-1 1-2 2 1-2zm23 1h3l-2 1-1-1zm118-1c-2-1-5-5-5-7l1 2 4 5c3 2 3 2 0 0zm14 0 1-1v2c-1 1-1 1-1-1zm8 1h2l-1 1-1-1zm74 0h1l-1 1v-1zm-200 0 3-3 2-2-2 3-3 2zm38-1c-4-2-3-3 0-1l3 2-3-1zm95 0h2c1 0 1 0 0 0l-3 1 1-1zm4 0 1-1h1l-1 1h-1zm-223-1c0-2 0-2 1-1v2l-1-1zm111 0 2-3 1-1c0 2-3 5-4 5l1-1zm180 0 1-1-1 2c-2 0-2 0 0-1zm-91-1v-2l2 2c0 2 0 2-2 0zm-278-1v-1 2-1zm129-1v-1 3-2zm249-2c0-4 0-5-1-4-1 0-2 0-1-1 2-1 3 1 2 5v4zm-5 2v-1l1 1-1 1v-1zm-297-1c-1-3-1-3 1-1l1 2-2-1zm65 1a1 1 0 0 1 2 0l-1 1-1-1zm-55-2-1-2 2 2c2 1 2 2 1 2l-2-2zm-88 1 1-3 1-1-1 3-1 1zm93-2 1-1v2l-1-1zm151 1v-1h1l-1 1zm66-1h1l1-1c0-1 0-1 0 0l-1 2-1-1zm24-19-1-22c0-1-1-2-3-2l-1-1 4 2 2 2v21a300 300 0 0 1-1 0zm-140 4 1-9a352 352 0 0 1-1 9zm152 15v-1l1 1h-1zm29 0 2-2v1a134 134 0 0 0-2 1zm-342-2c-2-3-1-3 0-1l1 3-1-2zm167-2v-3l1 3c0 5-1 5-1 0zm-197 3 1-2h1l-1 2h-1zm261-2 1-2v3c-1 1-1 0-1-1zm14-1v-1 3-2zm69-4c0-4 0-6 1-4v8c-1 2-1 0-1-4zm-270 5c-1-1-1-2 0 0v1-1zm12 0v-3l1 2c1 3 0 3-1 1zm4-1 2-3-3 6 1-3zm2 0 1-1v1l-1 2v-2zm-93 1 2-4 1-3-1 4-2 3zm310-4c0-3 0-5-1-4v-2l1-3 1 5-1 8v-4zm-169-2c0-3 0-4 1-2v5c-1 1-1 0-1-3zm55 5v-1l1 1h-1zm-193-1 3-4c1 0 1 0 0 0l-2 3-1 1zm240-8v-5a97 97 0 0 1 0 5zm66 8h-1l-1-2v-3l1 2 1 3c0 1 0 1 0 0zm-281-2-1-2-19-1h19l1 3 1 2-1-2zm45 1v-1l1 2-1-1zm-32-1v-1l1 2-1-1zm44-1v-1l1 2-1-1zm279-1c-1 0-1-1 0 0l1-2c0-2 0-2 0 0 0 3 0 4-1 2zm-293-3-2-5 2 4 1 4-1-4zm89 2-1-2-1-3c-1-1-1-1 0 0l2 3 1 1 1-7v-7 15l-1 2zm102-14v-7a303 303 0 0 1 0 7zm-168 14 1-2v2h-1zm2 0 1-2v2h-1zm211-13c0-7 1-9 1-6a203 203 0 0 1-1 6zm55 11 1-2v2c0 2 0 2-1 0zm-358 1v-2h1l-1 1v1zm35-1v-1l1 2-1-1zm-31 0 8-1 8 1v-2c0-2 0-2 0 0v2H20zm75-2c-1-2-1-3 0 0l1 2-1-2zm149-1-4-4 4 3 4 4 1-7v-6 7c0 7-1 8-5 3zm-137 2 1-2 1-1-1 2-1 1zm180-10c0-5 1-7 1-4a105 105 0 0 1-1 4zm-270 8 1-2 1-2-1 3-1 1zm32-1c0-2 0-2 1-1v2l-1-1zm105 0 2-2-1 1-1 1zm-61-2v-1l1 2-1-1zm16 0 1-3 1-1-1 2-1 2zm56 1 1-1v1h-1zm193-1h10c1 1-1 1-4 1l-6-1zm19 0c0-1 0-1 0 0v1-1zm-297-1c-1-1 0-2 0 0l1 1-1-1zm-32 0v-1l1 1h-1zm233-1v-1 2-1zm-259 0 1-3c0-1 0-1 0 0l-1 3c-1 1-1 1 0 0zm12-1c-1-4-5-11-6-11l-2 2-1 1 3-4c2 0 8 13 7 14l-1-2zm-15 1 1-2h1l-1 2h-1zm219-2zm140 0v-1 2-1zm-286 0c-1-1-1-2 0 0v1-1zm65 1h3-3zm12-2 3-3-2 3-4 3 3-3zm189 2v-24 24h6-6zm10 0 4-3c2-2 2-1 0 0l-5 4 1-1zm-290-2c-1-3-1-3 1-1v3l-1-2zm-31 0v-1 2-1zm107-5v-3 6-3zm-133 4 3-7-2 4-1 3zm93-1 1-1-1 2v-1zm-24 0c0-2 0-2 1-1v2l-1-1zm-66 0v-2h1l-1 1v1zm230-2 1-1v3l-1-2zm123 1-1-2c-1 0-1 0 0 0 0-2 2 0 1 2 0 1 0 1 0 0zm-332-1c-1-1 0-2 0 0l1 1-1-1zm31 0c0-2 0-3 1-1v1h-1zm39 0 6-11-3 5-3 6zm57-1 1-1 1 1-1 1-1-1zm-83-1v-1l1 2-1-1zm24 0 2-3v1l-1 3-1-1zm-69-1v-1 2-1zm210-2 1-2v3c0 2 0 2-1-1zm-179 0c-2-2-1-3 0-1l1 3-1-2zm174-1c0-4-2-8-4-9v-1c2 0 5 6 4 11v-1zm-225 1 1-2 1-1-1 2-1 1zm18-2c-1-2 0-2 1-1v2l-1-1zm45 0v-1 2-1zm117-1v-1 2-1zm83 0 1-1v2l-1-1zm-215-2c0-2 0-2 1-1l1 2c0 2-1 1-2-1zm314-3c0-4 1-5 1-3v6l-1-3zm-360 4 1-3 1-1-1 3-1 1zm90-1c0-1 0-1 0 0v1-1zm203 0v-1 2-1zm-278-1c-1-1-1-2 0 0v1-1zm44 0c-1-1 0-2 0 0l1 1-1-1zm92-2-1-2 5 6-4-4zm-23 0 1-4h1l-2 4v2zm48 0-5-3-3-3c0-2 1-2 6-2h5-5c-6 1-7 2-2 5l5 3c1 2 0 2-1 0zm181 1h1s1 0 0 0v1l-1-1zm-267-2c0-2-1-3-3-4l-3-2c-1-1 2-1 6-1s4 0-1 1c-5 0-5 0-2 2 2 0 5 4 4 5l-1-1zm-47 0-4-4c-2-1-2-1-1-2h9-9l4 4 4 4-3-2zm154 0-2-2 2 2 1 1-1-1zm50 1-2-2-1-2 3 4c0 1 0 1 0 0zm15-1c0-1 2-4 4-3 1 0 1 0 0 0-2 0-3 1-4 4v-1zm29 1-2-3-2-1 5 4h-1zm-278-3-1-2 2 5-1-3zm45 2 2-3c3-2 3-2 1-3h1c3 0 3 1 0 2l-3 4h-1zm56 0-2-3-2-1c1 0 6 4 5 5l-1-1zm239-1-1-2 3 2c1 3-1 2-2 0zm1 0v-1l-1 1h1zm-352 1 1-2c0-1 0-1 0 0v1l-1 1zm97-2c2-3 3-3 6-3s4 0 2 1c-5 0-6 0-8 2-3 2-3 2 0 0zm199 1 1-1 3-2 3-1 4 1c5 0 4 0-2 1h-5l-2 2h-2zm-142-2 1-1v1h-1zm37-1-2-3 2 2 3 3-3-2zm22 1s-1 0 0 0h2v1l-2-1zm22 0c0-1 1-3 3-3h-1c-2 2-1 2 2 3h2-6zm-105-1h4-4zm10 0h1-1c-1 0-1 0 0 0zm71 0c-1-1 0-3 2-2 1 0 1 0 0 0l-2 1v1zm21-1h1v1c-1 1-1 0-1-1zm34 1v-2c-1 0-1 0 0 0l2 1-2 1c-1 1-1 1 0 0zm17 0c-1-2 1-2 3-2h-1l-2 1v1zm50 0h5-5zm10 0h3-3zm-223-1v-1l13-1h13l-13 1c-10 0-13 0-12 1h-1zm26 0c2-2 3-2 3 0l-2 1c-2 0-2-1-1-1zm78 0v-1l1 1h-1zm-221-1c-1 0-1 0 0 0h2-2zm50 0h3-3zm41 0h1-1c-1 0-1 0 0 0zm3 0h1-1c-1 0-1 0 0 0zm132 0h2-2zm-127-1h3-3zm78 0h1l-1 1v-1zm6 0h2l-1 1-1-1zm32 0h3-3zm24 0h3-3zm17 0h4-4zm30 0h3-3zm20 0h8-8zm23 0zm-222-1h3l-2 1c-2 0-2 0-1-1zm44-32h5-5zm17 0h5-5zm-24-1h3-3zm33 0h3-3zm-38-1h2l-1 1-1-1zm44 0h2l-1 1c-2 0-2-1-1-1zm-48-1h2l-1 1c-2 0-2 0-1-1zm52 0h2c1 1 0 1-1 1s-2 0-1-1zm-56 0h2-2zm60 0h2-2zm-66-2h2l2 1-4-1zm70 1h3-3c-2 0-2 0 0 0zm5-2h3c1 0 1 0 0 0l-3 1v-1zm-86-2-5-2 7 2 5 2-7-2zm98-1 3-1c1-1 1-1 0 0l-3 1c-1 0-1 0 0 0zm-106-2s-1 0 0 0h2v1l-2-1zm112-1 3-1-1 1-3 1 1-1zm-116-1-1-1 2 1 1 1-2-1zm121-1 3-1-1 1-3 1 1-1zm-130-2-5-4 11 6-6-2zm135 0 2-1v1l-3 1 1-1zm-70-1h1-1c-1 0-1 0 0 0zm21 0h2-2zm8-1h2l-1 1-1-1zm6-1h2l-1 1-1-1zm9-1h1c1 0 0 0 0 0h-1zm31 0 2-2v1l-2 1c-1 0-1 0 0 0zm-27-1h1l-1 1v-1zm-118 0 1-2v-1 2l-1 1zm63-1h2-2zm18 0h2-2zm-80-3 1-2h1l-1 2h-1zm55-2 6-1-5-7-5-6 12 13-7 2c-3 0-3 0-1-1zm48 0c2-1 2-2-1-2-2 0-2-1 1-1 5 0 6 1 3 3h-3zm39-3c-1-4-1-4 1 0l1 4-2-4zm-140 1 1-2 1-1-1 2-1 1zm92-1h3-3zm-3-1h2-2zm-64-2c-1-1-1-1 0 0 2 0 2 1 1 1l-1-1zm57-1c-4-1-9-5-8-5l4 2 5 4 2 1-3-2zm-110-2a189 189 0 0 1 5 3l1-2v-1l-1 3-5-3zm190 2c-1-2-1-2 0 0 1 1 2 1 7-3a163 163 0 0 0-6 4l-1-1zm-160 0 1-2v2h-1zm136-1v-1l1 2-1-1zm22-2c0-2 0-3 1-1v1h-1zm-181 0a38 38 0 0 1 3-8l-3 8zm24 0 1-2 1-1-1 2-1 1zm68-3 3-1c2 0 2 1 0 1h-3zm65 0v-1l1 2-1-1zm-82-1h3c2 1 2 1 0 1l-3-1zm105 0v-1l1 2-1-1zm-154 0 1-3 1-1-1 3-1 1zm73 0h1-1c-1 0-1 0 0 0zm3-1h2-2zm5-1h2c1 1 0 1-1 1s-2 0-1-1zm4 0h2-2zm44-1c0-2 0-2 1-1v2l-1-1zm-89 0h1-1c-1 0-1 0 0 0zm49 0h1-1c-1 0-1 0 0 0zm64-1v-1 2-1zm-61 0h1l-1 1v-1zm-73-2v-1 2-1zm10 0-5-2 7 2 5 2-7-2zm-27 1 1-2h1l-1 2h-1zm95 0h1-1c-1 0-1 0 0 0zm54-2v-1l1 2-1-1zm-174-1v-1l1 1v1l-1-1zm129 0 2-1v1h-2c-1 0 0 0 0 0zm-85-1-1-1 2 1h-1zm-47-2-1-2 1 1 2 2-2-1zm31 0 1-3v1l-1 2c-1 1-1 1 0 0zm9 0c0-1 0-1 0 0v1-1zm100 0c-1 0-1 0 0 0h2-2zm36 0v-1 2-1zm-25-2h1l1 2-2-2zm-5 0 1-2-1 2-1 1 1-1zm26-6-2-6 3 5 2 6-3-5zm-166 4zm28 0-1-1 2 1h-1zm115 0h1-1c-1 0-1 0 0 0zm-152-8c0-2 0-2 1-1 1 2 3 1 5-4a22257 22257 0 0 0 66-153l3-3-3 3-4 7a14369 14369 0 0 0-63 151h-5zm199 0v-2l1 1c1 1 1 1 4-1l3-1-6 4-2-1zm-200-4c0-1 0-2 1-1v2c-1 1-1 0-1-1zm173 0v-1l1 2-1-1zm36 0 13-7h4c-1-1 0-2 1-2v2l-2 2c1-2-3-1-10 2l-6 3zm-9-1 5-10-1 2-3 6-1 2zm-237-6zm209 3c-1-1-1-2 0 0v1-1zm-2-3c-1-2 0-3 1-1v2l-1-1zm-166-3v-2h1l-1 1v1zm165-1v-1l1 2-1-1zm-2-4c0-1 0-2 1 0v1l-1-1zm41 0 1-1-1 1-1 2 1-2zm-42-3v-1l1 2-1-1zm46-6 3-4-4 8 1-4zm-48 2c0-2 0-2 1-1v2l-1-1zm-3-8-2-6 3 6 2 5c-1 1-2-2-3-5zm74 5 3-5-1 3-2 2zm-13-3v-1l1 2 8-5 7-5v1l-16 11v-3zm-270 0v-1l1 2-1-1zm34 0h2l-1 1c-2 0-2-1-1-1zm6-1c2-2 2-3 2-5v-2l1 2c1 2 1 3-2 5l-3 2 2-2zm19 1 1-1v-1 2h-1zm-5-2 1-2v1l-1 1zm-58-8-1-6 2 5 1 5-2-4zm38 3h2-2zm172-3v-1l1 2-1-1zm-2-3c0-2 0-3 1-1v1h-1zm-167-4v-1l1 2-1-1zm166 0v-1l1 2-1-1zm-210-4-1-6 1 4 2 6-2-4zm64 4 1-1c1-1 1-1 0 0l-1 1zm234 0 1-3h1l-1 2-1 1zm-153-2zm-29-1 1-3h1l-1 3v1l-1-1zm-73-1c0-1 0-1 0 0v1-1zm6-1 2-3 1-2-1 3-2 2zm251-1c0-1 0-1 0 0v1-1zm-258-1c0-1 0-1 0 0v1-1zm182-2-3-2 3 2 2 2-2-2zm-106 1 1-2h1l-1 2h-1zm183-1v-4l1-1-1 4v1zm-260-3c0-1 0-1 0 0v1-1zm-43-1 1-1v2l-1-1zm54 1 1-2h1l-1 2h-1zm68 0 1-2v2h-1zm-80-3c0-1 0-1 0 0v1-1zm-42-2v-1 2-1zm56 2v-2l1-1-1 2v1zm67 0 1-3 1-1-1 3-1 1zm-82-3 1-1v2l-1-1zm263 0v-1 2-1zm-221 0v-1l1-1-1 2c0 1 0 1 0 0zm75 0zm-101-1 1-2s0-1 0 0v2h-1zm-58-2v-1 2-1zm41-1 1-1v2l-1-1zm86 2v-2l1-1-1 2v1zm-67-3v-2h1l-1 2c0 1 0 1 0 0zm26 0v-2h1l-1 2c0 1 0 1 0 0zm101 0h2l-1 1-1-1zm52 0h2l-1 1-1-1zm37 0h5-5zm-81-1c1-1 1-1-1-3v-1l2 2v2h-1zm111-1c0-1 0-1 0 0v1-1zm-178 1 1-3 1-1-1 3-1 1zm-129-3c0-2 0-2 1-1v3l-1-2zm42 1v-1 2-1zm109-1v-1 2-1zm-89 1 1-2v-1 2l-1 1zm179-1h3-3zm67-1v-1 2-1zm-59-1 2-3v-3 3l-1 4c-2 1-3 1-1-1zm-118 0 1-2h1l-1 1-1 1zm-68-1 1-2h1l-1 2h-1zm27 0v-2h1l-1 2zm-49-3v-1 3-2zm-41-2v-2 4-2zm133 2 4-9v1l-2 5-2 3zm175-5-1-5h1l1 5-1 5v-5zm-243 4 1-1v-1 2h-1zm114-1v-1c2 1 2 2 1 2l-1-1zm18-2h1c1 1 0 1-1 1v-1zm53-1v-1 2-1zm-210-7c0-4 1-6 1-3v8l-1-5zm26 8 1-2h1l-1 1-1 1zm-48-2c0-1 0-1 0 0v1-1zm157 0h1l1 1-2-1zm-153-3v-1 3-2zm132 2 11-1c13 0 13 1-1 1h-10zm-86-1 1-2v2h-1zm183 0v-1l2 1s1 0 0 0h-2zm9 0h28-28zm-109-1h1l-1 1v-1zm25 0h2l-1 1-1-1zm65 0-3-5 2 2c0 2 1 2 2 3 4 0 4 1 2 1l-3-1zm-242-1v-1 2-1zm143 0h4c1 1 0 1-2 1-3 0-4 0-2-1zm40 0 4 1h-2c-2 0-3 0-2-1zm14-1c0-2 0-2 1-1v2l-1-1zm102 1h2-2zm6 0h1-1c-1 0-1 0 0 0zm-235-2 1-1 1-1-1 2h-1zm126-3c-2-3-1-3 0-1l1 2-1-1zm-124-1 6-14a104 104 0 0 1-6 14zm166-1c-1-2-1-3 0 0l1 2-1-2zm-237-3v-2 4-2zm18 1c0-1 0-1 0 0v1-1zm175-1c-1-1-1-2 0 0l1 1-1-1zm42-2c-2-2-1-3 0-1l1 3-1-2zm-194-2v-1 2-1zm150-1c-1-2-1-2 0 0v1-1zm-191-3c0-1 0-2 1-1v3c-1 1-1 0-1-2zm232 1c-1-3 0-3 1-1l1 3-2-2zm-190-1v-1 2-1zm60 1 1-2v2h-1zm87-2v-1l1 3-1-2zm-147-3h1v1l-1-1zm189 1v-1 2-1zm-230-2v-1 3-2zm76 2 1-2h1l-1 1-1 1zm110-2v-1l1 1h-1zm-144-2h1l-1 1v-1zm36 0v-2h1l-1 2s0 1 0 0zm-77-2v-1 2-1zm226 1c0-2 0-3 1-1v2l-1-1zm-43-2v-1l1 3-1-2zm-141 0v-1 2-1zm36 0 1-2 1-1-1 2-1 1zm-78-2 3-10-1 6-2 4zm43-1v-1 2-1zm181 0c0-2 0-3 1-1v1h-1zm-43-1c0-2 0-2 1-1v2l-1-1zm-101 0v-2h1l-1 2zm100-5c-2-2-1-3 0 0l1 2-1-2zm-99 1 1-2h1l-1 2h-1zm141-1c-1-1 0-2 0 0l1 1-1-1zm-182-3-2-7c0-3-1-4-2-4l-2 1-2 2 2-2c3-5 4-5 5 2l2 7 2 4-3-3zm69 2v-2h1l-1 2zm-26-1v-2l1-1-1 2v1zm95-2v-1 2-1zm81 0-6-13 3 7 4 6 18 1h18-18l-19-1zm39 1 1-1v-1c2 1 1 2 0 2h-1zm-78-2c-1-1-1-2 0 0l1 1-1-1zm-217 0 1-2 1-1-1 3h-1zm43-1v-1 2-1zm38 0 1-2s0-1 0 0v2h-1zm92-2v-1l1 2-1-1zm124 0s0-1 0 0v1-1zm-82-2v-1l1 2-1-1zm-133 0 1-2h1l-1 2h-1zm-79-3 1-3v1l-1 3v-1zm168 0c-1-1 0-2 0 0l1 1-1-1zm42-1v-1l1 2-1-1zm81 1 1-1v2l-1-1zm-210 0 1-2v-1 2l-1 1zm85-4c-1-3-1-3 1-1v3l-1-2zm-83 0 6-15a104 104 0 0 1-6 15zm-81-1v-2h1l-1 2c0 1 0 1 0 0zm206-1v-1l1 2-1-1zm33-5c-8-13-19-24-30-32-5-4-8-6-4-4a110 110 0 0 1 34 36zm48 3c-2-2-1-3 0 0l1 2-1-2zM92 98l1-2v-9l1 6c0 2 0 2 2 1l-1 1c-2 4-3 4-3 3zm118-2v-1l1 2-1-1zM49 97l1-2v-1 2l-1 1zm203-3c-2-3-1-4 0-1l1 2-1-1zm-94 0v-1 2-1zm50-2c-1-2 0-3 1-1v1h-1zm122-5-2-5 5 10-3-5zM51 92l6-11-3 5-3 6zm48-2 2-2-1 2-2 1 1-1zm150-1c-1-3-1-4 1-1l1 2-2-1zm-43-2c-1-3-1-3 1-1l1 3-2-2zm-103-2-2 3zm32 0 1-2s0-1 0 0v2h-1zm112-1c-1-3-1-4 1-1v2l-1-1zm-42-1v-1 2-1zM93 82h1v1l-1-1zm59-1c0-1 0-1 0 0v1-1zm28 1 1-3 1-1-2 4zm-43-2 3-2-2 2c-2 2-2 2-1 0zm-78-3zm144 1c-1-2-1-3 0 0l1 2-1-2zm42 0-2-2 2 2 1 2-1-2zm80 0a118 118 0 0 0-2-4l3 6-1-2zm-182-2 17-8-9 5-8 3zm94-2-3-2 9 4-6-2zM87 74l2-1-1 1-2 2 1-2zm9 2v-2l1-1-1 2v1zm88-2 1-2-1 2c-1 1-1 1 0 0zm17 0v-1l1 2-1-1zM97 72l1-3c2-4 1-4-3-1l-4 2 9-7c1 0 1 2-1 6l-2 3zm222-4-1-2 4 6-3-4zm-120 2v-1l1 2-1-1zm-14 0 1-1 1-1-1 2h-1zm37-2-2-1 6 2-4-1zm-52-1h-3c-3 0-4 0-3-1 4-1 8 0 6 2v-1zm2 0 1-1h1l-2 1zm25-2h1v1l-1-1zm90 0-2-2 2 2 1 1-1-1zm-100-1 1-1v2l-1-1zm-10 0h3-3zm31 0h1-1c-1 0-1 0 0 0zm-25-1h1-1c-1 0-1 0 0 0zm14 0 3-1c2 0 2 0-1 1h-2zm8 0h1-1c-1 0-1 0 0 0zm109-2-2-2 4 5-2-3zm-23 1v-1l1 2-1-1zm-10-3-2-2 2 2 2 2-2-2zM90 57l2-1c1-1 1-1 0 0-1 2-2 2-2 1zm216-5-2-3 8 9-6-6zm-63 2-5-4 12 7-7-3zm-111 1c0-2 3-7 8-11 2-2 2-1-1 2l-5 7c-1 3-2 4-2 2zm4 1 3-2h2l-2 1-3 1zm-41-4 2-2-1 2-2 1 1-1zm56-3 4-2-3 2c-5 2-5 2-1 0zm84 1-1-1 2 1h1-2zm-6-3c-3 0-3-1-2-1l6 3-4-2zm-126-4 5-4-4 4-5 5 4-5zm57 2 4-1-1 1-4 1 1-1zm61 0h1-1c-1 0-1 0 0 0zm-3-1h1l-1 1v-1zm77-3-3-4 4 4 3 4-4-4zm-129 2h1v1l-1-1zm48 0h2l-1 1-1-1zm-44-1h4-1l-3 1c-2 0-2 0 0-1zm40 1h2-2zm-4-1h3-3zm-62-1 1-1c1-1 1-1 0 0l-1 1zm33 0h2l-1 1c-2 0-2-1-1-1zm24 0h3l-1 1-2-1zm-19-1h4c1 1 0 1-2 1s-3 0-2-1zm13 0h3c1 1 0 1-2 1-1 0-2 0-1-1zm95-4-2-2 2 1 1 2-1-1zm-176-5c3-3 6-6 6-8 2-4 3-5 3-3l-9 13-4 3zm172 2h1l1 1-2-1zm-5-3-9-6c-6-3-7-4-2-2a118 118 0 0 1 11 8zm-123-8c-1-1 1-2 8-6 8-5 12-7 16-11l4-3-3-1h1l4 1c1 0 0 0 0 0l-6 4-11 8-6 4h-1c-2 0-5 3-4 3v1h-2zm-44 0 2-2 2-1-2 2-2 1zm50 0h2-2zm8-1h1-1s-1 0 0 0zm13-1h2-2zm-66-1 11-6-6 3-5 3zm141-1-1-1 3 1 1 1-3-1zm-61-1-1-2c1-3 16-9 20-9 2 0 0 1-5 3-8 2-13 4-14 6l1 1c2 2 1 2-1 1zm54-2v-1l1 1h1-2zm-121-3 3-1-2 1-2 1 1-1zm116 1-1-1 2 1h1-2zm-112-3h2c1 0 0 0 0 0l-2 1v-1zm105 0-2-1 3 1h-1zm-7-2c-1 0-1 0 0 0h3v1l-3-1zm-3-1h1-1s-1 0 0 0zm-80-2 1 1h-1V5zm73 0 2 1h-1l-1-1zm-70 0h1c1 0 1 0 0 0h-1zm67 0h1-1c-1 0-1 0 0 0zm-64-1h2-2zm4-1h2l-2 1V3zm44 0h5c2 0 1 1-3 1-3 0-4-1-2-1zm-40 0h2-2zm5-1h3-3zm6-1h2-2z" style="fill:#e4b353;fill-rule:evenodd"/><path d="M189 472c-12-4-17-20-10-30 2-4 3-4 3 3l-1 4v-3l-1-4-1 2-1 9c0 6 0 7 2 10s8 8 11 8h2l-2-2c-2-1-4-5-3-5l3 3c3 3 6 3 9 1s5-6 5-12c1-5 1-6 2-4v7c-2 6-2 7-5 10-2 1-2 2-1 2l3-1c2-1 2-1 2-3l1-7 1-5 1 6-1 7v2c-4 3-14 4-19 2zm88-1 1-1 1 1h-2zm63 0c-1-1-2-1 0-3s2-28 0-31c-2-2-1-2 2-3l2 1-1 1-1 3a133 133 0 0 1 0 27v3h3l4 1c1 1 0 1-3 1h-6zm-236-1v-33c0-1 0-2 2-2l1 1 1 1 3 9-1-2-3-7-1 16v15h3c2 0 2 0 1-1v-11l1-4v-1l1 9v9c1 1 0 1-3 1h-5zm24-4-5-6 3 2 6 5 3 3c-1 1-2 1-7-4zm139 4c-4-2-5-5-5-16v-7l1 10c1 6 2 9 4 11h1c0-1 0-1 0 0l3 2 1 1h-1l-4-1zm-237-1c-6-3-8-7-8-16l1-8v-2l1 2v8c-1 5 0 7 1 9 2 4 4 5 3 1l-1-2 2 3 2 4 3 1v1l-4-1zm17 0h2l-1 1-1-1zm4-2-1-3c0-3 1-3 2 0l1 3v1l-2-1zm216-4-1-4 2 3c2 5 1 6-1 1zm80 0v-2 4-2zm-293 2v-3l-1-4v1c0 2 0 2 0 0-1-2-1-2 1-3 3 0 3 1 1 4v4c0 2 0 2-1 1zm74-4-6-7 2 1 4 5c5 6 4 6 0 1zm85 2-1-4 1 1c1 2 2 3 1 4s-1 1-1-1zm-185-4-2-4 2 3 1 4-1-3zm159 0v-1l1 3-1-2zm-138 0 1-1v2l-1-1zm216-1 1-4-1-1v-12c0-5 0-6 2-6v3c0 2 0 2-1 0l1 13v4l-1 2c-1 2-1 3-1 1zm-52-2-2-2 2 1c3 2 3 2 3 0v-2l1 4c-1 2-1 2-4-1zm135 0v-1 2-1zm-231 0-1-2 1 2 2 2-2-2zm0-2c-2-1-2-1-1-2l3 1c1 2 1 2-2 1zm69 0-1-4c0-2 0-3 1-2v-1l2-5v3l-1 3c1 5 0 7-1 6zm-159-1 1-1v2l-1-1zm95 0h-1c-2 0-2-1-1-2l3 1v2l-1-1zm226 0v-1l1 1h-1zm-324-1h1v1l-1-1zm326 1-1-2h1c1 2 4 2 7 1h4l-11 1zm-324-2v-3l1-2v-2l1-2v-1c0-2 1-3 3-4l3-2-3 3-2 2h1l1-2-1 3-2 6-1 5c-1 1-2 1-1-1zm157-2v-1 3-2zm177 0 4-1h3c-1-1 0-4 1-4v5h-8zm0-3 1-1v2l-1-1zm-248-3v-1 3-2zm93 2-1-2 2 1c1 2 1 3-1 1zm2-1c0-2-2-4-5-6l-4-4 3-1c2 0 2 0 3 2v3l1 1 4 7-2-2zm-23 1 2-6 2-4h-1c0-1 1-2 3-2l2 1-3 3-4 6-1 2zm163-2-1-4-1-3c1 0 3 6 2 8v-1zm-84-1 1-1v2c-1 1-1 0-1-1zm-238 0 1-2v3l-1-1zm236 0v-1 1c0 1 0 1 0 0zm-209-3-3-2-3-2h3c3 0 5 1 4 4-1 2-1 2-1 0zm71 0c-1-2-1-3 2-3v1l-1 2v2zm225 0-1-4h2v3l-1 3zm-237-1-1-3c-1 0-1 0 0 0s2 2 1 3c0 1 0 1 0 0zm178 0v-2l1 3-1-1zm68-1-2-2h2l1 1h1l2-1v1c-1 0-2 1-1 2 0 1-1 1-3-1zm-237-1h2l-1 1-1-1zm86 0-2-2c1-1 5 2 5 3l-3-1zm56 1v-2 1l1 1h-1zm-16-35-14-17c-19-22-20-24-21-22l-1 9-1 8v-18l2-1c3 0 3 0 21 22 14 17 16 20 18 20l3 1h-2c-3 0-4 0-5-2zm44 1-4-1c-2 0-8-5-10-8l-2-3v-19c0-17-1-20-2-22v-2c2-1 6 5 6 7l-2-3c-2-3-2-3-1 0l1 20 1 20c2 3 6 7 10 9 5 2 6 2 4 0h1l4 3c2 0 2 0 0 0l-6-1zm13 0c-2-1-2-1 2-1l4 1h-6zm-107 0c-2 0-1-2 2-3 6-2 6-3 6-25s0-23-6-26c-5-3-5-4 2-4h5l-4 1h-4l3 2c5 3 6 5 6 22a136 136 0 0 1-1 22c0 6-1 8-5 9h9l-2-1-1-3c0-1 0-1 0 0l3 4 2 3h-6l-9-1zm16-1-2-2 3 1 3 2c-1 1-1 1-4-1zm-119 0-9-22c-12-27-12-27-16-31l-4-4h4l5 1-2 1h-3l3 3c3 2 7 11 20 45 3 6 3 6 5 6 3 0 3-1 2-4l-1-1 2 2v4h-6zm44 0 2-2 2-3v-46l-2-2-2-2 2-1 4 2 1 3-1-1-2-3 1 2 2 2v21c0 19-1 23-2 28-1 1-1 1 5 1h6l-2-1-2-3 2 2 4 3-8 1-10-1zm39 0h5c1 1 0 1-2 1-3 0-4 0-3-1zm162 0 2-2c3-1 4-1 4-4l1-24v-20l-2-2-4-3h1c3-1 5-1 6 1 2 4 2 5 0 2l-3-3 1 2 2 2v23l-1 25-1 2h12l-2-1-1-3 2 2 2 3h-19zm40 0h4c1 1 0 1-2 1-3 0-3 0-2-1zm6-2-2-2h2l2 3 1 1c0 1-2 0-3-2zM4 402l3-3 3-3-1 3c0 2 0 2 1 0v1l1 2H4zm9-2c-2-2-1-2 1 0l1 2-2-2zm31 2v-2c2-2 1-6-2-12l-3-6H28c-10 0-10 0-12 2l-2 1 4-8 8-19 4-10 1 3 1 4-1-1c-1-3-1-3-2 0-1 2-1 3 1 4 2 2 8 16 8 20l2 3c2 2 7 13 7 17 0 2 0 2 4 3 3 0 3 0 2-2l-1-2c-1-1 0 0 0 0l3 4 1 1H44zm-8-23c1-1-1-8-4-15-3-6-4-6-7-1l-5 16c1 2 16 2 16 0zm22 22v-1c2 1 2 2 1 2l-1-1zm98 0-4-5 1 1c2 3 3 4 11 4l6 1h-6l-8-1zm143 0 2-1c1 1 9 0 11-1h1l-11 3c-4 0-4 0-3-1zm60 0-3-3c-2-3-1-4 0-1 2 3 3 4 7 4l1 1-5-1zm8 1h3-3zm-195-1h1-1s-1 0 0 0zm78-4-2-4 4 8-2-4zm46 4-2-1-4-4c-2-2-3-4-4-3v-4l-2-1v-1h2c0-2 2 1 2 4 1 3 5 7 8 9 2 0 2 1 1 1h-1zm78 0h1-1c-1 0-1 0 0 0zm-190-1c0-1-3-2-5-1h-1l1-2h3l3 2v2l-1-1zm30 0-4-2v-4c0-2 1-2 1-1 0 3 1 5 4 6 3 2 2 2-1 1zm173-1c-2-3-2-6 0-8l1-2v2l-1 2c-1 1 0 4 1 5v-1l1-2v5l-2-1zm-332-1c-1-1-1-1 0 0l1 1-1-1zm3 0-1-2-1-1c-1 0-2 0-2-2l1-2 2 4v1l3 3-2-1zm231-1-2-2 2 2 2 2-2-2zm-37-2-2-3 2 2 2 3c0 2-1 2-2-2zm-152 1v-2l1 3-1-1zm49-2s0-1 0 0v1-1zm203 0s0-1 0 0v1-1zm-303-1-1-2 2 1c1 3 0 3-1 1zm103-3-2-5 1 1 1 2c1 1 1 1 0 0-1-3 1-14 2-15h8l6 1 1 1h3v-1l1-2v9l-1-1c0-2-2-3-5-5-3-1-11-2-12 0-2 1-2 7-2 12 1 7 1 8-1 3zm202 4v-3c-1-1-1-1 0 0l1 3h-1zm-302-2-1-2 1 2 2 1-2-1zm46-2-2-2 1-1h1l2 2 1 2 2-2 1-1-2 5-4-3zm1 0-1-1c-1-1-1-1 0 0l1 1zm108 2h1l-1 1v-1zm43-3-4-3 7 5v-2l1-2v5c-1 1-2 0-4-3zm-41 2v-4 4zm142 0 1-1v2c-1 1-1 0-1-1zm-203 0 1-1-1 2v-1zm173-4 1-7-1 11v-4zm34 2-1-3 2 2v-9c1-1 1 1 1 6v7l-2-3zm-108 0-2-2 2 2 2 2-2-2zm-100-2h1v1l-1-1zm204 0c0-1 0-1 0 0v1-1zm-257-1h1v1l-1-1zm114-2 1-2v1c0 2-1 2-1 1zm-58-1v-1 2-1zm90 0h1v-1l1-1v2h-2zm80-1v-1 2-1zm56 1-1-4v-2l-4-2-8-1-5 1-1 1v-2c-1-1 0-1 6-1l8 1 2 1 2 1h2l-1-1v-3l1 5-1 6zm-94-2 1-1-1 2v-1zm71 1 1-3 1-5-1-2 2 2-1 5-2 3zm-202-2v-5c0-1 0-2 1-1s0 3-1 5v1zm87 0 1-1h1v1h-2zm113-1c0-1 0-1 0 0v1-1zm-204-1 1-1v2l-1-1zm174-2v-1 3-2zm-85 1c-1 0-1 0 0 0h3s0 1 0 0h-3zm45-1v-1 2-1zm72-1v-1 3-2zm-119-2c-1-1-1-1 0 0l1 1-1-1zm45-1c0-2 0-2 1-1v3l-1-2zm-169 1 1-2c1-1 2 0 1 2h-2zm-25 0 2-2v1l-2 1zm62-1 1-1v1h-1zm3-1h1v1l-1-1zm84 0-1-1 2 1c1 2 0 2-1 0zm2-1-1-2 1 2 1 2-1-2zm-151 1 1-1c1-1 1-1 0 0l-1 1zm266-3v-2 4-2zm3-1v-2 4-2zm-128 2c1 0-1-2-2-1l-3-1v-1c2 0 2 0 0-3l2 2c4 3 5 5 3 5v-1zm-2-2-1-1v1h1zm57 2v-1 2-1zm40 0h1v1l-1-1zm31-2v-1 3-2zm-32-3c0-10-2-14-6-16s-3-2 0-3c3 0 6 1 3 2v1c1 0 2 1 2 3 2 3 3 13 2 16-1 2-1 2-1-3zm-208 4 1-1v2l-1-1zm170 0c0-1 0-2 1-1l-1 1c0 1 0 0 0 0zm4 0v-5l1 3c0 3 0 3-1 2zm-114-1v-1c1-1 2-1 1 1h-1zm-25-1 1-1v2l-1-1zm102 0 3-5c2-3 2-3 2-1 0 1 0 2-2 3l-2 2v2l-1-1zm-99-1h1v1c-1 1-1 0-1-1zm2 0v-1 2-1zm101 0 1-2 1 2c-1 2-2 2-2 0zm69-8 1-9 1 1v1l-1 9-1 8zm34 8c0-1 0-1 0 0v1-1zm19 0 1-1 1 1-1 1-1-1zm-261 0 2-7c2-6 2-6 1-8-1-1-2-3-4-3-3-2-3-2 0-2s5 2 5 4c-1 1-1 1 0 0l1 1-1 7-1 3-2 5h-1zm-32-1 1-1c1-1 1-1 0 0l-1 1zm-1-1 1-2c1-1 1-1 1 1l-2 1zm-1-2 2-1c1-1 1-1 0 0l-2 1zm169 0 1-2 1-1-1 2-1 1zm-100-1v-1 1c0 1 0 0 0 0zm65-2c-2-1-2-1 0 0h2l2 1h-2l-2-1zm67 0c0-1 0-1 0 0v1-1zm-3-1v-1 2-1zm-243-5a261 261 0 0 0 1-6c1-1 3 3 2 4s-1 0-2-3v5l-1 5zm350 4-1-2c0-2 0-3-2-5-2-3-3-3-6-2-4 0-4 0-3-1 2-2 11-2 11 0h-3c-1-1-1-1 0 0l3 4 1 3v-4l1 8-1-1zm-237-6v-5h5l-2 1c-2-1-2 1-2 6-1 2-1 1-1-2zm-1 4s0-1 0 0v1-1zm31-2c-3-4-4-4-2-4s7 6 6 7l-4-3zm172 2s0-1 0 0v1-1zm1-4 1-5h5l-3 1c-1-1-2 1-2 6-1 4-1 4-1-2zm-102 4c0-2-3-4-6-6l-4-2h2l5-1 1 1-1 1h-1l3 2 1 1-1-2v-1l2 4-1 4v-1zm3-3-1-5v-1l2 6-1 4zm-108 2h1v1l-1-1zm66 0v-2l1 2v1l-1-1zm-177-1v-1 2-1zm47 0c0-1 0-1 0 0v1-1zm134-2-1-4 1-1 1 4v4l-1-3zm66-1v-4h5l-2 1c-1 0-2 0-2 2-1 5-1 5-1 1zm-134 1v-1 2-1zm203 0h1l-1 1v-1zm-142-2v-1l2 3-2-2zm48 1 1-2h1v-1c-1 0-1-1 1-1 3 0 3 2 0 4s-3 2-3 0zm22-1-2-2-1-1h3l1 5-1-2zm102 2 1-1v1h-1zm-169-2-1-2-1-1h1c1 0 3 4 2 5l-1-2zm110 1v-1 1c0 1 0 0 0 0zm-288-2v-2l1 3-1-1zm42 1v-1l1 1h-1zm5-1 2-1h2l-2 1c-1-1-1 0-2 1v-1zm102 1-2-1c-2-1-2-2 0-2s3 0 3 2 0 2-1 1zm-105-1v-2l1 1c1 2 0 2-1 1zm141 0c-2-3-1-3 1-1l1 2-2-1zm131 1-1-2v-1c1 0 2 1 2 3h-1zm-227-2-2-1h12l-7 3-3-2zm23 0-1-2h1l2 2h-2zm120 1 5-2h3-2l-3 2h-3zm-100-1v-1h3c4 0 4 0 2 1l-3 1-2-1zm6 0 4-1v1l-3 1c-2 0-2 0-1-1zm151 0-1-1 2 2-1-1zm10 0 3-1v1h-3zm35 0c-1-1 0-1 3-1l3 1h-6zm-181-35a161 161 0 0 1-66-21 506 506 0 0 1 3-1c-1 1 0 2 7 5 38 18 78 20 115 5l8-3-4-3c-6-3-7-3-13-2-15 2-20 3-35 3a130 130 0 0 1-57-12l-5-11c-4-13-4-14-2-9l3 8c3 11 4 13 13 16 25 8 54 9 81 3 8-1 8-1 16 3l5 3v2a157 157 0 0 1-68 14zm74-18-4-3-10-4c-7-3-8-3-16-1-11 3-19 4-33 5h-14l12-1c13 0 23-2 30-5 2 0 4-1 3-2l-6-1c-10-1-15-2-21-7l-4-2v-1a95 95 0 0 1 17-2l-2 1-4 1h-4l3 2c5 3 9 4 13 5 5 1 13 0 15-1s3-4 5-10l1-5-1-1c-2 0-2 0 0-1h3l-3 9c-4 13-4 11 4 15l13 6c6 2 7 3 5 4l-2-1zm3-4-10-3c-8-3-11-5-11-9 0-3 1-9 3-13l2-4c0-4 5-6 6-4 0 2-1 3-2 1l-1-1-1 1-3 8c-3 8-4 12-3 15 1 2 3 3 11 5l8 3 4 1-1-1c-1 0-3-3-2-4 0-1 1-1 2 2l1 5-3-2zm-84 0h3-3zm-11-2h4l2 1-6-1zm-8-1h3c1 0 1 0 0 0h-3zm-5-2c-1 0-1 0 0 0h2l1 1-3-1zm9-1c-11-2-13-3-15-5l-2-3v-14h1c1 0 2 0 1 3-1 10-1 12 1 13 2 3 18 5 20 4 1-1 1-2-5-8l-3-5v-2c-2-1-2-1 0 0a826 826 0 0 0 10 4l5 6c5 6 6 7 4 8-3 1-11 0-17-1zm-16-1-3-5 1 1 3 3 2 2-3-1zm-55-10a154 154 0 0 1 34-256c-4 3-3 3 3 0l6-2c0 2-7 9-19 21a153 153 0 0 0-58 93c1-10 7-27 14-41 8-16 16-27 35-47 12-13 17-20 16-21s-19 11-28 19c-35 28-56 72-56 116a154 154 0 0 0 56 119l3 3 1-3c1-4 0-7-5-17l-2-5 9 18-1 6-1 3-7-6zm193 5a5053 5053 0 0 1-33-80l-47-1-46-1a426 426 0 0 1 19-39l1 1c-1 0-1 1 1 1 2 1 3 4 4 10 1 8 1 8 4 9 2 1 6 2 26 2 27 0 36 0 43 3 5 2 11 7 13 11a717 717 0 0 1-2-1c-2-4-9-9-15-10-3-1-9-2-34-2-37-1-34 0-36-10-1-6-3-11-6-12l-3 5c-11 25-13 30-12 31a1326 1326 0 0 0 91 1 2462 2462 0 0 1 33 80l5-4 7-4-6 5c-6 6-7 6-7 5zm-142-2c0-1 0-1 0 0v1-1zm-1-4-3-12-1-2h1l3 6 1 8-1 2zm-39-6-4-8-4-6 3 4 5 5c1 2 2 4 1 6s-1 1-1-1zm48-2h2l3 1h-1c-2 1-3 0-4-1zm160-10 1-2 1-3a461 461 0 0 0 1-4l-4 1-6 3-6 3c-2 0-3-4-3-11l-1-8 6-8a150 150 0 0 0 20-45l-23-1a137 137 0 0 1-38-3l-4-7-1-9v-3c3 9 6 13 12 16 5 3 12 4 35 4l22 1c1 1-2 13-5 22-3 10-11 26-17 35l-4 9c0 5 1 5 8 1l15-7 2-1s0-1 0 0l-7 13c-4 6-7 8-4 4zm-221-5c0-2-2-5-5-8l-14-22c-6-11-5-10 2 1l11 17c5 6 8 13 8 14l-2-2zm3-1c-2-10-2-16 0-21l1-4h-5c-4 0-5-1-8-3-4-2-11-9-13-13-1-3-1-3 1 0 3 6 8 9 15 10 4 0 4 0 6-2l3-2-2-6-1-8 1-3v3l1 5c1 2 8 6 10 6s6-3 7-6l1-2-5 9-3 5-5 12c-4 10-4 14-3 20l1 3-2-3zm6-1c-3-2-3-2 18-52a1674 1674 0 0 0 45-104l5-2 12-6c1 0 1 1-1 3-1 2-1 2-1 0v-1l-2 1c-4 2-8 6-10 9l-10 24-52 126c-2 3-3 4-4 2zm220-31 3-12c4-19 5-25 4-28-1-4 0-8 3-13l1-4c0-2 2-3 7-3l4 1-4 1c-2-1-3-1-5 2l-6 12 1 4-1 14c-2 13-2 16-1 16l7-5c7-6 8-7 7-5s0 1 2-1l1-1a3279 3279 0 0 0-7 13l-7 5-8 5-1-1zm-253-7c-1-2 0-2 1-1v2l-1-1zm11-1-5-3c-2-1-5-7-6-9l2 3c3 5 6 7 13 7l4 1 1-3 2-2v2l-1 3c-1 1-1 2-4 2l-6-1zm-13-6-2-5 2 4 1 5-1-4zm21-2v-3c0-1 2 3 1 5l-1-2zm14-1c-4-2-6-4-5-5l2 1c2 2 7 4 9 4l3-1a2092 2092 0 0 0 47-124c4-2 4-3-3 16-7 18-43 108-45 110s-2 2-8-1zm11 2 5-11-5 11c0 1 0 0 0 0zm-49-7v-3l1 2v2l-1-1zm2-2v-1 2-1zm2 0 1-1-1 2v-1zm46-46 22-55c4-9 5-11 15-16 8-4 7-2-1 3l-7 4c-2 1-7 14-24 56a1096 1096 0 0 1-5 8zm231 45v-1 2-1zm-282-2v-1 2-1zm2 0 1-1v2l-1-1zm2 0 1-1v2l-1-1zm51 0a3713 3713 0 0 1 53-122h2l-2 4-6 10a6305 6305 0 0 1-47 108zm227-2c-1-1 1-13 2-15l1 1a182 182 0 0 0-2 15l-1-1zm-283-1 1-1v2l-1-1zm4-2v-3l1 2v4l-1-3zm-4-2v-1 2-1zm2 0c0-1 0-1 0 0v1-1zm-3-4v-1 2-1zm4 0c0-1 0-2 1-1v2c-1 1-1 0-1-1zm-2 0v-1 2-1zm153-1c27-1 28-2 13-9l-11-6-2-4 4-1c3 0 3 0 2 1l-2 1c-2 0 4 5 10 8l10 4 12 4c0 1-7 2-31 2h-5zm-24-1-1-8 1-7c0-1 0-2-2-3l-3-1h4c4 1 5 1 4 3l-3 13 1 2 1 2-2-1zm-127-3v-1 2-1zm-5-1v-1 3-2zm2 1c0-2 0-2 1-1v2l-1-1zm214-2c-5-2-9-5-12-9l-7-15v-2 2c7 15 9 18 17 21 5 3 9 3 12 1l2-6c0-5 0-7-1-5l-2 1-3-1 10-1v2l-1 5c1 5 1 5-1 6-2 2-10 2-14 1zM61 154c0-12 0-15 2-22 4-15 10-28 13-28 1 0 2 1 2 4l4 10 2-3 1-2-1 7a247 247 0 0 0-3 8l-1-2c-1 1-1 0-4-6l-4-5-5 9c-4 9-5 17-6 31v14zm-5 10 1-2v4l-1-2zm3 0v-1 3-2zm171-3c-2-2-3-2-2-3l-1-1c-2-1-2-1 3-1l5-1-18-45c-16-38-20-47-18-45l38 90c0 2-1 3-5 3l-3 1 3 1c2 2 3 2 5 1 9-1 11-4 12-12v-5 4c2 8-1 13-8 15-6 1-7 1-11-2zm-174-8v-3 6-3zm21 2c-1-4 1-20 2-22 2-1 2 0 1 5l-2 11c0 8 0 8-1 6zm175-6h1v1l-1-1zm-193-5v-1 3-2zm192 2h1v1l-1-1zm-195-5 1-2v4c0 2-1 1-1-2zm192 1s0-1 0 0v1-1zm4-1v-2l1 2v2l-1-2zm-5-1 1-1v2l-1-1zm-188-3h1v2l-1-2zm-2-2c0-2 0-3 1-2l-1 3v-1zm188 0c0-2 0-3 1-1v1h-1zm-185-2v-1 2-1zm189 0v-1l1 2-1-1zm-5-2v-1l1 2-1-1zm-183-2v-1 2-1zm186-1v-1l1 2-1-1zm-186-2 2-7v5l-2 2zm181 0v-1 2-1zm3-2c0-2 0-2 1-1v2l-1-1zm-5-2c0-2 0-2 1-1v2l-1-1zm3-3c-1-2 0-2 1-1v2l-1-1zm-179-1 2-8c8-21 22-41 37-55 7-5 14-11 15-10l-2 3c-10 14-15 23-17 30l-1 10 3-3 3-3 3-2-1 1-7 8c-6 8-5 8-5-1 0-6 0-7 3-13 3-9 4-11 3-12 0-1-7 5-11 10a133 133 0 0 0-25 45zm174-1v-1l1 2-1-1zm3-3v-1l1 2-1-1zm55-7c-21-40-52-61-96-66-22-3-46 4-68 17l-2 1c3-3 2-3-3 1l-4 2c0-7 12-19 26-27a92 92 0 0 1 71-8l-9-1c-18-3-34-2-50 5-14 6-29 18-29 24l9-3c14-8 29-12 45-14 11 0 32 3 47 9 28 10 49 30 64 59l4 7h15c12 0 15 0 14-1l-11-8c-9-8-11-10-17-21a131 131 0 0 0-68-52 125 125 0 0 1 71 57c4 7 8 10 19 19a54 54 0 0 1 8 7h-16l-16 1zm41 6-6-4-6-5 7 5 8 5-3-1zm-101-1v-1l1 2-1-1zm102-1v-1c1-1 0-2-1-3l-1-3c1-1 2 2 3 6 1 2 0 2-1 1zm-99-2v-1l1 2-1-1zm-5-1c0-2 0-2 1-1v2l-1-1zm96-3c-9-5-9-6-2-2l10 6-8-4zm-93-1v-1 2-1zm-5-1c0-2 0-2 1-1v2l-1-1zm3-3c-1-2 0-2 1-1v2l-1-1zm-5-2v-1l1 2-1-1zm86-2c-1-1-1-1 0 0l2 1c0 1-1 1-2-1zm-4-4-1-2 2 2 1 2-2-2zm-3-2v-1l1 1v2l-1-2zm0-3v-2l1 2 1 2-2-2zm-86 0-1-2 2 1 1 2-2-1zm1-1c-1-2 0-2 1-1l1 2-2-1zm1-4-5-7-3-8 4 1 1 4c0 5 2 9 5 13l1 2-3-5zm-6 0-1-2 2 2 1 2-2-2zm88 1zm-86-1h1l1 1-2-1zm-57-2 2-3-1 3-2 2 1-2zm16 0c-1-1 0-3 2-4v2l-2 2zm33-6c-3-4-6-6-8-7l-2-2c2 0 7 4 12 10 4 6 3 6-2-1zm87-1c-11-16-28-30-47-39-10-6-22-9-39-13-12-3-16-5-15-6 1-2 6-4 14-6l7-3-7-1c-6-1-6-1-2-1l23 4c2 1 2 1 0 1s-2 0 0 1l-5 2-13 5 14 7a140 140 0 0 1 74 54l-4-5zm-131 0 4-6 2-2c2-1 2-1-4 6l-2 2zm130 2h1l1 1c0 1-1 1-2-1zm-84-4-5-6-2-1 2 1 2 1 6 10-3-5zm14 1c-4-1-6-3-5-3l6 2 5 3h-1l-5-2zm68 0h1l1 1c0 1-1 1-2-1zm-3-3-1-2 2 2 2 2-3-2zm-8-10-7-7 7 7zm-109 6 2-1c4-1 5-1 3 1h-5zm8-2h2-2zm91-12-1-2 2 2 1 1-2-1zm-4-4c-3-2-3-2 0 0l2 2-2-2zm-9-6c-2-1-2-1 0 0l2 1-2-1zm-5-2-3-2 3 1 3 2-3-1zm-9-5-2-1 4 1 2 2-4-2zm-110-5 12-8 23-15 3-3h-3l-4 1h-4c-3-1-2-1 4-2h16l-4 3c-4 4-8 6-16 11l-8 6h9a132 132 0 0 1 10-1c-9 1-19 4-30 7l-10 3 2-2zm88 0c-2-1-3-1-1-1l7 3-6-2zm-6-2h2l-1 1-1-1zm5-1h1-1c-1 0-1 0 0 0zm46-1-8-3a182 182 0 0 0-21-10l-2-2 2 1a216 216 0 0 1 31 15l-2-1zm-52-1h1c1 1 0 1-1 1v-1zm-4 0h2-2zm-3-1h1c1 0 1 0 0 0h-1zm-5-1h2l-1 1-1-1zm-4 0h2-2c-1 0-1 0 0 0zm-9-1h3-3z" style="fill:#e09d16;fill-rule:evenodd"/><path d="M272 470c-3-1-5-3-4-4l2 1 2 2h2l1 1h1l1 1c1 1-1 1-5-1zm-2-2-1-1c-1-1-1-1 0 0l1 1zm-141 2-6-8-1-1c0-1 0 0 0 0l-3-3c-2-3-2-4-1-4l1 1c-1 1 2 4 2 3v-2l-1-1 3 4 5 6 4 4v2l-3-1zm1-2-2-2-2-1-1-1 2 3c3 3 4 4 3 1zm218 1v-11c1-1 1 0 1 4l1 6v3l-2-2zm-299-1c1-2 2-2 2-1 1 2 1 2-1 2s-2 0-1-1zm159 0 1-7-1-5 2 4 1 5v1-8c3 5 2 9-3 11v-1zm-178-1-1-3-1-2v-1l2 3c2 3 2 4 1 4l-1-1zm157-4v-2l-2-2-1-3v-1l-1-1c1-1 1-1 2 1v3l1 1c1-1 1 0 1 2l2 2v1l-2-1zm-133-1-1-2 1 1v1zm211-2h1l1 1h-1l-1-1zm-239 0 1-1v1h-1zm0-3v-1l1 1-1 1v-1zm187-2-2-2 3 2 2 2-3-2zm-6-3-2-4v-2l-1-1c0-1 1-1 2 1v1l1 1v3l1 1h1v2c-1 1-1 1-2-2zm141 3 2-1c1 1 1 1 0 0s-1-1 4-1h4l-7 2h-3zm-323-1 1-1v1h-1zm90 0 1-1v2l-1-1zm7-1c-1-1-1-1 0 0l1 2-1-2zm142 1a1 1 0 0 1 1 0v1l-1-1zm-152-2v-5 2c0 2 0 3 2 3l1 1c0 2-2 1-3-1zm70 1 1-1v1h-1zm34 0 1-1h1l-2 1zm-94-2 1-3 1-5c0-2 0-2 1 0 0 1 0 1 0 0 0-2 3-5 4-4v-1c0-2-2-2-4 0l-1 1 3-3 5 4c1 5 0 7-4 10s-5 3-6 1zm5-1c3-3 4-4 4-6l-1 1-5 4h-1c-2 1-2 3-1 3l4-2zm136 1a1 1 0 0 1 2 0l-1 1-1-1zm85-3v-5c1-2 1-1 1 3l-1 6v-4zm-323-1v-4 7-3zm157-1-1-6v-1c1-1 4-5 6-5l-1 2-1 1v-1c-1 0-2 2-3 10v5zm85 3c-2-5-1-13 1-13h1l-1 8-1 5zm-51 0h-1c-1 2-2 0-2-4v-5c-1-1-1-1 0 0 2 1 4 8 4 9h-1zm46-1 1-3 1-2v2l-1 3v2l-1-2zm-76 0v-1 2-1zm176 0h4-4zm-338-3v-3 3zm3 0h1v1c-1 1-1 0-1-1zm156 1 5-11-1 4-3 6-1 1zm177-2h1v1l-1-1zm9-1-1-3-1 1-3 1-3-1 3-3 1-1c0-1-2-2-3 0-2 0-2 0-1-1 2-2 3-1 6 1 2 2 2 4 2 5v2-1zm-259 0 1-3c0-1 1-1 1 1l-1 2h-1zm152-1v-1l1 1-1 1v-1zm97-2 1-2v2c0 2-1 2-1 0zm-330 0 2-2-1 2h-1zm80 0-1-3c-2-1-1-2 1-2 2 1 2 2 1 5h-1zm1-3-1-1v1l1 1v-1zm237 3v-1 2-1zm-86-1-1-3v-1l1 1 1 2v-1c0-1 0-1 0 0l1 2h-2c0 1 0 1 0 0zm-57-2v-3l2 5-2-2zm5 1c-2-1 0-2 2-1v2l-2-1zm137-1-1-1-1-1h3v2h-1zm1-1-1-1v1h1zm-52-33-2-1h4c-1 1 0 2 2 2l1-1v-1l3 1 3 1h-4l-7-1zm-85-1c-1 0-1 0 0 0h1l-4-3-1-1h2l2 1 2 3c-1 1 0 1 0 0l2 1c1 1-2 1-4-1zm42 0 1-1 1 1-1 2-1-2zm112 1h-3c-3 0-4 0-6-3-1-2-1-2 1 0s4 3 3 1h1l6 1h3c-1 1-4 2-5 1zm-209-1-3-2v-1l2 1v1h1l1 1h2-3zm6 0h5c2 1 0 1-2 1-3 0-4 0-3-1zm9 0h2l2-1h12c-2 1-15 2-16 1zm201 0h2l2-1h2l3-2c2-1 5 0 4 2l1 1h1l-8 1-7-1zm13-1-3-1c-2 0-2 0 0 1h3zm-373 0v-6l-1 2v-2l2-4 3-6c1-1 1 1-1 2l-1 2c1 1-1 4-1 4v8c0 1 0 0 0 0-1-2 0-2 1 0v1l-2-1zm45 1-2-3-1-1 2 1c1-1 1 0 0 0l1 2h1c-1-2 0-2 1 0v1h-2zm43-3a1 1 0 0 1 2 0 1 1 0 0 1-2 0zm79 0h2l-2 1v-1zm3 0h2c2 1 2 1 0 1l-2-1zm70-1v-1l1 1h1v2-1h-1l-1-1zm37 1 1-2 1 1a1 1 0 0 1-2 1zm100-1c-1-1-1-1 0 0l1 1-1-1zm-337-2h2v1l-2-1zm303 0v-2l1 2c1 1 0 2-1 0zm-298 0v-1l1 1h-1zm41-1v-1l1-1h-2v-1c1-1 1-1 3 2v1h-1c1 2 0 2-1 0zm108-4 1-5h1l-1 6v4l-1-5zm2 4c0-1 0-2 1-1v2l-1-1zm80 0s0-1 0 0v1-1zm99-1h1v1c-1 1-1 0-1-1zm3 1v-7l1 4c0 4-1 5-1 3zm-338-1-1-1c1 0 2 1 1 2v-1zm199 0h-1l-1-1h1l-1-1-1-1 3 2 1 2-1-1zm-100-1h1v1l-1-1zm59-2c0-2 1-2 1-1v3l-1-2zm143 2 1-2v1l-1 1zm-298-2v-2c0-1-2-5-4-6l-3-5-4-9c-4-6-5-11-4-12 2-1 0-6-1-5v-1l1-1a316 316 0 0 1 15 37l2 3-2 1zm153-2h1l-1 2v-2zm44 1v-1l2 2-2-1zm-154-1-2-2 2 1 2 3-2-2zm51 0 1-1v1h-1zm203 0 1-1 1-1-1 2h-1zm-199-1-1-2 1 1v1zm-45-7c3-8 3-8 4-7l-5 13c-2 3-2 1 1-6zm249 6-2-2 2 2c1 1 1 2 0 0zm-70-1v-1l1-3c1-4 1-4 1 1 0 4-1 6-2 3zm-190 0v-4a238 238 0 0 1-10-22l-1-2h-1v-2l-1-4 2-4v-3h3l-1 3-3 3a1252 1252 0 0 0 12 35zm147-1h-1l3 1-2-1zm10-3v-3c0 2-2 4-4 4l-6-6-3-3-3-3-3-3-1-2 1-1a2827 2827 0 0 1 14 15l1-6 1-7v2c0 2 0 2 1 1l2-1h1v-2c0-1 0-1 0 0v19c-1 1-1-1-1-4zm-106 3 1-1h1l-1 2-1-1zm97-1-2-2 2 2 2 2-2-2zm107-1v-2 4-2zm-70 0h1v1l-1-1zm72 0 1-1v2l-1-1zm-205-2v-1 1l1 1-1-1zm60 0 1-1v2l-1-1zm31 1 1-1 1 1v1l-2-1zm116-3 1-4v-1c2 1 1 4 0 6l-2 1zm-203-1v-4 5-1zm128 1 1-1v2l-1-1zm40 0c0-1 0-1 0 0v1-1zm-82 0-1-1 2 1h-1zm44-5c0-3 0-4 1-3v6c-1 2-1 0-1-3zm70 4v-7 9-2zm-204-2 1-3v2c0 4 0 4-1 1zm86-1-2-2 3 2 2 1c0 1-1 1-3-1zm52 0v-7l1 5c0 3 0 4-1 2zm34-2 1-4v6c-1 2-1 1-1-2zm55 3v-1l2 1h-2zm-202 0-3-2h-1l3 1 1 1zm198-2h2-2zm-218-1-1-2h1l7 1c6-1 7-1 9-3 3-2 5-2 5 1l-1 2-1-1c1-2-1-3-3-1l-1 2c1 0 1 0 0 0l-15 1zm78-1h1l-1 1v-1zm125 0v-9l1-8c0-9 0-9 5-9 2 0 2 0 1 1-6 0-5-1-5 13v12h12l-6 1-8-1zm1-3c0-1 0-2-1-1l1 4v-3zm19 2c1-1 0-3-1-3l-3 2c-2 1-2 1 0-1 3-4 5-3 5 2l-1 1v-1zm-222 0 1-1v2l-1-1zm70-2-1-1 1 1 2 2-2-2zm-77 0 1-1v2l-1-1zm3-1 1-1v3l-1-2zm81 2h2-2c-1 0-1 0 0 0zm-78-1v-3l-1-3v-1l1-7 1-8 6-1c2 0 3 0 1-1-1 0-1 0 0 0h3c2 1-1 2-4 2-6 0-6 1-6 13l-1 9zm168-2v-1l1 1-1 1v-1zm-208-1h2l-2 1v-1zm167 0 1-1v2l-1-1zm3 0v-1 2-1zm-65-3-1-2 5 5-4-3zm6 0c-3-4-4-6-2-7h3l-1-2-4-4-2-2c1-1 2 0 9 9 5 6 6 7 4 6l-2-1 1 2c0 3-3 2-6-1zm97 1 1-1v1h-1zm-174 0 1-1v1h-1zm104-1h3-1l-2 1v-1zm35 0v-2l1 1-1 1zm65 0 1-1v1l-1 1v-1zm-317-3 1-1v1l-1 1v-1zm113 0 1-1v1l-1 1v-1zm203 0 1-1v1l-1 1v-1zm-100-5c0-6 0-8-3-8-2-1-1-2 1-2s4 2 4 4 0 2 0 0l-3-4 1 2 1 6v4l-1 2v-4zm37 3-1-2-2 1c-2-2 1-10 4-10l1-1h-2l-2-1h9v2l-2 1c-3 0-4 2-4 7l-1 5v-2zm34-2v-2 4-2zm-43 3 1-2 1 1-1 1h-1zm-245-1 1-1v1h-1zm181-1v-1l1 1c2 2 1 2-1 0zm138 0c0-1 0-1 0 0v1-1zm-234-4 1-5c0-1 0 0 0 0v2l1 2c0 2 1 1 2-1l-1-3-2-2c-2 1-4 0-3-1h1l1 1h3l4 2-2 3-4 5-1 2zm28 4 1-1v1h-1zm203 0 1-1v1h-1zm-68-1v-1 2-1zm-249 0 1-2h1l-1 2h-1zm220-2v-1 2-1zm26 1 1-1-1 1c0 1 0 1 0 0zm-133-1c0-1 1-3 2-2l-1 2h-1zm67 0v-1l-1-1v-1h-1c-1 0-1-1 0 0v-1c0-3 0-2 2 2l1 3-1-1zm136 0 2-2-1 2h-1zm37-2-1-2 1 2 1 1-1-1zm-308 0 1-1-1 1c0 1 0 1 0 0zm-46-1-1-3c0-3 0-3 1-2l1 2-1 2v2-1zm1-1h1v1l-1-1zm243 0-2-2h-4 2c2-1 3-1 5 1 1 3 1 3-1 1zm-199 0-2-3-1-2 2 1 1 1v2h1v-1 2h-1zm4-1v-3 3zm241 1c0-1 0-1 0 0v1-1zm-107-2 1-3v2c0 4-1 4-1 1zm67 1v-1 2-1zm65-1-1-2c0-2 1-2 1-1v1l1 2v2l-1-2zm2 1v-3l1 2v2l-1-1zm-312-1v-1 2-1zm109 1v-2c-1-1-1-1 0 0l1 2h-1zm131-1v-2c1 0 2 3 1 4l-1-2zm106 0h1l1 1c0 1-1 1-2-1zm3 1v-3c0-1 0-1 0 0h-1c-1-1 1-2 2-1v3l-1 1zm-243-2-3-1-9-1h6c4 0 5 1 7 2l1 1-2-1zm7 1 1-2c1-2 1-2 0 0l-1 2zm57-1c-1-2-2-3 0-3l2 2-1-1v2c2 2 2 2-1 0zm115 0-1-1h-2l1-1c1 0 4 2 3 3l-1-1zm-140-1c-1-1-1-1 0 0l1 1-1-1zm85 1 8-2c1 1 0 1-2 1l-5 1h-1zm-98 0 2-2h1l-1 1-2 1zm166-1 4-1h-1c-1 1 0 1 3 1h2-8zm31 0h-4l-4-1h8c2 1 2 2 1 2l-1-1zm7 0 2-1-1 1h-1zm-229-1c-1 0-1 0 0 0h1l-1 1v-1zm10 0h2c1 0 1 0 0 0h-2zm-16-1h3-3zm116-48c1-1 0-2-4-4-8-4-8-4-16-3-12 3-22 4-36 4h-13l15-1c16 0 20-1 32-3l9-2 16 7c0 2 2 1 2 0l-18-9-11 2-16 3h-36l-6-1h5l19 1c15 0 22-1 34-5 8-2 9-2 16 1l10 4c5 3 6 4 2 6h-4zm-74-4h3-3zm-5-1h2-2zm-4-1h2l-1 1-1-1zm-4 0h2-2zm-3-1h2-2zm101 0-5-2c-6-2-5-3 1-1l5 3h-1zm-104-1h2l-1 1-1-1zm8 0h2-2zm-12-1-1-1 3 1v1l-2-1zm7 0h-1 4v1l-3-1zm-6-1v-1l2 1h1-3zm-11-2-5-6 2 2 4 3 2 2-3-1zm4-1c-5-1-7-4-8-9a139 139 0 0 0-3-15l4 13c1 7 2 9 9 11l3 2-5-2zm102 1h1c1 1 0 1-1 1v-1zm9-1 1-2v2h-1zm-19-3-1-4v-2l1 3 1 4 1 1-2-2zm-86 0-7-2-1-6c0-9 1-12 3-9l-1 5c-3 6-2 9 4 10 8 2 10 1 6-4a530 530 0 0 1-5-9c3 0 7 1 6 3l3 5c6 6 6 7 5 8s-7 0-13-1zm103-4-2-3c1 4 1 4-3 5l-6 1c-3-2-2-4 2-9 3-5 3-5 4-4l1 1a155 155 0 0 1-3-7l-1-1a3236 3236 0 0 0 7 17zm-41 2-12-5-3-2h4l4-1 13-4c1 0 0 0 0 0l-3 1-5 2-4 1 4 2c5 3 16 4 19 1l2-5c2-5 2-5 1-6l-4 1-1 1v2h-3v-1h-2c-3 0-2 0 3-2l8-2 1 1-1 5c-2 6-3 9-5 10l-16 1zm-78-3v-3l1 2c1 3 0 4-1 1zm102-2 1-3v2l-1 1zm-141-3-3-7c-3-8-2-7 1 0 3 6 3 6 3 4l-3-8-4-7 4 5c3 5 4 6 4 9s-1 5-2 5v-1zm38 0-5-12-1-1 1-3 4 3h-2c-2-3-2-2 0 2l4 12-1-1zm104-1 1-2 1-1-1 2-1 1zm54-4c1-1 1-2-1-6l-3-7v-2l1 2 3 6 3 5v1c2 0 3-2 3-3l4-5 4-4h-3l-5 1c-6 2-8 0-10-10-1-6-19-53-22-57-4-6-12-9-30-10h-6c8 0 14-1 14-2l-12-4-10-4c-6-3-12-8-10-8l2-1h8l1 1c-1 1 5 5 7 5 4 0 9-1 11-3s3-3 4-9v2c0 8-3 10-12 11-4 1-7 0-12-4-2-3-5-4-4-3l-1 1c-2 0 2 4 8 7 5 2 7 3 12 3 10 0 12-2 11-13v-8l3 21 4 7 7 1c7 2 10 2 31 2l23 1-3 10c-4 11-10 24-17 35l-6 8 1 8c0 7 1 11 3 11l6-3 6-3 4-1h2l-5 8c0 3-11 15-13 15l-1-2zm-50-5 2-4-3 8 1-4zm-155-9c0-2 0-2 1-1v2l-1-1zm2-1v-1l1 2-1-1zm198-2h1v1l-1-1zm-201-1c-1-1-1-2 0 0l1 1-1-1zm1-3-3-8a488 488 0 0 0-20-28c3 4 10 11 13 12l7 2h5l-1 4c-2 4-2 8-1 16l1 6-1-4zm199-1c-2-5-19-48-21-50-2-4-8-9-13-11-7-3-16-3-43-3-30 0-29 0-30-11-1-6-2-9-4-10-2 0-2-1-1-1 2-2 11 0 10 3l-1 7c0 7 0 8 3 9 2 0 1 0 0 0-3 0-4-1-4-9v-8l-2-1h-3c2 1 3 4 3 10 1 10-2 9 33 10 25 0 32 1 35 2 9 2 15 6 18 13a1184 1184 0 0 1 20 50zm-206-6zm12-30c-4-3-7-6-6-7l2 1 6 3c5 2 5 2 7 1l3-4a6732 6732 0 0 0 50-120l6-9 2-4h-2c-3 0-5 1-4 2l-3 9a158 158 0 0 0-11 26c-1 1-2 3 4-15 8-20 8-19 3-17h-1l12-6 2 1c1 1-1 5-7 14a6689 6689 0 0 1-30 71c-23 54-24 56-28 56l-5-2zm-22-3c-3-1-5-2-6-4l2 1c2 2 4 2 7 3h6l2-2c0-2 1-2 1-1l-1 3c-1 1-1 2-4 1l-7-1zm249-2 2-13a84 84 0 0 0 1-13v21c1 1 2 0 8-5l6-7h1c1 1 0 6-1 9-2 2-3 3-2 1s0-1-7 5-8 6-8 2zm-259 2 1-2h1v2l-1-1c0-1 0-1 0 0l-1 1zm34-4c-4-2-6-4-6-5l-1 1-1 3v-3l2-5 1 1v3c2 2 10 6 12 5l3-5 3-4-3 6c-3 5-4 6-10 3zm-16-4 1-2c0-2 1-2 1 0l-1 2h-1zm-10-4-1-5-1-5 3-2c4-2 5-3 5-1v-12l1 7 4 16h-1c-1-2-2-2-2-1 1 2-2 5-4 5l-4-2zm-12-3c0-1 0-1 0 0v1-1zm51 1v-2h1l-1 2zm-51-4h1v1l-1-1zm52 0 1-2h1l-1 2h-1zm-52-3c0-1 0-1 0 0v1-1zm-2 0 1-1v1h-1zm56-1zm-55-3v-1 2-1zm-1-1c0-1 0-1 0 0v1-1zm4 0c0-1 0-1 0 0v1-1zm-4-3 1-1v2l-1-1zm-1-2c0-1 0-1 0 0v1-1zm4 0h1v1c-1 1-1 0-1-1zm264-1v-2 3-1zm5-1c0-2 11-13 13-13 2-1 2-2 0-2l-1-1h2l1 7c0 5 0 6-1 4 0-3-1-4-1-2s-8 8-11 8l-2-1zm13 0 1-2c1 1 0 3-1 3v-1zm-285-2v-1 2-1zm3-2v-1 3-2zm-5 0v-1 2-1zm214 0c-5-2-9-6-11-9l3 2c3 4 11 8 14 8 4 0 6-2 6-7l2-4v5l-2 6c-3 2-7 2-12-1zm55 1c0-2 8-12 9-12l-2 3-5 6-2 3zm-248-3-1-6v-2l2 10-1-2zm-20-11v-4a106 106 0 0 1 0 4zm65 9v-2h1l-1 2zm-66-10v-4 8-4zm67 6zm154-1v-2c0-1 0-1 0 0l1 1-1 1zm-12-3c-3-2-5-8-17-34a455 455 0 0 0-14-35l9-4a1224 1224 0 0 1 1-4 3221 3221 0 0 1 29 73c1 1 0 2-1 4-2 3-4 3-7 0zm75 1 1-1v1l-1 1v-1zm-85-5c0-2 0-3 1-1v1h-1zm-194-3v-2 4-2zm187-1 1-1v2l-1-1zm2-2s0-1 0 0v1-1zm-189-3c0-1 0-2 1-1v2c-1 1-1 1-1-1zm187 1c0-1 0-1 0 0v1-1zm-192-4v-1 3-2zm2 0v-1 3-2zm189 1c0-1 0-1 0 0v1-1zm1 0h1v1l-1-1zm-186-4c1-7 7-21 9-21l4 5c3 6 3 7 4 6v6l-2 1c0-2-7-11-7-11-2 0-5 5-6 12-2 4-2 5-2 2zm183 0 1-2h1l-1 2h-1zm-187-2c0-1 0-2 1-1v2c-1 1-1 0-1-1zm-1-1v-1 2-1zm77-1zm110 0 1-1v-1 2h-1zm-185-2v-1 2-1zm-1-1v-1 2-1zm2-3v-1 2-1zm182 1v-2h1l-1 2s0 1 0 0zm-184-2h1v1l-1-1zm2-2 1-1v2l-1-1zm180 0 1-1v1h-1zm-181-2s0-1 0 0v1-1zm181 0 1-1-1 1c0 1 0 1 0 0zm-179-1 1-2v-1 3h-1zm-1-2s0-1 0 0v1-1zm178 1 1-2v-1 2l-1 1zm-178-3 10-24c10-21 22-36 45-57 12-12 19-19 19-21l-6 2c-6 3-7 3-3 0 10-6 33-13 40-12 2 0-5 2-11 2l-12 4h1v1c-1 3-7 8-19 19-7 5-17 13-21 18a154 154 0 0 0-43 68zm3-2a149 149 0 0 1 38-61c10-9 19-16 36-27l24-18c3-3 6-4 12-4l3-1-3 3-21 14-16 11 11-3a127 127 0 0 1 29-6c-17 2-35 10-48 20-6 4-15 14-19 20s-6 11-6 16l-5 10V78c2-7 7-16 17-30l2-3c-1-1-8 5-15 10a139 139 0 0 0-39 59zm272 0h-1c-1 1-3 0-3-1l-6-5-6-5 13 10h2l-3-3-3-2 7 5c2 1 2 2 1 2l-1-1zm-99-1 1-1v-1 2h-1zm-2-4 1-1v1h-1zm102-1-1-1 2 2-1-1zm-102-1 1-1v1h-1zm96-2-4-3 4 2 3 2-3-1zm-8-1-2-2 2 2 3 1c0 1-1 1-3-1zm-90 0 1-1v1h-1zm102-2v-1a200 200 0 0 0-39-60 154 154 0 0 1 41 61c0 2-2 2-2 0zm-102 0 1-1-1 1c0 1 0 1 0 0zm85 0-1-3c-1 0 0 0 0 0l1 2 1 1v1l-1-1zm-87-3v-2c0 1 0 0 0 0h1v2h-1zm82-1-1-2v-1l-2-1-1-1c-1 0-1 0 0 0v-1l3 2 3 4c0 2 0 1-2 0zm9-2c-2-1-3-2-6-8l-19-29c-4-4-6-8-5-8 0-1 5 0 11 3 5 3 8 5 15 16 5 8 15 26 14 27l-10-1zm-93-2h1v1l-1-1zm-2-3v-1a1 1 0 0 1 1 2l-1-1zm80-1-1-1 2 1v2l-1-2zm-147-2c0-2 1-2 1-1 1 2 1 2 11-3 7-4 8-4 8-3l-3 2-9 4c-6 4-8 4-8 1zm66 2v-2c-1-1 0-1 0 0l1 1-1 1zm81-2-1-2 2 2v1l-1-1zm-2-1-1-2 1 2 1 1-1-1zm-82-2-1-2 1 3v-1zm80-4a138 138 0 0 0-15-19 112 112 0 0 1 15 19zm-79-1-3-12 2 1 1 4 1 8c2 4 1 4-1-1zm-120 0 7-6 6-5c1-2 1-3-1-1l2-7c4-9 18-21 32-28 11-6 28-10 36-10 3 0 2 0-2 1-11 1-25 5-35 11-14 8-26 20-26 27l4-2 5-3-6 5a509 509 0 0 0-22 18zm115 1v-1l1 1h-1zm-50-2c0-2 14-14 15-12l3-2h-3c-2 0-2 0-1-1 2-1 4-1 4 1l-3 7-7 4c-7 4-8 5-8 3zm130-1-1-2 2 2 1 2-2-2zm-81 0h-1l-1-1h1l-1-1-6-6c-4-5-4-5-8-5l-5-1 4-1c7 1 10 2 15 10l3 6-1-1zm-5-7c-2-4-6-7-8-7l2 2 5 5c4 5 5 5 1 0zm-32 5 1-2c2 0 2 0 1 1l-2 1zm54-1c-1-1-1-1 1-1l3 1 2 1h-2l-4-1zm58-5zm-125 4 2-1c1-1 1-1 0 0l-2 1zm132-2v-1c2 1 2 2 1 2l-1-1zm-126-4 3-3-3 3-3 3zm124 1c-1-1-1-1 0 0l1 1-1-1zm-3-4-2-2 2 2 1 1-1-1zm-8-9-5-4 5 4 5 5-5-5zm-8-7-2-2 2 2 2 2-2-2zm-14-3c-3-3-3-3-1-2l4 3-3-1zm10 0h1l1 2-2-2zm-3-2h1l1 1-2-1zm-12-2c-2-1-2-1 0 0l2 1-2-1zm0-1c-3-2-3-3 0-1l2 1h-2zm-8-3-3-2 8 4-5-2zm11 0c-2-1-2-1 0-1l2 1h-2zm-9-1-1-1 2 1h-1zm32-3-4-2-10-7c2 0 16 9 18 11 1 2 1 2-4-2zm-33-1-6-4 12 6-6-2zm-9 1s-1 0 0 0h2v1l-2-1zm2-1-1-1 2 1 1 1-2-1zm-5-2s-1 0 0 0h2v1l-2-1zm-8-1-1-1 3 1c3 2 2 2-2 0zm11-1-14-5-14-7 13-5 5-2c-2-1-2-1 0-1 3 0 7 1 9 3 1 1 1 1-6 3-9 3-11 3-10 5l10 5 9 4h-2zm-17-1h1l-1 1v-1zm-3-1h1l-1 1v-1zm5 0h2l-1 1-1-1zm-8 0h1-1c-1 0-1 0 0 0zm-3-1h1-1c-1 0-1 0 0 0zm-4-1h2l-1 1-1-1zm7 0h2l-1 1-1-1zm-11-1h2l-1 1c-1 0-2 0-1-1zm8 0h1l-1 1v-1zm-13 0h2-2zm9 0h2-2zm-16-1h3-3zm12 0h2-2zm-5-1h2l-1 1-1-1zm-6 0h3-3zm-14-1h6-6z" style="fill:#9f6c06;fill-rule:evenodd"/><path d="m127 467-2-3 1 1 2 1 2 4-3-3zm141 0-1-3h1l2 3v1l-2-1zm-58-5-3-12v-1l5 15c0 4-1 2-2-2zm-181 2-1-2 1 1v1zm94-2-1-2 1 2 1 1-1-1zm-4-5-2-3 1 1h1c1 0 2 1 2 3l1 1v1l-3-3zm146 2 1-1v2l-1-1zm-81-4c-2-3-2-4-2-9 1-8 2-10 4-10l-1 4c-2 5-3 10-1 15l2 4-2-4zm-158 0v-1 2-1zm187-1-2-2 2 2 2 1-2-1zm-188-3v-1 3-2zm189 0c-2-1-2-2-3-9v-3c2 0 2 3 2 6 0 4 1 6 2 4h1c2 3 1 4-2 2zm-91 0 1-2h1l5-4 1-1c0 2-1 3-4 6-3 2-4 2-4 1zm140-3h1v2l-1-2zm-239-2 1-2v4l-1-2zm181 1h1v1l-1-1zm156 0 3-1 3 1h-6zm-250-2v-1 2-1zm151-1h1v1l-1-1zm-55-4-1-4v1l2 4 1 3-2-4zm141 2-1-5c-2-2-1-3 0-1l1 5v1zm12 1 1-4 1-2 1-1c2 0 3 2 1 2l-3 3 3 1 3-1 1-1 1 2-3 1-4 1-2-1zm-236-1 1-3v-1c0-2 4-2 4 0v1c-1-1-3 2-4 4l-1-1zm-14-3-1-3c1-1 2 3 2 5l-1-2zm152 1v-1l1 1-1 1v-1zm3-2h1v1l-1-1zm-4-1v-1l1 1v1l-1-1zm33-35-5-3-6-11 1 2c4 7 6 9 15 13v1l-5-2zm-125 0h1c1 1 0 1-1 1v-1zm-16-2c-2-2-5-8-4-10l1 3c2 5 3 7 6 8v1l-3-2zm56 1c-2-3-3-5-3-9l2-10v4c-2 5-1 11 1 14l2 2-2-1zm147-1-4-8c-1-8-1-9 1-2 1 5 2 7 4 9 3 4 2 4-1 1zm28 2-3-1-2-1h2l3 1v1zm-373-2v-4l1 2c0 4 0 4-1 2zm44-1-3-4c-1-2-2-2-1 0l4 3 2 3-2-2zm121 2 2-1 2-1h1l2 1 1 1h-8zm75-3-5-8-2-4 8 12c2 4 1 4-1 0zm-153-2a117 117 0 0 0-4-8l6 9c1 2 0 2-2-1zm289 1v-2l1 1c0 1 0 2-1 1zm-376-3 1-1v2l-1-1zm42-2-1-2 1 2 2 1-2-1zm-5-2-1-3 2 3 1 3-2-3zm2-1c-1-2-1-2 1-1l1 2-2-1zm201 0c-3-2-3-2 0-1l2 1h-2zm-201-4-3-5-4-9c-4-7-4-8-5-14 0-6 1-7 2-2l-1 2c-1 0 0 6 4 13l5 9 2 3 1 1 3 6-4-4zm98 2c0-1 0-2 1-1v2l-1-1zm-52-2a168 168 0 0 1-11-23c-2-5-3-11-2-13l1-2 1-1v2c-1 1-2 2-2 5l1 3v2h1l1 2 4 10a240 240 0 0 0 6 15zm55-1-1-2 1 1v2-1zm102 1h-2c-3 0-6-2-9-7-3-4-3-6 1-1l6 6c2 0 4-2 4-4l1 3-1 3zm33 0v-9 9zm69 0v-4 4zm-114-2c-1-1-1-1 0 0 2 1 2 2 1 2l-1-2zm-94 0 1-1v1h-1zm134-2s0-1 0 0v1-1zm-43-1h1l1 1-2-1zm113 0c0-1 0-2 1-1v2l-1-1zm-203-2c0-1 0-2 1-1v2c-1 1-1 1-1-1zm88-1c-1-1-1-1 0 0l2 1-2-1zm44-4v-3 6-3zm72 1-1-8 1 4v4zm-312 0-1-2 1 2c2 3 1 4 0 0zm193 0-1-2 2 2c2 2 2 2-1 0zm-81-1-1-2 1 2c1 2 1 2 0 0zm18 1v-1l2 1h-2zm-22-5c0-3 0-5 1-3v5c-1 2-1 1-1-2zm87 2-1-2 2 2 1 2-2-2zm-82 0v-3 2l2 2c1 0 1 0 0 0l-2-1zm72-2-1-1 5 4h1l-5-3zm132 2v-2c0-2 0-2 0 0l1 3h1l-2-1zm12 1 3-3 2-1c1 1-2 3-4 4h-1zm-200-2 2-1-1 1-2 2 1-2zm206 0 1-2 1 2-1 1-1-1zm-125-1c0-1 0-2 2-2s3 0 2 2h-1l-2 1c-1 1-1 1-1-1zm104-1c0-1 0-2 1-1v3c-1 1-1 0-1-2zm-129-3c-5-5-7-9-5-12v-3l6 7-1-1h-3c-2 1-1 3 2 7 3 3 6 4 6 1l-1-2 2 1 2 2v1h-2c0 2-3 1-6-1zm-74 0v-1 2-1zm132 0-1-3 1 1 1 3-1-1zm-201-1c0-2 0-2 1-1v2l-1-1zm169 0 1-1 1 1-1 1-1-1zm29 0v-1 1c0 1 0 1 0 0zm75-2c-1-5-1-13 2-16h8-3c-5 0-5 0-5 10v8l-2-2zm-208 0 1-1v2l-1-1zm204-1v-1 2-1zm-199 0-1-11c1-4 6-6 10-5 2 1 2 1-1 1l-6 1-1 9v6l-1-1zm67 0h1l1 1-2-1zm102-5-1-9-1-2 2 2 1 8v7l-1-6zm-42 4 1-1v2l-1-1zm7 1-1-1c-3 0-3-7-1-11 2-3 2-4 4-4l1 1-1 1c-3 0-6 8-4 10l2-1 1 2-1 3zm-71-2-1-2 2 2 1 2-2-2zm-183-4-2-7h1c1 1 4 11 3 12l-2-5zm115 3c0-1 0-1 0 0v1-1zm203 0c0-1 0-1 0 0v1-1zm-314-4v-2 4-2zm242 0-3-5c-1-2-2-2-4-2h-2l4-1c2 0 3 0 4 3l2 9-1-4zm-129-1v-3 5-2zm63 2-3-6c-3-4-3-5-1-3l6 11-2-2zm38-2v-6c-2-2-1-2 1-1v10c-1 1-1 0-1-3zm-105 0-2-5c-1-2-2-2-6-3h-5 5c6 0 8 1 9 7v4l-1-3zm203 0-2-6c-2-1-3-2-6-1-3 0-4 0-3-1 3-1 6 0 9 1 1 0 2 1 3 5l1 5-2-3zm4 0v-2 4-2zm-136 1s0-1 0 0v1-1zm-140-4-1-4 4 9-3-5zm205 3v-2 3-1zm-201 0h1v1l-1-1zm39-3-1-4 2 1 2 4c-1 3-2 2-3-1zm96 0 1-4v3c-1 4-1 5-1 1zm168-2-1-2 1 2 2 2-2-2zm-102 0 1-1v1h-1zm72 0v-2l1 1-1 1zm-97-54-16-7-9 2c-17 3-37 4-53 2-10-1-24-5-30-7-4-2-6-4-8-13a71 71 0 0 0-6-16l2 2c3 2 4 6 6 15l2 8c2 2 6 4 16 6 22 6 46 6 69 1l11-2 18 9c0 1-2 2-2 0zm1-8-5-2h-2c1-1 12 2 12 2h-5zm-12-4c-2-1-4-4-3-5l1 2 4 3 2 1-4-1zm15-1h-6c-10 0-11-3-5-13l3-7v-1l2 2a154 154 0 0 0 0 4c-1-1-1-1-4 4-4 5-5 7-2 9l6-1c4-1 4-1 3-5l2 3c3 5 3 6 2 6l-1-1zm-107-3c-3 0-5-3-5-5l2-5c1-3 1-3 3-3l2 1 4 6c2 2 4 5 3 6h-9zm89-3v-1 2-1zm-18 0-8-3-4-2 4-1 5-2 5-2h4v1h3v-2l1-1 4-1c1 1 1 1-1 6l-2 5c-1 2-6 2-11 2zm19-5 7-13-3 7-4 6zM98 260l-7-13-6-11-19-31a139 139 0 0 1-9-52c0-13 1-17 2-24a156 156 0 0 1 66-99c12-11 18-16 19-19v-1h-1l11-3 7-1 6-1h-1l-3 3-25 18c-17 11-26 18-36 27-13 14-23 27-30 42-15 31-18 65-8 99 2 10 4 15 9 21a467 467 0 0 1 20 31c1 4 3 9 6 13l3 8-4-7zm202 3-3-5-5-12c-2-7-17-46-21-53-3-7-9-11-18-13-3-1-10-2-35-2-35-1-32 0-33-10 0-6-1-9-3-10h3l2 1v8l1 9h29c30 0 39 1 45 3 8 3 8 4 20 32a442 442 0 0 1 13 37c1 4 3 6 5 5l7-1h4l-4 4-4 5c0 1-1 3-3 3v-1zM99 204c-6-2-8-4-7-8 0-2 0-2 1-1 0 2 2 4 7 5 5 2 6 2 8 0a4752 4752 0 0 0 53-130c-1-1 1-2 4-2h2l-2 4-6 9-8 16a7579 7579 0 0 1-47 109l-5-2zm-22 0-6-3-4-7 2 3c2 4 6 6 11 6 3 0 4-1 5-2 0-2 0-2 0 0l-2 4-6-1zm250-8v-20l-1-2 2 1 1 5c0 4 1 6 2 6s4-2 6-5l6-5-1 5c-1 4-1 5-6 10-7 6-8 7-9 5zm-255-1c-3-3-6-18-5-25 1-4 3-4 6-1s5 2 4-2c0-5 1-2 2 4v8c0-2-1-1-5 1l-3 2 1 5c0 5 2 7 5 7 2 0 5-3 4-5 0-1 1-1 1 1 2 1 3 6 1 4l-2 1c-2 2-7 2-9 0zm-6-4v-2l1 2v2l-1-2zm-1-6v-3 3l1 3-1-3zm-1-5v-1 2-1zm-1-5v-1 3-2zm266-4c0-2 1-3 7-9l8-6c2 0 2 1 0 2l-7 6c-7 6-8 8-4 8s11-5 11-8c0-2 0-2 1-1 1 2 0 6-1 7-1 0-3 0-5 2l-7 1c-2 0-3 0-3-2zm-267-2 1-2v4c-1 1-1 0-1-2zm264 1c0-3 8-13 10-13l-3 4-5 7-2 2zm-87-2c-4-1-6-1-11-4s-9-6-7-6l1-1c-1-1 2 0 4 3 5 4 8 5 12 4 10-1 12-4 12-12 0-7-1-12-11-34-10-25-10-26-16-33 6 7 7 9 17 31 10 24 12 32 12 41 0 6-1 9-3 10l-10 1zm32-1-6-5c-3-2-8-9-8-11l2 3c3 5 7 9 12 11 6 3 10 2 11-4 0-3 1-4 1 0 0 3-1 6-3 7-3 1-4 1-9-1zm-210-8c0-11 3-27 7-34l3-3 4 5c3 5 4 8 3 12-1 1-1 0-4-3-4-5-5-6-6-4-3 2-5 12-6 25 0 8 0 8-1 2zm208 1c-6-3-7-6-21-39a469 469 0 0 0-16-36l5-6c2-1 2-2 1-3h1c3 0 6 4 8 10l5 11a1241 1241 0 0 1-8-15l-9 4a455 455 0 0 1 15 34c11 27 13 33 16 35 3 3 5 3 7 0 1-2 2-3 1-4l-1-2 2 2 2 3v3l-2 2c-1 2-3 3-6 1zm-13-11c0-2 0-2 1-1v2l-1-1zm-1-4c-1-1-1-2 0 0l1 1-1-1zm-2-3c0-2 0-3 1-1v2l-1-1zm-6-16v-1l1 2-1-1zm-2-5v-1 2-1zm-3-5c0-2 0-3 1-1v1h-1zm84-9c-14-11-15-11-20-19a135 135 0 0 0-63-55c-23-9-50-13-68-9-19 4-36 13-48 25-6 6-7 8-9 12l-2 7c2-2 2-1 1 1l-7 5-4 4-3 4 1-5c0-6 3-11 8-18 17-22 43-36 72-37 27-2 63 8 86 25 13 9 28 26 37 42 4 6 7 8 20 18l9 7v1l-10-8zm5-3c-6-3-6-4 1 0l5 3-6-3zm3-3-6-2c-8-2-9-3-15-14-7-12-15-22-24-32-10-10-12-13-12-14h13l-4-4-4-3c1-1 11 7 18 14a171 171 0 0 1 34 55zm-2-4c1-1-9-19-14-27-7-11-10-13-15-16-6-3-11-4-11-3a260 260 0 0 1 24 37c3 6 4 7 6 8l10 1zm-17-2-1-2 2 2 2 2-3-2zm-3-6-1-2 1 2 1 2-1-2zm-151-1 1-3c0-1 1-1 0 0 0 3 2 2 10-2l7-3-16 9-2-1zm67-1c-3-5-6-16-3-16s3 1 2 3c-2 3-1 6 1 10 1 4 2 4 0 3zm80-4v-1l1 1v2l-1-2zm-142-1c0-2 11-13 15-15l3-2 1-1 2 1-3 2c-1-2-15 10-15 12s1 1 8-3c6-5 7-5 7-4l-2 2-6 3c-6 5-10 6-10 5zm0-3 1-2v1l-1 1zm137-3-1-3c2 1 4 6 4 6l-3-3zm-134-2 1-1v1l-2 2 1-2zm4-5 4-3-3 3-4 4zm127 2c-1-1-1-1 0 0l1 1-1-1zm-6-8c-14-16-30-27-55-37-11-5-13-6-12-8l17-5 6 2c4 2 4 2 2 3l-5 1c-10 3-10 3 6 12a140 140 0 0 1 44 35c4 5 2 4-3-3z" style="fill:#724d02;fill-rule:evenodd"/><path d="m213 453-3-5-2-7c-2-4-2-5 1-3 2 2 2 3 2 6 0 4 1 7 3 7l2 2c0 2-1 2-3 0zm149-8 3-2c3 0 3 0 2 2s-5 2-5 0zm-238-7h1v1l-1-1zm236 0v-2l1 2h-1zm27-43 1-2v1c0 3 0 3-1 1zm-337-8-8-14c-5-10-5-10-5-17v-5l1 7c1 5 1 6 5 13l4 9 3 4 4 8-4-5zm197-1-8-9c-4-7-5-8-7-8-6 0-16-11-16-18 0-4 0-4 3-2 1 2 2 3 1 4-2 3 0 7 5 12 3 2 5 3 6 2s7 5 12 12c3 4 5 6 8 6 2-1 2-1 2 1 0 3-1 3-6 0zm-152-1-11-23c-4-9-5-15-1-15v1c-1 3-1 9 2 14a191 191 0 0 1 10 23zm189 0c-1-3-2-14-1-17v-5c-1-3-2-12-1-15l2-2h2l-2 3c-2 4-2 11 1 11l1 13-1 14-1-2zm71-2v-1 2-1zm-204 0v-1 1c0 1 0 1 0 0zm1-11v-6 3l1 4v1l-1-2zm16 1 2-3 2-2v3c0 2 0 2-2 2h-2zm202 0 3-2 2-3v3c0 3 0 3-2 3l-3-1zm-15-1v-4l-1-6c-1-4-2-12-1-14s4-2 3-1c-2 4-2 9-1 12l1 7v7l-1-1zm-104-6c0-2 2-2 2 0l-1 1-1-1zm-101-5v-14l3-1v1c-2 1-2 4-2 10v7l-1-3zm233-13 1-1 1 1-1 1-1-1zm-128-64c-8-2-11-3-12-5-1-3 0-6 4-15l3-7 1 2c1 3 1 3-2 9-6 10-5 13 5 13l7 1c1 4 1 4-6 2zM73 201c-3-1-5-5-7-14-3-11-3-17-3-28 0-13 2-24 5-27 1-2 2-1 6 4l3 3v16l-1 16-3-2c-3-3-5-3-6 1-1 7 2 22 5 25 2 2 7 2 9 0l2-1 1 3c1 4 1 5-4 5-2 1-5 0-7-1zm257-17-1-4-1-5-2-3c1-2 3-7 7-11 3-4 4-4 6-4h3l-6 6c-6 5-7 6-7 8s0 2 3 2 5 0 7-2l5-2-1 3c0 2-1 4-5 8l-7 6-1-2zm-59-19c-7-3-11-8-16-21a737 737 0 0 0-29-67l2-4c1-1 1-1 6 1l5 3-2 2-5 6 3 7a518 518 0 0 1 27 60c3 5 6 8 10 9 2 0 2 0 3-2s2-2 3-1h2c2 0 2 1 1 5s-4 5-10 2zm56-64c-9-4-12-6-14-10a140 140 0 0 0-60-60c-17-9-17-9-5-12l7-2 8 4 24 15 3 3h-13c0 1 2 4 12 14 9 10 17 20 24 32 6 11 7 12 16 14 5 1 5 1 6 4l1 2-9-4zM162 86l6-10c6-8 9-10 13-11h3l-4 2c-5 3-15 14-14 15s4 0 9-4l6-4v3l-9 6c-7 4-9 4-10 3z" style="fill:#513601;fill-rule:evenodd"/></svg>