<svg width="30" height="30" viewBox="0 0 30 30" fill="none" xmlns="http://www.w3.org/2000/svg">
<circle cx="15" cy="15" r="15" fill="white"/>
<mask id="mask0" mask-type="alpha" maskUnits="userSpaceOnUse" x="1" y="1" width="28" height="28">
<path fill-rule="evenodd" clip-rule="evenodd" d="M11.6254 1.64857L22.5128 7.91809C23.0042 8.2618 22.9066 9.05546 22.1283 8.67855C21.21 8.23381 19.7595 7.35039 19.1614 6.99369L16.2052 5.28588C15.0382 4.61172 14.4657 5.70921 15.6078 6.3716L19.4039 8.57339C19.9206 8.87303 20.0135 9.27557 19.2603 9.4739L9.95719 11.9237C9.76229 11.5864 9.55723 10.759 9.0586 11.2493L7.30405 12.9745C6.57798 13.9107 7.11808 14.0426 8.90151 13.5121L24.0578 9.53715C24.8074 9.28388 25.147 10.2399 24.2822 10.4152C23.7166 10.5298 23.307 10.573 23.3013 11.1293L23.228 18.2516L20.6573 18.9757L20.6907 12.0433C20.5807 11.1693 19.653 11.2832 19.5379 12.2976L19.5699 19.2819L17.5385 19.8511L17.5492 14.2023C17.5492 13.569 16.8471 13.4178 16.5479 13.85C16.4904 13.9331 16.4472 14.1446 16.4153 14.4424L16.3705 20.1286L14.4267 20.6816L14.3737 16.3142C14.3648 15.5749 13.3443 15.8261 13.3443 16.4567L13.3841 20.9445L11.2577 21.5281V18.6352C11.2577 17.8034 10.1254 17.9262 10.1254 18.6202C10.0824 19.5088 10.1399 20.9074 10.1399 21.8218C9.93705 21.9196 7.93132 22.5297 7.67485 22.5297C7.47084 22.5297 2.79221 19.9027 2.08599 19.4721C0.877801 18.7064 0.747536 19.8028 1.42922 20.2039L6.02665 22.9098C7.44831 23.7604 7.18443 23.7905 8.96294 23.3479L23.674 19.2799C24.963 18.8775 25.104 19.8385 24.0652 20.0417C23.2812 20.1951 22.2981 20.506 21.6502 20.6964C18.0818 21.7451 11.5935 23.5671 7.85624 24.4993C7.15627 24.6739 7.11207 24.5084 6.50399 24.1276L1.8825 21.5017C1.35003 21.1926 0.439844 21.8212 1.59901 22.5021L3.47576 23.6122C4.46304 24.1994 5.31289 24.6502 6.25673 25.2205C7.0492 25.6994 7.29241 25.7266 8.2509 25.4848L25.4586 20.6781C25.9896 20.5298 26.4161 21.1915 25.7178 21.4684L11.7574 25.3107C7.16763 26.453 7.41303 26.8607 6.24179 26.1772L1.88336 23.6338C1.3622 23.3297 1.02372 23.5171 1.02372 23.8427L1 28.0866C1 28.6065 1.11933 29 1.63701 29L28.2993 28.9964C28.8981 28.9964 29 28.9652 29 28.3379V1.78983C29 1.0588 28.8086 1 28.354 1L12.1606 1.04036C11.5586 1.04036 11.16 1.38061 11.6254 1.64857Z" fill="#0B3267"/>
</mask>
<g mask="url(#mask0)">
<circle cx="15" cy="15" r="13" fill="#395B89"/>
</g>
</svg>
