<svg width="28" height="28" viewBox="0 0 28 28" fill="none" xmlns="http://www.w3.org/2000/svg">
<mask id="mask0" mask-type="alpha" maskUnits="userSpaceOnUse" x="0" y="0" width="28" height="28">
<path fill-rule="evenodd" clip-rule="evenodd" d="M10.6254 0.648574L21.5128 6.91809C22.0042 7.2618 21.9066 8.05546 21.1283 7.67855C20.21 7.23381 18.7595 6.35039 18.1614 5.99369L15.2052 4.28588C14.0382 3.61172 13.4657 4.70921 14.6078 5.3716L18.4039 7.57339C18.9206 7.87303 19.0135 8.27557 18.2603 8.4739L8.95719 10.9237C8.76229 10.5864 8.55723 9.75904 8.0586 10.2493L6.30405 11.9745C5.57798 12.9107 6.11808 13.0426 7.90151 12.5121L23.0578 8.53715C23.8074 8.28388 24.147 9.23987 23.2822 9.4152C22.7166 9.52981 22.307 9.57301 22.3013 10.1293L22.228 17.2516L19.6573 17.9757L19.6907 11.0433C19.5807 10.1693 18.653 10.2832 18.5379 11.2976L18.5699 18.2819L16.5385 18.8511L16.5492 13.2023C16.5492 12.569 15.8471 12.4178 15.5479 12.85C15.4904 12.9331 15.4472 13.1446 15.4153 13.4424L15.3705 19.1286L13.4267 19.6816L13.3737 15.3142C13.3648 14.5749 12.3443 14.8261 12.3443 15.4567L12.3841 19.9445L10.2577 20.5281V17.6352C10.2577 16.8034 9.12541 16.9262 9.12541 17.6202C9.08245 18.5088 9.13987 19.9074 9.13987 20.8218C8.93705 20.9196 6.93132 21.5297 6.67485 21.5297C6.47084 21.5297 1.79221 18.9027 1.08599 18.4721C-0.122199 17.7064 -0.252464 18.8028 0.429222 19.2039L5.02665 21.9098C6.44831 22.7604 6.18443 22.7905 7.96294 22.3479L22.674 18.2799C23.963 17.8775 24.104 18.8385 23.0652 19.0417C22.2812 19.1951 21.2981 19.506 20.6502 19.6964C17.0818 20.7451 10.5935 22.5671 6.85624 23.4993C6.15627 23.6739 6.11207 23.5084 5.50399 23.1276L0.882502 20.5017C0.350032 20.1926 -0.560156 20.8212 0.599011 21.5021L2.47576 22.6122C3.46304 23.1994 4.31289 23.6502 5.25673 24.2205C6.0492 24.6994 6.29241 24.7266 7.2509 24.4848L24.4586 19.6781C24.9896 19.5298 25.4161 20.1915 24.7178 20.4684L10.7574 24.3107C6.16763 25.453 6.41303 25.8607 5.24179 25.1772L0.883361 22.6338C0.362203 22.3297 0.0237236 22.5171 0.0237236 22.8427L0 27.0866C0 27.6065 0.119334 28 0.637007 28L27.2993 27.9964C27.8981 27.9964 28 27.9652 28 27.3379V0.789828C28 0.0587956 27.8086 0 27.354 0L11.1606 0.0403648C10.5586 0.0403648 10.16 0.380611 10.6254 0.648574Z" fill="#0B3267"/>
</mask>
<g mask="url(#mask0)">
<circle cx="14" cy="14" r="13" fill="#395B89"/>
</g>
</svg>
