<svg width="30" height="30" viewBox="0 0 30 30" fill="none" xmlns="http://www.w3.org/2000/svg">
<circle cx="15" cy="15" r="14" fill="#395B89" stroke="white" stroke-width="2"/>
<mask id="mask0" mask-type="alpha" maskUnits="userSpaceOnUse" x="0" y="0" width="30" height="30">
<circle cx="15" cy="15" r="14" fill="#395B89" stroke="white" stroke-width="2"/>
</mask>
<g mask="url(#mask0)">
<path d="M15 4C10.758 4 9 6.721 9 10C9 11.104 9.52734 12.2129 9.52734 12.2129C9.31534 12.3349 8.96669 12.7222 9.05469 13.4102C9.21869 14.6932 9.77491 15.0199 10.1289 15.0469C10.2639 16.2439 11.55 17.775 12 17.998V19.998C11.9978 20.0046 11.9925 20.0091 11.9902 20.0156C11.6595 20.0567 11.3645 20.2518 11.2148 20.5547L10.9023 21.1836C8.43429 22.5675 3 22.2243 3 27.998H13.3047L14.5 24.082L13.3613 21.998H14.9727H16.6387L15.5 24.082L16.6953 27.998H20V26.998C20 26.446 20.448 25.998 21 25.998H23C23.552 25.998 24 26.446 24 26.998V27.998H27C27 22.2243 21.5657 22.5675 19.0977 21.1836L18.7852 20.5547C18.6355 20.2518 18.3405 20.0567 18.0098 20.0156C18.0075 20.0091 18.0022 20.0046 18 19.998V17.998C18.45 17.775 19.7361 16.2439 19.8711 15.0469C20.2251 15.0199 20.7813 14.6932 20.9453 13.4102C21.0333 12.7212 20.6847 12.3349 20.4727 12.2129C20.4727 12.2129 21 11.211 21 10C21 7.572 20.047 5.5 18 5.5C18 5.5 17.289 4 15 4Z" fill="white"/>
</g>
</svg>
