<svg width="32" height="32" viewBox="0 0 32 32" fill="none" xmlns="http://www.w3.org/2000/svg">
<path opacity="0.35" d="M5.33301 13.3334C5.33301 7.44269 10.109 2.66669 15.9997 2.66669C21.8903 2.66669 26.6663 7.44269 26.6663 13.3334C26.6663 18.0854 21.2477 24.8694 18.1343 28.3734C16.9997 29.6507 14.9997 29.6507 13.865 28.3734C10.7517 24.8694 5.33301 18.0854 5.33301 13.3334Z" fill="#424C57"/>
<path d="M16 17.3333C18.2091 17.3333 20 15.5425 20 13.3333C20 11.1242 18.2091 9.33331 16 9.33331C13.7909 9.33331 12 11.1242 12 13.3333C12 15.5425 13.7909 17.3333 16 17.3333Z" fill="#424C57"/>
</svg>
