<svg width="32" height="32" viewBox="0 0 32 32" fill="none" xmlns="http://www.w3.org/2000/svg">
<path opacity="0.35" d="M25.3337 26.6666H6.66699C4.45766 26.6666 2.66699 24.876 2.66699 22.6666V9.33331C2.66699 7.12398 4.45766 5.33331 6.66699 5.33331H25.3337C27.543 5.33331 29.3337 7.12398 29.3337 9.33331V22.6666C29.3337 24.876 27.543 26.6666 25.3337 26.6666Z" fill="#424C57"/>
<path d="M29.3337 9.33333V11.9733L20.0537 17.5467C18.8003 18.2933 17.4003 18.6667 16.0003 18.6667C14.6003 18.6667 13.2003 18.2933 11.947 17.5467L2.66699 11.9733V9.33333C2.66699 8.69333 2.81366 8.09333 3.09366 7.56L14.0137 14.12C15.2403 14.8533 16.7603 14.8533 17.987 14.12L28.907 7.56C29.187 8.09333 29.3337 8.69333 29.3337 9.33333Z" fill="#424C57"/>
</svg>
