<svg width="32" height="32" viewBox="0 0 32 32" fill="none" xmlns="http://www.w3.org/2000/svg">
<path opacity="0.35" d="M4.11459 10.0267C4.41059 12.2307 5.56925 17.296 10.1373 21.864C14.7053 26.432 19.7693 27.5907 21.9746 27.8867C23.5719 28.232 25.3039 27.7934 26.5453 26.552C28.4866 24.6107 21.4546 17.5787 19.5133 19.52L18.2746 20.7587L11.2426 13.7267L12.4799 12.488C14.4213 10.5467 7.38925 3.51469 5.44792 5.45603C4.20659 6.69736 3.76792 8.42936 4.11459 10.0267Z" fill="#424C57"/>
<path d="M5.45215 5.45198L12.4828 12.4827C14.4201 10.54 14.4201 7.39598 12.4788 5.45465C10.5401 3.51598 7.39482 3.51465 5.45215 5.45198Z" fill="#424C57"/>
<path d="M19.5156 19.516L26.5463 26.5467C28.4836 24.6053 28.4836 21.46 26.5423 19.5187C24.6023 17.58 21.4583 17.5787 19.5156 19.516Z" fill="#424C57"/>
</svg>
