<svg width="25" height="30" viewBox="0 0 25 30" fill="none" xmlns="http://www.w3.org/2000/svg">
<path d="M20.5334 1.2H4.53336C2.80241 1.2 1.40002 2.60238 1.40002 4.33333V25.6667C1.40002 27.3976 2.80241 28.8 4.53336 28.8H20.5334C22.2643 28.8 23.6667 27.3976 23.6667 25.6667V4.33333C23.6667 2.60238 22.2643 1.2 20.5334 1.2ZM7.20002 17.0667C7.53094 17.0667 7.80002 17.3357 7.80002 17.6667C7.80002 17.9976 7.53094 18.2667 7.20002 18.2667C6.86911 18.2667 6.60002 17.9976 6.60002 17.6667C6.60002 17.3357 6.86911 17.0667 7.20002 17.0667ZM6.60002 12.3333C6.60002 12.0024 6.86911 11.7333 7.20002 11.7333C7.53094 11.7333 7.80002 12.0024 7.80002 12.3333C7.80002 12.6642 7.53094 12.9333 7.20002 12.9333C6.86911 12.9333 6.60002 12.6642 6.60002 12.3333ZM12.5334 23.6H7.20002C6.86911 23.6 6.60002 23.3309 6.60002 23C6.60002 22.6691 6.86911 22.4 7.20002 22.4H12.5334C12.8643 22.4 13.1334 22.6691 13.1334 23C13.1334 23.3309 12.8643 23.6 12.5334 23.6ZM12.5334 18.2667C12.2024 18.2667 11.9334 17.9976 11.9334 17.6667C11.9334 17.3357 12.2024 17.0667 12.5334 17.0667C12.8643 17.0667 13.1334 17.3357 13.1334 17.6667C13.1334 17.9976 12.8643 18.2667 12.5334 18.2667ZM12.5334 12.9333C12.2024 12.9333 11.9334 12.6642 11.9334 12.3333C11.9334 12.0024 12.2024 11.7333 12.5334 11.7333C12.8643 11.7333 13.1334 12.0024 13.1334 12.3333C13.1334 12.6642 12.8643 12.9333 12.5334 12.9333ZM17.8667 23.6C17.5358 23.6 17.2667 23.3309 17.2667 23C17.2667 22.6691 17.5358 22.4 17.8667 22.4C18.1976 22.4 18.4667 22.6691 18.4667 23C18.4667 23.3309 18.1976 23.6 17.8667 23.6ZM17.8667 18.2667C17.5358 18.2667 17.2667 17.9976 17.2667 17.6667C17.2667 17.3357 17.5358 17.0667 17.8667 17.0667C18.1976 17.0667 18.4667 17.3357 18.4667 17.6667C18.4667 17.9976 18.1976 18.2667 17.8667 18.2667ZM17.8667 12.9333C17.5358 12.9333 17.2667 12.6642 17.2667 12.3333C17.2667 12.0024 17.5358 11.7333 17.8667 11.7333C18.1976 11.7333 18.4667 12.0024 18.4667 12.3333C18.4667 12.6642 18.1976 12.9333 17.8667 12.9333ZM18.4667 7.6H6.60002V6.4H18.4667V7.6Z" fill="#395B89" stroke="white" stroke-width="2"/>
</svg>
