<svg width="28" height="30" viewBox="0 0 28 30" fill="none" xmlns="http://www.w3.org/2000/svg">
<path d="M3.98541 3.30625L3.91968 3.00286L3.91962 3.00258C3.93889 3.09154 3.96071 3.19224 3.98541 3.30625ZM3.77452 2.33198C3.77446 2.33199 3.77439 2.332 3.77433 2.33202L3.77366 2.32893L3.48625 2.3912L3.46614 2.41131C2.88505 2.59273 2.36689 2.94041 1.97773 3.41469L2.75079 4.04902L1.97773 3.41469C1.51867 3.97414 1.26743 4.67526 1.26666 5.39895V5.4V11.8C1.26666 17.7011 4.11954 21.8778 6.92177 24.5468C8.32188 25.8804 9.71932 26.8487 10.7674 27.4844C11.2923 27.8028 11.732 28.0394 12.0442 28.1979C12.2003 28.2771 12.3247 28.337 12.4121 28.3779C12.4536 28.3974 12.4868 28.4125 12.5111 28.4235C12.9682 28.6704 13.4798 28.7999 13.9999 28.8L14.0021 28.8C14.5119 28.7989 15.0135 28.6735 15.4633 28.435L15.4847 28.4254C15.5095 28.4143 15.5441 28.3985 15.5878 28.378C15.6754 28.3371 15.7999 28.2772 15.956 28.1979C16.2683 28.0394 16.7081 27.8028 17.2331 27.4844C18.2812 26.8487 19.6786 25.8804 21.0786 24.5468C23.8808 21.8778 26.7333 17.7011 26.7333 11.8V5.40051C26.7333 5.40034 26.7333 5.40017 26.7333 5.4C26.7336 4.67458 26.4821 3.97154 26.0218 3.41083L25.2608 4.03561L26.0218 3.41083C25.5633 2.85226 24.9259 2.46943 24.2175 2.32704L24.2084 2.32509L24.1615 2.31516C24.1207 2.3066 24.0612 2.29425 23.9843 2.27866C23.8305 2.24746 23.6068 2.20326 23.3237 2.15039C22.7577 2.0447 21.9529 1.90415 20.9929 1.76366C19.0781 1.48348 16.5217 1.2 14 1.2C11.4783 1.2 8.92187 1.48348 7.00712 1.76366C6.04704 1.90415 5.24232 2.0447 4.67632 2.15039C4.39322 2.20326 4.16954 2.24746 4.01569 2.27866C3.93876 2.29425 3.87926 2.3066 3.83849 2.31516L3.79155 2.32509L3.77891 2.32779L3.77536 2.32856L3.77427 2.32879L3.77391 2.32887C3.77389 2.32888 3.77387 2.32888 3.77452 2.33198ZM14.8005 12.1264L15.0274 12.7978L15.736 12.8062L18.2335 12.8358L16.23 14.327L15.6612 14.7503L15.8725 15.4272L16.6173 17.8128L14.5783 16.3675L14 15.9576L13.4217 16.3675L11.3826 17.8128L12.1275 15.4272L12.3388 14.7503L11.77 14.327L9.76653 12.8358L12.264 12.8062L12.9726 12.7978L13.1995 12.1264L14 9.75715L14.8005 12.1264ZM17.0225 19.1105C17.0225 19.1104 17.0225 19.1104 17.0224 19.1103L17.0225 19.1105ZM17.7259 18.5985C17.7261 18.5987 17.7264 18.5989 17.7266 18.599L17.7262 18.5987L17.7259 18.5985ZM10.2734 18.599C10.2737 18.5988 10.2741 18.5986 10.2744 18.5983L10.2738 18.5987L10.2734 18.599ZM13.5651 8.46994L13.5651 8.47011L13.5651 8.46994Z" fill="#395B89" stroke="white" stroke-width="2"/>
</svg>
