<svg xmlns="http://www.w3.org/2000/svg" xmlns:xlink="http://www.w3.org/1999/xlink"><defs><symbol fill="none" viewBox="0 0 50 50" id="3lcd"><path fill="currentColor" d="M40.15 50H9.85C4.417 50 0 45.582 0 40.15V9.85C0 4.417 4.418 0 9.85 0h30.3C45.583 0 50 4.418 50 9.85v30.3c0 5.432-4.418 9.85-9.85 9.85ZM9.85 1.389c-4.665 0-8.461 3.796-8.461 8.46v30.302c0 4.665 3.795 8.46 8.46 8.46h30.302c4.664 0 8.46-3.794 8.46-8.46V9.849c0-4.665-3.794-8.46-8.46-8.46H9.849Z" /><path fill="currentColor" d="M6.246 27.096H8.36v.138c0 .44.12.783.362 1.028.24.245.592.369 1.056.369.463 0 .816-.125 1.06-.375.243-.25.364-.64.364-1.167 0-.528-.14-.884-.42-1.136-.28-.253-.692-.379-1.238-.379h-.901v-1.528h.84c.467 0 .822-.121 1.063-.364.24-.243.361-.585.361-1.025 0-.44-.099-.741-.296-.957-.197-.216-.491-.324-.881-.324s-.692.107-.891.324c-.2.215-.3.527-.3.935v.11H6.433v-.103c0-.794.29-1.469.873-2.024.583-.555 1.41-.832 2.478-.832 1.07 0 1.911.255 2.458.767.545.511.82 1.118.82 1.82 0 .546-.128 1.026-.382 1.442-.255.416-.65.724-1.188.926v.028c.583.133 1.044.411 1.384.836.34.424.51.947.51 1.566 0 .94-.318 1.683-.954 2.226-.635.544-1.531.815-2.687.815-1.157 0-2.023-.274-2.612-.822-.59-.548-.885-1.263-.885-2.145v-.15l-.002.001Zm12.14-7.103H20.5v8.417h4.39v1.604h-6.504v-10.02Zm7.227 4.701c0-1.606.414-2.824 1.242-3.654.828-.83 1.908-1.246 3.239-1.246 1.262 0 2.262.33 3.001.991.739.66 1.108 1.507 1.108 2.54v.165H32.07v-.193c0-.601-.165-1.065-.496-1.39-.33-.327-.83-.49-1.5-.49s-1.235.236-1.655.706c-.42.47-.63 1.249-.63 2.337v1.087c0 1.005.206 1.763.616 2.278.41.514.976.77 1.697.77.637 0 1.116-.173 1.438-.52.32-.346.498-.804.53-1.372v-.18h2.133v.18c-.046 1.019-.426 1.858-1.142 2.52-.716.66-1.704.99-2.966.99-1.34 0-2.421-.419-3.245-1.256-.824-.838-1.235-2.053-1.235-3.645v-.619l-.002.001Zm10.027-4.701h3.366c1.343 0 2.472.412 3.382 1.236.911.823 1.366 1.976 1.366 3.458v.626c0 1.483-.455 2.636-1.366 3.462-.911.826-2.039 1.238-3.382 1.238H35.64v-10.02Zm3.331 8.445c.78 0 1.413-.26 1.896-.778.484-.519.726-1.285.726-2.299v-.716c0-1.013-.242-1.779-.726-2.295-.483-.516-1.115-.775-1.895-.775h-1.233v6.862h1.233Z" /></symbol><symbol fill="none" viewBox="0 0 301 273" id="about-company"><path d="m144 87 21.75 12.328L187.301 112l.199 25-.199 25-21.551 12.672L144 187l-21.75-12.328L100.699 162l-.199-25 .199-25 21.551-12.672L144 87Z" fill="#373D6A" /><path d="M123.259 141.484c0 1.19-.448 2.104-1.345 2.743-.896.632-2.194.949-3.893.949-3.1 0-4.902-1.105-5.406-3.314l2.215-.386c.176.685.527 1.186 1.055 1.503.533.31 1.265.465 2.197.465.967 0 1.699-.152 2.197-.457.498-.31.747-.77.747-1.38 0-.369-.099-.67-.298-.905-.2-.234-.481-.431-.844-.589a5.487 5.487 0 0 0-.949-.299 46.844 46.844 0 0 0-1.415-.325 23.008 23.008 0 0 1-1.521-.395 7.164 7.164 0 0 1-.914-.343 4.957 4.957 0 0 1-.65-.387 2.734 2.734 0 0 1-.914-1.01c-.217-.416-.326-.92-.326-1.512 0-1.096.416-1.937 1.248-2.523.832-.591 2.036-.887 3.613-.887 1.488 0 2.613.231 3.375.694.761.463 1.268 1.236 1.52 2.32l-2.232.325c-.147-.574-.437-.999-.87-1.274-.434-.281-1.046-.422-1.837-.422-.856 0-1.5.138-1.934.413-.433.276-.65.686-.65 1.231 0 .34.088.621.263.843.182.217.446.402.791.554.323.153 1.017.343 2.083.572.557.123 1.055.243 1.495.36.439.117.811.24 1.116.369.252.111.48.231.685.36.211.129.393.273.545.431.276.27.487.592.633.967.147.375.22.811.22 1.309Zm10.336-1.248c0 1.582-.407 2.801-1.222 3.657-.814.855-1.96 1.283-3.436 1.283-1.447 0-2.572-.434-3.375-1.301-.797-.867-1.195-2.08-1.195-3.639 0-1.564.398-2.774 1.195-3.63.803-.861 1.945-1.292 3.428-1.292 1.523 0 2.671.416 3.445 1.248.773.833 1.16 2.057 1.16 3.674Zm-2.276 0c0-1.189-.191-2.053-.572-2.592-.375-.54-.949-.809-1.722-.809-.809 0-1.406.281-1.793.844-.387.556-.58 1.409-.58 2.557 0 1.125.187 1.978.562 2.558.381.58.949.87 1.705.87.821 0 1.424-.281 1.811-.844.392-.568.589-1.429.589-2.584Zm6.065-.474V145h-2.171v-7.418c0-.521-.009-.946-.027-1.274a16.248 16.248 0 0 0-.044-.818h2.075c.011.082.023.24.035.475.017.228.032.469.044.721.011.246.017.448.017.606h.035c.34-.703.756-1.21 1.248-1.521.498-.31 1.099-.465 1.802-.465 1.02 0 1.79.296 2.312.887.521.592.782 1.483.782 2.672V145h-2.171v-5.563c0-.862-.144-1.492-.431-1.89-.287-.399-.738-.598-1.353-.598-.656 0-1.181.258-1.573.774-.387.515-.58 1.195-.58 2.039Zm10.309 0V145h-2.17v-7.418c0-.521-.009-.946-.027-1.274a17.535 17.535 0 0 0-.044-.818h2.074c.012.082.024.24.036.475.017.228.032.469.044.721.011.246.017.448.017.606h.035c.34-.703.756-1.21 1.248-1.521.498-.31 1.099-.465 1.802-.465 1.02 0 1.79.296 2.312.887.521.592.782 1.483.782 2.672V145h-2.171v-5.563c0-.862-.144-1.492-.431-1.89-.287-.399-.738-.598-1.353-.598-.656 0-1.181.258-1.573.774-.387.515-.581 1.195-.581 2.039Zm16.832.474c0 1.582-.407 2.801-1.222 3.657-.814.855-1.96 1.283-3.436 1.283-1.448 0-2.573-.434-3.375-1.301-.797-.867-1.196-2.08-1.196-3.639 0-1.564.399-2.774 1.196-3.63.802-.861 1.945-1.292 3.427-1.292 1.524 0 2.672.416 3.446 1.248.773.833 1.16 2.057 1.16 3.674Zm-2.277 0c0-1.189-.19-2.053-.571-2.592-.375-.54-.949-.809-1.722-.809-.809 0-1.407.281-1.793.844-.387.556-.581 1.409-.581 2.557 0 1.125.188 1.978.563 2.558.381.58.949.87 1.705.87.82 0 1.424-.281 1.811-.844.392-.568.588-1.429.588-2.584Zm7.735 4.94c-1.4 0-2.481-.425-3.243-1.275-.756-.855-1.134-2.062-1.134-3.621 0-1.582.381-2.803 1.143-3.665.762-.867 1.846-1.301 3.252-1.301 1.072 0 1.96.273 2.663.818.703.539 1.142 1.286 1.318 2.241l-2.197.123c-.076-.498-.264-.893-.563-1.186-.298-.299-.72-.449-1.265-.449-.709 0-1.231.27-1.565.809-.334.539-.501 1.383-.501 2.531 0 1.154.173 2.016.519 2.584.352.569.876.853 1.573.853.498 0 .914-.15 1.248-.449.34-.298.551-.75.633-1.353l2.189.114a3.594 3.594 0 0 1-.677 1.696 3.64 3.64 0 0 1-1.415 1.134c-.58.264-1.24.396-1.978.396Z" fill="#fff" /><path d="m194 173 21.75 12.328L237.301 198l.199 25-.199 25-21.551 12.672L194 273l-21.75-12.328L150.699 248l-.199-25 .199-25 21.551-12.672L194 173Z" fill="#2659AE" /><path d="M179.992 223.562V228h-1.758v-11.008h5.282c1.265 0 2.242.279 2.929.836.688.557 1.032 1.344 1.032 2.36 0 .802-.232 1.481-.696 2.039-.463.557-1.099.914-1.906 1.07l3.078 4.703h-2.015l-2.758-4.438h-3.188Zm5.711-3.335c0-.605-.203-1.063-.609-1.375-.401-.313-.987-.469-1.758-.469h-3.344v3.797h3.406c.74 0 1.308-.172 1.704-.516.401-.344.601-.823.601-1.437Zm3.149 4.835c0-.713.219-1.346.656-1.898.438-.557 1.107-1.039 2.008-1.445a6.146 6.146 0 0 1-.438-1.149 4.398 4.398 0 0 1-.171-1.156c0-.792.242-1.404.726-1.836.49-.432 1.182-.648 2.078-.648.818 0 1.472.203 1.961.609.49.401.735.948.735 1.641 0 .38-.089.729-.266 1.047-.177.317-.451.619-.82.906-.23.172-.516.349-.86.531-.338.182-.739.372-1.203.57.552 1.011 1.274 2.016 2.164 3.016.573-.854 1.005-1.88 1.297-3.078l1.305.406a11.742 11.742 0 0 1-1.61 3.539c.48.464.995.695 1.547.695.365 0 .67-.041.914-.124v1.234c-.281.114-.64.172-1.078.172a3.53 3.53 0 0 1-1.297-.242 3.495 3.495 0 0 1-1.109-.735c-.833.693-1.81 1.039-2.93 1.039-1.146 0-2.034-.271-2.664-.812-.63-.547-.945-1.308-.945-2.282Zm6.18-5.874a1.1 1.1 0 0 0-.36-.852c-.239-.224-.565-.336-.976-.336-.464 0-.818.128-1.063.383s-.367.601-.367 1.039c0 .536.159 1.127.477 1.773.64-.26 1.106-.487 1.398-.679.297-.188.518-.388.664-.602.151-.219.227-.461.227-.726Zm-.594 7.039a21.834 21.834 0 0 1-1.328-1.68 19.182 19.182 0 0 1-1.047-1.68c-1.115.49-1.672 1.216-1.672 2.18 0 .588.19 1.057.57 1.406.38.349.901.524 1.563.524.359 0 .708-.068 1.047-.204.338-.135.627-.317.867-.546Zm15.274-3.836c0 1.166-.227 2.169-.68 3.007a4.714 4.714 0 0 1-1.891 1.93c-.802.448-1.732.672-2.789.672h-4.226v-11.008h3.75c1.864 0 3.302.469 4.312 1.406 1.016.933 1.524 2.263 1.524 3.993Zm-1.774 0c0-1.302-.351-2.295-1.055-2.977-.703-.687-1.716-1.031-3.039-1.031h-1.961v8.226h2.29c.765 0 1.429-.171 1.992-.515a3.428 3.428 0 0 0 1.304-1.461c.313-.63.469-1.378.469-2.242Z" fill="#fff" /><path d="m94 173 21.75 12.328L137.301 198l.199 25-.199 25-21.551 12.672L94 273l-21.75-12.328L50.699 248l-.199-25 .199-25 21.551-12.672L94 173Z" fill="#306BBC" /><path d="M73.86 222.258c0 .807-.17 1.523-.508 2.148a3.616 3.616 0 0 1-1.485 1.461c-.64.344-1.396.516-2.265.516h-.415v1.703H67.47v-1.703h-.414c-.865 0-1.62-.175-2.266-.524a3.56 3.56 0 0 1-1.484-1.453c-.339-.63-.508-1.346-.508-2.148 0-1.266.378-2.245 1.133-2.938.755-.698 1.828-1.047 3.218-1.047h.32v-1.359h1.72v1.359h.32c1.396 0 2.469.349 3.219 1.047.755.698 1.132 1.677 1.132 2.938Zm-1.774.031c0-.906-.23-1.591-.688-2.055-.453-.463-1.143-.695-2.07-.695h-.14v5.586h.203c.87 0 1.536-.24 2-.719.463-.484.695-1.19.695-2.117Zm-7.516 0c0 .927.232 1.633.696 2.117.468.479 1.138.719 2.007.719h.196v-5.586h-.156c-.922 0-1.61.229-2.063.688-.453.458-.68 1.145-.68 2.062Zm12.962 5.867c-.839 0-1.477-.224-1.914-.672-.438-.448-.657-1.065-.657-1.851 0-.875.287-1.544.86-2.008.573-.464 1.468-.711 2.687-.742l1.867-.031v-.446c0-.646-.13-1.112-.39-1.398-.255-.287-.664-.43-1.227-.43-.557 0-.963.102-1.219.305-.25.203-.403.534-.46.992l-1.743-.125c.255-1.573 1.414-2.359 3.477-2.359 1.062 0 1.867.25 2.414.75.552.5.828 1.218.828 2.156v3.453c0 .438.055.758.164.961.11.198.307.297.594.297.156 0 .312-.018.469-.055v.977a5.685 5.685 0 0 1-.594.117c-.183.026-.38.039-.594.039-.531 0-.922-.135-1.172-.406-.245-.276-.385-.696-.422-1.258h-.047c-.343.614-.752 1.057-1.226 1.328-.469.271-1.034.406-1.695.406Zm2.843-4.242-1.398.024c-.61.015-1.063.08-1.36.195a1.43 1.43 0 0 0-.695.523c-.156.235-.234.545-.234.93 0 .443.112.781.336 1.016.229.229.547.343.953.343.463 0 .875-.109 1.234-.328.36-.219.644-.518.852-.898.208-.386.312-.784.312-1.196v-.609Zm7.79-3.937c1.208 0 2.096.341 2.664 1.023.568.677.851 1.698.851 3.062 0 1.381-.338 2.409-1.015 3.086-.677.672-1.662 1.008-2.953 1.008-1.339 0-2.326-.419-2.961-1.258-.63-.838-.946-2.127-.946-3.867 0-.885.063-1.661.188-2.328.125-.672.32-1.25.586-1.734.27-.485.617-.888 1.039-1.211.422-.323.953-.584 1.594-.781.317-.099.815-.209 1.492-.329a60.81 60.81 0 0 1 2.562-.382v1.453c-.729.083-1.4.172-2.015.265-.61.094-1.138.193-1.586.297-.448.099-.795.209-1.04.328-.583.261-.994.662-1.234 1.203-.24.537-.37 1.323-.39 2.36.24-.703.627-1.245 1.164-1.625.541-.38 1.208-.57 2-.57Zm1.765 4.101c0-1-.164-1.734-.492-2.203-.323-.474-.854-.711-1.594-.711-.78 0-1.356.24-1.726.719-.37.474-.555 1.206-.555 2.195 0 .964.172 1.685.516 2.164.349.479.888.719 1.617.719.802 0 1.375-.232 1.719-.695.343-.464.515-1.193.515-2.188Zm10.618-.344c0 1.454-.268 2.555-.805 3.305-.531.745-1.315 1.117-2.351 1.117-1.276 0-2.144-.492-2.602-1.476h-.04c.022.073.032.526.032 1.359v3.281h-1.664v-9.976c0-.422-.005-.782-.015-1.078-.01-.302-.024-.542-.04-.719h1.618c.01.036.02.141.03.312a13.352 13.352 0 0 1 .056 1.055h.03c.246-.521.582-.904 1.009-1.148.427-.25.971-.375 1.632-.375 1.026 0 1.8.359 2.32 1.078.527.713.79 1.802.79 3.265Zm-1.75.024c0-1.104-.154-1.904-.461-2.399-.307-.494-.79-.742-1.445-.742-.709 0-1.24.263-1.594.789-.35.526-.524 1.341-.524 2.446 0 1.041.17 1.82.508 2.336.339.515.87.773 1.594.773.661 0 1.146-.25 1.453-.75.313-.505.469-1.323.469-2.453Zm8.75-2.32L103.783 228h-1.782v-8.453h1.586v4.351c0 .198-.008.43-.023.696-.011.26-.024.523-.039.789-.011.265-.024.5-.039.703l3.765-6.539h1.766V228h-1.57v-4.867c0-.146.005-.331.015-.555.011-.224.024-.443.039-.656l.047-.484Zm5.016 2.914V228h-1.672v-8.453h1.672v3.68c.177-.006.326-.034.445-.086.12-.052.245-.149.375-.289a7.07 7.07 0 0 0 .204-.25c.078-.099.156-.211.234-.336.083-.12.258-.407.523-.86.271-.458.633-1.078 1.086-1.859h1.696l-1.664 2.687c-.396.615-.706 1.013-.93 1.196l2.664 4.57h-1.789l-2.055-3.781a1.999 1.999 0 0 1-.367.093c-.146.027-.287.04-.422.04Zm7.68 3.804c-.838 0-1.476-.224-1.914-.672-.437-.448-.656-1.065-.656-1.851 0-.875.286-1.544.859-2.008.573-.464 1.469-.711 2.688-.742l1.867-.031v-.446c0-.646-.13-1.112-.391-1.398-.255-.287-.664-.43-1.226-.43-.558 0-.964.102-1.219.305-.25.203-.404.534-.461.992l-1.742-.125c.255-1.573 1.414-2.359 3.476-2.359 1.063 0 1.868.25 2.414.75.552.5.829 1.218.829 2.156v3.453c0 .438.054.758.164.961.109.198.307.297.593.297.157 0 .313-.018.469-.055v.977a5.643 5.643 0 0 1-.594.117c-.182.026-.38.039-.593.039-.532 0-.922-.135-1.172-.406-.245-.276-.386-.696-.422-1.258h-.047c-.344.614-.753 1.057-1.227 1.328-.468.271-1.033.406-1.695.406Zm2.844-4.242-1.399.024c-.609.015-1.062.08-1.359.195a1.428 1.428 0 0 0-.695.523c-.157.235-.235.545-.235.93 0 .443.112.781.336 1.016.229.229.547.343.953.343.464 0 .875-.109 1.235-.328.359-.219.643-.518.851-.898.209-.386.313-.784.313-1.196v-.609Z" fill="#fff" /><path d="m194 0 21.75 12.328L237.301 25l.199 25-.199 25-21.551 12.672L194 100l-21.75-12.328L150.699 75l-.199-25 .199-25 21.551-12.672L194 0Z" fill="#51A8DD" /><path d="M187.086 33.38V36h-2.065v-2.62h-5.705v-1.643l5.379-8.12h2.391v8.13h1.687v1.634h-1.687Zm-5.941-1.634h3.876v-4.35c0-.3.005-.616.017-.95.018-.34.032-.589.044-.747a8.328 8.328 0 0 1-.334.615c-.123.211-.264.44-.422.686l-3.181 4.746Zm16.796-1.942c0 2.086-.361 3.67-1.081 4.755-.721 1.078-1.796 1.617-3.226 1.617-1.424 0-2.49-.533-3.199-1.6-.709-1.072-1.064-2.663-1.064-4.772 0-2.156.34-3.756 1.02-4.8.686-1.048 1.787-1.572 3.305-1.572 1.465 0 2.537.533 3.216 1.6.686 1.06 1.029 2.65 1.029 4.772Zm-2.189 0c0-1.143-.064-2.054-.193-2.734-.123-.68-.337-1.169-.642-1.468-.298-.304-.709-.457-1.23-.457-.551 0-.982.153-1.292.457-.311.3-.53.789-.659 1.468-.123.68-.185 1.591-.185 2.734 0 1.13.065 2.036.193 2.716.135.68.355 1.171.66 1.476.304.305.72.457 1.248.457.779 0 1.324-.366 1.634-1.099.311-.732.466-1.915.466-3.55Zm8.702 1.08v3.648h-1.758v-3.647h-3.577v-1.74h3.577v-3.648h1.758v3.648h3.595v1.74h-3.595ZM168.025 48.006v8.955h1.231v3.65h-1.114V58h-6.946v2.611h-1.114v-3.65h.766c.341-.583.66-1.237.957-1.962.3-.73.567-1.49.799-2.283.237-.798.429-1.598.575-2.4.15-.802.246-1.572.287-2.31h4.559Zm-1.155 1.046h-2.379a15.194 15.194 0 0 1-.273 1.893 23.284 23.284 0 0 1-.547 2.133c-.219.73-.465 1.429-.738 2.099-.269.67-.554 1.264-.855 1.784h4.792v-7.91Zm10.09 5.188a5.26 5.26 0 0 1-.239 1.648c-.16.483-.39.89-.69 1.223a3.013 3.013 0 0 1-1.094.766 3.79 3.79 0 0 1-1.443.26 3.58 3.58 0 0 1-1.38-.26 3.124 3.124 0 0 1-1.081-.766c-.3-.332-.535-.74-.704-1.223-.164-.483-.246-1.032-.246-1.648 0-.82.139-1.517.417-2.092.278-.578.675-1.018 1.19-1.319.519-.305 1.137-.458 1.852-.458.684 0 1.281.153 1.791.458.515.305.914.748 1.197 1.326.287.575.43 1.27.43 2.085Zm-5.701 0c0 .602.08 1.124.239 1.566.16.442.406.784.739 1.025.332.242.761.362 1.285.362.519 0 .945-.12 1.278-.362.337-.242.586-.583.745-1.025.16-.442.239-.964.239-1.566 0-.597-.079-1.112-.239-1.545-.159-.437-.405-.774-.738-1.011-.333-.237-.763-.356-1.292-.356-.779 0-1.351.258-1.716.773-.36.515-.54 1.228-.54 2.14Zm8.374-3.732V53.2c0 .47.128.816.383 1.04.26.223.636.334 1.128.334a3.64 3.64 0 0 0 1.292-.219 6.507 6.507 0 0 0 1.176-.594v-3.254h1.135V58h-1.135v-3.356a6.81 6.81 0 0 1-1.237.635c-.406.155-.891.233-1.456.233-.771 0-1.368-.2-1.791-.602-.42-.4-.629-.943-.629-1.627v-2.775h1.134Zm10.118-.137c.638 0 1.185.141 1.64.424.456.282.805.679 1.046 1.19.242.505.363 1.098.363 1.777v.704h-5.175c.014.88.232 1.55.656 2.01.424.46 1.021.69 1.791.69.474 0 .893-.043 1.258-.13a6.93 6.93 0 0 0 1.135-.383v.998a5.556 5.556 0 0 1-1.128.37 6.469 6.469 0 0 1-1.313.116c-.72 0-1.349-.146-1.886-.438a3.061 3.061 0 0 1-1.245-1.299c-.296-.57-.444-1.267-.444-2.091 0-.807.135-1.504.403-2.092.274-.593.657-1.048 1.149-1.367.497-.32 1.08-.479 1.75-.479Zm-.014.93c-.606 0-1.089.198-1.449.594-.36.397-.574.95-.643 1.662h3.965a3.185 3.185 0 0 0-.212-1.176 1.652 1.652 0 0 0-.608-.793c-.274-.191-.624-.287-1.053-.287Zm8.231-.93c.934 0 1.679.321 2.235.964.556.642.834 1.609.834 2.898 0 .853-.127 1.568-.383 2.147-.255.579-.615 1.016-1.08 1.312-.46.297-1.005.445-1.633.445-.397 0-.746-.053-1.046-.157a2.467 2.467 0 0 1-.773-.424 2.765 2.765 0 0 1-.533-.581h-.082l.048.642c.023.25.034.47.034.656v3.077h-1.142V50.508h.937l.15 1.107h.055c.146-.228.324-.435.533-.622.21-.191.465-.342.766-.451.305-.114.665-.17 1.08-.17Zm-.198.957c-.52 0-.939.1-1.258.3-.315.201-.545.502-.691.903-.145.397-.223.896-.232 1.497v.22c0 .633.068 1.168.205 1.605.141.438.371.77.69.999.324.227.757.341 1.299.341.465 0 .853-.125 1.162-.376.31-.25.54-.599.691-1.045.155-.452.232-.969.232-1.552 0-.884-.173-1.586-.519-2.106-.342-.524-.868-.786-1.579-.786Zm6.111-.82v3.144h4.177v-3.144h1.135V58h-1.135v-3.384h-4.177V58h-1.141v-7.492h1.141Zm8.518 0v4.71a17.468 17.468 0 0 1-.027.813 46.6 46.6 0 0 1-.028.465 5.602 5.602 0 0 1-.02.362l4.088-6.35h1.394V58h-1.059v-4.594a28.396 28.396 0 0 1 .027-1.23l.021-.52L212.72 58h-1.401v-7.492h1.08Zm9.325 3.657-2.591-3.657h1.299l1.975 2.885 1.969-2.885h1.285l-2.591 3.657L225.805 58h-1.299l-2.099-3.056L220.295 58h-1.285l2.714-3.835Zm-56.16 15.343h1.251l-3.233 3.616L167.075 77h-1.333l-3.404-3.8V77h-1.142v-7.492h1.142v3.636l3.226-3.636Zm9.045 3.732c0 .616-.08 1.165-.24 1.648-.159.483-.389.89-.69 1.223a3.005 3.005 0 0 1-1.094.766c-.424.173-.904.26-1.442.26-.501 0-.962-.087-1.381-.26a3.11 3.11 0 0 1-1.08-.766 3.523 3.523 0 0 1-.704-1.223c-.164-.483-.246-1.032-.246-1.648 0-.82.139-1.517.417-2.092.278-.578.674-1.018 1.189-1.319.52-.305 1.137-.458 1.853-.458.683 0 1.28.153 1.791.458.515.305.913.748 1.196 1.326.287.575.431 1.27.431 2.085Zm-5.702 0c0 .602.08 1.124.24 1.566.159.442.405.784.738 1.025.333.242.761.362 1.285.362.52 0 .946-.12 1.279-.362.337-.242.585-.583.745-1.025.159-.442.239-.964.239-1.566 0-.597-.08-1.112-.239-1.545-.16-.437-.406-.774-.739-1.011-.332-.237-.763-.356-1.292-.356-.779 0-1.351.258-1.715.773-.36.515-.541 1.228-.541 2.14Zm15.293-3.732V77h-1.026v-4.88c0-.201.005-.404.014-.61.014-.209.03-.419.048-.628h-.041L180.707 77h-.964l-2.427-6.118h-.041c.014.21.023.42.027.629.009.205.014.421.014.65V77h-1.032v-7.492h1.524l2.42 6.125 2.454-6.125h1.518Zm8.354 0V77h-1.142v-6.515h-3.992V77h-1.142v-7.492h6.276Zm4.929-.123c.893 0 1.556.2 1.989.601.433.401.649 1.042.649 1.921V77h-.827l-.219-1.107h-.054a4.17 4.17 0 0 1-.657.69 2.428 2.428 0 0 1-.793.417c-.296.091-.66.137-1.093.137-.456 0-.862-.08-1.217-.24a1.894 1.894 0 0 1-.834-.724c-.201-.324-.301-.734-.301-1.23 0-.748.296-1.322.889-1.723.592-.401 1.495-.62 2.707-.656l1.292-.055v-.458c0-.647-.139-1.1-.417-1.36-.278-.26-.67-.39-1.176-.39-.392 0-.766.057-1.121.17a7.648 7.648 0 0 0-1.012.404l-.348-.861a6.228 6.228 0 0 1 1.162-.445 5.072 5.072 0 0 1 1.381-.184ZM199 73.309l-1.141.047c-.935.037-1.593.19-1.976.459-.383.268-.574.649-.574 1.141 0 .428.13.745.389.95.26.205.604.308 1.033.308.665 0 1.21-.185 1.633-.554.424-.369.636-.923.636-1.661v-.69Zm4.321-3.801v3.144h4.176v-3.144h1.135V77h-1.135v-3.384h-4.176V77h-1.142v-7.492h1.142Zm8.518 0v4.71a14.222 14.222 0 0 1-.028.813l-.027.465a6.303 6.303 0 0 1-.021.362l4.088-6.35h1.395V77h-1.06v-4.594a28.326 28.326 0 0 1 .028-1.23l.02-.52L212.16 77h-1.402v-7.492h1.081Zm8.62 0v4.71a17.468 17.468 0 0 1-.027.813l-.028.465a5.602 5.602 0 0 1-.02.362l4.088-6.35h1.394V77h-1.059v-4.594a33.153 33.153 0 0 1 .027-1.23l.02-.52L220.78 77h-1.401v-7.492h1.08Zm4.847-3.083c-.041.46-.158.845-.349 1.155-.187.31-.463.545-.827.704-.365.155-.832.233-1.402.233-.587 0-1.061-.076-1.421-.226a1.61 1.61 0 0 1-.793-.697c-.169-.31-.269-.7-.301-1.17h1.066c.05.502.185.844.404 1.026.218.182.574.274 1.066.274.437 0 .782-.096 1.032-.288.251-.19.401-.528.451-1.011h1.074Z" fill="#fff" /><path d="m94 0 21.75 12.328L137.301 25l.199 25-.199 25-21.551 12.672L94 100 72.25 87.672 50.699 75 50.5 50l.199-25L72.25 12.328 94 0Z" fill="#4695D4" /><path d="M76.228 50.198V52h-8.507v-1.512c.24-.545.542-1.057.905-1.538.37-.48.788-.943 1.257-1.389.469-.445.981-.89 1.538-1.335.369-.3.688-.575.958-.827a6.67 6.67 0 0 0 .677-.703c.24-.27.427-.545.562-.826.135-.287.202-.586.202-.896 0-.586-.158-1.032-.474-1.336-.31-.305-.765-.457-1.363-.457-.574 0-1.028.155-1.362.466-.328.31-.533.764-.615 1.362l-2.197-.14c.134-1.096.562-1.943 1.283-2.54.72-.599 1.681-.897 2.883-.897 1.306 0 2.308.301 3.006.905.703.603 1.054 1.453 1.054 2.549 0 .574-.123 1.104-.369 1.59a5.858 5.858 0 0 1-.984 1.38 9.763 9.763 0 0 1-1.055.985c-.416.334-.853.685-1.31 1.054-.498.405-.925.791-1.283 1.16-.357.37-.62.75-.79 1.143h5.984Zm9.713-4.394c0 2.086-.36 3.67-1.081 4.755-.721 1.078-1.796 1.617-3.226 1.617-1.424 0-2.49-.533-3.2-1.6-.708-1.072-1.063-2.663-1.063-4.772 0-2.157.34-3.756 1.02-4.8.685-1.048 1.787-1.572 3.305-1.572 1.465 0 2.537.533 3.216 1.6.686 1.06 1.029 2.65 1.029 4.772Zm-2.189 0c0-1.143-.064-2.054-.193-2.734-.123-.68-.337-1.169-.642-1.468-.299-.304-.709-.456-1.23-.456-.55 0-.982.152-1.292.456-.31.3-.53.789-.66 1.468-.122.68-.184 1.591-.184 2.734 0 1.13.065 2.036.194 2.715.134.68.354 1.172.659 1.477.304.305.72.457 1.248.457.779 0 1.324-.366 1.635-1.099.31-.732.465-1.916.465-3.55Zm10.627 5.08c-.211.451-.478.78-.8.984-.322.205-.747.308-1.274.308-.194 0-.408-.012-.642-.035a3.016 3.016 0 0 1-.536-.08v-1.494c.152.053.352.08.598.08a.862.862 0 0 0 .378-.106c.146-.076.298-.27.457-.58.158-.316.307-.83.448-1.538.047-.229.097-.507.15-.835.058-.328.12-.724.184-1.187.07-.468.15-1.022.237-1.66.094-.645.197-1.395.308-2.25h6.952V52h-2.18v-8.016h-2.918c-.158 1.196-.302 2.2-.43 3.015a35.471 35.471 0 0 1-.326 1.89c-.181.873-.383 1.538-.606 1.995Zm10.204-3.208c0 .978.188 1.725.563 2.241.381.51.929.765 1.643.765.516 0 .935-.109 1.257-.326.323-.222.545-.53.668-.922l2.022.272c-.639 1.646-1.984 2.47-4.034 2.47-1.418 0-2.508-.422-3.27-1.266-.756-.844-1.134-2.083-1.134-3.718 0-1.57.381-2.774 1.143-3.612.767-.844 1.857-1.265 3.269-1.265 1.377 0 2.42.442 3.129 1.327.715.884 1.073 2.188 1.073 3.91v.124h-6.329Zm4.193-1.442c-.065-.843-.276-1.47-.633-1.88-.352-.41-.841-.616-1.468-.616-.644 0-1.145.223-1.503.668-.357.44-.548 1.05-.571 1.828h4.175Zm7.497-2.25V52h-2.179v-8.016h-2.787V42.49h7.752v1.494h-2.786ZM75.367 31v-9.994h5.872v1.025h-4.71v3.227h1.552c.962 0 1.714.118 2.256.355.542.237.923.568 1.141.992.224.423.336.915.336 1.476 0 .92-.276 1.638-.828 2.153-.547.51-1.456.766-2.727.766h-2.892Zm1.162-.998h1.607c.902 0 1.54-.157 1.914-.472.378-.319.567-.802.567-1.449 0-.451-.091-.809-.273-1.073-.182-.264-.47-.454-.862-.568-.391-.114-.906-.17-1.544-.17h-1.409v3.732Zm13.42-2.762c0 .616-.08 1.165-.24 1.648-.16.483-.39.89-.69 1.223-.301.333-.666.588-1.094.766-.424.173-.904.26-1.442.26-.502 0-.962-.087-1.381-.26a3.116 3.116 0 0 1-1.08-.766c-.301-.332-.536-.74-.704-1.223-.164-.483-.246-1.033-.246-1.648 0-.82.139-1.517.417-2.092.277-.578.674-1.018 1.189-1.319.52-.305 1.137-.458 1.853-.458.683 0 1.28.153 1.79.458.516.305.914.747 1.197 1.326.287.575.43 1.27.43 2.085Zm-5.702 0c0 .602.08 1.124.24 1.566.16.442.405.784.738 1.025.333.242.761.362 1.285.362.52 0 .946-.12 1.278-.362.338-.241.586-.583.746-1.025.159-.442.239-.964.239-1.566 0-.597-.08-1.112-.24-1.545-.159-.437-.405-.774-.738-1.011-.332-.237-.763-.356-1.292-.356-.78 0-1.351.258-1.716.773-.36.515-.54 1.228-.54 2.14ZM97.25 31h-1.156v-6.542h-2.276a35.004 35.004 0 0 1-.349 3.035c-.136.839-.31 1.525-.52 2.058-.204.528-.455.918-.751 1.169a1.57 1.57 0 0 1-1.046.369c-.123 0-.24-.007-.349-.02a1.099 1.099 0 0 1-.28-.069v-.861c.06.018.12.032.185.04.068.01.139.014.212.014.205 0 .391-.084.56-.253.173-.173.328-.433.465-.779.141-.346.267-.784.376-1.312.11-.534.205-1.16.287-1.88.087-.725.162-1.545.226-2.461h4.416V31Zm4.997-7.629c.638 0 1.185.141 1.641.424.455.282.804.679 1.045 1.19.242.505.363 1.098.363 1.777v.704h-5.175c.014.88.232 1.55.656 2.01.424.46 1.021.69 1.791.69.474 0 .893-.043 1.258-.13a6.93 6.93 0 0 0 1.135-.383v.998a5.516 5.516 0 0 1-1.128.37 6.469 6.469 0 0 1-1.313.116c-.72 0-1.349-.146-1.886-.438a3.055 3.055 0 0 1-1.245-1.299c-.296-.57-.444-1.266-.444-2.091 0-.807.135-1.504.404-2.092.273-.593.656-1.048 1.148-1.367.497-.32 1.08-.479 1.75-.479Zm-.014.93c-.606 0-1.089.198-1.449.595-.36.396-.574.95-.643 1.66h3.965a3.185 3.185 0 0 0-.212-1.175 1.652 1.652 0 0 0-.608-.793c-.273-.192-.624-.287-1.053-.287Zm7.595-.93c.638 0 1.185.141 1.641.424.456.282.804.679 1.046 1.19.241.505.362 1.098.362 1.777v.704h-5.175c.014.88.233 1.55.657 2.01.423.46 1.02.69 1.791.69.473 0 .893-.043 1.257-.13a6.93 6.93 0 0 0 1.135-.383v.998a5.516 5.516 0 0 1-1.128.37 6.459 6.459 0 0 1-1.312.116c-.72 0-1.349-.146-1.887-.438a3.059 3.059 0 0 1-1.244-1.299c-.296-.57-.445-1.266-.445-2.091 0-.807.135-1.504.404-2.092.273-.593.656-1.048 1.148-1.367.497-.32 1.08-.479 1.75-.479Zm-.013.93c-.607 0-1.09.198-1.45.595-.36.396-.574.95-.642 1.66h3.965a3.226 3.226 0 0 0-.212-1.175 1.647 1.647 0 0 0-.609-.793c-.273-.192-.624-.287-1.052-.287ZM65.338 63.508v3.144h4.177v-3.144h1.134V71h-1.134v-3.384h-4.177V71h-1.142v-7.492h1.142Zm10.24-.123c.894 0 1.557.2 1.99.601.433.401.65 1.042.65 1.921V71h-.828l-.219-1.107h-.055c-.21.273-.428.503-.656.69a2.44 2.44 0 0 1-.793.417c-.296.091-.66.137-1.094.137-.455 0-.86-.08-1.216-.24a1.895 1.895 0 0 1-.834-.724c-.2-.324-.301-.734-.301-1.23 0-.748.296-1.322.889-1.723.592-.401 1.494-.62 2.707-.656l1.292-.055v-.458c0-.647-.14-1.1-.417-1.36-.278-.26-.67-.39-1.176-.39-.392 0-.766.057-1.121.17a7.67 7.67 0 0 0-1.012.404l-.349-.861a6.25 6.25 0 0 1 1.163-.445 5.079 5.079 0 0 1 1.38-.184Zm1.518 3.924-1.142.047c-.934.037-1.592.19-1.975.459-.383.268-.574.649-.574 1.141 0 .428.13.745.39.95.259.205.603.308 1.031.308.666 0 1.21-.185 1.634-.554.424-.369.636-.923.636-1.661v-.69Zm10.056-3.938c.934 0 1.68.321 2.236.964.555.643.834 1.609.834 2.898 0 .853-.128 1.568-.383 2.147-.255.579-.615 1.016-1.08 1.312-.46.297-1.005.445-1.634.445-.397 0-.745-.053-1.046-.157a2.469 2.469 0 0 1-.772-.424 2.769 2.769 0 0 1-.534-.581h-.082l.048.642c.023.25.034.47.034.656v3.077h-1.141V63.508h.936l.15 1.107h.055c.146-.228.324-.435.534-.622a2.27 2.27 0 0 1 .765-.451c.305-.114.665-.17 1.08-.17Zm-.198.957c-.52 0-.939.1-1.258.3-.314.201-.544.502-.69.903-.146.397-.224.896-.233 1.497v.22c0 .632.069 1.168.205 1.605.142.438.372.77.69.999.324.227.757.341 1.3.341.465 0 .852-.125 1.162-.376.31-.25.54-.599.69-1.045.155-.452.233-.969.233-1.552 0-.884-.174-1.586-.52-2.106-.342-.524-.868-.786-1.58-.786ZM91.924 71v-7.492h1.141v3.09h2.051c.638 0 1.162.08 1.573.239.414.16.722.396.922.71.201.315.301.705.301 1.17 0 .465-.1.868-.3 1.21-.197.342-.506.606-.93.793-.42.187-.966.28-1.64.28h-3.118Zm1.141-.923h1.867c.565 0 1.016-.1 1.353-.3.338-.201.506-.536.506-1.005 0-.46-.157-.78-.471-.958-.315-.182-.766-.273-1.354-.273h-1.9v2.536ZM99.15 71v-7.492h1.134V71h-1.135Zm4.395-7.492v3.144h4.177v-3.144h1.135V71h-1.135v-3.384h-4.177V71h-1.141v-7.492h1.141Zm11.806 0h1.251l-3.233 3.616L116.862 71h-1.333l-3.404-3.8V71h-1.142v-7.492h1.142v3.636l3.226-3.636Zm5.469-.137c.638 0 1.185.141 1.641.424.456.282.804.679 1.046 1.19.241.505.362 1.098.362 1.777v.704h-5.175c.014.88.233 1.55.657 2.01.423.46 1.02.69 1.791.69.474 0 .893-.043 1.257-.13a6.93 6.93 0 0 0 1.135-.383v.998a5.516 5.516 0 0 1-1.128.37 6.459 6.459 0 0 1-1.312.116c-.72 0-1.349-.146-1.887-.438a3.059 3.059 0 0 1-1.244-1.299c-.296-.57-.444-1.267-.444-2.091 0-.807.134-1.504.403-2.092.273-.593.656-1.048 1.148-1.367.497-.32 1.08-.479 1.75-.479Zm-.013.93c-.607 0-1.09.198-1.45.594-.36.397-.574.95-.642 1.662h3.965a3.226 3.226 0 0 0-.212-1.176 1.647 1.647 0 0 0-.609-.793c-.273-.191-.624-.287-1.052-.287Z" fill="#fff" /><path d="m44 87 21.75 12.328L87.301 112l.199 25-.199 25-21.551 12.672L44 187l-21.75-12.328L.699 162 .5 137l.199-25L22.25 99.328 44 87Z" fill="#3D80C7" /><path d="M33.422 129.904c0 1.313-.401 2.353-1.204 3.12-.803.768-1.908 1.152-3.314 1.152-1.213 0-2.188-.27-2.927-.809-.732-.545-1.189-1.33-1.37-2.355l2.18-.194c.146.557.398.967.755 1.231.363.258.826.387 1.389.387.691 0 1.239-.214 1.643-.642.404-.434.607-1.046.607-1.837 0-.697-.197-1.254-.59-1.67-.386-.422-.925-.633-1.616-.633a2.45 2.45 0 0 0-1.88.826h-2.128l.43-6.864h7.304v1.67h-5.335l-.21 3.402c.626-.528 1.409-.792 2.346-.792.797 0 1.488.165 2.074.493.586.328 1.04.794 1.362 1.397.323.598.484 1.304.484 2.118Zm9.519-2.1c0 2.086-.36 3.671-1.081 4.755-.721 1.078-1.796 1.617-3.226 1.617-1.424 0-2.49-.533-3.2-1.6-.708-1.072-1.063-2.663-1.063-4.772 0-2.157.34-3.756 1.02-4.799.686-1.049 1.787-1.573 3.305-1.573 1.465 0 2.537.533 3.217 1.599.685 1.061 1.028 2.652 1.028 4.773Zm-2.189 0c0-1.143-.064-2.054-.193-2.734-.123-.679-.337-1.169-.642-1.467-.299-.305-.709-.457-1.23-.457-.55 0-.982.152-1.292.457-.31.298-.53.788-.66 1.467-.122.68-.184 1.591-.184 2.734 0 1.131.065 2.036.194 2.716.134.679.354 1.171.659 1.476.304.305.72.457 1.248.457.779 0 1.324-.366 1.634-1.099.311-.732.466-1.916.466-3.55Zm11.848 0c0 2.086-.36 3.671-1.08 4.755-.721 1.078-1.797 1.617-3.226 1.617-1.424 0-2.49-.533-3.2-1.6-.709-1.072-1.063-2.663-1.063-4.772 0-2.157.34-3.756 1.02-4.799.685-1.049 1.787-1.573 3.304-1.573 1.465 0 2.537.533 3.217 1.599.685 1.061 1.028 2.652 1.028 4.773Zm-2.188 0c0-1.143-.065-2.054-.194-2.734-.123-.679-.336-1.169-.641-1.467-.299-.305-.71-.457-1.23-.457-.551 0-.982.152-1.293.457-.31.298-.53.788-.659 1.467-.123.68-.184 1.591-.184 2.734 0 1.131.064 2.036.193 2.716.135.679.354 1.171.66 1.476.304.305.72.457 1.247.457.78 0 1.325-.366 1.635-1.099.31-.732.466-1.916.466-3.55Zm8.701 1.081v3.647h-1.758v-3.647h-3.577v-1.74h3.578v-3.648h1.757v3.648h3.595v1.74h-3.595ZM11.834 146.189c-.473 0-.899.082-1.277.247-.375.16-.696.394-.961.703a3.172 3.172 0 0 0-.604 1.107 4.74 4.74 0 0 0-.21 1.465c0 .719.11 1.344.333 1.875.227.527.563.935 1.008 1.225.45.289 1.01.433 1.682.433.383 0 .742-.031 1.078-.094.34-.066.67-.148.99-.246v.867c-.313.118-.64.204-.984.258a7.35 7.35 0 0 1-1.225.088c-.871 0-1.6-.179-2.185-.539a3.371 3.371 0 0 1-1.313-1.535c-.29-.66-.434-1.439-.434-2.338 0-.648.09-1.24.27-1.775.184-.539.45-1.004.797-1.395.351-.39.781-.691 1.289-.902.512-.215 1.098-.322 1.758-.322.433 0 .851.043 1.254.128.402.086.765.209 1.09.37l-.399.843a5.962 5.962 0 0 0-.902-.322 3.774 3.774 0 0 0-1.055-.141Zm9.047 4.588c0 .528-.068.998-.205 1.412a2.884 2.884 0 0 1-.592 1.049c-.258.285-.57.504-.937.657a3.253 3.253 0 0 1-1.237.222c-.43 0-.824-.074-1.183-.222a2.683 2.683 0 0 1-.926-.657 3.021 3.021 0 0 1-.604-1.049 4.377 4.377 0 0 1-.21-1.412c0-.703.119-1.3.357-1.793a2.54 2.54 0 0 1 1.02-1.13c.445-.262.974-.393 1.587-.393.586 0 1.098.131 1.536.393.441.261.783.64 1.025 1.136.246.492.37 1.088.37 1.787Zm-4.887 0c0 .516.069.963.206 1.342.136.379.347.672.632.879.285.207.653.311 1.102.311.445 0 .81-.104 1.095-.311.29-.207.503-.5.64-.879.136-.379.204-.826.204-1.342 0-.511-.068-.953-.205-1.324-.136-.375-.348-.664-.633-.867-.285-.203-.654-.305-1.107-.305-.668 0-1.158.221-1.47.662-.31.442-.464 1.053-.464 1.834Zm10.706-2.373h-2.116V154h-.96v-5.596h-2.086v-.826H26.7v.826Zm4.049-.943c.8 0 1.44.275 1.916.826.476.551.715 1.379.715 2.484 0 .731-.11 1.344-.329 1.84-.218.496-.527.871-.925 1.125-.395.254-.862.381-1.4.381-.34 0-.64-.045-.897-.135a2.105 2.105 0 0 1-.662-.363 2.354 2.354 0 0 1-.457-.498h-.07l.04.551c.02.215.03.402.03.562v2.637h-.979v-9.293h.803l.129.949h.047c.125-.195.277-.373.457-.533.18-.164.398-.293.656-.387.262-.097.57-.146.926-.146Zm-.17.82c-.445 0-.805.086-1.078.258-.27.172-.467.43-.592.773-.125.34-.191.768-.2 1.284v.187c0 .543.06 1.002.177 1.377.12.375.318.66.591.856.278.195.649.293 1.113.293.399 0 .731-.108.997-.323.265-.215.463-.513.591-.896.133-.387.2-.83.2-1.33 0-.758-.149-1.36-.446-1.805-.293-.449-.744-.674-1.353-.674Zm3.246-.703h1.043l1.418 3.727c.082.218.158.429.229.633.07.199.132.39.187.574.055.183.098.361.129.533h.041a32.323 32.323 0 0 1 .563-1.746l1.341-3.721h1.05l-2.796 7.365a4.887 4.887 0 0 1-.521 1.032 2.054 2.054 0 0 1-.715.673c-.281.161-.621.241-1.02.241a3.04 3.04 0 0 1-.486-.035 2.96 2.96 0 0 1-.363-.071v-.779a3.243 3.243 0 0 0 .697.076c.242 0 .451-.047.627-.141.18-.089.334-.222.463-.398a2.72 2.72 0 0 0 .334-.627l.351-.902-2.572-6.434Zm11.49 0v5.596h.92v3.047h-.943V154h-4.547v2.221h-.931v-3.047h.504a7.757 7.757 0 0 0 .914-1.67c.242-.606.425-1.24.55-1.904.125-.668.192-1.342.2-2.022h3.334Zm-.943.774H42.85c-.035.57-.12 1.15-.252 1.74-.129.59-.3 1.152-.516 1.687a6.703 6.703 0 0 1-.75 1.395h3.041v-4.822Zm3.88-.774v2.695h3.58v-2.695h.972V154h-.973v-2.9h-3.58v2.9h-.978v-6.422h.978Zm7.3 0v4.037a16.84 16.84 0 0 1-.023.697l-.023.399c-.004.125-.01.228-.018.31l3.504-5.443h1.195V154h-.908v-3.938a24.94 24.94 0 0 1 .023-1.054l.018-.446L55.828 154h-1.201v-6.422h.925Zm10.208 0h1.072l-2.771 3.1L67.055 154h-1.143l-2.918-3.258V154h-.978v-6.422h.978v3.117l2.766-3.117Zm7.752 3.199c0 .528-.069.998-.205 1.412a2.884 2.884 0 0 1-.592 1.049c-.258.285-.57.504-.938.657a3.253 3.253 0 0 1-1.236.222c-.43 0-.824-.074-1.183-.222a2.683 2.683 0 0 1-.926-.657 3.021 3.021 0 0 1-.604-1.049 4.377 4.377 0 0 1-.21-1.412c0-.703.119-1.3.357-1.793a2.54 2.54 0 0 1 1.02-1.13c.445-.262.974-.393 1.587-.393.586 0 1.098.131 1.535.393.442.261.783.64 1.026 1.136.246.492.369 1.088.369 1.787Zm-4.887 0c0 .516.069.963.205 1.342.137.379.348.672.633.879.285.207.652.311 1.102.311.445 0 .81-.104 1.095-.311.29-.207.502-.5.639-.879s.205-.826.205-1.342c0-.511-.068-.953-.205-1.324-.137-.375-.348-.664-.633-.867-.285-.203-.654-.305-1.107-.305-.668 0-1.159.221-1.471.662-.308.442-.463 1.053-.463 1.834Zm11.432-1.588c0 .403-.117.717-.352.944a1.838 1.838 0 0 1-.908.451v.047c.403.055.748.199 1.037.433.293.231.44.584.44 1.061a1.8 1.8 0 0 1-.264.973c-.176.281-.451.502-.826.662-.375.16-.863.24-1.465.24h-2.765v-6.422h2.742c.46 0 .867.053 1.219.158.355.102.634.27.837.504.204.235.305.551.305.949Zm-.797 2.936c0-.379-.144-.652-.433-.82-.286-.168-.702-.252-1.248-.252h-1.647v2.156h1.67c.539 0 .95-.082 1.23-.246.286-.168.428-.447.428-.838Zm-.193-2.824c0-.305-.111-.531-.334-.68-.223-.152-.588-.228-1.096-.228h-1.705v1.845h1.535c.528 0 .926-.076 1.195-.228.27-.153.405-.389.405-.709Z" fill="#fff" /></symbol><symbol fill="currentColor" viewBox="0 0 10 4" id="arrow"><path d="M7.618 1.397C7.35 1.078 7.078.63 6.805.051h.492C7.876.73 8.49 1.236 9.143 1.568v.246c-.652.338-1.267.844-1.846 1.518h-.492c.273-.579.544-1.028.813-1.347H.858v-.588h6.76Z" /></symbol><symbol fill="none" viewBox="0 0 28 28" id="assortment"><g clip-path="url(#assortment_a)"><g mask="url(#assortment_b)" stroke="#125AA3" stroke-linecap="round" stroke-linejoin="round" stroke-miterlimit="10"><path d="M16.406 26.727a3.905 3.905 0 1 0-4.56-.018m-7.734-6.79v3.835c0 .723.587 1.31 1.31 1.31H7.33" /><path d="M5.388 21.194 4.112 19.92l-1.275 1.275m21.083-1.276v3.835a1.31 1.31 0 0 1-1.31 1.31h-1.907" /><path d="m22.645 21.194 1.275-1.275 1.275 1.275M14.14 11.115v5.583m1.32-4.263-1.32-1.32-1.322 1.32m-.045 11.277.891.891 1.842-1.841M7.193 7.709c.357 0 .646-.303.646-.677V1.224c0-.374-.29-.677-.646-.677h-6c-.357 0-.646.303-.646.677v5.808c0 .374.29.677.646.677h6Z" /><path d="M5.289.547H3.098v1.938h2.19V.547ZM2.432 5.92h.81M17 7.709c.356 0 .646-.303.646-.677V1.224c0-.374-.29-.677-.646-.677h-6c-.357 0-.646.303-.646.677v5.808c0 .374.289.677.646.677h6Z" /><path d="M15.095.547h-2.19v1.938h2.19V.547ZM12.238 5.92h.811m13.757 1.789c.357 0 .646-.303.646-.677V1.224c0-.374-.29-.677-.646-.677h-6c-.356 0-.646.303-.646.677v5.808c0 .374.29.677.646.677h6Z" /><path d="M24.902.547H22.71v1.938h2.19V.547ZM22.045 5.92h.81M7.193 17.46c.357 0 .646-.304.646-.678v-5.808c0-.374-.29-.676-.646-.676h-6c-.357 0-.646.302-.646.676v5.808c0 .374.29.677.646.677h6Z" /><path d="M5.289 10.298H3.098v1.937h2.19v-1.937ZM2.432 15.67h.81m23.564 1.79c.357 0 .646-.304.646-.678v-5.808c0-.374-.29-.676-.646-.676h-6c-.356 0-.646.302-.646.676v5.808c0 .374.29.677.646.677h6Z" /><path d="M24.902 10.298H22.71v1.937h2.19v-1.937Zm-2.857 5.372h.81" /></g></g><defs></defs></symbol><mask id="assortment_b" width="28" height="28" x="0" y="0" maskUnits="userSpaceOnUse" style="mask-type:luminance"><path fill="#fff" d="M0 0h28v28H0V0Z" /></mask><clipPath id="assortment_a"><path fill="#fff" d="M0 0h28v28H0z" /></clipPath><symbol fill="none" viewBox="0 0 28 18" id="burger"><rect width="28" height="4" rx="2" fill="#125AA3" /><rect y="7" width="28" height="4" rx="2" fill="#125AA3" /><rect y="14" width="28" height="4" rx="2" fill="#125AA3" /></symbol><symbol fill="none" viewBox="0 0 28 28" id="close"><g fill="#fff"><rect width="28" height="4" x="25.314" y="5.515" rx="2" transform="rotate(135 25.314 5.515)" /><rect width="28" height="4" x="5.515" y="2.687" rx="2" transform="rotate(45 5.515 2.687)" /></g></symbol><symbol fill="none" viewBox="0 0 15 14" id="download"><g clip-path="url(#download_a)" fill="#125AA3"><path d="M9.521.08a.339.339 0 0 0-.243-.107H3.816c-1.008 0-1.84.828-1.84 1.836v10.327c0 1.008.832 1.837 1.84 1.837h7.413c1.008 0 1.84-.829 1.84-1.837v-8.2a.364.364 0 0 0-.099-.237L9.521.081Zm.098 1.086 2.31 2.425h-1.502a.805.805 0 0 1-.808-.805v-1.62Zm1.61 12.13H3.816a1.171 1.171 0 0 1-1.163-1.16V1.81c0-.632.527-1.16 1.163-1.16h5.127v2.137a1.48 1.48 0 0 0 1.484 1.481h1.965v7.87a1.17 1.17 0 0 1-1.163 1.16Z" /><path d="M10.306 10.963H4.739a.34.34 0 0 0-.338.338.34.34 0 0 0 .338.338h5.57a.34.34 0 0 0 .338-.338.34.34 0 0 0-.341-.338ZM7.276 9.749a.34.34 0 0 0 .246.108.34.34 0 0 0 .247-.108l1.982-2.127a.337.337 0 1 0-.494-.46L7.861 8.66V4.967a.34.34 0 0 0-.339-.338.34.34 0 0 0-.338.338V8.66L5.791 7.162a.337.337 0 1 0-.494.46l1.979 2.127Z" /></g><defs></defs></symbol><clipPath id="download_a"><path fill="#fff" transform="translate(.5)" d="M0 0h14v14H0z" /></clipPath><symbol fill="none" viewBox="0 0 50 50" id="laser"><path fill="currentColor" d="M40.15 50H9.85C4.417 50 0 45.582 0 40.15V9.85C0 4.417 4.418 0 9.85 0h30.3C45.583 0 50 4.418 50 9.85v30.3c0 5.432-4.418 9.85-9.85 9.85ZM9.85 1.389c-4.665 0-8.461 3.796-8.461 8.46v30.302c0 4.665 3.795 8.46 8.46 8.46h30.302c4.664 0 8.46-3.794 8.46-8.46V9.849c0-4.664-3.794-8.46-8.46-8.46H9.849Z" /><path fill="currentColor" d="M25.003 15.27c2.6 0 5.043 1.01 6.881 2.849a9.697 9.697 0 0 1 2.843 6.846h2.083a11.773 11.773 0 0 0-3.453-8.319 11.776 11.776 0 0 0-8.408-3.452v2.078l.054-.003Zm6.88 16.61a9.7 9.7 0 0 1-6.935 2.843v2.083l.054.002c3.026 0 6.05-1.152 8.353-3.455 2.167-2.167 3.3-4.974 3.43-7.817h-2.083a9.68 9.68 0 0 1-2.82 6.344h.001Zm-13.761 0a9.652 9.652 0 0 1-2.824-6.344h-2.084a11.754 11.754 0 0 0 11.163 11.242v-2.082a9.68 9.68 0 0 1-6.254-2.816h-.001Zm0-13.761a9.649 9.649 0 0 1 6.255-2.819v-2.078a11.754 11.754 0 0 0-7.729 3.425 11.733 11.733 0 0 0-3.458 8.319h2.083a9.663 9.663 0 0 1 2.849-6.846v-.001ZM25 28.628a3.628 3.628 0 1 0 0-7.256 3.628 3.628 0 0 0 0 7.256Z" /></symbol><symbol fill="none" viewBox="0 0 50 50" id="lens"><g fill="currentColor" clip-path="url(#lens_a)"><path d="M40.15 50.001H9.85c-5.432 0-9.85-4.418-9.85-9.849V9.849C0 4.42 4.418 0 9.85 0h30.3C45.583 0 50 4.418 50 9.85v30.3c0 5.432-4.418 9.85-9.85 9.85v.001ZM9.85 1.39c-4.665 0-8.461 3.796-8.461 8.46v30.302c0 4.665 3.795 8.46 8.46 8.46h30.302c4.664 0 8.46-3.794 8.46-8.46V9.849c0-4.664-3.794-8.46-8.46-8.46H9.849Z" /><path d="M25 36.136c-6.14 0-11.136-4.996-11.136-11.136 0-6.14 4.996-11.136 11.136-11.136 6.14 0 11.137 4.995 11.137 11.136 0 6.14-4.996 11.136-11.137 11.136Zm0-20.19c-4.991 0-9.053 4.062-9.053 9.054S20.01 34.053 25 34.053c4.992 0 9.053-4.061 9.053-9.053 0-4.992-4.061-9.053-9.053-9.053Z" /><path d="M25 31.48A6.486 6.486 0 0 1 18.52 25 6.486 6.486 0 0 1 25 18.523 6.486 6.486 0 0 1 31.478 25 6.486 6.486 0 0 1 25 31.48Zm0-11.569a5.095 5.095 0 0 0-5.09 5.09 5.095 5.095 0 0 0 5.09 5.09A5.095 5.095 0 0 0 30.09 25 5.095 5.095 0 0 0 25 19.91Z" /><path d="M22.32 25.757a.526.526 0 0 1-.525-.526 3.359 3.359 0 0 1 3.355-3.355.526.526 0 0 1 0 1.051 2.307 2.307 0 0 0-2.305 2.304c0 .29-.235.526-.525.526Z" /></g><defs></defs></symbol><clipPath id="lens_a"><path fill="#fff" d="M0 0h50v50.001H0z" /></clipPath><symbol fill="none" viewBox="0 0 121 28" id="logo"><path fill="currentColor" d="M23.303 8.248h-5.365v-.88c0-.241.08-1.522-1.121-2.483-1.065-.852-3.037-1.019-4.805-.48-1.842.56-3.043 2.32-3.043 3.683 0 1.361.96 2.322 1.842 2.723 1.213.551 3.683.96 5.845 1.521 1.922.498 3.844 1.762 4.805 3.443.824 1.442.622 3.284.4 4.245-.24 1.04-.957 2.887-2.642 4.404-1.602 1.441-3.924 2.402-5.846 2.883-1.281.32-4.885.64-7.367.24-2.483-.4-4.244-1.521-5.045-2.803C.16 23.463 0 22.102 0 21.301c0-.64.16-1.815.24-2.322h5.766c-.08.64-.08 1.185-.08 1.761 0 .721.16 1.362 1.04 2.323.882.96 2.483 1.04 3.524.96 1.041-.08 2.803-.565 3.844-1.36 1.041-.797 1.522-1.762 1.522-2.803s-.619-1.75-1.602-2.323c-.96-.56-3.844-1.361-4.164-1.441-.32-.08-3.524-.801-5.205-2.162-1.657-1.342-1.925-2.098-2.082-2.883-.08-.4-.08-1.201-.08-1.522 0-.24.16-2.242 1.521-4.164C5.606 3.443 6.727 2.482 8.97 1.361c2.242-1.12 3.603-1.2 4.244-1.28A16.345 16.345 0 0 1 14.574 0h1.922c1.362 0 2.764.541 3.444.88.8.401 2.002 1.362 2.722 2.483.721 1.121.801 2.563.801 3.284 0 .576-.107 1.307-.16 1.601Z" /><path fill="currentColor" fill-rule="evenodd" d="M23.143 19.94c.08-1.495.657-4.981 2.322-6.967 2.082-2.483 4.084-3.844 6.967-4.325 2.883-.48 5.205-.24 6.807.48 1.602.722 3.764 2.804 3.684 6.808-.08 4.003-1.602 7.607-4.885 9.85-3.283 2.241-7.047 2.001-8.168 1.921-1.121-.08-4.164-.72-5.446-2.963-1.28-2.242-1.335-4.164-1.28-4.805Zm8.729 4.484c-.508.027-1.682-.128-2.323-.961-.8-1.041-.8-2.563-.8-3.283 0-.721.32-3.444 1.28-5.205.962-1.762 2.243-3.204 4.085-3.204s2.322.641 2.723 1.202c.4.56.56 1.922.56 3.203s-.4 4.404-1.762 6.246c-1.089 1.473-2.936 1.975-3.763 2.002Zm51.023-4.474c.08-1.495.657-4.982 2.322-6.968C87.3 10.5 89.301 9.14 92.184 8.658c2.883-.48 5.205-.24 6.807.48 1.601.721 3.764 2.803 3.683 6.807-.08 4.004-1.601 7.608-4.884 9.85-3.284 2.242-7.047 2.002-8.168 1.922-1.121-.08-4.165-.72-5.446-2.963-1.281-2.242-1.335-4.164-1.281-4.805Zm8.729 4.484c-.508.026-1.682-.128-2.323-.961-.8-1.041-.8-2.563-.8-3.284 0-.72.32-3.443 1.28-5.205.962-1.761 2.243-3.203 4.085-3.203s2.322.64 2.722 1.201c.4.561.561 1.922.561 3.204 0 1.28-.4 4.404-1.762 6.246-1.089 1.473-2.936 1.975-3.763 2.002Z" clip-rule="evenodd" /><path fill="currentColor" d="M120.999 15.375h-5.526c0-.4.064-.432 0-1.521-.08-1.362-1.121-2.002-2.002-2.002-1.041 0-1.704.417-2.803 2.322-1.201 2.082-1.669 6.18-1.441 7.928.24 1.842 1.281 2.242 2.002 2.242.721 0 1.762-.4 2.482-1.201.546-.606.775-1.789.801-2.322h5.446c-.267.827-.881 2.594-1.202 3.042l-.013.019c-.408.571-1.367 1.915-3.11 2.944-1.761 1.041-6.886 1.442-9.289-.16-2.402-1.601-2.803-4.164-2.722-6.326.08-2.162.48-5.125 3.043-8.488 2.562-3.364 6.806-3.524 7.687-3.524.881 0 2.139-.178 4.404 1.201 1.842 1.122 2.269 2.777 2.243 3.524v2.322ZM46.045 8.809l5.205 2.322c.4-.64 2.002-1.842 2.483-2.082.48-.24 2.482-1.361 6.166-.24 3.683 1.12 2.802 6.006 2.642 7.047-.128.832-1.388 8.088-2.002 11.611h-5.685c.64-3.203 1.953-9.93 2.082-11.211.16-1.602.4-4.324-2.643-4.484-2.434-.129-3.844 2.936-4.244 4.484l-1.842 11.211h-5.605l3.443-18.658Zm19.459-.071 5.205 2.322c.4-.64 2.002-1.842 2.483-2.082.48-.24 2.482-1.361 6.166-.24C83.04 9.859 82.16 14.744 82 15.785c-.128.833-1.388 8.088-2.002 11.611h-5.685c.64-3.203 1.953-9.93 2.082-11.21.16-1.602.4-4.325-2.643-4.485-2.434-.128-3.844 2.936-4.244 4.484l-1.842 11.211h-5.605l3.443-18.658Z" /></symbol><symbol fill="none" viewBox="0 0 28 28" id="performance"><g fill="#125AA3" clip-path="url(#performance_a)"><path d="M15.364.003c1.411.136 2.759.478 4.013.997l.024.01a14.055 14.055 0 0 1 3.56 2.146.437.437 0 0 1 .03.647l-2.27 2.267a.441.441 0 0 1-.608.012 9.965 9.965 0 0 0-2.293-1.328l-.021-.01a9.883 9.883 0 0 0-2.57-.67.438.438 0 0 1-.386-.435V.434a.44.44 0 0 1 .52-.431Zm3.677 1.806a13.122 13.122 0 0 0-3.319-.886v2.336c.838.132 1.646.363 2.412.678l.023.009c.787.325 1.529.742 2.212 1.235l1.655-1.652a13.203 13.203 0 0 0-2.96-1.712l-.023-.008Zm-6.284 2.268A9.929 9.929 0 0 0 7.86 6.104a.44.44 0 0 1-.579-.035H7.28L5.01 3.804a.438.438 0 0 1 .047-.662A14.052 14.052 0 0 1 8.646.991a14.023 14.023 0 0 1 4.032-.992.438.438 0 0 1 .475.396l.002.04h.002V3.64a.44.44 0 0 1-.4.437Zm-2.911-.131c.771-.32 1.586-.553 2.432-.687V.923A13.111 13.111 0 0 0 5.976 3.53l1.656 1.652a10.85 10.85 0 0 1 2.214-1.236Zm-3.747 3.92a9.886 9.886 0 0 0-2.012 4.874.439.439 0 0 1-.436.384H.44a.438.438 0 0 1-.432-.519 13.91 13.91 0 0 1 1-4.002V8.6a14.013 14.013 0 0 1 2.16-3.577.44.44 0 0 1 .617-.058c.012.009.022.019.032.028l2.27 2.266a.438.438 0 0 1 .013.606ZM3.958 9.819c.327-.786.744-1.527 1.238-2.208L3.541 5.96a13.192 13.192 0 0 0-1.725 2.977 13.034 13.034 0 0 0-.888 3.312H3.27c.136-.845.369-1.657.689-2.429Zm20.89-4.779a14.03 14.03 0 0 1 2.146 3.561c.524 1.265.87 2.624 1.003 4.046a.438.438 0 0 1-.436.476v.001H24.35a.439.439 0 0 1-.438-.398 9.846 9.846 0 0 0-.678-2.572h-.002a9.954 9.954 0 0 0-1.352-2.316.436.436 0 0 1 .035-.577l-.001-.001 2.271-2.267a.44.44 0 0 1 .663.047Zm1.336 3.894a13.125 13.125 0 0 0-1.726-2.974l-1.655 1.65c.496.682.913 1.422 1.239 2.208v.002c.32.77.553 1.583.688 2.427h2.342a13.095 13.095 0 0 0-.888-3.314Zm1.809 6.393a13.99 13.99 0 0 1-4.535 9.019A14.023 14.023 0 0 1 14 27.995c-3.641 0-6.96-1.382-9.458-3.65a13.988 13.988 0 0 1-4.539-9.061.437.437 0 0 1 .436-.477v-.002H3.65a.44.44 0 0 1 .437.399 9.944 9.944 0 0 0 3.3 6.233A9.962 9.962 0 0 0 14 23.932a9.965 9.965 0 0 0 6.611-2.494 9.942 9.942 0 0 0 3.302-6.246.438.438 0 0 1 .436-.385h3.212a.44.44 0 0 1 .432.52Zm-5.125 8.371a13.125 13.125 0 0 0 4.204-8.014H24.73a10.823 10.823 0 0 1-3.54 6.409A10.837 10.837 0 0 1 14 24.809a10.834 10.834 0 0 1-7.191-2.716 10.823 10.823 0 0 1-3.54-6.41H.93a13.124 13.124 0 0 0 4.203 8.015A13.147 13.147 0 0 0 14 27.119a13.15 13.15 0 0 0 8.868-3.421Z" /><path d="M17.052 12.754a3.27 3.27 0 0 1-1.838 4.257 3.285 3.285 0 0 1-4.267-1.834 3.27 3.27 0 0 1 1.838-4.257 3.282 3.282 0 0 1 4.267 1.834Zm-.84 2.161a2.396 2.396 0 0 0-1.26-3.157 2.402 2.402 0 0 0-3.164 1.256 2.398 2.398 0 0 0 1.259 3.158 2.409 2.409 0 0 0 3.164-1.257Z" /><path d="m15.7 11.299 5.556-1.136a.827.827 0 0 1 .584.098.889.889 0 0 1 .377.442.893.893 0 0 1 .03.578.829.829 0 0 1-.357.472l-4.84 2.999a.44.44 0 0 1-.666-.436 2.42 2.42 0 0 0-.145-1.24 2.382 2.382 0 0 0-.31-.549 2.32 2.32 0 0 0-.438-.45.438.438 0 0 1 .21-.778Zm5.702-.274-4.77.976h.001a3.29 3.29 0 0 1 .632 1.586l4.137-2.562Zm-6.012 2.389a1.486 1.486 0 0 1-.838 1.937 1.493 1.493 0 0 1-1.94-.835l-.003-.005a1.479 1.479 0 0 1 .017-1.136c.15-.35.437-.642.822-.795l.005-.002a1.49 1.49 0 0 1 1.936.836Zm-.822.795a.617.617 0 0 0 .008-.473.621.621 0 0 0-1.143-.015.61.61 0 0 0 .323.81.617.617 0 0 0 .811-.322Zm-6.98-1.499a.44.44 0 0 1-.86-.167 7.498 7.498 0 0 1 .509-1.597.438.438 0 0 1 .8.357 6.199 6.199 0 0 0-.266.69 6.663 6.663 0 0 0-.183.717Zm2.086-3.634a.44.44 0 0 1-.618-.037.435.435 0 0 1 .037-.616 7.329 7.329 0 0 1 2.168-1.327 7.394 7.394 0 0 1 4.356-.348 7.442 7.442 0 0 1 3.806 2.174.437.437 0 1 1-.643.596 6.549 6.549 0 0 0-9.106-.442Zm2.342 9.604h3.967a1.496 1.496 0 0 1 1.497 1.495c0 .409-.169.782-.439 1.053v.002c-.27.27-.646.438-1.058.438h-3.967c-.41 0-.784-.168-1.056-.438l-.001-.002a1.483 1.483 0 0 1 0-2.108c.008-.01.018-.018.028-.026a1.49 1.49 0 0 1 1.029-.413Zm3.966.878h-3.966a.62.62 0 0 0-.42.164l-.016.017a.615.615 0 0 0 .435 1.052h3.967a.62.62 0 0 0 .437-.182l.001.001a.616.616 0 0 0-.438-1.052Z" /></g><defs></defs></symbol><clipPath id="performance_a"><path fill="#fff" d="M0 0h28v28H0z" /></clipPath><symbol fill="none" viewBox="0 0 28 28" id="profiles"><path fill="#125AA3" d="M19.848 0H3.77c-.905 0-1.641.736-1.641 1.64v5.58a.547.547 0 0 0 1.094 0V1.64c0-.302.245-.547.547-.547h16.078c.301 0 .547.245.547.547v20.343a.547.547 0 0 1-.547.547H3.77a.547.547 0 0 1-.547-.547V11.831a.547.547 0 0 0-1.094 0v10.153c0 .905.736 1.641 1.64 1.641h16.079c.904 0 1.64-.736 1.64-1.64V1.64c0-.905-.736-1.641-1.64-1.641Z" /><path fill="#125AA3" d="M3.062 9.28a.55.55 0 0 0-.773 0 .553.553 0 0 0-.16.387c0 .145.058.285.16.387a.551.551 0 0 0 .934-.387.552.552 0 0 0-.16-.386Zm2.192 15.602a.55.55 0 0 0-.773 0 .55.55 0 0 0 .387.933.548.548 0 0 0 .386-.933ZM23.133 2.19a.547.547 0 0 0-.547.548v21.437a.548.548 0 0 1-.547.547H7.055a.547.547 0 1 0 0 1.094h14.984c.905 0 1.64-.736 1.64-1.64V2.737a.547.547 0 0 0-.546-.547Z" /><path fill="#125AA3" d="M25.324 4.375a.547.547 0 0 0-.547.547v21.437a.547.547 0 0 1-.547.547H7.06a.547.547 0 0 0 0 1.094h17.17c.904 0 1.64-.736 1.64-1.64V4.921a.547.547 0 0 0-.547-.547Zm-14.336-.328h-5.25a.547.547 0 0 0-.547.547v5.25c0 .302.245.547.547.547h5.25a.547.547 0 0 0 .547-.547v-5.25a.547.547 0 0 0-.547-.547Zm-.547 5.25H6.285V5.14h4.156v4.156ZM9.23 12.873a.547.547 0 0 0-.774 0l-1.454 1.454-.676-.676a.547.547 0 0 0-.773.774l1.062 1.062a.547.547 0 0 0 .774 0l1.84-1.84a.547.547 0 0 0 0-.774Z" /><path fill="#125AA3" d="M18.189 13.617h-6.38a.547.547 0 1 0 0 1.094h6.38a.547.547 0 1 0 0-1.094Zm-.31-9.57H14.05a.547.547 0 0 0 0 1.094h3.828a.547.547 0 0 0 0-1.094Zm0 2.625H14.05a.547.547 0 0 0 0 1.094h3.828a.547.547 0 0 0 0-1.094Zm0 2.625H14.05a.547.547 0 0 0 0 1.094h3.828a.547.547 0 1 0 0-1.094ZM9.23 17.05a.547.547 0 0 0-.774 0l-1.454 1.454-.676-.676a.547.547 0 0 0-.773.773l1.062 1.063a.547.547 0 0 0 .774 0l1.84-1.84a.547.547 0 0 0 0-.774Zm8.959.723h-6.38a.547.547 0 0 0 0 1.094h6.38a.547.547 0 1 0 0-1.094Z" /></symbol><symbol fill="none" viewBox="0 0 14 15" id="search"><path stroke="currentColor" stroke-linecap="round" stroke-linejoin="round" stroke-width="1.5" d="M10.333 10.833 13 13.5M1 6.833a5.333 5.333 0 1 0 10.667 0A5.333 5.333 0 0 0 1 6.833Z" /></symbol><symbol fill="none" viewBox="0 0 28 28" id="technology"><g fill="#125AA3" clip-path="url(#technology_a)"><path d="M12.09 24.606c-.254 0-.424-.17-.424-.424V4.752c0-.255.17-.425.424-.425.255 0 .425.17.425.425v19.43c0 .255-.17.424-.425.424Zm-7.042-6.873c-1.23 0-2.163-.933-2.163-2.163 0-1.23.933-2.164 2.163-2.164.255 0 .425.17.425.425 0 .254-.17.424-.425.424-.72 0-1.315.594-1.315 1.315s.594 1.315 1.315 1.315c.255 0 .425.17.425.424 0 .255-.17.424-.425.424Zm5.048-12.812c-.254 0-.424-.17-.424-.424 0-.721-.594-1.315-1.315-1.315s-1.315.594-1.315 1.315c0 .255-.17.424-.424.424-.255 0-.425-.17-.425-.424 0-1.23.934-2.163 2.164-2.163s2.164.933 2.164 2.163c0 .255-.17.424-.425.424Zm-.89 21.043c-.509 0-.976-.212-1.315-.552a2.001 2.001 0 0 1-.51-1.357c0-.255.213-.425.467-.382.255 0 .425.212.382.466 0 .255.085.552.255.722.17.212.424.297.721.297.594 0 1.06-.425 1.06-.976 0-.255.17-.424.425-.424.254 0 .424.17.424.424 0 .976-.848 1.782-1.909 1.782Zm-1.4-12.049H7.68a1.59 1.59 0 0 1-1.06-1.909c.17-.636.678-1.06 1.357-1.103h.212c.255 0 .424.17.424.424 0 .255-.17.425-.424.425h-.17c-.254.042-.509.212-.551.509-.127.382.127.763.467.89a.46.46 0 0 1 .297.51c-.085.127-.255.254-.425.254Z" /><path d="M12.133 8.612c-.254 0-.424-.17-.424-.424v-.17c-.042-.254-.212-.509-.509-.551-.382-.127-.763.127-.89.466a.46.46 0 0 1-.51.297.46.46 0 0 1-.297-.509 1.59 1.59 0 0 1 1.91-1.06c.636.17 1.06.679 1.102 1.357v.212c.043.213-.127.382-.382.382Zm0 3.267c-.254 0-.424-.17-.424-.424v-.17c-.042-.255-.212-.51-.509-.552-.382-.127-.763.128-.89.467a.46.46 0 0 1-.51.297.46.46 0 0 1-.297-.51 1.59 1.59 0 0 1 1.91-1.06c.636.17 1.06.68 1.102 1.358v.212c.043.212-.127.382-.382.382Zm-5.515 3.309c-.212 0-.382-.17-.424-.382-.042-.382.042-.806.297-1.103.255-.34.679-.551 1.103-.551.382-.043.764.042 1.06.296.34.255.552.68.552 1.104 0 .254-.17.424-.382.466a.462.462 0 0 1-.466-.382.605.605 0 0 0-.255-.509.479.479 0 0 0-.467-.127.661.661 0 0 0-.509.255.476.476 0 0 0-.127.466c.043.212-.127.467-.34.467h-.042Zm5.515 3.649c-.212 0-.424-.17-.424-.382-.043-.424-.34-.764-.764-.891-.509-.17-1.103.17-1.272.721-.043.212-.297.34-.51.297-.212-.042-.339-.297-.296-.51a1.883 1.883 0 0 1 2.29-1.314c.764.212 1.316.89 1.358 1.654.042.212-.127.425-.382.425Z" /><path d="M7.891 19.855c-.212 0-.424-.17-.424-.382 0-.255.17-.424.382-.467a.882.882 0 0 0 .678-.34c.17-.211.255-.466.213-.72-.043-.51-.467-1.019-1.103-.976a.497.497 0 0 1-.467-.382c0-.255.17-.424.382-.467.976-.042 1.866.722 1.951 1.74.043.466-.085.976-.424 1.357-.212.382-.679.594-1.188.637ZM6.745 8.358c-.042 0-.127 0-.17-.043-.678-.34-1.272-.848-1.654-1.485a3.998 3.998 0 0 1-.255-4.072C5.642.72 8.145-.17 10.181.764c1.528.72 2.461 2.333 2.376 3.988 0 .254-.212.424-.466.381-.255 0-.425-.212-.382-.466a3.274 3.274 0 0 0-1.867-3.14C8.187.764 6.236 1.485 5.43 3.097a3.245 3.245 0 0 0 .212 3.224c.34.51.764.934 1.315 1.188.212.085.297.34.212.552-.127.212-.254.297-.424.297ZM9.29 27.576h-.127a3.325 3.325 0 0 1-2.29-1.06c-1.23-1.316-1.146-3.395.212-4.625.17-.17.424-.17.594.042.17.17.17.425-.043.594-.976.891-1.018 2.46-.127 3.437a2.277 2.277 0 0 0 1.697.763c.636.043 1.273-.212 1.74-.636.55-.467.848-1.23.763-1.994-.043-.212.127-.424.382-.467.254 0 .424.128.466.382.085 1.018-.297 2.037-1.018 2.715-.636.51-1.442.849-2.248.849Z" /><path d="M3.563 12.176a.506.506 0 0 1-.382-.212c-.678-1.146-.763-2.546-.254-3.691.424-.933 1.188-1.697 2.164-2.036.212-.085.466.042.551.254.085.212-.042.467-.255.552a2.816 2.816 0 0 0-1.654 1.612 3.118 3.118 0 0 0 .17 2.927.457.457 0 0 1-.128.594h-.212Z" /><path d="M5.812 21.17c-2.927 0-5.218-2.291-5.218-5.218a5.214 5.214 0 0 1 5.218-5.219c.254 0 .424.17.424.425 0 .254-.17.424-.424.424a4.363 4.363 0 0 0-4.37 4.37c0 2.46 1.91 4.37 4.37 4.37.254 0 .424.169.424.424 0 .254-.17.424-.424.424Z" /><path d="M6.152 25.03h-.043c-1.315-.17-2.376-1.06-2.757-2.29a3.233 3.233 0 0 1 .212-2.588c.085-.213.34-.297.509-.213.212.085.297.34.17.552-.297.594-.34 1.358-.128 1.951.297.934 1.103 1.613 2.079 1.698a.497.497 0 0 1 .382.466c-.043.255-.212.424-.424.424Zm5.981-.424c-.254 0-.424-.17-.424-.424V4.752c0-.255.17-.425.424-.425.255 0 .425.17.425.425v19.43c0 .255-.17.424-.425.424Z" /><path d="M16.079 16.97h-3.946c-.254 0-.424-.17-.424-.425v-5.09c0-.255.17-.425.424-.425h3.946c.254 0 .424.17.424.425v5.09c0 .255-.17.425-.424.425Zm-3.522-.849h3.097V11.88h-3.097v4.242Z" /><path d="M16.545 19.049H12.09c-.254 0-.424-.17-.424-.425V9.376c0-.255.17-.424.424-.424h4.455c1.06 0 1.994.933 1.994 1.994v6.109a1.992 1.992 0 0 1-1.994 1.994Zm-4.03-.849h4.03a1.14 1.14 0 0 0 1.145-1.145v-6.11c0-.593-.551-1.145-1.145-1.145h-4.03v8.4Z" /><path d="M22.443 14.255h-4.2c-.255 0-.425-.17-.425-.425 0-.254.17-.424.425-.424h4.2c.254 0 .424.17.424.425 0 .254-.17.424-.424.424Z" /><path d="M24.097 15.57a1.72 1.72 0 0 1-1.74-1.74c0-.975.764-1.739 1.74-1.739s1.74.764 1.74 1.74a1.72 1.72 0 0 1-1.74 1.739Zm0-2.63a.87.87 0 0 0-.891.89c0 .51.382.891.89.891a.87.87 0 0 0 .892-.89.87.87 0 0 0-.891-.891Zm-8.994-3.225c-.255 0-.424-.17-.424-.424v-4.2c0-.255.17-.424.424-.424.255 0 .424.17.424.424v4.2c0 .255-.17.424-.424.424Z" /><path d="M15.103 5.176a1.72 1.72 0 0 1-1.74-1.74 1.72 1.72 0 0 1 1.74-1.739c.975 0 1.74.764 1.74 1.74a1.72 1.72 0 0 1-1.74 1.739Zm0-2.63a.87.87 0 0 0-.891.89c0 .51.382.891.89.891a.87.87 0 0 0 .892-.89.87.87 0 0 0-.891-.891Zm0 20.787c-.255 0-.424-.17-.424-.424v-4.2c0-.254.17-.424.424-.424.255 0 .424.17.424.424v4.2c0 .255-.17.424-.424.424Z" /><path d="M15.103 26.303a1.72 1.72 0 0 1-1.74-1.74 1.72 1.72 0 0 1 1.74-1.739c.975 0 1.74.764 1.74 1.74a1.72 1.72 0 0 1-1.74 1.739Zm0-2.63a.87.87 0 0 0-.891.89c0 .51.382.892.89.892a.87.87 0 0 0 .892-.891.87.87 0 0 0-.891-.891Zm10.563-3.182a1.72 1.72 0 0 1-1.74-1.74c0-.975.764-1.739 1.74-1.739s1.74.764 1.74 1.74a1.72 1.72 0 0 1-1.74 1.739Zm0-2.63a.87.87 0 0 0-.89.89c0 .51.381.891.89.891a.87.87 0 0 0 .891-.89.87.87 0 0 0-.89-.891Z" /><path d="M24.055 19.176h-2.716c-.254 0-.424-.17-.424-.424v-1.485h-2.46c-.255 0-.425-.17-.425-.424 0-.255.17-.425.424-.425h2.885c.255 0 .425.17.425.425v1.484h2.29c.255 0 .425.17.425.424 0 .255-.17.425-.424.425Zm1.611-8.57a1.72 1.72 0 0 1-1.74-1.74c0-.975.764-1.739 1.74-1.739s1.74.764 1.74 1.74a1.72 1.72 0 0 1-1.74 1.74Zm0-2.63a.87.87 0 0 0-.89.89c0 .51.381.892.89.892a.87.87 0 0 0 .891-.891.87.87 0 0 0-.89-.891Z" /><path d="M21.34 11.2h-3.097c-.255 0-.425-.17-.425-.424 0-.255.17-.425.425-.425h2.672V8.867c0-.255.17-.425.425-.425h2.715c.254 0 .424.17.424.425 0 .254-.17.424-.424.424h-2.291v1.485c0 .254-.17.424-.424.424Z" /></g><defs></defs></symbol><clipPath id="technology_a"><path fill="#fff" d="M0 0h28v28H0z" /></clipPath><symbol fill="none" viewBox="0 0 28 28" id="watch"><g clip-path="url(#watch_a)"><g stroke="#125AA3" stroke-linecap="round" stroke-linejoin="round" mask="url(#watch_b)"><path stroke-miterlimit="22.926" d="M4.115 6.168a6 6 0 0 1-2.146.394c0 1.188.025 2.37.093 3.533m23.876 0c.067-1.164.093-2.345.093-3.533A6.016 6.016 0 0 1 20.016.547H7.983c0 .793-.153 1.55-.432 2.243M3.103 16.811C4.519 21.751 7.587 25.735 14 27.453c6.413-1.718 9.48-5.702 10.897-10.642" /><path stroke-miterlimit="22.926" d="M14 21.984c4.699 0 8.531-3.832 8.531-8.53 0-4.7-3.832-8.532-8.531-8.532-4.699 0-8.531 3.832-8.531 8.531 0 4.699 3.832 8.531 8.531 8.531Z" /><path stroke-miterlimit="22.926" d="M6.056 16.734H.546l1.696-3.28-1.695-3.282h5.51m15.887 0h5.51l-1.696 3.281 1.695 3.281h-5.51M14 5.113v.903m-4.17.214.451.782M6.777 9.283l.782.451M5.66 13.453h.902m.215 4.17.782-.451m2.271 3.503.451-.78M14 21.793v-.902m4.17-.216-.451-.78m3.504-2.272-.782-.451m1.899-3.719h-.902m-.215-4.17-.782.451M18.17 6.23l-.451.782M14 14.547c.602 0 1.094-.492 1.094-1.094 0-.602-.492-1.094-1.094-1.094-.602 0-1.094.492-1.094 1.094 0 .603.492 1.094 1.094 1.094Zm0-6.344v4.156m1.094 1.094h3.062" /><path stroke-miterlimit="2.613" d="M6.186 4.837h0" /></g></g><defs></defs></symbol><mask id="watch_b" width="28" height="28" x="0" y="0" maskUnits="userSpaceOnUse" style="mask-type:luminance"><path fill="#fff" d="M0 0h28v28H0V0Z" /></mask><clipPath id="watch_a"><path fill="#fff" d="M0 0h28v28H0z" /></clipPath></defs></svg>