<svg width="151" height="150" viewBox="0 0 151 150" fill="none" xmlns="http://www.w3.org/2000/svg">
<g clip-path="url(#clip0)">
<path d="M149.642 0.858398C149.097 0.313477 148.341 0 147.57 0H3.42969C2.65918 0 1.90332 0.313477 1.3584 0.858398C0.813477 1.40332 0.5 2.15918 0.5 2.92969V147.07C0.5 147.844 0.813477 148.597 1.3584 149.141C1.90332 149.687 2.65918 150 3.42969 150H147.57C148.341 150 149.093 149.687 149.641 149.141C150.187 148.597 150.5 147.841 150.5 147.07V31.0547C150.5 29.4404 149.185 28.125 147.57 28.125C145.956 28.125 144.644 29.4375 144.641 31.0518V31.0547V144.141H6.35938V5.85938H144.641V7.61719C144.641 9.23145 145.953 10.5469 147.57 10.5469C149.185 10.5469 150.5 9.23145 150.5 7.61719V2.92969C150.5 2.15918 150.187 1.40332 149.642 0.858398Z" fill="#0047BA"/>
<path d="M147.57 22.2656C149.188 22.2656 150.5 20.954 150.5 19.3359C150.5 17.7179 149.188 16.4062 147.57 16.4062C145.952 16.4062 144.641 17.7179 144.641 19.3359C144.641 20.954 145.952 22.2656 147.57 22.2656Z" fill="#0047BA"/>
<path d="M16.9055 13.4766C15.2875 13.4766 13.9758 14.7882 13.9758 16.4062V133.594C13.9758 135.212 15.2875 136.523 16.9055 136.523H134.093C135.711 136.523 137.023 135.212 137.023 133.594V16.4062C137.023 14.7882 135.711 13.4766 134.093 13.4766H16.9055ZM127.02 19.3359L114.648 31.7077L102.277 19.3359H127.02ZM102.19 91.6017L114.648 79.1435L127.106 91.6017H102.19ZM127.193 97.461L114.648 110.006L102.104 97.461H127.193ZM102.19 58.3986H127.107L114.648 70.8568L102.19 58.3986ZM102.103 52.5393L114.648 39.9943L127.193 52.5393H102.103ZM97.9603 23.3063L110.505 35.8512L97.9603 48.3958V23.3063ZM97.9603 62.4554L110.505 75L97.9603 87.5446V62.4554ZM87.8708 19.3359L75.499 31.7077L63.1275 19.3359H87.8708ZM63.0408 91.6017L75.499 79.1435L87.9572 91.6017H63.0408ZM88.0439 97.461L75.4993 110.006L62.9546 97.461H88.0439ZM63.0408 58.3983H87.9572L75.499 70.8565L63.0408 58.3983ZM62.9543 52.539L75.4993 39.994L88.0442 52.539H62.9543ZM58.8976 23.3927L71.3558 35.8509L58.8976 48.3091V23.3927ZM58.8976 62.5418L71.3558 75L58.8976 87.4582V62.5418ZM48.7216 19.3359L36.3498 31.7077L23.9784 19.3359H48.7216ZM23.8916 91.6017L36.3501 79.1435L48.8083 91.6017H23.8916ZM48.8948 97.461L36.3501 110.006L23.8055 97.461H48.8948ZM23.8916 58.3983H48.8086L36.3501 70.8568L23.8916 58.3983ZM23.8052 52.539L36.3498 39.9943L48.8945 52.539H23.8052ZM19.8352 23.4794L32.207 35.8509L19.8352 48.2227V23.4794ZM19.8352 62.6285L32.2067 75L19.8349 87.3718V62.6285H19.8352ZM19.8352 101.778L32.207 114.149L19.8352 126.521V101.778ZM23.9784 130.664L36.3501 118.292L48.7216 130.664H23.9784ZM53.0382 126.694L40.4933 114.149L53.0382 101.604V126.694ZM53.0382 87.5449L40.4933 75L53.0382 62.4551V87.5449ZM53.0382 48.3958L40.4933 35.8509L53.0382 23.306V48.3958ZM58.8976 101.691L71.3558 114.149L58.8976 126.607V101.691ZM63.1275 130.664L75.4993 118.292L87.8708 130.664H63.1275ZM92.1009 126.608L79.6427 114.149L92.1009 101.691V126.608ZM92.1009 87.4585L79.6424 75L92.1006 62.5418V87.4585H92.1009ZM92.1009 48.3094L79.6427 35.8512L92.1009 23.3927V48.3094ZM97.9603 101.604L110.505 114.149L97.9603 126.694V101.604ZM102.277 130.664L114.648 118.292L127.02 130.664H102.277ZM131.163 126.521L118.792 114.149L131.163 101.777V126.521ZM131.163 87.3718L118.792 75L131.163 62.6282V87.3718ZM131.163 48.2227L118.792 35.8509L131.163 23.4791V48.2227Z" fill="#1A75CF"/>
</g>
<defs>
<clipPath id="clip0">
<rect width="150" height="150" fill="white" transform="translate(0.5)"/>
</clipPath>
</defs>
</svg>
