<svg width="151" height="150" viewBox="0 0 151 150" fill="none" xmlns="http://www.w3.org/2000/svg">
<g clip-path="url(#clip0)">
<path d="M20.5009 102.5H18.001C16.6203 102.5 15.501 103.619 15.501 105V107.5C15.501 108.88 16.6203 110 18.001 110H20.5009C21.8816 110 23.0009 108.88 23.0009 107.5V105C23.0009 103.619 21.8816 102.5 20.5009 102.5Z" fill="#0047BA"/>
<path d="M138 132.5H135.5C134.12 132.5 133 133.619 133 134.999V137.499C133 138.88 134.12 139.999 135.5 139.999H138C139.381 139.999 140.5 138.88 140.5 137.499V134.999C140.5 133.619 139.381 132.5 138 132.5Z" fill="#0047BA"/>
<path d="M123 132.5H120.5C119.12 132.5 118 133.619 118 134.999V137.499C118 138.88 119.12 139.999 120.5 139.999H123C124.381 139.999 125.5 138.88 125.5 137.499V134.999C125.5 133.619 124.381 132.5 123 132.5Z" fill="#0047BA"/>
<path d="M108.001 132.5H105.501C104.12 132.5 103.001 133.619 103.001 134.999V137.499C103.001 138.88 104.12 139.999 105.501 139.999H108.001C109.381 139.999 110.501 138.88 110.501 137.499V134.999C110.501 133.619 109.381 132.5 108.001 132.5Z" fill="#0047BA"/>
<path d="M93.0004 132.5H90.5005C89.1199 132.5 88.0005 133.619 88.0005 134.999V137.499C88.0005 138.88 89.1199 139.999 90.5005 139.999H93.0004C94.3811 139.999 95.5004 138.88 95.5004 137.499V134.999C95.5004 133.619 94.3811 132.5 93.0004 132.5Z" fill="#0047BA"/>
<path d="M148.003 15.0002C148.002 15.0002 148.001 15.0002 148 15.0002H128V2.50028C128.001 1.12092 126.884 0.00154785 125.504 0.000610352C125.343 0.000610352 125.182 0.0159228 125.024 0.0468601L47.5241 15.0468L47.5335 15.0946C46.3648 15.3021 45.5098 16.3133 45.5004 17.5005V27.5004C45.4995 28.8804 46.6176 29.9995 47.9976 30.0004C47.9985 30.0004 47.9995 30.0004 48.0004 30.0004V47.5003H43.0004C41.6204 47.4994 40.5014 48.6175 40.5004 49.9975C40.5004 49.9984 40.5004 49.9994 40.5004 50.0003V57.5003H35.5005C34.1205 57.4993 33.0014 58.6174 33.0005 59.9974C33.0005 59.9984 33.0005 59.9993 33.0005 60.0002V80.0001C32.9996 81.3801 34.1177 82.4992 35.4977 82.5001C35.4986 82.5001 35.4995 82.5001 35.5005 82.5001H65.5003C66.8803 82.501 67.9993 81.3829 68.0003 80.0029C68.0003 80.002 68.0003 80.0011 68.0003 80.0001V60.0002C68.0012 58.6202 66.8831 57.5012 65.5031 57.5003C65.5022 57.5003 65.5012 57.5003 65.5003 57.5003H60.5003V50.0003C60.5013 48.6203 59.3831 47.5013 58.0031 47.5003C58.0022 47.5003 58.0013 47.5003 58.0003 47.5003H53.0004V30.0004H100.086L85.8555 122.5H80.5002C79.1202 122.499 78.0011 123.617 78.0002 124.997C78.0002 124.998 78.0002 124.999 78.0002 125V147.5C77.9993 148.88 79.1174 149.999 80.4974 150C80.4983 150 80.4993 150 80.5002 150H148C149.38 150.001 150.499 148.882 150.5 147.503C150.5 147.502 150.5 147.501 150.5 147.5V125C150.501 123.62 149.383 122.501 148.003 122.5C148.002 122.5 148.001 122.5 148 122.5H142.644L128.414 30.0004H148C149.38 30.0014 150.499 28.8832 150.5 27.5033C150.5 27.5023 150.5 27.5014 150.5 27.5004V17.5005C150.501 16.1202 149.383 15.0011 148.003 15.0002ZM123 5.52995V15.0002H74.0702L123 5.52995ZM63.0003 62.4999V77.4998H38.0005V62.4999H63.0003ZM55.5003 52.5V57.4999H45.5004V52.5H55.5003ZM99.9498 63.7702L127.109 77.3486L95.7501 91.0685L99.9498 63.7702ZM121.996 45.2053L101.206 55.6015L103.962 37.6876L121.996 45.2053ZM104.745 32.5973L105.145 30.0001H123.355L125.057 41.0654L104.745 32.5973ZM145.5 127.5V144.999H83.0002V127.5H145.5ZM137.585 122.5H90.9151L94.5829 98.6575L137.382 121.181L137.585 122.5ZM136.436 115.034L98.7616 95.2072L131.203 81.0139L136.436 115.034ZM130.002 73.2055L103.591 60.0002L126.229 48.6812L130.002 73.2055ZM145.5 25.0001H50.5004V20.0002H145.5V25.0001Z" fill="#0047BA"/>
<path d="M70.8936 116.174C70.4368 115.444 69.6361 115 68.7746 115H33.0007V94.9997C33.0017 93.6197 31.8836 92.5007 30.5036 92.4998C30.5026 92.4998 30.5017 92.4998 30.5008 92.4998H8.00089C6.6209 92.4988 5.50185 93.6169 5.50091 94.9969C5.50091 94.9979 5.50091 94.9988 5.50091 94.9997V115H3.00092C1.62062 114.999 0.500938 116.117 0.500001 117.497C0.499688 117.86 0.578438 118.218 0.730312 118.547L12.9009 144.923C12.6562 144.965 12.409 144.99 12.1612 144.999C10.5543 144.994 9.02589 144.304 7.95964 143.103C5.99247 141.107 3.30373 139.988 0.501251 139.999V144.999C2.10812 145.004 3.63654 145.694 4.70279 146.896C8.79651 151.015 15.4543 151.036 19.5733 146.943C19.5886 146.927 19.6043 146.912 19.6196 146.896C21.6642 144.576 25.202 144.353 27.522 146.398C27.6986 146.553 27.8648 146.72 28.0205 146.896C32.1157 151.016 38.7754 151.036 42.895 146.941C42.9091 146.927 42.9232 146.913 42.9372 146.899C44.9913 144.573 48.5419 144.353 50.8678 146.407C51.0419 146.56 51.2062 146.725 51.36 146.899C55.4662 151.021 62.1371 151.034 66.2596 146.928C66.2693 146.918 66.2793 146.908 66.289 146.899C67.3583 145.695 68.8902 145.004 70.5005 144.999V139.999C67.6971 139.988 65.0068 141.105 63.0371 143.1C61.9671 144.304 60.4343 144.995 58.8234 144.999C58.6237 144.989 58.4246 144.969 58.2271 144.938L71.023 118.591C71.3989 117.817 71.3502 116.904 70.8936 116.174ZM10.5009 97.4997H28.0008V115H10.5009V97.4997ZM53.8659 142.476C52.0153 140.838 49.6172 139.954 47.1463 140C44.3435 139.987 41.6538 141.105 39.6854 143.1C37.6391 145.423 34.0976 145.647 31.7751 143.6C31.5989 143.445 31.4326 143.279 31.2773 143.103C29.3101 141.107 26.6214 139.989 23.8189 140C21.4058 139.953 19.0605 140.8 17.2343 142.378L6.90746 120H64.7805L53.8659 142.476Z" fill="#1A75CF"/>
</g>
<defs>
<clipPath id="clip0">
<rect width="150" height="150" fill="white" transform="translate(0.5)"/>
</clipPath>
</defs>
</svg>
