<svg width="151" height="150" viewBox="0 0 151 150" fill="none" xmlns="http://www.w3.org/2000/svg">
<path d="M47.375 56.25H35.6562V60.9375H47.375V56.25Z" fill="#1A75CF"/>
<path d="M7.53125 145.312H120.031C120.653 145.312 121.249 145.066 121.689 144.626C122.128 144.186 122.375 143.59 122.375 142.969V124.219C122.375 123.597 122.128 123.001 121.689 122.561C121.249 122.122 120.653 121.875 120.031 121.875H105.969V115.853C108.547 115.945 111.128 115.735 113.658 115.227C118.33 114.308 122.729 112.327 126.513 109.437C130.297 106.546 133.366 102.824 135.482 98.5584C137.646 94.2168 138.775 89.433 138.781 84.5818V39.8438H143.469C143.904 39.8437 144.331 39.7225 144.701 39.4937C145.071 39.2649 145.37 38.9375 145.565 38.5482C145.76 38.1589 145.842 37.7231 145.803 37.2896C145.764 36.8561 145.605 36.442 145.344 36.0938L131.281 17.3438C131.063 17.0527 130.78 16.8164 130.454 16.6537C130.129 16.491 129.77 16.4062 129.406 16.4062C129.042 16.4062 128.683 16.491 128.358 16.6537C128.033 16.8164 127.749 17.0527 127.531 17.3438L113.469 36.0938C113.208 36.442 113.049 36.8561 113.009 37.2896C112.97 37.7231 113.053 38.1589 113.247 38.5482C113.442 38.9375 113.741 39.2649 114.112 39.4937C114.482 39.7225 114.909 39.8437 115.344 39.8438H120.031V63.2528C120.037 65.8365 119.459 68.3881 118.34 70.7169C117.221 73.0456 115.59 75.0911 113.568 76.7004C111.535 78.3271 109.078 79.3373 106.489 79.6116C103.899 79.886 101.285 79.4129 98.9564 78.2484L87.7721 72.6562C84.6894 71.1149 81.2903 70.3125 77.8438 70.3125C74.3972 70.3125 70.9981 71.1149 67.9154 72.6562L57.5551 77.8364C55.1207 79.05 52.4383 79.6836 49.7182 79.6875H49.7142C46.999 79.6842 44.3214 79.052 41.8916 77.8404L30.6909 72.2387C29.2923 71.5434 27.8104 71.0303 26.2812 70.7119V56.6228L33.6771 51.5625H54.4062V46.875H40.528L47.3789 42.1875H80.1835L87.0345 46.875H59.0938V51.5625H93.8855L100.736 56.25H52.0625V60.9375H101.281V75H105.969V59.83L106.989 60.5281C107.245 60.7032 107.533 60.8258 107.837 60.8888C108.141 60.9517 108.454 60.9537 108.758 60.8947C109.063 60.8357 109.353 60.7169 109.611 60.5451C109.869 60.3732 110.091 60.1519 110.263 59.8938L114.95 52.8626C115.288 52.3563 115.415 51.7385 115.305 51.1399C115.196 50.5414 114.857 50.009 114.362 49.6553L101.281 40.3118V7.03125C101.281 6.40965 101.034 5.81351 100.595 5.37398C100.155 4.93444 99.5591 4.68751 98.9375 4.6875H84.875C84.2534 4.68751 83.6573 4.93444 83.2177 5.37398C82.7782 5.81351 82.5313 6.40965 82.5312 7.03125V26.919L65.1434 14.4991C64.746 14.2151 64.2697 14.0624 63.7812 14.0624C63.2928 14.0624 62.8165 14.2151 62.4191 14.4991L13.2004 49.6553C12.7052 50.009 12.3669 50.5414 12.2572 51.1399C12.1475 51.7385 12.2749 52.3562 12.6124 52.8625L17.2999 59.8938C17.472 60.1519 17.6935 60.3732 17.9517 60.545C18.21 60.7169 18.4997 60.8357 18.8042 60.8947C19.1087 60.9537 19.4219 60.9517 19.7256 60.8888C20.0293 60.8258 20.3175 60.7032 20.5735 60.5281L21.5938 59.83V70.3308C17.7978 70.4838 14.1388 71.7906 11.1047 74.0769L7.9996 76.4063C7.18737 77.013 6.20126 77.3417 5.1875 77.3438V82.0312C7.21525 82.0271 9.18767 81.3696 10.8123 80.1561L13.9179 77.8263C16.366 75.9828 19.3497 74.9903 22.4143 75H22.5333C24.6371 75.0025 26.7117 75.4924 28.5944 76.4312L39.795 82.033C42.8761 83.5693 46.2713 84.3709 49.7142 84.375H49.7193C53.1668 84.37 56.5663 83.567 59.6516 82.029L70.012 76.8488C72.4437 75.633 75.125 75 77.8438 75C80.5625 75 83.2438 75.633 85.6755 76.8488L96.8598 82.4409C99.9898 84.0059 103.502 84.6417 106.982 84.2731C110.462 83.9044 113.764 82.5468 116.496 80.3608C119.068 78.3135 121.143 75.7112 122.567 72.7486C123.991 69.786 124.727 66.5398 124.719 63.2528V37.5C124.719 36.8784 124.472 36.2823 124.032 35.8427C123.593 35.4032 122.997 35.1563 122.375 35.1562H120.031L129.406 22.6563L138.781 35.1562H136.438C135.816 35.1563 135.22 35.4032 134.78 35.8427C134.341 36.2823 134.094 36.8784 134.094 37.5V68.1756C134.089 72.2991 133.129 76.3654 131.289 80.0559C129.491 83.6818 126.882 86.8456 123.665 89.3024C120.449 91.7593 116.71 93.4434 112.739 94.2246C106.986 95.3853 101.014 94.7233 95.6553 92.3306L87.7666 88.8245C84.6442 87.4317 81.2627 86.7142 77.8438 86.7188C74.3977 86.7228 70.9995 87.5251 67.9154 89.0625L57.5551 94.2427C55.1207 95.4563 52.4383 96.0899 49.7182 96.0938H49.7142C46.999 96.0905 44.3214 95.4583 41.8916 94.2467L30.6909 88.6449C28.157 87.3814 25.3648 86.7221 22.5333 86.7188H22.4143C18.3347 86.7064 14.3631 88.0284 11.1047 90.4831L7.99959 92.8126C7.18737 93.4192 6.20126 93.7479 5.1875 93.75V98.4375C7.21525 98.4334 9.18767 97.7758 10.8123 96.5624L13.9179 94.2325C16.366 92.389 19.3497 91.3965 22.4143 91.4062H22.5333C24.6371 91.4087 26.7117 91.8986 28.5944 92.8375L39.795 98.4392C42.8761 99.9755 46.2713 100.777 49.7142 100.781H49.7193C53.1668 100.776 56.5663 99.9733 59.6516 98.4352L70.012 93.255C72.4448 92.0423 75.1254 91.4095 77.8438 91.4062C80.6068 91.4026 83.3395 91.9825 85.8629 93.108L93.7516 96.6142C99.9961 99.4022 106.955 100.174 113.658 98.821C117.858 97.9954 121.842 96.3094 125.359 93.8693C128.875 91.4292 131.849 88.2877 134.093 84.6424C134.079 88.7454 133.119 92.7899 131.289 96.4621C129.491 100.088 126.882 103.252 123.665 105.709C120.449 108.166 116.71 109.85 112.739 110.631C106.986 111.792 101.014 111.129 95.6553 108.737L87.7666 105.231C84.6442 103.838 81.2627 103.12 77.8438 103.125C74.3977 103.129 70.9995 103.931 67.9154 105.469L57.5551 110.649C55.1207 111.863 52.4383 112.496 49.7182 112.5H49.7142C46.999 112.497 44.3214 111.865 41.8916 110.653L30.6909 105.051C28.157 103.788 25.3648 103.128 22.5333 103.125H22.4143C18.3347 103.113 14.3631 104.435 11.1047 106.889L7.99959 109.219C7.18737 109.825 6.20126 110.154 5.1875 110.156V114.844C7.21525 114.84 9.18767 114.182 10.8123 112.969L13.9179 110.639C16.366 108.795 19.3497 107.803 22.4143 107.812H22.5333C24.6371 107.815 26.7117 108.305 28.5944 109.244L39.795 114.845C42.8761 116.382 46.2713 117.183 49.7142 117.188H49.7193C53.1668 117.183 56.5663 116.38 59.6516 114.841L70.012 109.661C72.4448 108.449 75.1254 107.816 77.8438 107.812C80.6068 107.809 83.3395 108.389 85.8629 109.514L93.7516 113.02C96.1601 114.092 98.6879 114.871 101.281 115.343V121.875H77.8438C77.2222 121.875 76.626 122.122 76.1865 122.561C75.7469 123.001 75.5 123.597 75.5 124.219V126.562H54.4062V124.219C54.4062 123.597 54.1593 123.001 53.7198 122.561C53.2802 122.122 52.6841 121.875 52.0625 121.875H26.2812V112.5H21.5938V121.875H7.53125C6.90965 121.875 6.31351 122.122 5.87398 122.561C5.43444 123.001 5.18751 123.597 5.1875 124.219V142.969C5.18751 143.59 5.43444 144.186 5.87398 144.626C6.31351 145.066 6.90965 145.312 7.53125 145.312ZM54.2299 37.5L63.7812 30.9649L73.3326 37.5H54.2299ZM87.2188 9.375H96.5938V36.9636L87.2188 30.2672V9.375ZM19.8843 55.3199L17.7714 52.1506L63.7812 19.2864L109.791 52.1506L107.678 55.3199L65.1048 26.1907C64.7149 25.924 64.2536 25.7812 63.7812 25.7812C63.3089 25.7812 62.8476 25.924 62.4577 26.1907L19.8843 55.3199ZM117.688 140.625H91.9062V126.562H117.688V140.625ZM80.1875 126.562H87.2188V140.625H80.1875V126.562ZM54.4062 140.625V138.281H75.5V140.625H54.4062ZM75.5 131.25V133.594H54.4062V131.25H75.5ZM49.7188 140.625H42.6875V126.562H49.7188V140.625ZM9.875 126.562H38V140.625H9.875V126.562Z" fill="#0047BA"/>
</svg>
