<svg width="150" height="150" viewBox="0 0 150 150" fill="none" xmlns="http://www.w3.org/2000/svg">
<path d="M141.166 29.6265H67.6239C66.1371 23.6777 60.7485 19.2571 54.3457 19.2571H53.3927L45.8689 1.47393C45.491 0.580371 44.615 0 43.645 0C42.675 0 41.799 0.580664 41.4211 1.47393L33.8974 19.2571H28.0907C26.7568 19.2571 25.6758 20.3385 25.6758 21.6721V29.6262H8.83389C7.5 29.6262 6.41895 30.7075 6.41895 32.0411V51.2988C6.41895 52.6324 7.5 53.7138 8.83389 53.7138H25.6764V59.1993C25.6764 60.5329 26.7574 61.6143 28.0913 61.6143H31.6017V132.332H15.2528C13.9189 132.332 12.8379 133.413 12.8379 134.747V147.585C12.8379 148.919 13.9189 150 15.2528 150H48.9196C50.2535 150 51.3346 148.919 51.3346 147.585C51.3346 146.251 50.2535 145.17 48.9196 145.17H17.6678V137.162H69.6223V145.17H56.6473C55.3134 145.17 54.2323 146.251 54.2323 147.585C54.2323 148.919 55.3134 150 56.6473 150H72.0372C73.3711 150 74.4522 148.919 74.4522 147.585V134.747C74.4522 133.413 73.3711 132.332 72.0372 132.332H55.6887V61.614H65.6183C66.9522 61.614 68.0332 60.5326 68.0332 59.199V53.7135H126.9V75.6231H125.452C124.118 75.6231 123.037 76.7045 123.037 78.0381C123.037 79.3717 124.118 80.453 125.452 80.453H126.9V86.6036C126.9 87.9372 127.981 89.0186 129.315 89.0186C131.727 89.0186 133.69 90.9809 133.69 93.3929C133.69 95.8049 131.727 97.7675 129.315 97.7675C126.903 97.7675 124.941 95.8049 124.941 93.3929C124.941 92.0593 123.86 90.9779 122.526 90.9779C121.192 90.9779 120.111 92.0593 120.111 93.3929C120.111 98.468 124.24 102.597 129.315 102.597C134.391 102.597 138.52 98.4683 138.52 93.3929C138.52 89.1533 135.638 85.5735 131.73 84.5101V80.453H133.179C134.513 80.453 135.594 79.3717 135.594 78.0381C135.594 76.7045 134.513 75.6231 133.179 75.6231H131.73V53.7135H141.166C142.5 53.7135 143.581 52.6321 143.581 51.2985V32.0411C143.58 30.7075 142.499 29.6265 141.166 29.6265ZM11.2488 48.8839V37.8718L22.2609 48.8839H11.2488ZM25.6758 45.4685L14.6637 34.4563H25.6758V45.4685ZM43.645 8.61299L48.1485 19.2574H39.1418L43.645 8.61299ZM50.8585 132.332H39.8464L50.8585 121.32V132.332ZM36.4313 128.917V102.063L49.8583 115.49L36.4313 128.917ZM50.8585 109.659L37.4314 96.2323L50.8585 82.8056V109.659ZM36.4313 90.4022V65.0294L49.1177 77.7158L36.4313 90.4022ZM50.8585 72.6261L39.8464 61.614H50.8585V72.6261ZM63.2033 45.7553H45.8127V38.5969C45.8127 37.2633 44.7316 36.1819 43.3978 36.1819C42.0639 36.1819 40.9828 37.2633 40.9828 38.5969V48.1702C40.9828 49.5038 42.0639 50.5852 43.3978 50.5852H63.203V56.7841H30.5057V24.0873H40.9825V30.7081C40.9825 32.0417 42.0636 33.123 43.3975 33.123C44.7314 33.123 45.8124 32.0417 45.8124 30.7081V24.0873H51.7843C51.7872 24.0873 51.7901 24.0879 51.7931 24.0879C51.7972 24.0879 54.3457 24.0873 54.3457 24.0873C59.2298 24.0873 63.203 28.0608 63.203 32.9446V45.7553H63.2033ZM68.0329 45.4685V34.4563H79.045L68.0329 45.4685ZM71.4483 48.8839L84.1348 36.1975L96.8209 48.8839H71.4483ZM89.2242 34.4563H116.078L102.651 47.8834L89.2242 34.4563ZM108.481 48.8839L121.908 35.4568L135.335 48.8839H108.481ZM138.751 45.4685L127.738 34.4563H138.751V45.4685Z" fill="#0047BA"/>
</svg>
