<svg width="150" height="150" viewBox="0 0 150 150" fill="none" xmlns="http://www.w3.org/2000/svg">
<g clip-path="url(#clip0)">
<path d="M147.581 135.484H135.484V111.29H142.742C144.078 111.29 145.161 110.207 145.161 108.871V41.129C145.161 39.7929 144.078 38.7097 142.742 38.7097H135.484V26.6129C135.484 25.2768 134.401 24.1936 133.064 24.1936H128.226V0H123.387V24.1936H118.548C117.212 24.1936 116.129 25.2768 116.129 26.6129V38.7097H108.871C107.535 38.7097 106.452 39.7929 106.452 41.129V108.871C106.452 110.207 107.535 111.29 108.871 111.29H116.129V135.484H104.032C102.696 135.484 101.613 136.567 101.613 137.903V147.581C101.613 148.917 102.696 150 104.032 150H147.581C148.917 150 150 148.917 150 147.581V137.903C150 136.567 148.917 135.484 147.581 135.484ZM120.968 29.0323H130.645V38.7097H120.968V29.0323ZM111.29 82.2581H116.129V77.4194H111.29V72.5807H120.968V67.7419H111.29V62.9032H116.129V58.0645H111.29V53.2258H120.968V48.3871H111.29V43.5484H140.322V87.0968H111.29V82.2581ZM111.29 91.9355H140.322V96.7742H111.29V91.9355ZM111.29 106.452V101.613H140.322V106.452H111.29ZM130.645 111.29V135.484H120.968V111.29H130.645ZM145.161 145.161H106.452V140.323H145.161V145.161Z" fill="#0047BA"/>
<path d="M48.3871 72.7742V67.742H50.8065C52.1425 67.742 53.2258 66.6587 53.2258 65.3226V55.6452C53.2258 54.3091 52.1425 53.2258 50.8065 53.2258H12.0968C10.7607 53.2258 9.67742 54.3091 9.67742 55.6452V65.3226C9.67742 66.6587 10.7607 67.742 12.0968 67.742H14.5161V72.7742C6.19446 73.9818 0.0160282 81.1074 0 89.5162V142.742C0 146.751 3.2495 150 7.25806 150H55.6452C59.6537 150 62.9032 146.751 62.9032 142.742V89.5162C62.8872 81.1074 56.7088 73.9818 48.3871 72.7742ZM14.5161 58.0645H48.3871V62.9032H14.5161V58.0645ZM43.5484 67.742V72.5807H19.3548V67.742H43.5484ZM58.0645 142.742C58.0645 144.078 56.9813 145.161 55.6452 145.161H7.25806C5.92198 145.161 4.83871 144.078 4.83871 142.742V89.5162C4.84657 82.8387 10.2581 77.4272 16.9355 77.4194H45.9677C52.6452 77.4272 58.0567 82.8387 58.0645 89.5162V142.742Z" fill="#0047BA"/>
<path d="M50.8065 96.7742H12.0968C10.7608 96.7742 9.67749 97.8574 9.67749 99.1935V123.387C9.67749 124.723 10.7608 125.806 12.0968 125.806H50.8065C52.1426 125.806 53.2259 124.723 53.2259 123.387V99.1935C53.2259 97.8574 52.1426 96.7742 50.8065 96.7742ZM48.3872 120.968H14.5162V101.613H48.3872V120.968Z" fill="#1A75CF"/>
<path d="M94.3551 62.9033H70.1615C68.8255 62.9033 67.7422 63.9866 67.7422 65.3227V75.0001C67.7422 76.3362 68.8255 77.4195 70.1615 77.4195H72.5809V82.7033C69.6913 83.7249 67.7549 86.4515 67.7422 89.5162V142.742C67.7422 146.751 70.9917 150 75.0003 150H89.5164C93.525 150 96.7745 146.751 96.7745 142.742V89.5162C96.7618 86.4515 94.8254 83.7249 91.9357 82.7033V77.4195H94.3551C95.6912 77.4195 96.7745 76.3362 96.7745 75.0001V65.3227C96.7745 63.9866 95.6912 62.9033 94.3551 62.9033ZM91.9357 142.742C91.9357 144.078 90.8525 145.161 89.5164 145.161H75.0003C73.6642 145.161 72.5809 144.078 72.5809 142.742V140.323H91.9357V142.742ZM91.9357 135.484H72.5809V96.7743H91.9357V135.484ZM91.9357 91.9356H72.5809V89.5162C72.5809 88.1801 73.6642 87.0969 75.0003 87.0969H89.5164C90.8525 87.0969 91.9357 88.1801 91.9357 89.5162V91.9356ZM77.4196 82.2582V77.4195H87.097V82.2582H77.4196ZM91.9357 72.5807H72.5809V67.742H91.9357V72.5807Z" fill="#0047BA"/>
<path d="M41.6452 56.9522C41.9467 57.014 42.2575 57.0157 42.5597 56.9574C42.8619 56.899 43.1496 56.7817 43.4065 56.6121C43.6634 56.4426 43.8843 56.224 44.0567 55.9691C44.2292 55.7141 44.3497 55.4277 44.4114 55.1262C45.4438 50.0687 48.2949 45.5653 52.4247 42.4688C52.5134 42.4022 52.5973 42.3295 52.6758 42.2511C55.7877 39.1374 56.2456 33.3023 50.2368 28.2782C49.1428 27.3636 48.7479 25.8173 49.0649 24.9454C49.1408 24.7371 49.3341 24.1837 50.6762 24.1875C79.0599 24.7277 80.4835 23.3558 81.0791 24.9826C81.3934 25.8413 81.0416 27.3451 79.9257 28.2782C76.9602 30.7576 75.3925 33.45 75.2674 36.2798C75.1423 39.0797 76.6655 41.664 77.7381 42.4685C80.3517 44.439 82.4734 46.9881 83.9371 49.9158C85.4008 52.8436 86.1667 56.0705 86.1747 59.3438C86.1747 59.9654 86.4216 60.5615 86.8611 61.001C87.3007 61.4406 87.8968 61.6875 88.5184 61.6875C89.14 61.6875 89.7362 61.4406 90.1757 61.001C90.6152 60.5615 90.8622 59.9654 90.8622 59.3438C90.8524 55.3841 89.9352 51.4793 88.1811 47.9293C86.427 44.3793 83.8826 41.2786 80.7433 38.8652C78.8282 36.4904 80.6015 33.8224 82.9321 31.8738C87.1743 28.3271 86.9261 21.2314 81.4872 19.7528V3.09375C81.4872 2.47215 81.2402 1.87601 80.8007 1.43647C80.3612 0.99693 79.765 0.75 79.1434 0.75H51.0184C50.3968 0.75 49.8007 0.99693 49.3611 1.43647C48.9216 1.87601 48.6747 2.47215 48.6747 3.09375V19.7511C43.1803 21.2159 42.9797 28.3204 47.2298 31.8741C49.5914 33.8484 51.3196 36.5062 49.4188 38.8652C44.4738 42.646 41.0639 48.0885 39.8188 54.1875C39.6946 54.7963 39.8172 55.4295 40.1597 55.948C40.5021 56.4664 41.0365 56.8276 41.6452 56.9522ZM53.3622 5.4375H76.7997V10.125H60.3934C59.7718 10.125 59.1757 10.3719 58.7361 10.8115C58.2966 11.251 58.0497 11.8471 58.0497 12.4688C58.0497 13.0904 58.2966 13.6865 58.7361 14.126C59.1757 14.5656 59.7718 14.8125 60.3934 14.8125H76.7997V19.5H53.3622V5.4375Z" fill="#1A75CF"/>
</g>
<defs>
<clipPath id="clip0">
<rect width="150" height="150" fill="white"/>
</clipPath>
</defs>
</svg>
