<svg width="150" height="150" viewBox="0 0 150 150" fill="none" xmlns="http://www.w3.org/2000/svg">
<g clip-path="url(#clip0)">
<path d="M149.746 62.589C149.16 61.4352 147.751 60.9731 146.595 61.559L120.027 75.0352V20.9574H120.528C123.467 20.9574 125.858 18.5666 125.858 15.6281C125.858 12.6896 123.467 10.2988 120.528 10.2988H29.4712C26.5327 10.2988 24.1419 12.6896 24.1419 15.6281C24.1419 18.5666 26.5327 20.9574 29.4712 20.9574H29.9728V120.714L1.28359 135.266C0.129408 135.852 -0.331663 137.262 0.253632 138.417C0.666821 139.232 1.49086 139.701 2.34603 139.701C2.7023 139.701 3.06459 139.619 3.40445 139.447L148.716 65.7398C149.87 65.1542 150.331 63.7435 149.746 62.589ZM34.6605 68.6285H115.339V74.6709H34.6605V68.6285ZM28.8296 15.6281C28.8296 15.2742 29.1173 14.9865 29.4712 14.9865H120.528C120.882 14.9865 121.17 15.2742 121.17 15.6281C121.17 15.982 120.882 16.2696 120.528 16.2696H29.4712C29.1173 16.2696 28.8296 15.982 28.8296 15.6281ZM115.339 20.9574V63.9407H34.6605V20.9574H115.339ZM34.6605 79.3587H111.504L34.6605 118.336V79.3587Z" fill="#0047BA"/>
<path d="M50.8617 56.4238H99.1385C100.433 56.4238 101.482 55.3744 101.482 54.0799V30.7464C101.482 29.452 100.433 28.4026 99.1385 28.4026H50.8617C49.5672 28.4026 48.5178 29.452 48.5178 30.7464V54.0802C48.5178 55.3744 49.5672 56.4238 50.8617 56.4238ZM53.2055 51.736V34.8378L96.7946 47.7532V51.736H53.2055Z" fill="#1A75CF"/>
</g>
<defs>
<clipPath id="clip0">
<rect width="150" height="150" fill="white"/>
</clipPath>
</defs>
</svg>
