<svg width="151" height="150" viewBox="0 0 151 150" fill="none" xmlns="http://www.w3.org/2000/svg">
<path d="M132.333 84.75C132.33 81.7602 129.906 79.3365 126.917 79.3333H121.5V70.6666H117.167V79.3333H112.833V70.6666H108.5V79.3333H104.167V70.6666H99.8334V79.3333H95.5V70.6666H91.1667V79.3333H85.7501C82.7603 79.3365 80.3366 81.7602 80.3334 84.75V90.1666H71.6667V94.5H80.3334V98.8333H71.6667V103.167H80.3334V107.5H71.6667V111.833H80.3334V116.167H71.6667V120.5H80.3334V125.917C80.3366 128.906 82.7603 131.33 85.7501 131.333H91.1667V140H95.5V131.333H99.8334V140H104.167V131.333H108.5V140H112.833V131.333H117.167V140H121.5V131.333H126.917C129.906 131.33 132.33 128.906 132.333 125.917V120.5H141V116.167H132.333V111.833H141V107.5H132.333V103.167H141V98.8333H132.333V94.5H141V90.1666H132.333V84.75ZM128 125.917C128 126.514 127.514 127 126.917 127H85.7501C85.1523 127 84.6667 126.514 84.6667 125.917V84.75C84.6667 84.1522 85.1523 83.6666 85.7501 83.6666H126.917C127.514 83.6666 128 84.1522 128 84.75V125.917Z" fill="#0047BA"/>
<path d="M15.333 135.667H19.6663V140H15.333V135.667Z" fill="#1A75CF"/>
<path d="M31.5834 40.3333C32.1811 40.3333 32.6667 40.8189 32.6667 41.4166V49C30.2747 49.0021 28.3355 50.9413 28.3334 53.3333V57.6666C28.3355 60.0586 30.2747 61.9978 32.6667 62H37.0001C39.3921 61.9978 41.3313 60.0586 41.3334 57.6666V53.3333C41.3313 50.9413 39.3921 49.0021 37.0001 49V41.4166C36.9969 38.4269 34.5731 36.0031 31.5834 36C30.9857 36 30.5001 35.5144 30.5001 34.9166V18.6666H26.1667V34.9166C26.1699 37.9064 28.5937 40.3301 31.5834 40.3333ZM37.0001 53.3333V57.6666H32.6667V53.3333H37.0001Z" fill="#0047BA"/>
<path d="M26.1667 10H30.5001V14.3333H26.1667V10Z" fill="#1A75CF"/>
<path d="M15.333 10H19.6663V14.3333H15.333V10Z" fill="#1A75CF"/>
<path d="M15.3333 90.1667V131.333H19.6667V90.1667C22.0587 90.1646 23.9979 88.2254 24 85.8334V81.5001C23.9979 79.1081 22.0587 77.1689 19.6667 77.1667H15.3333C12.9413 77.1689 11.0021 79.1081 11 81.5001V85.8334C11.0021 88.2254 12.9413 90.1646 15.3333 90.1667ZM15.3333 81.5001H19.6667V85.8334H15.3333V81.5001Z" fill="#0047BA"/>
<path d="M15.3333 72.8333H19.6667C22.0587 72.8312 23.9979 70.892 24 68.5V64.1666C23.9979 61.7746 22.0587 59.8354 19.6667 59.8333V18.6666H15.3333V59.8333C12.9413 59.8354 11.0021 61.7746 11 64.1666V68.5C11.0021 70.892 12.9413 72.8312 15.3333 72.8333ZM15.3333 64.1666H19.6667V68.5H15.3333V64.1666Z" fill="#0047BA"/>
<path d="M28.3333 130.25C28.3364 133.24 30.7602 135.664 33.7499 135.667H49.9999C50.002 138.059 51.9412 139.998 54.3332 140H58.6665C61.0585 139.998 62.9977 138.059 62.9999 135.667V131.333C62.9977 128.941 61.0585 127.002 58.6665 127H54.3332C51.9412 127.002 50.002 128.941 49.9999 131.333H33.7499C33.1522 131.333 32.6666 130.848 32.6666 130.25V123.75C32.6666 123.152 33.1522 122.667 33.7499 122.667H54.3332V118.333H33.7499C30.7602 118.337 28.3364 120.76 28.3333 123.75V130.25ZM54.3332 131.333H58.6665V135.667H54.3332V131.333Z" fill="#0047BA"/>
<path d="M58.6667 118.333H63.0001V122.667H58.6667V118.333Z" fill="#1A75CF"/>
<path d="M28.3333 109.667C28.3354 112.059 30.2746 113.998 32.6666 114H36.9999C39.3919 113.998 41.3311 112.059 41.3332 109.667H57.5832C60.5729 109.664 62.9967 107.24 62.9999 104.25V97.75C62.9967 94.7603 60.5729 92.3365 57.5832 92.3334H36.9999V96.6667H57.5832C58.1809 96.6667 58.6665 97.1523 58.6665 97.75V104.25C58.6665 104.848 58.1809 105.333 57.5832 105.333H41.3332C41.3311 102.941 39.3919 101.002 36.9999 101H32.6666C30.2746 101.002 28.3354 102.941 28.3333 105.333V109.667ZM32.6666 105.333H36.9999V109.667H32.6666V105.333Z" fill="#0047BA"/>
<path d="M28.3333 92.3334H32.6666V96.6667H28.3333V92.3334Z" fill="#1A75CF"/>
<path d="M30.5002 71.75V78.25C30.5034 81.2398 32.9272 83.6635 35.9169 83.6667H50.0002C50.0023 86.0587 51.9415 87.9979 54.3335 88H58.6669C61.0589 87.9979 62.9981 86.0587 63.0002 83.6667V79.3334C62.9981 76.9414 61.0589 75.0022 58.6669 75H54.3335C51.9415 75.0022 50.0023 76.9414 50.0002 79.3334H35.9169C35.3192 79.3334 34.8336 78.8478 34.8336 78.25V71.75C34.8336 71.1523 35.3192 70.6667 35.9169 70.6667H54.3335V66.3334H35.9169C32.9272 66.3365 30.5034 68.7603 30.5002 71.75ZM54.3335 79.3334H58.6669V83.6667H54.3335L54.3304 79.3334H54.3335Z" fill="#0047BA"/>
<path d="M58.6667 66.3334H63.0001V70.6667H58.6667V66.3334Z" fill="#1A75CF"/>
<path d="M45.6667 57.6666H50.0001V62H45.6667V57.6666Z" fill="#1A75CF"/>
<path d="M40.2499 31.6667H44.5832C45.181 31.6667 45.6666 32.1523 45.6666 32.75V53.3333H49.9999V32.75C49.9967 29.7603 47.573 27.3365 44.5832 27.3333H40.2499C39.6522 27.3333 39.1666 26.8477 39.1666 26.25V19.75C39.1666 19.1523 39.6522 18.6667 40.2499 18.6667H47.8332C47.8353 21.0587 49.7746 22.9979 52.1666 23H56.4999C58.8919 22.9979 60.8311 21.0587 60.8332 18.6667V14.3333C60.8311 11.9413 58.8919 10.0021 56.4999 10H52.1666C49.7746 10.0021 47.8353 11.9413 47.8332 14.3333H40.2499C37.2602 14.3365 34.8364 16.7603 34.8333 19.75V26.25C34.8364 29.2397 37.2602 31.6635 40.2499 31.6667ZM52.1666 14.3333H56.4999L56.5031 18.6667H52.1666V14.3333Z" fill="#0047BA"/>
<path d="M76.0001 43.5833C76.0001 42.9856 76.4857 42.5 77.0834 42.5C80.0731 42.4968 82.4969 40.0731 82.5001 37.0833V23C84.8921 22.9979 86.8313 21.0587 86.8334 18.6667V14.3333C86.8313 11.9413 84.8921 10.0021 82.5001 10H78.1667C75.7747 10.0021 73.8355 11.9413 73.8334 14.3333V18.6667C73.8355 21.0587 75.7747 22.9979 78.1667 23V37.0833C78.1667 37.6811 77.6811 38.1667 77.0834 38.1667C74.0937 38.1698 71.6699 40.5936 71.6667 43.5833V53.3333H76.0001V43.5833ZM78.1667 14.3333H82.5001V18.6667H78.1667V14.3333Z" fill="#0047BA"/>
<path d="M71.6667 57.6666H76.0001V62H71.6667V57.6666Z" fill="#1A75CF"/>
<path d="M58.6666 32.75V49C56.2746 49.0021 54.3354 50.9413 54.3333 53.3333V57.6666C54.3354 60.0586 56.2746 61.9978 58.6666 62H62.9999C65.3919 61.9978 67.3311 60.0586 67.3332 57.6666V53.3333C67.3311 50.9413 65.3919 49.0021 62.9999 49V32.75C62.9999 32.1522 63.4855 31.6666 64.0832 31.6666C67.073 31.6635 69.4967 29.2397 69.4999 26.25V18.6666H65.1666V26.25C65.1666 26.8477 64.681 27.3333 64.0832 27.3333C61.0935 27.3365 58.6698 29.7602 58.6666 32.75ZM62.9999 57.6666H58.6666V53.3333H62.9999V57.6666Z" fill="#0047BA"/>
<path d="M65.1667 10H69.5001V14.3333H65.1667V10Z" fill="#1A75CF"/>
<path d="M136.667 49V33.8334H132.333V49C129.941 49.0022 128.002 50.9414 128 53.3334V57.6667C128.002 60.0587 129.941 61.9979 132.333 62H136.667C139.059 61.9979 140.998 60.0587 141 57.6667V53.3334C140.998 50.9414 139.059 49.0022 136.667 49ZM136.667 57.6667H132.333L132.33 53.3334H136.667V57.6667Z" fill="#0047BA"/>
<path d="M132.333 25.1666H136.666V29.5H132.333V25.1666Z" fill="#1A75CF"/>
<path d="M119.333 52.25C119.333 52.8478 118.847 53.3334 118.25 53.3334H93.333C93.3309 50.9414 91.3917 49.0022 88.9997 49H84.6663C82.2743 49.0022 80.3351 50.9414 80.333 53.3334V57.6667C80.3351 60.0587 82.2743 61.9979 84.6663 62H88.9997C91.3917 61.9979 93.3309 60.0587 93.333 57.6667H118.25C121.239 57.6635 123.663 55.2398 123.666 52.25V33.8334H119.333V52.25ZM84.6663 57.6667V53.3334H88.9997L89.0028 57.6667H84.6663Z" fill="#0047BA"/>
<path d="M119.333 25.1666H123.667V29.5H119.333V25.1666Z" fill="#1A75CF"/>
<path d="M86.8333 39.25C86.8364 42.2397 89.2602 44.6635 92.2499 44.6666H102C102.002 47.0586 103.941 48.9979 106.333 49H110.667C113.059 48.9979 114.998 47.0586 115 44.6666V40.3333C114.998 37.9413 113.059 36.0021 110.667 36H106.333C103.941 36.0021 102.002 37.9413 102 40.3333H92.2499C91.6522 40.3333 91.1666 39.8477 91.1666 39.25V32.75C91.1666 32.1522 91.6522 31.6666 92.2499 31.6666C95.2396 31.6635 97.6634 29.2397 97.6666 26.25V18.6666H93.3332V26.25C93.3332 26.8477 92.8476 27.3333 92.2499 27.3333C89.2602 27.3365 86.8364 29.7602 86.8333 32.75V39.25ZM106.333 40.3333H110.667V44.6666H106.333L106.33 40.3333H106.333Z" fill="#0047BA"/>
<path d="M93.3333 10H97.6666V14.3333H93.3333V10Z" fill="#1A75CF"/>
<path d="M136.666 10H132.333C129.941 10.0021 128.002 11.9413 128 14.3333H111.75C108.76 14.3365 106.336 16.7603 106.333 19.75V23H110.666V19.75C110.666 19.1523 111.152 18.6667 111.75 18.6667H128C128.002 21.0587 129.941 22.9979 132.333 23H136.666C139.058 22.9979 140.998 21.0587 141 18.6667V14.3333C140.998 11.9413 139.058 10.0021 136.666 10ZM132.333 18.6667V14.3333H136.666L136.669 18.6667H132.333Z" fill="#0047BA"/>
<path d="M106.333 27.3334H110.666V31.6667H106.333V27.3334Z" fill="#1A75CF"/>
</svg>
