<svg width="150" height="150" viewBox="0 0 150 150" fill="none" xmlns="http://www.w3.org/2000/svg">
<path d="M7.03125 28.125H21.0938C21.7153 28.125 22.3115 27.8781 22.751 27.4385C23.1906 26.999 23.4375 26.4028 23.4375 25.7812V21.0938H18.75V23.4375H9.375V14.0625H11.7188V9.375H7.03125C6.40965 9.37501 5.81351 9.62194 5.37398 10.0615C4.93444 10.501 4.68751 11.0972 4.6875 11.7188V25.7812C4.68751 26.4028 4.93444 26.999 5.37398 27.4385C5.81351 27.8781 6.40965 28.125 7.03125 28.125Z" fill="#0047BA"/>
<path d="M7.03125 51.5625H21.0938C21.7153 51.5625 22.3115 51.3156 22.751 50.876C23.1906 50.4365 23.4375 49.8403 23.4375 49.2188V44.5312H18.75V46.875H9.375V37.5H11.7188V32.8125H7.03125C6.40965 32.8125 5.81351 33.0594 5.37398 33.499C4.93444 33.9385 4.68751 34.5347 4.6875 35.1562V49.2188C4.68751 49.8403 4.93444 50.4365 5.37398 50.876C5.81351 51.3156 6.40965 51.5625 7.03125 51.5625Z" fill="#0047BA"/>
<path d="M7.03125 75H21.0938C21.7153 75 22.3115 74.7531 22.751 74.3135C23.1906 73.874 23.4375 73.2778 23.4375 72.6562V67.9688H18.75V70.3125H9.375V60.9375H11.7188V56.25H7.03125C6.40965 56.25 5.81351 56.4969 5.37398 56.9365C4.93444 57.376 4.68751 57.9722 4.6875 58.5938V72.6562C4.68751 73.2778 4.93444 73.874 5.37398 74.3135C5.81351 74.7531 6.40965 75 7.03125 75Z" fill="#0047BA"/>
<path d="M35.1562 16.4062H77.3438V21.0938H35.1562V16.4062Z" fill="#0047BA"/>
<path d="M86.7188 16.4062H145.312V21.0938H86.7188V16.4062Z" fill="#0047BA"/>
<path d="M35.1562 39.8438H49.2188V44.5312H35.1562V39.8438Z" fill="#0047BA"/>
<path d="M58.5938 39.8438H100.781V44.5312H58.5938V39.8438Z" fill="#0047BA"/>
<path d="M110.156 39.8438H145.312V44.5312H110.156V39.8438Z" fill="#0047BA"/>
<path d="M35.1562 63.2812H70.3125V67.9688H35.1562V63.2812Z" fill="#0047BA"/>
<path d="M82.0312 63.2812H117.188V67.9688H82.0312V63.2812Z" fill="#0047BA"/>
<path d="M12.4026 17.0928L21.7762 7.71915L25.0903 11.0332L15.7167 20.4068L12.4026 17.0928Z" fill="#0047BA"/>
<path d="M12.3999 40.5295L21.7735 31.1559L25.0876 34.47L15.714 43.8436L12.3999 40.5295Z" fill="#0047BA"/>
<path d="M12.3967 63.9653L21.7703 54.5917L25.0844 57.9058L15.7108 67.2794L12.3967 63.9653Z" fill="#0047BA"/>
<path d="M145.047 102.695C144.664 100.639 143.872 98.6803 142.72 96.9348C141.567 95.1894 140.077 93.6925 138.336 92.5324C137.735 92.1314 137.175 91.672 136.663 91.1611L135.219 89.7168L132.289 86.7871C126.368 80.844 118.727 76.9136 110.448 75.5521L110.445 75.5513L110.44 75.5506L110.438 75.5502V75.5502C108.255 75.1834 106.045 74.9994 103.831 75H74.461C66.1507 74.9997 57.9217 76.6364 50.2439 79.8165C42.5662 82.9966 35.59 87.6579 29.7137 93.5341L24.7844 98.4635C21.5291 98.6174 18.3537 99.5234 15.5072 101.11C12.6608 102.697 10.2205 104.922 8.37794 107.61C6.90329 109.749 5.84279 112.146 5.25141 114.676C4.87596 116.267 4.68672 117.896 4.6875 119.531V133.594C4.68751 134.215 4.93444 134.811 5.37398 135.251C5.81351 135.691 6.40965 135.937 7.03125 135.938H19.553C20.5227 138.679 22.3184 141.053 24.693 142.732C27.0676 144.411 29.9043 145.312 32.8125 145.312C35.7207 145.312 38.5574 144.411 40.932 142.732C43.3066 141.053 45.1024 138.679 46.072 135.938H64.0876C65.0564 138.679 66.8515 141.053 69.2256 142.732C71.5997 144.411 74.436 145.312 77.3438 145.312C80.2516 145.312 83.0879 144.411 85.4619 142.732C87.836 141.053 89.6311 138.679 90.6 135.938H110.963C111.931 138.679 113.726 141.053 116.101 142.732C118.475 144.411 121.311 145.312 124.219 145.312C127.127 145.312 129.963 144.411 132.337 142.732C134.711 141.053 136.506 138.679 137.475 135.938H142.969C143.59 135.937 144.186 135.691 144.626 135.251C145.066 134.811 145.312 134.215 145.312 133.594V105.568C145.312 104.604 145.224 103.643 145.047 102.695ZM111.892 80.6217C118.365 82.1116 124.286 85.3975 128.975 90.1016L130.097 91.2243C124.106 95.9032 116.721 98.4425 109.119 98.4375H108.328L111.892 80.6217ZM103.135 79.6875H103.831C104.98 79.6875 106.128 79.7434 107.265 79.8544L103.547 98.4375H91.4062V93.75C91.4063 93.2273 91.2315 92.7196 90.9099 92.3076C90.5882 91.8956 90.1381 91.603 89.631 91.4762L84.1908 90.1161L85.8479 88.045C87.9182 85.4448 90.5469 83.3435 93.5393 81.8969C96.5318 80.4502 99.8112 79.6951 103.135 79.6875ZM86.7188 95.5799V98.4375H77.5332L80.9694 94.1426L86.7188 95.5799ZM33.0285 96.8486C38.4694 91.4075 44.9288 87.0915 52.0378 84.147C59.1468 81.2024 66.7663 79.6871 74.461 79.6875H88.0268C85.8229 81.1989 83.8551 83.0285 82.1875 85.1167L71.5299 98.4375H31.4395L33.0285 96.8486ZM11.4124 111.606C14.5159 112.444 17.4322 113.862 20.0068 115.787L20.66 116.277C18.5685 116.68 16.4185 116.674 14.3294 116.258L13.308 116.052C12.1455 115.818 11.0606 115.295 10.1537 114.531C10.4754 113.517 10.897 112.537 11.4124 111.606ZM32.8125 140.625C31.1677 140.621 29.5527 140.186 28.1283 139.364C26.704 138.541 25.52 137.36 24.6945 135.938H40.9305C40.105 137.36 38.921 138.541 37.4967 139.364C36.0723 140.186 34.4573 140.621 32.8125 140.625ZM23.0879 131.25L28.9473 126.562H41.3652L47.2246 131.25H23.0879ZM77.3438 140.625C74.8743 140.625 72.5046 139.651 70.7493 137.914C68.994 136.177 67.995 133.817 67.9692 131.348C67.9434 128.879 68.893 126.499 70.6116 124.726C72.3303 122.953 74.6791 121.929 77.148 121.878C77.1618 121.877 77.1758 121.877 77.1895 121.876C77.2204 121.875 77.2519 121.875 77.284 121.875C77.3037 121.875 77.3237 121.875 77.3437 121.875C77.3961 121.875 77.4482 121.875 77.498 121.876C77.5117 121.877 77.5257 121.877 77.5394 121.878C80.0083 121.929 82.3572 122.953 84.0759 124.726C85.7945 126.499 86.744 128.879 86.7183 131.348C86.6925 133.817 85.6935 136.177 83.9382 137.914C82.1829 139.651 79.8132 140.625 77.3438 140.625ZM124.219 140.625C121.749 140.625 119.38 139.651 117.624 137.914C115.869 136.177 114.87 133.817 114.844 131.348C114.818 128.879 115.768 126.499 117.487 124.726C119.205 122.953 121.554 121.929 124.023 121.878C124.037 121.877 124.051 121.877 124.065 121.876C124.095 121.875 124.127 121.875 124.159 121.875C124.179 121.875 124.199 121.875 124.219 121.875C124.271 121.875 124.323 121.875 124.373 121.876C124.387 121.877 124.401 121.877 124.414 121.878C126.883 121.929 129.232 122.953 130.951 124.726C132.669 126.499 133.619 128.879 133.593 131.348C133.568 133.817 132.568 136.177 130.813 137.914C129.058 139.651 126.688 140.625 124.219 140.625ZM140.625 131.25H138.281C138.263 127.579 136.817 124.06 134.25 121.436C131.684 118.813 128.197 117.29 124.527 117.191C124.327 117.185 124.111 117.185 123.91 117.191C120.241 117.29 116.754 118.813 114.187 121.436C111.62 124.06 110.175 127.579 110.156 131.25H91.4062C91.3878 127.579 89.9423 124.06 87.3754 121.436C84.8085 118.813 81.3217 117.29 77.6525 117.191C77.4516 117.185 77.2359 117.185 77.035 117.191C73.3658 117.29 69.879 118.813 67.3121 121.436C64.7452 124.06 63.2997 127.579 63.2813 131.25H54.7286L43.6518 122.389C43.2361 122.056 42.7197 121.875 42.1875 121.875H28.125C27.5928 121.875 27.0764 122.056 26.6607 122.389L15.5839 131.25H9.375V119.598C10.326 120.084 11.3392 120.438 12.3862 120.648L13.4076 120.854C17.0073 121.571 20.7317 121.34 24.2146 120.181L26.5231 119.411C26.9288 119.275 27.2897 119.032 27.5668 118.706C27.8439 118.38 28.0265 117.985 28.095 117.562C28.1634 117.14 28.115 116.707 27.955 116.311C27.7951 115.914 27.5296 115.569 27.1874 115.312L22.8195 112.037C20.2885 110.145 17.4754 108.663 14.4834 107.646C17.5303 104.746 21.5749 103.127 25.7813 103.125H109.119C117.965 103.131 126.546 100.109 133.435 94.5614C134.141 95.2564 134.912 95.8829 135.736 96.4325C137.24 97.436 138.473 98.7945 139.326 100.388C139.438 100.597 139.539 100.81 139.637 101.025C135.836 101.647 132.325 103.441 129.593 106.155C129.36 106.388 129.178 106.668 129.061 106.976C128.943 107.284 128.892 107.613 128.91 107.942C128.928 108.271 129.016 108.593 129.167 108.886C129.318 109.179 129.529 109.437 129.786 109.643L140.625 118.314V131.25ZM140.625 112.311L134.966 107.784C136.668 106.65 138.601 105.908 140.625 105.611V112.311Z" fill="#0047BA"/>
<path d="M62.442 106.059H62.4417L59.5841 106.631C55.2026 107.513 51.0724 109.36 47.4931 112.037L43.1252 115.313C42.7831 115.569 42.5177 115.915 42.3578 116.311C42.1978 116.708 42.1495 117.141 42.218 117.563C42.2865 117.985 42.4692 118.381 42.7463 118.706C43.0234 119.032 43.3844 119.276 43.7901 119.411L46.0978 120.18C49.5806 121.34 53.3054 121.572 56.9051 120.853L57.9236 120.649C60.0966 120.209 62.1009 119.163 63.7056 117.633C65.3103 116.102 66.4502 114.15 66.9939 112L67.2251 111.076C67.3929 110.405 67.3883 109.702 67.2116 109.033C67.0349 108.365 66.692 107.751 66.2147 107.251C65.7373 106.75 65.1411 106.378 64.4815 106.17C63.8219 105.962 63.1203 105.923 62.442 106.059H62.442ZM62.4466 110.864C62.1203 112.153 61.4363 113.325 60.4734 114.243C59.5105 115.161 58.3079 115.788 57.004 116.053L55.9855 116.257C53.8959 116.674 51.7451 116.68 49.6529 116.276L50.3055 115.787C53.3244 113.529 56.8079 111.972 60.5034 111.227L62.4531 110.837L62.4466 110.864Z" fill="#0047BA"/>
<path d="M77.3438 133.594C78.6382 133.594 79.6875 132.544 79.6875 131.25C79.6875 129.956 78.6382 128.906 77.3438 128.906C76.0493 128.906 75 129.956 75 131.25C75 132.544 76.0493 133.594 77.3438 133.594Z" fill="#0047BA"/>
<path d="M124.219 133.594C125.513 133.594 126.562 132.544 126.562 131.25C126.562 129.956 125.513 128.906 124.219 128.906C122.924 128.906 121.875 129.956 121.875 131.25C121.875 132.544 122.924 133.594 124.219 133.594Z" fill="#0047BA"/>
<path d="M118.561 107.813H117.188V112.5H118.561C119.92 112.504 121.266 112.238 122.522 111.718C123.778 111.198 124.918 110.434 125.876 109.47L122.561 106.155C122.037 106.682 121.414 107.1 120.727 107.385C120.04 107.669 119.304 107.815 118.561 107.813Z" fill="#0047BA"/>
<path d="M91.4062 107.812H100.781V112.5H91.4062V107.812Z" fill="#0047BA"/>
</svg>
