<svg width="150" height="150" viewBox="0 0 150 150" fill="none" xmlns="http://www.w3.org/2000/svg">
<path d="M114.844 96.0938H108.656C105.07 93.1641 87.3984 79.6875 65.625 79.6875C43.8516 79.6875 26.2031 93.1641 22.5938 96.0938H11.7188C9.85566 96.0993 8.07047 96.8419 6.75306 98.1593C5.43565 99.4767 4.69307 101.262 4.68751 103.125V117.188C4.68637 117.648 4.82535 118.097 5.08594 118.477L14.4609 132.539C14.6733 132.861 14.9619 133.126 15.3013 133.31C15.6407 133.494 16.0202 133.592 16.4063 133.594H25.9922C26.5431 136.869 28.2368 139.843 30.7726 141.988C33.3085 144.133 36.5224 145.31 39.8438 145.31C43.1651 145.31 46.379 144.133 48.9149 141.988C51.4508 139.843 53.1445 136.869 53.6953 133.594H98.6484C99.1993 136.869 100.893 139.843 103.429 141.988C105.965 144.133 109.179 145.31 112.5 145.31C115.821 145.31 119.035 144.133 121.571 141.988C124.107 139.843 125.801 136.869 126.352 133.594H142.969C143.59 133.594 144.187 133.347 144.626 132.907C145.066 132.468 145.313 131.872 145.313 131.25V126.562C145.305 118.484 142.093 110.738 136.38 105.026C130.668 99.3137 122.922 96.1012 114.844 96.0938ZM9.37501 107.812H16.7109L15.1406 110.156H9.37501V107.812ZM39.8438 140.625C37.9896 140.625 36.177 140.075 34.6353 139.045C33.0936 138.015 31.892 136.551 31.1824 134.838C30.4728 133.125 30.2872 131.24 30.6489 129.421C31.0106 127.602 31.9035 125.932 33.2146 124.621C34.5257 123.31 36.1962 122.417 38.0148 122.055C39.8334 121.693 41.7184 121.879 43.4314 122.589C45.1445 123.298 46.6086 124.5 47.6388 126.042C48.6689 127.583 49.2188 129.396 49.2188 131.25C49.2188 133.736 48.231 136.121 46.4729 137.879C44.7147 139.637 42.3302 140.625 39.8438 140.625ZM63.2813 128.906H53.6953C53.1445 125.631 51.4508 122.657 48.9149 120.512C46.379 118.367 43.1651 117.19 39.8438 117.19C36.5224 117.19 33.3085 118.367 30.7726 120.512C28.2368 122.657 26.5431 125.631 25.9922 128.906H17.6719L9.37501 116.484V114.844H16.4063C16.7923 114.842 17.1719 114.744 17.5112 114.56C17.8506 114.376 18.1393 114.111 18.3516 113.789L23.0391 106.758C23.2808 106.41 23.4199 106.002 23.4407 105.579C23.4614 105.157 23.3628 104.737 23.1563 104.367C22.9602 103.99 22.6639 103.675 22.3 103.456C21.936 103.236 21.5186 103.122 21.0938 103.125H9.37501C9.37501 102.503 9.62194 101.907 10.0615 101.468C10.501 101.028 11.0972 100.781 11.7188 100.781H63.2813V128.906ZM63.2813 96.0938H30.6094C40.3101 89.456 51.568 85.4503 63.2813 84.4688V96.0938ZM134.719 110.156H125.484L123.914 107.812H132.492C133.276 108.553 134.019 109.336 134.719 110.156ZM67.9688 84.4688C81.8203 85.1719 93.9141 91.6641 100.641 96.0938H67.9688V84.4688ZM67.9688 107.812H71.4844C71.7952 107.812 72.0933 107.936 72.313 108.156C72.5328 108.376 72.6563 108.674 72.6563 108.984C72.6563 109.295 72.5328 109.593 72.313 109.813C72.0933 110.033 71.7952 110.156 71.4844 110.156H67.9688V107.812ZM112.5 140.625C110.646 140.625 108.833 140.075 107.292 139.045C105.75 138.015 104.548 136.551 103.839 134.838C103.129 133.125 102.943 131.24 103.305 129.421C103.667 127.602 104.56 125.932 105.871 124.621C107.182 123.31 108.852 122.417 110.671 122.055C112.49 121.693 114.375 121.879 116.088 122.589C117.801 123.298 119.265 124.5 120.295 126.042C121.325 127.583 121.875 129.396 121.875 131.25C121.875 133.736 120.887 136.121 119.129 137.879C117.371 139.637 114.986 140.625 112.5 140.625ZM140.625 128.906H126.352C125.801 125.631 124.107 122.657 121.571 120.512C119.035 118.367 115.821 117.19 112.5 117.19C109.179 117.19 105.965 118.367 103.429 120.512C100.893 122.657 99.1993 125.631 98.6484 128.906H67.9688V114.844H71.4844C73.0384 114.844 74.5287 114.226 75.6276 113.128C76.7264 112.029 77.3438 110.538 77.3438 108.984C77.3438 107.43 76.7264 105.94 75.6276 104.841C74.5287 103.742 73.0384 103.125 71.4844 103.125H67.9688V100.781H114.844C118.526 100.779 122.166 101.578 125.508 103.125H119.531C119.106 103.122 118.689 103.236 118.325 103.456C117.961 103.675 117.665 103.99 117.469 104.367C117.262 104.737 117.164 105.157 117.184 105.579C117.205 106.002 117.344 106.41 117.586 106.758L122.273 113.789C122.486 114.111 122.774 114.376 123.114 114.56C123.453 114.744 123.833 114.842 124.219 114.844H137.789C139.654 118.468 140.626 122.486 140.625 126.562V128.906Z" fill="#0047BA"/>
<path d="M112.5 124.219C111.109 124.219 109.75 124.631 108.594 125.404C107.437 126.176 106.536 127.274 106.004 128.559C105.472 129.844 105.333 131.258 105.604 132.622C105.875 133.986 106.545 135.239 107.528 136.222C108.512 137.205 109.764 137.875 111.128 138.146C112.492 138.417 113.906 138.278 115.191 137.746C116.476 137.214 117.574 136.313 118.346 135.156C119.119 134 119.531 132.641 119.531 131.25C119.531 129.385 118.79 127.597 117.472 126.278C116.153 124.96 114.365 124.219 112.5 124.219ZM112.5 133.594C112.036 133.594 111.583 133.456 111.198 133.199C110.812 132.941 110.512 132.575 110.335 132.147C110.157 131.719 110.111 131.247 110.201 130.793C110.292 130.338 110.515 129.92 110.843 129.593C111.171 129.265 111.588 129.042 112.043 128.951C112.497 128.861 112.969 128.907 113.397 129.085C113.825 129.262 114.191 129.562 114.449 129.948C114.706 130.333 114.844 130.786 114.844 131.25C114.844 131.872 114.597 132.468 114.157 132.907C113.718 133.347 113.122 133.594 112.5 133.594Z" fill="#1A75CF"/>
<path d="M39.8438 124.219C38.4531 124.219 37.0937 124.631 35.9374 125.404C34.7811 126.176 33.8799 127.274 33.3477 128.559C32.8155 129.844 32.6763 131.258 32.9476 132.622C33.2189 133.986 33.8886 135.239 34.8719 136.222C35.8552 137.205 37.1081 137.875 38.472 138.146C39.836 138.417 41.2497 138.278 42.5345 137.746C43.8193 137.214 44.9174 136.313 45.69 135.156C46.4626 134 46.875 132.641 46.875 131.25C46.875 129.385 46.1342 127.597 44.8156 126.278C43.497 124.96 41.7086 124.219 39.8438 124.219ZM39.8438 133.594C39.3802 133.594 38.9271 133.456 38.5416 133.199C38.1562 132.941 37.8558 132.575 37.6784 132.147C37.501 131.719 37.4546 131.247 37.545 130.793C37.6355 130.338 37.8587 129.92 38.1865 129.593C38.5142 129.265 38.9319 129.042 39.3865 128.951C39.8412 128.861 40.3124 128.907 40.7407 129.085C41.1689 129.262 41.535 129.562 41.7925 129.948C42.05 130.333 42.1875 130.786 42.1875 131.25C42.1875 131.872 41.9406 132.468 41.501 132.907C41.0615 133.347 40.4654 133.594 39.8438 133.594Z" fill="#1A75CF"/>
<path d="M49.2188 35.1563C51.0729 35.1563 52.8855 34.6064 54.4272 33.5763C55.9689 32.5461 57.1705 31.082 57.8801 29.3689C58.5897 27.6559 58.7753 25.7709 58.4136 23.9523C58.0519 22.1337 57.159 20.4632 55.8479 19.1521C54.5368 17.841 52.8663 16.9481 51.0477 16.5864C49.2291 16.2247 47.3442 16.4103 45.6311 17.1199C43.918 17.8295 42.4539 19.0311 41.4237 20.5728C40.3936 22.1145 39.8438 23.9271 39.8438 25.7813C39.8438 28.2677 40.8315 30.6522 42.5896 32.4104C44.3478 34.1685 46.7323 35.1563 49.2188 35.1563ZM49.2188 21.0938C50.1459 21.0938 51.0521 21.3687 51.823 21.8837C52.5938 22.3988 53.1946 23.1309 53.5494 23.9874C53.9042 24.844 53.997 25.7865 53.8162 26.6957C53.6353 27.605 53.1889 28.4403 52.5333 29.0958C51.8778 29.7514 51.0425 30.1978 50.1332 30.3787C49.2239 30.5596 48.2814 30.4667 47.4249 30.1119C46.5684 29.7572 45.8363 29.1563 45.3212 28.3855C44.8062 27.6146 44.5312 26.7084 44.5312 25.7813C44.5312 24.5381 45.0251 23.3458 45.9042 22.4667C46.7833 21.5876 47.9755 21.0938 49.2188 21.0938Z" fill="#78B3E0"/>
<path d="M68.5312 18.8203L66.9609 18.4219L67.8047 17.0391C68.0728 16.5913 68.1838 16.0669 68.1201 15.549C68.0564 15.031 67.8217 14.5491 67.4531 14.1797L60.8203 7.54688C60.4479 7.18327 59.9665 6.95195 59.45 6.88844C58.9334 6.82493 58.4103 6.93274 57.9609 7.19531L56.5781 8.03906L56.1797 6.46875C56.0541 5.96062 55.762 5.50916 55.3499 5.18634C54.9379 4.86351 54.4297 4.6879 53.9062 4.6875H44.5312C44.0078 4.6879 43.4996 4.86351 43.0876 5.18634C42.6755 5.50916 42.3834 5.96062 42.2578 6.46875L41.8594 8.03906L40.4766 7.19531C40.0272 6.93274 39.5041 6.82493 38.9875 6.88844C38.471 6.95195 37.9895 7.18327 37.6172 7.54688L30.9844 14.1797C30.6158 14.5491 30.3811 15.031 30.3174 15.549C30.2537 16.0669 30.3647 16.5913 30.6328 17.0391L31.4766 18.4219L29.9063 18.8203C29.3981 18.9459 28.9467 19.238 28.6238 19.6501C28.301 20.0621 28.1254 20.5703 28.125 21.0938V30.4688C28.1254 30.9922 28.301 31.5004 28.6238 31.9124C28.9467 32.3245 29.3981 32.6166 29.9063 32.7422L31.4766 33.1406L30.6328 34.5234C30.3647 34.9712 30.2537 35.4956 30.3174 36.0135C30.3811 36.5315 30.6158 37.0134 30.9844 37.3828L37.6172 44.0156C37.9891 44.3799 38.4706 44.6117 38.9874 44.6753C39.5041 44.7388 40.0274 44.6305 40.4766 44.3672L41.8594 43.5234L42.2578 45.0938C42.3834 45.6019 42.6755 46.0533 43.0876 46.3762C43.4996 46.699 44.0078 46.8746 44.5312 46.875H53.9062C54.4297 46.8746 54.9379 46.699 55.3499 46.3762C55.762 46.0533 56.0541 45.6019 56.1797 45.0938L56.5781 43.5234L57.9609 44.3672C58.4103 44.6298 58.9334 44.7376 59.45 44.6741C59.9665 44.6105 60.4479 44.3792 60.8203 44.0156L67.4531 37.3828C67.8217 37.0134 68.0564 36.5315 68.1201 36.0135C68.1838 35.4956 68.0728 34.9712 67.8047 34.5234L66.9609 33.1406L68.5312 32.7422C69.0394 32.6166 69.4908 32.3245 69.8137 31.9124C70.1365 31.5004 70.3121 30.9922 70.3125 30.4688V21.0938C70.3121 20.5703 70.1365 20.0621 69.8137 19.6501C69.4908 19.238 69.0394 18.9459 68.5312 18.8203ZM65.625 28.6406L62.7656 29.3438C62.4109 29.4348 62.0822 29.6071 61.8056 29.8471C61.529 30.0871 61.312 30.3882 61.1719 30.7266C61.0299 31.0659 60.9707 31.4343 60.9992 31.8011C61.0277 32.1679 61.1432 32.5226 61.3359 32.8359L62.8359 35.3672L58.8047 39.3984L56.2734 37.875C55.9562 37.6912 55.6009 37.583 55.2352 37.5586C54.8694 37.5342 54.5029 37.5943 54.1641 37.7344C53.8257 37.8745 53.5246 38.0915 53.2846 38.3681C53.0446 38.6447 52.8723 38.9734 52.7813 39.3281L52.0781 42.1875H46.3594L45.6562 39.3281C45.5652 38.9734 45.3929 38.6447 45.1529 38.3681C44.9129 38.0915 44.6118 37.8745 44.2734 37.7344C43.9346 37.5943 43.5681 37.5342 43.2023 37.5586C42.8366 37.583 42.4813 37.6912 42.1641 37.875L39.6328 39.3984L35.6016 35.3672L37.1016 32.8359C37.2943 32.5226 37.4098 32.1679 37.4383 31.8011C37.4668 31.4343 37.4076 31.0659 37.2656 30.7266C37.1255 30.3882 36.9085 30.0871 36.6319 29.8471C36.3553 29.6071 36.0266 29.4348 35.6719 29.3438L32.8125 28.6406V22.9219L35.6719 22.2187C36.0266 22.1277 36.3553 21.9554 36.6319 21.7154C36.9085 21.4754 37.1255 21.1743 37.2656 20.8359C37.4076 20.4966 37.4668 20.1282 37.4383 19.7614C37.4098 19.3946 37.2943 19.0399 37.1016 18.7266L35.6016 16.1953L39.6328 12.1641L42.1641 13.6641C42.4774 13.8568 42.8321 13.9723 43.1989 14.0008C43.5657 14.0293 43.934 13.9701 44.2734 13.8281C44.6118 13.688 44.9129 13.471 45.1529 13.1944C45.3929 12.9178 45.5652 12.5891 45.6562 12.2344L46.3594 9.375H52.0781L52.7813 12.2344C52.8723 12.5891 53.0446 12.9178 53.2846 13.1944C53.5246 13.471 53.8257 13.688 54.1641 13.8281C54.5035 13.9701 54.8718 14.0293 55.2386 14.0008C55.6054 13.9723 55.9601 13.8568 56.2734 13.6641L58.8047 12.1641L62.8359 16.1953L61.3359 18.7266C61.1432 19.0399 61.0277 19.3946 60.9992 19.7614C60.9707 20.1282 61.0299 20.4966 61.1719 20.8359C61.312 21.1743 61.529 21.4754 61.8056 21.7154C62.0822 21.9554 62.4109 22.1277 62.7656 22.2187L65.625 22.9219V28.6406Z" fill="#1A75CF"/>
<path d="M91.4062 46.875C91.4062 48.7292 91.9561 50.5418 92.9862 52.0835C94.0164 53.6252 95.4805 54.8268 97.1936 55.5364C98.9067 56.2459 100.792 56.4316 102.61 56.0699C104.429 55.7081 106.099 54.8152 107.41 53.5041C108.722 52.193 109.614 50.5225 109.976 48.704C110.338 46.8854 110.152 45.0004 109.443 43.2873C108.733 41.5743 107.531 40.1101 105.99 39.08C104.448 38.0498 102.635 37.5 100.781 37.5C98.2948 37.5 95.9103 38.4877 94.1521 40.2459C92.394 42.004 91.4062 44.3886 91.4062 46.875ZM100.781 42.1875C101.708 42.1875 102.615 42.4624 103.385 42.9775C104.156 43.4926 104.757 44.2246 105.112 45.0812C105.467 45.9377 105.56 46.8802 105.379 47.7895C105.198 48.6988 104.751 49.534 104.096 50.1896C103.44 50.8451 102.605 51.2916 101.696 51.4724C100.786 51.6533 99.844 51.5605 98.9874 51.2057C98.1309 50.8509 97.3988 50.2501 96.8837 49.4792C96.3687 48.7084 96.0938 47.8021 96.0938 46.875C96.0938 45.6318 96.5876 44.4395 97.4667 43.5604C98.3458 42.6814 99.5381 42.1875 100.781 42.1875Z" fill="#78B3E0"/>
<path d="M120.094 39.9141L118.523 39.5156L119.367 38.1328C119.635 37.6851 119.746 37.1607 119.683 36.6427C119.619 36.1248 119.384 35.6429 119.016 35.2734L112.383 28.6406C112.01 28.277 111.529 28.0457 111.012 27.9822C110.496 27.9187 109.973 28.0265 109.523 28.2891L108.141 29.1328L107.742 27.5625C107.617 27.0544 107.324 26.6029 106.912 26.2801C106.5 25.9573 105.992 25.7817 105.469 25.7812H96.0938C95.5703 25.7817 95.0621 25.9573 94.6501 26.2801C94.238 26.6029 93.9459 27.0544 93.8203 27.5625L93.4219 29.1328L92.0391 28.2891C91.5897 28.0265 91.0666 27.9187 90.55 27.9822C90.0335 28.0457 89.552 28.277 89.1797 28.6406L82.5469 35.2734C82.1783 35.6429 81.9436 36.1248 81.8799 36.6427C81.8162 37.1607 81.9272 37.6851 82.1953 38.1328L83.0391 39.5156L81.4687 39.9141C80.9606 40.0397 80.5092 40.3318 80.1863 40.7438C79.8635 41.1558 79.6879 41.6641 79.6875 42.1875V51.5625C79.6879 52.0859 79.8635 52.5942 80.1863 53.0062C80.5092 53.4182 80.9606 53.7103 81.4687 53.8359L83.0391 54.2344L82.1953 55.6172C81.9272 56.0649 81.8162 56.5893 81.8799 57.1073C81.9436 57.6252 82.1783 58.1071 82.5469 58.4766L89.1797 65.1094C89.5516 65.4737 90.0331 65.7055 90.5499 65.769C91.0666 65.8325 91.5899 65.7243 92.0391 65.4609L93.4219 64.6172L93.8203 66.1875C93.9459 66.6956 94.238 67.1471 94.6501 67.4699C95.0621 67.7927 95.5703 67.9683 96.0938 67.9688H105.469C105.992 67.9683 106.5 67.7927 106.912 67.4699C107.324 67.1471 107.617 66.6956 107.742 66.1875L108.141 64.6172L109.523 65.4609C109.973 65.7243 110.496 65.8325 111.013 65.769C111.529 65.7055 112.011 65.4737 112.383 65.1094L119.016 58.4766C119.384 58.1071 119.619 57.6252 119.683 57.1073C119.746 56.5893 119.635 56.0649 119.367 55.6172L118.523 54.2344L120.094 53.8359C120.602 53.7103 121.053 53.4182 121.376 53.0062C121.699 52.5942 121.875 52.0859 121.875 51.5625V42.1875C121.875 41.6641 121.699 41.1558 121.376 40.7438C121.053 40.3318 120.602 40.0397 120.094 39.9141ZM117.188 49.7344L114.328 50.4375C113.973 50.5285 113.645 50.7009 113.368 50.9409C113.091 51.1809 112.875 51.482 112.734 51.8203C112.592 52.1597 112.533 52.528 112.562 52.8948C112.59 53.2616 112.706 53.6163 112.898 53.9297L114.398 56.4609L110.367 60.4922L107.836 58.9688C107.519 58.785 107.163 58.6767 106.798 58.6523C106.432 58.6279 106.065 58.6881 105.727 58.8281C105.388 58.9683 105.087 59.1852 104.847 59.4619C104.607 59.7385 104.435 60.0672 104.344 60.4219L103.641 63.2812H97.9219L97.2187 60.4219C97.1277 60.0672 96.9554 59.7385 96.7154 59.4619C96.4754 59.1852 96.1743 58.9683 95.8359 58.8281C95.4971 58.6881 95.1306 58.6279 94.7648 58.6523C94.399 58.6767 94.0438 58.785 93.7266 58.9688L91.1953 60.4922L87.1641 56.4609L88.6641 53.9297C88.8568 53.6163 88.9723 53.2616 89.0008 52.8948C89.0293 52.528 88.9701 52.1597 88.8281 51.8203C88.688 51.482 88.471 51.1809 88.1944 50.9409C87.9178 50.7009 87.5891 50.5285 87.2344 50.4375L84.375 49.7344V44.0156L87.2344 43.3125C87.5891 43.2215 87.9178 43.0491 88.1944 42.8091C88.471 42.5691 88.688 42.268 88.8281 41.9297C88.9701 41.5903 89.0293 41.222 89.0008 40.8552C88.9723 40.4884 88.8568 40.1337 88.6641 39.8203L87.1641 37.2891L91.1953 33.2578L93.7266 34.7578C94.0399 34.9506 94.3946 35.066 94.7614 35.0945C95.1282 35.1231 95.4965 35.0639 95.8359 34.9219C96.1743 34.7817 96.4754 34.5648 96.7154 34.2881C96.9554 34.0115 97.1277 33.6828 97.2187 33.3281L97.9219 30.4688H103.641L104.344 33.3281C104.435 33.6828 104.607 34.0115 104.847 34.2881C105.087 34.5648 105.388 34.7817 105.727 34.9219C106.066 35.0639 106.434 35.1231 106.801 35.0945C107.168 35.066 107.523 34.9506 107.836 34.7578L110.367 33.2578L114.398 37.2891L112.898 39.8203C112.706 40.1337 112.59 40.4884 112.562 40.8552C112.533 41.222 112.592 41.5903 112.734 41.9297C112.875 42.268 113.091 42.5691 113.368 42.8091C113.645 43.0491 113.973 43.2215 114.328 43.3125L117.188 44.0156V49.7344Z" fill="#1A75CF"/>
<path d="M142.969 44.5312H126.562V49.2188H140.625V96.0938H145.312V46.875C145.312 46.2534 145.066 45.6573 144.626 45.2177C144.186 44.7782 143.59 44.5312 142.969 44.5312Z" fill="#0047BA"/>
<path d="M9.375 28.125H23.4375V23.4375H7.03125C6.40965 23.4375 5.81351 23.6844 5.37397 24.124C4.93443 24.5635 4.6875 25.1596 4.6875 25.7812V91.4062H9.375V28.125Z" fill="#0047BA"/>
<path d="M98.4375 21.0938H103.125V7.03125C103.125 6.40965 102.878 5.81351 102.439 5.37397C101.999 4.93443 101.403 4.6875 100.781 4.6875H67.9688V9.375H98.4375V21.0938Z" fill="#0047BA"/>
<path d="M46.875 51.5625V65.625C46.875 66.2466 47.1219 66.8427 47.5615 67.2823C48.001 67.7218 48.5971 67.9688 49.2188 67.9688H82.0312V63.2812H51.5625V51.5625H46.875Z" fill="#0047BA"/>
</svg>
