<svg width="150" height="150" viewBox="0 0 150 150" fill="none" xmlns="http://www.w3.org/2000/svg">
<path d="M77.3438 147.656H147.656V91.4062H77.3438V147.656ZM105.469 96.0938H119.531V100.781H105.469V96.0938ZM82.0312 96.0938H100.781V105.469H124.219V96.0938H142.969V142.969H82.0312V96.0938Z" fill="#1A75CF"/>
<path d="M133.594 133.594H138.281V138.281H133.594V133.594Z" fill="#78B3E0"/>
<path d="M124.219 133.594H128.906V138.281H124.219V133.594Z" fill="#78B3E0"/>
<path d="M114.844 133.594H119.531V138.281H114.844V133.594Z" fill="#78B3E0"/>
<path d="M142.969 49.2188H138.281V2.34375H77.3438V49.2188H72.6562V2.34375H11.7188V49.2188H7.03125C4.44609 49.2188 2.34375 51.3211 2.34375 53.9062V58.5938C2.34375 61.1789 4.44609 63.2812 7.03125 63.2812H19.3664C18.9773 64.7836 18.75 66.3469 18.75 67.9688C18.75 74.4844 22.0945 80.2289 27.1523 83.5898C12.8016 88.0195 2.34375 101.402 2.34375 117.188C2.34375 121.98 5.24297 126.098 9.375 127.912V147.656H72.6562V117.188C72.6562 101.402 62.1984 88.0195 47.8477 83.5898C52.9055 80.2289 56.25 74.4844 56.25 67.9688C56.25 66.3469 56.0227 64.7836 55.6336 63.2812H142.969C145.554 63.2812 147.656 61.1789 147.656 58.5938V53.9062C147.656 51.3211 145.554 49.2188 142.969 49.2188ZM100.781 7.03125H114.844V11.7188H100.781V7.03125ZM82.0312 7.03125H96.0938V16.4062H119.531V7.03125H133.594V49.2188H119.531V39.8438H96.0938V49.2188H82.0312V7.03125ZM114.844 49.2188H100.781V44.5312H114.844V49.2188ZM35.1562 7.03125H49.2188V11.7188H35.1562V7.03125ZM16.4062 7.03125H30.4688V16.4062H53.9062V7.03125H67.9688V49.2188H53.9062V39.8438H30.4688V49.2188H16.4062V7.03125ZM35.1562 49.2188V44.5312H49.2188V49.2188H35.1562ZM7.03125 58.5938V53.9062H25.1391C23.6156 55.2469 22.3125 56.8289 21.2859 58.5938H7.03125ZM14.0625 128.906H23.4375V142.969H14.0625V128.906ZM36.3281 112.5H28.125V100.781H44.5312V112.5H56.25V142.969H28.125V128.906H36.3281C40.8516 128.906 44.5312 125.227 44.5312 120.703C44.5312 116.18 40.8516 112.5 36.3281 112.5ZM49.2188 104.095L52.9359 107.812H49.2188V104.095ZM67.9688 117.188V142.969H60.9375V109.186L47.8453 96.0938H23.4375V112.5H16.4062V117.188H36.3281C38.2664 117.188 39.8438 118.765 39.8438 120.703C39.8438 122.641 38.2664 124.219 36.3281 124.219H14.0625C10.1859 124.219 7.03125 121.064 7.03125 117.188C7.03125 100.387 20.7 86.7188 37.5 86.7188C54.3 86.7188 67.9688 100.387 67.9688 117.188ZM37.5 82.0312C29.7445 82.0312 23.4375 75.7242 23.4375 67.9688C23.4375 60.2133 29.7445 53.9062 37.5 53.9062C45.2555 53.9062 51.5625 60.2133 51.5625 67.9688C51.5625 75.7242 45.2555 82.0312 37.5 82.0312ZM142.969 58.5938H53.7141C52.6898 56.8289 51.3844 55.2469 49.8609 53.9062H142.969V58.5938Z" fill="#0047BA"/>
<path d="M114.844 124.219H138.281V128.906H114.844V124.219Z" fill="#78B3E0"/>
</svg>
