<svg width="150" height="150" viewBox="0 0 150 150" fill="none" xmlns="http://www.w3.org/2000/svg">
<g clip-path="url(#clip0)">
<path d="M60.6244 0C52.348 0 45.615 6.73301 45.615 15.0094C45.615 23.2857 52.3483 30.0187 60.6244 30.0187C68.9007 30.0187 75.6338 23.2857 75.6338 15.0094C75.6338 6.73301 68.9007 0 60.6244 0ZM60.6244 25.6239C54.7714 25.6239 50.0098 20.8623 50.0098 15.0094C50.0098 9.15644 54.7717 4.39482 60.6244 4.39482C66.4773 4.39482 71.2389 9.15674 71.2389 15.0094C71.2389 20.862 66.4773 25.6239 60.6244 25.6239Z" fill="#1A75CF"/>
<path d="M116.895 91.4869C116.028 90.6378 114.637 90.6507 113.787 91.5173L95.3435 110.327L88.8302 103.513C87.9917 102.635 86.6007 102.604 85.7233 103.442C84.8461 104.281 84.8145 105.672 85.653 106.549L93.7348 115.005C94.592 115.902 96.0229 115.912 96.8924 115.025L116.925 94.5947C117.775 93.7275 117.761 92.3365 116.895 91.4869Z" fill="#1A75CF"/>
<path d="M129.019 106.164C127.829 105.928 126.672 106.7 126.435 107.891C123.916 120.569 114.97 131.401 103.088 136.161C101.962 136.612 101.415 137.891 101.866 139.018C102.317 140.145 103.596 140.691 104.723 140.24C118.402 134.76 127.993 122.603 130.746 108.748C130.983 107.557 130.209 106.4 129.019 106.164Z" fill="#0047BA"/>
<path d="M125.247 72.3028C119.369 75.6236 113.824 75.7343 108.766 72.6321C104.746 70.1662 102.492 66.5541 102.403 66.4082C101.662 65.1962 100.398 64.4515 98.9894 64.3835C94.9013 52.9375 88.0783 44.9869 82.9385 40.2533C79.6604 37.2346 75.4056 35.5723 70.9575 35.5723C68.8211 35.5723 52.3721 35.5723 50.2923 35.5723C45.5432 35.5723 41.023 37.3567 37.5645 40.5967C30.4435 47.2682 18.4866 61.8429 18.4165 84.4924C18.4016 89.2414 22.1721 93.2091 26.8213 93.3371C31.6778 93.4792 35.7126 89.5819 35.7126 84.6925C35.7126 76.1922 38.1 68.1904 42.6686 61.2306V142.376C42.6686 146.58 46.0887 150 50.2925 150H55.1989C57.32 150 59.2419 149.129 60.6253 147.726C62.0087 149.129 63.9303 150 66.0517 150H70.9581C75.1619 150 78.582 146.58 78.582 142.376V130.792C82.647 134.876 87.4868 138.098 92.8347 140.24C93.9621 140.691 95.2409 140.143 95.6918 139.017C96.1432 137.891 95.5957 136.612 94.4692 136.16C80.3217 130.492 70.3698 116.44 70.3698 100.205V76.2532C79.2661 81.1804 87.8797 79.9786 94.9165 73.412C96.5308 71.9289 97.8462 70.3595 98.7354 68.965C98.7492 68.9439 98.7673 68.9172 98.7794 68.8985C99.4104 69.8732 102.047 73.6657 106.47 76.3786C110.918 79.1073 118.11 81.2832 127.189 76.2529V98.0648C127.189 99.2786 128.173 100.262 129.387 100.262C130.6 100.262 131.584 99.2786 131.584 98.0648V76.0006C131.583 72.7528 128.08 70.7035 125.247 72.3028ZM64.4884 39.9671L61.8572 43.0925C61.213 43.8575 60.037 43.8575 59.3925 43.0925L56.761 39.9671H64.4884ZM78.5814 74.6799V61.7992C81.113 65.7742 82.9273 70.0583 84.0014 74.6044C82.24 74.9905 80.4365 75.0145 78.5814 74.6799ZM88.1317 72.9907C86.3668 65.938 82.9827 59.4748 78.0485 53.7449C76.7199 52.2021 74.1857 53.1502 74.1857 55.1787V73.2605C73.2391 72.8295 72.052 72.1701 72.0195 72.1548C69.2275 70.8409 65.9732 72.8744 65.9732 76.0009V76.0765V100.206C65.9732 109.404 68.8176 118.202 74.1857 125.626V142.377H74.1869C74.1869 144.157 72.7384 145.606 70.9578 145.606H66.0514C64.271 145.606 62.8223 144.158 62.8223 142.377V97.2184C62.8223 96.0046 61.8385 95.0211 60.625 95.0211C59.4115 95.0211 58.4277 96.0046 58.4277 97.2184V142.376C58.4277 144.157 56.9793 145.606 55.1986 145.606H50.2923C48.5119 145.606 47.0631 144.157 47.0631 142.376V54.7469C47.0631 52.7257 44.5521 51.7808 43.2179 53.2931C35.4322 62.1162 31.3172 72.9743 31.3172 84.6928C31.3172 87.0585 29.3853 89.0027 26.942 88.9444C24.6568 88.8814 22.8035 86.8906 22.8111 84.5064C22.8761 63.5069 33.9648 49.9917 40.5692 43.8044C43.2103 41.33 46.6629 39.9671 50.292 39.9671H51.0159L56.0304 45.9226C58.4307 48.7744 62.8214 48.7706 65.2188 45.9226L70.233 39.9671H70.9569C74.2994 39.9671 77.4969 41.2169 79.961 43.486C84.8287 47.969 91.3244 55.5566 95.0827 66.5175C93.4092 69.0426 90.8572 71.4523 88.1317 72.9907Z" fill="#0047BA"/>
</g>
<defs>
<clipPath id="clip0">
<rect width="150" height="150" fill="white"/>
</clipPath>
</defs>
</svg>
