<svg width="151" height="150" viewBox="0 0 151 150" fill="none" xmlns="http://www.w3.org/2000/svg">
<g clip-path="url(#clip0)">
<path d="M148.438 39.4075C149.786 37.5817 150.509 35.3697 150.5 33.1C150.5 31.1782 149.982 29.2919 149 27.64C147.433 25.0308 144.822 23.2197 141.829 22.6668C138.836 22.114 135.75 22.8726 133.355 24.75L89.7125 59.05L85.9625 44.0125C87.2392 43.0735 87.9951 41.5848 88 40V35C87.9957 33.0396 86.8462 31.2627 85.06 30.455C86.9462 28.2323 87.9874 25.4151 88 22.5C88 11.89 77.15 2.22249 72.52 0.429992C71.2032 -0.300023 69.5619 -0.0672964 68.5 0.999992C67.565 2.08782 67.463 3.66321 68.25 4.86249C70.5 9.36249 69.1125 11.06 66.815 13.8625C64.5246 16.1747 63.1664 19.2497 63 22.5C63.0126 25.4151 64.0538 28.2323 65.94 30.455C64.1538 31.2627 63.0043 33.0396 63 35V40C63.0066 41.5862 63.7655 43.0751 65.045 44.0125L57.4625 74.34L57.435 74.445L53.55 90H50.5V47.5C53.2614 47.5 55.5 45.2614 55.5 42.5V30C55.5 27.2386 53.2614 25 50.5 25H48V12.5C48 11.1193 46.8807 9.99999 45.5 9.99999C44.1193 9.99999 43 11.1193 43 12.5V25H38V20C38 15.8579 34.6421 12.5 30.5 12.5H25.5C21.3579 12.5 18 15.8579 18 20V25H13V12.5C13 11.1193 11.8807 9.99999 10.5 9.99999C9.11929 9.99999 8 11.1193 8 12.5V25H6.315C4.74442 24.9975 3.26397 25.7332 2.31738 26.9865C1.37079 28.2398 1.06809 29.865 1.5 31.375L5.5 45.355V102.96C2.51412 104.016 0.513128 106.833 0.5 110V115C0.5 119.142 3.85786 122.5 8 122.5H13V138.022C12.0081 138.893 11.0752 139.828 10.2075 140.822C8.0925 143.155 6.4225 145 3 145C1.61929 145 0.5 146.119 0.5 147.5C0.5 148.881 1.61929 150 3 150C7.3488 149.876 11.3881 147.721 13.9125 144.178C16.0275 141.842 17.6975 140 21.1175 140C24.5375 140 26.21 141.845 28.325 144.178C30.6158 147.291 34.0613 149.354 37.8875 149.902C37.9275 149.902 37.96 149.925 38 149.925H38.0525C38.4425 149.958 38.8175 150.01 39.235 150.01C43.5838 149.886 47.6231 147.731 50.1475 144.188C52.2625 141.842 53.9325 140 57.3525 140C60.7725 140 62.4475 141.845 64.5625 144.18C67.0883 147.721 71.1269 149.875 75.475 150C79.8253 149.876 83.8662 147.721 86.3925 144.178C88.5 141.845 90.18 140 93.605 140C97.03 140 98.7 141.845 100.815 144.18C103.341 147.721 107.379 149.875 111.728 150C112.155 150 112.54 149.947 112.938 149.912H113C113.045 149.906 113.089 149.897 113.133 149.885C116.938 149.323 120.363 147.265 122.645 144.167C124.765 141.845 126.437 140 129.865 140C133.292 140 134.962 141.845 137.08 144.18C139.608 147.722 143.65 149.876 148 150C149.381 150 150.5 148.881 150.5 147.5C150.5 146.119 149.381 145 148 145C144.575 145 142.902 143.155 140.785 140.82C139.918 139.831 138.988 138.9 138 138.033V122.5H143C147.142 122.5 150.5 119.142 150.5 115V110C150.5 105.858 147.142 102.5 143 102.5V46.6575L148.438 39.4075ZM136.438 28.6975C137.712 27.7065 139.349 27.3064 140.938 27.5975C142.506 27.882 143.875 28.8333 144.688 30.205C145.844 32.148 145.735 34.5927 144.41 36.425L104.25 90H97.45L91.0425 64.365L136.438 28.6975ZM65.825 61.5L82.705 72.5H63.0775L65.825 61.5ZM83 35V40H68V35H83ZM81.05 45L83.55 55H67.4525L69.9525 45H81.05ZM85.8125 64.05L87.155 69.42L72.67 60H84.8L85.8125 64.05ZM70.7025 17.05C73.2721 14.5535 74.5892 11.0378 74.2925 7.46749C78.045 10.615 83 16.4275 83 22.5C83 26.6421 79.6421 30 75.5 30C71.3579 30 68 26.6421 68 22.5C68.1929 20.4079 69.156 18.4621 70.7025 17.04V17.05ZM61.8275 77.5H80.365L59.23 87.8825L61.8275 77.5ZM89.45 78.6075L92.3 90H66.25L89.45 78.6075ZM45.5 67.5H35.5V57.5H45.5V67.5ZM45.5 52.5H35.5C32.7386 52.5 30.5 54.7386 30.5 57.5V67.5C30.5 70.2614 32.7386 72.5 35.5 72.5H45.5V90H30.5C29.1193 90 28 91.1193 28 92.5C28 93.8807 29.1193 95 30.5 95H125.5V102.5H10.5V95H18C19.3807 95 20.5 93.8807 20.5 92.5C20.5 91.1193 19.3807 90 18 90H10.5V72.5H20.5C23.2614 72.5 25.5 70.2614 25.5 67.5V57.5C25.5 54.7386 23.2614 52.5 20.5 52.5H10.5V47.5H45.5V52.5ZM10.5 57.5H20.5V67.5H10.5V57.5ZM23 20C23 18.6193 24.1193 17.5 25.5 17.5H30.5C31.8807 17.5 33 18.6193 33 20V25H23V20ZM20.5 30H50.5V42.5H9.885L6.315 30H20.5ZM32.03 140.822C29.5056 137.279 25.4663 135.124 21.1175 135C20.0657 135.002 19.0184 135.137 18 135.4V122.5H35.5V144C34.1964 143.113 33.0276 142.043 32.03 140.822ZM104.53 140.822C102.089 137.184 97.9954 135.001 93.6137 135.001C89.2321 135.001 85.1385 137.184 82.6975 140.822C80.57 143.155 78.9 145 75.475 145C72.05 145 70.3825 143.157 68.2675 140.822C65.7423 137.279 61.7021 135.124 57.3525 135C53.0043 135.124 48.9656 137.279 46.4425 140.822C45.0311 142.867 42.9153 144.32 40.5 144.902V122.5H110.5V144.91C108.068 144.338 105.936 142.881 104.52 140.822H104.53ZM133 135.402C131.976 135.137 130.923 135.002 129.865 135C125.513 135.124 121.471 137.279 118.942 140.822C117.95 142.032 116.791 143.094 115.5 143.977V122.5H133V135.402ZM145.5 110V115C145.5 116.381 144.381 117.5 143 117.5H8C6.61929 117.5 5.5 116.381 5.5 115V110C5.5 108.619 6.61929 107.5 8 107.5H143C144.381 107.5 145.5 108.619 145.5 110ZM138 102.5H130.5V95C130.5 92.2386 128.261 90 125.5 90H110.5L138 53.3275V102.5Z" fill="#0047BA"/>
</g>
<defs>
<clipPath id="clip0">
<rect width="150" height="150" fill="white" transform="translate(0.5)"/>
</clipPath>
</defs>
</svg>
