<svg width="151" height="150" viewBox="0 0 151 150" fill="none" xmlns="http://www.w3.org/2000/svg">
<g clip-path="url(#clip0)">
<path d="M145.508 107.861V103.252C145.508 103.249 145.508 103.246 145.508 103.243V91.5234C145.508 91.5205 145.508 91.5179 145.508 91.5149V90.3515C145.508 85.8214 142.113 82.023 137.613 81.5171L108.64 78.244L101.057 55.454C101.555 54.859 101.856 54.0934 101.856 53.2585V51.8836C101.856 47.5837 98.3583 44.0856 94.0587 44.0856H56.6706C55.4571 44.0856 54.4733 45.0694 54.4733 46.2832C54.4733 47.497 55.4571 48.4807 56.6706 48.4807H94.0584C95.9349 48.4807 97.4612 50.0074 97.4612 51.8839V52.2896H40.3323V51.8839C40.3323 50.0074 41.8587 48.4807 43.7352 48.4807H47.3908C48.6043 48.4807 49.5881 47.497 49.5881 46.2832C49.5881 45.0694 48.6043 44.0856 47.3908 44.0856H43.7352C39.4355 44.0856 35.9378 47.5837 35.9378 51.8836V53.2585C35.9378 54.1679 36.2964 54.9937 36.8768 55.6075L29.4922 78.1969L19.1709 79.028V73.7338C19.1709 71.7515 17.5584 70.139 15.5762 70.139H8.41016C6.42822 70.139 4.81572 71.7515 4.81572 73.7338V82.2035C4.81572 82.2056 4.81543 82.2073 4.81543 82.2091V108.074C3.93066 108.399 3.11826 108.908 2.43535 109.594C1.1873 110.838 0.5 112.494 0.5 114.257C0.5 117.892 3.45693 120.849 7.0918 120.849H14.8142C16.008 128.15 22.3572 133.741 29.9905 133.741C37.6238 133.741 43.9728 128.15 45.1669 120.849H84.6729C85.8863 120.849 86.8701 119.865 86.8701 118.651C86.8701 117.438 85.8863 116.454 84.6729 116.454H45.2492C45.057 114.906 44.6349 113.43 44.017 112.059H104.833C104.215 113.43 103.793 114.906 103.601 116.454H94.3203C93.1068 116.454 92.123 117.438 92.123 118.651C92.123 119.865 93.1068 120.849 94.3203 120.849H103.683C104.877 128.15 111.226 133.74 118.859 133.74C126.492 133.74 132.842 128.15 134.036 120.849H143.908C145.671 120.849 147.327 120.161 148.565 118.919C149.813 117.675 150.5 116.019 150.5 114.257C150.5 111.173 148.372 108.578 145.508 107.861ZM141.113 101.046H136.918C134.224 101.046 132.032 98.8535 132.032 96.1591V94.4613C132.032 94.0532 132.363 93.7213 132.772 93.7213H141.113V101.046ZM103.952 78.0723H75.3535V56.6842H96.8346L103.952 78.0723ZM70.959 56.6842V78.0723H66.5645V56.6842H70.959ZM41.1485 56.6842H62.1699V78.0723H34.1565L41.1485 56.6842ZM9.21025 74.5342H14.7767V83.1773C14.7767 86.2787 12.2929 88.8108 9.21025 88.8888V74.5342ZM4.89453 114.257C4.89453 113.671 5.12275 113.12 5.54287 112.702C5.95566 112.287 6.50586 112.059 7.0918 112.059H15.9641C15.3459 113.43 14.9237 114.906 14.7318 116.454H7.0918C5.88008 116.454 4.89453 115.468 4.89453 114.257ZM29.9905 129.345C23.9325 129.345 19.0042 124.417 19.0042 118.358C19.0042 112.3 23.9325 107.371 29.9905 107.371C36.0485 107.371 40.9769 112.3 40.9769 118.358C40.9769 124.417 36.0485 129.345 29.9905 129.345ZM29.9905 102.976C25.6619 102.976 21.7481 104.776 18.9506 107.664H9.20996V93.2815C14.6287 93.2039 19.0268 88.8422 19.1645 83.4375L31.2151 82.4672H66.6995V107.664H41.0305C38.2329 104.776 34.3191 102.976 29.9905 102.976ZM71.094 107.664V82.4672H106.873L137.12 85.8844C139.046 86.1009 140.567 87.5106 140.991 89.3262H132.771C129.94 89.3262 127.637 91.6298 127.637 94.461V96.1588C127.637 101.277 131.8 105.44 136.918 105.44H141.113V107.664H129.899C127.101 104.776 123.187 102.976 118.859 102.976C114.531 102.976 110.617 104.776 107.819 107.664H71.094V107.664ZM118.859 129.345C112.801 129.345 107.873 124.417 107.873 118.358C107.873 112.3 112.801 107.371 118.859 107.371C124.917 107.371 129.846 112.3 129.846 118.358C129.846 124.417 124.917 129.345 118.859 129.345ZM145.457 115.811C145.044 116.226 144.494 116.454 143.908 116.454H134.118C133.926 114.906 133.504 113.43 132.886 112.059H143.908C145.12 112.059 146.105 113.045 146.105 114.257C146.105 114.843 145.877 115.393 145.457 115.811Z" fill="#0047BA"/>
<path d="M118.859 111.473C115.063 111.473 111.975 114.562 111.975 118.358C111.975 122.155 115.063 125.244 118.859 125.244C122.656 125.244 125.744 122.155 125.744 118.358C125.744 114.562 122.656 111.473 118.859 111.473ZM118.859 120.849C117.486 120.849 116.369 119.732 116.369 118.358C116.369 116.985 117.486 115.868 118.859 115.868C120.233 115.868 121.35 116.985 121.35 118.358C121.35 119.732 120.233 120.849 118.859 120.849Z" fill="#1A75CF"/>
<path d="M29.9907 111.473C26.1944 111.473 23.106 114.562 23.106 118.358C23.106 122.155 26.1944 125.244 29.9907 125.244C33.787 125.244 36.8755 122.155 36.8755 118.358C36.8755 114.562 33.787 111.473 29.9907 111.473ZM29.9907 120.849C28.6176 120.849 27.5005 119.732 27.5005 118.358C27.5005 116.985 28.6176 115.868 29.9907 115.868C31.3639 115.868 32.481 116.985 32.481 118.358C32.481 119.732 31.3639 120.849 29.9907 120.849Z" fill="#1A75CF"/>
<path d="M88.143 88.1241H83.8162C82.6027 88.1241 81.6189 89.1079 81.6189 90.3217C81.6189 91.5355 82.6027 92.519 83.8162 92.519H88.143C89.3565 92.519 90.3403 91.5352 90.3403 90.3217C90.3403 89.1082 89.3565 88.1241 88.143 88.1241Z" fill="#1A75CF"/>
<path d="M58.0195 88.1241H53.6926C52.4792 88.1241 51.4954 89.1079 51.4954 90.3217C51.4954 91.5355 52.4792 92.519 53.6926 92.519H58.0195C59.233 92.519 60.2167 91.5352 60.2167 90.3217C60.2167 89.1082 59.2333 88.1241 58.0195 88.1241Z" fill="#1A75CF"/>
<path d="M82.1112 35.3019H96.3422C96.806 38.8585 98.3974 42.2947 101.123 45.0211C104.408 48.3065 108.724 49.9491 113.039 49.9491C115.202 49.9491 117.365 49.536 119.398 48.7108L131.003 60.3173C132.249 61.565 133.905 62.2521 135.667 62.2521C137.428 62.2521 139.085 61.565 140.329 60.3185C142.899 57.7477 142.899 53.5647 140.329 50.9936L128.682 39.346C129.808 36.5206 130.173 33.4025 129.661 30.3264C129.462 29.129 128.329 28.3201 127.133 28.5193C125.936 28.7186 125.127 29.8506 125.326 31.0477C125.986 35.0133 124.685 39.0753 121.847 41.9136C116.991 46.7707 109.087 46.7707 104.231 41.9136C102.362 40.045 101.216 37.7253 100.785 35.3022H105.112C105.813 35.3022 106.471 34.9685 106.885 34.4033L108.052 32.8108L110.59 39.2441C110.894 40.0134 111.604 40.5472 112.427 40.6251C112.496 40.6318 112.566 40.6351 112.635 40.6351C113.382 40.6351 114.085 40.2533 114.49 39.6138L117.222 35.3022H119.284C120.497 35.3022 121.481 34.3184 121.481 33.1046C121.481 31.8911 120.497 30.907 119.284 30.907H116.013C115.261 30.907 114.56 31.2923 114.157 31.9283L113.092 33.6106L110.677 27.4922C110.383 26.7478 109.708 26.2219 108.914 26.1193C108.121 26.0165 107.334 26.3543 106.861 27L103.998 30.907H100.784C101.215 28.4839 102.362 26.1642 104.23 24.2956C109.087 19.4385 116.99 19.4385 121.847 24.2956C122.705 25.1537 124.096 25.1537 124.954 24.2956C125.812 23.4375 125.812 22.0462 124.954 21.1881C118.384 14.6174 107.693 14.6174 101.123 21.1881C98.3965 23.9145 96.8051 27.3507 96.3413 30.9073H82.1104C80.8969 30.9073 79.9131 31.8911 79.9131 33.1049C79.914 34.3181 80.8978 35.3019 82.1112 35.3019ZM137.222 54.1011C138.079 54.9583 138.079 56.3534 137.22 57.2121C136.805 57.6281 136.254 57.8569 135.667 57.8569C135.081 57.8569 134.529 57.6278 134.112 57.2107L123.34 46.437C123.9 46.0037 124.441 45.5347 124.955 45.0211C125.492 44.4844 125.983 43.9122 126.437 43.3157L137.222 54.1011Z" fill="#1A75CF"/>
</g>
<defs>
<clipPath id="clip0">
<rect width="150" height="150" fill="white" transform="translate(0.5)"/>
</clipPath>
</defs>
</svg>
