<svg width="150" height="150" viewBox="0 0 150 150" fill="none" xmlns="http://www.w3.org/2000/svg">
<path d="M70.2759 14.0625C68.8852 14.0625 67.5258 14.4749 66.3695 15.2475C65.2132 16.0201 64.312 17.1182 63.7799 18.403C63.2477 19.6878 63.1084 21.1015 63.3797 22.4655C63.651 23.8294 64.3207 25.0823 65.304 26.0656C66.2874 27.0489 67.5402 27.7186 68.9042 27.9899C70.2681 28.2612 71.6818 28.122 72.9666 27.5898C74.2514 27.0576 75.3496 26.1564 76.1222 25.0001C76.8948 23.8438 77.3071 22.4844 77.3071 21.0938C77.305 19.2296 76.5635 17.4424 75.2453 16.1243C73.9272 14.8062 72.14 14.0647 70.2759 14.0625ZM70.2759 23.4375C69.8123 23.4375 69.3592 23.3 68.9738 23.0425C68.5883 22.785 68.2879 22.4189 68.1105 21.9907C67.9332 21.5624 67.8867 21.0912 67.9772 20.6365C68.0676 20.1819 68.2908 19.7642 68.6186 19.4365C68.9464 19.1087 69.364 18.8855 69.8186 18.795C70.2733 18.7046 70.7445 18.751 71.1728 18.9284C71.6011 19.1058 71.9671 19.4062 72.2246 19.7916C72.4822 20.1771 72.6196 20.6302 72.6196 21.0938C72.6189 21.7151 72.3718 22.3109 71.9324 22.7503C71.493 23.1896 70.8973 23.4368 70.2759 23.4375Z" fill="#78B3E0"/>
<path d="M128.906 91.4062H121.875C121.253 91.4062 120.657 91.6532 120.218 92.0927C119.778 92.5323 119.531 93.1284 119.531 93.75C119.531 94.3716 119.778 94.9677 120.218 95.4073C120.657 95.8468 121.253 96.0938 121.875 96.0938H128.906C129.528 96.0938 130.124 95.8468 130.564 95.4073C131.003 94.9677 131.25 94.3716 131.25 93.75C131.25 93.1284 131.003 92.5323 130.564 92.0927C130.124 91.6532 129.528 91.4062 128.906 91.4062Z" fill="#1A75CF"/>
<path d="M128.906 100.781H121.875C121.253 100.781 120.657 101.028 120.218 101.468C119.778 101.907 119.531 102.503 119.531 103.125C119.531 103.747 119.778 104.343 120.218 104.782C120.657 105.222 121.253 105.469 121.875 105.469H128.906C129.528 105.469 130.124 105.222 130.564 104.782C131.003 104.343 131.25 103.747 131.25 103.125C131.25 102.503 131.003 101.907 130.564 101.468C130.124 101.028 129.528 100.781 128.906 100.781Z" fill="#1A75CF"/>
<path d="M128.906 110.156H121.875C121.253 110.156 120.657 110.403 120.218 110.843C119.778 111.282 119.531 111.878 119.531 112.5C119.531 113.122 119.778 113.718 120.218 114.157C120.657 114.597 121.253 114.844 121.875 114.844H128.906C129.528 114.844 130.124 114.597 130.564 114.157C131.003 113.718 131.25 113.122 131.25 112.5C131.25 111.878 131.003 111.282 130.564 110.843C130.124 110.403 129.528 110.156 128.906 110.156Z" fill="#1A75CF"/>
<path d="M128.906 119.531H121.875C121.253 119.531 120.657 119.778 120.218 120.218C119.778 120.657 119.531 121.253 119.531 121.875C119.531 122.497 119.778 123.093 120.218 123.532C120.657 123.972 121.253 124.219 121.875 124.219H128.906C129.528 124.219 130.124 123.972 130.564 123.532C131.003 123.093 131.25 122.497 131.25 121.875C131.25 121.253 131.003 120.657 130.564 120.218C130.124 119.778 129.528 119.531 128.906 119.531Z" fill="#1A75CF"/>
<path d="M128.906 128.906H121.875C121.253 128.906 120.657 129.153 120.218 129.593C119.778 130.032 119.531 130.628 119.531 131.25C119.531 131.872 119.778 132.468 120.218 132.907C120.657 133.347 121.253 133.594 121.875 133.594H128.906C129.528 133.594 130.124 133.347 130.564 132.907C131.003 132.468 131.25 131.872 131.25 131.25C131.25 130.628 131.003 130.032 130.564 129.593C130.124 129.153 129.528 128.906 128.906 128.906Z" fill="#1A75CF"/>
<path d="M30.4688 138.281C32.8638 138.28 35.2413 137.873 37.5001 137.077V138.281C37.4991 139.714 37.9364 141.114 38.7534 142.291C39.5704 143.469 40.7279 144.369 42.0708 144.869C43.4136 145.37 44.8775 145.449 46.2662 145.094C47.6548 144.739 48.9017 143.968 49.8396 142.884C54.2389 144.499 58.8897 145.322 63.5761 145.312H76.9756C82.3885 145.328 87.7467 144.229 92.7162 142.083C94.889 144.157 97.7776 145.314 100.781 145.312H128.906C132.013 145.309 134.992 144.073 137.189 141.876C139.386 139.679 140.622 136.701 140.625 133.594V96.0938C140.624 92.6037 139.756 89.1686 138.1 86.0965C136.444 83.0244 134.051 80.4113 131.136 78.4916C132.604 77.672 133.824 76.4726 134.669 75.0192C135.514 73.5658 135.952 71.9119 135.937 70.2309C135.923 68.55 135.456 66.9038 134.587 65.4652C133.717 64.0265 132.477 62.8483 130.995 62.054C131.165 61.303 131.25 60.5355 131.25 59.7656C131.25 55.507 128.593 51.5566 124.219 49.1716V39.8438C124.22 38.2262 123.802 36.6359 123.006 35.2277C122.21 33.8195 121.063 32.6414 119.677 31.8079C118.29 30.9744 116.712 30.514 115.095 30.4714C113.478 30.4288 111.878 30.8056 110.449 31.565C107.749 23.7205 102.667 16.9144 95.9132 12.0962C89.1593 7.27802 81.0699 4.68802 72.7735 4.6875H67.779C57.6862 4.68741 47.9695 8.51752 40.5914 15.4043C33.2133 22.291 28.7237 31.7211 28.0293 41.7899L24.2189 97.0392C19.3975 98.5334 15.2717 101.707 12.5907 105.984C9.90968 110.261 8.85124 115.357 9.60755 120.348C10.3639 125.339 12.8847 129.893 16.7125 133.183C20.5403 136.474 25.4211 138.283 30.4688 138.281ZM46.8751 138.281C46.8751 138.903 46.6282 139.499 46.1886 139.939C45.7491 140.378 45.1529 140.625 44.5313 140.625C43.9097 140.625 43.3136 140.378 42.8741 139.939C42.4345 139.499 42.1876 138.903 42.1876 138.281V96.0938C42.1876 95.4721 42.4345 94.876 42.8741 94.4365C43.3136 93.9969 43.9097 93.75 44.5313 93.75C45.1529 93.75 45.7491 93.9969 46.1886 94.4365C46.6282 94.876 46.8751 95.4721 46.8751 96.0938V138.281ZM51.5626 105.593C51.9479 105.511 52.3406 105.469 52.7345 105.469C55.5364 105.469 58.213 107.623 59.7168 111.09C59.8987 111.509 60.1992 111.865 60.5812 112.116C60.9631 112.367 61.41 112.5 61.8669 112.5H72.6563C73.8995 112.5 75.0918 112.994 75.9709 113.873C76.85 114.752 77.3438 115.944 77.3438 117.188C77.3438 118.431 76.85 119.623 75.9709 120.502C75.0918 121.381 73.8995 121.875 72.6563 121.875H61.8669C61.41 121.875 60.9631 122.008 60.5812 122.259C60.1992 122.51 59.8987 122.866 59.7168 123.285C58.213 126.752 55.5364 128.906 52.7345 128.906C52.3406 128.906 51.9479 128.864 51.5626 128.782V105.593ZM135.938 96.0938V133.594C135.935 135.458 135.194 137.245 133.876 138.563C132.558 139.881 130.77 140.623 128.906 140.625H100.781C98.9172 140.623 97.13 139.881 95.8119 138.563C94.4938 137.245 93.7523 135.458 93.7501 133.594V96.0938C93.755 91.744 95.4851 87.5739 98.5608 84.4982C101.636 81.4225 105.807 79.6924 110.156 79.6875H119.531C123.881 79.6924 128.051 81.4225 131.127 84.4982C134.203 87.5739 135.933 91.744 135.938 96.0938ZM126.563 75H103.125C101.882 75 100.69 74.5061 99.8105 73.6271C98.9314 72.748 98.4376 71.5557 98.4376 70.3125C98.4376 69.0693 98.9314 67.877 99.8105 66.9979C100.69 66.1189 101.882 65.625 103.125 65.625H126.563C127.806 65.625 128.998 66.1189 129.877 66.9979C130.756 67.877 131.25 69.0693 131.25 70.3125C131.25 71.5557 130.756 72.748 129.877 73.6271C128.998 74.5061 127.806 75 126.563 75ZM114.844 35.1562C116.087 35.1577 117.278 35.6521 118.157 36.5308C119.036 37.4096 119.53 38.601 119.531 39.8438V50.6332C119.531 51.09 119.665 51.5369 119.915 51.9189C120.166 52.3009 120.523 52.6014 120.942 52.7833C124.409 54.2871 126.563 56.9637 126.563 59.7656C126.562 60.1595 126.52 60.5522 126.439 60.9375H103.25C103.168 60.5522 103.126 60.1595 103.125 59.7656C103.125 56.9637 105.279 54.2871 108.746 52.7833C109.165 52.6014 109.522 52.3009 109.772 51.9189C110.023 51.5369 110.156 51.09 110.156 50.6332V39.8438C110.158 38.601 110.652 37.4096 111.531 36.5308C112.41 35.6521 113.601 35.1577 114.844 35.1562ZM32.7059 42.1125C33.1961 35.0295 35.8181 28.2605 40.2272 22.6955C44.6363 17.1305 50.6262 13.0299 57.4094 10.9327C56.0077 12.702 54.9869 14.7419 54.411 16.9244C53.8352 19.1069 53.7167 21.3849 54.0631 23.6154C54.4094 25.8458 55.2131 27.9806 56.4237 29.8857C57.6343 31.7909 59.2256 33.4251 61.0978 34.686C55.7545 36.9615 51.4464 41.1399 49.0089 46.4113C46.5714 51.6827 46.1782 57.6714 47.9054 63.2163C49.6327 68.7611 53.3573 73.4671 58.3572 76.4217C63.3571 79.3764 69.276 80.3691 74.9663 79.2076C80.6566 78.046 85.7129 74.8129 89.1548 70.135C92.5967 65.4571 94.1789 59.6679 93.5948 53.8897C93.0106 48.1115 90.3017 42.756 85.9932 38.8617C81.6847 34.9674 76.0836 32.8117 70.276 32.8125C67.168 32.8125 64.1872 31.5779 61.9896 29.3802C59.7919 27.1825 58.5572 24.2018 58.5572 21.0938C58.5572 17.9857 59.7919 15.005 61.9896 12.8073C64.1872 10.6097 67.168 9.375 70.276 9.375H72.7735C80.7049 9.34654 88.4082 12.0282 94.6073 16.9758C100.465 21.6324 104.692 28.0295 106.679 35.2441C105.885 36.6468 105.468 38.2316 105.469 39.8438V49.1716C101.095 51.5566 98.4376 55.507 98.4376 59.7656C98.4382 60.5353 98.5244 61.3025 98.6945 62.0531C97.2126 62.8471 95.9717 64.0252 95.1018 65.4639C94.232 66.9025 93.7652 68.5488 93.7506 70.2299C93.7359 71.911 94.1739 73.5651 95.0185 75.0187C95.8632 76.4723 97.0834 77.6719 98.5513 78.4916C95.6366 80.4113 93.244 83.0244 91.5879 86.0965C89.9319 89.1686 89.0642 92.6037 89.0626 96.0938V133.594C89.0609 135.157 89.3738 136.705 89.9825 138.144C85.8452 139.796 81.4294 140.638 76.9747 140.625H63.5761C59.4771 140.633 55.4087 139.92 51.5564 138.52C51.5591 138.44 51.5626 138.361 51.5626 138.281V133.528C51.9517 133.572 52.3429 133.594 52.7345 133.594C56.9933 133.594 60.9434 130.937 63.3285 126.562H72.6563C75.1427 126.562 77.5273 125.575 79.2855 123.817C81.0436 122.058 82.0313 119.674 82.0313 117.188C82.0313 114.701 81.0436 112.317 79.2855 110.558C77.5273 108.8 75.1427 107.812 72.6563 107.812H63.3285C60.9434 103.438 56.9933 100.781 52.7345 100.781C52.3429 100.781 51.9517 100.803 51.5626 100.847V96.0938C51.5626 94.2289 50.8218 92.4405 49.5032 91.1219C48.1846 89.8033 46.3961 89.0625 44.5313 89.0625C42.6665 89.0625 40.8781 89.8033 39.5595 91.1219C38.2409 92.4405 37.5001 94.2289 37.5001 96.0938V97.3002C35.2416 96.5026 32.864 96.0946 30.4688 96.0938C29.9676 96.0938 29.4727 96.1178 28.9791 96.1523L32.7059 42.1125ZM70.276 37.5C73.9844 37.5 77.6095 38.5997 80.6929 40.6599C83.7763 42.7202 86.1796 45.6486 87.5987 49.0747C89.0179 52.5008 89.3892 56.2708 88.6657 59.9079C87.9422 63.5451 86.1564 66.886 83.5342 69.5083C80.912 72.1305 77.5711 73.9163 73.9339 74.6397C70.2968 75.3632 66.5268 74.9919 63.1006 73.5727C59.6745 72.1536 56.7462 69.7504 54.6859 66.6669C52.6256 63.5835 51.526 59.9584 51.526 56.25C51.5315 51.2789 53.5088 46.513 57.0239 42.9979C60.539 39.4828 65.3049 37.5056 70.276 37.5ZM30.4688 100.781C32.9008 100.781 35.3024 101.322 37.5001 102.363V107.82C35.7595 106.512 33.689 105.714 31.5207 105.517C29.3524 105.32 27.1721 105.731 25.2243 106.704C23.2765 107.677 21.6382 109.173 20.4931 111.025C19.348 112.877 18.7415 115.011 18.7415 117.188C18.7415 119.365 19.348 121.499 20.4931 123.351C21.6382 125.203 23.2765 126.699 25.2243 127.672C27.1721 128.645 29.3524 129.056 31.5207 128.859C33.689 128.662 35.7595 127.865 37.5001 126.557V132.012C35.2769 133.066 32.8451 133.606 30.3847 133.594C27.9242 133.581 25.4982 133.014 23.2863 131.937C21.0743 130.859 19.133 129.298 17.6061 127.369C16.0792 125.439 15.0058 123.191 14.4654 120.791C13.925 118.391 13.9314 115.899 14.4841 113.502C15.0368 111.104 16.1218 108.862 17.6585 106.94C19.1953 105.019 21.1446 103.468 23.3621 102.401C25.5795 101.335 28.0084 100.782 30.4688 100.781ZM37.5001 117.188C37.5001 118.578 37.0877 119.938 36.3151 121.094C35.5425 122.25 34.4444 123.151 33.1596 123.684C31.8748 124.216 30.461 124.355 29.0971 124.084C27.7332 123.812 26.4803 123.143 25.497 122.159C24.5137 121.176 23.844 119.923 23.5727 118.559C23.3014 117.195 23.4406 115.782 23.9728 114.497C24.505 113.212 25.4062 112.114 26.5625 111.341C27.7188 110.569 29.0782 110.156 30.4688 110.156C32.333 110.158 34.1201 110.9 35.4383 112.218C36.7564 113.536 37.4979 115.323 37.5001 117.188Z" fill="#0047BA"/>
</svg>
