<svg width="150" height="150" viewBox="0 0 150 150" fill="none" xmlns="http://www.w3.org/2000/svg">
<g clip-path="url(#clip0)">
<path d="M41.3086 123.682C41.3089 120.717 40.4299 117.819 38.7828 115.353C37.1358 112.888 34.7947 110.966 32.0555 109.832C29.3163 108.697 26.3022 108.4 23.3942 108.978C20.4862 109.556 17.8151 110.984 15.7185 113.08C13.6219 115.177 12.194 117.848 11.6155 120.756C11.037 123.664 11.3338 126.678 12.4684 129.417C13.603 132.156 15.5243 134.498 17.9896 136.145C20.4548 137.792 23.3531 138.671 26.318 138.671C30.2922 138.667 34.1025 137.086 36.9128 134.276C39.7231 131.466 41.304 127.656 41.3086 123.682ZM15.4301 123.682C15.4299 121.528 16.0683 119.423 17.2647 117.632C18.4611 115.841 20.1616 114.445 22.1513 113.621C24.141 112.797 26.3305 112.581 28.4428 113.001C30.5552 113.421 32.4955 114.458 34.0185 115.981C35.5415 117.503 36.5787 119.444 36.9989 121.556C37.4192 123.668 37.2036 125.858 36.3795 127.848C35.5554 129.837 34.1597 131.538 32.369 132.735C30.5782 133.931 28.4729 134.57 26.3192 134.57C23.4322 134.567 20.6641 133.42 18.6226 131.378C16.5811 129.337 15.4329 126.569 15.4301 123.682Z" fill="#1A75CF"/>
<path d="M147.949 36.1863C148.493 36.1863 149.015 35.9702 149.399 35.5856C149.784 35.201 150 34.6794 150 34.1355V26.3179C150 25.774 149.784 25.2524 149.399 24.8678C149.015 24.4832 148.493 24.2672 147.949 24.2672H52.5492C52.0203 17.4856 48.8858 11.1724 43.8033 6.65162C38.7209 2.13085 32.0852 -0.246199 25.2883 0.0190586C18.4913 0.284316 12.0612 3.17127 7.34645 8.07438C2.63175 12.9775 -0.00114837 19.5158 3.75743e-07 26.3179V123.682C0.0077548 130.66 2.78302 137.349 7.71692 142.283C12.6508 147.217 19.3404 149.992 26.318 150H147.949C148.493 150 149.015 149.784 149.399 149.399C149.784 149.015 150 148.493 150 147.949V140.133C150 139.589 149.784 139.067 149.399 138.683C149.015 138.298 148.493 138.082 147.949 138.082H126.544V131.031H147.949C148.493 131.031 149.015 130.815 149.399 130.43C149.784 130.046 150 129.524 150 128.98V121.162C150 120.619 149.784 120.097 149.399 119.712C149.015 119.328 148.493 119.112 147.949 119.112H126.544V112.062H147.949C148.493 112.062 149.015 111.846 149.399 111.461C149.784 111.076 150 110.555 150 110.011V102.195C150 101.651 149.784 101.129 149.399 100.744C149.015 100.36 148.493 100.144 147.949 100.144H126.544V93.0926H147.949C148.493 93.0926 149.015 92.8765 149.399 92.4919C149.784 92.1073 150 91.5857 150 91.0418V83.2254C150 82.6815 149.784 82.1598 149.399 81.7752C149.015 81.3906 148.493 81.1746 147.949 81.1746H126.544V74.1234H147.949C148.219 74.1234 148.486 74.0703 148.735 73.9671C148.984 73.8639 149.21 73.7126 149.4 73.5219C149.591 73.3312 149.742 73.1049 149.845 72.8558C149.947 72.6067 150 72.3398 150 72.0703V64.2539C150 63.71 149.784 63.1884 149.399 62.8038C149.015 62.4192 148.493 62.2031 147.949 62.2031H126.544V55.1543H147.949C148.493 55.1543 149.015 54.9382 149.399 54.5536C149.784 54.169 150 53.6474 150 53.1035V45.2871C150 44.7432 149.784 44.2216 149.399 43.837C149.015 43.4524 148.493 43.2363 147.949 43.2363H126.544V36.1863H147.949ZM145.898 32.0847H126.544V28.3687H145.898V32.0847ZM110.723 40.0875V134.18H92.4117C92.9841 132.819 93.8723 131.614 95.0027 130.664C96.8367 128.834 99.1207 126.554 99.1207 122.195C99.1207 117.836 96.8379 115.557 95.0027 113.727C93.3117 112.039 92.0895 110.819 92.0895 108.161C92.0895 105.502 93.3117 104.286 95.0027 102.6C96.8367 100.77 99.1207 98.4984 99.1207 94.1355C99.1207 89.7726 96.8379 87.4992 95.0016 85.6675C93.3117 83.9812 92.0895 82.7625 92.0895 80.1058C92.0895 77.4492 93.3117 76.2316 95.0027 74.5453C96.8367 72.7148 99.1207 70.4437 99.1207 66.0808C99.1207 61.7179 96.8367 59.4468 95.0016 57.6175C93.3117 55.9324 92.0895 54.7136 92.0895 52.0605C92.0895 49.4074 93.3117 48.1863 95.0016 46.5C96.9601 44.8371 98.3312 42.5878 98.9121 40.0851L110.723 40.0875ZM92.1094 43.5937C90.2742 45.4242 87.9902 47.6953 87.9902 52.0593C87.9902 56.4234 90.273 58.6922 92.1094 60.5215C93.7992 62.2066 95.0215 63.4265 95.0215 66.0797C95.0215 68.7328 93.7969 69.9609 92.1094 71.6425C90.2742 73.473 87.9902 75.7441 87.9902 80.1082C87.9902 84.4722 90.273 86.7433 92.1082 88.575C93.7992 90.2613 95.0215 91.48 95.0215 94.1379C95.0215 96.7957 93.7992 98.005 92.1094 99.6972C90.2742 101.528 87.9902 103.799 87.9902 108.163C87.9902 112.527 90.273 114.802 92.1082 116.632C93.7992 118.32 95.0215 119.539 95.0215 122.197C95.0215 124.855 93.7992 126.075 92.1082 127.764C90.1379 129.421 88.757 131.672 88.1719 134.18H72.034C72.6103 132.817 73.5034 131.612 74.6391 130.664C76.473 128.834 78.757 126.554 78.757 122.195C78.757 117.836 76.4742 115.557 74.6402 113.727C72.9492 112.039 71.727 110.819 71.727 108.161C71.727 105.502 72.9481 104.286 74.6402 102.6C76.4742 100.77 78.7582 98.4984 78.7582 94.1355C78.7582 89.7726 76.4754 87.4992 74.6402 85.6675C72.9492 83.9812 71.727 82.7625 71.727 80.1058C71.727 77.4492 72.9481 76.2316 74.6402 74.5453C76.4742 72.7148 78.7582 70.4437 78.7582 66.0808C78.7582 61.7179 76.4754 59.448 74.6402 57.6175C72.9492 55.9324 71.7281 54.7136 71.7281 52.0605C71.7281 49.4074 72.9492 48.1863 74.6414 46.5C76.6107 44.8425 77.9905 42.592 78.5742 40.0851H94.7098C94.1346 41.445 93.2431 42.6479 92.1094 43.5937ZM71.7457 43.5937C69.9117 45.4242 67.6277 47.6953 67.6277 52.0593C67.6277 56.4234 69.9105 58.691 71.7457 60.5215C73.4367 62.2066 74.6578 63.4265 74.6578 66.0797C74.6578 68.7328 73.4367 69.9468 71.7457 71.639C69.9105 73.4695 67.6277 75.7406 67.6277 80.1047C67.6277 84.4687 69.9105 86.7398 71.7457 88.5715C73.4367 90.2578 74.659 91.4765 74.659 94.1343C74.659 96.7922 73.4379 98.0015 71.7469 99.6937C69.9117 101.524 67.6289 103.795 67.6289 108.159C67.6289 112.523 69.9117 114.798 71.7469 116.628C73.4379 118.316 74.6602 119.536 74.6602 122.194C74.6602 124.852 73.4379 126.073 71.7469 127.76C69.7888 129.425 68.4182 131.675 67.8375 134.178H50.4457C51.2096 132.43 51.7794 130.604 52.1449 128.732L52.1543 128.677C52.3078 127.878 52.4285 127.07 52.5059 126.248C52.5059 126.21 52.5059 126.17 52.5152 126.131C52.5902 125.324 52.6324 124.508 52.6324 123.682V40.0875H74.332C73.7586 41.4448 72.871 42.6466 71.7422 43.5937H71.7457ZM4.10156 26.3179C4.10156 20.4256 6.44228 14.7746 10.6088 10.6082C14.7753 6.44166 20.4262 4.10095 26.3186 4.10095C32.2109 4.10095 37.8618 6.44166 42.0283 10.6082C46.1948 14.7746 48.5355 20.4256 48.5355 26.3179V109.6C46.1653 105.851 42.8852 102.764 39.0007 100.624C35.1161 98.4844 30.7534 97.3623 26.3186 97.3623C21.8837 97.3623 17.521 98.4844 13.6364 100.624C9.75188 102.764 6.47182 105.851 4.10156 109.6V26.3179ZM4.10156 123.682C4.10156 117.79 6.44228 112.139 10.6088 107.972C14.7753 103.806 20.4262 101.465 26.3186 101.465C32.2109 101.465 37.8618 103.806 42.0283 107.972C46.1948 112.139 48.5355 117.79 48.5355 123.682C48.4555 129.549 46.089 135.154 41.9396 139.303C37.7902 143.452 32.1854 145.819 26.318 145.898C20.4279 145.892 14.781 143.549 10.6161 139.384C6.45123 135.219 4.10839 129.572 4.10156 123.682ZM48.2039 138.281H112.774C113.318 138.281 113.84 138.065 114.224 137.681C114.609 137.296 114.825 136.774 114.825 136.23V38.0367C114.825 37.4928 114.609 36.9712 114.224 36.5866C113.84 36.202 113.318 35.9859 112.774 35.9859H52.6371V28.3687H122.443V145.898H40.4004C43.5011 143.927 46.1584 141.333 48.2039 138.281ZM145.898 142.184V145.898H126.544V142.184H145.898ZM145.898 123.214V126.93H126.544V123.214H145.898ZM145.898 104.245V107.96H126.544V104.245H145.898ZM145.898 85.2761V88.9922H126.544V85.2761H145.898ZM145.898 66.307V70.0218H126.544V66.307H145.898ZM145.898 47.3379V51.0527H126.544V47.3437L145.898 47.3379Z" fill="#0047BA"/>
</g>
<defs>
<clipPath id="clip0">
<rect width="150" height="150" fill="white"/>
</clipPath>
</defs>
</svg>
