<svg width="151" height="150" viewBox="0 0 151 150" fill="none" xmlns="http://www.w3.org/2000/svg">
<g clip-path="url(#clip0)">
<path d="M129.25 15H116.75C116.689 12.0537 116.105 9.14173 115.025 6.40002C113.636 2.49066 109.898 -0.0886036 105.75 1.67086e-05C100.75 0.200017 96.85 3.47502 93.425 6.35002C88.1486 11.2134 81.401 14.1782 74.25 14.775V7.50002C74.25 3.35788 70.8921 1.67086e-05 66.75 1.67086e-05H64.25C60.1079 1.67086e-05 56.75 3.35788 56.75 7.50002V15H49.25C45.1079 15 41.75 18.3579 41.75 22.5V25C41.75 29.1422 45.1079 32.5 49.25 32.5H56.75V102.5H49.25C46.4886 102.5 44.25 104.739 44.25 107.5V145C44.25 147.761 46.4886 150 49.25 150H68.225C69.5489 149.994 70.8166 149.464 71.75 148.525L77.775 142.5H110.725L116.75 148.525C117.683 149.464 118.951 149.994 120.275 150H139.25C142.011 150 144.25 147.761 144.25 145V107.5C144.25 104.739 142.011 102.5 139.25 102.5H136.75V85C136.75 83.6193 135.631 82.5 134.25 82.5H124.25C123.125 82.5 123.625 82.35 114.25 89.375C105.45 82.775 105.425 82.5 104.25 82.5H94.25C92.8693 82.5 91.75 83.6193 91.75 85V102.5H74.25V32.5H104.25V47.5C102.869 47.5 101.75 48.6193 101.75 50C101.75 51.3807 102.869 52.5 104.25 52.5H105.2L111.75 65.6V82.5C111.75 83.8807 112.869 85 114.25 85C115.631 85 116.75 83.8807 116.75 82.5V65.6L123.3 52.5H124.25C125.631 52.5 126.75 51.3807 126.75 50C126.75 48.6193 125.631 47.5 124.25 47.5V32.5H129.25C133.392 32.5 136.75 29.1422 136.75 25V22.5C136.75 18.3579 133.392 15 129.25 15ZM105.95 5.00002C110.275 4.75002 111.45 10.675 111.675 15H89.95C96.9 11.075 100.6 5.20002 105.95 5.00002ZM61.75 7.50002C61.75 6.1193 62.8693 5.00002 64.25 5.00002H66.75C68.1307 5.00002 69.25 6.1193 69.25 7.50002V15H61.75V7.50002ZM139.25 145H120.275L114.25 138.975C113.317 138.036 112.049 137.506 110.725 137.5H77.775C76.4511 137.506 75.1834 138.036 74.25 138.975L68.225 145H49.25V107.5H139.25V145ZM96.75 87.5H103.425L112.75 94.5C113.639 95.1667 114.861 95.1667 115.75 94.5L125.075 87.5H131.75V102.5H96.75V87.5ZM69.25 102.5H61.75V32.5H69.25V102.5ZM114.25 59.4L110.8 52.5H117.7L114.25 59.4ZM119.25 47.5H109.25V32.5H119.25V47.5ZM131.75 25C131.75 26.3807 130.631 27.5 129.25 27.5H49.25C47.8693 27.5 46.75 26.3807 46.75 25V22.5C46.75 21.1193 47.8693 20 49.25 20H129.25C130.631 20 131.75 21.1193 131.75 22.5V25Z" fill="#0047BA"/>
<path d="M82.4749 58.225C82.0016 58.6944 81.7354 59.3334 81.7354 60C81.7354 60.6666 82.0016 61.3056 82.4749 61.775L97.4749 76.775C98.4552 77.7553 100.045 77.7553 101.025 76.775C102.005 75.7947 102.005 74.2053 101.025 73.225L86.0248 58.225C85.5554 57.7518 84.9164 57.4855 84.2498 57.4855C83.5833 57.4855 82.9443 57.7518 82.4749 58.225Z" fill="#78B3E0"/>
<path d="M129.25 77.5001C129.914 77.5039 130.553 77.2431 131.025 76.7751L146.025 61.7751C147.005 60.7948 147.005 59.2054 146.025 58.2251C145.045 57.2448 143.455 57.2448 142.475 58.2251L127.475 73.2251C126.754 73.9403 126.537 75.0208 126.927 75.9588C127.316 76.8968 128.234 77.506 129.25 77.5001Z" fill="#78B3E0"/>
<path d="M103.025 67.1501C104.212 66.4458 104.604 64.9125 103.9 63.725L96.3997 51.225C96.0067 50.3555 95.153 49.7854 94.1991 49.7558C93.2453 49.7262 92.3579 50.2422 91.9117 51.0858C91.4655 51.9293 91.5385 52.9533 92.0997 53.725L99.5997 66.225C99.9296 66.8036 100.477 67.2267 101.12 67.4004C101.763 67.574 102.448 67.4839 103.025 67.1501Z" fill="#78B3E0"/>
<path d="M128.9 66.275L136.4 53.775C136.928 52.6068 136.487 51.2285 135.379 50.5841C134.27 49.9398 132.854 50.2382 132.1 51.275L124.6 63.775C124.039 64.5468 123.966 65.5707 124.412 66.4143C124.858 67.2578 125.746 67.7738 126.7 67.7442C127.653 67.7146 128.507 67.1446 128.9 66.275Z" fill="#78B3E0"/>
<path d="M131.75 112.5H124.25C122.869 112.5 121.75 113.619 121.75 115C121.75 116.381 122.869 117.5 124.25 117.5H131.75C133.131 117.5 134.25 116.381 134.25 115C134.25 113.619 133.131 112.5 131.75 112.5Z" fill="#1A75CF"/>
<path d="M131.75 122.5H124.25C122.869 122.5 121.75 123.619 121.75 125C121.75 126.381 122.869 127.5 124.25 127.5H131.75C133.131 127.5 134.25 126.381 134.25 125C134.25 123.619 133.131 122.5 131.75 122.5Z" fill="#1A75CF"/>
<path d="M9.25 95H14.25V145C14.25 147.761 16.4886 150 19.25 150H34.25C37.0114 150 39.25 147.761 39.25 145V95H44.25C47.0114 95 49.25 92.7614 49.25 90V65C49.25 62.2386 47.0114 60 44.25 60H9.25C6.48858 60 4.25 62.2386 4.25 65V90C4.25 92.7614 6.48858 95 9.25 95ZM34.25 145H19.25V95H34.25V145ZM9.25 65H44.25V90H9.25V65Z" fill="#0047BA"/>
<path d="M29.25 75H34.25C35.6307 75 36.75 73.8807 36.75 72.5C36.75 71.1193 35.6307 70 34.25 70H29.25C27.8693 70 26.75 71.1193 26.75 72.5C26.75 73.8807 27.8693 75 29.25 75Z" fill="#1A75CF"/>
<path d="M29.25 85H34.25C35.6307 85 36.75 83.8807 36.75 82.5C36.75 81.1193 35.6307 80 34.25 80H29.25C27.8693 80 26.75 81.1193 26.75 82.5C26.75 83.8807 27.8693 85 29.25 85Z" fill="#1A75CF"/>
<path d="M17.85 74.575C18.6924 75.1812 19.8217 75.2039 20.6878 74.6321C21.5539 74.0602 21.9766 73.0128 21.75 71.9999C21.5589 70.8754 20.6307 70.0228 19.494 69.9276C18.3572 69.8324 17.3002 70.5188 16.9247 71.596C16.5492 72.6731 16.9505 73.8678 17.9 74.5L17.85 74.575Z" fill="#1A75CF"/>
<path d="M17.85 84.575C18.8008 85.2177 20.0671 85.1305 20.9208 84.3635C21.7745 83.5965 21.9963 82.3468 21.4588 81.3328C20.9213 80.3189 19.7625 79.8011 18.6485 80.0772C17.5346 80.3533 16.7517 81.3524 16.75 82.5C16.7487 83.3316 17.1611 84.1093 17.85 84.575Z" fill="#1A75CF"/>
<path d="M59.25 112.5H56.75C55.3693 112.5 54.25 113.619 54.25 115C54.25 116.381 55.3693 117.5 56.75 117.5H59.25C60.6307 117.5 61.75 116.381 61.75 115C61.75 113.619 60.6307 112.5 59.25 112.5Z" fill="#1A75CF"/>
<path d="M89.25 112.5H69.25C67.8693 112.5 66.75 113.619 66.75 115C66.75 116.381 67.8693 117.5 69.25 117.5H89.25C90.6307 117.5 91.75 116.381 91.75 115C91.75 113.619 90.6307 112.5 89.25 112.5Z" fill="#1A75CF"/>
</g>
<defs>
<clipPath id="clip0">
<rect width="150" height="150" fill="white" transform="translate(0.5)"/>
</clipPath>
</defs>
</svg>
