<svg width="150" height="150" viewBox="0 0 150 150" fill="none" xmlns="http://www.w3.org/2000/svg">
<path d="M124.365 119.962H136.084C138.911 119.962 141.211 117.662 141.211 114.836V108.301H145.459C147.963 108.301 150 106.264 150 103.76V83.252C150 80.748 147.963 78.711 145.459 78.711H141.211V72.6483C141.211 69.8215 138.911 67.5214 136.084 67.5214H135.645V65.9353H139.893C142.397 65.9353 144.434 63.8982 144.434 61.3942V45.7687C144.434 43.2647 142.397 41.2277 139.893 41.2277H135.645V35.165C135.645 32.3382 133.344 30.0381 130.518 30.0381H125.511V29.0039H130.346C132.527 29.0039 134.301 27.2297 134.301 25.0488V13.0371C134.301 10.8562 132.527 9.08203 130.346 9.08203H125.511V4.54102C125.511 2.03701 123.474 0 120.97 0H108.082C105.577 0 103.538 2.03701 103.538 4.54102V12.4512H100.797C99.583 12.4512 98.5995 13.4347 98.5995 14.6484C98.5995 15.8622 99.583 16.8457 100.797 16.8457H103.538V21.2402H88.2398V16.8457H91.3125C92.5263 16.8457 93.5098 15.8622 93.5098 14.6484C93.5098 13.4347 92.5263 12.4512 91.3125 12.4512H85.9863V3.95508C85.9863 1.77422 84.2121 0 82.0312 0H67.9688C65.7879 0 64.0137 1.77422 64.0137 3.95508V12.4512H46.7637V5.12695C46.7637 2.3001 44.4636 0 41.6367 0H29.918C27.0911 0 24.791 2.3001 24.791 5.12695V9.08203H19.9576C17.7768 9.08203 16.0025 10.8562 16.0025 13.0371V25.0488C16.0025 27.2297 17.7768 29.0039 19.9576 29.0039H24.791V30.0381H19.4824C16.6556 30.0381 14.3555 32.3382 14.3555 35.165V41.2274H10.6934C7.8665 41.2274 5.56641 43.5275 5.56641 46.3544V60.808C5.56641 63.6349 7.8665 65.935 10.6934 65.935H14.3555V67.5211H13.916C11.0892 67.5211 8.78906 69.8212 8.78906 72.648V78.7107H5.12695C2.3001 78.7107 0 81.0108 0 83.8377V103.174C0 106 2.3001 108.301 5.12695 108.301H8.78906V114.835C8.78906 117.662 11.0892 119.962 13.916 119.962H25.6348C28.4616 119.962 30.7617 117.662 30.7617 114.835V100.097H53.1738V103.328C53.1738 106.393 55.6676 108.887 58.7326 108.887H64.0137V131.543H13.1385C5.89395 131.543 0 137.437 0 144.682C0 147.614 2.38594 150 5.31855 150H144.682C147.614 150 150 147.614 150 144.681C150 137.437 144.106 131.543 136.862 131.543H112.434C111.22 131.543 110.237 132.526 110.237 133.74C110.237 134.954 111.22 135.938 112.434 135.938H136.862C141.683 135.938 145.605 139.86 145.605 144.682C145.605 145.191 145.191 145.605 144.682 145.605H5.31855C4.80908 145.605 4.39453 145.191 4.39453 144.681C4.39453 139.86 8.31709 135.938 13.1385 135.938H103.031C104.245 135.938 105.229 134.954 105.229 133.74C105.229 132.526 104.245 131.543 103.031 131.543H85.9863V108.887H91.2671C94.3324 108.887 96.8262 106.393 96.8262 103.328V100.098H119.238V114.836C119.238 117.662 121.538 119.962 124.365 119.962ZM125.512 13.4766H129.906V24.6094H125.512V13.4766ZM96.7588 95.7032H53.2415V91.3087H96.7588V95.7032ZM30.7617 77.5957H31.2012C34.028 77.5957 36.3281 75.2956 36.3281 72.4688V60.1729H53.1738V63.4028C53.1738 66.4682 55.6676 68.9619 58.7326 68.9619H64.0137V75C64.0137 76.2138 64.9975 77.1973 66.2109 77.1973C67.4244 77.1973 68.4082 76.2138 68.4082 75V68.9622H81.5918V86.9142H68.4082V84.3891C68.4082 83.1753 67.4244 82.1918 66.2109 82.1918C64.9975 82.1918 64.0137 83.1753 64.0137 84.3891V86.9142H30.7617V77.5957ZM81.5918 34.4238V46.9896H68.4082V34.4238H81.5918ZM86.0915 51.3841V55.7786H63.9085V51.3841H86.0915ZM113.672 51.3841V55.7786H90.486V51.3841H113.672ZM83.7946 64.5677C83.7929 64.5677 83.7908 64.5674 83.7891 64.5674C83.7873 64.5674 83.7852 64.5677 83.7835 64.5677H66.2168C66.215 64.5677 66.213 64.5674 66.2112 64.5674C66.2095 64.5674 66.2074 64.5677 66.2057 64.5677H58.7329C58.091 64.5677 57.5687 64.0453 57.5687 63.4031V60.1731H92.4319V63.4031C92.4319 64.045 91.9096 64.5677 91.2674 64.5677H83.7946ZM59.514 55.7786H36.3281V51.3841H59.514V55.7786ZM85.9863 86.9142V68.9622H91.2671C94.3324 68.9622 96.8262 66.4685 96.8262 63.4031V60.1731H113.672V72.469C113.672 75.2959 115.972 77.596 118.799 77.596H119.238V86.9145H85.9863V86.9142ZM145.459 83.1056C145.54 83.1056 145.605 83.1715 145.605 83.252V103.76C145.605 103.84 145.54 103.906 145.459 103.906H141.211V83.1056H145.459ZM136.816 72.6483V114.836C136.816 115.24 136.488 115.568 136.084 115.568H124.365C123.961 115.568 123.633 115.24 123.633 114.836V72.6483C123.633 72.2443 123.961 71.9159 124.365 71.9159H136.084C136.488 71.9159 136.816 72.2443 136.816 72.6483ZM139.893 45.6223C139.973 45.6223 140.039 45.6882 140.039 45.7687V61.3942C140.039 61.4748 139.973 61.5407 139.893 61.5407H135.645V45.6223H139.893ZM131.25 35.165V67.5211H124.365C121.538 67.5211 119.238 69.8212 119.238 72.648V73.2012H118.799C118.395 73.2012 118.066 72.8728 118.066 72.4688V35.165C118.066 34.761 118.395 34.4326 118.799 34.4326H130.518C130.922 34.4326 131.25 34.761 131.25 35.165ZM108.082 4.39453H120.97C121.05 4.39453 121.116 4.46045 121.116 4.54102V30.0381H118.799C116.484 30.0381 114.525 31.5809 113.89 33.6914H108.082C108 33.6914 107.933 33.6255 107.933 33.5449V23.4601C107.933 23.4524 107.934 23.4451 107.934 23.4375V14.6484C107.934 14.6408 107.933 14.6335 107.933 14.6259V4.54102C107.933 4.46045 108 4.39453 108.082 4.39453ZM108.082 38.0859H113.672V46.9896H85.9863V34.4238H91.2671C94.3324 34.4238 96.8262 31.9301 96.8262 28.8647V25.6348H103.538V33.5449C103.538 36.0489 105.577 38.0859 108.082 38.0859ZM92.4316 28.8647C92.4316 29.5066 91.9093 30.0293 91.2671 30.0293H58.7326C58.0907 30.0293 57.5684 29.5069 57.5684 28.8647V25.6348H92.4316V28.8647ZM83.8453 21.2402H66.4579V16.8457H83.8453V21.2402ZM81.5918 4.39453V12.4512H68.4082V4.39453H81.5918ZM46.7643 16.8457H62.0637V21.2402H46.7643V16.8457ZM53.1738 25.6348V28.8647C53.1738 31.9301 55.6676 34.4238 58.7326 34.4238H64.0137V46.9896H36.3281V38.0859H41.6367C44.4636 38.0859 46.7637 35.7858 46.7637 32.959V25.6348H53.1738ZM20.3971 24.6094V13.4766H24.791V24.6094H20.3971ZM29.1855 26.8151C29.1855 26.8122 29.1858 26.8093 29.1858 26.8066V11.2793C29.1858 11.2764 29.1855 11.2734 29.1855 11.2708V5.12695C29.1855 4.72295 29.5143 4.39453 29.918 4.39453H41.6367C42.0404 4.39453 42.3691 4.72295 42.3691 5.12695V32.959C42.3691 33.363 42.0404 33.6914 41.6367 33.6914H36.1099C35.475 31.5809 33.5159 30.0381 31.2012 30.0381H29.1855V26.8151ZM10.6934 61.5407C10.2896 61.5407 9.96094 61.2123 9.96094 60.8083V46.3547C9.96094 45.9507 10.2896 45.6223 10.6934 45.6223H14.3555V61.5407H10.6934ZM18.75 35.165C18.75 34.761 19.0787 34.4326 19.4824 34.4326H31.2012C31.6049 34.4326 31.9336 34.761 31.9336 35.165V72.4688C31.9336 72.8728 31.6049 73.2012 31.2012 73.2012H30.7617V72.648C30.7617 69.8212 28.4616 67.5211 25.6348 67.5211H18.75V35.165ZM5.12695 103.906C4.72324 103.906 4.39453 103.578 4.39453 103.174V83.838C4.39453 83.434 4.72324 83.1056 5.12695 83.1056H8.78906V103.906H5.12695ZM26.3672 114.836C26.3672 115.24 26.0385 115.568 25.6348 115.568H13.916C13.5123 115.568 13.1836 115.24 13.1836 114.836V72.6483C13.1836 72.2443 13.5123 71.9159 13.916 71.9159H25.6348C26.0385 71.9159 26.3672 72.2443 26.3672 72.6483V114.836ZM30.7617 91.3087H48.847V95.7032H30.7617V91.3087ZM81.5918 131.543H68.4082V108.887H81.5918V131.543ZM92.4316 103.328C92.4316 103.97 91.9093 104.492 91.2671 104.492H58.7326C58.0907 104.492 57.5684 103.97 57.5684 103.328V100.098H92.4316V103.328ZM101.153 95.7032V91.3087H119.238V95.7032H101.153Z" fill="#0047BA"/>
</svg>
