<svg width="150" height="150" viewBox="0 0 150 150" fill="none" xmlns="http://www.w3.org/2000/svg">
<path d="M142.969 35.1562H135.938V25.7812C135.934 22.6743 134.698 19.6957 132.501 17.4987C130.304 15.3018 127.326 14.066 124.219 14.0625H98.2017C97.658 11.4175 96.219 9.04086 94.1273 7.33313C92.0356 5.6254 89.419 4.69102 86.7188 4.6875H25.7812C22.6743 4.69103 19.6957 5.92681 17.4987 8.12374C15.3018 10.3207 14.066 13.2993 14.0625 16.4062V25.8054L7.00693 25.8788C6.38957 25.8853 5.79969 26.135 5.36541 26.5739C4.93112 27.0127 4.68752 27.6052 4.6875 28.2226V56.3476C4.68751 56.9649 4.93109 57.5574 5.36535 57.9962C5.7996 58.435 6.38945 58.6848 7.00679 58.6913L14.0625 58.765V63.3054L7.00693 63.3788C6.38957 63.3853 5.79969 63.635 5.36541 64.0739C4.93112 64.5127 4.68752 65.1052 4.6875 65.7225V79.6875C4.68752 80.3049 4.93112 80.8974 5.36541 81.3362C5.79969 81.775 6.38957 82.0248 7.00693 82.0312L14.0625 82.1046V124.219C14.066 127.326 15.3018 130.304 17.4987 132.501C19.6957 134.698 22.6743 135.934 25.7812 135.938H51.7983C52.342 138.582 53.781 140.959 55.8727 142.667C57.9644 144.375 60.581 145.309 63.2812 145.312H124.219C127.326 145.309 130.304 144.073 132.501 141.876C134.698 139.679 135.934 136.701 135.938 133.594V91.4062H142.969C143.59 91.4062 144.186 91.1593 144.626 90.7198C145.066 90.2802 145.312 89.6841 145.312 89.0625V75C145.312 74.3784 145.066 73.7823 144.626 73.3427C144.186 72.9032 143.59 72.6563 142.969 72.6562H135.938V67.9688H142.969C143.59 67.9687 144.186 67.7218 144.626 67.2823C145.066 66.8427 145.312 66.2466 145.312 65.625V37.5C145.312 36.8784 145.066 36.2823 144.626 35.8427C144.186 35.4032 143.59 35.1563 142.969 35.1562ZM140.625 39.8438V49.2188H135.938V39.8438H140.625ZM56.25 125.904V33.4705L60.9375 34.6423V124.733L56.25 125.904ZM18.75 117.188V23.4375H23.4375V117.188H18.75ZM107.154 18.75L105.983 23.4375H72.1425L70.9706 18.75H107.154ZM101.029 125.267L104.02 131.25H97.9237L96.0238 123.65C95.897 123.143 95.6044 122.693 95.1924 122.371C94.7804 122.05 94.2727 121.875 93.75 121.875H84.375C83.8523 121.875 83.3446 122.05 82.9326 122.371C82.5206 122.693 82.228 123.143 82.1012 123.65L80.2013 131.25H74.1048L77.0963 125.267C77.3163 124.827 77.3923 124.329 77.3135 123.843C77.2347 123.358 77.0051 122.909 76.6572 122.561L74.3135 120.218C73.9657 119.87 73.5172 119.64 73.0316 119.561C72.5461 119.483 72.0481 119.559 71.6081 119.779L65.625 122.77V111.605L73.7044 107.565C74.0937 107.37 74.4212 107.071 74.65 106.701C74.8788 106.331 75 105.904 75 105.469V91.4062C75 90.971 74.8788 90.5443 74.65 90.174C74.4212 89.8038 74.0937 89.5046 73.7044 89.31L65.625 85.2702V74.1047L73.7044 70.065C74.0937 69.8704 74.4212 69.5712 74.65 69.201C74.8788 68.8307 75 68.404 75 67.9688V53.9062C75 53.471 74.8788 53.0443 74.65 52.6741C74.4212 52.3038 74.0937 52.0046 73.7044 51.81L65.625 47.7703V36.6046L71.6081 39.5963C72.0481 39.8163 72.5461 39.8923 73.0316 39.8135C73.5172 39.7347 73.9657 39.5052 74.3135 39.1574L76.6572 36.8137C77.0051 36.4658 77.2347 36.0173 77.3135 35.5317C77.3923 35.0461 77.3163 34.548 77.0963 34.108L74.1048 28.125H80.2013L82.1012 35.7247C82.228 36.2318 82.5206 36.682 82.9326 37.0036C83.3446 37.3253 83.8523 37.5 84.375 37.5H93.75C94.2727 37.5 94.7804 37.3253 95.1924 37.0036C95.6044 36.682 95.897 36.2318 96.0238 35.7247L97.9237 28.125H104.02L101.029 34.108C100.809 34.548 100.733 35.0461 100.812 35.5317C100.89 36.0173 101.12 36.4658 101.468 36.8136L103.812 39.1574C104.159 39.5052 104.608 39.7347 105.093 39.8135C105.579 39.8923 106.077 39.8163 106.517 39.5963L112.5 36.6046V47.7703L104.421 51.81C104.031 52.0046 103.704 52.3038 103.475 52.6741C103.246 53.0443 103.125 53.471 103.125 53.9062V67.9688C103.125 68.404 103.246 68.8307 103.475 69.201C103.704 69.5712 104.031 69.8704 104.421 70.065L112.5 74.1047V85.2702L104.421 89.31C104.031 89.5046 103.704 89.8038 103.475 90.174C103.246 90.5443 103.125 90.971 103.125 91.4062V105.469C103.125 105.904 103.246 106.331 103.475 106.701C103.704 107.071 104.031 107.37 104.421 107.565L112.5 111.605V122.77L106.517 119.779C106.077 119.559 105.579 119.483 105.093 119.561C104.608 119.64 104.159 119.87 103.812 120.218L101.468 122.561C101.12 122.909 100.89 123.358 100.812 123.843C100.733 124.329 100.809 124.827 101.029 125.267ZM93.0919 131.25H85.0331L86.2049 126.562H91.9201L93.0919 131.25ZM28.125 28.125H51.5625V112.5H28.125V28.125ZM56.25 25.7812C56.2521 23.9171 56.9936 22.1299 58.3117 20.8117C59.6299 19.4936 61.4171 18.7521 63.2812 18.75H66.1388L67.3184 23.4687C65.6864 23.6226 64.1592 24.341 63.0001 25.5002C61.8409 26.6593 61.1225 28.1865 60.9687 29.8186L56.25 28.6389V25.7812ZM72.1029 34.6029L65.625 31.364V30.4688C65.6257 29.8474 65.8729 29.2516 66.3123 28.8123C66.7516 28.3729 67.3474 28.1257 67.9688 28.125H68.864L72.1029 34.6029ZM65.625 90.511L70.3125 92.8548V104.02L65.625 106.364V90.511ZM65.625 53.011L70.3125 55.3548V66.5202L65.625 68.864V53.011ZM85.0331 28.125H93.0919L91.9201 32.8125H86.2049L85.0331 28.125ZM112.5 106.364L107.812 104.02V92.8548L112.5 90.511V106.364ZM112.5 68.864L107.812 66.5202V55.3548L112.5 53.011V68.864ZM112.5 31.364L106.022 34.6029L109.261 28.125H110.156C110.778 28.1257 111.373 28.3729 111.813 28.8123C112.252 29.2516 112.499 29.8474 112.5 30.4688V31.364ZM63.2812 14.0625H32.8125V9.375H70.3125V14.0625H63.2812ZM30.4688 18.75H53.9127C52.8681 20.1359 52.1458 21.7372 51.7983 23.4375H28.125V21.0938C28.1257 20.4724 28.3729 19.8766 28.8123 19.4373C29.2516 18.9979 29.8474 18.7507 30.4688 18.75ZM51.5625 117.188V121.875H30.4688C29.8474 121.874 29.2516 121.627 28.8123 121.188C28.3729 120.748 28.1257 120.153 28.125 119.531V117.188H51.5625ZM32.8125 126.562H51.5625V131.25H32.8125V126.562ZM65.625 128.011L72.1029 124.772L68.864 131.25H67.9688C67.3474 131.249 66.7516 131.002 66.3123 130.563C65.8729 130.123 65.6257 129.528 65.625 128.906V128.011ZM72.1425 135.938H105.983L107.154 140.625H70.9706L72.1425 135.938ZM109.261 131.25L106.022 124.772L112.5 128.011V128.906C112.499 129.528 112.252 130.123 111.813 130.563C111.373 131.002 110.778 131.249 110.156 131.25H109.261ZM117.188 34.6423L121.875 33.4705V125.904L117.188 124.733V34.6423ZM126.562 39.8438H131.25V49.2188H126.562V39.8438ZM126.562 77.3438H131.25V86.7188H126.562V77.3438ZM126.562 72.6562V67.9688H131.25V72.6562H126.562ZM126.562 63.2812V53.9062H131.25V63.2812H126.562ZM131.25 25.7812V35.1562H126.562V25.7812C126.565 23.2442 125.74 20.7756 124.212 18.75H124.219C126.083 18.7521 127.87 19.4936 129.188 20.8117C130.506 22.1299 131.248 23.9171 131.25 25.7812ZM114.844 18.75C116.708 18.7521 118.495 19.4936 119.813 20.8117C121.131 22.1299 121.873 23.9171 121.875 25.7812V28.6389L117.156 29.8186C117.002 28.1865 116.284 26.6593 115.125 25.5002C113.966 24.341 112.439 23.6226 110.807 23.4687L111.986 18.75H114.844ZM93.3468 14.0625H88.8267C88.4792 12.3622 87.7569 10.7608 86.7123 9.375H86.7188C88.1722 9.37686 89.5895 9.82838 90.7762 10.6676C91.9628 11.5069 92.8608 12.6927 93.3468 14.0625ZM83.9718 14.0625H75V9.375H77.3438C78.7972 9.37684 80.2145 9.82836 81.4012 10.6676C82.5879 11.5068 83.4858 12.6927 83.9718 14.0625ZM25.7812 9.375H28.125V14.4657C27.1378 14.8173 26.2412 15.3842 25.5002 16.1252C24.7592 16.8662 24.1923 17.7628 23.8407 18.75H18.75V16.4062C18.7521 14.5421 19.4936 12.7549 20.8117 11.4367C22.1299 10.1186 23.9171 9.37711 25.7812 9.375ZM9.375 30.542L14.0625 30.4934V39.9167L9.375 39.8681V30.542ZM9.375 54.0281V44.5559L14.0625 44.6046V54.077L9.375 54.0281ZM9.375 77.3681V68.042L14.0625 67.9934V77.4167L9.375 77.3681ZM18.75 124.219V121.875H23.8407C24.1923 122.862 24.7592 123.759 25.5002 124.5C26.2412 125.241 27.1378 125.808 28.125 126.159V131.25H25.7812C23.9171 131.248 22.1299 130.506 20.8117 129.188C19.4936 127.87 18.7521 126.083 18.75 124.219ZM56.25 133.594V130.736L60.9687 129.556C61.1226 131.188 61.841 132.716 63.0001 133.875C64.1592 135.034 65.6864 135.752 67.3184 135.906L66.1388 140.625H63.2812C61.4171 140.623 59.6299 139.881 58.3117 138.563C56.9936 137.245 56.2521 135.458 56.25 133.594ZM112.5 140.625H111.986L110.807 135.906C112.439 135.752 113.966 135.034 115.125 133.875C116.284 132.716 117.002 131.188 117.156 129.556L121.875 130.736V133.594C121.873 135.458 121.131 137.245 119.813 138.563C118.495 139.881 116.708 140.623 114.844 140.625H112.5ZM124.219 140.625H124.212C125.74 138.599 126.565 136.131 126.562 133.594V91.4062H131.25V133.594C131.248 135.458 130.506 137.245 129.188 138.563C127.87 139.881 126.083 140.623 124.219 140.625ZM140.625 77.3438V86.7188H135.938V77.3438H140.625ZM135.938 63.2812V53.9062H140.625V63.2812H135.938Z" fill="#0047BA"/>
<path d="M100.781 44.5312H96.0938V49.2188H100.781V44.5312Z" fill="#1A75CF"/>
<path d="M93.75 53.9062H84.375C83.7534 53.9063 83.1573 54.1532 82.7177 54.5927C82.2782 55.0323 82.0313 55.6284 82.0312 56.25V65.625C82.0313 66.2466 82.2782 66.8427 82.7177 67.2823C83.1573 67.7218 83.7534 67.9687 84.375 67.9688H93.75C94.3716 67.9687 94.9677 67.7218 95.4073 67.2823C95.8468 66.8427 96.0937 66.2466 96.0938 65.625V56.25C96.0937 55.6284 95.8468 55.0323 95.4073 54.5927C94.9677 54.1532 94.3716 53.9063 93.75 53.9062ZM91.4062 63.2812H86.7188V58.5938H91.4062V63.2812Z" fill="#1A75CF"/>
<path d="M89.0625 49.2188C90.3569 49.2188 91.4062 48.1694 91.4062 46.875C91.4062 45.5806 90.3569 44.5312 89.0625 44.5312C87.7681 44.5312 86.7188 45.5806 86.7188 46.875C86.7188 48.1694 87.7681 49.2188 89.0625 49.2188Z" fill="#1A75CF"/>
<path d="M79.6875 49.2188C80.9819 49.2188 82.0312 48.1694 82.0312 46.875C82.0312 45.5806 80.9819 44.5312 79.6875 44.5312C78.3931 44.5312 77.3438 45.5806 77.3438 46.875C77.3438 48.1694 78.3931 49.2188 79.6875 49.2188Z" fill="#1A75CF"/>
</svg>
