<svg width="151" height="150" viewBox="0 0 151 150" fill="none" xmlns="http://www.w3.org/2000/svg">
<path d="M101.208 84.9548H96.1912C94.9765 84.9548 93.9916 85.9398 93.9916 87.1544C93.9916 88.3691 94.9765 89.354 96.1912 89.354H101.208C102.208 89.354 103.018 90.1641 103.018 91.1637V96.6788C103.018 102.559 98.3419 107.407 92.5947 107.486C88.6757 107.533 85.0528 105.424 83.1638 101.964C81.0776 98.1428 77.0068 95.7692 72.5408 95.7692H59.9379C55.4719 95.7692 51.4014 98.1428 49.3149 101.964C47.4493 105.381 43.9023 107.487 40.031 107.487C39.9824 107.487 39.9332 107.487 39.8846 107.486C34.1365 107.407 29.4608 102.559 29.4608 96.6788V91.1637C29.4608 90.1641 30.2708 89.354 31.2704 89.354H81.8791C83.0938 89.354 84.0787 88.3691 84.0787 87.1544C84.0787 85.9398 83.0938 84.9548 81.8791 84.9548H31.2698C27.841 84.9548 25.0613 87.7345 25.0613 91.1634V96.6785C25.0613 104.951 31.6838 111.773 39.8239 111.884C39.8934 111.886 39.9619 111.886 40.0316 111.886C45.5136 111.886 50.5366 108.906 53.1759 104.072C54.4905 101.664 57.0815 100.168 59.9376 100.168H72.5405C75.3963 100.168 77.9876 101.664 79.3022 104.072C81.9418 108.906 86.9645 111.886 92.4468 111.886C92.5159 111.886 92.5856 111.886 92.6548 111.884C100.795 111.773 107.417 104.951 107.417 96.6785V91.1634C107.417 87.7345 104.637 84.9548 101.208 84.9548Z" fill="#0047BA"/>
<path d="M64.2749 43.927C60.4037 40.3158 54.3292 36.0112 47.3747 36.0112C40.4205 36.0112 34.345 40.2323 30.1488 44.234L24.4236 40.7916C23.2704 40.0987 21.8428 40.1058 20.6979 40.8109C19.5524 41.5158 18.9026 42.787 19.0019 44.1285L19.5533 51.5752L19.0356 57.6563C18.921 59.0049 19.5635 60.2869 20.712 61.0023C21.8604 61.7178 23.2951 61.7295 24.4543 61.0319L30.1488 57.608C34.3453 61.61 40.4205 65.8311 47.3747 65.8311C54.3292 65.8311 60.4037 61.5265 64.2749 57.9153C66.2068 56.1133 67.3148 53.5639 67.3148 50.9213C67.3148 48.2787 66.2068 45.729 64.2749 43.927ZM47.3756 61.4318C40.9133 61.4318 35.0062 56.3427 32.0604 53.3093C31.6341 52.8704 31.0608 52.6422 30.4813 52.6422C30.0925 52.6422 29.7005 52.745 29.349 52.9565L23.5546 56.4405L23.9516 51.7738C23.9616 51.6578 23.9621 51.5409 23.9537 51.4252L23.5054 45.373L29.3484 48.886C30.2241 49.4131 31.3473 49.2666 32.0598 48.5333C35.0056 45.4996 40.9127 40.4107 47.375 40.4107C47.9563 40.4107 48.5323 40.4535 49.1021 40.5297C47.637 44.2489 44.7729 53.6122 49.2943 61.2865C48.6621 61.38 48.0219 61.4318 47.3756 61.4318ZM61.2741 54.6982C59.2748 56.5636 56.6144 58.6445 53.5971 59.9931C49.3933 53.6453 52.2864 44.6113 53.3806 41.7531C56.487 43.0973 59.2268 45.2342 61.2738 47.144C62.3323 48.1316 62.9156 49.4726 62.9156 50.9213C62.9159 52.3697 62.3329 53.7109 61.2741 54.6982Z" fill="#1A75CF"/>
<path d="M89.0021 44.3091C85.3562 44.3091 82.3901 47.2751 82.3901 50.9211C82.3901 54.5671 85.3562 57.5331 89.0021 57.5331C92.6481 57.5331 95.6142 54.5671 95.6142 50.9211C95.6142 47.2751 92.6481 44.3091 89.0021 44.3091ZM89.0021 53.1339C87.7822 53.1339 86.7894 52.141 86.7894 50.9211C86.7894 49.7012 87.7822 48.7083 89.0021 48.7083C90.2221 48.7083 91.2149 49.7012 91.2149 50.9211C91.2149 52.141 90.2221 53.1339 89.0021 53.1339Z" fill="#78B3E0"/>
<path d="M100.805 20.0173C96.104 20.0173 92.2793 23.842 92.2793 28.5433C92.2793 33.2443 96.104 37.069 100.805 37.069C105.506 37.069 109.331 33.2443 109.331 28.5433C109.331 23.8417 105.506 20.0173 100.805 20.0173ZM100.805 32.6692C98.5298 32.6692 96.6785 30.8179 96.6785 28.5427C96.6785 26.2675 98.5295 24.416 100.805 24.416C103.08 24.416 104.932 26.2675 104.932 28.5427C104.932 30.8182 103.08 32.6692 100.805 32.6692Z" fill="#78B3E0"/>
<path d="M84.5902 0C79.2467 0 74.8997 4.34707 74.8997 9.69053C74.8997 15.034 79.2467 19.3811 84.5902 19.3811C89.9337 19.3811 94.2807 15.034 94.2807 9.69053C94.2807 4.34707 89.9337 0 84.5902 0ZM84.5902 14.9818C81.6728 14.9818 79.2989 12.6079 79.2989 9.69053C79.2989 6.77314 81.6728 4.39922 84.5902 4.39922C87.5076 4.39922 89.8815 6.77285 89.8815 9.69053C89.8815 12.6079 87.5079 14.9818 84.5902 14.9818Z" fill="#78B3E0"/>
<path d="M128.281 30.449H125.942C123.191 30.449 120.953 32.6872 120.953 35.4385V131.305C120.953 133.04 120.264 134.665 119.014 135.878C117.765 137.091 116.128 137.735 114.381 137.679C110.972 137.578 108.199 134.636 108.199 131.123V126.888C108.199 124.427 106.197 122.424 103.735 122.424H100.345C97.8833 122.424 95.8809 124.427 95.8809 126.888V131.055C95.8809 141.345 104.137 149.843 114.286 149.998C114.384 149.999 114.481 150 114.579 150C119.513 150 124.158 148.096 127.687 144.62C131.287 141.074 133.27 136.346 133.27 131.305V35.4385C133.27 32.6872 131.032 30.449 128.281 30.449ZM100.991 135.553C100.532 134.133 100.28 132.622 100.28 131.054V126.887C100.28 126.852 100.309 126.823 100.345 126.823H103.735C103.77 126.823 103.799 126.852 103.799 126.887V131.122C103.799 131.97 103.9 132.797 104.085 133.594L100.991 135.553ZM104.46 141.298C103.918 140.743 103.42 140.144 102.97 139.507L105.938 137.628C106.369 138.215 106.856 138.758 107.39 139.248L104.46 141.298ZM124.6 141.485C121.9 144.144 118.349 145.6 114.577 145.6C114.502 145.6 114.427 145.6 114.352 145.598C112.144 145.565 110.054 145.011 108.193 144.055L111.621 141.656C112.461 141.904 113.342 142.049 114.25 142.076C117.187 142.16 119.967 141.083 122.077 139.034C124.188 136.985 125.351 134.24 125.351 131.304V66.0299H128.87V131.305H128.871C128.871 135.158 127.354 138.773 124.6 141.485ZM128.871 61.6307H125.352V57.5327H128.871V61.6307ZM128.871 53.1338H125.352V35.4388C125.352 35.1136 125.616 34.8485 125.942 34.8485H128.281C128.606 34.8485 128.871 35.1133 128.871 35.4388V53.1338H128.871Z" fill="#0047BA"/>
<path d="M102.569 77.6228H29.9093C23.1936 77.6228 17.7297 83.0866 17.7297 89.8023V96.9144C17.7297 109.212 27.7346 119.217 40.0325 119.217C44.4668 119.217 48.6721 117.935 52.2308 115.61C53.2913 118.92 56.3971 121.323 60.0545 121.323H73.2887C76.7815 121.323 79.7697 119.131 80.9557 116.051C84.3573 118.097 88.3015 119.217 92.4456 119.217C104.743 119.217 114.748 109.212 114.748 96.9141V89.802C114.749 83.0869 109.285 77.6228 102.569 77.6228ZM73.2887 116.924H60.0542C57.9504 116.924 56.2389 115.213 56.2389 113.109C56.2389 113.006 56.2295 112.906 56.2157 112.807L56.1782 112.317C57.2561 111.184 58.2281 109.927 59.0713 108.556H73.4065L73.4153 108.542C74.46 110.249 75.7028 111.779 77.1028 113.113C77.1011 115.215 75.3907 116.924 73.2887 116.924ZM110.349 96.9147C110.349 106.787 102.318 114.818 92.4456 114.818C86.1643 114.818 80.4529 111.614 77.1676 106.246C76.3789 104.957 74.9375 104.157 73.4065 104.157H59.0713C57.5399 104.157 56.0985 104.958 55.3102 106.246C52.0248 111.613 46.3134 114.818 40.0319 114.818C30.1601 114.818 22.1284 106.787 22.1284 96.9147V89.8026C22.1284 85.5127 25.6188 82.0223 29.9087 82.0223H102.569C106.859 82.0223 110.349 85.5127 110.349 89.8029V96.9147Z" fill="#0047BA"/>
</svg>
