<svg width="151" height="150" viewBox="0 0 151 150" fill="none" xmlns="http://www.w3.org/2000/svg">
<path d="M110.448 75C110.448 47.9786 88.4647 25.9951 61.4434 25.9951C34.422 25.9951 12.4385 47.9786 12.4385 75C12.4385 102.021 34.422 124.005 61.4434 124.005C71.7855 124.031 81.867 120.761 90.224 114.668C90.5997 114.393 90.8511 113.981 90.9232 113.521C90.9953 113.061 90.8821 112.592 90.6085 112.215C90.3349 111.839 89.9233 111.586 89.4637 111.513C89.0042 111.44 88.5343 111.552 88.1571 111.824C80.4 117.479 71.0427 120.514 61.4434 120.489C36.3594 120.489 15.9541 100.083 15.9541 75C15.9541 49.9172 36.3594 29.5107 61.4434 29.5107C86.5273 29.5107 106.933 49.9172 106.933 75C106.948 80.9429 105.792 86.8306 103.529 92.3262C101.267 97.8218 97.9437 102.817 93.749 107.027C93.4208 107.358 93.2375 107.806 93.2395 108.273C93.2415 108.739 93.4286 109.185 93.7597 109.513C94.0908 109.842 94.5387 110.025 95.0049 110.023C95.4711 110.021 95.9175 109.834 96.2457 109.503C100.765 104.967 104.345 99.5856 106.782 93.6653C109.219 87.745 110.465 81.4023 110.448 75Z" fill="#1A75CF"/>
<path d="M61.4434 35.373C39.5943 35.373 21.8193 53.1495 21.8193 75C21.8193 96.8505 39.5943 114.627 61.4434 114.627C83.2924 114.627 101.07 96.8505 101.07 75C101.07 53.1495 83.293 35.373 61.4434 35.373ZM61.4434 111.111C54.3012 111.111 47.3195 108.993 41.381 105.025C35.4425 101.058 30.814 95.4177 28.0808 88.8192C25.3477 82.2207 24.6325 74.9599 26.0259 67.955C27.4193 60.9501 30.8585 54.5157 35.9088 49.4654C40.9591 44.4152 47.3935 40.9759 54.3984 39.5825C61.4033 38.1892 68.6641 38.9043 75.2626 41.6375C81.8611 44.3707 87.5009 48.9991 91.4688 54.9376C95.4368 60.8761 97.5547 67.8579 97.5547 75C97.5442 84.5741 93.7363 93.7531 86.9664 100.523C80.1965 107.293 71.0175 111.101 61.4434 111.111Z" fill="#0047BA"/>
<path d="M139.367 116.062C139.221 115.77 138.997 115.524 138.719 115.352C138.442 115.181 138.122 115.09 137.795 115.09H101.092C106.4 109.851 110.613 103.608 113.486 96.7256C116.359 89.8432 117.835 82.4581 117.828 75C117.828 43.9093 92.5341 18.6152 61.4434 18.6152C30.3526 18.6152 5.05859 43.9093 5.05859 75C5.05859 106.091 30.3535 131.385 61.4434 131.385H144.184C144.483 131.385 144.778 131.308 145.04 131.162C145.301 131.016 145.521 130.806 145.679 130.551C145.836 130.296 145.926 130.005 145.94 129.706C145.953 129.407 145.89 129.109 145.756 128.841L139.367 116.062ZM8.57422 75C8.57422 45.8478 32.2912 22.1309 61.4434 22.1309C90.5955 22.1309 114.313 45.8478 114.313 75C114.313 89.0218 108.742 102.469 98.8275 112.384C88.9126 122.299 75.4651 127.869 61.4434 127.869C32.2912 127.869 8.57422 104.152 8.57422 75ZM81.0254 127.869C86.8889 125.7 92.3503 122.569 97.1853 118.605H136.707L141.339 127.869H81.0254Z" fill="#0047BA"/>
<path d="M61.4434 44.54C57.3168 44.5245 53.2308 45.355 49.4377 46.9803C45.6446 48.6056 42.225 50.9912 39.3899 53.9897C39.0683 54.3272 38.8939 54.7787 38.9052 55.2448C38.9165 55.7109 39.1124 56.1534 39.4499 56.475C39.7875 56.7966 40.2389 56.9709 40.705 56.9597C41.1711 56.9484 41.6136 56.7524 41.9352 56.4149C46.2544 51.8814 52.0177 48.9937 58.2348 48.2481C64.4519 47.5025 70.7346 48.9456 76.0033 52.3293C81.272 55.713 85.1976 60.8261 87.1057 66.79C89.0138 72.7539 88.7851 79.1961 86.459 85.0097C84.1329 90.8233 79.8546 95.6452 74.3593 98.6469C68.864 101.649 62.4948 102.643 56.3462 101.458C50.1976 100.274 44.6535 96.9846 40.6666 92.1562C36.6797 87.3278 34.4989 81.2616 34.4991 75C34.4991 70.5783 35.5856 66.2244 37.6631 62.3212C37.7719 62.1176 37.8396 61.8945 37.8622 61.6648C37.8848 61.435 37.8619 61.2031 37.7949 60.9822C37.7278 60.7613 37.6179 60.5558 37.4715 60.3773C37.325 60.1989 37.1448 60.0511 36.9412 59.9423C36.7376 59.8335 36.5146 59.7658 36.2849 59.7432C36.0551 59.7206 35.8232 59.7435 35.6023 59.8105C35.3814 59.8775 35.1758 59.9874 34.9974 60.1339C34.819 60.2804 34.6711 60.4605 34.5623 60.6641C31.4263 66.5422 30.3037 73.2862 31.3664 79.8632C32.4292 86.4402 35.6187 92.4875 40.4464 97.0787C45.2741 101.67 51.4738 104.552 58.0958 105.283C64.7179 106.015 71.3971 104.555 77.1104 101.128C82.8237 97.7012 87.256 92.4957 89.7285 86.3092C92.2009 80.1226 92.5771 73.2961 90.7994 66.8754C89.0218 60.4546 85.1883 54.7936 79.8862 50.7595C74.5841 46.7254 68.1057 44.5407 61.4434 44.54Z" fill="#1A75CF"/>
<path d="M61.4434 96.4775C65.6913 96.4781 69.8441 95.219 73.3764 92.8593C76.9088 90.4997 79.6621 87.1456 81.2881 83.2211C82.9141 79.2967 83.3399 74.9782 82.5115 70.8117C81.6831 66.6453 79.6378 62.8181 76.6342 59.8141C73.6307 56.8102 69.8037 54.7643 65.6374 53.9354C61.4711 53.1064 57.1525 53.5316 53.2279 55.1571C49.3032 56.7826 45.9487 59.5354 43.5886 63.0674C41.2285 66.5994 39.9688 70.752 39.9688 75C39.9752 80.6937 42.2397 86.1524 46.2654 90.1788C50.2912 94.2051 55.7496 96.4703 61.4434 96.4775ZM61.4434 57.0381C64.996 57.0375 68.4691 58.0905 71.4233 60.0638C74.3775 62.0371 76.6802 64.8422 78.0401 68.1242C79.4 71.4063 79.7562 75.0179 79.0634 78.5024C78.3707 81.9869 76.6602 85.1876 74.1483 87.7C71.6364 90.2123 68.4359 91.9233 64.9516 92.6166C61.4672 93.3099 57.8555 92.9543 54.5732 91.5949C51.291 90.2355 48.4855 87.9333 46.5117 84.9794C44.5379 82.0255 43.4844 78.5527 43.4844 75C43.4897 70.2384 45.3834 65.6732 48.7502 62.306C52.1169 58.9387 56.6817 57.0442 61.4434 57.0381Z" fill="#78B3E0"/>
</svg>
