<svg width="151" height="150" viewBox="0 0 151 150" fill="none" xmlns="http://www.w3.org/2000/svg">
<g clip-path="url(#clip0)">
<path d="M150.5 52.4999C150.506 37.9718 144.481 24.0932 133.863 14.1774C133.827 14.1449 133.795 14.1099 133.76 14.0749C120.378 1.63051 101.488 -2.96024 83.8876 1.95465C66.2871 6.86954 52.5084 20.5829 47.51 38.1599C46.6 41.3223 46.0079 44.5675 45.7425 47.8474C45.7228 47.9374 45.7078 48.0284 45.6975 48.1199C45.6425 48.7224 45.6025 49.3549 45.5725 50.0049H40.5V44.9999C40.5069 41.3513 37.8813 38.2297 34.2854 37.6115C30.6896 36.9932 27.1721 39.0586 25.96 42.4999H10.5C4.97715 42.4999 0.5 46.9771 0.5 52.4999C0.5 58.0228 4.97715 62.4999 10.5 62.4999H25.96C27.1721 65.9413 30.6896 68.0067 34.2854 67.3884C37.8813 66.7701 40.5069 63.6485 40.5 59.9999V54.9999H45.565V55.2499C45.566 55.3975 45.5794 55.5446 45.605 55.6899C45.9595 61.4709 47.2759 67.1522 49.5 72.4999H24.25C18.0397 72.5068 13.0069 77.5396 13 83.7499C13.0206 89.9546 18.0453 94.9793 24.25 94.9999H67.25C85.1351 107.99 109.249 108.356 127.52 95.9149L130.592 95.9749C138.842 96.1601 145.448 102.873 145.5 111.125C145.502 115.15 143.904 119.011 141.058 121.857C138.211 124.704 134.35 126.302 130.325 126.3H63V117.55C63.009 112.965 59.4697 109.154 54.8965 108.825C50.3234 108.496 46.275 111.761 45.6275 116.3H13C6.09644 116.3 0.5 121.896 0.5 128.8C0.5 135.703 6.09644 141.3 13 141.3H45.6275C46.275 145.839 50.3234 149.104 54.8965 148.775C59.4697 148.446 63.009 144.635 63 140.05V131.3H130.325C135.676 131.301 140.809 129.176 144.592 125.392C148.376 121.608 150.501 116.476 150.5 111.125C150.441 101.207 143.211 92.7887 133.415 91.2324C144.3 81.2962 150.501 67.238 150.5 52.4999ZM5.5 52.4999C5.5 49.7385 7.73858 47.4999 10.5 47.4999H25.5V57.4999H10.5C7.73858 57.4999 5.5 55.2613 5.5 52.4999ZM35.5 59.9999C35.5 61.3806 34.3807 62.4999 33 62.4999C31.6193 62.4999 30.5 61.3806 30.5 59.9999V44.9999C30.5 43.6192 31.6193 42.4999 33 42.4999C34.3807 42.4999 35.5 43.6192 35.5 44.9999V59.9999ZM5.5 128.8C5.5 124.658 8.85786 121.3 13 121.3H45.5V136.3H13C8.85786 136.3 5.5 132.942 5.5 128.8ZM58 140.05C58 142.121 56.3211 143.8 54.25 143.8C52.1789 143.8 50.5 142.121 50.5 140.05V117.55C50.5 115.479 52.1789 113.8 54.25 113.8C56.3211 113.8 58 115.479 58 117.55V140.05ZM143.895 40.4299C140.486 43.7408 136.231 46.0501 131.598 47.1049C130.287 47.4474 128.961 47.7228 127.622 47.9299C126.334 48.1313 125.417 49.289 125.516 50.5893C125.614 51.8895 126.696 52.8955 128 52.8999C128.127 52.8999 128.254 52.8899 128.38 52.8699C129.896 52.6404 131.398 52.33 132.88 51.9399C137.297 50.847 141.445 48.8631 145.068 46.1099C145.355 48.2278 145.5 50.3626 145.5 52.4999C145.495 55.5326 145.195 58.5577 144.605 61.5324C143.592 62.8542 142.416 64.0427 141.105 65.0699C130.717 73.3424 110.645 74.8199 91.15 68.7599C73.25 63.2299 58.75 52.4674 53.31 40.6549C53.0425 40.0899 52.7875 39.4574 52.54 38.7849C54.3075 32.893 57.2169 27.4063 61.1025 22.6374C62.8128 26.384 65.1449 29.8141 68 32.7824C76.097 40.943 86.1395 46.9063 97.18 50.1099C101.422 51.4431 105.771 52.4034 110.18 52.9799C110.286 52.994 110.393 53.0007 110.5 52.9999C111.819 52.9996 112.911 51.9743 112.994 50.6577C113.078 49.3412 112.124 48.1865 110.815 48.0199C106.694 47.4817 102.627 46.5841 98.6625 45.3374C88.4473 42.3906 79.1498 36.8932 71.645 29.3624C68.6219 26.2793 66.3215 22.5632 64.91 18.4824C69.5805 13.9118 75.1523 10.3648 81.27 8.06743C79.595 17.0674 88.955 27.3574 102.97 31.7099C106.974 32.9865 111.148 33.6491 115.35 33.6749C123.6 33.6749 132.94 30.6599 134.917 22.6399C139.177 27.8408 142.242 33.9139 143.895 40.4299ZM129.878 17.3299C130.379 18.7818 130.422 20.3529 130 21.8299C129.948 21.9945 129.885 22.1556 129.812 22.3124C125.455 32.9699 104.718 26.9574 104.468 26.9449C92.8375 23.3349 84.655 15.1274 86.29 8.40993L86.34 8.21993C86.5796 7.49596 86.9434 6.81921 87.415 6.21993C90.8851 5.40981 94.4366 5.00046 98 4.99993C109.792 4.98811 121.163 9.3861 129.878 17.3299ZM19.8275 88.1424C18.6506 86.9848 17.9916 85.4007 18 83.7499C18 80.2981 20.7982 77.4999 24.25 77.4999H51.885C54.3822 82.1143 57.5575 86.3278 61.305 90L24.25 89.9999C22.585 90.0057 20.989 89.3354 19.8275 88.1424ZM55.2025 73.1074C59.1181 77.1513 63.5625 80.6472 68.415 83.4999C69.1826 83.9771 70.1481 84.0027 70.9399 83.567C71.7318 83.1312 72.2269 82.302 72.2346 81.3982C72.2424 80.4944 71.7618 79.6567 70.9775 79.2074C47.905 65.4199 50.17 53.1174 50.9225 46.7074C58.0325 58.1549 72.4225 68.2224 89.6725 73.5574C97.8026 76.1198 106.271 77.4488 114.795 77.4999C124.291 77.8323 133.685 75.4518 141.878 70.6374C141.297 72.0492 140.646 73.431 139.928 74.7774C139.89 74.8449 139.857 74.9174 139.825 74.9899C138.407 77.6162 136.745 80.103 134.86 82.4174C125.448 90.7149 106.475 92.3674 87.4925 86.4999C87.175 86.4124 86.87 86.3074 86.56 86.2024L86.295 86.1149C85.4465 85.8318 84.5114 86.0228 83.8419 86.6161C83.1725 87.2094 82.8704 88.1147 83.0494 88.9911C83.2285 89.8675 83.8615 90.5818 84.71 90.8649L84.96 90.9499C85.3625 91.0849 85.755 91.2174 86.09 91.3074C93.6538 93.678 101.529 94.9082 109.455 94.9574C113.495 94.9703 117.526 94.5784 121.488 93.7874C110.047 100.294 96.4188 101.762 83.8548 97.8407C71.2908 93.9196 60.9169 84.9613 55.2075 73.1024L55.2025 73.1074Z" fill="#0047BA"/>
<path d="M104.71 14.8724L112.21 17.3724C113.521 17.8087 114.938 17.0991 115.375 15.7874C115.811 14.4757 115.101 13.0587 113.79 12.6224L106.29 10.1224C104.978 9.68609 103.561 10.3957 103.125 11.7074C102.688 13.0191 103.398 14.4361 104.71 14.8724Z" fill="#78B3E0"/>
</g>
<defs>
<clipPath id="clip0">
<rect width="150" height="150" fill="white" transform="translate(0.5)"/>
</clipPath>
</defs>
</svg>
