<svg width="150" height="150" viewBox="0 0 150 150" fill="none" xmlns="http://www.w3.org/2000/svg">
<g clip-path="url(#clip0)">
<path d="M147.5 47.5004H123.535L149.267 21.7678C150.243 20.7915 150.243 19.209 149.267 18.2328L131.767 0.732688C130.791 -0.243253 129.208 -0.243253 128.232 0.732688L99.9996 28.9653L95.3021 24.2678C92.3346 21.4353 87.6645 21.4353 84.697 24.2678L69.267 39.6978C66.3391 42.6266 66.3391 47.3741 69.267 50.3029L71.4645 52.5004L56.7669 67.198C53.8391 70.1267 53.8391 74.8742 56.7669 77.803L72.1945 93.2331C75.1232 96.1621 79.872 96.1628 82.8011 93.234C82.8014 93.2337 82.8017 93.2334 82.802 93.2331L97.4996 78.5355L99.6946 80.733C102.623 83.6621 107.372 83.6627 110.301 80.734C110.302 80.7336 110.302 80.7333 110.302 80.733L116.035 75.0005H147.5C148.88 75.0005 150 73.8811 150 72.5005V50.0004C150 48.6198 148.881 47.5004 147.5 47.5004ZM130 6.03521L143.965 20.0003L117.5 46.4654L103.535 32.5003L130 6.03521ZM79.267 89.6981C78.2792 90.6462 76.7198 90.6462 75.732 89.6981L60.3044 74.268C59.3285 73.2917 59.3285 71.7092 60.3044 70.733L74.9995 56.0354L93.9646 75.0005L79.267 89.6981ZM106.767 77.198C105.779 78.1461 104.22 78.1461 103.232 77.198L72.8045 46.7679C71.8285 45.7916 71.8285 44.2091 72.8045 43.2329L88.2345 27.8028C89.2108 26.8269 90.7933 26.8269 91.7696 27.8028L122.195 58.2329C123.171 59.2092 123.171 60.7917 122.195 61.7679L106.767 77.198ZM145 70.0005H121.035L125.732 65.303C128.66 62.3742 128.66 57.6267 125.732 54.6979L123.535 52.5004H145V70.0005Z" fill="#0047BA"/>
<path d="M114.268 58.2323L91.7675 35.7322C90.7912 34.7563 89.2087 34.7563 88.2325 35.7322L80.7324 43.2322C79.7565 44.2085 79.7565 45.791 80.7324 46.7672L103.233 69.2673C104.209 70.2433 105.791 70.2433 106.768 69.2673L114.268 61.7673C115.244 60.791 115.244 59.2085 114.268 58.2323ZM105 63.9648L86.035 44.9997L90 41.0347L108.965 59.9998L105 63.9648Z" fill="#1A75CF"/>
<path d="M86.7673 73.2325L76.7673 63.2324C75.791 62.2565 74.2085 62.2565 73.2322 63.2324L65.7322 70.7325C64.7563 71.7087 64.7563 73.2912 65.7322 74.2675L75.7322 84.2675C76.7085 85.2435 78.291 85.2435 79.2673 84.2675L86.7673 76.7675C87.7432 75.7912 87.7432 74.2087 86.7673 73.2325ZM77.4998 78.965L71.0347 72.5L74.9997 68.535L81.4648 75L77.4998 78.965Z" fill="#1A75CF"/>
<path d="M74.267 108.233L41.7669 75.7324C40.7906 74.7565 39.2081 74.7565 38.2319 75.7324L11.7668 102.198C8.83893 105.126 8.83893 109.874 11.7668 112.803L13.9643 115L0.731712 128.233C-0.24423 129.209 -0.24423 130.791 0.731712 131.768L18.2318 149.268C19.208 150.244 20.7905 150.244 21.7668 149.268L34.9994 136.035L37.1944 138.233C40.1231 141.162 44.8719 141.162 47.801 138.234C47.8013 138.233 47.8016 138.233 47.8019 138.233L74.267 111.768C75.243 110.791 75.243 109.209 74.267 108.233ZM19.9993 143.965L6.03423 130L17.4993 118.535L31.4643 132.5L19.9993 143.965ZM44.2669 134.698C43.2791 135.646 41.7197 135.646 40.7319 134.698L15.3043 109.268C14.3283 108.291 14.3283 106.709 15.3043 105.733H15.3018L39.9994 81.035L68.9645 110L44.2669 134.698Z" fill="#0047BA"/>
<path d="M61.7671 108.233L41.767 88.2324C40.7908 87.2565 39.2083 87.2565 38.232 88.2324L20.732 105.733C19.756 106.709 19.756 108.291 20.732 109.268L40.732 129.268C41.7083 130.244 43.2908 130.244 44.2671 129.268L61.7671 111.768C62.7431 110.791 62.7431 109.209 61.7671 108.233ZM42.4995 123.965L26.0345 107.5L39.9995 93.535L56.4646 110L42.4995 123.965Z" fill="#1A75CF"/>
</g>
<defs>
<clipPath id="clip0">
<rect width="150" height="150" fill="white"/>
</clipPath>
</defs>
</svg>
