<svg width="150" height="150" viewBox="0 0 150 150" fill="none" xmlns="http://www.w3.org/2000/svg">
<path d="M142.969 102.539C134.08 102.539 129.572 104.094 125.213 105.597C121.034 107.037 117.087 108.398 108.984 108.398C101.941 108.398 98.038 107.37 94.3946 106.155C97.0976 104.199 99.2982 101.63 100.816 98.6589C102.333 95.6877 103.125 92.3989 103.125 89.0625C103.125 88.4409 102.878 87.8448 102.439 87.4052C101.999 86.9657 101.403 86.7188 100.781 86.7188H92.4842L82.6311 75.2236C81.2904 73.6594 79.6222 72.4092 77.7446 71.5615L84.557 68.1554C84.4398 69.6531 84.3751 71.1583 84.3751 72.6572C84.3751 73.2788 84.622 73.8749 85.0616 74.3144C85.5011 74.754 86.0972 75.0009 86.7188 75.0009C87.3404 75.0009 87.9366 74.754 88.3761 74.3144C88.8157 73.8749 89.0626 73.2788 89.0626 72.6572C89.0647 70.5694 89.1888 68.4835 89.4341 66.4102L92.1476 65.5058C92.6144 65.3502 93.0204 65.0516 93.308 64.6523C93.5956 64.253 93.7503 63.7734 93.7501 63.2813V58.1907C95.1711 58.694 96.7162 58.7272 98.1574 58.2852C99.5986 57.8432 100.86 56.9495 101.754 55.7361C102.648 54.5227 103.129 53.0538 103.125 51.5463C103.121 50.0388 102.632 48.5727 101.731 47.3643C103.614 46.4277 105.319 45.1684 106.767 43.6436C108.443 41.8985 109.746 39.8304 110.597 37.5654C111.448 35.3003 111.829 32.8857 111.716 30.4688H119.531C122.068 30.4714 124.537 29.6463 126.563 28.1186V51.0091L122.058 60.0185C120.4 63.3435 119.536 67.0074 119.531 70.7227V70.9134C119.532 77.0798 121.208 83.1301 124.38 88.418L125.955 91.0424L122.562 94.4359C122.344 94.6535 122.171 94.9119 122.053 95.1963C121.936 95.4806 121.875 95.7854 121.875 96.0932C121.875 96.401 121.936 96.7058 122.053 96.9901C122.171 97.2745 122.344 97.5329 122.562 97.7505C122.779 97.9682 123.038 98.1408 123.322 98.2586C123.606 98.3764 123.911 98.437 124.219 98.437C124.527 98.437 124.831 98.3764 125.116 98.2586C125.4 98.1408 125.659 97.9682 125.876 97.7505L128.906 94.7206L131.937 97.7511C132.376 98.1907 132.972 98.4376 133.594 98.4376C134.215 98.4376 134.812 98.1907 135.251 97.7511C135.691 97.3116 135.938 96.7154 135.938 96.0938C135.938 95.4722 135.691 94.876 135.251 94.4365L131.858 91.043L133.432 88.4186C136.605 83.1301 138.281 77.079 138.281 70.9119V70.7227C138.277 67.0079 137.412 63.3446 135.755 60.02L131.25 51.0091C131.25 51.0091 131.236 18.5218 131.235 18.511C131.202 18.171 131.095 17.8424 130.921 17.5483C130.748 17.2543 130.511 17.002 130.229 16.8094C129.947 16.6168 129.626 16.4885 129.289 16.4336C128.952 16.3787 128.607 16.3986 128.279 16.4918L126.738 16.9193C117.685 19.434 109.381 24.116 102.543 30.5604C95.705 37.0048 90.5398 45.0177 87.4937 53.9063H84.3751C84.0673 53.9063 83.7625 53.9669 83.4782 54.0847C83.1938 54.2024 82.9354 54.3751 82.7178 54.5927L80.7842 56.5248C80.4751 56.3604 80.133 56.2673 79.7832 56.2525C79.4333 56.2377 79.0846 56.3015 78.7627 56.4393L64.2388 62.666L62.9758 60.5611C62.9688 60.5195 62.9641 60.4782 62.955 60.4366C62.3804 57.8107 61.0641 55.405 59.1625 53.5052L59.1019 53.4446L60.5198 50.6086L61.9082 49.2199H65.6251C66.2467 49.2199 66.8428 48.973 67.2824 48.5335C67.7219 48.0939 67.9689 47.4978 67.9689 46.8762V43.1581L69.6262 41.5011C69.9741 41.1533 70.2038 40.7048 70.2827 40.2193C70.3615 39.7337 70.2856 39.2356 70.0656 38.7955L69.4173 37.5H75.0001C75.6217 37.5 76.2178 37.2531 76.6574 36.8136C77.0969 36.374 77.3438 35.7779 77.3438 35.1563C77.3438 34.5347 77.0969 33.9385 76.6574 33.499C76.2178 33.0595 75.6217 32.8125 75.0001 32.8125H67.9689V29.8828C67.9669 28.174 67.2872 26.5358 66.0789 25.3275C64.8706 24.1191 63.2323 23.4395 61.5235 23.4375H55.6642C53.9554 23.4395 52.3171 24.1191 51.1088 25.3275C49.9005 26.5358 49.2208 28.174 49.2189 29.8828V41.6341L47.2929 45.4864L45.6786 47.1006C43.8229 48.9462 42.3517 51.1416 41.3502 53.5596C40.3487 55.9776 39.8367 58.5702 39.8438 61.1874V83.2032C39.8427 84.4195 40.1137 85.6207 40.6369 86.7188H33.4706L35.0863 80.2559C35.1727 79.9104 35.1792 79.5497 35.1053 79.2013C35.0314 78.8529 34.8791 78.5259 34.6599 78.2451C34.4407 77.9644 34.1604 77.7373 33.8403 77.5812C33.5202 77.425 33.1688 77.3438 32.8126 77.3438H30.4689V75C30.4689 73.1352 29.7281 71.3468 28.4094 70.0282C27.0908 68.7096 25.3024 67.9688 23.4376 67.9688C21.5728 67.9688 19.7844 68.7096 18.4658 70.0282C17.1471 71.3468 16.4064 73.1352 16.4064 75V77.3438H14.0626C13.7064 77.3438 13.355 77.425 13.0349 77.5812C12.7148 77.7373 12.4345 77.9644 12.2153 78.2451C11.9961 78.5259 11.8438 78.8529 11.7699 79.2013C11.696 79.5497 11.7025 79.9104 11.7889 80.2559L13.4046 86.7188H7.03135C6.40975 86.7188 5.81361 86.9657 5.37407 87.4052C4.93453 87.8448 4.6876 88.4409 4.6876 89.0625C4.67229 94.0034 6.39964 98.7914 9.56582 102.585C8.76133 102.555 7.91905 102.539 7.03135 102.539C6.40975 102.539 5.81361 102.786 5.37407 103.226C4.93453 103.665 4.6876 104.261 4.6876 104.883C4.6876 105.504 4.93453 106.101 5.37407 106.54C5.81361 106.98 6.40975 107.227 7.03135 107.227C15.1346 107.227 19.0812 108.588 23.2592 110.028C27.6186 111.531 32.1265 113.086 41.0157 113.086C49.905 113.086 54.4123 111.531 58.7717 110.028C62.9491 108.588 66.8957 107.227 75.0001 107.227C83.1045 107.227 87.0502 108.588 91.2285 110.028C95.5867 111.531 100.095 113.086 108.984 113.086C117.874 113.086 122.382 111.531 126.741 110.028C130.919 108.588 134.865 107.227 142.969 107.227C143.59 107.227 144.187 106.98 144.626 106.54C145.066 106.101 145.313 105.504 145.313 104.883C145.313 104.261 145.066 103.665 144.626 103.226C144.187 102.786 143.59 102.539 142.969 102.539ZM96.0938 53.9063C95.6303 53.9063 95.1772 53.7688 94.7917 53.5113C94.4063 53.2538 94.1059 52.8877 93.9285 52.4594C93.7511 52.0312 93.7047 51.5599 93.7951 51.1053C93.8856 50.6506 94.1088 50.233 94.4366 49.9052C94.7643 49.5775 95.182 49.3542 95.6366 49.2638C96.0912 49.1734 96.5625 49.2198 96.9908 49.3972C97.419 49.5746 97.7851 49.875 98.0426 50.2604C98.3001 50.6458 98.4376 51.099 98.4376 51.5625C98.4369 52.1839 98.1898 52.7797 97.7504 53.219C97.311 53.6584 96.7152 53.9056 96.0938 53.9063ZM119.531 25.7813H117.154C119.888 24.3214 122.744 23.1029 125.689 22.1397C125.082 23.2418 124.191 24.161 123.108 24.8015C122.025 25.4419 120.79 25.7803 119.531 25.7813ZM128.906 86.8509L128.4 86.0066C126.273 82.4592 124.921 78.5022 124.431 74.3953C127.351 75.2625 130.461 75.2625 133.382 74.3953C132.892 78.5022 131.539 82.4592 129.413 86.0066L128.906 86.8509ZM133.538 69.3396C132.084 70.0054 130.505 70.3501 128.906 70.3501C127.308 70.3501 125.728 70.0054 124.275 69.3396C124.457 66.8258 125.128 64.3717 126.251 62.1153L128.906 56.8035L131.562 62.1153C132.685 64.3717 133.356 66.8258 133.538 69.3396ZM105.017 34.6843C105.643 34.0691 106.288 33.4773 106.943 32.8972C106.618 35.4737 105.546 37.8987 103.859 39.8735C102.172 41.8483 99.945 43.2867 97.4512 44.0116C99.6133 40.6272 102.151 37.4983 105.017 34.6843ZM85.3457 58.5938H89.0626V61.592L85.3322 62.8354L83.6409 60.2989L85.3457 58.5938ZM64.2045 67.7795L78.819 61.5161L80.9521 64.716L69.458 70.4631C67.4038 70.7658 65.4425 71.5211 63.7158 72.6744L61.6454 74.0546L53.3597 60.7969C53.2311 60.5908 53.1447 60.3613 53.1053 60.1216C53.0659 59.8819 53.0744 59.6368 53.1302 59.4004C53.186 59.164 53.288 58.941 53.4305 58.7443C53.5729 58.5475 53.7528 58.3809 53.96 58.254C54.1671 58.1272 54.3973 58.0426 54.6373 58.0051C54.8773 57.9676 55.1223 57.9781 55.3582 58.0358C55.5942 58.0935 55.8164 58.1973 56.012 58.3413C56.2076 58.4853 56.3728 58.6666 56.498 58.8747L61.2716 66.8309C61.5631 67.3169 62.0209 67.6808 62.5601 67.8552C63.0994 68.0296 63.6836 68.0027 64.2045 67.7795ZM63.9678 40.5302C63.7501 40.7479 63.5775 41.0062 63.4597 41.2906C63.342 41.575 63.2813 41.8797 63.2814 42.1875V44.5313H60.9376C60.6298 44.5313 60.325 44.5919 60.0407 44.7097C59.7563 44.8274 59.4979 45.0001 59.2803 45.2177L57.874 46.624L52.6208 45.3103L53.6579 43.2364C53.8211 42.9108 53.9062 42.5517 53.9064 42.1875V37.5H64.1767L65.1171 39.3809L63.9678 40.5302ZM53.9064 29.8828C53.9068 29.4168 54.0922 28.9699 54.4217 28.6404C54.7513 28.3108 55.1981 28.1255 55.6642 28.125H61.5235C61.9896 28.1255 62.4364 28.3108 62.766 28.6404C63.0955 28.9699 63.2809 29.4168 63.2814 29.8828V32.8125H53.9064V29.8828ZM44.5314 61.1874C44.5259 59.1861 44.9174 57.2035 45.6833 55.3544C46.4492 53.5054 47.5742 51.8266 48.9933 50.4153L49.9378 49.4704L55.191 50.7841L54.1539 52.858C54.0763 53.0175 54.0174 53.1854 53.9781 53.3584C52.9046 53.5164 51.8874 53.9391 51.0181 54.5885C50.1489 55.2379 49.4551 56.0936 48.9992 57.0782C48.5434 58.0629 48.3399 59.1455 48.4072 60.2285C48.4744 61.3114 48.8102 62.3606 49.3844 63.2813L56.7086 75H44.5314V61.1874ZM44.5314 83.2032V79.6875H60.9376C61.4004 79.6875 61.8528 79.5505 62.2378 79.2938L66.3162 76.5747C67.8556 75.5463 69.6657 74.9982 71.517 75H71.9532C73.3059 74.9991 74.6428 75.2913 75.8718 75.8564C77.1007 76.4216 78.1927 77.2464 79.0724 78.274L86.3104 86.7188H80.6582L74.3137 80.374C73.9147 79.975 73.3853 79.7334 72.8225 79.6934C72.2597 79.6534 71.7014 79.8178 71.2501 80.1563L62.5 86.7188H48.047C47.1149 86.7178 46.2213 86.3471 45.5622 85.688C44.9031 85.0289 44.5324 84.1352 44.5314 83.2032ZM74.0292 86.7188H70.3126L72.4363 85.1259L74.0292 86.7188ZM21.0939 75C21.0939 74.3784 21.3408 73.7823 21.7803 73.3427C22.2199 72.9032 22.816 72.6563 23.4376 72.6563C24.0592 72.6563 24.6553 72.9032 25.0949 73.3427C25.5344 73.7823 25.7814 74.3784 25.7814 75V77.3438H21.0939V75ZM17.0644 82.0313H29.8108L28.639 86.7188H18.2362L17.0644 82.0313ZM98.2718 91.4063C98.0376 93.0344 97.5574 94.6175 96.8477 96.1014L10.9539 96.1181C10.2473 94.6279 9.77055 93.0393 9.53975 91.4063H98.2718ZM57.243 105.597C53.0649 107.037 49.1184 108.398 41.0157 108.398C32.9131 108.398 28.9659 107.037 24.7879 105.597C22.6569 104.821 20.4825 104.171 18.2758 103.649C16.8103 102.897 15.4653 101.931 14.2856 100.781H93.5113C92.0334 102.232 90.2936 103.389 88.3844 104.191C85.0621 103.258 81.0438 102.539 75.0001 102.539C66.11 102.539 61.6026 104.094 57.243 105.597Z" fill="#0047BA"/>
<path d="M142.969 114.844C134.08 114.844 129.572 116.398 125.212 117.901C122.634 118.79 120.202 119.63 116.825 120.157C116.244 120.25 115.719 120.558 115.354 121.02C114.989 121.483 114.812 122.065 114.858 122.652C114.903 123.239 115.167 123.787 115.598 124.188C116.03 124.589 116.596 124.813 117.185 124.816C117.307 124.815 117.429 124.806 117.55 124.786C121.336 124.194 124.083 123.246 126.74 122.33C130.919 120.892 134.865 119.531 142.969 119.531C143.59 119.531 144.186 119.284 144.626 118.845C145.066 118.405 145.312 117.809 145.312 117.187C145.312 116.566 145.066 115.97 144.626 115.53C144.186 115.091 143.59 114.844 142.969 114.844Z" fill="#1A75CF"/>
<path d="M107.774 125.381H107.812C108.434 125.386 109.032 125.144 109.475 124.708C109.918 124.272 110.17 123.678 110.175 123.056C110.18 122.435 109.938 121.836 109.502 121.393C109.066 120.95 108.472 120.698 107.851 120.693C100.499 120.571 96.7368 119.274 92.7542 117.901C88.3957 116.398 83.8875 114.844 75 114.844C72.5511 114.83 70.1039 114.972 67.6731 115.27C67.3678 115.309 67.0732 115.407 66.8061 115.56C66.5389 115.713 66.3045 115.917 66.1162 116.161C65.9279 116.404 65.7894 116.682 65.7087 116.979C65.6279 117.276 65.6064 117.586 65.6454 117.892C65.6844 118.197 65.7831 118.492 65.936 118.759C66.0889 119.026 66.2929 119.26 66.5364 119.449C66.7798 119.637 67.058 119.775 67.355 119.856C67.652 119.937 67.962 119.958 68.2673 119.919C70.501 119.647 72.7498 119.517 75 119.531C83.1035 119.531 87.0501 120.892 91.2287 122.333C95.3807 123.765 99.6762 125.246 107.774 125.381Z" fill="#1A75CF"/>
<path d="M46.8718 125.118C46.9517 125.118 47.0315 125.114 47.1109 125.105C52.2355 124.586 55.5584 123.441 58.7711 122.333C59.3327 122.139 59.8943 121.945 60.4662 121.755C61.056 121.559 61.5437 121.136 61.822 120.581C62.1003 120.025 62.1464 119.381 61.9502 118.791C61.754 118.202 61.3315 117.714 60.7756 117.436C60.2198 117.157 59.5762 117.111 58.9864 117.307C58.3984 117.503 57.8207 117.702 57.2432 117.901C54.1462 118.969 51.2215 119.977 46.6377 120.442C46.0394 120.502 45.4871 120.79 45.0949 121.246C44.7028 121.701 44.5009 122.291 44.531 122.891C44.5611 123.492 44.8209 124.058 45.2567 124.472C45.6924 124.887 46.2708 125.118 46.8721 125.118H46.8718Z" fill="#1A75CF"/>
<path d="M35.1594 125.118C35.7608 125.118 36.3391 124.887 36.7749 124.472C37.2106 124.058 37.4704 123.492 37.5005 122.891C37.5306 122.291 37.3287 121.701 36.9366 121.245C36.5445 120.79 35.9921 120.502 35.3938 120.442C30.8103 119.978 27.8856 118.969 24.7883 117.902C20.4284 116.398 15.9205 114.844 7.03149 114.844C6.40989 114.844 5.81375 115.091 5.37421 115.53C4.93467 115.97 4.68774 116.566 4.68774 117.188C4.68774 117.809 4.93467 118.405 5.37421 118.845C5.81375 119.284 6.40989 119.531 7.03149 119.531C15.1347 119.531 19.0813 120.892 23.2596 122.333C26.4726 123.441 29.7955 124.587 34.9198 125.105C34.9994 125.114 35.0794 125.118 35.1594 125.118Z" fill="#1A75CF"/>
<path d="M142.969 127.735C139.682 127.702 136.399 127.975 133.162 128.549C132.588 128.656 132.074 128.974 131.721 129.44C131.369 129.906 131.203 130.487 131.257 131.069C131.311 131.651 131.58 132.192 132.012 132.585C132.444 132.979 133.007 133.197 133.591 133.197C133.737 133.197 133.882 133.184 134.026 133.157C136.978 132.636 139.972 132.39 142.969 132.422C143.591 132.422 144.187 132.175 144.626 131.736C145.066 131.296 145.313 130.7 145.313 130.078C145.313 129.457 145.066 128.861 144.626 128.421C144.187 127.982 143.591 127.735 142.969 127.735Z" fill="#1A75CF"/>
<path d="M125.801 130.589L125.211 130.792C121.033 132.233 117.087 133.594 108.984 133.594C100.882 133.594 96.9339 132.232 92.7556 130.792C89.8127 129.777 86.7693 128.728 82.3288 128.161C82.0235 128.121 81.7135 128.143 81.4165 128.224C81.1195 128.305 80.8414 128.443 80.5979 128.631C80.3544 128.82 80.1504 129.054 79.9975 129.321C79.8447 129.588 79.7459 129.883 79.7069 130.188C79.6679 130.494 79.6894 130.804 79.7702 131.101C79.851 131.398 79.9895 131.676 80.1778 131.919C80.3661 132.163 80.6005 132.367 80.8676 132.52C81.1347 132.672 81.4294 132.771 81.7347 132.81C85.6974 133.316 88.3836 134.243 91.2269 135.223C95.5868 136.727 100.094 138.281 108.984 138.281C117.874 138.281 122.381 136.727 126.74 135.223L127.324 135.022C127.912 134.82 128.396 134.393 128.668 133.835C128.941 133.276 128.981 132.632 128.779 132.044C128.577 131.456 128.15 130.972 127.591 130.7C127.033 130.427 126.389 130.387 125.801 130.589Z" fill="#1A75CF"/>
<path d="M70.1328 127.91C64.2977 128.359 60.7115 129.596 57.2422 130.792C53.0647 132.233 49.1181 133.594 41.0158 133.594C33.7745 133.594 29.866 132.495 26.4845 131.37C26.1925 131.273 25.8842 131.234 25.5772 131.256C25.2702 131.278 24.9705 131.36 24.6953 131.498C24.4201 131.636 24.1747 131.827 23.9732 132.059C23.7716 132.292 23.6179 132.562 23.5207 132.854C23.4236 133.146 23.3849 133.454 23.4069 133.761C23.4289 134.068 23.5111 134.368 23.6489 134.643C23.7867 134.918 23.9774 135.164 24.21 135.365C24.4427 135.567 24.7127 135.721 25.0048 135.818C28.586 137.01 33.074 138.281 41.0158 138.281C49.9045 138.281 54.4124 136.727 58.7715 135.224C62.1069 134.073 65.2578 132.987 70.4931 132.584C71.1129 132.536 71.6884 132.245 72.0929 131.773C72.4974 131.301 72.6978 130.687 72.6501 130.067C72.6024 129.448 72.3105 128.872 71.8385 128.468C71.3665 128.063 70.7531 127.863 70.1334 127.91L70.1328 127.91Z" fill="#1A75CF"/>
<path d="M19.3236 129.096C15.6448 128.167 11.7375 127.734 7.03149 127.734C6.40989 127.734 5.81375 127.981 5.37421 128.421C4.93467 128.86 4.68774 129.457 4.68774 130.078C4.68774 130.7 4.93467 131.296 5.37421 131.735C5.81375 132.175 6.40989 132.422 7.03149 132.422C11.3405 132.422 14.8831 132.809 18.1769 133.64C18.4765 133.719 18.7888 133.738 19.0957 133.695C19.4026 133.653 19.698 133.55 19.9648 133.392C20.2317 133.235 20.4646 133.026 20.6503 132.778C20.8359 132.53 20.9705 132.248 21.0463 131.947C21.1221 131.647 21.1376 131.334 21.0918 131.028C21.0461 130.721 20.9401 130.427 20.7799 130.162C20.6197 129.897 20.4085 129.666 20.1585 129.483C19.9085 129.3 19.6248 129.168 19.3236 129.096Z" fill="#1A75CF"/>
<path d="M128.906 67.9687C130.201 67.9687 131.25 66.9194 131.25 65.625C131.25 64.3306 130.201 63.2812 128.906 63.2812C127.612 63.2812 126.562 64.3306 126.562 65.625C126.562 66.9194 127.612 67.9687 128.906 67.9687Z" fill="#78B3E0"/>
<path d="M114.844 79.6875C114.844 79.0659 114.597 78.4698 114.157 78.0302C113.718 77.5907 113.122 77.3438 112.5 77.3438C111.878 77.3438 111.282 77.5907 110.843 78.0302C110.403 78.4698 110.156 79.0659 110.156 79.6875V84.375C110.156 84.9966 110.403 85.5927 110.843 86.0323C111.282 86.4718 111.878 86.7188 112.5 86.7188C113.122 86.7188 113.718 86.4718 114.157 86.0323C114.597 85.5927 114.844 84.9966 114.844 84.375V79.6875Z" fill="#78B3E0"/>
<path d="M114.844 70.3125C114.844 69.6909 114.597 69.0948 114.157 68.6552C113.718 68.2157 113.122 67.9688 112.5 67.9688C111.878 67.9688 111.282 68.2157 110.843 68.6552C110.403 69.0948 110.156 69.6909 110.156 70.3125V72.6562C110.156 73.2779 110.403 73.874 110.843 74.3135C111.282 74.7531 111.878 75 112.5 75C113.122 75 113.718 74.7531 114.157 74.3135C114.597 73.874 114.844 73.2779 114.844 72.6562V70.3125Z" fill="#78B3E0"/>
<path d="M138.281 46.875C138.903 46.875 139.499 46.6281 139.939 46.1885C140.378 45.749 140.625 45.1529 140.625 44.5312V42.1875C140.625 41.5659 140.378 40.9698 139.939 40.5302C139.499 40.0907 138.903 39.8438 138.281 39.8438C137.66 39.8438 137.064 40.0907 136.624 40.5302C136.184 40.9698 135.938 41.5659 135.938 42.1875V44.5312C135.938 45.1529 136.184 45.749 136.624 46.1885C137.064 46.6281 137.66 46.875 138.281 46.875Z" fill="#78B3E0"/>
<path d="M142.969 89.0625C142.347 89.0625 141.751 89.3094 141.311 89.749C140.872 90.1885 140.625 90.7846 140.625 91.4062V96.0938C140.625 96.7154 140.872 97.3115 141.311 97.751C141.751 98.1906 142.347 98.4375 142.969 98.4375C143.59 98.4375 144.186 98.1906 144.626 97.751C145.066 97.3115 145.312 96.7154 145.312 96.0938V91.4062C145.312 90.7846 145.066 90.1885 144.626 89.749C144.186 89.3094 143.59 89.0625 142.969 89.0625Z" fill="#78B3E0"/>
<path d="M112.5 93.75C111.878 93.75 111.282 93.9969 110.843 94.4365C110.403 94.876 110.156 95.4721 110.156 96.0938V100.781C110.156 101.403 110.403 101.999 110.843 102.439C111.282 102.878 111.878 103.125 112.5 103.125C113.122 103.125 113.718 102.878 114.157 102.439C114.597 101.999 114.844 101.403 114.844 100.781V96.0938C114.844 95.4721 114.597 94.876 114.157 94.4365C113.718 93.9969 113.122 93.75 112.5 93.75Z" fill="#78B3E0"/>
<path d="M142.969 79.6875C142.347 79.6875 141.751 79.9344 141.311 80.374C140.872 80.8135 140.625 81.4096 140.625 82.0312V84.375C140.625 84.9966 140.872 85.5927 141.311 86.0323C141.751 86.4718 142.347 86.7188 142.969 86.7188C143.59 86.7188 144.186 86.4718 144.626 86.0323C145.066 85.5927 145.312 84.9966 145.312 84.375V82.0312C145.312 81.4096 145.066 80.8135 144.626 80.374C144.186 79.9344 143.59 79.6875 142.969 79.6875Z" fill="#78B3E0"/>
</svg>
