<svg width="150" height="150" viewBox="0 0 150 150" fill="none" xmlns="http://www.w3.org/2000/svg">
<path d="M75.0685 108.965C87.9592 108.965 100.097 108.141 109.244 106.643C123.294 104.344 125.095 101.318 125.095 98.9385C125.095 96.5593 123.294 93.5346 109.244 91.2344C100.097 89.7375 87.9592 88.9124 75.0685 88.9124C62.1779 88.9124 50.0414 89.7363 40.8942 91.2344C26.8443 93.5346 25.043 96.5593 25.043 98.9385C25.043 101.318 26.8443 104.344 40.8942 106.643C50.0414 108.141 62.1779 108.965 75.0685 108.965ZM43.3627 95.2982C52.0556 94.0141 63.3154 93.3069 75.0685 93.3069C86.8228 93.3069 98.0826 94.0141 106.776 95.2982C116.172 96.6852 119.359 98.2484 120.362 98.9385C119.359 99.6286 116.172 101.192 106.776 102.58C98.0826 103.864 86.8228 104.57 75.0685 104.57C63.3154 104.57 52.0556 103.864 43.3627 102.58C33.9659 101.192 30.7787 99.6286 29.7762 98.9385C30.7787 98.2484 33.9659 96.6852 43.3627 95.2982Z" fill="#1A75CF"/>
<path d="M142.813 98.9385C142.813 93.5586 135.784 89.1824 121.919 85.9311C109.379 82.9912 92.7416 81.3718 75.0685 81.3718C56.0725 81.3718 37.936 83.299 25.3086 86.659C24.1356 86.9714 23.4386 88.1753 23.751 89.3483C24.0623 90.5214 25.2685 91.2183 26.4392 90.9059C38.713 87.6397 56.4387 85.7663 75.0685 85.7663C92.4131 85.7663 108.696 87.3445 120.916 90.2101C134.732 93.4499 138.418 97.2207 138.418 98.9385C138.418 100.656 134.732 104.428 120.916 107.668C108.696 110.534 92.4131 112.112 75.0685 112.112C57.725 112.112 41.4424 110.534 29.2213 107.668C15.406 104.428 11.7187 100.656 11.7187 98.9385C11.7187 97.5526 13.7855 95.7479 17.2451 94.1102C18.3426 93.5918 18.8106 92.2815 18.2922 91.1851C17.7727 90.0876 16.4623 89.6196 15.366 90.138C10.0296 92.6625 7.32422 95.6243 7.32422 98.9385C7.32422 100.402 7.8495 101.791 8.88633 103.104C7.8495 104.419 7.32422 105.815 7.32422 107.27C7.32422 110.148 9.36012 112.761 13.3747 115.043V138.269C13.3747 141.04 15.6292 143.295 18.3998 143.295C21.1715 143.295 23.426 141.04 23.426 138.269V119.027C34.9902 122.391 51.6894 124.466 69.9873 124.791V144.975C69.9873 147.745 72.243 150 75.0136 150H75.1234C77.8952 150 80.1497 147.745 80.1497 144.975V124.789C86.4016 124.677 92.5264 124.361 98.3801 123.844C99.5897 123.738 100.482 122.671 100.376 121.463C100.269 120.253 99.1983 119.364 97.9933 119.467C92.2667 119.973 86.2723 120.283 80.1497 120.394V116.46C95.9116 116.18 110.589 114.602 121.919 111.946C123.62 111.546 125.216 111.131 126.711 110.698V114.437C121.638 116.006 115.173 117.357 107.9 118.357C106.698 118.523 105.858 119.632 106.024 120.833C106.175 121.934 107.116 122.732 108.197 122.732C108.298 122.732 108.398 122.725 108.5 122.71C115.51 121.745 121.617 120.508 126.711 119.025V138.269C126.711 141.041 128.965 143.296 131.737 143.296C134.508 143.296 136.762 141.041 136.762 138.269V115.043C140.778 112.759 142.813 110.148 142.813 107.27C142.813 105.815 142.288 104.419 141.251 103.104C142.289 101.791 142.813 100.402 142.813 98.9385ZM11.7187 107.271C11.7187 106.839 11.9224 106.403 12.2051 106.003C12.5748 106.244 12.9639 106.481 13.3747 106.716V109.757C12.3035 108.868 11.7187 108.011 11.7187 107.271ZM18.4009 138.901C18.053 138.901 17.7692 138.617 17.7692 138.269V108.788C18.1801 108.951 18.5978 109.112 19.0326 109.271V138.269C19.0315 138.617 18.7488 138.901 18.4009 138.901ZM23.426 114.441V110.698C24.9218 111.131 26.5182 111.548 28.2188 111.946C39.5484 114.603 54.2254 116.181 69.9873 116.46V120.396C51.4159 120.061 34.6126 117.912 23.426 114.441ZM75.7552 144.975C75.7552 145.322 75.4713 145.606 75.1234 145.606H75.0136C74.6657 145.606 74.383 145.322 74.383 144.975V116.504C74.8396 116.505 75.2974 116.505 75.7552 116.504V144.975ZM131.737 138.901C131.389 138.901 131.106 138.617 131.106 138.269V109.271C131.539 109.112 131.958 108.951 132.369 108.788V138.269C132.369 138.617 132.085 138.901 131.737 138.901ZM136.763 109.757V106.716C137.174 106.481 137.562 106.244 137.932 106.003C138.213 106.401 138.419 106.838 138.419 107.27C138.418 108.011 137.835 108.868 136.763 109.757Z" fill="#0047BA"/>
<path d="M45.8712 127.288C44.6719 127.11 43.555 127.941 43.3787 129.143L42.9084 132.335C42.7321 133.535 43.5618 134.651 44.7623 134.828C44.871 134.844 44.9786 134.852 45.085 134.852C46.1573 134.852 47.0958 134.066 47.256 132.974L47.7263 129.781C47.9026 128.581 47.0717 127.465 45.8712 127.288Z" fill="#78B3E0"/>
<path d="M55.4342 128.393C54.9878 127.265 53.7095 126.713 52.5823 127.161C51.4539 127.608 50.9023 128.885 51.3498 130.013L52.5388 133.012C52.881 133.875 53.7072 134.4 54.5827 134.4C54.8517 134.4 55.1252 134.35 55.3918 134.245C56.5202 133.798 57.0718 132.521 56.6243 131.393L55.4342 128.393Z" fill="#78B3E0"/>
<path d="M39.4833 125.234C38.5323 124.481 37.151 124.641 36.3968 125.593L34.3941 128.122C33.6411 129.073 33.8013 130.456 34.7523 131.209C35.1563 131.528 35.638 131.683 36.1153 131.683C36.763 131.683 37.405 131.397 37.8387 130.85L39.8426 128.32C40.5956 127.369 40.4354 125.987 39.4833 125.234Z" fill="#78B3E0"/>
<path d="M103.817 129.142C103.64 127.941 102.525 127.109 101.324 127.288C100.123 127.465 99.2923 128.581 99.4697 129.781L99.94 132.974C100.1 134.066 101.039 134.852 102.111 134.852C102.216 134.852 102.325 134.844 102.434 134.828C103.634 134.651 104.464 133.535 104.288 132.335L103.817 129.142Z" fill="#78B3E0"/>
<path d="M94.614 127.161C93.4856 126.713 92.2084 127.265 91.7621 128.393L90.5719 131.393C90.1245 132.521 90.6761 133.798 91.8045 134.245C92.07 134.35 92.3446 134.4 92.6147 134.4C93.4879 134.4 94.3153 133.875 94.6575 133.012L95.8465 130.013C96.294 128.885 95.7424 127.608 94.614 127.161Z" fill="#78B3E0"/>
<path d="M110.799 125.593C110.046 124.641 108.665 124.481 107.713 125.234C106.761 125.987 106.6 127.368 107.353 128.32L109.356 130.85C109.79 131.397 110.432 131.683 111.081 131.683C111.558 131.683 112.039 131.528 112.443 131.209C113.395 130.456 113.555 129.074 112.802 128.122L110.799 125.593Z" fill="#78B3E0"/>
<path d="M26.9121 60.2489H39.9812C42.531 60.2489 44.6047 58.1753 44.6047 55.6255V51.2871C44.6047 51.1749 44.5944 51.0662 44.5783 50.9598C48.0138 48.2487 51.9815 46.4165 56.4356 45.478V65.6906C56.4356 66.9048 57.4197 67.8879 58.6328 67.8879C59.847 67.8879 60.8301 66.9048 60.8301 65.6906V44.8543C61.4858 44.8028 62.1484 44.7628 62.8225 44.7468C64.3205 44.709 65.8403 44.7651 67.3612 44.9047C67.3807 45.0123 67.4001 45.1187 67.4276 45.2251C67.7046 46.2871 68.382 47.166 69.3365 47.7028C74.1705 50.4196 79.1361 52.198 84.0959 52.9888C84.2127 53.0071 84.3294 53.0163 84.4438 53.0163C85.5047 53.0163 86.4397 52.2461 86.6113 51.1646C86.8025 49.9664 85.9853 48.8392 84.7872 48.6492C80.4613 47.9591 76.108 46.4187 71.8405 44.067L79.5023 31.5208C85.9762 34.9266 92.1915 35.2894 97.9822 32.5977C98.916 32.164 99.8316 31.6536 100.722 31.0768C102.697 33.8703 105.948 35.6991 109.622 35.6991C110.685 35.6991 111.723 35.5423 112.71 35.2493L113.788 36.0893C114.237 36.4395 114.52 36.9362 114.592 37.4969C114.541 38.3289 114.208 42.7292 112.682 46.7769C112.548 46.7518 112.409 46.7369 112.267 46.7369C111.054 46.7369 110.069 47.7199 110.069 48.9342V51.6968C107.152 55.8601 102.062 60.1597 93.2043 62.2928C93.2169 62.1292 93.2295 61.9644 93.2295 61.7973C93.2295 61.05 93.0875 60.3371 92.8404 59.6756C100.823 57.7072 106.389 53.6857 109.4 47.7028C109.459 47.5838 109.505 47.4613 109.542 47.3377C110.931 44.622 110.83 42.1833 110.812 41.8983C110.738 40.6875 109.689 39.7537 108.484 39.8292C107.272 39.9036 106.35 40.9347 106.424 42.1467C106.426 42.1627 106.47 43.5566 105.726 45.1347C105.207 45.4071 104.687 45.6703 104.171 45.9106C100.934 47.4155 97.5519 48.394 94.1198 48.8209C92.9147 48.9708 92.0599 50.0683 92.2098 51.2722C92.3597 52.4761 93.4549 53.3321 94.6611 53.1822C96.2736 52.9819 97.8746 52.6741 99.4573 52.2621C96.9762 53.8414 93.9264 55.003 90.3238 55.7377C89.9439 55.8143 89.5765 55.9322 89.2229 56.0821C88.5717 55.8441 87.8713 55.7068 87.1378 55.7068H81.9444C80.3491 55.7068 78.8797 56.5067 78.0145 57.8468C77.1494 59.1869 77.0235 60.8555 77.6792 62.3089L78.953 65.1333C79.7083 66.8064 81.3825 67.8879 83.2182 67.8879H87.1378C88.3165 67.8879 89.414 67.5457 90.3467 66.9643C90.6889 67.0273 91.0356 67.0605 91.3858 67.0605C91.7635 67.0605 92.1446 67.0215 92.5199 66.946C100.664 65.3015 106.245 62.0468 110.069 58.4099V70.8679C110.069 72.0821 111.052 73.0652 112.267 73.0652C113.48 73.0652 114.464 72.0821 114.464 70.8679V53.0197C115.141 51.9314 115.705 50.8613 116.167 49.8405C118.682 44.2947 118.979 37.8139 118.989 37.5404C118.994 37.4557 118.992 37.371 118.986 37.2864C118.861 35.6155 118.093 34.058 116.862 32.9399C117.909 32.0095 118.781 30.8754 119.412 29.5845C120.462 29.3613 121.46 28.8383 122.262 28.0121L124.63 25.5733C125.966 24.1955 126.687 22.3793 126.66 20.459C126.631 18.5375 125.855 16.7431 124.478 15.4064L112.787 4.06073C111.917 3.21501 110.526 3.23676 109.681 4.10651L107.264 6.59674C105.306 8.61434 104.251 11.2728 104.292 14.0835C104.299 14.4794 104.329 14.8697 104.377 15.2565C102.038 16.5474 100.263 18.6588 99.3692 21.1376C96.3422 18.3704 93.8635 15.3137 91.9729 12.0144C92.2521 11.2396 92.3803 10.3985 92.3174 9.52643L91.9454 4.34683C91.831 2.75496 90.9281 1.34734 89.5296 0.579439C88.1311 -0.187315 86.4591 -0.193037 85.0561 0.565707L82.3301 2.03742C80.7153 2.9106 79.7563 4.65697 79.8879 6.48917L80.1683 10.3985C80.2244 11.1835 80.4292 11.9217 80.7508 12.5912C80.5059 13.8626 80.6959 15.1684 81.3093 16.3299C83.946 21.3207 87.5143 25.856 91.9386 29.8546C88.5751 30.3112 85.0538 29.5284 81.2784 27.4868C80.9065 27.2854 80.5151 27.1515 80.1203 27.0759L68.9142 13.7836C67.3578 11.9366 64.8458 11.1538 62.5158 11.7855L41.3854 17.5247C39.7787 17.9607 38.4386 18.9964 37.6112 20.4407C37.301 20.9808 37.0779 21.5542 36.9417 22.1447C33.3025 22.8096 29.923 24.4186 27.1009 26.8494C25.5457 28.1883 25.0021 30.2963 25.7162 32.2201C26.4303 34.145 28.2179 35.3878 30.2698 35.3878H43.3412C45.8898 35.3878 47.9646 33.3141 47.9646 30.7644V28.6541L61.947 24.8569L68.3729 32.4776C66.6895 32.3288 64.8321 32.243 62.8397 32.2784C52.0193 32.4753 42.3433 36.1305 34.8577 42.8493C33.576 44.0006 32.8836 45.5673 32.8001 47.1649C29.4584 47.9088 26.357 49.4572 23.7421 51.7094C22.1868 53.0495 21.6432 55.1575 22.3573 57.0812C23.0715 59.0061 24.859 60.2489 26.9121 60.2489ZM83.2182 63.4933C83.1072 63.4933 83.0053 63.4281 82.9595 63.3262L81.6858 60.5018C81.6698 60.4675 81.6217 60.3611 81.7064 60.2318C81.7899 60.1013 81.9067 60.1013 81.9444 60.1013H87.1378C88.0739 60.1013 88.8338 60.8623 88.8338 61.7973C88.8338 62.7323 88.0739 63.4933 87.1378 63.4933H83.2182ZM110.417 9.65804L111.304 8.7448L121.417 18.5604C121.953 19.0811 122.255 19.778 122.267 20.5242C122.277 21.2715 121.996 21.9776 121.477 22.5132L119.109 24.9519C118.646 25.4303 117.879 25.4417 117.401 24.9782L110.547 18.3258C109.371 17.186 108.711 15.6559 108.687 14.0194C108.663 12.3817 109.278 10.8333 110.417 9.65804ZM105.881 19.4954C106.328 20.2106 106.865 20.8767 107.487 21.4798L114.34 28.1322C114.517 28.3028 114.703 28.455 114.895 28.598C113.694 30.2631 111.744 31.3045 109.622 31.3045C106.038 31.3045 103.122 28.3886 103.122 24.8043C103.122 22.6711 104.187 20.6959 105.881 19.4954ZM84.4187 5.90438L87.1446 4.43267C87.1652 4.42122 87.2133 4.39604 87.2785 4.39604C87.3186 4.39604 87.3655 4.4052 87.417 4.43381C87.552 4.5082 87.5601 4.62378 87.5635 4.66269L87.9354 9.84229C88.0029 10.775 87.298 11.5887 86.3653 11.655C85.9144 11.6859 85.4761 11.5417 85.1339 11.2453C84.7906 10.9489 84.5846 10.5369 84.5525 10.0849L84.271 6.1756C84.263 6.06345 84.3214 5.95816 84.4187 5.90438ZM86.1913 16.0519C86.2074 16.0519 86.2234 16.0541 86.2383 16.0541C86.3847 16.0541 86.5312 16.0484 86.6789 16.0381C87.4754 15.9809 88.2227 15.768 88.899 15.4384C91.4339 19.508 94.7756 23.2113 98.8565 26.4786C98.8817 26.6456 98.9114 26.8116 98.9446 26.9764C98.2557 27.4605 97.5485 27.8908 96.8298 28.2661C92.4421 24.6807 88.8738 20.5814 86.1913 16.0519ZM43.3412 30.9944H30.2709C30.1908 30.9944 29.9482 30.9944 29.8361 30.6923C29.7239 30.3902 29.9082 30.2322 29.9688 30.1807C32.1466 28.305 34.7433 27.0485 37.5414 26.5037C38.0872 27.5154 38.8986 28.3623 39.9217 28.9471C41.0433 29.5902 42.3078 29.858 43.5701 29.7436V30.7655C43.5701 30.8914 43.4671 30.9944 43.3412 30.9944ZM62.1473 20.2484L43.5003 25.3124C43.0277 25.4417 42.531 25.3788 42.1053 25.1339C41.6795 24.8901 41.374 24.4942 41.2458 24.0215C41.1165 23.5477 41.1806 23.0522 41.4243 22.6265C41.6681 22.2008 42.0629 21.8952 42.5367 21.7659L63.6682 16.0278C64.3537 15.8413 65.0953 16.0725 65.5542 16.6172L75.9351 28.9299L73.9164 32.2361L64.4041 20.9534C63.8525 20.2999 62.9724 20.0252 62.1473 20.2484ZM37.7931 46.1201C44.4811 40.1165 53.1694 36.8503 62.9186 36.673C65.9834 36.618 68.7036 36.8721 70.8837 37.2017L68.7895 40.6315C66.7581 40.398 64.7188 40.3042 62.7138 40.3534C62.0764 40.3694 61.4469 40.4026 60.8232 40.4449C60.7523 39.2959 59.8001 38.3861 58.634 38.3861C57.4197 38.3861 56.4367 39.3692 56.4367 40.5834V40.9908C50.2363 42.1284 44.8095 44.7605 40.2479 48.854C39.9103 49.1573 39.4754 49.3244 39.0211 49.3244C38.4924 49.3244 38.006 49.1081 37.6535 48.7156C36.976 47.9614 37.039 46.7964 37.7931 46.1201ZM26.61 55.0407C28.7775 53.1742 31.3673 51.9188 34.1551 51.3695C34.2306 51.4644 34.3015 51.5606 34.3828 51.651C35.5638 52.9659 37.2541 53.7201 39.0199 53.7201H39.0222C39.4239 53.7201 39.821 53.6789 40.2113 53.6033V55.6255C40.2113 55.7525 40.1083 55.8555 39.9824 55.8555H26.9121C26.832 55.8555 26.5894 55.8555 26.4772 55.5534C26.3651 55.2502 26.5493 55.0922 26.61 55.0407Z" fill="#0047BA"/>
<path d="M63.6943 53.1372V58.0513C63.6943 59.2655 64.6785 60.2486 65.8916 60.2486C67.1058 60.2486 68.0889 59.2655 68.0889 58.0513V53.1372C68.0889 51.923 67.1058 50.9399 65.8916 50.9399C64.6785 50.9399 63.6943 51.923 63.6943 53.1372Z" fill="#1A75CF"/>
<path d="M116.122 57.2615V62.5406C116.122 63.7537 117.105 64.7379 118.319 64.7379C119.534 64.7379 120.517 63.7537 120.517 62.5406V57.2615C120.517 56.0473 119.534 55.0642 118.319 55.0642C117.105 55.0642 116.122 56.0473 116.122 57.2615Z" fill="#1A75CF"/>
<path d="M31.1289 64.8616V68.2731C31.1289 69.4873 32.1131 70.4703 33.3262 70.4703C34.5404 70.4703 35.5234 69.4873 35.5234 68.2731V64.8616C35.5234 63.6485 34.5404 62.6643 33.3262 62.6643C32.1131 62.6643 31.1289 63.6485 31.1289 64.8616Z" fill="#1A75CF"/>
<path d="M37.3892 64.8616V73.8051C37.3892 75.0193 38.3722 76.0024 39.5864 76.0024C40.7995 76.0024 41.7837 75.0193 41.7837 73.8051V64.8616C41.7837 63.6485 40.7995 62.6643 39.5864 62.6643C38.3722 62.6643 37.3892 63.6485 37.3892 64.8616Z" fill="#1A75CF"/>
</svg>
