<svg width="150" height="150" viewBox="0 0 150 150" fill="none" xmlns="http://www.w3.org/2000/svg">
<path d="M142.969 91.4062V14.0625C142.969 7.60078 137.712 2.34375 131.25 2.34375H39.8438V7.74141L45.6211 16.4062H70.3125V21.0938H67.9688C64.0922 21.0938 60.9375 24.2484 60.9375 28.125V37.5C60.9375 41.3766 64.0922 44.5312 67.9688 44.5312H105.469C109.345 44.5312 112.5 41.3766 112.5 37.5V28.125C112.5 24.2484 109.345 21.0938 105.469 21.0938H103.125V16.4062H128.906V54.3586C128.149 54.0891 127.364 53.9062 126.562 53.9062C123.879 53.9062 121.47 55.3969 120.272 57.7922L115.186 67.9688H103.39C99.8367 67.9688 96.743 70.4859 96.1898 73.8234C95.85 75.8812 96.4242 77.9672 97.7625 79.5445C99.1031 81.1242 101.058 82.0312 103.125 82.0312V91.4062H82.0312V124.219H147.656V91.4062H142.969ZM124.219 96.0938V100.781H114.844V96.0938H124.219ZM119.531 105.469V110.156H110.156V105.469H119.531ZM124.219 105.469H133.594V110.156H124.219V105.469ZM110.156 100.781H100.781V96.0938H110.156V100.781ZM86.7188 110.156V105.469H91.4062V110.156H86.7188ZM96.0938 105.469H105.469V110.156H96.0938V105.469ZM114.844 114.844V119.531H105.469V114.844H114.844ZM119.531 114.844H128.906V119.531H119.531V114.844ZM138.281 105.469H142.969V110.156H138.281V105.469ZM128.906 100.781V96.0938H142.969V100.781H128.906ZM107.812 28.125V37.5C107.812 38.7914 106.76 39.8438 105.469 39.8438H67.9688C66.6773 39.8438 65.625 38.7914 65.625 37.5V28.125C65.625 26.8336 66.6773 25.7812 67.9688 25.7812H105.469C106.76 25.7812 107.812 26.8336 107.812 28.125ZM98.4375 21.0938H75V16.4062H98.4375V21.0938ZM48.1289 11.7188L45.0047 7.03125H131.25C135.127 7.03125 138.281 10.1859 138.281 14.0625V91.4062H133.594V16.4062C133.594 13.8211 131.491 11.7188 128.906 11.7188H48.1289ZM128.906 91.4062H121.875V81.6164C123.562 81.0234 124.987 79.8094 125.822 78.143L128.906 71.9742V91.4062ZM101.337 76.5141C100.884 75.9797 100.699 75.2953 100.814 74.5898C100.995 73.5047 102.124 72.6562 103.39 72.6562H118.083L124.467 59.8875C125.027 58.7672 126.485 58.2773 127.605 58.8375C128.177 59.1234 128.585 59.5922 128.787 60.1945C128.984 60.7875 128.939 61.425 128.66 61.9852L121.629 76.0477C121.228 76.8469 120.424 77.3438 119.531 77.3438H103.125C102.438 77.3438 101.784 77.0414 101.337 76.5141ZM107.812 82.0312H117.188V91.4062H107.812V82.0312ZM96.0938 96.0938V100.781H86.7188V96.0938H96.0938ZM86.7188 114.844H100.781V119.531H86.7188V114.844ZM133.594 119.531V114.844H142.969V119.531H133.594Z" fill="#0047BA"/>
<path d="M70.3125 30.4688H75V35.1562H70.3125V30.4688Z" fill="#1A75CF"/>
<path d="M79.6875 30.4688H93.75V35.1562H79.6875V30.4688Z" fill="#1A75CF"/>
<path d="M98.4375 30.4688H103.125V35.1562H98.4375V30.4688Z" fill="#1A75CF"/>
<path d="M77.3438 122.59C77.3438 122.032 77.3133 121.474 77.2547 120.916L71.5781 67.9266C70.7203 59.9344 64.0125 53.9062 55.9734 53.9062H49.8914L52.3828 44.1328C54.0563 45.1406 55.5258 46.4953 56.6437 48.1758L60.5438 45.5766C57.1734 40.5187 51.532 37.5 45.457 37.5H34.2328C28.1555 37.5 22.5164 40.5187 19.1438 45.5742L23.0437 48.1734C24.1758 46.4766 25.6641 45.1078 27.3586 44.0977L29.8102 53.9062H23.7141C15.675 53.9062 8.96719 59.9344 8.10938 67.9266L2.43281 120.919C2.37422 121.474 2.34375 122.03 2.34375 122.59C2.34375 129.288 6.57187 135.005 12.4922 137.252L4.6875 147.656H75L67.1953 137.25C73.1156 135.005 77.3438 129.288 77.3438 122.59ZM12.8625 67.9688H66.8227C66.8461 68.1234 66.8977 68.2687 66.9164 68.4258L69.3187 90.8555C62.1375 94.2727 54.2461 96.0938 46.3805 96.0938H33.307C25.4414 96.0938 17.55 94.2727 10.3664 90.8555L12.7688 68.4258C12.7875 68.2687 12.8391 68.1234 12.8625 67.9688ZM31.7766 42.4383C32.5805 42.2883 33.3961 42.1875 34.2305 42.1875H45.4547C46.3102 42.1875 47.1469 42.293 47.9719 42.45L45.0539 53.9062H34.643L31.7766 42.4383ZM23.7141 58.5938H55.9734C59.6789 58.5938 62.9531 60.4383 64.9523 63.2812H14.7352C16.7367 60.4383 20.0086 58.5938 23.7141 58.5938ZM65.625 142.969H14.0625L17.5945 138.258C17.7422 138.263 17.8875 138.281 18.0375 138.281H61.65C61.8 138.281 61.9453 138.263 62.093 138.258L65.625 142.969ZM61.65 133.594H18.0375C11.9672 133.594 7.03125 128.658 7.03125 122.59C7.03125 122.196 7.05234 121.805 7.09219 121.416L9.83672 95.7938C17.243 99.0609 25.2891 100.781 33.307 100.781H46.3805C54.3984 100.781 62.4445 99.0609 69.8484 95.7914L72.593 121.411C72.6352 121.805 72.6562 122.196 72.6562 122.59C72.6562 128.658 67.7203 133.594 61.65 133.594Z" fill="#0047BA"/>
<path d="M60.9375 110.156C57.0609 110.156 53.9062 113.311 53.9062 117.188C53.9062 121.064 57.0609 124.219 60.9375 124.219C64.8141 124.219 67.9688 121.064 67.9688 117.188C67.9688 113.311 64.8141 110.156 60.9375 110.156ZM60.9375 119.531C59.6461 119.531 58.5938 118.481 58.5938 117.188C58.5938 115.894 59.6461 114.844 60.9375 114.844C62.2289 114.844 63.2812 115.894 63.2812 117.188C63.2812 118.481 62.2289 119.531 60.9375 119.531Z" fill="#1A75CF"/>
<path d="M18.75 110.156C14.8734 110.156 11.7188 113.311 11.7188 117.188C11.7188 121.064 14.8734 124.219 18.75 124.219C22.6266 124.219 25.7812 121.064 25.7812 117.188C25.7812 113.311 22.6266 110.156 18.75 110.156ZM18.75 119.531C17.4586 119.531 16.4062 118.481 16.4062 117.188C16.4062 115.894 17.4586 114.844 18.75 114.844C20.0414 114.844 21.0938 115.894 21.0938 117.188C21.0938 118.481 20.0414 119.531 18.75 119.531Z" fill="#1A75CF"/>
<path d="M30.4688 124.219H49.2188V128.906H30.4688V124.219Z" fill="#1A75CF"/>
<path d="M30.4688 114.844H49.2188V119.531H30.4688V114.844Z" fill="#1A75CF"/>
<path d="M30.4688 105.469H49.2188V110.156H30.4688V105.469Z" fill="#1A75CF"/>
<path d="M47.0791 90.3585L56.4493 71.6181L60.64 73.7134L51.2697 92.4538L47.0791 90.3585Z" fill="#1A75CF"/>
<path d="M33.0188 90.3539L42.389 71.6134L46.5797 73.7087L37.2094 92.4492L33.0188 90.3539Z" fill="#1A75CF"/>
<path d="M18.9609 90.3468L28.3312 71.6063L32.5218 73.7016L23.1516 92.4421L18.9609 90.3468Z" fill="#1A75CF"/>
</svg>
