<svg width="150" height="150" viewBox="0 0 150 150" fill="none" xmlns="http://www.w3.org/2000/svg">
<path d="M116.144 110.55C115.759 110.293 115.306 110.156 114.844 110.156H98.4375V91.4061C98.4375 90.7845 98.1906 90.1884 97.751 89.7488C97.3115 89.3093 96.7153 89.0624 96.0938 89.0624H93.75V84.3749H89.0625V89.0624H86.7188C86.0972 89.0624 85.501 89.3093 85.0615 89.7488C84.6219 90.1884 84.375 90.7845 84.375 91.4061V93.3267L75 91.7643V91.4061C75 90.7845 74.7531 90.1883 74.3135 89.7487L72.847 88.2823L76.7145 75.1329L81.0984 76.5591L77.5154 88.3826L82.0015 89.7421L85.9829 76.6038L93.7666 71.8902C94.2423 71.6022 94.6001 71.1544 94.776 70.6268L97.1197 63.5955C97.2178 63.3015 97.2565 62.991 97.2337 62.6819C97.2109 62.3728 97.1271 62.0714 96.987 61.7949C96.8469 61.5184 96.6534 61.2725 96.4177 61.0713C96.1819 60.8702 95.9086 60.7178 95.6135 60.6229L91.4961 59.2993L98.6707 58.5819L98.2043 53.9178L92.6903 54.4692L94.0608 49.9464L100.98 49.3568L100.582 44.6865L95.5241 45.1175L96.9677 40.3539C98.0081 39.5889 98.8788 38.6168 99.5251 37.4987C100.171 36.3807 100.579 35.141 100.723 33.8576C100.867 32.5742 100.743 31.275 100.36 30.0417C99.9776 28.8083 99.3435 27.6676 98.4982 26.6913L107.126 18.0635C107.474 17.7156 107.703 17.2671 107.782 16.7815C107.861 16.2959 107.785 15.7978 107.565 15.3578L105.221 10.6703C105.065 10.3586 104.842 10.0856 104.567 9.87119C104.293 9.65674 103.974 9.50624 103.633 9.43064L82.5397 4.74315C82.0142 4.62663 81.4646 4.6943 80.9831 4.93483L76.2956 7.27858C75.9063 7.47323 75.5789 7.77244 75.35 8.14269C75.1212 8.51294 75 8.9396 75 9.37486V21.1351L53.2354 15.0895C52.3111 14.8295 51.3382 14.7942 50.3976 14.9865C49.4569 15.1788 48.5759 15.5931 47.8279 16.1949C47.0798 16.7967 46.4865 17.5686 46.0972 18.4462C45.708 19.3239 45.5341 20.2818 45.5901 21.2402C44.1275 21.4551 42.7764 22.146 41.746 23.206C40.7156 24.2661 40.0634 25.6362 39.8901 27.1043C39.7168 28.5724 40.0323 30.0568 40.7876 31.3275C41.5429 32.5983 42.6961 33.5848 44.0685 34.1342L51.7182 37.194L53.8057 57.7233L51.5222 60.0068C51.2852 57.0709 49.9526 54.3315 47.789 52.3329C45.6254 50.3342 42.7892 49.2225 39.8438 49.2186H16.4062C13.2993 49.2221 10.3207 50.4579 8.12374 52.6549C5.92681 54.8518 4.69103 57.8304 4.6875 60.9374V133.594C4.69103 136.701 5.92681 139.679 8.12374 141.876C10.3207 144.073 13.2993 145.309 16.4062 145.312H39.8438C42.9507 145.309 45.9293 144.073 48.1263 141.876C50.3232 139.679 51.559 136.701 51.5625 133.594V117.187H53.9062V121.875C53.9063 122.496 54.1532 123.093 54.5927 123.532C55.0323 123.972 55.6284 124.219 56.25 124.219H56.9326C66.4214 124.232 75.7907 126.335 84.375 130.379V133.594C84.375 134.215 84.6219 134.811 85.0615 135.251C85.501 135.69 86.0972 135.937 86.7188 135.937H110.156C110.778 135.937 111.374 135.69 111.814 135.251C112.253 134.811 112.5 134.215 112.5 133.594V128.598L122.919 135.544C123.304 135.8 123.756 135.937 124.219 135.937H145.312V131.25H124.928L111.471 122.278L111.461 122.272L111.456 122.269L111.456 122.269C111.072 122.011 110.619 121.874 110.156 121.875H106.439L99.4084 114.844H114.134L127.606 123.825C127.991 124.082 128.444 124.219 128.906 124.219H145.312V119.531H129.616L116.144 110.55ZM93.75 93.7499V98.4374H89.0625V93.7499H93.75ZM89.0625 103.125H93.75V117.187H89.0625V103.125ZM84.375 105.469H77.3438C77.3068 105.469 77.2708 105.472 77.2343 105.474L78.4504 101.461L73.9643 100.101L71.1767 109.301C69.3394 108.912 67.4888 108.6 65.625 108.363V103.125H67.9688C68.5903 103.125 69.1864 102.878 69.626 102.439L74.3135 97.751C74.6507 97.413 74.8766 96.9801 74.961 96.5102L84.375 98.0792V105.469ZM56.25 86.7186V98.4374H51.5625V87.4575L67.545 64.6252C67.882 64.1439 68.0258 63.5536 67.9482 62.9713L63.6216 30.5215L82.5117 35.7689C82.6531 36.1935 82.825 36.6073 83.0259 37.0072L77.1448 37.5084L77.5427 42.1788L81.6232 41.831L80.2744 46.417L74.801 46.8834L75.199 51.5538L78.8553 51.2422L77.7823 54.8907L73.52 53.5204C72.9324 53.3316 72.294 53.3821 71.7434 53.6611C71.1928 53.9401 70.7745 54.4249 70.5793 55.0105L68.2355 62.0417C68.1382 62.3337 68.0993 62.6421 68.1211 62.9491C68.143 63.2562 68.225 63.556 68.3627 63.8313L72.6378 72.3815L69.0344 84.6329C68.7046 84.4638 68.3394 84.3754 67.9688 84.3749H58.5938C57.9721 84.3749 57.376 84.6218 56.9365 85.0613C56.4969 85.5009 56.25 86.097 56.25 86.7186ZM96.0938 32.8124C96.0938 33.7395 95.8188 34.6457 95.3038 35.4166C94.7887 36.1875 94.0566 36.7883 93.2001 37.1431C92.3435 37.4978 91.401 37.5907 90.4918 37.4098C89.5825 37.2289 88.7472 36.7825 88.0917 36.1269C87.4361 35.4714 86.9897 34.6361 86.8088 33.7268C86.628 32.8176 86.7208 31.8751 87.0756 31.0185C87.4304 30.162 88.0312 29.4299 88.802 28.9149C89.5729 28.3998 90.4791 28.1249 91.4062 28.1249C92.649 28.1263 93.8405 28.6206 94.7192 29.4994C95.598 30.3781 96.0923 31.5696 96.0938 32.8124ZM60.9375 98.4374V89.0624H66.998L70.3125 92.3769V95.1229L66.998 98.4374H60.9375ZM90.6014 68.3271L83.7324 72.4867L76.8042 70.2325L72.9894 62.6031L74.2929 58.6926L91.9237 64.3606L90.6014 68.3271ZM87.6391 54.9743L82.4922 55.489L83.8668 50.8151L89.0329 50.3749L87.6391 54.9743ZM90.4962 45.5459L85.2859 45.99L86.6347 41.4039L87.4975 41.3303C88.723 41.8958 90.0566 42.1882 91.4062 42.1874C91.4427 42.1874 91.4785 42.185 91.5148 42.1846L90.4962 45.5459ZM79.6875 10.8234L82.3351 9.4996L101.528 13.7645L102.617 15.9432L100.011 18.5493L79.6875 14.4847V10.8234ZM79.6875 19.2651L96.0274 22.533L94.5717 23.9886C93.3574 23.5521 92.066 23.3717 90.7786 23.4586C89.4912 23.5455 88.2357 23.8979 87.0912 24.4937L79.6875 22.4372V19.2651ZM50.3298 20.4842C50.4397 20.1539 50.6723 19.8784 50.9797 19.7149C51.287 19.5514 51.6455 19.5124 51.9808 19.6059L83.2039 28.2788C82.7606 29.0774 82.4372 29.937 82.2442 30.8298L51.2531 22.221C51.0759 22.1717 50.9105 22.0868 50.7671 21.9716C50.6237 21.8563 50.5052 21.7131 50.4189 21.5507C50.3325 21.3882 50.2801 21.2099 50.2648 21.0266C50.2495 20.8433 50.2716 20.6587 50.3298 20.4842H50.3298ZM58.5817 58.3564L56.238 35.3077C56.1947 34.8819 56.0356 34.4761 55.778 34.1343C55.5204 33.7925 55.1741 33.5278 54.7767 33.3688L45.8096 29.782C45.3268 29.5888 44.9363 29.2181 44.7184 28.7459C44.5006 28.2738 44.4719 27.7361 44.6382 27.2434C44.8046 26.7508 45.1534 26.3406 45.6129 26.0972C46.0724 25.8537 46.6077 25.7956 47.1087 25.9347L58.7108 29.1574L63.1811 62.6855L51.5625 79.2834V66.5958L57.9072 60.251C58.1532 60.0051 58.3413 59.7074 58.458 59.3797C58.5746 59.052 58.6169 58.7025 58.5817 58.3564ZM30.4688 53.9061V140.625H25.7812V53.9061H30.4688ZM9.54551 135.127L15.3581 138.034L17.4544 133.841L9.375 129.801V125.667L15.3581 128.659L17.4544 124.466L9.375 120.426V116.292L15.3581 119.284L17.4544 115.091L9.375 111.051V106.917L15.3581 109.909L17.4544 105.716L9.375 101.676V97.5422L15.3581 100.534L17.4544 96.3411L9.375 92.3013V88.1672L15.3581 91.1586L17.4544 86.9661L9.375 82.9263V78.7922L15.3581 81.7836L17.4544 77.5911L9.375 73.5514V69.4171L15.3581 72.4086L17.4544 68.2161L9.375 64.1764V60.9374C9.37564 60.6473 9.39416 60.3575 9.43045 60.0698L15.3581 63.0336L17.4544 58.8411L11.53 55.8789C12.8375 54.6128 14.5863 53.9053 16.4062 53.9061H21.0938V140.625H16.4062C14.8087 140.623 13.2593 140.077 12.0126 139.078C10.7659 138.079 9.89592 136.686 9.54551 135.127ZM39.8438 140.625H35.1562V53.9061H39.8438C41.6637 53.9053 43.4125 54.6128 44.72 55.8789L38.7956 58.8411L40.8919 63.0336L46.8195 60.0698C46.8558 60.3575 46.8744 60.6473 46.875 60.9374V64.1764L38.7956 68.2161L40.8919 72.4086L46.875 69.4171V73.5514L38.7956 77.5911L40.8919 81.7836L46.875 78.7922V82.9263L38.7956 86.9661L40.8919 91.1586L46.875 88.1672V92.3013L38.7956 96.3411L40.8919 100.534L46.875 97.5422V101.676L38.7956 105.716L40.8919 109.909L46.875 106.917V111.051L38.7956 115.091L40.8919 119.284L46.875 116.292V120.426L38.7956 124.466L40.8919 128.659L46.875 125.667V129.801L38.7956 133.841L40.8919 138.034L46.7045 135.127C46.3541 136.686 45.4841 138.079 44.2374 139.078C42.9907 140.077 41.4413 140.623 39.8438 140.625ZM56.25 107.812C55.6284 107.812 55.0323 108.059 54.5927 108.499C54.1532 108.938 53.9063 109.535 53.9062 110.156V112.5H51.5625V103.125H60.9375V107.931C59.606 107.853 58.2711 107.814 56.9326 107.812H56.25ZM58.5938 119.551V112.521C64.72 112.678 70.7923 113.712 76.6251 115.592C76.9766 115.705 77.35 115.734 77.7147 115.675C78.0794 115.617 78.4251 115.473 78.7237 115.255C79.0223 115.038 79.2652 114.753 79.4327 114.424C79.6002 114.095 79.6875 113.73 79.6875 113.361V110.156H84.375V125.23C76.2236 121.706 67.4716 119.778 58.5938 119.551ZM105.469 126.562H107.812V131.25H89.0625V121.875H96.0938C96.571 121.875 97.0367 121.729 97.4287 121.456C97.8206 121.184 98.1201 120.799 98.2869 120.352L103.812 125.876C104.251 126.315 104.847 126.562 105.469 126.562Z" fill="#0047BA"/>
</svg>
