<svg width="151" height="150" viewBox="0 0 151 150" fill="none" xmlns="http://www.w3.org/2000/svg">
<path d="M136 35V31H56C53.792 31.0029 52.0029 32.792 52 35H44V29C44 21.2676 37.7324 15 30 15C22.2676 15 16 21.2676 16 29V65C16 72.7324 22.2676 79 30 79C37.7324 79 44 72.7324 44 65V39H52C52.0029 41.208 53.792 42.9971 56 43H136V39H66V35H136ZM20 29C20 23.4775 24.4775 19 30 19C35.5225 19 40 23.4775 40 29V39H20V29ZM40 65C40 70.5225 35.5225 75 30 75C24.4775 75 20 70.5225 20 65V43H40V65ZM62 39H56V35H62V39Z" fill="#1A75CF"/>
<path d="M24 63H28V67H24V63Z" fill="#78B3E0"/>
<path d="M32 63H36V67H32V63Z" fill="#78B3E0"/>
<path d="M24 55H28V59H24V55Z" fill="#78B3E0"/>
<path d="M32 55H36V59H32V55Z" fill="#78B3E0"/>
<path d="M24 47H28V51H24V47Z" fill="#78B3E0"/>
<path d="M32 47H36V51H32V47Z" fill="#78B3E0"/>
<path d="M124 53V129C123.999 130.104 123.104 130.999 122 131H102C100.896 130.999 100.001 130.104 100 129V123C103.312 122.996 105.996 120.312 106 117V109H108C111.312 108.996 113.996 106.312 114 103V87C116.208 86.9971 117.997 85.208 118 83V81C118 62.2227 102.777 47 84 47C65.2227 47 50 62.2227 50 81V83C50.0029 85.208 51.792 86.9971 54 87V103C54.0039 106.312 56.6875 108.996 60 109H62V117C62.0039 120.312 64.6875 122.996 68 123H72C75.3125 122.996 77.9961 120.312 78 117V97C77.9961 93.6875 75.3125 91.0039 72 91H68C64.6875 91.0039 62.0039 93.6875 62 97V105H60C58.8955 104.999 58.001 104.104 58 103V87H60C63.3125 86.9961 65.9961 84.3125 66 81C66 71.0586 74.0586 63 84 63C93.9414 63 102 71.0586 102 81C102.004 84.3125 104.688 86.9961 108 87H110V103C109.999 104.104 109.104 104.999 108 105H106V97C105.996 93.6875 103.312 91.0039 100 91H96C92.6875 91.0039 90.0039 93.6875 90 97V117C90.0039 120.312 92.6875 122.996 96 123V129C96.0039 132.312 98.6875 134.996 102 135H122C125.312 134.996 127.996 132.312 128 129V53C128.001 51.8955 128.896 51.001 130 51H136V47H130C126.688 47.0039 124.004 49.6875 124 53ZM66 97C66.001 95.8955 66.8955 95.001 68 95H72C73.1045 95.001 73.999 95.8955 74 97V117C73.999 118.104 73.1045 118.999 72 119H68C66.8955 118.999 66.001 118.104 66 117V97ZM106 81C106 68.8496 96.1504 59 84 59C71.8496 59 62 68.8496 62 81C61.999 82.1045 61.1045 82.999 60 83H54V81C54 64.4316 67.4316 51 84 51C100.568 51 114 64.4316 114 81V83H108C106.896 82.999 106.001 82.1045 106 81ZM94 117V97C94.001 95.8955 94.8955 95.001 96 95H100C101.104 95.001 101.999 95.8955 102 97V117C101.999 118.104 101.104 118.999 100 119H96C94.8955 118.999 94.001 118.104 94 117Z" fill="#0047BA"/>
</svg>
