<svg width="150" height="150" viewBox="0 0 150 150" fill="none" xmlns="http://www.w3.org/2000/svg">
<path d="M75 0C47.8617 0 25.7812 22.0805 25.7812 49.2188V58.5961C25.7812 60.5414 25.9266 62.4516 26.1445 64.3359C25.9078 66.3117 25.7812 68.318 25.7812 70.3102V79.6875C25.7812 81.6328 25.9266 83.543 26.1445 85.4297C25.9078 87.4031 25.7812 89.4117 25.7812 91.4039V100.781C25.7812 127.92 47.8617 150 75 150C102.138 150 124.219 127.92 124.219 100.781V91.4039C124.219 89.407 124.092 87.4008 123.853 85.4344C124.073 83.5453 124.219 81.6352 124.219 79.6875V70.3102C124.219 68.3133 124.092 66.3094 123.853 64.343C124.073 62.4539 124.219 60.5437 124.219 58.5961V49.2188C124.219 22.0805 102.138 0 75 0V0ZM75 145.312C57.1453 145.312 41.7516 134.723 34.6594 119.517C43.5633 132.258 58.3148 140.623 75 140.623C91.6852 140.623 106.437 132.258 115.341 119.517C108.248 134.723 92.8547 145.312 75 145.312ZM75 135.935C54.8742 135.935 37.8445 122.508 32.3484 104.147C40.8539 118.915 56.768 128.906 75 128.906C93.232 128.906 109.146 118.915 117.652 104.147C112.155 122.508 95.1258 135.935 75 135.935ZM75 107.815C93.232 107.815 109.144 97.8234 117.649 83.0555C112.153 101.416 95.1234 114.841 75 114.841C54.8766 114.841 37.8469 101.414 32.3508 83.0531C40.8563 97.8234 56.768 107.815 75 107.815ZM34.6594 77.332C43.5633 90.0727 58.3148 98.4375 75 98.4375C91.6852 98.4375 106.437 90.0727 115.341 77.332C108.248 92.5383 92.8547 103.127 75 103.127C57.1453 103.127 41.7516 92.5383 34.6594 77.332ZM115.341 98.4234C108.248 113.63 92.8547 124.219 75 124.219C57.1453 124.219 41.7516 113.63 34.6594 98.4234C43.5633 111.164 58.3148 119.529 75 119.529C91.6852 119.529 106.437 111.164 115.341 98.4234ZM75 93.75C50.4445 93.75 30.4688 73.7742 30.4688 49.2188C30.4688 24.6633 50.4445 4.6875 75 4.6875C99.5555 4.6875 119.531 24.6633 119.531 49.2188C119.531 73.7742 99.5555 93.75 75 93.75Z" fill="#0047BA"/>
<path d="M77.3438 16.4062C77.3438 15.1102 76.2961 14.0625 75 14.0625C55.6148 14.0625 39.8438 29.8336 39.8438 49.2188C39.8438 50.5148 40.8914 51.5625 42.1875 51.5625C43.4836 51.5625 44.5312 50.5148 44.5312 49.2188C44.5312 32.4187 58.2 18.75 75 18.75C76.2961 18.75 77.3438 17.7023 77.3438 16.4062Z" fill="#78B3E0"/>
<path d="M105.469 49.2188C105.469 66.0188 91.8 79.6875 75 79.6875C73.7039 79.6875 72.6562 80.7352 72.6562 82.0312C72.6562 83.3273 73.7039 84.375 75 84.375C94.3852 84.375 110.156 68.6039 110.156 49.2188C110.156 47.9227 109.109 46.875 107.812 46.875C106.516 46.875 105.469 47.9227 105.469 49.2188Z" fill="#78B3E0"/>
<path d="M87.1055 66.4664C87.1242 66.4523 87.1406 66.4359 87.1594 66.4242C89.1961 64.9805 90.9727 63.1922 92.3883 61.132C92.4211 61.0852 92.4586 61.0453 92.4867 60.9961C93.8508 58.9805 94.8516 56.707 95.4516 54.2789C95.4563 54.2555 95.468 54.2344 95.4703 54.2133C95.8617 52.6102 96.0938 50.9414 96.0938 49.2188C96.0938 37.5867 86.632 28.125 75 28.125C63.368 28.125 53.9062 37.5867 53.9062 49.2188C53.9062 50.9391 54.1359 52.6008 54.5273 54.2039C54.5367 54.2766 54.5672 54.3445 54.5813 54.4172C55.1508 56.6555 56.0695 58.7531 57.2906 60.6398C57.4289 61.0172 57.6516 61.357 57.9797 61.6289C61.8211 66.8812 68.0109 70.3125 75 70.3125C79.5047 70.3125 83.6742 68.8828 87.1055 66.4664ZM75 32.8125C82.4227 32.8125 88.7039 37.7742 90.7195 44.5523C86.8148 40.1883 81.1617 37.5094 75 37.5094C68.8383 37.5094 63.1852 40.1859 59.2805 44.5477C61.2984 37.7719 67.5773 32.8125 75 32.8125ZM59.2992 53.9625C61.35 47.0156 67.7086 42.1945 75 42.1945C82.2867 42.1945 88.6477 47.0156 90.7008 53.9578C90.5273 54.5367 90.3234 55.1016 90.0867 55.6523C86.1445 51.6023 80.7398 49.2398 74.9977 49.2398C69.2508 49.2398 63.8484 51.6047 59.9086 55.6523C59.6766 55.1063 59.475 54.5414 59.2992 53.9625ZM62.4609 59.7773C65.5664 56.093 70.1297 53.9273 75 53.9273C79.8609 53.9273 84.4266 56.0953 87.5344 59.782C86.9789 60.4406 86.3648 61.0523 85.7133 61.6172C82.4672 59.6906 78.8203 58.6242 75.0023 58.6242C71.1844 58.6242 67.5352 59.693 64.2937 61.6195C63.6328 61.0523 63.0211 60.4383 62.4609 59.7773ZM80.9344 64.4977C79.0898 65.2148 77.0953 65.625 75 65.625C72.9047 65.625 70.9078 65.2148 69.0633 64.4977C72.8648 63.0492 77.1352 63.0516 80.9344 64.4977Z" fill="#1A75CF"/>
</svg>
