<svg width="151" height="150" viewBox="0 0 151 150" fill="none" xmlns="http://www.w3.org/2000/svg">
<path d="M114.49 43.596C113.533 44.4667 113.462 45.9492 114.333 46.9068L114.334 46.908C114.796 47.4166 115.431 47.6749 116.068 47.6749C116.63 47.6749 117.195 47.4733 117.644 47.065C118.602 46.1943 118.672 44.7114 117.801 43.7535C116.93 42.7961 115.448 42.7253 114.49 43.596Z" fill="#1A75CF"/>
<path d="M131.5 17.4324C129.286 15.219 126.344 14 123.213 14C120.083 14 117.14 15.219 114.926 17.4324C113.6 18.759 112.626 20.3771 112.061 22.1318C111.3 21.8562 110.489 21.7175 109.631 21.7175H100.457C98.4169 21.7175 96.5668 22.5326 94.9592 24.1402L88.9472 30.1519C87.0522 32.047 86.8453 34.909 88.3092 37.0701C84.954 36.7472 81.7479 38.8865 80.8469 42.2484C79.8435 45.9932 82.0739 49.8562 85.8189 50.8598L86.9854 51.1722L80.237 57.9203L68.7548 69.4023L62.0064 76.1504L50.5241 87.6326L43.7759 94.3807L32.2932 105.862L27.5542 110.601C27.2542 110.578 26.952 110.563 26.6462 110.563C20.1842 110.563 14.9269 115.82 14.9269 122.281C14.9269 128.743 20.1842 134 26.6462 134C33.1082 134 38.3656 128.743 38.3656 122.281C38.3656 121.975 38.3502 121.673 38.327 121.373L49.2854 110.415L60.7676 98.9329L67.5161 92.1848L78.9983 80.7029L85.7467 73.9548L97.229 62.473L103.977 55.7249L107.854 56.7637L110.998 59.9078C112.023 60.9329 113.361 61.5264 114.767 61.5789C114.835 61.5815 114.903 61.5829 114.971 61.5829C116.397 61.5829 117.743 61.019 118.779 59.9826L124.791 53.9711C126.399 52.3635 127.214 50.5136 127.214 48.4731V39.3002C127.214 38.4419 127.075 37.6305 126.799 36.8693C128.554 36.3042 130.173 35.3316 131.5 34.005C136.069 29.4359 136.069 22.0015 131.5 17.4324ZM85.375 43.4618C85.7097 42.2132 86.9983 41.4703 88.2457 41.8045L94.5952 43.5058L101.225 50.1351L87.0321 46.3324C85.784 45.9977 85.0405 44.7098 85.375 43.4618ZM26.6462 129.312C22.769 129.312 19.6146 126.158 19.6146 122.281C19.6146 118.404 22.769 115.25 26.6462 115.25C30.5236 115.25 33.6779 118.404 33.6779 122.281C33.6779 126.158 30.5236 129.312 26.6462 129.312ZM36.7378 116.333C35.7286 114.627 34.3002 113.199 32.5946 112.19L92.2141 52.5735L98.7494 54.3245L36.7378 116.333ZM122.527 48.4731C122.527 48.9597 122.418 49.7156 121.477 50.6566L115.465 56.6683C115.303 56.8302 115.135 56.9043 114.943 56.8949C114.726 56.8867 114.497 56.777 114.314 56.5935L92.3367 34.6179C92.2739 34.5551 91.7385 33.9898 92.2619 33.4664L95.0384 30.69L102.879 38.5301C103.337 38.9878 103.937 39.2165 104.536 39.2165C105.136 39.2165 105.736 38.9878 106.194 38.5301C107.109 37.6146 107.109 36.1308 106.194 35.2153L98.355 27.3771C99.2583 26.5095 99.9849 26.4047 100.457 26.4047H109.631C110.339 26.4047 110.873 26.6367 111.417 27.1807L121.751 37.5138C122.295 38.0578 122.527 38.5922 122.527 39.3V48.4731ZM128.185 30.6905C126.96 31.916 125.321 32.6416 123.604 32.7382L116.193 25.328C116.29 23.6114 117.016 21.9722 118.241 20.7469C119.569 19.419 121.335 18.6875 123.213 18.6875C125.091 18.6875 126.857 19.419 128.185 20.7469C130.927 23.4884 130.927 27.949 128.185 30.6905Z" fill="#0047BA"/>
<rect x="47.4972" y="74.7303" width="37.4938" height="9.36423" rx="4.68211" transform="rotate(15.1776 47.4972 74.7303)" stroke="#1A75CF" stroke-width="4.6"/>
<rect x="65.7585" y="56.4512" width="37.4713" height="9.41445" rx="4.70722" transform="rotate(15.1776 65.7585 56.4512)" stroke="#1A75CF" stroke-width="4.6"/>
<path d="M96 41.5L89.0592 39.4756C86.3492 38.6852 83.5487 40.4052 83.0282 43.1796V43.1796C82.57 45.6214 84.0605 48.0067 86.4561 48.6652L109.5 55" stroke="#1A75CF" stroke-width="4.6"/>
<rect x="29.2736" y="92.9409" width="37.6061" height="9.36423" rx="4.68211" transform="rotate(15.1776 29.2736 92.9409)" stroke="#1A75CF" stroke-width="4.6"/>
<path d="M32.4533 121.704C31.5825 120.746 30.101 120.676 29.1428 121.547C28.1851 122.418 28.115 123.901 28.9858 124.858C29.4484 125.367 30.0834 125.626 30.7207 125.626C31.2832 125.626 31.8476 125.424 32.2967 125.016C33.2546 124.145 33.3252 122.663 32.4544 121.705L32.4533 121.704Z" fill="#1A75CF"/>
<path d="M129.02 25.1416C128.15 24.1837 126.668 24.1139 125.71 24.9846C124.752 25.8553 124.682 27.3382 125.553 28.2958C126.016 28.8047 126.651 29.063 127.288 29.063C127.85 29.063 128.415 28.8616 128.864 28.4533C129.822 27.5826 129.892 26.1002 129.022 25.1426L129.02 25.1416Z" fill="#1A75CF"/>
<path d="M90 35.5L112.5 58" stroke="#0047BA" stroke-width="4.5"/>
</svg>
