<svg width="151" height="150" viewBox="0 0 151 150" fill="none" xmlns="http://www.w3.org/2000/svg">
<path d="M34.2453 2.53841C18.3641 4.18841 5.29297 16.8822 3.16484 32.7236C2.68437 36.3212 2.74531 39.9259 3.35234 43.4392C6.125 59.5009 7.53125 75.5111 7.53125 91.0244V114.844C7.53125 132.938 22.25 147.656 40.3438 147.656C58.4375 147.656 73.1562 132.938 73.1562 114.844V37.5001C73.1562 27.5603 68.9188 18.04 61.5313 11.379C54.0453 4.62903 44.3586 1.50247 34.2453 2.53841ZM68.4688 114.844C68.4688 130.352 55.8523 142.969 40.3438 142.969C24.8352 142.969 12.2188 130.352 12.2188 114.844V91.0244C12.2188 75.2439 10.7914 58.9642 7.97187 42.6423C7.44687 39.5978 7.39297 36.4712 7.8125 33.3447C9.65469 19.6267 20.975 8.63216 34.7305 7.20247C43.5055 6.27903 51.9031 9.01185 58.393 14.8618C64.7961 20.6345 68.4688 28.8845 68.4688 37.5001V114.844Z" fill="#0047BA"/>
<path d="M147.835 32.7236C145.707 16.8821 132.636 4.1884 116.755 2.5384C106.653 1.48137 96.957 4.62903 89.4688 11.379C82.0812 18.04 77.8438 27.5603 77.8438 37.5001V114.844C77.8438 132.938 92.5625 147.656 110.656 147.656C128.75 147.656 143.469 132.938 143.469 114.844V91.0243C143.469 75.5111 144.875 59.5009 147.648 43.4392C148.255 39.9259 148.316 36.3212 147.835 32.7236ZM143.028 42.6423C140.209 58.9642 138.781 75.2439 138.781 91.0243V114.844C138.781 130.352 126.165 142.969 110.656 142.969C95.1477 142.969 82.5313 130.352 82.5313 114.844V37.5001C82.5313 28.8845 86.2039 20.6345 92.607 14.8618C98.2766 9.75246 105.406 7.02903 112.963 7.02903C114.057 7.02903 115.161 7.08528 116.27 7.20246C130.025 8.62981 141.345 19.6267 143.19 33.3446C143.609 36.4736 143.553 39.6001 143.028 42.6423Z" fill="#0047BA"/>
<path d="M54.2026 130.746L57.287 134.276C58.5808 133.148 59.7644 131.885 60.805 130.526L57.0878 127.673C56.2347 128.784 55.2644 129.82 54.2026 130.746Z" fill="#78B3E0"/>
<path d="M59.3066 124.095L63.5184 126.15C64.273 124.608 64.873 122.981 65.3043 121.322L60.7668 120.145C60.4129 121.502 59.923 122.831 59.3066 124.095Z" fill="#78B3E0"/>
<path d="M61.4372 114.844C61.4372 115.226 61.4278 115.608 61.4067 115.983L66.0849 116.238C66.1106 115.777 66.1247 115.313 66.1247 114.844V111.424H61.4372V114.844Z" fill="#78B3E0"/>
<path d="M28.3745 137.681C29.8956 138.483 31.5034 139.13 33.1534 139.608L34.4589 135.103C33.1136 134.714 31.7987 134.184 30.5589 133.533L28.3745 137.681Z" fill="#78B3E0"/>
<path d="M61.4375 102.049H66.125V106.737H61.4375V102.049Z" fill="#78B3E0"/>
<path d="M38.5997 135.865L38.2153 140.538C38.9185 140.595 39.6263 140.625 40.3435 140.625C41.3466 140.625 42.3591 140.566 43.3575 140.449L42.8138 135.795C41.4052 135.959 39.9778 135.982 38.5997 135.865Z" fill="#78B3E0"/>
<path d="M46.9226 134.892L48.3875 139.345C50.014 138.809 51.596 138.108 53.0937 137.255L50.7734 133.181C49.5476 133.88 48.2515 134.454 46.9226 134.892Z" fill="#78B3E0"/>
<path d="M61.4375 83.2993H66.125V87.9868H61.4375V83.2993Z" fill="#78B3E0"/>
<path d="M61.4375 55.1743H66.125V59.8618H61.4375V55.1743Z" fill="#78B3E0"/>
<path d="M61.4375 45.7993H66.125V50.4868H61.4375V45.7993Z" fill="#78B3E0"/>
<path d="M60.8585 32.3041L65.4312 31.2705C65.0585 29.6181 64.5242 27.9822 63.8515 26.4119L59.5437 28.2611C60.1062 29.5666 60.5468 30.9283 60.8585 32.3041Z" fill="#78B3E0"/>
<path d="M61.4375 64.5493H66.125V69.2368H61.4375V64.5493Z" fill="#78B3E0"/>
<path d="M24.0524 128.243L20.436 131.222C21.5235 132.542 22.7493 133.763 24.0806 134.848L27.0431 131.213C25.9485 130.324 24.9454 129.326 24.0524 128.243Z" fill="#78B3E0"/>
<path d="M61.4375 92.6743H66.125V97.3618H61.4375V92.6743Z" fill="#78B3E0"/>
<path d="M61.4375 73.9243H66.125V78.6118H61.4375V73.9243Z" fill="#78B3E0"/>
<path d="M35.2813 14.2148L35.4899 14.1914L35.0235 9.52734L34.7188 9.5625C33.0266 9.75469 31.3438 10.1062 29.7102 10.6125L31.0977 15.0891C32.45 14.6719 33.8469 14.3789 35.2813 14.2148Z" fill="#78B3E0"/>
<path d="M15.7763 46.4017L11.1521 47.1705C11.4052 48.6939 11.6396 50.222 11.8576 51.7478L16.4982 51.0892C16.2755 49.526 16.0341 47.9627 15.7763 46.4017Z" fill="#78B3E0"/>
<path d="M20.4732 21.9354L16.9764 18.8135C15.8467 20.0814 14.8225 21.4596 13.9365 22.9103L17.9373 25.3549C18.6779 24.1432 19.5311 22.9947 20.4732 21.9354Z" fill="#78B3E0"/>
<path d="M14.5625 37.5071H9.875C9.875 39.2227 10.0297 40.936 10.3391 42.5977L14.9492 41.7422C14.6937 40.3618 14.5625 38.9368 14.5625 37.5071Z" fill="#78B3E0"/>
<path d="M27.1647 16.7134L24.9851 12.5626C23.4874 13.3478 22.0437 14.2806 20.7007 15.3282L23.5835 19.022C24.7085 18.1454 25.9132 17.3697 27.1647 16.7134Z" fill="#78B3E0"/>
<path d="M16.0671 29.1657L11.6867 27.4993C11.0773 29.1024 10.6203 30.7641 10.325 32.4329L14.9398 33.2485C15.1835 31.868 15.5632 30.4946 16.0671 29.1657Z" fill="#78B3E0"/>
<path d="M54.3524 14.611C52.9673 13.6196 51.486 12.7501 49.9485 12.0259L47.9517 16.2704C49.2337 16.8728 50.4665 17.5946 51.622 18.4243L54.3524 14.611Z" fill="#78B3E0"/>
<path d="M45.146 10.2938C43.503 9.86018 41.8085 9.57893 40.1093 9.45471L39.7671 14.1281C41.1804 14.2336 42.589 14.468 43.9577 14.8266L45.146 10.2938Z" fill="#78B3E0"/>
<path d="M20.1171 120.849L15.6218 122.18C16.1117 123.825 16.7679 125.431 17.5789 126.947L21.7132 124.742C21.0546 123.504 20.5156 122.194 20.1171 120.849Z" fill="#78B3E0"/>
<path d="M54.8469 21.2063C55.8336 22.2282 56.7336 23.3415 57.5188 24.5204L61.4188 21.9211C60.479 20.5079 59.4008 19.1719 58.2172 17.9485L54.8469 21.2063Z" fill="#78B3E0"/>
<path d="M14.5625 98.1729H19.25V97.4393C19.2523 96.1174 19.2477 94.7932 19.2383 93.4713L14.5508 93.5041C14.5602 94.8096 14.5648 96.1197 14.5625 97.4322V98.1729Z" fill="#78B3E0"/>
<path d="M14.5625 102.86H19.25V107.548H14.5625V102.86Z" fill="#78B3E0"/>
<path d="M19.25 114.844V112.235H14.5625V114.844C14.5625 115.61 14.5953 116.367 14.6609 117.122L19.3297 116.714C19.2781 116.098 19.25 115.474 19.25 114.844Z" fill="#78B3E0"/>
<path d="M19.0881 84.0493L14.4006 84.1735C14.4428 85.7251 14.4733 87.279 14.4967 88.8306L19.1842 88.7626C19.1608 87.1923 19.128 85.6196 19.0881 84.0493Z" fill="#78B3E0"/>
<path d="M17.1222 55.7837L12.4675 56.3462C12.655 57.8813 12.8261 59.4212 12.9832 60.961L17.6472 60.4899C17.4855 58.9173 17.3097 57.3517 17.1222 55.7837Z" fill="#78B3E0"/>
<path d="M18.0804 65.1914L13.4116 65.5852C13.5405 67.1273 13.6554 68.6719 13.7562 70.2187L18.4343 69.907C18.3288 68.3344 18.214 66.7617 18.0804 65.1914Z" fill="#78B3E0"/>
<path d="M18.718 74.6205L14.0352 74.8666C14.1172 76.4135 14.1875 77.9627 14.2461 79.5119L18.9289 79.3385C18.8727 77.7682 18.8023 76.1955 18.718 74.6205Z" fill="#78B3E0"/>
<path d="M61.4376 37.5001V41.1118H66.1251V37.5001C66.1251 37.1063 66.1181 36.7149 66.0993 36.3188L61.4165 36.5298C61.4306 36.8532 61.4376 37.1743 61.4376 37.5001Z" fill="#78B3E0"/>
<path d="M40.3438 121.875C40.3438 125.752 43.4984 128.906 47.375 128.906C51.2516 128.906 54.4062 125.752 54.4062 121.875C54.4062 117.998 51.2516 114.844 47.375 114.844C43.4984 114.844 40.3438 117.998 40.3438 121.875ZM49.7188 121.875C49.7188 123.169 48.6687 124.219 47.375 124.219C46.0813 124.219 45.0312 123.169 45.0312 121.875C45.0312 120.581 46.0813 119.531 47.375 119.531C48.6687 119.531 49.7188 120.581 49.7188 121.875Z" fill="#1A75CF"/>
<path d="M30.9688 89.0625C27.0922 89.0625 23.9375 92.2172 23.9375 96.0938C23.9375 99.9703 27.0922 103.125 30.9688 103.125C34.8453 103.125 38 99.9703 38 96.0938C38 92.2172 34.8453 89.0625 30.9688 89.0625ZM30.9688 98.4375C29.675 98.4375 28.625 97.3875 28.625 96.0938C28.625 94.8 29.675 93.75 30.9688 93.75C32.2625 93.75 33.3125 94.8 33.3125 96.0938C33.3125 97.3875 32.2625 98.4375 30.9688 98.4375Z" fill="#1A75CF"/>
<path d="M56.75 77.3438C56.75 73.4672 53.5953 70.3125 49.7188 70.3125C45.8422 70.3125 42.6875 73.4672 42.6875 77.3438C42.6875 81.2203 45.8422 84.375 49.7188 84.375C53.5953 84.375 56.75 81.2203 56.75 77.3438ZM49.7188 79.6875C48.425 79.6875 47.375 78.6375 47.375 77.3438C47.375 76.05 48.425 75 49.7188 75C51.0125 75 52.0625 76.05 52.0625 77.3438C52.0625 78.6375 51.0125 79.6875 49.7188 79.6875Z" fill="#1A75CF"/>
<path d="M45.0312 39.8438C50.2016 39.8438 54.4062 35.6391 54.4062 30.4688C54.4062 25.2984 50.2016 21.0938 45.0312 21.0938C39.8609 21.0938 35.6562 25.2984 35.6562 30.4688C35.6562 35.6391 39.8609 39.8438 45.0312 39.8438ZM45.0312 25.7813C47.6164 25.7813 49.7188 27.8836 49.7188 30.4688C49.7188 33.0539 47.6164 35.1563 45.0312 35.1563C42.4461 35.1563 40.3438 33.0539 40.3438 30.4688C40.3438 27.8836 42.4461 25.7813 45.0312 25.7813Z" fill="#1A75CF"/>
<path d="M134.502 51.0892L139.143 51.7478C139.361 50.222 139.593 48.6939 139.848 47.1705L135.224 46.4017C134.966 47.9627 134.725 49.526 134.502 51.0892Z" fill="#78B3E0"/>
<path d="M84.875 64.5493H89.5625V69.2368H84.875V64.5493Z" fill="#78B3E0"/>
<path d="M90.2331 120.148L85.6956 121.324C86.1268 122.984 86.7245 124.608 87.4815 126.152L91.6932 124.097C91.0768 122.831 90.587 121.502 90.2331 120.148Z" fill="#78B3E0"/>
<path d="M93.9101 127.676L90.1929 130.528C91.2335 131.888 92.4171 133.149 93.7108 134.278L96.7952 130.749C95.7358 129.821 94.7655 128.785 93.9101 127.676Z" fill="#78B3E0"/>
<path d="M84.875 102.049H89.5625V106.737H84.875V102.049Z" fill="#78B3E0"/>
<path d="M84.875 73.9243H89.5625V78.6118H84.875V73.9243Z" fill="#78B3E0"/>
<path d="M84.875 83.2993H89.5625V87.9868H84.875V83.2993Z" fill="#78B3E0"/>
<path d="M84.875 92.6743H89.5625V97.3618H84.875V92.6743Z" fill="#78B3E0"/>
<path d="M97.9084 137.255C99.4061 138.106 100.986 138.809 102.615 139.345L104.08 134.892C102.751 134.454 101.455 133.88 100.229 133.184L97.9084 137.255Z" fill="#78B3E0"/>
<path d="M131.75 102.86H136.438V107.548H131.75V102.86Z" fill="#78B3E0"/>
<path d="M131.75 114.844C131.75 115.474 131.721 116.098 131.67 116.714L136.339 117.122C136.404 116.367 136.437 115.61 136.437 114.844V112.235H131.75V114.844Z" fill="#78B3E0"/>
<path d="M129.287 124.744L133.421 126.949C134.232 125.433 134.888 123.828 135.378 122.182L130.883 120.851C130.485 122.194 129.945 123.504 129.287 124.744Z" fill="#78B3E0"/>
<path d="M108.186 135.792L107.642 140.447C108.641 140.566 109.653 140.625 110.656 140.625C111.374 140.625 112.081 140.595 112.785 140.538L112.4 135.865C111.024 135.98 109.597 135.959 108.186 135.792Z" fill="#78B3E0"/>
<path d="M131.816 88.7626L136.503 88.8306C136.527 87.279 136.557 85.7251 136.6 84.1735L131.912 84.0493C131.872 85.6196 131.839 87.1923 131.816 88.7626Z" fill="#78B3E0"/>
<path d="M123.959 131.213L126.922 134.848C128.251 133.763 129.479 132.544 130.566 131.222L126.95 128.243C126.055 129.326 125.051 130.324 123.959 131.213Z" fill="#78B3E0"/>
<path d="M116.544 135.106L117.849 139.61C119.499 139.132 121.107 138.485 122.628 137.684L120.444 133.535C119.202 134.187 117.889 134.717 116.544 135.106Z" fill="#78B3E0"/>
<path d="M89.5625 114.844V111.424H84.875V114.844C84.875 115.313 84.8891 115.777 84.9148 116.241L89.593 115.985C89.5719 115.608 89.5625 115.226 89.5625 114.844Z" fill="#78B3E0"/>
<path d="M103.049 16.2704L101.052 12.0259C99.5144 12.7501 98.0331 13.6196 96.6479 14.611L99.3761 18.4243C100.534 17.597 101.767 16.8728 103.049 16.2704Z" fill="#78B3E0"/>
<path d="M84.875 55.1743H89.5625V59.8618H84.875V55.1743Z" fill="#78B3E0"/>
<path d="M133.355 60.4899L138.019 60.961C138.174 59.4212 138.347 57.8837 138.535 56.3462L133.88 55.7837C133.69 57.3517 133.515 58.9173 133.355 60.4899Z" fill="#78B3E0"/>
<path d="M131.75 97.4322V98.1705H136.437V97.4275C136.435 96.1173 136.44 94.8095 136.449 93.4994L131.762 93.4666C131.752 94.7908 131.748 96.115 131.75 97.4322Z" fill="#78B3E0"/>
<path d="M121.29 10.6125C119.659 10.1062 117.974 9.75469 116.314 9.56484L115.977 9.52734L115.75 14.2172C117.153 14.3766 118.548 14.6695 119.9 15.0891L121.29 10.6125Z" fill="#78B3E0"/>
<path d="M130.299 15.3283C128.956 14.2806 127.515 13.3478 126.015 12.5603L123.835 16.7111C125.087 17.3673 126.291 18.1431 127.414 19.0197L130.299 15.3283Z" fill="#78B3E0"/>
<path d="M132.565 69.907L137.244 70.2187C137.344 68.6742 137.462 67.1297 137.588 65.5852L132.919 65.1914C132.786 66.7617 132.671 68.3344 132.565 69.907Z" fill="#78B3E0"/>
<path d="M137.063 22.9103C136.177 21.4596 135.155 20.0814 134.023 18.8135L130.526 21.9354C131.469 22.9924 132.324 24.1408 133.062 25.3549L137.063 22.9103Z" fill="#78B3E0"/>
<path d="M111.235 14.126L110.893 9.45251C109.191 9.57908 107.499 9.86033 105.856 10.2916L107.047 14.8244C108.413 14.4658 109.824 14.2314 111.235 14.126Z" fill="#78B3E0"/>
<path d="M89.5625 37.5001C89.5625 37.1743 89.5695 36.8532 89.5836 36.5298L84.9008 36.3188C84.882 36.7149 84.875 37.1063 84.875 37.5001V41.1118H89.5625V37.5001Z" fill="#78B3E0"/>
<path d="M91.4561 28.2611L87.1483 26.4119C86.4756 27.9822 85.9413 29.6181 85.5686 31.2705L90.1413 32.3041C90.453 30.9283 90.8936 29.5666 91.4561 28.2611Z" fill="#78B3E0"/>
<path d="M84.875 45.7993H89.5625V50.4868H84.875V45.7993Z" fill="#78B3E0"/>
<path d="M136.051 41.7422L140.661 42.5977C140.971 40.936 141.125 39.2227 141.125 37.5071H136.438C136.438 38.9368 136.306 40.3618 136.051 41.7422Z" fill="#78B3E0"/>
<path d="M136.062 33.2509L140.677 32.4353C140.382 30.7642 139.925 29.1025 139.316 27.5017L134.935 29.1681C135.437 30.4947 135.816 31.8681 136.062 33.2509Z" fill="#78B3E0"/>
<path d="M96.1529 21.2064L92.7826 17.9463C91.599 19.1697 90.5209 20.508 89.5811 21.9189L93.4811 24.5182C94.2662 23.3416 95.1662 22.226 96.1529 21.2064Z" fill="#78B3E0"/>
<path d="M132.071 79.3408L136.754 79.5142C136.81 77.965 136.883 76.4158 136.965 74.8689L132.282 74.6228C132.198 76.1955 132.128 77.7681 132.071 79.3408Z" fill="#78B3E0"/>
<path d="M96.5938 121.875C96.5938 125.752 99.7484 128.906 103.625 128.906C107.502 128.906 110.656 125.752 110.656 121.875C110.656 117.998 107.502 114.844 103.625 114.844C99.7484 114.844 96.5938 117.998 96.5938 121.875ZM105.969 121.875C105.969 123.169 104.919 124.219 103.625 124.219C102.331 124.219 101.281 123.169 101.281 121.875C101.281 120.581 102.331 119.531 103.625 119.531C104.919 119.531 105.969 120.581 105.969 121.875Z" fill="#1A75CF"/>
<path d="M127.062 96.0938C127.062 92.2172 123.908 89.0625 120.031 89.0625C116.155 89.0625 113 92.2172 113 96.0938C113 99.9703 116.155 103.125 120.031 103.125C123.908 103.125 127.062 99.9703 127.062 96.0938ZM117.688 96.0938C117.688 94.8 118.738 93.75 120.031 93.75C121.325 93.75 122.375 94.8 122.375 96.0938C122.375 97.3875 121.325 98.4375 120.031 98.4375C118.738 98.4375 117.688 97.3875 117.688 96.0938Z" fill="#1A75CF"/>
<path d="M101.281 84.375C105.158 84.375 108.312 81.2203 108.312 77.3438C108.312 73.4672 105.158 70.3125 101.281 70.3125C97.4047 70.3125 94.25 73.4672 94.25 77.3438C94.25 81.2203 97.4047 84.375 101.281 84.375ZM101.281 75C102.575 75 103.625 76.05 103.625 77.3438C103.625 78.6375 102.575 79.6875 101.281 79.6875C99.9875 79.6875 98.9375 78.6375 98.9375 77.3438C98.9375 76.05 99.9875 75 101.281 75Z" fill="#1A75CF"/>
<path d="M105.969 39.8438C111.139 39.8438 115.344 35.6391 115.344 30.4688C115.344 25.2984 111.139 21.0938 105.969 21.0938C100.798 21.0938 96.5938 25.2984 96.5938 30.4688C96.5938 35.6391 100.798 39.8438 105.969 39.8438ZM105.969 25.7813C108.554 25.7813 110.656 27.8836 110.656 30.4688C110.656 33.0539 108.554 35.1563 105.969 35.1563C103.384 35.1563 101.281 33.0539 101.281 30.4688C101.281 27.8836 103.384 25.7813 105.969 25.7813Z" fill="#1A75CF"/>
</svg>
