<svg width="150" height="150" viewBox="0 0 150 150" fill="none" xmlns="http://www.w3.org/2000/svg">
<g clip-path="url(#clip0)">
<path d="M130.358 98.913H64.7484C63.5344 98.913 62.5503 99.8971 62.5503 101.111C62.5503 102.325 63.5344 103.309 64.7484 103.309H130.358C131.573 103.309 132.557 102.325 132.557 101.111C132.556 99.8971 131.573 98.913 130.358 98.913Z" fill="#78B3E0"/>
<path d="M130.358 110.929H64.7484C63.5344 110.929 62.5503 111.913 62.5503 113.127C62.5503 114.341 63.5344 115.325 64.7484 115.325H130.358C131.573 115.325 132.557 114.341 132.557 113.127C132.556 111.913 131.573 110.929 130.358 110.929Z" fill="#78B3E0"/>
<path d="M112.994 122.945H64.7484C63.5344 122.945 62.5503 123.929 62.5503 125.143C62.5503 126.358 63.5344 127.342 64.7484 127.342H112.994C114.208 127.342 115.192 126.358 115.192 125.143C115.192 123.929 114.208 122.945 112.994 122.945Z" fill="#78B3E0"/>
<path d="M144.134 35.9364L126.136 17.9379C125.723 17.5257 125.164 17.2939 124.581 17.2939H99.7251V7.71973C99.7251 3.46289 96.2619 0 92.0051 0H12.9422C8.68535 0 5.22217 3.46318 5.22217 7.71973V124.986C5.22217 129.243 8.68535 132.706 12.9422 132.706H42.1755C43.3896 132.706 44.3736 131.722 44.3736 130.508C44.3736 129.294 43.3896 128.31 42.1755 128.31H12.9422C11.1094 128.31 9.61846 126.819 9.61846 124.986V7.71973C9.61846 5.88691 11.1097 4.396 12.9422 4.396H85.6664L56.9566 15.4163C53.4091 16.778 50.8646 20.0391 50.3728 23.7926C50.226 24.7125 50.2922 25.2513 50.2752 26.2931H18.7515C16.6119 26.2931 14.8708 28.0339 14.8708 30.1737V49.8642C14.8708 52.0037 16.6116 53.7448 18.7515 53.7448H50.2755V59.6476H18.7515C16.6119 59.6476 14.8708 61.3884 14.8708 63.5282V83.2187C14.8708 85.3582 16.6116 87.0993 18.7515 87.0993H50.2755V93.7359H17.0689C15.8549 93.7359 14.8708 94.72 14.8708 95.9341C14.8708 97.1481 15.8549 98.1322 17.0689 98.1322H50.2755V104.922H17.0689C15.8549 104.922 14.8708 105.906 14.8708 107.12C14.8708 108.334 15.8549 109.318 17.0689 109.318H50.2755V142.281C50.2755 146.538 53.7387 150.001 57.9952 150.001H137.058C141.315 150.001 144.778 146.538 144.778 142.281V37.4906C144.778 36.9076 144.546 36.3486 144.134 35.9364ZM126.779 24.7986L137.273 35.2928H130.103C128.27 35.2928 126.779 33.8016 126.779 31.969V24.7986ZM64.3333 17.2939L94.6157 5.66982C95.0607 6.23525 95.3288 6.94629 95.3288 7.72002V17.2939H64.3333ZM19.2668 49.3485V30.6894H50.2752V49.3485H19.2668ZM19.2668 82.7027V64.0436H50.2752V82.7027H19.2668ZM137.058 145.604H57.9952C56.1624 145.604 54.6715 144.113 54.6715 142.28V25.0137C54.6715 23.199 56.1469 21.6899 57.9952 21.6899H122.383V31.9688C122.383 36.2256 125.846 39.6888 130.103 39.6888H140.382V142.28C140.382 144.113 138.891 145.604 137.058 145.604Z" fill="#0047BA"/>
<path d="M127.871 46.5328H84.4436C83.2295 46.5328 82.2454 47.5168 82.2454 48.7309C82.2454 49.945 83.2295 50.9291 84.4436 50.9291H127.871C128.201 50.9291 128.47 51.1974 128.47 51.527V81.2422L117.307 67.7923C114.834 64.8134 110.268 64.8193 107.801 67.7923L103.008 73.5667L92.7712 61.2325C90.2982 58.2536 85.7326 58.2597 83.2649 61.2325L66.5848 81.3304V51.5267C66.5848 51.1971 66.8531 50.9288 67.1827 50.9288H74.1677C75.3817 50.9288 76.3658 49.9447 76.3658 48.7306C76.3658 47.5166 75.3817 46.5325 74.1677 46.5325H67.1827C64.4291 46.5325 62.1885 48.7728 62.1885 51.5267V83.0176C62.1885 85.7715 64.4288 88.0119 67.1827 88.0119H127.871C130.625 88.0119 132.866 85.7715 132.866 83.0176V51.527C132.866 48.7731 130.625 46.5328 127.871 46.5328ZM111.183 70.6001C111.896 69.7415 113.211 69.7412 113.924 70.6001L124.726 83.6162H100.381L111.183 70.6001ZM86.6476 64.0403C87.3598 63.1816 88.6752 63.1813 89.388 64.0403L100.151 77.0088L94.6676 83.6162H70.4007L86.6476 64.0403Z" fill="#1A75CF"/>
</g>
<defs>
<clipPath id="clip0">
<rect width="150" height="150" fill="white"/>
</clipPath>
</defs>
</svg>
