<svg width="150" height="150" viewBox="0 0 150 150" fill="none" xmlns="http://www.w3.org/2000/svg">
<path d="M130.25 88.8032C126.177 88.3269 123.107 84.8739 123.107 80.7712V51.5886C123.107 50.3748 122.123 49.3913 120.909 49.3913C119.696 49.3913 118.712 50.3748 118.712 51.5886V80.7712C118.712 87.1031 123.453 92.4328 129.722 93.1787C127.18 99.7125 120.756 104.102 113.737 104.102C107.443 104.102 101.527 101.652 97.0763 97.2015C94.1821 94.3066 92.085 90.7025 91.0119 86.775C90.457 84.7564 90.1757 82.657 90.1757 80.5348V74.8289C90.9539 73.6485 91.6956 72.4318 92.3935 71.1791C92.4014 71.165 92.407 71.1504 92.4146 71.1363C96.8616 70.4906 100.289 66.6542 100.289 62.0312C100.289 59.8535 99.5267 57.8514 98.2579 56.2737C99.4098 51.6366 99.999 46.9503 99.999 42.336C99.999 36.0568 98.9147 30.2019 96.7807 24.9021C97.25 24.7178 97.703 24.5001 98.1363 24.2522C99.803 26.0971 103.541 30.9088 105.921 39.1356C106.199 40.0975 107.077 40.7229 108.03 40.7229C108.232 40.7229 108.438 40.6948 108.642 40.6359C109.808 40.2987 110.479 39.0803 110.142 37.9145C107.536 28.9031 103.446 23.5579 101.408 21.3105C101.898 20.6326 102.308 19.8938 102.624 19.1071C111.216 23.7568 117.063 32.1328 118.414 41.8767C118.566 42.9765 119.507 43.7728 120.587 43.7728C120.688 43.7728 120.79 43.766 120.892 43.7517C122.094 43.5853 122.933 42.4758 122.766 41.2737C121.152 29.6218 113.912 19.6849 103.345 14.5421C102.98 9.15322 98.4826 4.87969 93.0029 4.87969C89.6926 4.87969 86.7421 6.44092 84.8422 8.86348C77.5707 3.13477 68.1512 0 58.0834 0C48.6038 0 39.8334 2.70147 32.7208 7.8123C31.7352 8.52041 31.5105 9.89355 32.2186 10.8791C32.9267 11.8644 34.2999 12.0894 35.2851 11.3812C41.6458 6.81035 49.5293 4.39453 58.0834 4.39453C67.5269 4.39453 76.304 7.42441 82.8958 12.9422C82.7264 13.6846 82.6338 14.456 82.6338 15.249C82.6338 20.7319 86.9121 25.2316 92.3053 25.592C94.4923 30.6114 95.6041 36.2414 95.6041 42.3363C95.6041 46.0104 95.196 49.7385 94.4009 53.4489C93.3717 53.0499 92.2546 52.8287 91.0863 52.8287C89.6973 52.8287 88.3529 53.1437 87.1368 53.7217V49.2316C89.9891 46.5832 91.7783 42.8051 91.7783 38.615V38.436C91.7783 37.2223 90.7945 36.2388 89.581 36.2388C88.3675 36.2388 87.3837 37.2223 87.3837 38.436V38.615C87.3837 44.1829 82.8539 48.7128 77.286 48.7128H66.9805C65.8218 48.7128 64.7367 48.2575 63.9249 47.4313C63.5838 47.0845 63.3093 46.691 63.1069 46.265C69.4631 45.0434 74.2792 39.4403 74.2792 32.7334C74.2792 29.9092 73.432 27.1966 71.8289 24.888C71.1369 23.8919 69.7681 23.6449 68.7708 24.3366C67.7742 25.0286 67.5272 26.398 68.2195 27.3946C68.8212 28.2609 69.2598 29.2137 69.5378 30.2156H46.6286C46.9066 29.2137 47.3452 28.2609 47.9469 27.3946C48.6392 26.398 48.3922 25.0286 47.3956 24.3366C46.3989 23.6437 45.0292 23.891 44.3375 24.888C42.7344 27.1966 41.8872 29.9095 41.8872 32.7334C41.8872 39.4406 46.7036 45.0437 53.0595 46.265C52.8571 46.691 52.5826 47.0848 52.2418 47.4313C51.43 48.2575 50.3446 48.7128 49.1862 48.7128H38.8804C33.3125 48.7128 28.7827 44.1829 28.7827 38.615V38.436C28.7827 37.2223 27.7989 36.2388 26.5854 36.2388C25.3719 36.2388 24.3881 37.2223 24.3881 38.436V38.615C24.3881 42.8051 26.1773 46.5832 29.0296 49.2316V53.7261C27.8109 53.146 26.465 52.829 25.0801 52.829C23.9118 52.829 22.7947 53.0502 21.7655 53.4489C20.9704 49.7385 20.5623 46.0104 20.5623 42.3363C20.5623 32.8667 23.298 24.4075 28.4739 17.8726C29.2274 16.9216 29.0668 15.5394 28.1156 14.7861C27.1643 14.0326 25.7824 14.1932 25.0289 15.1441C19.2316 22.4631 16.1674 31.8662 16.1674 42.3363C16.1674 46.9506 16.7566 51.6366 17.9085 56.274C16.6394 57.8517 15.8777 59.8538 15.8777 62.0314C15.8777 66.6551 19.3057 70.4918 23.7536 71.1366C26.3308 75.7717 29.4802 79.9424 33.0043 83.4067C33.4031 84.7134 34.3028 88.7341 30.9155 90.3943C29.8256 90.9284 29.3753 92.2444 29.9094 93.3343C30.2909 94.1127 31.0716 94.565 31.884 94.565C32.2086 94.565 32.5382 94.4927 32.8494 94.34C35.9736 92.8087 37.2914 90.2561 37.6696 87.7087C40.422 91.0986 43.7135 93.8106 47.368 95.6232V97.1938C30.3834 101.965 18.6134 117.436 18.6134 135.189V147.803C18.6134 149.017 19.5972 150 20.8107 150C22.0242 150 23.008 149.017 23.008 147.803V135.19C23.008 128.706 24.7763 122.566 27.9041 117.287L30.6161 118.772C29.7685 119.667 29.0982 120.732 28.6608 121.923C26.0548 129.016 26.0548 136.829 28.6608 143.923C29.6103 146.507 31.645 148.512 34.243 149.423C35.2371 149.772 36.2663 149.944 37.2905 149.944C38.9437 149.944 40.584 149.495 42.0386 148.615L50.7591 143.341C51.8674 143.93 53.1307 144.265 54.471 144.265H61.284C62.7117 144.265 64.0511 143.885 65.2098 143.222L74.1272 148.615C75.5821 149.495 77.2218 149.943 78.8756 149.943C79.8996 149.943 80.929 149.771 81.9228 149.423C84.5208 148.511 86.5555 146.506 87.505 143.922C88.1208 142.247 88.6001 140.491 88.9292 138.705C89.1492 137.512 88.3602 136.366 87.1667 136.146C85.9716 135.925 84.8276 136.715 84.6076 137.909C84.3231 139.451 83.9103 140.964 83.38 142.407C82.8849 143.755 81.8235 144.801 80.4682 145.276C79.1129 145.751 77.6305 145.598 76.4015 144.855L68.3305 139.974C68.5113 139.626 68.6665 139.263 68.7949 138.888L72.0629 139.486C72.1968 139.511 72.3298 139.523 72.4614 139.523C73.5017 139.523 74.426 138.781 74.6203 137.721C74.8388 136.527 74.0484 135.383 72.8548 135.164L69.2206 134.498V133.046L76.2002 131.781C77.3944 131.564 78.1869 130.421 77.9704 129.227C77.7539 128.033 76.6107 127.24 75.4163 127.457L69.1646 128.59C69.0512 127.62 68.7624 126.703 68.3305 125.872L76.4015 120.991C77.6305 120.247 79.1126 120.093 80.4679 120.569C81.8232 121.044 82.8849 122.09 83.38 123.439C83.9894 125.097 84.4415 126.846 84.7242 128.637C84.895 129.719 85.8292 130.492 86.8918 130.492C87.0058 130.492 87.1209 130.483 87.237 130.465C88.4355 130.275 89.254 129.151 89.0648 127.952C88.7375 125.878 88.2128 123.85 87.505 121.923C87.0676 120.732 86.3976 119.667 85.5503 118.773L88.2638 117.287C91.3901 122.566 93.1576 128.704 93.1576 135.19V147.803C93.1576 149.017 94.1413 150 95.3548 150C96.5683 150 97.5521 149.017 97.5521 147.803V135.19C97.5521 117.427 85.785 101.965 68.7978 97.1944V95.6235C71.9361 94.0667 74.8057 91.8466 77.2974 89.1041C77.9121 91.1578 79.2574 93.0899 81.8085 94.3403C82.1197 94.493 82.4493 94.5653 82.7739 94.5653C83.586 94.5653 84.367 94.113 84.7485 93.3346C85.2826 92.2447 84.8323 90.9287 83.7424 90.3946C82.715 89.8907 81.3404 88.9175 81.2689 86.2901C81.2578 85.8841 81.2809 85.4903 81.3216 85.123C82.8744 83.7533 84.367 82.2489 85.7821 80.6259C85.79 83.1111 86.1228 85.5715 86.7732 87.9372C88.0467 92.5969 90.5346 96.8751 93.9685 100.309C99.2487 105.589 106.269 108.497 113.737 108.497C122.553 108.497 130.623 102.981 133.808 94.7956C134.017 94.2768 134.123 93.7289 134.123 93.1673C134.123 90.9416 132.46 89.0654 130.25 88.8032ZM20.2725 62.0312C20.2725 59.3801 22.4293 57.2232 25.0801 57.2232C26.6396 57.2232 28.1088 57.9853 29.0106 59.2611C29.0165 59.2696 29.0235 59.277 29.0296 59.2854V61.9796C29.0296 62.8784 29.0572 63.7693 29.109 64.6521C28.2164 66.0237 26.724 66.8391 25.0801 66.8391C22.4293 66.8391 20.2725 64.6822 20.2725 62.0312ZM28.4979 70.5668C28.9277 70.3939 29.3428 70.1871 29.7416 69.9527C29.9815 71.277 30.28 72.5733 30.6333 73.8387C29.8875 72.7852 29.175 71.693 28.4979 70.5668ZM38.9736 131.777L45.6046 133.043L41.7348 134.832C40.6333 135.342 40.1534 136.647 40.6625 137.749C41.034 138.552 41.8283 139.025 42.6585 139.025C42.967 139.025 43.2808 138.959 43.5793 138.821L46.6119 137.419C46.7475 138.401 47.0627 139.327 47.5248 140.162L39.7649 144.855C38.5356 145.598 37.0535 145.752 35.6982 145.276C34.3429 144.801 33.2815 143.755 32.7864 142.407C30.5393 136.291 30.5393 129.554 32.7864 123.439C33.2815 122.09 34.3429 121.044 35.6985 120.569C37.0541 120.093 38.5362 120.247 39.7649 120.99L47.5248 125.684C47.0115 126.61 46.6784 127.649 46.5726 128.754L39.7977 127.46C38.605 127.232 37.4548 128.014 37.2275 129.207C36.9999 130.398 37.7818 131.549 38.9736 131.777ZM42.0386 117.231C39.9219 115.951 37.4135 115.586 35.0419 116.186L30.3873 113.637C32.7817 110.556 35.6917 107.88 39.0079 105.735C41.6071 108.61 44.4375 112.637 47.0493 116.715C47.0642 116.739 47.0792 116.763 47.095 116.786C48.3023 118.674 49.4613 120.569 50.5286 122.365L42.0386 117.231ZM64.826 136.329C64.826 138.282 63.2373 139.871 61.2843 139.871H54.4713C52.5184 139.871 50.9296 138.282 50.9296 136.329V129.516C50.9296 127.563 52.5184 125.975 54.4713 125.975H61.2843C63.2373 125.975 64.826 127.563 64.826 129.516V136.329ZM51.7195 115.879L56.259 111.394C56.7421 110.917 57.3796 110.665 58.0584 110.66C58.7355 110.665 59.3709 110.933 59.8479 111.415L64.374 115.996C63.1699 117.92 62.0308 119.816 60.999 121.58H55.1674C54.1148 119.78 52.9505 117.843 51.7195 115.879ZM85.7818 113.637L81.1259 116.186C78.7535 115.586 76.2448 115.95 74.1275 117.23L65.6376 122.365C66.6711 120.625 67.7906 118.793 68.9566 116.965C68.9982 116.907 69.0363 116.847 69.0714 116.786C71.6961 112.682 74.545 108.625 77.1597 105.733C80.4773 107.879 83.3874 110.556 85.7818 113.637ZM68.7984 103.72V101.788C70.3306 102.277 71.8122 102.863 73.2357 103.542C71.1202 105.996 68.9156 109.044 66.8121 112.211L62.9745 108.327C61.6728 107.009 59.9364 106.277 58.0851 106.266C58.0708 106.266 58.0567 106.266 58.0423 106.266C56.2075 106.266 54.479 106.976 53.1708 108.267L49.2852 112.107C47.2028 108.978 45.0237 105.969 42.9316 103.543C44.3551 102.864 45.8364 102.277 47.3683 101.788V103.72C47.3683 104.933 48.3521 105.917 49.5656 105.917C50.7791 105.917 51.7628 104.933 51.7628 103.72V97.3096C53.7984 97.8744 55.913 98.1747 58.0834 98.1747C60.2537 98.1747 62.3683 97.8744 64.4039 97.3096V103.72C64.4039 104.934 65.3876 105.917 66.6011 105.917C67.8146 105.917 68.7984 104.934 68.7984 103.72ZM82.7425 61.9796C82.7425 79.5146 71.6806 93.7805 58.0836 93.7805C44.4867 93.7805 33.4248 79.5146 33.4248 61.9793V52.0371C35.1102 52.7247 36.9512 53.107 38.881 53.107H49.1865C51.5335 53.107 53.7319 52.1854 55.3766 50.5113C57.0216 48.837 57.9046 46.623 57.8636 44.2764C57.8425 43.0781 56.8652 42.1178 55.6666 42.1178C51.1344 42.1178 47.3425 38.8884 46.4707 34.6099H69.6963C68.8245 38.8884 65.0326 42.1178 60.5003 42.1178C59.3018 42.1178 58.3245 43.0781 58.3034 44.2767C58.2623 46.6233 59.1457 48.8373 60.7907 50.5113C62.4357 52.1854 64.6341 53.107 66.9808 53.107H77.2863C79.2161 53.107 81.0571 52.725 82.7425 52.0374V61.9796ZM93.0029 21.2235C89.7085 21.2232 87.0284 18.5432 87.0284 15.249C87.0284 11.9549 89.7085 9.27451 93.0029 9.27451C96.297 9.27451 98.9771 11.9546 98.9771 15.249C98.9771 18.5435 96.297 21.2235 93.0029 21.2235ZM85.5342 73.8352C85.8864 72.5736 86.184 71.2808 86.4234 69.9609C86.8215 70.1947 87.2378 70.3957 87.6665 70.5677C86.9906 71.6921 86.279 72.7831 85.5342 73.8352ZM87.1769 64.8305C87.1388 64.7774 87.0978 64.7276 87.0559 64.6787C87.1089 63.7875 87.1368 62.8872 87.1368 61.9793V59.291C88.0376 57.9958 89.5084 57.2232 91.0863 57.2232C93.7374 57.2232 95.8942 59.3801 95.8942 62.0312C95.8942 64.6822 93.7374 66.8388 91.0863 66.8388C89.5412 66.8388 88.0795 66.0879 87.1769 64.8305Z" fill="#0047BA"/>
<path d="M64.3148 74.5611C63.1192 74.3645 61.9874 75.1766 61.7908 76.374C61.3909 78.8129 59.8315 80.5833 58.0827 80.5833C56.334 80.5833 54.7745 78.8129 54.3743 76.374C54.1781 75.1766 53.049 74.3648 51.8504 74.5611C50.6531 74.7577 49.8415 75.8873 50.0378 77.085C50.7878 81.6582 54.171 84.9776 58.0824 84.9776C61.9942 84.9776 65.3774 81.6582 66.1271 77.085C66.324 75.8873 65.5124 74.7574 64.3148 74.5611Z" fill="#1A75CF"/>
<path d="M45.8655 59.0835C44.652 59.0835 43.6682 60.067 43.6682 61.2808V65.0035C43.6682 66.2173 44.652 67.2008 45.8655 67.2008C47.079 67.2008 48.0627 66.2173 48.0627 65.0035V61.2808C48.0627 60.067 47.079 59.0835 45.8655 59.0835Z" fill="#1A75CF"/>
<path d="M70.3005 59.0835C69.0871 59.0835 68.1033 60.067 68.1033 61.2808V65.0035C68.1033 66.2173 69.0871 67.2008 70.3005 67.2008C71.514 67.2008 72.4978 66.2173 72.4978 65.0035V61.2808C72.4978 60.067 71.5143 59.0835 70.3005 59.0835Z" fill="#1A75CF"/>
<path d="M114.648 95.3897C100.008 93.4824 98.9942 81.3084 98.9567 80.7623C98.8808 79.5547 97.8381 78.6257 96.6334 78.7066C95.422 78.7783 94.4983 79.8187 94.5704 81.0301C94.5803 81.1997 94.8463 85.2333 97.396 89.5364C99.7503 93.5097 104.556 98.5063 114.08 99.7476C114.176 99.7602 114.272 99.766 114.367 99.766C115.454 99.766 116.399 98.9592 116.543 97.8524C116.699 96.6491 115.851 95.5464 114.648 95.3897Z" fill="#1A75CF"/>
</svg>
