<svg width="150" height="150" viewBox="0 0 150 150" fill="none" xmlns="http://www.w3.org/2000/svg">
<g clip-path="url(#clip0)">
<path d="M108.243 75.0001C108.243 62.6865 103.996 50.6346 96.2866 41.0646L92.8598 43.825C100.045 52.7434 103.843 63.5234 103.843 75.0001C103.843 102.417 81.538 124.721 54.1214 124.721C26.7049 124.721 4.40012 102.417 4.40012 75.0001C4.40012 47.5836 26.7049 25.2788 54.1214 25.2788C67.8275 25.2788 80.5955 30.7379 90.0733 40.6504L93.2537 37.61C82.9375 26.8206 69.0402 20.8787 54.1214 20.8787C24.279 20.8787 0 45.1573 0 75.0001C0 104.843 24.279 129.122 54.1214 129.122C83.9639 129.122 108.243 104.843 108.243 75.0001Z" fill="#0047BA"/>
<path d="M35.2679 102.306C40.8285 106.158 47.348 108.195 54.1213 108.195C72.4234 108.195 87.3128 93.3033 87.3128 75C87.3128 56.6967 72.4231 41.8055 54.1213 41.8055C35.8179 41.8055 20.9268 56.6967 20.9268 75C20.9268 84.1989 24.8074 93.0701 31.573 99.3391L34.5636 96.1112C28.6933 90.6724 25.3269 82.978 25.3269 75C25.3269 59.1226 38.2439 46.2057 54.1213 46.2057C69.9969 46.2057 82.9127 59.1226 82.9127 75C82.9127 90.8774 69.9969 103.794 54.1213 103.794C48.2477 103.794 42.5947 102.029 37.7736 98.6888L35.2679 102.306Z" fill="#1A75CF"/>
<path d="M69.0231 75.0001C69.0231 66.7824 62.3378 60.0972 54.1202 60.0972C45.9025 60.0972 39.2173 66.7824 39.2173 75.0001C39.2173 83.2177 45.9025 89.903 54.1202 89.903C62.3378 89.903 69.0231 83.2174 69.0231 75.0001ZM43.6174 75.0001C43.6174 69.2089 48.329 64.4973 54.1202 64.4973C59.9113 64.4973 64.623 69.2089 64.623 75.0001C64.623 80.7912 59.9113 85.5029 54.1202 85.5029C48.329 85.5029 43.6174 80.7912 43.6174 75.0001Z" fill="#0047BA"/>
<path d="M150 112.072L147.433 107.124L150 102.172L146.291 95.0217L110.614 95.0646L110.619 99.4647L143.619 99.4251L145.043 102.173L142.477 107.124L145.043 112.072L142.477 117.021L145.043 121.972L143.618 124.721H85.5767V129.121H146.292L150 121.973L147.433 117.021L150 112.072Z" fill="#0047BA"/>
<path d="M78.5129 75.0001H74.1128C74.1131 69.7261 72.0688 64.746 68.3566 60.9778L71.4912 57.8898C76.0195 62.4867 78.5132 68.563 78.5129 75.0001ZM65.314 58.443C64.2202 57.7009 63.0497 57.0661 61.8362 56.5557L63.5408 52.4993C65.0224 53.1218 66.4501 53.8965 67.7842 54.8015L65.314 58.443ZM58.0573 55.3964C56.7696 55.1382 55.4451 55.0074 54.1201 55.0074V50.6073C55.735 50.6073 57.3507 50.7672 58.9224 51.0822L58.0573 55.3964Z" fill="#78B3E0"/>
</g>
<defs>
<clipPath id="clip0">
<rect width="150" height="150" fill="white"/>
</clipPath>
</defs>
</svg>
