<svg width="151" height="150" viewBox="0 0 151 150" fill="none" xmlns="http://www.w3.org/2000/svg">
<g clip-path="url(#clip0)">
<path d="M57.96 62.5015L53.2903 61.2363C51.8632 66.4885 47.0682 70.1612 41.6294 70.1612V74.9999C49.2454 74.9999 55.9636 69.8612 57.96 62.5015Z" fill="#1A75CF"/>
<path d="M7.75806 45.9678C11.7592 45.9678 15.0161 42.7109 15.0161 38.7097C15.0161 34.7086 11.7592 31.4517 7.75806 31.4517C3.75691 31.4517 0.5 34.7086 0.5 38.7097C0.5 42.7109 3.75691 45.9678 7.75806 45.9678ZM7.75806 36.2904C9.09296 36.2904 10.1774 37.3748 10.1774 38.7097C10.1774 40.0446 9.09296 41.1291 7.75806 41.1291C6.42317 41.1291 5.33871 40.0446 5.33871 38.7097C5.33871 37.3748 6.42317 36.2904 7.75806 36.2904Z" fill="#78B3E0"/>
<path d="M29.5324 19.3548C34.8696 19.3548 39.2098 15.0146 39.2098 9.67742C39.2098 4.34019 34.8696 0 29.5324 0C24.1952 0 19.855 4.34019 19.855 9.67742C19.855 15.0146 24.1952 19.3548 29.5324 19.3548ZM29.5324 4.83871C32.201 4.83871 34.3711 7.0088 34.3711 9.67742C34.3711 12.346 32.201 14.5161 29.5324 14.5161C26.8638 14.5161 24.6937 12.346 24.6937 9.67742C24.6937 7.0088 26.8638 4.83871 29.5324 4.83871Z" fill="#78B3E0"/>
<path d="M102.113 33.871C107.45 33.871 111.79 29.5308 111.79 24.1935C111.79 18.8563 107.45 14.5161 102.113 14.5161C96.7755 14.5161 92.4353 18.8563 92.4353 24.1935C92.4353 29.5308 96.7755 33.871 102.113 33.871ZM102.113 19.3548C104.781 19.3548 106.951 21.5249 106.951 24.1935C106.951 26.8621 104.781 29.0322 102.113 29.0322C99.4441 29.0322 97.274 26.8621 97.274 24.1935C97.274 21.5249 99.4441 19.3548 102.113 19.3548Z" fill="#78B3E0"/>
<path d="M123.887 58.0645C127.889 58.0645 131.146 54.8076 131.146 50.8064C131.146 46.8053 127.889 43.5483 123.887 43.5483C119.886 43.5483 116.629 46.8053 116.629 50.8064C116.629 54.8076 119.886 58.0645 123.887 58.0645ZM123.887 48.387C125.222 48.387 126.307 49.4715 126.307 50.8064C126.307 52.1413 125.222 53.2258 123.887 53.2258C122.553 53.2258 121.468 52.1413 121.468 50.8064C121.468 49.4715 122.553 48.387 123.887 48.387Z" fill="#78B3E0"/>
<path d="M75.5 53.2258H80.3387V58.0645H75.5V53.2258Z" fill="#1A75CF"/>
<path d="M19.855 67.7419H24.6937V72.5807H19.855V67.7419Z" fill="#1A75CF"/>
<path d="M58.5647 43.5483H63.4034V48.3871H58.5647V43.5483Z" fill="#1A75CF"/>
<path d="M63.4031 79.8386H68.2418V84.6773H63.4031V79.8386Z" fill="#1A75CF"/>
<path d="M116.629 108.871C120.63 108.871 123.887 105.614 123.887 101.613C123.887 97.6119 120.63 94.355 116.629 94.355C112.628 94.355 109.371 97.6119 109.371 101.613C109.371 105.614 112.628 108.871 116.629 108.871ZM116.629 99.1937C117.964 99.1937 119.048 100.278 119.048 101.613C119.048 102.948 117.964 104.032 116.629 104.032C115.294 104.032 114.209 102.948 114.209 101.613C114.209 100.278 115.294 99.1937 116.629 99.1937Z" fill="#1A75CF"/>
<path d="M106.363 113.124C107.734 111.755 108.491 109.931 108.491 107.991C108.491 106.052 107.736 104.231 106.366 102.859C106.363 102.859 106.363 102.859 106.363 102.859C103.625 100.118 98.844 100.118 96.101 102.859C94.7318 104.229 93.9746 106.052 93.9746 107.991C93.9746 109.931 94.7295 111.755 96.101 113.122C97.4701 114.492 99.2941 115.249 101.233 115.249C103.172 115.249 104.994 114.492 106.363 113.124ZM98.8133 107.991C98.8133 107.345 99.0649 106.738 99.5221 106.28C99.9793 105.826 100.586 105.572 101.233 105.572C101.88 105.572 102.485 105.823 102.94 106.28H102.942C103.397 106.738 103.652 107.345 103.652 107.991C103.652 108.638 103.4 109.243 102.94 109.7C102.03 110.618 100.441 110.616 99.5221 109.698C99.0614 109.241 98.8133 108.636 98.8133 107.991Z" fill="#1A75CF"/>
<path d="M137.157 102.859C134.414 100.118 129.628 100.118 126.895 102.859C125.525 104.229 124.767 106.052 124.767 107.991C124.767 109.931 125.522 111.755 126.893 113.122C128.262 114.492 130.086 115.249 132.025 115.249C133.964 115.249 135.786 114.494 137.157 113.124C137.157 113.122 137.157 113.122 137.157 113.122C138.526 111.752 139.283 109.931 139.283 107.991C139.283 106.052 138.529 104.229 137.157 102.859ZM133.736 109.698C132.819 110.616 131.23 110.621 130.316 109.698C129.858 109.243 129.606 108.638 129.606 107.991C129.606 107.345 129.858 106.738 130.318 106.28C130.773 105.823 131.378 105.572 132.025 105.572C132.672 105.572 133.279 105.823 133.736 106.28C134.191 106.738 134.445 107.345 134.445 107.991C134.445 108.636 134.197 109.241 133.736 109.698Z" fill="#1A75CF"/>
<path d="M116.629 113.71C107.133 113.71 99.6934 119.022 99.6934 125.806C99.6934 132.591 107.133 137.903 116.629 137.903C126.124 137.903 133.564 132.591 133.564 125.806C133.564 119.022 126.124 113.71 116.629 113.71ZM116.629 133.065C110.072 133.065 104.532 129.74 104.532 125.806C104.532 121.873 110.072 118.548 116.629 118.548C123.185 118.548 128.726 121.873 128.726 125.806C128.726 129.74 123.185 133.065 116.629 133.065Z" fill="#1A75CF"/>
<path d="M118.712 82.3644L119.418 77.4194H113.48C113.946 75.8541 114.21 74.2286 114.21 72.5807C114.21 63.1892 106.524 55.5602 97.1029 55.6452C95.9263 47.448 88.8572 41.1291 80.3387 41.1291C79.0321 41.1291 77.7421 41.2791 76.4769 41.5792C73.8107 35.5119 67.7528 31.4517 60.9838 31.4517C54.2148 31.4517 48.157 35.5119 45.4907 41.5792C44.2255 41.2791 42.9355 41.1291 41.629 41.1291C33.1105 41.1291 26.0438 47.448 24.8648 55.6452C24.8093 55.6452 24.749 55.6452 24.6935 55.6452C15.3575 55.6452 7.75802 63.2447 7.75802 72.5807C7.75802 74.2286 8.02146 75.8541 8.48808 77.4194H2.54956L12.0285 143.77C12.5365 147.322 15.6233 150 19.211 150H102.754C104.304 150 105.788 149.49 107.017 148.59C110.068 149.494 113.291 150 116.629 150C135.307 150 150.5 134.807 150.5 116.129C150.5 98.1552 136.417 83.4489 118.712 82.3644ZM113.817 82.4011C103.997 83.2138 95.3746 88.2321 89.716 95.6473L94.1803 82.2581H113.84L113.817 82.4011ZM12.5967 72.5807C12.5967 65.9109 18.0237 60.4839 24.6935 60.4839C25.322 60.4839 25.9859 60.5442 26.7183 60.6682L29.5322 60.9316V58.0646C29.5322 51.3948 34.9592 45.9678 41.629 45.9678C43.1553 45.9678 44.6555 46.2584 46.0932 46.829L48.6118 47.8355L49.323 45.2153C50.75 39.9631 55.545 36.2904 60.9838 36.2904C66.4226 36.2904 71.2177 39.9631 72.6447 45.2153L73.3559 47.8355L75.8744 46.829C77.3121 46.2584 78.8124 45.9678 80.3387 45.9678C87.0084 45.9678 92.4354 51.3948 92.426 58.2075L92.3291 61.1691L95.2494 60.6706C95.9818 60.5442 96.6457 60.4839 97.2741 60.4839C103.944 60.4839 109.371 65.9109 109.371 72.5807C109.371 74.2546 109.013 75.9002 108.35 77.4194H90.6906L89.2825 81.6415C86.7107 79.3792 85.1774 76.1223 85.1774 72.6315L85.1868 72.4378L80.3505 72.2783L80.3387 72.5807C80.3387 78.2109 83.1041 83.3709 87.6617 86.5085L85.8519 91.9355H36.1157L31.277 77.4194H13.6174C12.9547 75.8979 12.5967 74.2523 12.5967 72.5807ZM27.7874 82.2581L32.6261 96.7742H88.8714C87.3061 99.0093 86.022 101.449 85.0297 104.032H11.2394L8.12778 82.2581H27.7874ZM19.211 145.161C18.0167 145.161 16.9854 144.268 16.8188 143.086L13.3126 118.548H24.6935V113.71H12.6239L11.9316 108.871H83.5613C83.2152 110.446 82.9978 112.062 82.8809 113.71H29.5322V118.548H82.8809C83.6865 129.858 90.0551 139.628 99.2729 145.161H19.211ZM116.629 145.161C100.62 145.161 87.5967 132.138 87.5967 116.129C87.5967 100.12 100.62 87.0968 116.629 87.0968C132.638 87.0968 145.661 100.12 145.661 116.129C145.661 132.138 132.638 145.161 116.629 145.161Z" fill="#0047BA"/>
</g>
<defs>
<clipPath id="clip0">
<rect width="150" height="150" fill="white" transform="translate(0.5)"/>
</clipPath>
</defs>
</svg>
