<svg width="151" height="150" viewBox="0 0 151 150" fill="none" xmlns="http://www.w3.org/2000/svg">
<g clip-path="url(#clip0)">
<path d="M32.8388 55.987L22.9432 71.168C22.3268 72.1132 22.2782 73.3164 22.8166 74.3081C23.3542 75.2983 24.3875 75.9133 25.5143 75.9133H25.5193L32.5974 75.901C33.3512 75.8995 34.098 75.649 34.6995 75.1961L49.2134 64.2713L69.7233 67.7863C69.7414 67.7895 69.7599 67.7922 69.7781 67.7948C70.1264 67.8458 70.4879 67.8695 70.8266 67.8698L78.7784 67.8575L56.5948 105.42C56.0504 106.342 56.0422 107.492 56.5734 108.421C57.1042 109.35 58.0977 109.926 59.1662 109.926H59.1691L71.7483 109.918C72.907 109.917 74.003 109.472 74.8344 108.665L86.0024 97.827C86.8716 96.9833 86.8924 95.5943 86.0487 94.7248C85.2049 93.8555 83.816 93.8347 82.9464 94.6785L71.7785 105.517C71.7694 105.526 71.7568 105.531 71.7445 105.531L61.6209 105.537L83.8789 67.8493L110.636 67.8077L90.3881 87.4574C89.5189 88.3011 89.4981 89.6901 90.3418 90.5596C90.7719 91.0029 91.3435 91.2256 91.9163 91.2256C92.4664 91.2256 93.0178 91.0196 93.4438 90.6059L116.946 67.798L128.075 67.7807C129.967 67.7772 131.816 67.4131 133.569 66.6982L144.374 62.292C147.066 61.1936 148.736 58.7046 148.731 55.796C148.726 52.8874 147.048 50.4045 144.351 49.3155L133.531 44.9468C131.784 44.2413 129.943 43.8836 128.06 43.8836C128.051 43.8836 128.042 43.8836 128.033 43.8836L116.722 43.9026L74.8347 3.25232C74.0033 2.44548 72.9073 2.00046 71.7477 1.99929L59.17 1.99109H59.167C58.098 1.99109 57.1042 2.56765 56.5737 3.49578C56.0425 4.42537 56.0507 5.57527 56.5951 6.49724L78.7198 43.96L70.7844 43.9723C70.4329 43.9732 70.0795 44.0002 69.7341 44.0517C69.7168 44.0544 69.6993 44.0573 69.682 44.0602L49.1847 47.6462L34.6318 36.7709C34.0297 36.3209 33.2841 36.0736 32.5309 36.0736H32.5274L25.4493 36.0859C24.321 36.0883 23.288 36.707 22.7531 37.7002C22.2184 38.6936 22.2708 39.8966 22.8905 40.8396L32.8388 55.987ZM32.2412 40.4623L46.7094 51.2737C47.5772 51.9229 48.6881 52.1884 49.7542 52.0009L70.4082 48.3877C70.5351 48.3698 70.6652 48.3601 70.7932 48.3598L100.102 48.3141C101.313 48.3121 102.294 47.3286 102.292 46.1169C102.29 44.9063 101.308 43.9266 100.098 43.9266H100.094L83.8107 43.9521L61.6215 6.38005L71.7442 6.38679C71.7574 6.38679 71.77 6.39177 71.779 6.40085L110.556 44.0321C109.693 44.3283 109.073 45.1457 109.074 46.1093C109.076 47.3195 110.058 48.2992 111.268 48.2992H111.272L128.041 48.2708H128.059C129.378 48.2708 130.666 48.521 131.889 49.0146L142.708 53.3834C144.223 53.9951 144.343 55.3902 144.344 55.8033C144.344 56.2164 144.229 57.6121 142.717 58.2291L131.912 62.6353C130.685 63.1354 129.392 63.3906 128.067 63.3929L70.8178 63.4823C70.8158 63.4823 70.8137 63.4823 70.8117 63.4823C70.6869 63.4823 70.5597 63.4735 70.4329 63.4562L49.7677 59.9145C48.6987 59.7305 47.5912 60.0004 46.7258 60.6519L32.2951 71.5143L27.95 71.5217L36.6711 58.1427C37.5284 56.8275 37.5251 55.1301 36.6635 53.8184L27.8961 40.4699L32.2412 40.4623Z" fill="#1A75CF"/>
<path d="M79.6869 58.5701C81.2373 58.4112 82.3653 57.0255 82.2063 55.4752C82.0474 53.9248 80.6617 52.7968 79.1114 52.9558C77.561 53.1147 76.433 54.5004 76.592 56.0507C76.7509 57.6011 78.1366 58.7291 79.6869 58.5701Z" fill="#0047BA"/>
<path d="M92.5296 56.5847C92.9971 55.0982 92.1711 53.5143 90.6848 53.0469C89.1985 52.5795 87.6146 53.4056 87.1472 54.8921C86.6797 56.3786 87.5057 57.9625 88.992 58.4299C90.4783 58.8973 92.0622 58.0712 92.5296 56.5847Z" fill="#0047BA"/>
<path d="M102.059 57.7278C103.16 56.6261 103.16 54.8402 102.059 53.7387C100.957 52.6372 99.1715 52.6373 98.0698 53.7389C96.9682 54.8405 96.9681 56.6265 98.0696 57.728C99.1711 58.8295 100.957 58.8294 102.059 57.7278Z" fill="#0047BA"/>
<path d="M110.523 58.5435C112.081 58.5426 113.343 57.2787 113.342 55.7204C113.342 54.1624 112.078 52.9 110.519 52.9009C108.961 52.9018 107.699 54.1659 107.7 55.7239C107.701 57.2819 108.965 58.5443 110.523 58.5435Z" fill="#0047BA"/>
<path d="M145.381 122.25H43.4346V112.703H44.7415C45.9532 112.703 46.9353 111.721 46.9353 110.509C46.9353 109.298 45.9532 108.316 44.7415 108.316H43.4346V98.7684H44.7415C45.9532 98.7684 46.9353 97.7863 46.9353 96.5746C46.9353 95.3629 45.9532 94.3809 44.7415 94.3809H43.4346V91.8013C43.4346 90.3218 42.5524 88.9973 41.1872 88.4271L30.4651 83.9509C28.8535 83.2779 27.0052 83.2779 25.3941 83.9509L14.6712 88.4269C13.3057 88.997 12.4238 90.3215 12.4238 91.801V94.3806H11.2496C10.0379 94.3806 9.05586 95.3626 9.05586 96.5743C9.05586 97.786 10.0379 98.7681 11.2496 98.7681H12.4238V108.315H11.2496C10.0379 108.315 9.05586 109.297 9.05586 110.509C9.05586 111.721 10.0379 112.703 11.2496 112.703H12.4238V122.25H5.61875C2.79629 122.25 0.5 124.547 0.5 127.369V142.89C0.5 145.713 2.79629 148.009 5.61875 148.009H12.8949C14.1066 148.009 15.0887 147.027 15.0887 145.815C15.0887 144.603 14.1066 143.621 12.8949 143.621H5.61875C5.21533 143.621 4.8875 143.293 4.8875 142.89V127.369C4.8875 126.966 5.21533 126.638 5.61875 126.638H145.381C145.784 126.638 146.112 126.966 146.112 127.369V142.89C146.112 143.293 145.784 143.621 145.381 143.621H133.24V135.155C133.24 133.139 131.6 131.499 129.584 131.499H73.7926C71.7764 131.499 70.1363 133.139 70.1363 135.155V143.621H24.4121C23.2004 143.621 22.2184 144.603 22.2184 145.815C22.2184 147.027 23.2004 148.009 24.4121 148.009H145.381C148.203 148.009 150.5 145.713 150.5 142.89V127.369C150.5 124.547 148.204 122.25 145.381 122.25ZM39.0468 108.316H16.8116V98.7684H39.0468V108.316ZM27.0843 87.9994C27.6213 87.775 28.2374 87.7756 28.7744 87.9994L39.0468 92.2882V94.3803H16.8113V92.2882L27.0843 87.9994ZM16.8113 112.703H39.0468V122.25H16.8113V112.703ZM103.841 135.886H114.878V143.621H103.841V135.886ZM99.4531 143.621H88.337V135.886H99.4531V143.621ZM74.5238 135.886H83.9495V143.621H74.5238V135.886ZM119.265 143.621V135.886H128.853V143.621H119.265Z" fill="#0047BA"/>
</g>
<defs>
<clipPath id="clip0">
<rect width="150" height="150" fill="white" transform="translate(0.5)"/>
</clipPath>
</defs>
</svg>
