<?xml version="1.0" encoding="iso-8859-1"?>
<!-- Generator: Adobe Illustrator 18.0.0, SVG Export Plug-In . SVG Version: 6.00 Build 0)  -->
<!DOCTYPE svg PUBLIC "-//W3C//DTD SVG 1.1//EN" "http://www.w3.org/Graphics/SVG/1.1/DTD/svg11.dtd">
<svg fill="#0071ce" version="1.1" id="Capa_1" xmlns="http://www.w3.org/2000/svg" xmlns:xlink="http://www.w3.org/1999/xlink" x="0px" y="0px"
	 viewBox="0 0 447.979 447.979" style="enable-background:new 0 0 447.979 447.979;" xml:space="preserve">
<g>
	<path d="M447.221,186.924c-1.749-3.446-5.957-4.826-9.41-3.076l-79.347,40.247V62.59h1.498c8.776,0,15.916-7.14,15.916-15.916
		c0-8.776-7.14-15.916-15.916-15.916H88.017c-8.776,0-15.916,7.14-15.916,15.916c0,8.776,7.14,15.916,15.916,15.916h1.498v297.926
		l-85.681,43.46c-3.447,1.749-4.824,5.962-3.076,9.41c1.234,2.433,3.695,3.835,6.249,3.835c1.064,0,2.146-0.244,3.161-0.759
		l433.977-220.128C447.592,194.585,448.969,190.372,447.221,186.924z M103.515,204.961h240.949v18.046H103.515V204.961z
		 M86.101,46.674c0-1.057,0.859-1.916,1.916-1.916h271.945c1.057,0,1.916,0.859,1.916,1.916c0,1.057-0.859,1.916-1.916,1.916H88.017
		C86.96,48.59,86.101,47.731,86.101,46.674z M344.464,62.59v128.371H103.515V62.59H344.464z M103.515,237.007h229.494
		L103.515,353.414V237.007z"/>
	<path d="M151.9,168.511h144.18c3.866,0,7-3.134,7-7V91.825c0-3.866-3.134-7-7-7H151.9c-3.866,0-7,3.134-7,7v69.687
		C144.9,165.377,148.034,168.511,151.9,168.511z M158.9,154.511v-50.467l130.18,38.572v11.895H158.9z"/>
</g>
<g>
</g>
<g>
</g>
<g>
</g>
<g>
</g>
<g>
</g>
<g>
</g>
<g>
</g>
<g>
</g>
<g>
</g>
<g>
</g>
<g>
</g>
<g>
</g>
<g>
</g>
<g>
</g>
<g>
</g>
</svg>
