<?xml version="1.0" encoding="iso-8859-1"?>
<!-- Generator: Adobe Illustrator 19.0.0, SVG Export Plug-In . SVG Version: 6.00 Build 0)  -->
<svg fill="#0071ce" version="1.1" id="Capa_1" xmlns="http://www.w3.org/2000/svg" xmlns:xlink="http://www.w3.org/1999/xlink" x="0px" y="0px"
	 viewBox="0 0 512 512" style="enable-background:new 0 0 512 512;" xml:space="preserve">
<g>
	<g>
		<g>
			<rect x="208" y="239.2" width="32" height="32"/>
			<path d="M448,111.2c-29.095,0.109-54.454,19.829-61.728,48h-90.8c-21.992-46.846-46.651-92.392-73.856-136.416L208,0.8
				l-13.616,21.968c-27.205,44.029-51.864,89.581-73.856,136.432H0v352h448c35.346,0,64-28.654,64-64v-272
				C512,139.854,483.346,111.2,448,111.2z M208,62.144c35.36,59.952,80,145.92,80,177.056c0,44.183-35.817,80-80,80
				s-80-35.817-80-80C128,207.76,171.824,123.264,208,62.144z M448,479.2H32v-32h128v-32H32v-64h64v-32H32v-64h32v-32H32v-32h75.36
				c-6.338,15.287-10.173,31.494-11.36,48c0,61.856,50.144,112,112,112s112-50.144,112-112c-1.187-16.506-5.022-32.713-11.36-48H384
				v32h-32v32h32v64h-64v32h64v96h32c0-17.673,14.327-32,32-32c17.673,0,32,14.327,32,32C480,464.873,465.673,479.2,448,479.2z
				 M480,392.096c-19.684-11.862-44.315-11.862-64,0V175.2c0-17.673,14.327-32,32-32c17.673,0,32,14.327,32,32V392.096z"/>
		</g>
	</g>
</g>
</svg>
