<?xml version="1.0" encoding="iso-8859-1"?>
<!-- Generator: Adobe Illustrator 19.0.0, SVG Export Plug-In . SVG Version: 6.00 Build 0)  -->
<svg fill="#0071ce" version="1.1" id="Layer_1" xmlns="http://www.w3.org/2000/svg" xmlns:xlink="http://www.w3.org/1999/xlink" x="0px" y="0px"
	 viewBox="0 0 512.001 512.001" style="enable-background:new 0 0 512.001 512.001;" xml:space="preserve">
<g>
	<g>
		<circle cx="243.845" cy="42.141" r="42.141"/>
	</g>
</g>
<g>
	<g>
		<path d="M479.507,310.176c-5.492-6.762-11.662-12.84-17.575-18.021c-7.972-6.985-15.473-12.332-20.213-15.498
			c-3.617-60.728-17.633-105.867-39.986-105.867c-26.176,0-40.923,61.889-40.923,138.232c0,41.054,11.833,77.925,22.773,103.242
			c3.356,7.765,0.978,16.832-5.772,21.933c-15.188,11.479-25.47,33.545-25.47,58.898c0,0.059,0,0.118,0,0.177
			c0.011,5.93,7.872,8.088,10.899,2.96c9.051-15.334,22.929-25.148,38.491-25.148c15.563,0,29.44,9.814,38.491,25.148
			c3.026,5.125,10.888,2.967,10.899-2.96c0-0.059,0-0.118,0-0.177c0-25.352-10.282-47.418-25.47-58.898
			c-6.761-5.109-9.132-14.153-5.772-21.933c9.665-22.365,20.02-53.749,22.305-89.066c6.716-0.829,13.397-0.824,19.573-0.371
			c3.48,0.255,6.801,0.648,9.873,1.115C479.292,325.105,484.392,316.191,479.507,310.176z M409.017,209.641
			c-3.369,0-6.099-2.731-6.099-6.101c0-3.369,2.73-6.099,6.099-6.099c3.369,0,6.099,2.731,6.099,6.099
			C415.117,206.909,412.385,209.641,409.017,209.641z"/>
	</g>
</g>
<g>
	<g>
		<path d="M412.396,128.273c-7.951-7.93-20.825-7.913-28.755,0.037l-34.55,34.638l-2.469-18.806
			c-0.897-25.731-22.173-46.428-48.088-46.428c-13.283,0-96.04,0-109.375,0c-26.489,0-48.147,21.478-48.28,47.979v45.851
			l-28.126,3.284V48.457c0-6.356-5.153-11.508-11.508-11.508c-6.355,0-11.508,5.152-11.508,11.508v23.807
			c-9.146,3.494-17.291,11.173-23.591,22.503c-7.727,13.896-11.983,32.135-11.983,51.359c0,19.224,4.254,37.463,11.983,51.359
			c1.515,2.726,3.145,5.224,4.862,7.522c-3.652,4.172-5.612,9.8-4.919,15.741c0.319,2.733,1.178,5.267,2.439,7.529
			c-10.154,15.744-14.364,36.33-14.364,55.3c0,19.224,4.254,37.463,11.983,51.359c3.795,6.825,8.261,12.324,13.209,16.389
			c-4.067-1.618-8.495-2.517-13.132-2.517c-19.657,0-35.651,15.993-35.651,35.651s15.993,35.653,35.651,35.653
			c9.004,0,17.233-3.361,23.514-8.888v76.379c0,6.356,5.153,11.508,11.508,11.508c6.355,0,11.508-5.152,11.508-11.508V235.77
			l50.817-5.933c10.248-1.197,17.976-9.879,17.976-20.196v-63.847c0.011-2.27,1.856-4.1,4.125-4.094
			c2.269,0.007,4.103,1.846,4.103,4.115l0.009,341.787c0,13.475,10.924,24.399,24.399,24.399s24.399-10.925,24.399-24.4V292.572
			h10.536v195.029c0,13.476,10.924,24.399,24.399,24.399s24.399-10.924,24.399-24.399c0,0-0.428-180.686-0.441-341.491
			c0-1.903,1.261-3.577,3.09-4.101c1.829-0.525,3.788,0.224,4.796,1.838c0.387,0.621,0.62,1.273,0.623,1.947
			c0.01,1.826-0.463-2.294,8.164,63.413c1.336,10.164,10.006,17.686,20.158,17.686c5.412,0,10.433-1.999,14.865-6.442
			c1.059-5.04,2.213-9.861,3.477-14.405c7.412-26.641,21.551-54.776,49.083-54.776c3.833,0,8.424,0.611,13.312,2.549
			C420.234,145.921,419.349,135.207,412.396,128.273z M66.226,398.446c-7.713,0-13.988-6.274-13.988-13.988
			c0-7.713,6.276-13.987,13.988-13.987s13.988,6.274,13.988,13.987C80.213,392.171,73.939,398.446,66.226,398.446z M89.739,331.236
			c-7.725-9.058-13.91-26.542-13.91-47.66c0-19.143,5.084-35.298,11.789-44.901c0.796-0.052,1.243-0.115,2.122-0.217V331.236z
			 M89.739,193.785c-7.725-9.059-13.91-26.543-13.91-47.661s6.185-38.6,13.91-47.66V193.785z"/>
	</g>
</g>
<g>
</g>
<g>
</g>
<g>
</g>
<g>
</g>
<g>
</g>
<g>
</g>
<g>
</g>
<g>
</g>
<g>
</g>
<g>
</g>
<g>
</g>
<g>
</g>
<g>
</g>
<g>
</g>
<g>
</g>
</svg>
