<?xml version="1.0" encoding="utf-8"?>
<!-- Generator: Adobe Illustrator 24.1.0, SVG Export Plug-In . SVG Version: 6.00 Build 0)  -->
<svg version="1.1" id="Слой_1" fill="#0071ce" xmlns="http://www.w3.org/2000/svg" xmlns:xlink="http://www.w3.org/1999/xlink" x="0px" y="0px"
	 viewBox="0 0 512 512" style="enable-background:new 0 0 512 512;" xml:space="preserve">
<style type="text/css">
	.st0{fill:none;stroke:#000000;stroke-width:10;stroke-miterlimit:10;}
</style>
<g id="Page-1">
	<g id="_x30_39---Computer-Mouse">
		<path id="Shape" d="M265.77,309.23c-3.44,0-6.23-2.79-6.23-6.23v-37.36c0-3.44,2.79-6.23,6.23-6.23c3.44,0,6.23,2.79,6.23,6.23
			V303C272,306.44,269.21,309.23,265.77,309.23z"/>
		<path id="Shape_1_" d="M265.77,477.32c-21.31-0.78-41.96-7.61-59.53-19.69c-25.18-16-40.33-43.86-40.09-73.69
			c0.53-33.1,7.99-65.73,21.91-95.77c1.42-3.13,5.11-4.52,8.24-3.1c3.13,1.42,4.52,5.11,3.1,8.24
			c-13.19,28.42-20.28,59.3-20.8,90.63c-0.16,25.69,12.92,49.65,34.62,63.39c15.53,10.64,33.73,16.72,52.54,17.54
			c3.44,0,6.23,2.79,6.23,6.23C272,474.54,269.21,477.32,265.77,477.32z"/>
		<path id="Shape_2_" d="M265.77,477.32c-3.44,0-6.23-2.79-6.23-6.23c0-3.44,2.79-6.23,6.23-6.23c18.64-0.82,36.68-6.79,52.13-17.25
			c21.94-13.71,35.2-37.82,35.03-63.69c-0.43-29.03-6.57-57.7-18.06-84.37c-0.93-2.06-0.66-4.46,0.68-6.27
			c1.35-1.81,3.57-2.75,5.81-2.45c2.24,0.3,4.14,1.78,4.97,3.88c12.14,28.2,18.62,58.51,19.05,89.21
			c0.26,30.05-15.09,58.07-40.55,74.03C307.35,469.83,286.89,476.54,265.77,477.32z"/>
		<path id="Shape_3_" d="M265.77,271.87c-10.31-0.01-18.67-8.37-18.68-18.68v-31.13c0-10.32,8.36-18.68,18.68-18.68
			c10.32,0,18.68,8.36,18.68,18.68v31.13C284.44,263.5,276.08,271.86,265.77,271.87z M265.77,215.84c-3.44,0-6.22,2.79-6.23,6.23
			v31.13c0,3.44,2.79,6.23,6.23,6.23c3.44,0,6.23-2.79,6.23-6.23v-31.13C272,218.63,269.21,215.84,265.77,215.84z"/>
		<path id="Shape_4_" d="M321.36,459.02c-2.79,0-5.23-1.86-5.99-4.54c-3.23-13.1-4.25-26.64-3.02-40.08
			c2.84-25.52,7.29-50.84,13.34-75.8c3.03-14.11,6.15-28.69,8.79-42.62c0.54-2.88,1.15-5.89,1.78-9
			c5.31-26.43,11.93-59.32-5.75-78.23c-27.58-29.51-87.61-33.14-121.17-7.34c-11.44,7.9-18.75,20.5-19.9,34.36
			c0.31,18.12,3.76,36.05,10.2,52.99c5.45,14.6,12.65,28.48,21.43,41.34c1.82,2.91,3.81,5.7,5.79,8.5
			c5.32,6.82,9.63,14.38,12.77,22.43c3.6,10.89,4.39,22.52,2.29,33.8c-3.67,21.6-14.34,40.35-26.88,60.87
			c-1.16,1.9-3.24,3.03-5.47,2.98c-2.22-0.06-4.25-1.29-5.31-3.25s-1.01-4.33,0.15-6.23c11.86-19.4,21.94-37.04,25.23-56.46
			c1.75-9.22,1.14-18.74-1.77-27.66c-2.79-6.93-6.55-13.42-11.16-19.29c-2.11-2.98-4.23-5.97-6.18-9.06
			c-9.31-13.72-16.94-28.51-22.71-44.06c-6.94-18.34-10.6-37.75-10.82-57.35c1.22-17.58,10.32-33.68,24.75-43.79
			c38.78-29.82,105.79-25.59,137.85,8.71c22.06,23.59,14.43,61.51,8.86,89.19c-0.62,3.06-1.22,6.02-1.75,8.85
			c-2.66,14.08-5.81,28.74-8.85,42.92c-5.91,24.37-10.28,49.08-13.09,74c-1.14,12.02-0.27,24.15,2.58,35.89
			c0.93,3.31-1,6.75-4.31,7.68C322.5,458.94,321.93,459.02,321.36,459.02L321.36,459.02z"/>
		<path id="Shape_5_" d="M265.77,215.84c-3.43,0-6.22-2.78-6.23-6.21l-0.06-31.75c-0.32-13.49-11.34-24.27-24.84-24.29h-18.68
			c-20.62-0.02-37.33-16.73-37.35-37.35V110c0-3.44,2.79-6.23,6.23-6.23c3.44,0,6.23,2.79,6.23,6.23v6.23
			c0.01,13.75,11.16,24.89,24.9,24.9h18.68c20.32,0.05,36.88,16.32,37.29,36.64L272,209.6c0.05,1.67-0.59,3.28-1.77,4.46
			C269.05,215.24,267.44,215.88,265.77,215.84z"/>
	</g>
</g>
<path class="st0" d="M431.04,495.25H82c-28.12,0-50.91-22.79-50.91-50.91V77.36c0-28.12,22.79-50.91,50.91-50.91h349.05
	c28.12,0,50.91,22.79,50.91,50.91v366.97C481.95,472.45,459.16,495.25,431.04,495.25z"/>
</svg>
