<?xml version="1.0" encoding="utf-8"?>
<!-- Generator: Adobe Illustrator 24.1.0, SVG Export Plug-In . SVG Version: 6.00 Build 0)  -->
<svg version="1.1" id="Слой_1" xmlns="http://www.w3.org/2000/svg" xmlns:xlink="http://www.w3.org/1999/xlink" x="0px" y="0px"
	 viewBox="0 0 200 200" style="enable-background:new 0 0 200 200;" xml:space="preserve" fill="#0071ce" >
<style type="text/css">
	.st0{fill:#FFFFFF;stroke:#000000;stroke-width:2;stroke-miterlimit:10;}
	.st1{display:none;}
	.st2{display:inline;}
</style>
<rect x="33.5" y="24.5" class="st0" width="133" height="151"/>
<g>
	<path d="M81.69,104.57l8.44-0.77c0.49,2.83,1.51,4.92,3.06,6.26c1.55,1.34,3.64,2.01,6.27,2.03c2.79,0.01,4.9-0.56,6.32-1.74
		c1.42-1.17,2.14-2.55,2.15-4.13c0.01-1.02-0.29-1.88-0.88-2.6c-0.59-0.72-1.63-1.34-3.11-1.88c-1.01-0.36-3.32-1-6.93-1.91
		c-4.64-1.18-7.9-2.61-9.76-4.3c-2.62-2.38-3.93-5.27-3.91-8.67c0.01-2.19,0.64-4.23,1.89-6.13c1.25-1.9,3.05-3.34,5.39-4.32
		c2.34-0.98,5.16-1.47,8.46-1.45c5.39,0.03,9.44,1.23,12.15,3.61c2.71,2.38,4.12,5.54,4.24,9.49l-8.67,0.33
		c-0.36-2.21-1.15-3.8-2.36-4.77c-1.22-0.97-3.04-1.47-5.48-1.48c-2.52-0.01-4.5,0.49-5.93,1.52c-0.92,0.66-1.39,1.55-1.39,2.66
		c-0.01,1.02,0.42,1.89,1.27,2.61c1.09,0.92,3.74,1.9,7.95,2.92c4.21,1.02,7.33,2.07,9.34,3.14c2.02,1.08,3.59,2.54,4.72,4.39
		c1.13,1.85,1.69,4.14,1.68,6.85c-0.01,2.46-0.71,4.76-2.09,6.9c-1.38,2.14-3.32,3.73-5.83,4.76c-2.51,1.03-5.62,1.54-9.35,1.52
		c-5.43-0.03-9.59-1.31-12.49-3.83C83.95,113.04,82.23,109.38,81.69,104.57z"/>
</g>
<g>
	<path d="M88.01,153.09l1.71,0.43c-0.36,1.4-1,2.47-1.93,3.2s-2.06,1.1-3.41,1.1c-1.39,0-2.52-0.28-3.39-0.85
		c-0.87-0.56-1.53-1.38-1.99-2.46s-0.68-2.22-0.68-3.45c0-1.34,0.26-2.51,0.77-3.51c0.51-1,1.24-1.76,2.19-2.28
		c0.95-0.52,1.99-0.78,3.12-0.78c1.29,0,2.37,0.33,3.25,0.98s1.49,1.58,1.84,2.77l-1.68,0.4c-0.3-0.94-0.73-1.62-1.3-2.05
		s-1.28-0.64-2.14-0.64c-0.99,0-1.82,0.24-2.48,0.71s-1.13,1.11-1.4,1.91c-0.27,0.8-0.4,1.62-0.4,2.47c0,1.1,0.16,2.05,0.48,2.87
		c0.32,0.82,0.82,1.43,1.49,1.83s1.4,0.61,2.19,0.61c0.96,0,1.76-0.28,2.43-0.83S87.78,154.18,88.01,153.09z"/>
	<path d="M98.01,154.6l1.63,0.2c-0.26,0.96-0.74,1.7-1.43,2.22s-1.59,0.79-2.67,0.79c-1.37,0-2.45-0.42-3.25-1.26
		c-0.8-0.84-1.2-2.02-1.2-3.54c0-1.57,0.4-2.79,1.21-3.66s1.86-1.3,3.15-1.3c1.25,0,2.27,0.42,3.06,1.27s1.19,2.04,1.19,3.59
		c0,0.09,0,0.23-0.01,0.42h-6.96c0.06,1.03,0.35,1.81,0.87,2.36s1.17,0.82,1.95,0.82c0.58,0,1.08-0.15,1.49-0.46
		S97.77,155.27,98.01,154.6z M92.81,152.05h5.21c-0.07-0.79-0.27-1.37-0.6-1.77c-0.5-0.61-1.16-0.91-1.96-0.91
		c-0.73,0-1.34,0.24-1.83,0.73S92.87,151.23,92.81,152.05z"/>
	<path d="M101.63,161.19v-12.91h1.44v1.21c0.34-0.47,0.72-0.83,1.15-1.07c0.43-0.24,0.95-0.36,1.56-0.36c0.8,0,1.5,0.21,2.11,0.62
		s1.07,0.99,1.38,1.74c0.31,0.75,0.47,1.57,0.47,2.46c0,0.96-0.17,1.82-0.51,2.58c-0.34,0.77-0.84,1.35-1.49,1.76
		c-0.65,0.41-1.34,0.61-2.06,0.61c-0.53,0-1-0.11-1.42-0.33s-0.76-0.5-1.03-0.84v4.54H101.63z M103.06,153
		c0,1.2,0.24,2.09,0.73,2.66s1.08,0.86,1.77,0.86c0.7,0,1.3-0.3,1.81-0.89c0.5-0.59,0.75-1.52,0.75-2.76c0-1.19-0.25-2.08-0.73-2.67
		c-0.49-0.59-1.07-0.89-1.75-0.89c-0.67,0-1.27,0.32-1.79,0.94C103.32,150.88,103.06,151.79,103.06,153z"/>
	<path d="M117.73,156.46c-0.59,0.5-1.15,0.85-1.69,1.05c-0.54,0.21-1.12,0.31-1.75,0.31c-1.03,0-1.81-0.25-2.36-0.75
		c-0.55-0.5-0.83-1.14-0.83-1.92c0-0.46,0.1-0.88,0.31-1.25c0.21-0.38,0.48-0.68,0.82-0.91s0.72-0.4,1.14-0.52
		c0.31-0.08,0.78-0.16,1.41-0.24c1.28-0.15,2.22-0.33,2.82-0.54c0.01-0.22,0.01-0.35,0.01-0.41c0-0.64-0.15-1.1-0.45-1.36
		c-0.4-0.36-1-0.54-1.8-0.54c-0.74,0-1.29,0.13-1.65,0.39s-0.62,0.72-0.79,1.38l-1.55-0.21c0.14-0.66,0.37-1.2,0.69-1.6
		c0.32-0.41,0.79-0.72,1.4-0.94c0.61-0.22,1.32-0.33,2.12-0.33c0.8,0,1.44,0.09,1.94,0.28s0.86,0.42,1.1,0.71
		c0.23,0.29,0.4,0.64,0.49,1.08c0.05,0.27,0.08,0.76,0.08,1.46v2.11c0,1.47,0.03,2.4,0.1,2.79c0.07,0.39,0.2,0.76,0.4,1.12h-1.65
		C117.88,157.28,117.78,156.9,117.73,156.46z M117.6,152.92c-0.57,0.23-1.44,0.43-2.58,0.6c-0.65,0.09-1.11,0.2-1.38,0.32
		s-0.48,0.29-0.62,0.51s-0.22,0.48-0.22,0.75c0,0.42,0.16,0.77,0.48,1.05s0.79,0.42,1.4,0.42c0.61,0,1.15-0.13,1.63-0.4
		s0.82-0.63,1.05-1.09c0.17-0.36,0.25-0.88,0.25-1.58V152.92z"/>
</g>
<g>
	<path d="M55.99,57.14h-3.16V36.98c-0.76,0.73-1.76,1.45-3,2.18s-2.35,1.27-3.33,1.63v-3.06c1.77-0.83,3.32-1.84,4.64-3.02
		s2.26-2.33,2.81-3.45h2.04V57.14z"/>
	<path d="M80.51,37.68l-3.15,0.25c-0.28-1.24-0.68-2.14-1.2-2.71c-0.86-0.9-1.91-1.35-3.16-1.35c-1.01,0-1.89,0.28-2.65,0.84
		c-1,0.73-1.78,1.79-2.36,3.18s-0.87,3.38-0.9,5.96c0.76-1.16,1.69-2.02,2.79-2.58s2.26-0.84,3.46-0.84c2.11,0,3.91,0.78,5.39,2.33
		s2.22,3.56,2.22,6.02c0,1.62-0.35,3.12-1.05,4.51s-1.66,2.45-2.87,3.19s-2.6,1.11-4.15,1.11c-2.64,0-4.79-0.97-6.45-2.91
		s-2.5-5.14-2.5-9.59c0-4.98,0.92-8.6,2.76-10.86c1.61-1.97,3.77-2.95,6.49-2.95c2.03,0,3.69,0.57,4.98,1.71
		S80.25,35.67,80.51,37.68z M67.59,48.79c0,1.09,0.23,2.13,0.69,3.13s1.11,1.75,1.94,2.28s1.71,0.78,2.62,0.78
		c1.34,0,2.48-0.54,3.45-1.62s1.44-2.54,1.44-4.39c0-1.78-0.47-3.18-1.42-4.21s-2.14-1.54-3.59-1.54c-1.43,0-2.64,0.51-3.64,1.54
		S67.59,47.12,67.59,48.79z"/>
</g>
<g>
	<path d="M99.28,50.07l1.85-0.25c0.21,1.05,0.57,1.8,1.08,2.26c0.51,0.46,1.13,0.69,1.86,0.69c0.87,0,1.6-0.3,2.2-0.9
		c0.6-0.6,0.9-1.35,0.9-2.24c0-0.85-0.28-1.55-0.83-2.1c-0.55-0.55-1.26-0.83-2.11-0.83c-0.35,0-0.78,0.07-1.3,0.21l0.21-1.62
		c0.12,0.01,0.22,0.02,0.3,0.02c0.79,0,1.49-0.21,2.12-0.62s0.94-1.04,0.94-1.9c0-0.68-0.23-1.24-0.69-1.68s-1.05-0.67-1.77-0.67
		c-0.72,0-1.32,0.23-1.79,0.68s-0.79,1.13-0.92,2.03l-1.85-0.33c0.23-1.24,0.74-2.2,1.54-2.88s1.79-1.02,2.98-1.02
		c0.82,0,1.58,0.18,2.27,0.53s1.22,0.83,1.58,1.44c0.37,0.61,0.55,1.25,0.55,1.94c0,0.65-0.17,1.24-0.52,1.77
		c-0.35,0.53-0.87,0.96-1.55,1.27c0.89,0.21,1.58,0.63,2.07,1.28c0.49,0.65,0.74,1.45,0.74,2.43c0,1.31-0.48,2.43-1.44,3.34
		c-0.96,0.91-2.17,1.37-3.63,1.37c-1.32,0-2.42-0.39-3.29-1.18C99.9,52.34,99.41,51.33,99.28,50.07z"/>
	<path d="M120.65,52.27v1.77h-9.94c-0.01-0.44,0.06-0.87,0.22-1.28c0.25-0.68,0.66-1.34,1.21-2c0.56-0.66,1.36-1.42,2.41-2.28
		c1.63-1.34,2.74-2.4,3.31-3.18s0.86-1.52,0.86-2.22c0-0.73-0.26-1.35-0.78-1.85c-0.52-0.5-1.21-0.75-2.05-0.75
		c-0.89,0-1.6,0.27-2.13,0.8s-0.8,1.27-0.81,2.21l-1.9-0.19c0.13-1.42,0.62-2.49,1.47-3.24c0.85-0.74,1.99-1.11,3.41-1.11
		c1.44,0,2.58,0.4,3.42,1.2s1.26,1.79,1.26,2.97c0,0.6-0.12,1.19-0.37,1.77s-0.65,1.19-1.22,1.84c-0.57,0.64-1.52,1.52-2.85,2.65
		c-1.11,0.93-1.82,1.56-2.13,1.89s-0.57,0.66-0.78,1H120.65z"/>
	<path d="M123.67,54.04v-2.1h2.1v2.1H123.67z"/>
	<path d="M128.46,46.63c0-1.78,0.18-3.21,0.55-4.29c0.37-1.08,0.91-1.92,1.63-2.51c0.72-0.59,1.63-0.88,2.72-0.88
		c0.81,0,1.51,0.16,2.12,0.49s1.11,0.79,1.51,1.4c0.4,0.61,0.71,1.36,0.93,2.24c0.23,0.88,0.34,2.06,0.34,3.55
		c0,1.76-0.18,3.19-0.54,4.27s-0.9,1.92-1.62,2.51c-0.72,0.59-1.63,0.89-2.73,0.89c-1.45,0-2.59-0.52-3.42-1.56
		C128.96,51.49,128.46,49.45,128.46,46.63z M130.36,46.63c0,2.47,0.29,4.11,0.87,4.93c0.58,0.82,1.29,1.23,2.14,1.23
		c0.85,0,1.56-0.41,2.14-1.23c0.58-0.82,0.87-2.46,0.87-4.92c0-2.47-0.29-4.12-0.87-4.93c-0.58-0.81-1.3-1.22-2.16-1.22
		c-0.85,0-1.52,0.36-2.03,1.08C130.68,42.47,130.36,44.16,130.36,46.63z"/>
	<path d="M149.72,42.69l-1.84,0.14c-0.16-0.72-0.4-1.25-0.7-1.58c-0.5-0.53-1.11-0.79-1.85-0.79c-0.59,0-1.1,0.16-1.55,0.49
		c-0.58,0.42-1.04,1.04-1.37,1.86c-0.34,0.81-0.51,1.97-0.52,3.48c0.44-0.68,0.99-1.18,1.63-1.51c0.64-0.33,1.32-0.49,2.02-0.49
		c1.23,0,2.28,0.45,3.14,1.36c0.87,0.91,1.3,2.08,1.3,3.51c0,0.94-0.2,1.82-0.61,2.63c-0.41,0.81-0.97,1.43-1.68,1.86
		s-1.52,0.65-2.42,0.65c-1.54,0-2.79-0.57-3.76-1.7c-0.97-1.13-1.46-3-1.46-5.59c0-2.91,0.54-5.02,1.61-6.34
		c0.94-1.15,2.2-1.72,3.78-1.72c1.18,0,2.15,0.33,2.91,0.99C149.12,40.61,149.57,41.52,149.72,42.69z M142.19,49.17
		c0,0.64,0.13,1.24,0.41,1.83c0.27,0.58,0.65,1.02,1.13,1.33c0.49,0.3,1,0.46,1.53,0.46c0.78,0,1.45-0.31,2.01-0.94
		c0.56-0.63,0.84-1.48,0.84-2.56c0-1.04-0.28-1.86-0.83-2.46s-1.25-0.9-2.09-0.9c-0.83,0-1.54,0.3-2.12,0.9
		S142.19,48.2,142.19,49.17z"/>
	<path d="M151.82,50.1l1.94-0.16c0.14,0.94,0.48,1.65,1,2.13c0.52,0.48,1.15,0.71,1.89,0.71c0.89,0,1.64-0.33,2.26-1
		s0.92-1.56,0.92-2.67c0-1.05-0.3-1.88-0.89-2.49c-0.59-0.61-1.37-0.91-2.32-0.91c-0.59,0-1.13,0.14-1.61,0.4
		c-0.48,0.27-0.85,0.62-1.13,1.05l-1.73-0.23l1.46-7.72h7.47v1.76h-6l-0.81,4.04c0.9-0.63,1.85-0.94,2.84-0.94
		c1.31,0,2.42,0.45,3.32,1.36s1.35,2.08,1.35,3.51c0,1.36-0.4,2.54-1.19,3.53c-0.96,1.22-2.28,1.83-3.95,1.83
		c-1.37,0-2.48-0.38-3.35-1.15C152.44,52.38,151.95,51.37,151.82,50.1z"/>
</g>
<g class="st1">
	<g class="st2">
		<path d="M154.88,121.35c-0.22,0.02-0.44,0.11-0.61,0.24l-59.65,46.41c-4.07,3.17-7.92,5.75-8.6,5.77
			c-0.4,0.01-0.81,0.02-1.23,0.03c-1.76,0.04-3.59,0.08-5.52,0.12c-7.3,0.12-13.13-1.83-17.21-5.83
			c-4.51-4.42-6.11-10.56-6.11-14.86c-0.01-0.62-0.1-15.07,17.91-16.66c11.36-0.99,14.62,4.07,14.74,4.25
			c0.1,0.18,0.23,0.35,0.38,0.5c3.04,3.04,4.71,7.07,4.71,11.36c0,4.29-1.67,8.33-4.71,11.36c-2.34,2.34-5.44,3.62-8.75,3.62
			c-3.31,0-6.42-1.29-8.76-3.63c-3.68-3.68-3.68-9.67,0-13.35c1.34-1.34,3.12-2.07,5.01-2.07c1.9,0,3.67,0.74,5.01,2.08
			c0.51,0.51,0.9,1.1,1.16,1.75c-0.24-0.44-0.56-0.85-0.92-1.22c-2.41-2.42-6.35-2.41-8.76,0c-1.35,1.35-2.1,3.15-2.1,5.06
			c0,1.91,0.74,3.71,2.1,5.06c1.58,1.58,3.68,2.46,5.92,2.46c2.24,0,4.33-0.87,5.92-2.45c1.86-1.87,2.89-4.34,2.89-6.98
			c0-2.64-1.03-5.12-2.89-6.98c-2.22-2.22-5.17-3.45-8.31-3.45c-3.14,0-6.09,1.22-8.31,3.45c-5.5,5.5-5.5,14.45,0,19.96
			c3.22,3.22,7.5,4.99,12.06,4.99c4.56,0,8.84-1.77,12.06-4.99c3.92-3.92,6.08-9.12,6.08-14.66c0-5.46-2.09-10.59-5.9-14.49
			c-1.03-1.5-5.97-7.44-19-6.28c-22.31,1.97-22.18,21.22-22.17,21.36c0,5.21,1.97,12.71,7.51,18.15c5.01,4.92,11.97,7.34,20.57,7.17
			c1.93-0.04,3.78-0.08,5.54-0.12c17.33-0.4,26.03-0.6,34.54,6.93c0.44,0.39,1,0.59,1.54,0.59c0.65,0,1.29-0.27,1.75-0.79
			c0.12-0.13,0.17-0.29,0.26-0.44c0.17-0.05,0.32-0.12,0.45-0.24l54.53-49.07c0.44-0.4,0.51-1.06,0.17-1.54
			C177.76,133.37,168.26,120.14,154.88,121.35z M76.26,158.05c-0.47-0.47-0.73-1.09-0.73-1.76c0-0.66,0.26-1.29,0.73-1.76
			c0.3-0.3,0.69-0.44,1.07-0.44c0.39,0,0.78,0.15,1.08,0.44c0.19,0.19,0.22,0.41,0.22,0.53c0,0.11-0.03,0.34-0.22,0.53
			c-0.91,0.91-0.92,2.39,0,3.3c0.09,0.09,0.18,0.16,0.27,0.23C77.76,159.08,76.91,158.7,76.26,158.05z"/>
		<path d="M154.55,118.05c0.19-0.15,0.34-0.36,0.41-0.6c0.11-0.38,2.63-9.46-7.37-18.03c-7.74-6.63-15.42-7.35-18.37-7.35
			c-0.91,0-1.43,0.07-1.43,0.07c-0.18,0.02-0.36,0.09-0.51,0.19l-54.66,37.4c14.18-1.24,20.58,5.14,22.01,6.81
			c4.25,4.34,6.59,10.06,6.59,16.14c0,2.68-0.48,5.28-1.35,7.74L154.55,118.05z"/>
	</g>
</g>
<g class="st1">
	<g class="st2">
		<path d="M100.79,12c-117.21,2.1-117.19,175.92,0,178C218,187.9,217.99,14.08,100.79,12z M100.79,167.75
			c-52.94,1.47-86.3-63.32-54.51-105.41l93.25,93.05C128.18,163.49,114.87,167.75,100.79,167.75z M155.3,139.66L62.05,46.61
			C122.56,3.48,198.55,79.15,155.3,139.66z"/>
	</g>
</g>
<g>
	<g>
		<path d="M99.98,4C47.03,4,3.95,47.08,3.95,100.02s43.08,96.02,96.02,96.02S196,152.97,196,100.02S152.92,4,99.98,4z
			 M142.33,148.04l16.89,16.89c-15.66,14.31-36.42,23.12-59.25,23.12c-48.54,0-88.02-39.49-88.02-88.02
			c0-22.83,8.81-43.59,23.12-59.25L142.33,148.04 M152.82,147.21L40.73,35.12C56.39,20.81,77.15,12,99.98,12
			C148.51,12,188,51.49,188,100.02c0,22.83-8.81,43.59-23.12,59.25L152.82,147.21"/>
	</g>
</g>
</svg>
