<?xml version="1.0" encoding="utf-8"?>
<!-- Generator: Adobe Illustrator 24.1.0, SVG Export Plug-In . SVG Version: 6.00 Build 0)  -->
<svg version="1.1" id="Capa_1" xmlns="http://www.w3.org/2000/svg" xmlns:xlink="http://www.w3.org/1999/xlink" x="0px" y="0px"
	 viewBox="0 0 60 60" style="enable-background:new 0 0 60 60;" xml:space="preserve">
<style type="text/css">
	.st0{fill:#003DA6;}
	.st1{fill:#FFFFFF;}
</style>
<g>
	<path d="M38,12V4.41C38,1.98,36.02,0,33.6,0H8.4C5.98,0,4,1.98,4,4.41v51.19C4,58.02,5.98,60,8.4,60h25.19
		c2.43,0,4.41-1.98,4.41-4.4V33h18V12H38z"/>
	<polygon class="st0" points="18,12 18,33 22,33 22,40 31.33,33 56,33 56,12 	"/>
	<path class="st1" d="M24,3h1c0.55,0,1,0.45,1,1s-0.45,1-1,1h-1c-0.55,0-1-0.45-1-1S23.45,3,24,3z"/>
	<path class="st1" d="M17,3h4c0.55,0,1,0.45,1,1s-0.45,1-1,1h-4c-0.55,0-1-0.45-1-1S16.45,3,17,3z"/>
	<circle class="st1" cx="21" cy="53" r="4"/>
	<circle cx="21" cy="53" r="2"/>
	<polygon class="st1" points="36,46 6,46 6,8 36,8 36,12 18,12 18,33 22,33 22,40 31.33,33 36,33 	"/>
	<path class="st1" d="M36,20c0,0.55-0.45,1-1,1H25c-0.55,0-1-0.45-1-1s0.45-1,1-1h10C35.55,19,36,19.45,36,20z"/>
	<path class="st1" d="M49,26H25c-0.55,0-1-0.45-1-1s0.45-1,1-1h24c0.55,0,1,0.45,1,1S49.55,26,49,26z"/>
</g>
</svg>
