<?xml version="1.0" encoding="utf-8"?>
<!-- Generator: Adobe Illustrator 24.1.0, SVG Export Plug-In . SVG Version: 6.00 Build 0)  -->
<svg version="1.1" id="Слой_1" xmlns="http://www.w3.org/2000/svg" xmlns:xlink="http://www.w3.org/1999/xlink" x="0px" y="0px"
	 viewBox="0 0 512 512" style="enable-background:new 0 0 512 512;" xml:space="preserve" fill="#0071ce" >
<g id="_x31__x2C_5">
	<g>
		<path d="M69.33,469.33c-3.82,0-7.64-1.34-10.71-4.1l-53.33-48c-3.24-2.94-5.16-7.08-5.29-11.48c-0.11-4.39,1.58-8.62,4.69-11.73
			L46.72,352L4.69,309.97c-6.25-6.25-6.25-16.38,0-22.63l42.03-42.03L4.69,203.31c-6.25-6.25-6.25-16.38,0-22.63l42.03-42.03
			L4.69,96.64C1.58,93.55-0.11,89.3,0,84.91c0.13-4.39,2.05-8.53,5.29-11.48l53.33-48c6.57-5.93,16.66-5.4,22.61,1.19
			c5.91,6.57,5.38,16.68-1.19,22.61L39.23,85.95l41.41,41.41c6.25,6.25,6.25,16.38,0,22.63L38.63,192l42.03,42.03
			c6.25,6.25,6.25,16.38,0,22.63l-42.03,42.01l42.03,42.03c6.25,6.25,6.25,16.38,0,22.63l-41.41,41.41l40.81,36.71
			c6.57,5.91,7.1,16.02,1.19,22.61C78.06,467.56,73.71,469.33,69.33,469.33L69.33,469.33z"/>
	</g>
	<g>
		<path d="M442.67,469.33c-4.37,0-8.73-1.77-11.9-5.29c-5.91-6.57-5.38-16.68,1.19-22.61l40.81-36.71l-41.41-41.41
			c-6.25-6.25-6.25-16.38,0-22.63l42.03-42.03l-42.03-42.03c-6.25-6.25-6.25-16.38,0-22.63L473.37,192l-42.03-42.03
			c-6.25-6.25-6.25-16.38,0-22.63l41.41-41.41l-40.81-36.71c-6.57-5.91-7.1-16.02-1.19-22.61c5.93-6.57,16.04-7.08,22.61-1.19
			l53.33,48c3.26,2.97,5.18,7.1,5.31,11.5c0.11,4.39-1.58,8.62-4.69,11.73l-42.03,42.03l42.03,42.03c6.25,6.25,6.25,16.38,0,22.63
			l-42.03,42.03l42.03,42.03c6.25,6.25,6.25,16.38,0,22.63l-42.03,42.03l42.03,42.03c3.11,3.11,4.8,7.34,4.69,11.73
			c-0.13,4.39-2.05,8.53-5.29,11.48l-53.33,48C450.3,467.99,446.49,469.33,442.67,469.33z"/>
	</g>
</g>
<path d="M346.25,256.49c-34.6,0-62.75,28.15-62.75,62.75S311.64,382,346.25,382S409,353.85,409,319.25S380.85,256.49,346.25,256.49z
	 M346.25,346.14c-14.83,0-26.89-12.07-26.89-26.89s12.07-26.89,26.89-26.89s26.89,12.07,26.89,26.89S361.07,346.14,346.25,346.14z
	 M346.25,310.28c-4.94,0-8.96,4.02-8.96,8.96c0,4.94,4.02,8.96,8.96,8.96c4.94,0,8.96-4.02,8.96-8.96
	C355.21,314.3,351.19,310.28,346.25,310.28z"/>
<path d="M346.25,76c-34.6,0-62.75,28.15-62.75,62.75v129.83c14.8-18.3,37.44-30.02,62.75-30.02s47.95,11.72,62.75,30.02V138.75
	C409,104.15,380.85,76,346.25,76L346.25,76z"/>
<path d="M108.25,220.63h66.47v-66.47L108.25,220.63z M267.57,337.18l-2.01-188.26h-72.91v89.65H103V382h192.58
	C281.74,370.8,271.66,355.11,267.57,337.18L267.57,337.18z"/>
</svg>
