<?xml version="1.0" standalone="no"?>
<!DOCTYPE svg PUBLIC "-//W3C//DTD SVG 20010904//EN"
 "http://www.w3.org/TR/2001/REC-SVG-20010904/DTD/svg10.dtd">
<svg version="1.0" xmlns="http://www.w3.org/2000/svg"
 width="500.000000pt" height="500.000000pt" viewBox="0 0 500.000000 500.000000"
 preserveAspectRatio="xMidYMid meet">
<metadata>
Created by potrace 1.14, written by Peter Selinger 2001-2017
</metadata>
<g transform="translate(0.000000,500.000000) scale(0.100000,-0.100000)"
fill="#000000" stroke="none">
<path d="M4483 4983 c-13 -2 -23 -8 -23 -13 0 -5 -7 -7 -15 -4 -8 4 -21 2 -28
-3 -6 -5 -48 -20 -92 -32 -44 -12 -89 -27 -100 -32 -11 -5 -29 -11 -40 -12
-11 -2 -27 -7 -35 -10 -48 -18 -116 -37 -132 -37 -11 0 -16 -5 -12 -11 3 -6
-1 -10 -12 -9 -11 1 -22 1 -26 0 -5 -1 -11 -3 -15 -5 -5 -1 -15 -4 -23 -7 -8
-4 -36 -12 -62 -19 -27 -7 -48 -17 -48 -22 0 -4 -4 -5 -10 -2 -5 3 -16 3 -22
-2 -7 -4 -22 -9 -33 -10 -11 -2 -37 -10 -57 -18 -20 -8 -47 -16 -60 -19 -13
-3 -65 -18 -117 -35 -52 -17 -100 -31 -108 -31 -7 0 -13 -4 -13 -8 0 -5 -10
-8 -22 -7 -13 1 -26 -2 -29 -7 -4 -6 -18 -11 -33 -11 -14 -1 -26 -6 -26 -11 0
-5 -3 -7 -6 -3 -3 3 -25 -2 -47 -12 -23 -9 -49 -16 -57 -16 -8 1 -21 -3 -28
-9 -8 -5 -21 -11 -30 -12 -10 -1 -37 -8 -62 -17 -58 -20 -123 -37 -131 -34 -3
1 -13 -4 -22 -12 -10 -7 -17 -10 -17 -7 0 4 -8 2 -18 -3 -11 -6 -30 -12 -43
-15 -13 -2 -53 -14 -89 -26 -36 -12 -76 -24 -90 -27 -13 -2 -29 -8 -35 -12 -5
-5 -26 -12 -45 -16 -19 -4 -41 -12 -47 -17 -7 -6 -13 -7 -13 -3 0 4 -6 3 -12
-2 -7 -6 -21 -9 -30 -8 -10 2 -18 -1 -18 -6 0 -5 -3 -8 -7 -7 -8 1 -113 -27
-143 -39 -8 -4 -17 -7 -20 -8 -3 -1 -43 -13 -90 -28 -47 -15 -89 -27 -95 -28
-5 0 -25 -7 -42 -14 -18 -8 -33 -11 -33 -8 0 3 -6 1 -12 -4 -7 -6 -26 -13 -43
-17 -16 -4 -79 -23 -140 -42 -60 -20 -114 -37 -120 -38 -16 -3 -155 -47 -211
-67 -29 -10 -55 -15 -58 -12 -3 4 -6 1 -6 -6 0 -8 -6 -11 -17 -7 -9 4 -19 3
-22 -2 -6 -8 -113 -43 -138 -45 -7 0 -13 -4 -13 -9 0 -5 -3 -7 -8 -4 -4 2 -48
-9 -97 -26 -50 -16 -101 -32 -114 -34 -14 -3 -29 -8 -35 -12 -6 -3 -16 -7 -23
-8 -6 -1 -49 -14 -94 -29 -46 -14 -91 -27 -101 -28 -10 -1 -18 -5 -18 -9 0 -4
-6 -8 -13 -8 -16 0 -252 -74 -297 -93 -19 -9 -45 -25 -57 -36 -12 -12 -24 -21
-27 -21 -10 0 -63 -59 -58 -65 3 -3 0 -5 -6 -5 -7 0 -12 -7 -12 -15 0 -8 -3
-15 -8 -15 -4 0 -13 -14 -21 -31 -41 -93 -41 -89 -41 -950 l0 -829 27 11 c16
6 30 11 33 11 7 1 14 3 140 42 63 19 127 38 142 41 16 4 28 10 28 14 0 4 8 7
18 8 43 3 62 8 62 15 0 4 8 8 18 8 16 0 86 20 132 37 8 4 21 5 28 4 6 -1 12 3
12 10 0 6 7 9 15 6 8 -4 17 -2 21 4 3 6 12 8 20 5 8 -3 14 -2 14 3 0 4 21 13
48 19 26 6 61 16 77 23 17 7 40 14 53 15 13 2 30 8 38 15 8 6 14 9 14 6 0 -3
16 1 35 9 19 8 35 11 35 8 0 -4 7 -1 15 6 8 7 15 10 15 7 0 -4 19 1 43 9 125
46 121 49 122 -91 0 -66 4 -125 8 -132 4 -6 4 -14 -1 -17 -10 -6 -9 -286 1
-303 4 -6 4 -14 -1 -17 -10 -6 -9 -286 1 -302 3 -6 3 -14 -1 -18 -4 -4 -7
-277 -7 -607 l0 -599 36 0 c19 0 55 10 79 21 24 12 49 22 54 24 6 1 31 10 56
21 25 10 48 18 53 16 4 -1 7 2 7 8 0 5 7 6 17 3 10 -4 14 -2 10 4 -4 6 3 13
16 17 13 3 41 13 63 23 21 9 42 18 47 19 4 1 10 3 15 4 4 1 10 2 15 1 4 0 7 3
7 7 0 4 17 14 38 21 20 7 51 19 67 26 17 7 37 15 45 17 8 2 21 9 28 15 7 7 20
13 28 13 9 0 39 11 67 24 79 37 131 59 142 60 6 1 20 7 33 14 12 7 22 9 22 5
0 -4 4 -3 8 2 8 11 110 57 130 58 6 0 12 5 12 10 0 5 7 7 15 3 8 -3 15 -2 15
2 0 7 48 30 75 37 6 1 31 12 55 23 85 38 120 51 120 44 0 -4 4 -2 8 4 11 18
146 63 162 54 8 -4 43 -10 77 -13 34 -4 68 -8 75 -9 21 -5 44 -44 63 -108 20
-66 50 -106 68 -92 7 5 21 9 32 10 29 1 147 21 151 25 3 3 11 117 13 189 1 23
10 31 68 59 37 18 74 38 81 46 7 7 17 13 22 13 5 0 26 15 46 34 34 31 39 33
59 20 12 -8 25 -11 28 -7 4 3 7 1 7 -5 0 -7 6 -12 14 -12 8 0 36 -10 63 -22
26 -12 55 -22 62 -22 13 -1 48 39 91 104 8 12 23 32 32 45 17 22 16 23 -57
100 -41 43 -75 84 -75 90 0 7 7 32 15 56 9 24 16 53 17 66 2 13 5 23 9 23 3 0
5 14 4 30 -1 17 1 30 5 30 4 0 7 17 6 37 -1 29 4 40 21 49 13 6 20 14 15 19
-4 5 -2 5 5 1 7 -4 31 2 55 14 23 11 47 20 54 20 7 0 19 6 26 13 7 7 18 15 23
18 6 2 9 11 7 19 -1 8 -4 29 -6 45 -2 17 -5 30 -6 30 -1 0 -4 14 -5 30 -5 40
-13 76 -20 83 -3 3 -39 7 -80 8 -41 1 -79 6 -86 10 -7 4 -9 3 -6 -4 5 -7 -3
-7 -28 1 -19 6 -35 16 -35 24 0 7 -11 31 -25 53 -14 22 -25 42 -25 45 0 11
-72 105 -81 105 -15 0 -10 43 11 85 11 22 19 46 20 53 0 6 4 12 8 12 5 0 9 7
10 15 1 8 3 22 4 30 1 8 5 15 10 15 4 0 8 7 8 15 0 8 -5 15 -10 15 -6 0 -20 9
-32 20 -12 10 -25 17 -30 14 -4 -3 -8 -1 -8 4 0 6 -20 23 -45 39 -25 15 -45
33 -45 38 0 6 -7 1 -15 -9 -8 -11 -15 -17 -15 -13 0 4 -28 -21 -62 -54 -78
-74 -87 -79 -118 -66 -35 14 -37 15 -110 31 -36 8 -66 15 -67 15 -2 1 -19 1
-38 1 -37 0 -37 0 -109 173 -15 38 -17 39 -56 33 -22 -3 -59 -9 -82 -12 -24
-3 -55 -10 -70 -16 -30 -11 -28 -1 -31 -181 -1 -48 -1 -49 -46 -70 -25 -12
-48 -24 -51 -28 -3 -3 -21 -15 -40 -27 -19 -12 -48 -33 -65 -48 -16 -14 -37
-31 -46 -38 -8 -6 -37 -38 -63 -71 -66 -83 -71 -90 -74 -106 -2 -8 -8 -15 -13
-17 -5 -2 -9 -11 -9 -20 0 -9 -7 -26 -15 -36 -12 -16 -17 -17 -30 -6 -8 7 -15
9 -15 6 0 -4 -40 14 -90 40 -49 26 -90 51 -90 56 0 4 -6 8 -13 8 -20 0 -138
119 -180 183 -38 58 -86 154 -92 185 -2 9 -4 17 -5 17 -3 0 -11 39 -13 62 -1
13 -5 23 -8 23 -13 0 5 52 20 58 25 9 77 64 85 90 5 13 10 21 14 18 3 -3 14
18 24 47 10 28 21 59 25 67 3 8 7 18 8 23 2 4 3 8 5 10 1 1 3 9 5 17 1 8 13
42 26 75 13 33 24 62 25 65 1 6 26 63 49 113 8 17 26 50 40 72 14 22 28 47 32
55 18 39 203 226 234 235 11 4 19 11 19 17 0 6 3 9 6 6 3 -3 16 4 29 16 13 12
36 28 52 36 15 8 52 29 81 47 28 18 52 30 52 27 0 -3 14 4 30 16 17 12 30 18
30 13 0 -4 4 -3 8 2 10 14 228 110 317 140 40 14 99 26 131 27 33 2 62 8 66
13 5 6 8 5 8 -2 0 -7 11 -13 25 -13 19 0 25 5 25 21 0 12 7 36 16 55 21 44
122 147 148 151 5 1 12 5 15 10 10 14 70 53 81 53 6 0 9 4 5 9 -3 5 4 12 15
16 11 3 42 28 69 56 l49 49 24 -47 c13 -27 30 -68 37 -93 7 -25 17 -56 22 -70
5 -14 7 -35 5 -47 -3 -13 0 -23 5 -23 6 0 8 -4 5 -8 -2 -4 -6 -40 -8 -80 -1
-40 -6 -72 -10 -72 -5 0 -8 -7 -8 -15 0 -27 -40 -96 -73 -126 -17 -16 -29 -30
-26 -32 2 -2 33 -9 69 -16 36 -7 68 -18 72 -24 4 -7 8 -9 8 -4 0 4 16 0 36 -8
77 -32 197 -43 264 -24 25 7 51 14 59 15 8 1 17 6 20 11 3 4 13 9 21 11 37 8
174 137 164 154 -3 5 -1 8 5 8 8 0 34 63 49 120 9 36 7 1410 -3 1409 -5 -1
-20 -4 -32 -6z"/>
</g>
</svg>
